ply
format ascii 1.0
element vertex 350
property float x
property float y
property float z
element face 275
property list uchar int vertex_index
end_header
-22.337431 46.181484 -51.025429
-36.351521 60.144604 -31.192137
-19.109072 44.969933 -51.817654
-35.574638 70.367165 -22.593025
-34.785595 68.031776 -2.786148
-35.184544 69.514633 -9.318459
-22.991539 39.44389 -49.630043
-19.286303 38.206821 -50.896542
-15.877325 37.752605 -51.80452
-34.873878 48.132446 -38.215523
-35.508774 70.194176 -16.176226
-32.640152 45.786072 -42.243858
-29.77965 43.362221 -45.494568
-26.397219 40.976101 -47.930923
-34.890678 73.986931 -24.34586
-35.543648 70.065887 -25.655914
-34.181366 72.063904 -4.449552
-22.704422 42.891777 -50.36858
-21.12929 38.579838 -50.291779
-20.901556 41.871861 -50.904037
-17.329863 44.579933 -52.124805
-17.542717 41.377914 -51.783585
-15.798517 40.951012 -52.109165
-14.193826 37.495247 -52.188282
-36.509228 55.601166 -32.375877
-35.966171 54.620663 -34.937447
-34.61676 73.200821 -11.259274
-35.393112 69.838142 -12.790357
-34.784767 73.469559 -14.453613
-34.888248 73.727974 -17.778685
-34.353283 52.212273 -39.777328
-33.859699 47.287411 -40.324253
-33.359783 51.035824 -41.765717
-29.411924 47.13538 -46.625824
-28.156557 42.225521 -46.811428
-27.788309 45.887436 -47.85984
-26.118477 44.713097 -48.863369
-20.702631 45.310886 -51.448853
-36.176731 65.555428 -26.903728
-35.584816 64.990303 -4.337529
-34.977951 68.880943 -5.902857
-34.41774 72.690659 -7.875782
-19.205109 41.638191 -51.397293
-35.754555 49.388454 -35.91209
-35.222416 53.224716 -37.526497
-35.638351 69.997482 -19.442211
-34.931229 73.866295 -21.120197
-31.182667 44.486938 -44.083187
-24.732088 40.187469 -48.843742
-24.493193 43.954697 -49.692688
-24.081144 47.186356 -50.435101
-34.866076 73.826153 -25.857785
-34.538919 75.743374 -25.071182
-15.727449 42.590411 -52.230804
-16.56419 42.765473 -52.116985
-16.493122 44.404871 -52.238625
-14.90826 40.832375 -52.265728
-15.727449 42.590411 -52.230804
-36.644987 58.295741 -30.374759
-36.504864 60.534628 -29.699199
-36.430374 57.872885 -31.784007
-36.723841 56.024022 -30.966629
-36.644987 58.295741 -30.374759
-36.128616 59.848886 -32.580202
-36.20747 57.577168 -33.172072
-36.430374 57.872885 -31.784007
-34.37216 75.266026 -13.672365
-34.700764 73.33519 -12.856444
-34.288156 75.131657 -12.075195
-34.460144 75.315888 -15.333287
-34.37216 75.266026 -13.672365
-33.577715 53.639916 -41.482253
-33.856533 51.624049 -40.771523
-34.074465 54.22814 -40.488058
-29.177693 49.001886 -47.165825
-29.857675 49.575297 -46.54027
-28.365886 48.377915 -47.782833
-28.600116 46.511408 -47.242832
-29.177693 49.001886 -47.165825
-27.613882 47.79672 -48.325714
-28.365886 48.377915 -47.782833
-35.905712 68.306134 -23.252957
-35.938575 68.326886 -21.655053
-35.817183 67.518151 -27.789839
-35.860189 67.810658 -26.279821
-35.500641 69.77338 -27.165931
-36.081165 65.178517 -28.468451
-35.817183 67.518151 -27.789839
-35.042536 66.166858 -1.874541
-34.634363 67.720645 -1.197377
-35.185205 66.511039 -3.561838
-35.442146 64.646122 -2.650231
-35.042536 66.166858 -1.874541
-34.047482 74.136017 -7.051665
-34.299553 72.377281 -6.162667
-33.929294 73.822639 -5.33855
-34.117515 74.572082 -8.698527
-34.047482 74.136017 -7.051665
-22.091135 37.343249 -49.647604
-22.951798 37.596914 -49.284378
-19.321948 36.451135 -50.604433
-20.243442 36.637644 -50.302052
-20.207797 38.39333 -50.594161
-18.426082 36.316486 -50.897383
-19.321948 36.451135 -50.604433
-16.705147 37.841831 -51.596525
-17.537843 39.654485 -51.586058
-16.710021 39.565259 -51.794052
-15.857694 36.01133 -51.613769
-16.705147 37.841831 -51.596525
-15.043765 35.948011 -51.84914
-15.857694 36.01133 -51.613769
-13.357159 35.941328 -52.293689
-13.319088 37.502915 -52.389721
-36.124601 49.919502 -34.641706
-36.007212 47.39192 -35.049498
-35.27195 55.858456 -37.112766
-35.594294 53.92269 -36.231972
-35.643828 56.556429 -35.818241
-34.91903 55.231105 -38.318638
-35.27195 55.858456 -37.112766
-35.577166 67.808651 -10.038068
-35.46826 67.659599 -8.412789
-35.825819 68.274372 -15.224106
-35.767988 68.096355 -13.531171
-35.450943 70.016159 -14.483291
-35.891903 68.240002 -16.843734
-35.825819 68.274372 -15.224106
-35.573563 70.095829 -17.809219
-35.956692 68.141655 -18.476726
-35.891903 68.240002 -16.843734
-34.559441 75.681938 -20.303269
-34.909739 73.797134 -19.449441
-34.53795 75.612777 -18.632512
-34.590815 75.633126 -21.917753
-34.559441 75.681938 -20.303269
-34.532465 45.680227 -38.5968
-35.093397 46.127561 -37.428209
-32.810488 43.942431 -41.591328
-33.420261 44.6931 -40.631525
-33.249926 46.536741 -41.284056
-32.116594 43.29397 -42.482123
-32.810488 43.942431 -41.591328
-30.481158 43.92458 -44.788877
-31.013127 46.349888 -44.651266
-30.311619 45.787529 -45.356956
-29.946426 41.531363 -44.890119
-30.647934 42.093721 -44.184429
-30.481158 43.92458 -44.788877
-29.11381 40.920975 -45.590706
-29.946426 41.531363 -44.890119
-26.54578 39.269836 -47.439199
-27.425449 39.894547 -46.879452
-27.276888 41.600811 -47.371175
-25.587436 38.66433 -47.964862
-26.54578 39.269836 -47.439199
-25.564653 40.581785 -48.387332
-24.754871 38.270014 -48.421272
-25.587436 38.66433 -47.964862
-25.194167 46.182991 -49.6669
-25.305835 44.333897 -49.278028
-26.006809 46.562191 -49.252241
-24.988143 47.798821 -50.038107
-24.287168 45.570526 -50.063895
-25.194167 46.182991 -49.6669
-35.19256 71.865631 -26.512811
-35.217163 72.026409 -25.000887
-34.866076 73.826153 -25.857785
-35.500641 69.77338 -27.165931
-35.19256 71.865631 -26.512811
-34.389814 69.524421 -2.00532
-34.634363 67.720645 -1.197377
-34.0877 71.540485 -2.837022
-34.48348 70.04784 -3.61785
-34.389814 69.524421 -2.00532
-33.820995 73.413219 -3.61739
-34.0877 71.540485 -2.837022
-33.929294 73.822639 -5.33855
-33.820995 73.413219 -3.61739
-14.105915 39.104492 -52.305287
-14.996171 39.223129 -52.148724
-14.90826 40.832375 -52.265728
-13.319088 37.502915 -52.389721
-14.105915 39.104492 -52.305287
-36.797552 53.51333 -31.514246
-36.723841 56.024022 -30.966629
-36.501938 53.025858 -32.8736
-36.797552 53.51333 -31.514246
-36.2377 55.110914 -33.656662
-36.23041 52.535607 -34.154385
-36.501938 53.025858 -32.8736
-35.935941 57.086916 -34.452856
-36.2377 55.110914 -33.656662
-36.20747 57.577168 -33.172072
-35.643828 56.556429 -35.818241
-35.935941 57.086916 -34.452856
-34.511884 75.445095 -16.995823
-34.836507 73.598767 -16.116149
-34.460144 75.315888 -15.333287
-34.53795 75.612777 -18.632512
-34.511884 75.445095 -16.995823
-30.127756 47.674109 -45.922584
-29.857675 49.575297 -46.54027
-29.595787 45.248801 -46.060196
-30.311619 45.787529 -45.356956
-30.127756 47.674109 -45.922584
-26.778966 47.209551 -48.827478
-26.953393 45.300266 -48.361604
-27.613882 47.79672 -48.325714
-26.006809 46.562191 -49.252241
-26.778966 47.209551 -48.827478
-21.369627 47.376154 -51.5045
-21.520031 45.746185 -51.237141
-22.187027 47.811453 -51.292788
-20.55852 46.984673 -51.683321
-21.369627 47.376154 -51.5045
-19.76174 46.814196 -51.867722
-19.905852 45.14041 -51.633253
-20.55852 46.984673 -51.683321
-18.981856 46.507521 -51.991609
-19.76174 46.814196 -51.867722
-18.092251 46.312521 -52.145185
-18.219468 44.774933 -51.971229
-18.981856 46.507521 -51.991609
-17.242434 46.170858 -52.249216
-18.092251 46.312521 -52.145185
-16.493122 44.404871 -52.238625
-17.242434 46.170858 -52.249216
-35.890217 68.155495 -24.784402
-35.905712 68.306134 -23.252957
-35.559143 70.216526 -24.12447
-36.206758 65.900265 -25.408309
-35.890217 68.155495 -24.784402
-35.860189 67.810658 -26.279821
-36.506052 63.599957 -26.064011
-36.206758 65.900265 -25.408309
-36.417469 63.24004 -27.554994
-36.506052 63.599957 -26.064011
-36.417469 63.24004 -27.554994
-36.081165 65.178517 -28.468451
-36.16856 62.473104 -30.612655
-36.504864 60.534628 -29.699199
-35.997496 62.203345 -32.08603
-36.16856 62.473104 -30.612655
-35.840433 63.227882 -3.494003
-35.442146 64.646122 -2.650231
-35.984041 63.412109 -5.107467
-35.840433 63.227882 -3.494003
-35.668396 65.397434 -5.922324
-35.984041 63.412109 -5.107467
-35.364964 67.342754 -6.704987
-35.668396 65.397434 -5.922324
-35.281383 66.935623 -5.120193
-35.081248 69.197788 -7.610658
-35.46826 67.659599 -8.412789
-35.364964 67.342754 -6.704987
-34.217025 74.827164 -10.390273
-34.51725 72.94574 -9.567528
-34.117515 74.572082 -8.698527
-34.288156 75.131657 -12.075195
-34.217025 74.827164 -10.390273
-21.16001 36.911223 -49.978472
-22.091135 37.343249 -49.647604
-22.060415 39.011864 -49.960911
-21.16001 36.911223 -49.978472
-20.243442 36.637644 -50.302052
-18.369039 39.784624 -51.392912
-18.373913 41.508052 -51.590439
-17.537843 39.654485 -51.586058
-18.409636 38.068939 -51.142536
-19.245706 39.922506 -51.146918
-18.369039 39.784624 -51.392912
-18.426082 36.316486 -50.897383
-18.409636 38.068939 -51.142536
-14.202016 35.819332 -52.041021
-15.043765 35.948011 -51.84914
-15.035576 37.623926 -51.996401
-14.202016 35.819332 -52.041021
-13.357159 35.941328 -52.293689
-35.533736 46.755566 -36.276493
-36.007212 47.39192 -35.049498
-35.314217 48.76045 -37.063806
-35.093397 46.127561 -37.428209
-35.533736 46.755566 -36.276493
-35.860363 52.004559 -35.424768
-36.124601 49.919502 -34.641706
-36.23041 52.535607 -34.154385
-34.484463 54.724884 -39.444053
-34.78785 52.718495 -38.651912
-34.91903 55.231105 -38.318638
-34.074465 54.22814 -40.488058
-34.484463 54.724884 -39.444053
-36.128616 59.848886 -32.580202
-35.997496 62.203345 -32.08603
-35.68145 67.970405 -11.774017
-35.577166 67.808651 -10.038068
-35.288828 69.676388 -11.054408
-35.68145 67.970405 -11.774017
-35.767988 68.096355 -13.531171
-35.970432 68.142044 -20.079646
-35.956692 68.141655 -18.476726
-35.606494 70.182323 -21.017618
-35.938575 68.326886 -21.655053
-35.970432 68.142044 -20.079646
-34.570539 75.693444 -23.530584
-34.910954 73.926613 -22.733028
-34.590815 75.633126 -21.917753
-34.538919 75.743374 -25.071182
-34.570539 75.693444 -23.530584
-34.025375 45.25771 -39.651165
-34.532465 45.680227 -38.5968
-34.366788 47.709929 -39.269888
-34.025375 45.25771 -39.651165
-33.420261 44.6931 -40.631525
-33.098074 52.87714 -42.422232
-33.577715 53.639916 -41.482253
-32.754469 50.389145 -42.715331
-33.098074 52.87714 -42.422232
-32.394654 47.764269 -42.954401
-32.999967 48.410948 -42.004788
-32.754469 50.389145 -42.715331
-31.665911 47.114702 -43.874066
-31.013127 46.349888 -44.651266
-31.911409 45.136505 -43.163522
-32.394654 47.764269 -42.954401
-31.665911 47.114702 -43.874066
-31.387851 42.644403 -43.401787
-32.116594 43.29397 -42.482123
-31.911409 45.136505 -43.163522
-31.387851 42.644403 -43.401787
-30.647934 42.093721 -44.184429
-28.302263 40.352625 -46.249136
-29.11381 40.920975 -45.590706
-28.968103 42.793871 -46.152998
-28.302263 40.352625 -46.249136
-27.425449 39.894547 -46.879452
-23.822073 37.968704 -48.891227
-24.754871 38.270014 -48.421272
-23.861814 39.81568 -49.236892
-22.951798 37.596914 -49.284378
-23.822073 37.968704 -48.891227
-24.660709 49.310976 -50.447153
-24.988143 47.798821 -50.038107
-23.848396 48.762402 -50.763546
-24.660709 49.310976 -50.447153
-22.97654 48.259966 -51.05871
-23.209287 46.68392 -50.730265
-23.848396 48.762402 -50.763546
-22.187027 47.811453 -51.292788
-22.97654 48.259966 -51.05871
3 52 51 14
3 0 19 17
3 53 22 54
3 55 54 20
3 53 54 55
3 57 56 22
3 1 58 59
3 1 60 62
3 60 24 61
3 60 61 62
3 1 63 65
3 65 64 24
3 63 64 65
3 66 28 67
3 68 67 26
3 66 67 68
3 70 69 28
3 71 32 72
3 73 72 30
3 71 72 73
3 74 33 75
3 76 35 77
3 78 77 33
3 76 77 78
3 80 79 35
3 3 81 82
3 83 38 84
3 85 84 15
3 83 84 85
3 87 86 38
3 4 88 89
3 4 90 92
3 90 39 91
3 90 91 92
3 4 40 39
3 93 41 94
3 95 94 16
3 93 94 95
3 97 96 41
3 6 98 99
3 7 100 102
3 102 101 18
3 100 101 102
3 7 103 104
3 2 42 37
3 8 105 107
3 107 106 21
3 105 106 107
3 8 108 109
3 8 110 111
3 113 112 23
3 114 43 115
3 116 44 117
3 118 117 25
3 116 117 118
3 120 119 44
3 5 121 122
3 10 123 125
3 125 124 27
3 123 124 125
3 10 126 127
3 10 128 130
3 128 45 129
3 128 129 130
3 131 46 132
3 133 132 29
3 131 132 133
3 135 134 46
3 9 136 137
3 11 138 140
3 140 139 31
3 138 139 140
3 11 141 142
3 12 143 145
3 143 47 144
3 143 144 145
3 12 146 148
3 148 147 47
3 146 147 148
3 12 149 150
3 13 151 153
3 153 152 34
3 151 152 153
3 13 154 155
3 13 156 158
3 156 48 157
3 156 157 158
3 159 49 160
3 161 160 36
3 159 160 161
3 162 50 163
3 164 163 49
3 162 163 164
3 14 15 3
3 165 15 166
3 167 166 14
3 165 166 167
3 169 168 15
3 170 4 171
3 172 16 173
3 174 173 4
3 172 173 174
3 175 16 176
3 178 177 16
3 17 18 6
3 19 18 17
3 19 7 18
3 20 21 2
3 22 21 20
3 22 8 21
3 22 23 8
3 179 23 180
3 181 180 22
3 179 180 181
3 183 182 23
3 24 184 185
3 24 186 187
3 24 188 190
3 188 25 189
3 188 189 190
3 191 25 192
3 193 192 24
3 191 192 193
3 195 194 25
3 26 27 5
3 28 27 26
3 28 10 27
3 28 29 10
3 196 29 197
3 198 197 28
3 196 197 198
3 200 199 29
3 30 31 9
3 32 31 30
3 32 11 31
3 33 201 202
3 33 203 205
3 203 12 204
3 203 204 205
3 33 34 12
3 35 34 33
3 35 13 34
3 35 36 13
3 206 36 207
3 208 207 35
3 206 207 208
3 210 209 36
3 211 37 212
3 213 212 0
3 211 212 213
3 214 37 215
3 216 2 217
3 218 217 37
3 216 217 218
3 219 2 220
3 221 20 222
3 223 222 2
3 221 222 223
3 224 20 225
3 227 226 20
3 15 228 230
3 230 229 3
3 228 229 230
3 38 231 233
3 233 232 15
3 231 232 233
3 38 234 235
3 38 236 237
3 239 238 38
3 240 1 241
3 243 242 1
3 39 244 245
3 39 246 247
3 39 248 249
3 40 250 252
3 252 251 39
3 250 251 252
3 40 253 255
3 253 5 254
3 253 254 255
3 16 40 4
3 41 40 16
3 41 5 40
3 41 26 5
3 256 26 257
3 258 257 41
3 256 257 258
3 260 259 26
3 18 261 263
3 263 262 6
3 261 262 263
3 265 264 18
3 37 19 0
3 42 19 37
3 42 7 19
3 21 42 2
3 266 42 267
3 268 267 21
3 266 267 268
3 269 7 270
3 271 270 42
3 269 270 271
3 273 272 7
3 23 274 276
3 276 275 8
3 274 275 276
3 278 277 23
3 43 279 280
3 43 281 283
3 281 9 282
3 281 282 283
3 25 284 286
3 284 43 285
3 284 285 286
3 44 43 25
3 44 9 43
3 44 30 9
3 287 30 288
3 289 288 44
3 287 288 289
3 291 290 30
3 293 292 1
3 27 294 296
3 296 295 5
3 294 295 296
3 298 297 27
3 45 299 300
3 45 301 303
3 301 3 302
3 301 302 303
3 29 45 10
3 46 45 29
3 46 3 45
3 46 14 3
3 304 14 305
3 306 305 46
3 304 305 306
3 308 307 14
3 31 309 311
3 311 310 9
3 309 310 311
3 313 312 31
3 314 32 315
3 316 32 317
3 318 11 319
3 320 319 32
3 318 319 320
3 47 321 322
3 47 323 325
3 323 11 324
3 323 324 325
3 47 326 328
3 328 327 11
3 326 327 328
3 330 329 47
3 34 331 333
3 333 332 12
3 331 332 333
3 335 334 34
3 48 336 337
3 48 338 340
3 338 6 339
3 338 339 340
3 36 48 13
3 49 48 36
3 49 6 48
3 49 17 6
3 50 17 49
3 50 0 17
3 341 50 342
3 343 50 344
3 345 0 346
3 347 346 50
3 345 346 347
3 349 348 0
