ply
format ascii 1.0
element vertex 1026
property float x
property float y
property float z
element face 1052
property list uchar int vertex_index
end_header
-1.705941 -19.812298 63.275246
-18.701809 -20.501606 72.546547
10.124616 -4.246849 53.798054
32.180099 13.522241 26.477575
23.421862 -1.185511 40.966125
-22.731609 -29.296371 72.574257
28.135628 6.579226 34.027905
21.810205 5.548728 40.891373
4.135614 -12.13059 59.07626
11.61523 -10.653358 52.686611
-4.25333 -13.161744 64.99894
-10.288034 -20.637838 68.845894
-12.818124 -12.774395 69.919685
-14.865417 -29.061817 70.875069
37.620655 11.782402 20.172951
34.050816 5.806372 27.990456
16.950853 -2.571486 47.445637
18.242695 -9.286576 46.274136
39.374695 15.777584 12.507691
-30.483871 -20.748341 66.086426
-30.79384 -19.078377 62.207912
-27.289171 -23.501492 71.804977
-29.345491 -22.568254 69.416832
1.061275 -15.966891 61.372028
5.097715 -15.398157 58.124195
-5.016511 -9.383096 65.209488
-8.447008 -12.97634 67.537064
-0.96522 -9.326559 62.582115
-29.529577 -19.909447 49.850327
-14.607885 -20.80146 71.01075
-12.822462 -24.628128 70.17421
-16.967342 -24.756392 71.938988
35.011791 12.890176 23.267584
36.054867 8.890241 24.051184
33.132675 9.78984 27.240597
25.834152 2.76808 37.637169
28.808155 2.772061 34.730026
26.498531 -0.97583 38.003254
24.121769 -4.716884 40.773125
16.335743 0.84257 47.485794
13.646678 -3.237981 50.611561
12.167231 -14.02774 51.61377
14.950627 -9.988445 49.49762
39.259712 16.97678 8.620244
-22.415789 -20.094465 73.264671
-20.846024 -24.764627 72.931
-24.442186 -24.392229 72.944099
30.243853 10.0481 30.374304
27.012207 10.042154 33.893505
24.86805 6.277596 37.486397
22.600655 2.188484 40.98761
7.123706 -8.213927 56.601154
10.890697 -7.344146 53.399223
7.846816 -11.386353 56.044418
8.684786 -14.698462 54.959774
-3.098703 -16.461046 64.361488
-6.062756 -20.232412 66.310081
-7.461201 -16.718571 67.13047
-11.731345 -16.872232 69.516716
-15.831589 -16.478472 71.445625
6.367429 -4.95191 56.877922
3.145173 -8.887344 59.680485
-0.083357 -12.666403 62.207878
-8.460896 -24.316534 67.743202
-10.731577 -28.345467 68.85582
-18.980417 -29.389965 72.200577
39.632809 10.24356 17.425463
38.396996 7.827852 21.048834
36.718647 5.029549 24.866568
31.198622 6.370347 30.93722
31.910122 2.526363 31.660109
18.686041 4.940249 44.289268
19.480726 1.623837 44.240585
20.350273 -1.620867 44.016579
14.402196 -6.554708 50.175835
17.735773 -5.781455 46.948166
20.982195 -5.099513 43.768402
38.845718 14.024404 16.234385
38.001537 13.48786 3.795793
39.574043 13.127286 6.955619
-30.005152 -21.77689 67.907188
-0.361705 -17.945011 62.363953
1.603354 -17.501514 60.849148
0.388691 -19.525158 61.652359
-16.706627 -20.554874 71.871635
-15.82087 -22.63381 71.540749
-17.8123 -22.617956 72.262871
33.646076 13.254998 24.818609
34.211685 11.236676 25.21018
32.722202 11.706654 26.767351
24.602613 0.885098 39.363281
26.225416 0.931722 37.791096
24.95903 -0.886121 39.440849
25.344179 -2.804711 39.423771
23.773121 -2.87259 40.909908
13.334541 -1.646889 50.687092
11.938288 -3.600567 52.174644
13.783772 -13.714239 49.996635
34.464272 14.912031 22.781305
-24.185513 -19.676935 73.243446
-23.457142 -22.175219 73.206734
-25.072132 -21.914856 72.991821
22.90246 7.553801 39.173584
24.411661 7.936379 37.434975
23.335781 5.968876 39.175423
23.820539 4.280842 39.177429
22.292339 3.888329 40.844131
5.584577 -10.151983 57.909634
7.45627 -9.840132 56.390644
5.957028 -11.809107 57.619179
6.952125 -14.966324 56.533539
-3.670027 -14.833074 64.704948
-5.188239 -16.590034 65.730194
-5.919257 -14.852036 66.122536
-10.590002 -13.053078 68.753838
-10.1878 -14.936815 68.61541
-12.191845 -14.771313 69.68045
-13.797919 -16.715097 70.540298
-14.254835 -14.639167 70.693459
4.734769 -6.914995 58.328064
2.852693 -7.068313 59.716164
-2.580448 -11.146122 63.796986
-0.432403 -10.93623 62.350887
-2.093553 -12.918709 63.586956
-1.437472 -14.574886 63.203979
-29.35771 -18.738781 47.730503
-8.119344 -20.584009 67.593666
-7.205517 -22.244772 67.013901
-9.37696 -22.490088 68.334572
-13.946602 -26.688946 70.635139
-11.742883 -26.421598 69.55191
-12.857335 -28.560192 69.98645
-11.68952 -30.435606 69.180595
-13.74955 -30.886076 70.177635
-21.820204 -27.070957 72.851624
-19.905493 -27.037422 72.619209
-20.815746 -29.394135 72.510643
38.77549 11.018592 18.668819
39.101471 9.199796 19.108885
38.082069 9.857946 20.553003
35.097527 7.439917 25.990871
36.466309 7.056085 24.358355
35.435848 5.49936 26.411337
35.776516 3.36587 26.813869
34.472801 3.828369 28.287275
29.208035 8.386812 32.197124
30.743269 8.22715 30.63092
29.629028 6.412326 32.562126
29.288834 1.052956 34.80233
30.367296 2.731998 33.187084
18.18248 6.602326 44.434826
17.135336 4.547993 45.947712
16.638811 -0.926565 47.503597
17.842653 1.11609 45.967667
18.226143 -0.52492 45.902729
19.886358 0.08545 44.162067
18.663265 -2.049339 45.723667
11.155531 -9.037118 53.188721
12.734161 -6.961051 51.736774
12.96825 -8.621107 51.525822
16.734982 -9.57352 47.75272
16.370804 -7.967737 48.258156
17.984774 -7.521451 46.684151
19.308538 -5.454839 45.405373
19.58527 -7.2228 45.120049
37.13953 13.710794 19.669008
37.762783 14.876745 17.71513
38.319092 12.916172 18.211321
39.315796 11.998301 16.892113
37.427723 16.051382 2.857065
38.301151 15.6707 4.331423
38.892254 13.270468 5.3536
39.015087 15.498898 5.958756
39.41391 16.452065 10.516756
39.898827 14.757511 9.587754
40.001225 14.322165 11.442293
39.926449 13.71503 13.287246
-30.49312 -23.274977 64.654541
-30.631681 -22.456949 62.531239
-30.70742 -20.256645 64.160194
-26.583904 -21.297421 72.470825
-27.910192 -20.816349 71.590996
-28.445555 -23.197994 70.723747
-30.189201 -24.024054 66.408951
21.432514 7.317049 40.820351
2.665261 -13.984228 60.199608
4.486352 -13.800805 58.756012
3.066815 -15.671737 59.801292
-4.637064 -11.226827 65.117676
-6.386183 -13.004566 66.312386
-6.826108 -11.157506 66.462364
-8.915255 -11.121485 67.699539
-29.754921 -20.887779 52.05928
-29.606346 -16.535526 49.486279
-29.430893 -15.425714 47.156769
-12.499977 -20.718729 70.013
-11.658921 -22.64426 69.600212
-13.722088 -22.734989 70.626312
-14.856568 -24.608133 71.118637
-15.90883 -26.82935 71.460472
36.370213 12.395561 21.692293
36.892139 10.43741 22.071922
35.642265 10.879211 23.567268
34.684502 9.386571 25.573992
33.752251 7.913882 27.407473
26.973335 4.659873 35.897598
28.447496 4.66397 34.428631
27.338823 2.873296 36.137806
27.726336 0.981255 36.338299
28.114815 -0.928543 36.462654
15.972477 2.488223 47.516602
14.656358 0.412232 49.152447
15.097411 -1.145405 48.996284
15.260917 -2.888072 49.083221
11.820767 -12.459173 52.271614
13.244447 -10.302265 51.152344
13.559484 -11.997168 50.601757
15.318024 -11.698295 48.853817
35.891891 14.353545 21.139109
-30.63562 -21.288551 60.515797
-30.509684 -20.35857 58.328018
-30.293928 -19.415512 55.988068
-20.664888 -20.229118 73.030006
-19.827812 -22.445436 72.82682
-21.685602 -22.570265 73.13578
-22.766026 -24.543596 73.086464
-23.640934 -26.815575 72.817802
-25.914734 -24.012203 72.534775
-25.183992 -26.683018 72.488815
-24.342794 -29.280848 72.335777
31.098629 11.903388 28.560471
29.590677 11.980919 30.242712
28.627974 10.22901 32.059696
27.615479 8.28665 33.912342
25.91692 8.139351 35.759789
26.507357 6.517914 35.715561
25.395424 4.613304 37.488026
24.266407 2.632846 39.215057
23.106689 0.621101 40.879665
8.568425 -6.207008 55.28236
10.462182 -5.732622 53.662075
9.06043 -7.812957 54.989262
9.346004 -9.491169 54.787807
9.662457 -11.125377 54.458328
6.39167 -13.362322 57.187271
8.259077 -13.003939 55.575012
10.088446 -12.649834 53.923477
10.407265 -14.369671 53.33453
-2.419301 -18.0837 63.872707
-3.814223 -20.01438 64.799828
-4.622452 -18.421524 65.380966
-6.727767 -18.478716 66.727745
-8.964898 -18.710287 68.06665
-8.013052 -14.847589 67.37542
-9.573976 -16.709558 68.347855
-11.013186 -18.718441 69.20005
-13.086824 -18.720579 70.256584
-15.216393 -18.776155 71.238472
-17.250532 -18.503551 72.045532
-17.984324 -16.382675 72.266594
-19.236782 -18.267111 72.687294
-21.213518 -17.920395 73.128067
-23.034773 -17.644781 73.312653
8.344755 -4.411748 55.271309
6.794105 -6.559666 56.727772
5.228418 -8.448533 58.097996
3.672295 -10.469137 59.394451
1.150546 -9.028178 61.110817
1.599317 -10.81458 60.928825
2.100901 -12.398242 60.627701
0.618883 -14.280984 61.738094
-0.93678 -16.224888 62.851269
-5.083067 -21.903862 65.614502
-6.415874 -23.961885 66.428825
-7.582821 -26.099566 67.074165
-10.583485 -24.4002 68.993935
-9.50428 -26.283833 68.283783
-18.929575 -24.7542 72.541245
-17.949684 -27.071138 72.142059
-16.927092 -28.987225 71.663658
-15.92987 -31.176094 71.064156
38.545399 5.741583 21.667519
37.301697 8.518085 22.467073
37.573486 6.456353 22.997978
37.737198 4.365922 23.566948
31.734457 10.11361 28.688044
32.219597 8.077451 29.084507
32.675957 6.23227 29.386467
29.988178 4.634559 32.885166
31.465256 4.435524 31.429386
32.996819 4.343891 29.800705
33.41328 2.367683 30.07091
19.871277 6.960163 42.579494
20.268991 5.321519 42.559635
17.59123 2.956328 45.833019
19.118042 3.285 44.227787
20.65613 3.646386 42.578899
21.095795 2.05522 42.526318
21.479025 0.375277 42.533253
21.922323 -1.253218 42.423927
12.221488 -5.373197 52.101547
13.946991 -4.888692 50.50531
15.66044 -4.516881 48.877644
14.735226 -8.217075 49.848652
16.107288 -6.207187 48.541145
17.273109 -4.182552 47.311039
18.978844 -3.624066 45.609512
20.54752 -3.412352 44.064255
22.123407 -3.138497 42.514027
22.52187 -4.988805 42.289982
38.205379 16.06027 15.730075
39.144371 15.118092 14.315808
39.685421 12.9955 15.069182
36.309967 16.278839 1.359302
39.545502 15.242943 7.710538
40.084522 12.970192 8.74171
-2.418188 -20.826342 63.743568
-1.389358 -20.626759 62.95879
-1.389358 -20.626759 62.95879
-0.342041 -20.483189 62.147346
-0.658625 -19.668728 62.463802
11.031452 -3.923708 52.986349
11.675835 -2.85585 52.307505
10.768999 -3.178991 53.119209
32.566727 14.320712 25.559916
31.758219 14.450654 26.505619
32.913088 13.38862 25.648092
33.299715 14.187091 24.730432
32.566727 14.320712 25.559916
-25.434255 -20.553241 72.955719
-24.628822 -20.795896 73.117634
-24.990946 -19.43428 73.081532
2.611124 -6.271107 59.792986
3.634623 -6.141099 59.042604
-29.256738 -19.998747 46.894112
-29.292302 -18.337111 46.632703
30.003056 0.910977 34.136839
29.472855 0.061889 34.895046
16.273291 4.277248 46.848286
16.839451 5.31725 46.079323
19.010232 -9.191245 45.529229
19.68152 -8.159357 44.952185
18.913983 -8.254688 45.697092
38.327356 16.763383 4.733812
37.955986 17.051093 3.946877
38.684324 16.677482 5.547479
38.658119 15.584799 5.14509
38.327356 16.763383 4.733812
-28.114582 -19.31295 71.508763
-27.53384 -19.687838 71.95102
-28.895523 -22.883124 70.07029
-28.696714 -21.685924 70.594795
-29.146682 -21.371054 69.941338
-29.099077 -24.073051 69.534039
-28.649109 -24.38792 70.187496
-28.895523 -22.883124 70.07029
-29.488159 -23.713138 68.790619
-29.099077 -24.073051 69.534039
21.18239 8.192839 40.868849
21.980221 8.360387 39.939667
2.604968 -17.400968 60.022551
1.929965 -18.397174 60.478323
-9.136052 -10.157435 67.762551
-8.045258 -10.219415 67.118931
-9.972181 -11.079997 68.293244
-9.136052 -10.157435 67.762551
-4.00553 -9.375058 64.564554
-4.145802 -8.493422 64.571396
-4.826788 -10.304962 65.163582
-3.815806 -10.296924 64.518648
-4.00553 -9.375058 64.564554
-29.643622 -14.834993 49.207276
-29.752965 -15.230768 50.337246
-29.555895 -14.280086 48.04252
-29.518619 -15.98062 48.321524
-29.643622 -14.834993 49.207276
-29.499595 -13.627868 47.078646
-29.555895 -14.280086 48.04252
26.668893 -1.874216 38.01552
27.477035 -1.850572 37.24522
27.306673 -0.952187 37.232954
24.871915 -4.680883 40.07907
25.48312 -3.724797 39.404393
24.732974 -3.760798 40.098448
24.242238 -5.673324 40.702408
24.871915 -4.680883 40.07907
13.758389 0.130474 50.016891
14.438455 1.172477 49.215517
15.382554 -12.55008 48.590946
14.550898 -12.706267 49.425226
14.615427 -13.558052 49.162355
16.079244 -11.586433 48.094122
15.382554 -12.55008 48.590946
-30.556562 -18.691626 58.140776
-30.627413 -19.225442 59.211265
-30.448684 -18.220098 56.9708
-30.401806 -19.887041 57.158043
-30.556562 -18.691626 58.140776
-30.333343 -17.780516 55.80597
-30.448684 -18.220098 56.9708
-25.530607 -27.796384 72.153401
-25.925246 -26.521166 72.153568
-25.110008 -29.095299 72.076881
-24.763393 -27.981933 72.412296
-25.530607 -27.796384 72.153401
-24.65167 -30.36424 72.016708
-25.110008 -29.095299 72.076881
29.31956 12.865131 30.161917
30.094676 12.83585 29.262521
27.82009 10.135582 32.976601
28.346555 11.131714 32.002747
27.538671 11.038286 32.919651
-18.942647 -16.129135 72.546303
-18.133091 -15.167769 72.284104
-19.568876 -17.071353 72.756653
-18.610553 -17.324893 72.476944
-18.942647 -16.129135 72.546303
-20.557244 -16.897995 72.97704
-20.22515 -18.093753 72.90768
-19.568876 -17.071353 72.756653
-23.252174 -16.334675 73.300793
-22.413401 -16.556283 73.248185
-23.851736 -17.307626 73.267799
-23.252174 -16.334675 73.300793
7.112082 -3.88898 56.164385
6.165373 -4.057002 56.915676
7.356092 -4.681829 56.074616
8.100744 -3.6189 55.361079
7.112082 -3.88898 56.164385
0.092663 -9.177369 61.846466
0.967063 -8.218758 61.156442
-0.09082 -8.367948 61.892091
-29.505866 -21.552471 50.081339
-29.618538 -22.041638 51.185816
-29.642249 -20.398613 50.954803
-9.709943 -28.28376 68.23423
-9.096295 -27.252943 67.948211
-10.117928 -27.31465 68.569801
-10.178411 -29.287048 68.420029
-9.709943 -28.28376 68.23423
-11.137561 -31.41183 68.724517
-12.145588 -31.568566 69.266354
-16.323296 -32.397187 71.010368
-16.887588 -31.314357 71.357067
-15.347701 -32.183899 70.680313
-16.323296 -32.397187 71.010368
39.754242 9.339374 17.648276
39.951985 9.840784 16.882368
38.839201 7.533391 20.363447
39.191438 8.219363 19.393473
38.749234 8.513824 20.07886
38.471198 6.784718 21.358176
38.913403 6.490257 20.67279
38.839201 7.533391 20.363447
36.841048 3.952259 25.091496
37.350323 3.620445 24.441686
37.227922 4.697736 24.216758
35.892775 2.382236 27.004156
35.270607 2.562974 27.75162
39.851433 10.667414 16.567879
39.692926 11.544785 16.301204
39.474303 11.120931 17.158788
39.951985 9.840784 16.882368
39.851433 10.667414 16.567879
36.49803 17.45525 1.66393
35.95034 17.647602 0.944098
37.475229 13.549065 3.077674
37.188322 14.830825 2.60831
37.71463 14.769621 3.326429
37.713085 12.308688 3.589899
37.475229 13.549065 3.077674
38.228174 12.285905 4.316453
37.713085 12.308688 3.589899
39.459497 12.051614 6.706561
39.118603 12.123205 5.905551
39.233148 13.198877 6.15461
39.79665 12.060202 7.543557
39.459497 12.051614 6.706561
39.402607 16.109862 8.165391
39.186716 16.488478 7.272468
39.043821 17.355397 7.727321
40.227947 12.82215 9.650472
39.991675 13.863851 9.164732
40.135099 13.715809 10.073494
40.266953 11.929593 9.257824
40.227947 12.82215 9.650472
-30.58533 -19.226557 65.884788
-30.391933 -19.652475 66.829407
-29.548386 -20.998139 69.246986
-29.146682 -21.371054 69.941338
-29.878217 -20.602457 68.492165
-29.675321 -22.172572 68.66201
-29.548386 -20.998139 69.246986
-30.152573 -20.166749 67.739788
-29.878217 -20.602457 68.492165
-30.391933 -19.652475 66.829407
-30.244512 -21.262616 66.996807
-30.152573 -20.166749 67.739788
1.322634 -19.408996 60.879928
1.929965 -18.397174 60.478323
0.996023 -18.513336 61.250754
0.667453 -20.382321 61.312067
1.322634 -19.408996 60.879928
0.667453 -20.382321 61.312067
-0.342041 -20.483189 62.147346
-6.095886 -9.35022 65.873905
-5.210407 -8.474067 65.251339
-5.210407 -8.474067 65.251339
-4.145802 -8.493422 64.571396
12.373962 -1.879011 51.563728
13.097481 -0.899086 50.784214
12.636415 -2.623728 51.430868
12.373962 -1.879011 51.563728
11.675835 -2.85585 52.307505
13.145762 -14.67887 50.406791
12.975502 -13.87099 50.805203
12.337491 -14.835621 51.215359
13.931494 -14.541471 49.599051
13.145762 -14.67887 50.406791
14.615427 -13.558052 49.162355
13.931494 -14.541471 49.599051
33.708813 15.015607 23.71178
34.029122 15.853994 22.778651
34.055174 14.083514 23.799957
33.708813 15.015607 23.71178
33.299715 14.187091 24.730432
-30.769491 -18.585345 61.151212
-30.854833 -17.336256 61.996902
-26.977835 -24.930403 71.811649
-27.58077 -24.76125 71.339596
26.77376 10.9553 33.821119
27.538671 11.038286 32.919651
23.657061 7.74509 38.304279
24.190641 8.801224 37.405552
23.43604 8.609935 38.274856
6.271888 -15.997346 57.001726
6.02492 -15.18224 57.328867
5.344682 -16.213262 57.797054
7.160965 -15.838344 56.192917
6.271888 -15.997346 57.001726
8.027296 -15.704413 55.406035
7.818456 -14.832393 55.746657
7.160965 -15.838344 56.192917
8.911199 -15.518123 54.56975
8.027296 -15.704413 55.406035
5.391991 -5.082898 57.623483
6.165373 -4.057002 56.915676
4.575661 -6.06444 58.348554
5.551099 -5.933452 57.602993
5.391991 -5.082898 57.623483
3.793731 -6.991654 59.022114
4.575661 -6.06444 58.348554
3.634623 -6.141099 59.042604
-29.326545 -20.458746 47.95948
-29.412478 -21.044079 49.019392
-29.443644 -19.324114 48.790415
-29.326545 -20.458746 47.95948
-29.256738 -19.998747 46.894112
-13.175603 -31.793802 69.764873
-12.145588 -31.568566 69.266354
-12.719535 -30.660841 69.679115
34.618749 2.794223 28.488323
35.270607 2.562974 27.75162
35.124658 3.597119 27.550572
30.542287 1.750498 33.329216
29.828065 1.892477 33.994707
30.003056 0.910977 34.136839
31.3137 1.64768 32.565728
31.138709 2.62918 32.423597
30.542287 1.750498 33.329216
32.089681 1.539525 31.79685
31.3137 1.64768 32.565728
17.363023 6.344416 45.32288
17.952367 7.495462 44.4784
17.658908 5.575159 45.191269
17.363023 6.344416 45.32288
16.839451 5.31725 46.079323
20.350223 -7.135589 44.383187
21.048686 -6.073945 43.707363
20.283732 -6.161157 44.444226
20.350223 -7.135589 44.383187
19.68152 -8.159357 44.952185
37.451156 14.293769 18.692069
37.150123 15.327542 18.423786
36.838497 14.744567 19.400725
37.519272 17.241434 3.209698
37.056908 17.341521 2.412811
37.864437 15.861041 3.594244
37.519272 17.241434 3.209698
37.955986 17.051093 3.946877
40.186298 13.498137 11.000764
40.135099 13.715809 10.073494
39.950026 14.539838 10.515023
40.221922 13.307529 11.886558
40.186298 13.498137 11.000764
40.184534 13.003961 12.809034
40.221922 13.307529 11.886558
39.963837 14.018598 12.364769
40.12286 12.792128 13.646043
40.184534 13.003961 12.809034
-30.562401 -22.865963 63.59289
-30.540541 -23.889647 62.747755
-30.471261 -24.298661 63.809406
-30.697105 -18.980709 64.921672
-30.595645 -20.502493 65.12331
-30.58533 -19.226557 65.884788
-30.79027 -18.469248 63.973799
-30.697105 -18.980709 64.921672
-30.833479 -17.880114 62.997658
-30.75063 -19.667511 63.184053
-30.79027 -18.469248 63.973799
-30.854833 -17.336256 61.996902
-30.833479 -17.880114 62.997658
-26.870696 -19.928375 72.390934
-26.190142 -20.244523 72.695221
-27.247048 -21.056885 72.030911
-26.870696 -19.928375 72.390934
-27.53384 -19.687838 71.95102
-28.429033 -20.495102 71.02842
-28.114582 -19.31295 71.508763
-28.177873 -22.007171 71.157372
-28.429033 -20.495102 71.02842
-28.696714 -21.685924 70.594795
-28.158962 -24.609502 70.79898
-27.58077 -24.76125 71.339596
-27.867363 -23.349743 71.264362
-28.158962 -24.609502 70.79898
-28.649109 -24.38792 70.187496
-29.817989 -23.317456 68.035797
-29.488159 -23.713138 68.790619
-29.675321 -22.172572 68.66201
-29.910014 -24.441038 67.286678
-29.817989 -23.317456 68.035797
-30.097176 -22.900472 67.15807
-29.99181 -25.57567 66.593494
-29.910014 -24.441038 67.286678
-30.198505 -25.245378 65.662239
-29.99181 -25.57567 66.593494
-30.350465 -24.87084 64.785034
-30.198505 -25.245378 65.662239
-30.341161 -23.649515 65.531746
-30.471261 -24.298661 63.809406
-30.350465 -24.87084 64.785034
22.715193 8.478763 39.116283
23.43604 8.609935 38.274856
22.167487 7.435425 39.996967
22.715193 8.478763 39.116283
21.980221 8.360387 39.939667
3.336698 -16.486079 59.498622
2.335084 -16.586626 60.32522
2.604968 -17.400968 60.022551
4.352149 -16.349289 58.660074
4.082265 -15.534947 58.962744
3.336698 -16.486079 59.498622
5.344682 -16.213262 57.797054
4.352149 -16.349289 58.660074
-7.000685 -10.237426 66.500343
-5.921309 -10.270301 65.835926
-6.095886 -9.35022 65.873905
-7.870681 -11.139495 67.080951
-7.000685 -10.237426 66.500343
-8.045258 -10.219415 67.118931
-10.809554 -12.045793 68.820393
-9.752629 -12.087281 68.226688
-9.972181 -11.079997 68.293244
-11.923615 -11.906452 69.403317
-11.704063 -12.913736 69.336761
-10.809554 -12.045793 68.820393
-1.054419 -8.435113 62.552445
-0.09082 -8.367948 61.892091
-1.979885 -9.346789 63.250868
-1.054419 -8.435113 62.552445
-2.787498 -10.256571 63.858303
-1.772834 -10.236341 63.18955
-1.979885 -9.346789 63.250868
-3.608756 -11.186474 64.457331
-2.787498 -10.256571 63.858303
-3.815806 -10.296924 64.518648
-29.901813 -19.750659 52.918645
-29.86795 -21.446433 53.121735
-29.788787 -19.221905 51.870027
-29.901813 -19.750659 52.918645
-29.676115 -18.732738 50.765551
-29.642249 -20.398613 50.954803
-29.788787 -19.221905 51.870027
-29.714499 -17.045778 50.583527
-29.752965 -15.230768 50.337246
-29.567961 -18.222487 49.668303
-29.676115 -18.732738 50.765551
-29.714499 -17.045778 50.583527
-29.328893 -16.680578 46.345836
-29.292302 -18.337111 46.632703
-29.394302 -17.082248 47.443636
-29.38799 -14.885993 46.158302
-29.328893 -16.680578 46.345836
-29.38799 -14.885993 46.158302
-29.499595 -13.627868 47.078646
-22.168344 -30.389833 72.4071
-23.027493 -30.49984 72.329792
28.885846 -0.92886 35.725208
29.472855 0.061889 34.895046
28.701825 0.062206 35.632492
28.259047 -1.852072 36.519503
28.885846 -0.92886 35.725208
28.259047 -1.852072 36.519503
27.477035 -1.850572 37.24522
26.091718 -2.788656 38.725779
26.668893 -1.874216 38.01552
25.921355 -1.890271 38.713513
26.091718 -2.788656 38.725779
25.48312 -3.724797 39.404393
15.096514 2.210472 48.397594
15.691862 3.247363 47.632731
15.314418 1.450228 48.334525
15.096514 2.210472 48.397594
14.438455 1.172477 49.215517
13.995449 -0.617329 49.91977
13.758389 0.130474 50.016891
13.097481 -0.899086 50.784214
16.787723 -10.524045 47.543573
16.026503 -10.635908 48.303269
16.079244 -11.586433 48.094122
17.54158 -10.380573 46.804282
17.488838 -9.430048 47.013428
16.787723 -10.524045 47.543573
18.305502 -10.188189 46.071434
17.54158 -10.380573 46.804282
34.810068 15.629807 21.818822
34.029122 15.853994 22.778651
35.523878 15.350563 20.997725
34.810068 15.629807 21.818822
35.178082 14.632788 21.960207
36.214678 15.065942 20.135775
35.523878 15.350563 20.997725
36.51571 14.03217 20.404059
36.838497 14.744567 19.400725
36.214678 15.065942 20.135775
38.853825 18.186974 8.318937
39.043821 17.355397 7.727321
38.949518 17.866708 9.198704
38.853825 18.186974 8.318937
39.026617 17.604351 10.14696
39.336811 16.714423 9.5685
38.949518 17.866708 9.198704
39.064633 17.140726 11.155446
39.026617 17.604351 10.14696
39.045025 16.803485 12.150913
39.394303 16.114825 11.512224
39.064633 17.140726 11.155446
-30.555371 -23.577403 61.665298
-30.540541 -23.889647 62.747755
-30.557341 -22.993204 60.657578
-30.555371 -23.577403 61.665298
-30.633651 -21.87275 61.523518
-30.52101 -22.476091 59.626123
-30.557341 -22.993204 60.657578
-30.690381 -19.690433 60.305155
-30.71473 -20.183464 61.361854
-30.769491 -18.585345 61.151212
-30.572652 -20.82356 59.421908
-30.690381 -19.690433 60.305155
-30.627413 -19.225442 59.211265
-30.458042 -22.0111 58.532234
-30.52101 -22.476091 59.626123
-30.572652 -20.82356 59.421908
-30.366139 -21.576987 57.399757
-30.458042 -22.0111 58.532234
-30.258261 -21.105457 56.229782
-30.366139 -21.576987 57.399757
-30.401806 -19.887041 57.158043
-30.137454 -20.710299 55.086129
-30.258261 -21.105457 56.229782
-30.171317 -19.014525 54.883039
-30.137454 -20.710299 55.086129
-30.171317 -19.014525 54.883039
-30.333343 -17.780516 55.80597
-25.828018 -21.606139 72.731323
-25.434255 -20.553241 72.955719
-26.190142 -20.244523 72.695221
-26.290617 -25.185758 72.176548
-26.601952 -23.756847 72.169876
-26.977835 -24.930403 71.811649
-25.549363 -25.347611 72.511795
-26.290617 -25.185758 72.176548
-25.925246 -26.521166 72.153568
-23.833086 -30.492079 72.210552
-23.027493 -30.49984 72.329792
-23.537202 -29.288609 72.455017
-23.833086 -30.492079 72.210552
-24.65167 -30.36424 72.016708
30.848652 12.797084 28.421401
31.639364 12.712815 27.519023
31.389387 13.60651 27.379953
30.344653 11.942153 29.401592
30.848652 12.797084 28.421401
30.094676 12.83585 29.262521
28.827906 12.007669 31.094254
29.31956 12.865131 30.161917
29.109325 11.104965 31.151204
28.827906 12.007669 31.094254
28.346555 11.131714 32.002747
26.217897 9.930262 34.805021
26.77376 10.9553 33.821119
24.917624 8.877374 36.575756
24.190641 8.801224 37.405552
25.670254 8.97886 35.738163
24.917624 8.877374 36.575756
25.16429 8.037865 36.597382
26.464564 9.090753 34.826647
26.217897 9.930262 34.805021
25.670254 8.97886 35.738163
9.772438 -15.353727 53.757128
9.546026 -14.534066 54.147152
8.911199 -15.518123 54.56975
10.655648 -15.188441 52.881495
9.772438 -15.353727 53.757128
11.535631 -15.017475 52.021114
11.287248 -14.198705 52.47415
10.655648 -15.188441 52.881495
12.337491 -14.835621 51.215359
11.535631 -15.017475 52.021114
31.389387 13.60651 27.379953
31.758219 14.450654 26.505619
-12.89575 -11.665589 69.902523
-11.923615 -11.906452 69.403317
-13.779557 -12.597985 70.376525
-12.89575 -11.665589 69.902523
-14.497912 -13.530371 70.763413
-13.536479 -13.706781 70.306572
-13.779557 -12.597985 70.376525
-15.285025 -14.46031 71.139733
-14.497912 -13.530371 70.763413
-16.073401 -15.379963 71.515816
-15.043212 -15.55882 71.069542
-15.285025 -14.46031 71.139733
-17.149769 -15.332064 71.9263
-18.133091 -15.167769 72.284104
-16.907957 -16.430574 71.85611
-16.073401 -15.379963 71.515816
-17.149769 -15.332064 71.9263
-21.502773 -16.694091 73.155891
-20.557244 -16.897995 72.97704
-22.124146 -17.782588 73.22036
-21.502773 -16.694091 73.155891
-22.413401 -16.556283 73.248185
-24.427106 -18.323704 73.233196
-23.610143 -18.660858 73.27805
-23.851736 -17.307626 73.267799
-24.990946 -19.43428 73.081532
-24.427106 -18.323704 73.233196
9.944581 -3.338007 53.832325
10.768999 -3.178991 53.119209
9.05465 -3.420456 54.568953
8.100744 -3.6189 55.361079
9.234685 -4.329299 54.534682
9.944581 -3.338007 53.832325
9.05465 -3.420456 54.568953
1.818137 -7.238825 60.459116
2.611124 -6.271107 59.792986
2.001619 -8.048246 60.41349
1.818137 -7.238825 60.459116
0.967063 -8.218758 61.156442
-29.726045 -22.483559 52.226137
-29.86795 -21.446433 53.121735
-29.726045 -22.483559 52.226137
-29.618538 -22.041638 51.185816
-29.505866 -21.552471 50.081339
-29.412478 -21.044079 49.019392
-3.472329 -20.927383 64.505859
-2.418188 -20.826342 63.743568
-2.760082 -19.913339 64.037537
-4.106751 -21.872124 64.913196
-3.472329 -20.927383 64.505859
-4.448645 -20.959121 65.207165
-4.689509 -22.844579 65.271988
-4.106751 -21.872124 64.913196
-5.355913 -23.87359 65.679149
-4.689509 -22.844579 65.271988
-5.74947 -22.932873 66.021664
-5.96291 -24.816635 66.042186
-5.355913 -23.87359 65.679149
-6.546383 -25.885475 66.364857
-5.96291 -24.816635 66.042186
-6.999347 -25.030725 66.751495
-7.120985 -26.909714 66.674118
-6.546383 -25.885475 66.364857
-8.135566 -27.160809 67.343402
-8.543551 -26.191699 67.678974
-9.096295 -27.252943 67.948211
-7.120985 -26.909714 66.674118
-8.135566 -27.160809 67.343402
-10.657383 -30.332118 68.582416
-10.178411 -29.287048 68.420029
-11.210548 -29.390536 69.018207
-10.657383 -30.332118 68.582416
-11.137561 -31.41183 68.724517
-21.210413 -30.438715 72.375293
-21.773677 -29.345253 72.54245
-22.168344 -30.389833 72.4071
-20.292339 -30.545228 72.273365
-21.210413 -30.438715 72.375293
-19.374674 -30.543143 72.118332
-19.898081 -29.39205 72.35561
-20.292339 -30.545228 72.273365
-18.412861 -30.421293 71.925278
-19.374674 -30.543143 72.118332
-17.386199 -30.219923 71.656818
-17.953754 -29.188595 71.932118
-18.412861 -30.421293 71.925278
-16.428481 -30.08166 71.363907
-17.386199 -30.219923 71.656818
-16.887588 -31.314357 71.357067
-14.257541 -32.03889 70.237053
-14.83971 -31.031085 70.620895
-15.347701 -32.183899 70.680313
-13.175603 -31.793802 69.764873
-14.257541 -32.03889 70.237053
39.488573 8.817493 18.489987
39.754242 9.339374 17.648276
39.36714 9.721678 18.267174
39.488573 8.817493 18.489987
39.191438 8.219363 19.393473
38.98214 5.52436 20.877792
38.913403 6.490257 20.67279
38.640616 4.786577 21.818424
38.98214 5.52436 20.877792
38.236515 4.098746 22.768138
38.640616 4.786577 21.818424
38.141299 5.053752 22.617233
37.874901 3.339266 23.675762
38.236515 4.098746 22.768138
37.874901 3.339266 23.675762
37.350323 3.620445 24.441686
36.369982 3.120419 26.065147
36.841048 3.952259 25.091496
36.247581 4.19771 25.840218
36.369982 3.120419 26.065147
35.892775 2.382236 27.004156
34.088989 2.06388 29.380141
34.618749 2.794223 28.488323
33.94304 3.098026 29.179093
32.841261 1.460185 31.00225
32.661701 2.447023 30.86551
32.089681 1.539525 31.79685
33.520967 1.314296 30.300598
32.841261 1.460185 31.00225
34.088989 2.06388 29.380141
33.520967 1.314296 30.300598
18.738484 7.621377 43.619324
17.952367 7.495462 44.4784
19.582882 7.800296 42.691658
18.738484 7.621377 43.619324
19.026879 6.781244 43.50716
20.401771 8.014395 41.74842
19.582882 7.800296 42.691658
20.651896 7.138606 41.699922
21.18239 8.192839 40.868849
20.401771 8.014395 41.74842
16.553907 3.518108 46.732157
16.273291 4.277248 46.848286
15.691862 3.247363 47.632731
21.818523 -6.018591 42.968153
21.752032 -5.044159 43.029192
21.048686 -6.073945 43.707363
22.64369 -5.860587 42.193281
21.818523 -6.018591 42.968153
23.443639 -5.724626 41.434853
23.32182 -4.852844 41.531554
22.64369 -5.860587 42.193281
24.242238 -5.673324 40.702408
23.443639 -5.724626 41.434853
19.010232 -9.191245 45.529229
18.305502 -10.188189 46.071434
38.918051 16.47033 13.15267
39.045025 16.803485 12.150913
37.436945 15.874427 17.469373
37.150123 15.327542 18.423786
37.658243 16.466189 16.476845
37.436945 15.874427 17.469373
37.984081 15.468507 16.722603
37.842054 17.061447 15.505803
37.658243 16.466189 16.476845
38.333393 16.611673 14.763862
37.842054 17.061447 15.505803
38.802889 16.140584 14.056728
38.333393 16.611673 14.763862
38.674875 15.589181 15.022941
39.259533 15.447838 13.411749
38.918051 16.47033 13.15267
38.802889 16.140584 14.056728
40.002346 12.432363 14.537011
40.12286 12.792128 13.646043
39.805935 13.355265 14.178214
39.877739 12.043385 15.389738
39.500608 12.4969 15.980647
39.692926 11.544785 16.301204
40.002346 12.432363 14.537011
39.877739 12.043385 15.389738
35.689749 16.301367 0.703171
35.95034 17.647602 0.944098
35.978842 15.051209 1.14126
35.689749 16.301367 0.703171
36.868845 16.165111 2.108183
36.49803 17.45525 1.66393
37.056908 17.341521 2.412811
36.629444 14.944554 1.859428
36.868845 16.165111 2.108183
37.188322 14.830825 2.60831
35.978842 15.051209 1.14126
36.629444 14.944554 1.859428
38.673533 12.177209 5.095357
38.228174 12.285905 4.316453
38.446895 13.379164 4.574696
38.899881 11.029946 5.647308
38.673533 12.177209 5.095357
39.118603 12.123205 5.905551
38.921509 16.616456 6.396577
38.684324 16.677482 5.547479
39.280294 15.370921 6.834647
38.921509 16.616456 6.396577
39.186716 16.488478 7.272468
40.05189 11.981656 8.436602
39.79665 12.060202 7.543557
39.829283 13.048739 7.848664
40.05189 11.981656 8.436602
40.266953 11.929593 9.257824
3 0 316 317
3 0 83 81
3 0 318 320
3 320 319 83
3 318 319 320
3 1 86 84
3 3 89 87
3 4 92 90
3 4 94 92
3 2 321 323
3 321 96 322
3 321 322 323
3 3 324 325
3 3 326 328
3 326 87 327
3 326 327 328
3 329 101 330
3 331 330 99
3 329 330 331
3 7 104 102
3 7 106 104
3 8 109 107
3 10 113 111
3 12 116 114
3 12 118 116
3 332 120 333
3 10 123 121
3 10 111 123
3 335 334 125
3 11 128 126
3 13 131 129
3 13 133 131
3 5 136 134
3 14 139 137
3 15 142 140
3 15 144 142
3 6 147 145
3 337 336 148
3 338 151 339
3 16 154 152
3 16 156 154
3 9 159 157
3 17 162 160
3 17 164 162
3 17 340 342
3 342 341 164
3 340 341 342
3 14 167 165
3 14 137 167
3 343 170 344
3 345 172 346
3 347 346 170
3 345 346 347
3 18 175 173
3 18 176 175
3 19 179 177
3 348 181 349
3 22 350 352
3 350 182 351
3 350 351 352
3 22 353 355
3 355 354 182
3 353 354 355
3 22 356 357
3 19 183 80
3 19 177 183
3 358 184 359
3 23 187 185
3 361 360 82
3 25 190 188
3 362 191 363
3 365 364 191
3 25 366 367
3 25 368 370
3 368 188 369
3 368 369 370
3 371 193 372
3 373 194 374
3 375 374 193
3 373 374 375
3 377 376 194
3 29 197 195
3 31 198 85
3 31 199 198
3 32 202 200
3 34 203 88
3 34 204 203
3 35 207 205
3 37 208 91
3 37 209 208
3 37 378 380
3 380 379 209
3 378 379 380
3 38 381 383
3 383 382 93
3 381 382 383
3 38 384 385
3 386 211 387
3 40 212 95
3 40 213 212
3 41 216 214
3 388 217 389
3 390 389 97
3 388 389 390
3 392 391 217
3 32 218 98
3 32 200 218
3 20 219 178
3 393 220 394
3 395 221 396
3 397 396 220
3 395 396 397
3 399 398 221
3 44 224 222
3 46 225 100
3 46 226 225
3 21 227 180
3 400 228 401
3 402 229 403
3 404 403 228
3 402 403 404
3 406 405 229
3 407 231 408
3 48 409 411
3 409 232 410
3 409 410 411
3 48 233 232
3 49 234 103
3 49 235 234
3 49 236 235
3 50 237 105
3 50 238 237
3 51 241 239
3 53 242 108
3 53 243 242
3 24 244 186
3 54 245 110
3 54 246 245
3 54 247 246
3 55 250 248
3 57 251 112
3 57 252 251
3 26 253 189
3 58 254 115
3 58 255 254
3 58 256 255
3 59 257 117
3 59 258 257
3 412 259 413
3 414 260 415
3 416 415 259
3 414 415 416
3 417 261 418
3 419 418 260
3 417 418 419
3 420 262 421
3 423 422 262
3 60 424 425
3 60 426 428
3 426 263 427
3 426 427 428
3 60 264 263
3 61 265 119
3 61 266 265
3 27 429 431
3 429 267 430
3 429 430 431
3 62 268 122
3 62 269 268
3 62 270 269
3 55 271 124
3 55 248 271
3 28 432 434
3 434 433 192
3 432 433 434
3 56 272 249
3 63 273 127
3 63 274 273
3 30 275 196
3 64 276 130
3 64 435 437
3 437 436 276
3 435 436 437
3 64 438 439
3 441 440 132
3 45 277 223
3 65 278 135
3 65 279 278
3 442 280 443
3 445 444 280
3 66 446 447
3 67 448 450
3 450 449 138
3 448 449 450
3 67 451 453
3 451 281 452
3 451 452 453
3 33 282 201
3 68 283 141
3 68 284 283
3 68 454 456
3 456 455 284
3 454 455 456
3 458 457 143
3 47 285 230
3 69 286 146
3 69 287 286
3 36 288 206
3 70 289 149
3 70 290 289
3 70 291 290
3 71 292 150
3 71 293 292
3 39 294 210
3 72 295 153
3 72 296 295
3 72 297 296
3 73 298 155
3 73 299 298
3 52 300 240
3 74 301 158
3 74 302 301
3 42 303 215
3 75 304 161
3 75 305 304
3 75 306 305
3 76 307 163
3 76 308 307
3 76 309 308
3 77 310 166
3 77 311 310
3 77 312 311
3 66 459 461
3 461 460 168
3 459 460 461
3 66 462 463
3 464 313 465
3 78 466 468
3 468 467 169
3 466 467 468
3 78 469 470
3 78 471 472
3 79 473 475
3 475 474 171
3 473 474 475
3 79 476 477
3 43 478 480
3 478 314 479
3 478 479 480
3 481 315 482
3 483 482 174
3 481 482 483
3 485 484 315
3 487 486 19
3 488 22 489
3 490 80 491
3 492 491 22
3 490 491 492
3 493 80 494
3 495 19 496
3 497 496 80
3 495 496 497
3 81 82 23
3 83 82 81
3 83 498 500
3 500 499 82
3 498 499 500
3 83 501 502
3 504 503 83
3 506 505 25
3 507 25 508
3 84 85 29
3 86 85 84
3 86 31 85
3 87 88 32
3 89 88 87
3 89 34 88
3 90 91 35
3 92 91 90
3 92 37 91
3 92 93 37
3 94 93 92
3 94 38 93
3 509 95 510
3 96 511 513
3 511 95 512
3 511 512 513
3 96 40 95
3 514 97 515
3 516 515 41
3 514 515 516
3 517 97 518
3 520 519 97
3 521 98 522
3 87 523 525
3 523 98 524
3 523 524 525
3 87 32 98
3 527 526 20
3 99 100 44
3 101 100 99
3 101 46 100
3 529 528 21
3 530 48 531
3 102 532 534
3 532 103 533
3 532 533 534
3 104 103 102
3 104 49 103
3 104 105 49
3 106 105 104
3 106 50 105
3 107 108 51
3 109 108 107
3 109 53 108
3 535 110 536
3 537 536 24
3 535 536 537
3 538 110 539
3 540 54 541
3 542 541 110
3 540 541 542
3 544 543 54
3 111 112 55
3 113 112 111
3 113 57 112
3 114 115 26
3 116 115 114
3 116 58 115
3 116 117 58
3 118 117 116
3 118 59 117
3 545 60 546
3 547 119 548
3 549 548 60
3 547 548 549
3 120 550 552
3 550 119 551
3 550 551 552
3 120 61 119
3 121 122 27
3 123 122 121
3 123 62 122
3 123 124 62
3 111 124 123
3 111 55 124
3 125 553 555
3 555 554 28
3 553 554 555
3 557 556 125
3 126 127 56
3 128 127 126
3 128 63 127
3 129 130 30
3 131 130 129
3 131 64 130
3 131 132 64
3 133 132 131
3 133 558 560
3 560 559 132
3 558 559 560
3 134 135 45
3 136 135 134
3 136 65 135
3 137 138 66
3 139 138 137
3 139 67 138
3 140 141 33
3 142 141 140
3 142 68 141
3 142 143 68
3 144 143 142
3 144 561 563
3 563 562 143
3 561 562 563
3 145 146 47
3 147 146 145
3 147 69 146
3 148 149 36
3 564 149 565
3 566 565 148
3 564 565 566
3 567 70 568
3 569 568 149
3 567 568 569
3 571 570 70
3 572 150 573
3 151 574 576
3 574 150 575
3 574 575 576
3 151 71 150
3 152 153 39
3 154 153 152
3 154 72 153
3 154 155 72
3 156 155 154
3 156 73 155
3 157 158 52
3 159 158 157
3 159 74 158
3 160 161 42
3 162 161 160
3 162 75 161
3 162 163 75
3 164 163 162
3 164 76 163
3 164 577 579
3 579 578 76
3 577 578 579
3 581 580 164
3 165 582 584
3 582 166 583
3 582 583 584
3 167 166 165
3 167 77 166
3 167 168 77
3 137 168 167
3 137 66 168
3 585 169 586
3 170 587 589
3 587 169 588
3 587 588 589
3 170 78 169
3 170 171 78
3 172 171 170
3 172 79 171
3 173 174 43
3 175 174 173
3 175 590 592
3 592 591 174
3 590 591 592
3 175 593 594
3 176 595 597
3 597 596 175
3 595 596 597
3 176 598 599
3 177 600 602
3 600 178 601
3 600 601 602
3 179 178 177
3 179 20 178
3 603 179 604
3 605 604 19
3 603 604 605
3 606 179 607
3 608 20 609
3 610 609 179
3 608 609 610
3 612 611 20
3 613 180 614
3 181 615 617
3 615 180 616
3 615 616 617
3 181 21 180
3 618 181 619
3 182 620 622
3 620 181 621
3 620 621 622
3 182 21 181
3 182 623 625
3 625 624 21
3 623 624 625
3 627 626 182
3 80 628 630
3 630 629 22
3 628 629 630
3 183 631 633
3 633 632 80
3 631 632 633
3 183 634 635
3 183 636 637
3 177 638 640
3 640 639 183
3 638 639 640
3 177 641 642
3 643 102 644
3 184 645 647
3 645 102 646
3 645 646 647
3 184 7 102
3 185 186 8
3 187 186 185
3 187 24 186
3 82 187 23
3 648 187 649
3 650 649 82
3 648 649 650
3 651 24 652
3 653 652 187
3 651 652 653
3 655 654 24
3 188 189 10
3 190 189 188
3 190 26 189
3 656 190 657
3 658 657 25
3 656 657 658
3 191 659 661
3 659 190 660
3 659 660 661
3 191 26 190
3 191 114 26
3 662 114 663
3 664 663 191
3 662 663 664
3 665 12 666
3 667 666 114
3 665 666 667
3 668 27 669
3 670 27 671
3 672 121 673
3 674 673 27
3 672 673 674
3 188 675 677
3 675 121 676
3 675 676 677
3 188 10 121
3 678 192 679
3 680 192 681
3 682 28 683
3 684 683 192
3 682 683 684
3 193 685 686
3 193 687 689
3 687 28 688
3 687 688 689
3 193 125 28
3 194 125 193
3 194 690 692
3 692 691 125
3 690 691 692
3 194 693 694
3 696 695 194
3 195 196 11
3 197 196 195
3 197 30 196
3 85 197 29
3 198 197 85
3 198 30 197
3 198 129 30
3 199 129 198
3 199 13 129
3 698 697 5
3 200 201 14
3 202 201 200
3 202 33 201
3 88 202 32
3 203 202 88
3 203 33 202
3 203 140 33
3 204 140 203
3 204 15 140
3 205 206 6
3 207 206 205
3 207 36 206
3 91 207 35
3 208 207 91
3 208 36 207
3 208 148 36
3 209 148 208
3 209 699 701
3 701 700 148
3 699 700 701
3 209 702 703
3 705 704 209
3 93 706 708
3 708 707 37
3 706 707 708
3 710 709 93
3 711 210 712
3 211 713 715
3 713 210 714
3 713 714 715
3 211 39 210
3 95 716 718
3 716 211 717
3 716 717 718
3 212 211 95
3 212 39 211
3 212 152 39
3 213 152 212
3 213 16 152
3 214 215 9
3 216 215 214
3 216 42 215
3 97 216 41
3 217 216 97
3 217 42 216
3 217 160 42
3 719 160 720
3 721 720 217
3 719 720 721
3 722 17 723
3 724 723 160
3 722 723 724
3 726 725 17
3 98 727 728
3 218 729 731
3 731 730 98
3 729 730 731
3 218 732 733
3 218 734 736
3 734 165 735
3 734 735 736
3 200 165 218
3 200 14 165
3 737 43 738
3 739 43 740
3 741 173 742
3 743 742 43
3 741 742 743
3 744 173 745
3 746 18 747
3 748 747 173
3 746 747 748
3 178 749 750
3 219 751 753
3 753 752 178
3 751 752 753
3 219 754 755
3 756 219 757
3 758 757 20
3 756 757 758
3 220 759 761
3 759 219 760
3 759 760 761
3 220 762 764
3 764 763 219
3 762 763 764
3 220 765 766
3 221 767 769
3 769 768 220
3 767 768 769
3 221 770 771
3 221 772 773
3 775 774 221
3 222 223 1
3 224 223 222
3 224 45 223
3 100 224 44
3 225 224 100
3 225 45 224
3 225 134 45
3 226 134 225
3 226 5 134
3 180 776 778
3 776 101 777
3 776 777 778
3 227 101 180
3 227 46 101
3 779 227 780
3 781 780 21
3 779 780 781
3 228 782 784
3 782 227 783
3 782 783 784
3 228 46 227
3 228 226 46
3 229 226 228
3 229 5 226
3 229 785 787
3 787 786 5
3 785 786 787
3 789 788 229
3 790 230 791
3 792 791 3
3 790 791 792
3 231 793 795
3 793 230 794
3 793 794 795
3 231 47 230
3 796 231 797
3 232 798 800
3 798 231 799
3 798 799 800
3 232 47 231
3 232 145 47
3 233 145 232
3 233 6 145
3 801 48 802
3 103 803 804
3 234 805 807
3 807 806 103
3 805 806 807
3 234 808 810
3 808 48 809
3 808 809 810
3 234 233 48
3 235 233 234
3 235 6 233
3 235 205 6
3 236 205 235
3 236 35 205
3 105 236 49
3 237 236 105
3 237 35 236
3 237 90 35
3 238 90 237
3 238 4 90
3 239 240 2
3 241 240 239
3 241 52 240
3 108 241 51
3 242 241 108
3 242 52 241
3 242 157 52
3 243 157 242
3 243 9 157
3 186 109 8
3 244 109 186
3 244 53 109
3 110 244 24
3 245 244 110
3 245 53 244
3 245 243 53
3 246 243 245
3 246 9 243
3 246 214 9
3 247 214 246
3 247 41 214
3 811 247 812
3 813 812 54
3 811 812 813
3 814 247 815
3 816 41 817
3 818 817 247
3 816 817 818
3 820 819 41
3 821 3 822
3 248 249 0
3 250 249 248
3 250 56 249
3 112 250 55
3 251 250 112
3 251 56 250
3 251 126 56
3 252 126 251
3 252 11 126
3 189 113 10
3 253 113 189
3 253 57 113
3 115 253 26
3 254 253 115
3 254 57 253
3 254 252 57
3 255 252 254
3 255 11 252
3 255 195 11
3 256 195 255
3 256 29 195
3 117 256 58
3 257 256 117
3 257 29 256
3 257 84 29
3 258 84 257
3 258 1 84
3 823 12 824
3 825 12 826
3 827 118 828
3 829 828 12
3 827 828 829
3 830 118 831
3 832 59 833
3 834 833 118
3 832 833 834
3 259 835 836
3 259 837 839
3 837 59 838
3 837 838 839
3 259 258 59
3 260 258 259
3 260 1 258
3 260 222 1
3 261 222 260
3 261 44 222
3 840 261 841
3 262 842 844
3 842 261 843
3 842 843 844
3 262 44 261
3 262 99 44
3 845 99 846
3 847 846 262
3 845 846 847
3 849 848 99
3 850 2 851
3 263 852 853
3 263 854 856
3 854 2 855
3 854 855 856
3 263 239 2
3 264 239 263
3 264 51 239
3 119 264 60
3 265 264 119
3 265 51 264
3 265 107 51
3 266 107 265
3 266 8 107
3 857 120 858
3 267 859 861
3 859 120 860
3 859 860 861
3 267 61 120
3 122 267 27
3 268 267 122
3 268 61 267
3 268 266 61
3 269 266 268
3 269 8 266
3 269 185 8
3 270 185 269
3 270 23 185
3 124 270 62
3 271 270 124
3 271 23 270
3 271 81 23
3 248 81 271
3 248 0 81
3 192 862 863
3 865 864 192
3 867 866 28
3 249 868 870
3 870 869 0
3 868 869 870
3 272 871 873
3 873 872 249
3 871 872 873
3 272 874 875
3 127 272 56
3 273 272 127
3 273 876 878
3 878 877 272
3 876 877 878
3 273 879 880
3 274 881 883
3 883 882 273
3 881 882 883
3 274 884 885
3 196 128 11
3 275 128 196
3 275 63 128
3 130 275 30
3 276 275 130
3 276 63 275
3 276 274 63
3 886 274 887
3 888 887 276
3 886 887 888
3 890 889 274
3 132 891 893
3 893 892 64
3 891 892 893
3 895 894 132
3 223 86 1
3 277 86 223
3 277 31 86
3 135 277 45
3 278 277 135
3 278 31 277
3 278 199 31
3 279 199 278
3 279 13 199
3 896 136 897
3 898 897 5
3 896 897 898
3 899 136 900
3 901 65 902
3 903 902 136
3 901 902 903
3 904 65 905
3 906 279 907
3 908 907 65
3 906 907 908
3 280 909 911
3 909 279 910
3 909 910 911
3 280 13 279
3 280 133 13
3 912 133 913
3 914 913 280
3 912 913 914
3 916 915 133
3 138 917 919
3 919 918 66
3 917 918 919
3 921 920 138
3 281 922 923
3 281 924 925
3 201 139 14
3 282 139 201
3 282 67 139
3 141 282 33
3 283 282 141
3 283 67 282
3 283 281 67
3 284 281 283
3 284 926 928
3 928 927 281
3 926 927 928
3 284 929 930
3 932 931 284
3 143 933 935
3 935 934 68
3 933 934 935
3 937 936 143
3 230 89 3
3 285 89 230
3 285 34 89
3 146 285 47
3 286 285 146
3 286 34 285
3 286 204 34
3 287 204 286
3 287 15 204
3 206 147 6
3 288 147 206
3 288 69 147
3 149 288 36
3 289 288 149
3 289 69 288
3 289 287 69
3 290 287 289
3 290 15 287
3 290 144 15
3 291 144 290
3 291 938 940
3 940 939 144
3 938 939 940
3 941 291 942
3 943 942 70
3 941 942 943
3 944 291 945
3 947 946 291
3 150 948 949
3 292 950 952
3 952 951 150
3 950 951 952
3 292 953 954
3 292 955 957
3 955 184 956
3 955 956 957
3 293 184 292
3 293 7 184
3 210 958 960
3 958 151 959
3 958 959 960
3 294 151 210
3 294 71 151
3 153 294 39
3 295 294 153
3 295 71 294
3 295 293 71
3 296 293 295
3 296 7 293
3 296 106 7
3 297 106 296
3 297 50 106
3 155 297 72
3 298 297 155
3 298 50 297
3 298 238 50
3 299 238 298
3 299 4 238
3 240 96 2
3 300 96 240
3 300 40 96
3 158 300 52
3 301 300 158
3 301 40 300
3 301 213 40
3 302 213 301
3 302 16 213
3 215 159 9
3 303 159 215
3 303 74 159
3 161 303 42
3 304 303 161
3 304 74 303
3 304 302 74
3 305 302 304
3 305 16 302
3 305 156 16
3 306 156 305
3 306 73 156
3 163 306 75
3 307 306 163
3 307 73 306
3 307 299 73
3 308 299 307
3 308 4 299
3 308 94 4
3 309 94 308
3 309 38 94
3 961 309 962
3 963 962 76
3 961 962 963
3 964 309 965
3 966 38 967
3 968 967 309
3 966 967 968
3 970 969 38
3 972 971 17
3 973 18 974
3 166 975 976
3 310 977 979
3 979 978 166
3 977 978 979
3 310 980 981
3 310 982 983
3 311 984 986
3 986 985 310
3 984 985 986
3 311 987 989
3 987 18 988
3 987 988 989
3 311 176 18
3 312 176 311
3 312 990 992
3 992 991 176
3 990 991 992
3 168 312 77
3 993 312 994
3 995 994 168
3 993 994 995
3 997 996 312
3 313 998 999
3 313 1000 1001
3 169 1002 1004
3 1002 313 1003
3 1002 1003 1004
3 1005 313 1006
3 1007 1006 169
3 1005 1006 1007
3 1009 1008 313
3 171 1010 1012
3 1012 1011 78
3 1010 1011 1012
3 1015 1014 171
3 1013 1014 1015
3 1016 172 1017
3 314 1018 1020
3 1018 172 1019
3 1018 1019 1020
3 314 79 172
3 174 314 43
3 315 314 174
3 315 79 314
3 315 1021 1023
3 1023 1022 79
3 1021 1022 1023
3 1025 1024 315
