ply
format ascii 1.0
element vertex 537
property float x
property float y
property float z
element face 550
property list uchar int vertex_index
end_header
36.065392 -3.958213 -22.754787
23.752235 23.350485 -38.523067
36.380753 -16.852034 -6.507609
35.68412 13.021398 -40.643482
31.323774 10.515637 -31.216887
36.314487 4.436263 -31.36919
27.139935 26.753401 -49.446556
38.699265 -11.912525 -22.589125
35.991665 -11.142068 -14.883523
38.590031 -18.491417 -14.244009
38.27319 -26.724535 -12.04682
30.172199 18.961533 -40.243797
33.257011 20.920465 -50.398163
33.933887 -0.501202 -22.882032
34.022701 3.543026 -26.971903
36.272453 0.144758 -27.04652
23.535549 29.11179 -47.937122
25.628757 25.264891 -43.905144
38.979164 -16.440439 -21.809299
36.059704 -14.158927 -10.740893
37.644947 -14.679832 -14.687207
37.809105 -17.789799 -10.319066
33.764751 12.056868 -35.815296
31.003796 14.814538 -35.816219
33.186848 16.357342 -40.675858
32.081856 20.481802 -45.632496
34.809586 16.952263 -45.351124
34.145264 7.819004 -31.529163
36.223347 8.682455 -35.931675
24.444733 30.107424 -53.467571
37.741196 -7.587218 -22.998518
37.891689 -3.79317 -26.985806
38.868446 -8.19951 -26.670033
35.922901 -7.678783 -18.743267
37.612267 -11.309304 -18.784641
38.600147 -15.393791 -18.451145
38.840137 -19.530712 -17.806454
38.701488 -21.524841 -9.684702
38.772884 -22.542479 -13.309687
38.424934 -23.9746 -16.601873
27.11717 21.120329 -39.650032
28.991682 23.039219 -44.991119
30.309902 24.260178 -50.319519
37.688942 8.684451 -40.118023
35.048824 -2.153079 -22.819033
35.100693 -0.08709 -24.892624
36.156525 -1.968967 -24.820013
23.159948 25.330137 -40.40004
23.96979 26.28056 -43.111294
24.792486 24.195648 -41.06308
38.898949 -18.626755 -21.409594
36.130333 -15.481776 -8.609755
36.991531 -15.927976 -10.468889
37.113861 -17.211685 -8.466282
34.873283 12.644075 -38.348499
33.610828 14.195745 -38.303562
34.513691 14.686526 -40.58057
34.027916 16.761116 -42.916431
35.286999 15.029488 -42.971657
35.238686 4.071806 -29.183372
33.994183 5.675642 -29.091719
35.248001 6.07329 -31.246416
35.224247 8.380394 -33.713692
36.25148 6.502391 -33.454865
25.335667 27.941116 -48.726913
24.018782 29.699642 -50.655056
25.779295 28.540768 -51.40139
26.261774 28.852722 -54.177841
27.499695 27.381243 -52.20269
38.283955 -9.759882 -22.708874
38.394009 -7.950801 -24.80813
38.767132 -9.963393 -24.696024
35.989265 -9.511005 -16.853666
36.876781 -9.482458 -18.823893
36.888897 -11.299736 -16.780018
38.222229 -16.536608 -14.573031
38.205067 -15.031516 -16.570059
38.588722 -16.931231 -16.467796
38.80941 -17.551416 -18.067526
38.781326 -19.13043 -15.930923
38.456425 -20.946489 -7.781563
38.566353 -25.949528 -10.518477
38.765919 -23.907677 -11.171582
38.597328 -24.572464 -12.883604
38.631142 -23.290468 -15.084424
38.321812 -25.481667 -14.314978
30.682852 16.92709 -38.10511
29.15543 17.941158 -37.736217
28.649492 20.049568 -39.948441
28.060644 22.197983 -42.322823
29.681162 21.013882 -42.633266
32.711151 20.826969 -47.965885
31.26717 22.414845 -47.969303
31.887993 22.646435 -50.486523
30.810888 24.408564 -52.798141
32.320835 22.635763 -52.855694
37.849144 6.674798 -37.806622
32.722466 2.965865 -24.839523
33.901363 1.535102 -24.833057
35.18721 1.902536 -26.955925
23.091494 28.267294 -45.222
24.718578 27.21603 -46.022583
26.396519 26.119425 -46.656605
38.922375 -14.132987 -22.313416
38.994064 -12.331867 -24.251995
36.002617 -12.730323 -12.777512
36.903255 -12.849313 -14.855183
36.952183 -14.516895 -12.631934
37.701874 -16.275755 -12.48885
38.247204 -18.078711 -12.216242
32.650681 11.256026 -33.478893
31.305401 12.680673 -33.620773
32.454174 13.596669 -35.990265
32.161419 15.727716 -38.318634
31.727131 17.739569 -40.512348
31.274662 19.729752 -42.881111
32.679634 18.43145 -43.070904
33.485889 18.743303 -45.362541
34.104614 18.980986 -47.839012
32.716305 5.039026 -26.92169
32.802326 7.153602 -29.19853
32.775536 9.145329 -31.287979
34.038021 9.959105 -33.737476
35.080387 10.547648 -36.014198
35.994194 10.819489 -38.185658
22.440695 30.727903 -49.877087
22.71752 31.211882 -52.552174
36.998775 -5.747737 -22.90127
37.076973 -3.905299 -24.830223
37.836491 -5.847726 -24.918547
38.456417 -5.997899 -26.805813
39.113323 -10.54634 -26.389301
34.950485 -4.157696 -20.711836
34.84148 -6.024108 -18.631809
36.013603 -5.887586 -20.767187
36.952774 -7.651976 -20.919136
37.652149 -9.509863 -20.831108
38.23177 -11.478628 -20.787504
37.664886 -13.156949 -16.769403
38.197777 -13.28347 -18.66684
38.628239 -13.674539 -20.47822
38.853249 -15.77449 -20.255489
38.897976 -18.032892 -19.79837
38.777336 -20.388376 -19.383179
37.897369 -19.031822 -8.195492
38.365135 -19.676401 -9.966309
38.621288 -19.999729 -11.913419
38.791271 -21.965832 -11.579908
38.774078 -20.583303 -13.754495
38.791397 -21.232306 -15.551147
38.715446 -21.67263 -17.253586
38.53072 -22.578989 -18.67268
25.44245 22.292202 -39.251328
26.443382 23.292225 -41.902256
27.3039 24.197001 -44.512939
28.077101 24.924236 -47.07983
30.59458 21.821684 -45.383121
29.767454 23.754198 -47.734127
28.678703 25.59798 -49.838909
29.119646 26.027224 -52.463493
37.16066 -1.762079 -27.041119
37.134815 6.796008 -35.798359
37.027355 8.87444 -38.171623
36.726265 11.040267 -40.449669
36.45153 12.931658 -42.768494
23.456091 24.340311 -39.461553
22.643933 24.903781 -39.054911
22.940076 23.913955 -38.116424
38.851461 -19.122953 -22.103353
38.779671 -19.856464 -21.086824
35.833117 -16.061765 -6.559049
35.949234 -16.583005 -5.642814
36.255543 -16.166905 -7.558682
35.707906 -15.376636 -7.610121
35.833117 -16.061765 -6.559049
35.426611 -10.319969 -14.815984
35.461363 -11.119395 -13.846904
35.990465 -10.326536 -15.868595
35.425411 -9.504438 -15.801056
35.426611 -10.319969 -14.815984
38.095152 -27.099668 -12.839408
38.119463 -26.478234 -13.973486
38.297501 -26.103101 -13.180899
30.596525 11.164769 -31.225293
30.600735 10.056809 -30.019779
33.917625 0.51695 -23.857544
33.220167 1.23411 -23.721898
33.236429 0.215958 -22.746385
36.270836 1.249495 -28.117504
35.728214 2.128385 -28.072207
35.729832 1.023647 -27.001223
22.722681 27.823379 -43.753526
22.232048 28.809096 -44.612307
39.029167 -15.552671 -22.845508
39.000772 -14.398944 -23.097566
38.950769 -15.286713 -22.061357
35.504935 -13.395319 -10.68505
35.589123 -14.069223 -9.743605
36.03116 -13.444625 -11.759203
35.476391 -12.681017 -11.703359
35.504935 -13.395319 -10.68505
22.988122 29.919846 -48.907105
22.196724 30.417533 -48.416718
22.744151 29.609476 -47.446735
23.722645 30.775389 -54.329424
22.859039 31.327618 -53.871725
23.581126 30.659653 -53.009873
24.568811 30.223053 -54.832229
23.722645 30.775389 -54.329424
26.343061 28.957593 -55.558757
27.139294 28.176313 -54.492582
38.921351 -7.274218 -27.68817
38.715336 -6.173413 -27.756059
38.662431 -7.098705 -26.737923
39.157117 -11.741986 -26.1756
39.053694 -11.439104 -25.320648
39.097488 -12.634749 -25.106947
34.30855 -4.277675 -19.664656
34.353193 -3.286246 -20.736424
35.382191 -6.851446 -18.687538
34.819561 -6.913862 -17.628454
35.360272 -7.7412 -17.684183
37.96961 -19.652564 -7.081836
37.59876 -18.757151 -7.281287
38.288769 -24.395449 -17.297023
38.341662 -23.697644 -18.332426
38.477827 -23.276795 -17.637276
30.374523 14.361287 -34.647247
30.525325 13.294355 -33.549524
31.154598 13.747606 -34.718496
26.505381 20.634304 -38.349348
27.343824 20.063875 -38.534029
26.27981 21.706266 -39.45068
25.668022 21.22024 -38.149996
26.505381 20.634304 -38.349348
30.195919 25.225613 -53.922428
30.959575 24.386445 -54.026297
37.547789 5.707221 -35.703724
37.164757 5.697021 -34.614632
36.759977 12.807503 -43.879799
36.948463 11.83158 -42.697357
36.2278 13.951401 -44.02873
36.759977 12.807503 -43.879799
22.341112 25.934624 -39.972471
22.643933 24.903781 -39.054911
22.756908 26.3548 -41.342546
22.341112 25.934624 -39.972471
23.564869 25.805349 -41.755667
23.161828 26.830012 -42.698173
22.756908 26.3548 -41.342546
38.957194 -17.847928 -22.425714
38.997301 -16.75477 -22.625567
38.939056 -17.533597 -21.609446
38.957194 -17.847928 -22.425714
38.851461 -19.122953 -22.103353
35.624437 -14.730647 -8.678036
35.707906 -15.376636 -7.610121
36.095019 -14.820352 -9.675324
35.589123 -14.069223 -9.743605
35.624437 -14.730647 -8.678036
27.758255 27.440573 -53.505006
27.139294 28.176313 -54.492582
26.880734 28.116982 -53.190265
35.393454 -8.657311 -16.739382
35.425411 -9.504438 -15.801056
35.956083 -8.594894 -17.798466
35.360272 -7.7412 -17.684183
35.393454 -8.657311 -16.739382
38.505062 -21.498048 -6.64069
38.249138 -20.609898 -6.874872
38.612923 -21.861323 -7.511279
38.505062 -21.498048 -6.64069
38.735455 -22.150499 -8.462848
38.578957 -21.235665 -8.733132
38.612923 -21.861323 -7.511279
38.666136 -24.928603 -10.84503
38.773647 -24.578775 -9.937172
38.673865 -25.5997 -9.61062
38.176493 -25.79862 -15.098916
38.228054 -25.045086 -16.242363
38.373373 -24.728133 -15.458426
38.176493 -25.79862 -15.098916
38.119463 -26.478234 -13.973486
30.076561 16.450922 -36.871113
30.237033 15.394646 -35.726667
30.843324 15.870814 -36.960665
29.31285 16.957956 -36.686666
30.076561 16.450922 -36.871113
29.919141 17.434124 -37.920664
28.510303 17.446646 -36.482492
29.31285 16.957956 -36.686666
28.362954 18.47429 -37.577122
28.510303 17.446646 -36.482492
28.109985 19.528495 -38.683234
28.362954 18.47429 -37.577122
28.902461 18.995363 -38.842329
27.883331 20.584949 -39.799237
27.343824 20.063875 -38.534029
28.109985 19.528495 -38.683234
31.714549 23.500045 -54.055073
30.959575 24.386445 -54.026297
31.565862 23.522163 -52.826918
37.927349 -2.748157 -28.060935
38.231594 -3.949555 -27.950883
38.206208 5.483469 -37.663452
37.904953 5.646615 -36.707855
38.152499 6.464965 -38.799525
38.206208 5.483469 -37.663452
38.072397 7.469792 -39.955225
37.769043 7.679624 -38.962322
38.152499 6.464965 -38.799525
32.630719 1.949492 -23.725131
31.938882 2.694589 -23.718891
33.311915 2.250484 -24.83629
32.630719 1.949492 -23.725131
33.220167 1.23411 -23.721898
35.753952 3.213019 -29.18593
35.212948 2.987171 -28.069648
35.728214 2.128385 -28.072207
36.291853 3.395248 -30.278839
35.776587 4.254034 -30.276281
35.753952 3.213019 -29.18593
22.522123 29.187228 -46.089174
22.232048 28.809096 -44.612307
23.313522 28.689542 -46.579561
22.744151 29.609476 -47.446735
22.522123 29.187228 -46.089174
23.530642 27.273927 -44.166647
22.722681 27.823379 -43.753526
23.161828 26.830012 -42.698173
39.036617 -13.498385 -24.066856
38.958219 -13.232427 -23.282705
39.000772 -14.398944 -23.097566
39.097488 -12.634749 -25.106947
39.036617 -13.498385 -24.066856
39.029167 -15.552671 -22.845508
38.997301 -16.75477 -22.625567
35.466839 -11.913522 -12.793899
35.476391 -12.681017 -11.703359
35.997141 -11.936196 -13.830517
35.461363 -11.119395 -13.846904
35.466839 -11.913522 -12.793899
38.554913 -26.591873 -9.364374
38.673865 -25.5997 -9.61062
38.394747 -26.978763 -10.116228
38.554913 -26.591873 -9.364374
38.248165 -27.366267 -10.880399
38.419771 -26.337032 -11.282649
38.394747 -26.978763 -10.116228
38.047531 -27.741222 -11.711243
38.248165 -27.366267 -10.880399
23.225119 22.892013 -37.262439
22.940076 23.913955 -38.116424
36.49633 -17.427995 -5.451207
35.949234 -16.583005 -5.642814
36.840452 -17.667257 -6.437346
36.49633 -17.427995 -5.451207
31.338495 9.433522 -30.066824
30.600735 10.056809 -30.019779
31.986054 3.617426 -24.705478
31.938882 2.694589 -23.718891
31.982974 4.654006 -25.746561
31.986054 3.617426 -24.705478
32.719386 4.002446 -25.880606
32.019875 5.699297 -26.860118
31.982974 4.654006 -25.746561
32.062886 6.756585 -27.998538
32.019875 5.699297 -26.860118
32.759315 6.096314 -28.06011
32.077771 7.752504 -29.057645
32.062886 6.756585 -27.998538
32.064376 8.748368 -30.10237
32.077771 7.752504 -29.057645
32.788931 8.149465 -30.243254
32.049655 9.830483 -31.252433
31.338495 9.433522 -30.066824
32.064376 8.748368 -30.10237
21.633808 31.248159 -49.320546
22.196724 30.417533 -48.416718
21.773116 31.488641 -50.75759
21.633808 31.248159 -49.320546
21.911528 31.73063 -52.095133
21.773116 31.488641 -50.75759
22.579107 30.969893 -51.21463
22.010925 31.87261 -53.449852
21.911528 31.73063 -52.095133
22.010925 31.87261 -53.449852
22.859039 31.327618 -53.871725
25.477332 29.595702 -55.187365
24.568811 30.223053 -54.832229
25.353254 29.480073 -53.822706
25.477332 29.595702 -55.187365
26.343061 28.957593 -55.558757
38.513958 -5.051919 -27.860886
38.231594 -3.949555 -27.950883
38.174053 -4.895535 -26.895809
38.513958 -5.051919 -27.860886
38.715336 -6.173413 -27.756059
39.227322 -10.826712 -27.240983
39.157117 -11.741986 -26.1756
39.170349 -9.681202 -27.367935
39.227322 -10.826712 -27.240983
39.047911 -8.507786 -27.508301
38.990884 -9.372925 -26.529667
39.170349 -9.681202 -27.367935
38.921351 -7.274218 -27.68817
39.047911 -8.507786 -27.508301
33.209814 -0.743834 -21.753673
33.236429 0.215958 -22.746385
33.844894 -1.458 -21.821521
33.209814 -0.743834 -21.753673
34.402363 -2.283938 -21.790022
34.491355 -1.327141 -22.850532
33.844894 -1.458 -21.821521
34.999655 -3.155387 -21.765435
34.402363 -2.283938 -21.790022
34.353193 -3.286246 -20.736424
34.185129 -6.08098 -17.593082
34.819561 -6.913862 -17.628454
34.254047 -5.210881 -18.624643
34.185129 -6.08098 -17.593082
34.895983 -5.090902 -19.671823
34.30855 -4.277675 -19.664656
34.254047 -5.210881 -18.624643
38.718864 -20.737274 -20.073617
38.779671 -19.856464 -21.086824
38.838143 -19.507565 -20.396386
37.207006 -17.847083 -7.416682
36.747307 -17.031859 -7.486946
36.840452 -17.667257 -6.437346
37.505615 -18.121753 -8.330887
37.207006 -17.847083 -7.416682
37.59876 -18.757151 -7.281287
38.176897 -19.989155 -7.988528
37.96961 -19.652564 -7.081836
38.249138 -20.609898 -6.874872
38.763912 -22.408335 -9.514283
38.735455 -22.150499 -8.462848
38.796127 -23.599753 -10.257722
38.773647 -24.578775 -9.937172
38.808803 -22.628831 -10.461886
38.796127 -23.599753 -10.257722
38.778595 -22.936754 -11.375745
38.74638 -21.745337 -10.632305
38.763912 -22.408335 -9.514283
38.808803 -22.628831 -10.461886
38.595557 -21.83258 -19.718367
38.718864 -20.737274 -20.073617
38.654028 -21.483683 -19.027929
38.41454 -23.034377 -19.361806
38.595557 -21.83258 -19.718367
38.41454 -23.034377 -19.361806
38.341662 -23.697644 -18.332426
38.288769 -24.395449 -17.297023
38.228054 -25.045086 -16.242363
38.095152 -27.099668 -12.839408
38.047531 -27.741222 -11.711243
23.989559 22.346126 -37.567203
23.225119 22.892013 -37.262439
30.587339 12.247287 -32.427236
30.596525 11.164769 -31.225293
31.314588 11.598155 -32.41883
30.587339 12.247287 -32.427236
30.525325 13.294355 -33.549524
30.374523 14.361287 -34.647247
30.237033 15.394646 -35.726667
24.834667 21.816985 -37.931334
25.668022 21.22024 -38.149996
24.597342 22.821343 -38.887197
23.989559 22.346126 -37.567203
24.834667 21.816985 -37.931334
28.56823 26.763564 -53.635408
27.758255 27.440573 -53.505006
28.30967 26.704234 -52.333091
29.350298 26.034943 -53.755104
29.965267 25.217894 -52.630817
30.195919 25.225613 -53.922428
28.56823 26.763564 -53.635408
29.350298 26.034943 -53.755104
37.561835 -1.732611 -28.088591
37.526174 -2.777624 -27.013462
37.927349 -2.748157 -28.060935
37.193499 -0.693871 -28.132241
37.561835 -1.732611 -28.088591
36.749395 0.259547 -28.134942
36.716556 -0.808661 -27.043819
37.193499 -0.693871 -28.132241
36.270836 1.249495 -28.117504
36.749395 0.259547 -28.134942
36.773336 3.421463 -31.303612
36.291853 3.395248 -30.278839
36.754593 4.517149 -32.400047
36.773336 3.421463 -31.303612
36.723089 5.550213 -33.442884
36.282984 5.469327 -32.412028
36.754593 4.517149 -32.400047
36.693148 6.649199 -34.626612
36.723089 5.550213 -33.442884
37.164757 5.697021 -34.614632
37.491979 6.735403 -36.80249
37.547789 5.707221 -35.703724
37.904953 5.646615 -36.707855
37.958006 8.497418 -41.092186
38.072397 7.469792 -39.955225
37.567169 9.707977 -41.372122
37.958006 8.497418 -41.092186
37.085831 10.885884 -41.537945
37.207603 9.862359 -40.283846
37.567169 9.707977 -41.372122
36.588898 11.985962 -41.609082
37.085831 10.885884 -41.537945
36.948463 11.83158 -42.697357
35.645534 15.000317 -44.130312
35.869264 13.980573 -42.870075
36.2278 13.951401 -44.02873
35.406828 15.961704 -45.320045
35.048293 15.990875 -44.16139
35.645534 15.000317 -44.130312
35.109591 16.942735 -46.573086
35.406828 15.961704 -45.320045
34.757104 17.957096 -47.81703
34.4571 17.966625 -46.595068
35.109591 16.942735 -46.573086
34.356556 18.916942 -48.963922
34.757104 17.957096 -47.81703
33.932755 19.886682 -50.243498
33.680813 19.950726 -49.118587
34.356556 18.916942 -48.963922
33.48352 20.782186 -51.536823
33.932755 19.886682 -50.243498
33.015433 21.639834 -52.765589
32.788923 21.778114 -51.626928
33.48352 20.782186 -51.536823
32.45332 22.516754 -53.998385
33.015433 21.639834 -52.765589
31.714549 23.500045 -54.055073
32.45332 22.516754 -53.998385
3 0 46 44
3 1 165 167
3 165 47 166
3 165 166 167
3 1 49 47
3 169 168 50
3 2 170 171
3 2 172 174
3 172 51 173
3 172 173 174
3 2 53 51
3 3 56 54
3 3 58 56
3 5 61 59
3 5 63 61
3 6 66 64
3 6 68 66
3 7 71 69
3 8 175 176
3 8 177 179
3 177 72 178
3 177 178 179
3 8 74 72
3 9 77 75
3 9 79 77
3 10 83 81
3 10 85 83
3 10 180 182
3 182 181 85
3 180 181 182
3 4 183 184
3 11 87 86
3 11 88 87
3 11 90 88
3 12 93 91
3 12 95 93
3 13 185 187
3 185 98 186
3 185 186 187
3 15 99 45
3 15 188 190
3 190 189 99
3 188 189 190
3 191 100 192
3 17 101 48
3 17 102 101
3 18 193 195
3 195 194 103
3 193 194 195
3 19 196 197
3 19 198 200
3 198 105 199
3 198 199 200
3 19 107 105
3 21 108 52
3 21 109 108
3 22 112 110
3 24 113 55
3 24 114 113
3 24 116 114
3 26 117 57
3 26 118 117
3 14 119 97
3 27 120 60
3 27 121 120
3 27 122 121
3 28 123 62
3 28 124 123
3 16 201 203
3 201 125 202
3 201 202 203
3 29 126 65
3 29 204 206
3 206 205 126
3 204 205 206
3 29 207 208
3 210 209 67
3 30 129 127
3 32 130 70
3 32 211 213
3 213 212 130
3 211 212 213
3 214 131 215
3 216 215 104
3 214 215 216
3 217 132 218
3 33 219 221
3 219 133 220
3 219 220 221
3 33 134 133
3 33 135 134
3 34 136 73
3 34 137 136
3 20 138 106
3 35 139 76
3 35 140 139
3 35 141 140
3 36 142 78
3 36 143 142
3 222 144 223
3 37 145 80
3 37 146 145
3 38 147 82
3 38 148 147
3 38 149 148
3 39 150 84
3 39 151 150
3 39 224 226
3 226 225 151
3 224 225 226
3 23 227 229
3 229 228 111
3 227 228 229
3 40 230 231
3 40 232 234
3 232 152 233
3 232 233 234
3 40 153 152
3 41 154 89
3 41 155 154
3 25 156 115
3 42 157 92
3 42 158 157
3 42 159 158
3 236 235 94
3 31 160 128
3 237 161 238
3 43 162 96
3 43 163 162
3 239 164 240
3 242 241 164
3 44 45 13
3 46 45 44
3 46 15 45
3 47 243 244
3 47 245 246
3 47 247 249
3 247 48 248
3 247 248 249
3 49 48 47
3 49 17 48
3 50 250 252
3 252 251 18
3 250 251 252
3 254 253 50
3 51 255 256
3 51 257 259
3 257 19 258
3 257 258 259
3 51 52 19
3 53 52 51
3 53 21 52
3 54 55 22
3 56 55 54
3 56 24 55
3 56 57 24
3 58 57 56
3 58 26 57
3 59 60 14
3 61 60 59
3 61 27 60
3 61 62 27
3 63 62 61
3 63 28 62
3 64 65 16
3 66 65 64
3 66 29 65
3 66 67 29
3 68 67 66
3 68 260 262
3 262 261 67
3 260 261 262
3 69 70 30
3 71 70 69
3 71 32 70
3 72 263 264
3 72 265 267
3 265 33 266
3 265 266 267
3 72 73 33
3 74 73 72
3 74 34 73
3 75 76 20
3 77 76 75
3 77 35 76
3 77 78 35
3 79 78 77
3 79 36 78
3 268 80 269
3 270 80 271
3 272 37 273
3 274 273 80
3 272 273 274
3 81 275 277
3 275 82 276
3 275 276 277
3 83 82 81
3 83 38 82
3 83 84 38
3 85 84 83
3 85 39 84
3 85 278 280
3 280 279 39
3 278 279 280
3 282 281 85
3 86 283 285
3 285 284 23
3 283 284 285
3 87 286 288
3 288 287 86
3 286 287 288
3 87 289 290
3 87 291 292
3 88 293 295
3 295 294 87
3 293 294 295
3 88 296 298
3 296 40 297
3 296 297 298
3 88 89 40
3 90 89 88
3 90 41 89
3 91 92 25
3 93 92 91
3 93 42 92
3 93 94 42
3 95 94 93
3 95 299 301
3 301 300 94
3 299 300 301
3 303 302 31
3 304 96 305
3 306 96 307
3 308 43 309
3 310 309 96
3 308 309 310
3 311 97 312
3 98 313 315
3 313 97 314
3 313 314 315
3 98 14 97
3 45 98 13
3 99 98 45
3 99 14 98
3 99 59 14
3 316 59 317
3 318 317 99
3 316 317 318
3 319 5 320
3 321 320 59
3 319 320 321
3 100 322 323
3 100 324 326
3 324 16 325
3 324 325 326
3 48 327 329
3 327 100 328
3 327 328 329
3 101 100 48
3 101 16 100
3 101 64 16
3 102 64 101
3 102 6 64
3 103 104 7
3 330 104 331
3 332 331 103
3 330 331 332
3 334 333 104
3 336 335 18
3 105 337 338
3 105 339 341
3 339 8 340
3 339 340 341
3 105 106 8
3 107 106 105
3 107 20 106
3 52 107 19
3 108 107 52
3 108 20 107
3 108 75 20
3 109 75 108
3 109 9 75
3 342 81 343
3 344 81 345
3 346 10 347
3 348 347 81
3 346 347 348
3 350 349 10
3 110 111 4
3 112 111 110
3 112 23 111
3 55 112 22
3 113 112 55
3 113 23 112
3 113 86 23
3 114 86 113
3 114 11 86
3 114 115 11
3 116 115 114
3 116 25 115
3 57 116 24
3 117 116 57
3 117 25 116
3 117 91 25
3 118 91 117
3 118 12 91
3 351 1 352
3 353 2 354
3 356 355 2
3 357 4 358
3 97 359 360
3 119 361 363
3 363 362 97
3 361 362 363
3 119 364 365
3 60 119 14
3 120 119 60
3 120 366 368
3 368 367 119
3 366 367 368
3 120 369 370
3 121 371 373
3 373 372 120
3 371 372 373
3 121 374 376
3 374 4 375
3 374 375 376
3 121 110 4
3 122 110 121
3 122 22 110
3 62 122 27
3 123 122 62
3 123 22 122
3 123 54 22
3 124 54 123
3 124 3 54
3 125 377 378
3 125 379 380
3 65 125 16
3 126 125 65
3 126 381 383
3 383 382 125
3 381 382 383
3 126 384 385
3 387 386 126
3 67 388 390
3 390 389 29
3 388 389 390
3 392 391 67
3 127 128 0
3 129 128 127
3 129 31 128
3 70 129 30
3 130 129 70
3 130 31 129
3 130 393 395
3 395 394 31
3 393 394 395
3 397 396 130
3 104 71 7
3 131 71 104
3 131 32 71
3 398 131 399
3 400 131 401
3 402 32 403
3 404 403 131
3 402 403 404
3 406 405 32
3 407 13 408
3 409 13 410
3 411 44 412
3 413 412 13
3 411 412 413
3 132 414 416
3 414 44 415
3 414 415 416
3 132 0 44
3 133 417 418
3 133 419 420
3 133 421 423
3 421 132 422
3 421 422 423
3 134 132 133
3 134 0 132
3 134 127 0
3 135 127 134
3 135 30 127
3 73 135 33
3 136 135 73
3 136 30 135
3 136 69 30
3 137 69 136
3 137 7 69
3 106 74 8
3 138 74 106
3 138 34 74
3 76 138 20
3 139 138 76
3 139 34 138
3 139 137 34
3 140 137 139
3 140 7 137
3 140 103 7
3 141 103 140
3 141 18 103
3 78 141 35
3 142 141 78
3 142 18 141
3 142 50 18
3 143 50 142
3 143 424 426
3 426 425 50
3 424 425 426
3 427 53 428
3 429 428 2
3 427 428 429
3 144 430 432
3 430 53 431
3 430 431 432
3 144 21 53
3 80 433 435
3 433 144 434
3 433 434 435
3 145 144 80
3 145 21 144
3 145 109 21
3 146 109 145
3 146 9 109
3 436 37 437
3 82 438 439
3 147 440 442
3 442 441 82
3 440 441 442
3 147 443 445
3 443 37 444
3 443 444 445
3 147 146 37
3 148 146 147
3 148 9 146
3 148 79 9
3 149 79 148
3 149 36 79
3 84 149 38
3 150 149 84
3 150 36 149
3 150 143 36
3 151 143 150
3 151 446 448
3 448 447 143
3 446 447 448
3 151 449 450
3 452 451 151
3 454 453 39
3 456 455 10
3 457 1 458
3 111 459 461
3 461 460 4
3 459 460 461
3 463 462 111
3 465 464 23
3 152 466 467
3 152 468 470
3 468 1 469
3 468 469 470
3 152 49 1
3 153 49 152
3 153 17 49
3 89 153 40
3 154 153 89
3 154 17 153
3 154 102 17
3 155 102 154
3 155 6 102
3 115 90 11
3 156 90 115
3 156 41 90
3 92 156 25
3 157 156 92
3 157 41 156
3 157 155 41
3 158 155 157
3 158 6 155
3 158 68 6
3 159 68 158
3 159 471 473
3 473 472 68
3 471 472 473
3 94 159 42
3 474 159 475
3 476 475 94
3 474 475 476
3 478 477 159
3 128 46 0
3 160 46 128
3 160 15 46
3 479 160 480
3 481 480 31
3 479 480 481
3 482 160 483
3 484 15 485
3 486 485 160
3 484 485 486
3 488 487 15
3 489 5 490
3 491 5 492
3 493 63 494
3 495 494 5
3 493 494 495
3 161 496 498
3 496 63 497
3 496 497 498
3 161 28 63
3 96 499 501
3 499 161 500
3 499 500 501
3 162 161 96
3 162 28 161
3 162 124 28
3 163 124 162
3 163 3 124
3 502 43 503
3 504 43 505
3 506 163 507
3 508 507 43
3 506 507 508
3 164 509 511
3 509 163 510
3 509 510 511
3 164 3 163
3 164 58 3
3 512 58 513
3 514 513 164
3 512 513 514
3 515 26 516
3 517 516 58
3 515 516 517
3 518 26 519
3 520 118 521
3 522 521 26
3 520 521 522
3 523 118 524
3 525 12 526
3 527 526 118
3 525 526 527
3 528 12 529
3 530 95 531
3 532 531 12
3 530 531 532
3 533 95 534
3 536 535 95
