ply
format ascii 1.0
element vertex 626
property float x
property float y
property float z
element face 658
property list uchar int vertex_index
end_header
-24.425484 19.416185 -36.260479
-35.71254 5.955745 -33.671429
-39.779053 -25.106714 -17.441034
-38.772934 -32.823277 -8.968333
-30.492245 12.87906 -35.256504
-35.62368 12.578288 -43.489056
-29.845926 20.081015 -45.774113
-38.384956 -8.600811 -24.766571
-39.240383 -2.015003 -32.002193
-34.640598 -1.701307 -25.035797
-37.501328 -30.089691 -2.098256
-37.58604 -16.67696 -17.536863
-40.527443 -16.775082 -24.837408
-27.546265 16.098049 -35.92382
-30.468935 16.556572 -40.355495
-27.221373 19.790758 -40.895985
-36.708424 -5.112305 -24.827965
-37.277473 -27.440422 -6.117321
-38.01524 -12.552472 -21.312368
-40.396767 -25.486475 -21.122086
-40.201416 -20.77276 -21.400639
-37.71714 2.026229 -32.794827
-37.850533 5.252274 -37.116966
-24.901787 26.412086 -51.858982
-39.279537 -28.988869 -13.305013
-33.269669 9.425369 -34.350468
-35.81068 9.522044 -38.487129
-33.331966 13.245205 -39.56628
-32.952892 16.664684 -45.039085
-40.015949 -8.907515 -27.957867
-40.271809 -6.003226 -31.156153
-38.908882 -5.160671 -28.373888
-37.252541 -1.478537 -28.588411
-35.259209 2.260363 -29.226114
-32.229416 1.740838 -25.488451
-32.811111 5.731169 -29.798031
-30.210796 8.949939 -30.443987
-27.273848 12.163469 -30.886374
-24.377254 15.430379 -31.144133
-37.890221 -32.363922 2.275804
-38.179752 -34.252388 -1.088033
-38.25008 -31.6614 -5.29475
-38.43895 -28.256704 -9.744741
-38.702488 -24.702417 -13.694798
-37.328514 -20.503502 -13.939283
-39.018612 -20.614367 -17.638075
-39.410736 -16.582912 -21.365679
-39.7216 -12.54559 -24.757908
-40.730236 -12.592896 -27.970728
-26.389599 23.446167 -46.585667
-28.542383 23.231081 -51.411133
-25.924059 17.694485 -35.978653
-27.396086 18.050871 -38.438393
-25.832991 19.581657 -38.544678
-39.876022 -27.361605 -17.312048
-40.119289 -27.571556 -19.183876
-40.146278 -25.346004 -19.325855
-40.369179 -23.270765 -21.196177
-40.006676 -23.033178 -19.443058
-36.80022 4.049635 -33.293846
-37.852345 3.643771 -34.963711
-36.9188 5.703595 -35.494644
-39.277145 -31.243759 -13.130168
-39.030315 -30.861397 -11.183345
-32.006485 11.133998 -34.869263
-33.401669 11.360118 -36.9771
-31.971571 13.089235 -37.356922
-30.181252 18.418833 -43.061447
-31.727417 16.736208 -42.641525
-31.474077 18.379986 -45.410995
-32.485943 18.194319 -47.61813
-30.929216 19.993189 -48.09679
-39.292267 -8.756786 -26.373749
-39.468349 -7.03804 -28.043955
-38.621994 -6.817647 -26.51235
-35.707306 -3.351641 -24.922064
-36.997974 -3.183562 -26.767004
-35.967464 -1.281719 -26.944824
-36.324051 0.47145 -28.958637
-34.988377 0.29642 -27.120441
-32.57832 3.66153 -27.560131
-31.530437 7.321192 -30.081566
-27.060852 10.059612 -28.423307
-25.52759 11.859482 -28.626558
-25.797937 13.766964 -31.010178
-24.08884 13.627537 -28.772869
-37.684277 -31.295862 0.06175
-38.053257 -33.356209 0.631082
-37.965092 -32.156586 -1.613181
-38.19717 -32.94096 -3.233292
-37.905991 -30.909506 -3.66909
-37.913692 -27.901981 -7.993477
-37.944172 -26.140572 -10.042842
-38.565926 -26.461493 -11.808835
-37.953297 -24.274128 -11.920617
-37.515255 -18.705273 -15.812498
-38.261383 -20.716078 -15.72759
-38.379982 -18.60685 -17.598753
-39.177277 -18.580116 -19.446619
-38.537743 -16.526064 -19.440653
-38.224636 -10.576091 -23.074661
-38.977234 -12.55352 -23.091497
-39.135464 -10.608086 -24.744057
-39.870163 -10.705076 -26.336912
-40.736206 -18.844652 -24.905783
-40.858849 -16.750599 -26.521662
-40.630192 -14.628054 -26.417492
-39.838665 -4.087892 -31.607931
-35.817028 10.984971 -40.881687
-36.886391 8.948271 -40.239307
-36.708614 10.580544 -42.867329
-25.286346 23.243479 -44.04443
-24.671541 24.942541 -46.663124
-26.700317 24.914463 -51.749317
-38.531639 -34.267433 -6.761098
-29.01569 14.553132 -35.665142
-30.511719 14.863377 -37.908463
-28.995003 16.413059 -38.160095
-28.857216 18.229164 -40.716686
-28.606438 20.044893 -43.481243
-37.376312 -8.779933 -23.022263
-37.633381 -6.797679 -24.877293
-36.431923 -6.978242 -23.040106
-34.292133 -3.653412 -23.088083
-36.79076 -28.073912 -2.431844
-37.343811 -28.821121 -4.019542
-36.698257 -14.759229 -17.581413
-37.803192 -14.673208 -19.418182
-36.929909 -12.828581 -19.394022
-37.127399 -10.806742 -21.173326
-40.565262 -21.026518 -23.064417
-40.360996 -18.766733 -23.10384
-38.528267 -0.05176 -32.306358
-39.32312 -0.430967 -33.991886
-38.638462 1.549098 -34.373512
-35.240433 14.158099 -46.117165
-23.992796 26.434523 -49.266933
-39.582939 -29.441599 -15.240396
-39.52401 -27.177286 -15.315208
-34.540886 7.783733 -34.096191
-35.895779 7.668418 -36.067261
-34.641201 9.613635 -36.521893
-34.642422 11.446124 -39.112057
-34.497395 13.118017 -41.56234
-32.004559 14.8902 -40.014107
-33.213245 15.056194 -42.368198
-34.330482 14.684947 -44.262466
-33.898998 16.290949 -46.987915
-40.539391 -9.257705 -29.304991
-40.622204 -7.94486 -30.70755
-40.158463 -7.430519 -29.498936
-39.697853 -5.507413 -29.868782
-39.09882 -3.548468 -30.177135
-37.900776 -5.017299 -26.6768
-38.17041 -3.314109 -28.531826
-38.322792 -1.60382 -30.343061
-37.437901 0.400145 -30.614351
-36.508656 2.345186 -31.014717
-35.481041 4.183924 -31.41391
-33.471966 0.100996 -25.315054
-33.873962 2.072362 -27.459726
-34.056282 4.04563 -29.512568
-34.404045 5.913373 -31.824434
-33.141586 7.507695 -32.011936
-31.806946 9.174334 -32.351921
-30.362282 10.865222 -32.702656
-28.501406 8.493479 -28.281359
-28.673197 10.473407 -30.509802
-28.971001 12.537794 -33.1422
-27.43959 14.137739 -33.331936
-25.942135 15.835823 -33.613201
-24.433548 17.409573 -33.600044
-22.716722 15.449417 -28.889547
-22.915365 17.329021 -31.327824
-38.17094 -35.503414 1.261124
-38.148598 -36.331856 -0.465143
-38.257637 -35.07354 -2.729342
-38.384407 -33.812096 -4.858406
-38.534039 -32.125648 -7.114637
-37.88755 -29.509312 -5.79451
-38.330078 -30.052082 -7.50838
-38.707951 -30.524525 -9.279259
-38.899025 -28.69298 -11.454278
-39.110508 -26.829546 -13.585605
-39.293777 -24.808441 -15.608929
-38.103882 -22.536831 -13.867895
-38.87212 -22.634758 -15.781096
-39.505417 -22.798731 -17.623236
-39.680096 -20.666029 -19.529444
-39.844807 -18.693981 -21.255749
-40.047607 -16.603752 -23.15229
-38.797283 -14.497244 -21.392887
-39.584538 -14.53852 -23.124645
-40.177887 -14.54721 -24.79561
-40.305733 -12.633281 -26.354979
-40.407566 -10.783236 -27.830948
-40.786682 -10.746344 -29.303556
-36.960201 7.395923 -37.922604
-25.647238 21.422688 -41.238075
-26.92244 21.648134 -43.735085
-28.065968 21.849871 -46.215202
-25.762539 24.970205 -49.233505
-27.560192 23.405191 -49.079578
-29.276018 21.705935 -48.534332
-38.860468 -32.982452 -9.924408
-38.685721 -33.90693 -8.727607
-38.901624 -31.842337 -10.075839
-38.989159 -32.001512 -11.031914
-38.860468 -32.982452 -9.924408
-24.732997 11.75274 -27.579301
-25.442963 10.921567 -27.578398
-24.013622 12.636768 -27.652457
-24.808215 12.74351 -28.699714
-24.732997 11.75274 -27.579301
-37.592803 -30.692777 -1.018253
-37.395271 -30.328688 -0.167051
-37.303797 -29.725602 -1.247054
-37.554794 -25.106843 -10.073246
-37.570502 -25.953207 -9.11441
-37.559357 -24.173621 -11.012134
-37.948735 -25.20735 -10.98173
-37.554794 -25.106843 -10.073246
-37.550647 -17.691116 -16.674681
-37.007418 -17.647602 -15.8161
-37.04281 -16.633445 -16.678283
-39.560693 -2.296882 -32.695343
-39.859834 -3.333326 -32.498212
-39.539524 -3.051448 -31.805062
-23.825283 25.636371 -46.56015
-24.147053 24.807891 -45.278391
-38.415114 -35.057882 -5.670217
-38.403827 -35.423383 -6.539184
-36.334888 -7.947997 -22.188981
-36.904117 -7.879087 -23.031185
-36.807083 -8.848842 -22.180059
-34.134733 -4.566045 -22.206525
-34.863987 -4.472335 -23.084423
-36.364303 -27.147401 -2.627383
-36.523909 -27.712613 -1.59638
-36.678968 -27.435889 -3.40397
-36.364303 -27.147401 -2.627383
-36.202915 -13.837816 -17.600278
-36.049245 -14.746619 -16.670061
-36.318741 -12.872492 -18.506583
-36.814083 -13.793905 -18.487718
-36.202915 -13.837816 -17.600278
-36.682626 -9.862247 -21.255591
-36.548482 -10.8732 -20.323863
-36.807083 -8.848842 -22.180059
-37.251855 -9.793337 -22.097794
-36.682626 -9.862247 -21.255591
-40.333954 -26.668603 -21.036492
-40.195215 -27.711143 -20.067387
-40.258028 -26.529015 -20.152981
-40.473483 -25.594158 -21.936422
-40.333954 -26.668603 -21.036492
-40.511902 -24.387466 -22.047986
-40.473483 -25.594158 -21.936422
-38.268862 4.155968 -36.811008
-38.269768 3.351716 -35.734381
-37.851439 4.448023 -36.040339
-38.275904 4.862747 -37.932926
-38.268862 4.155968 -36.811008
-35.655404 13.727266 -47.08371
-34.979233 14.909737 -47.522147
-32.927049 17.937544 -48.628519
-32.185726 18.906807 -48.948679
-31.996253 0.802178 -24.466624
-31.382103 1.550815 -24.533459
-32.850691 0.920917 -25.401753
-32.617528 -0.017743 -24.379925
-31.996253 0.802178 -24.466624
-27.608907 8.380295 -27.281385
-28.328785 7.498355 -27.144207
-21.907074 15.576538 -27.788274
-22.612181 14.54196 -27.776438
-22.143687 18.305543 -31.277515
-22.137622 17.365979 -30.148542
-22.92253 18.261454 -32.506236
-22.143687 18.305543 -31.277515
-37.80858 -31.837437 3.12098
-37.640047 -31.362993 1.991808
-38.002071 -32.839359 3.446026
-37.80858 -31.837437 3.12098
-38.023823 -33.390465 2.602062
-38.002071 -32.839359 3.446026
-36.81712 -20.417696 -13.060334
-36.87764 -19.500056 -14.013256
-37.269943 -21.374561 -13.01738
-36.81712 -20.417696 -13.060334
-37.716198 -21.520167 -13.903589
-37.657627 -22.391226 -12.981686
-37.269943 -21.374561 -13.01738
-40.86531 -12.543608 -28.718196
-40.838218 -13.611328 -27.999327
-40.758459 -11.66962 -28.637142
-40.893534 -11.620332 -29.38461
-40.86531 -12.543608 -28.718196
-40.490986 -6.494393 -31.65952
-40.666184 -7.46521 -31.435219
-40.447007 -6.974043 -30.931852
-39.655678 -0.945723 -34.639717
-39.379404 0.159384 -34.965961
-37.406445 7.794672 -39.901075
-37.318861 8.593452 -41.123901
-24.803562 22.238354 -41.274584
-24.919561 21.368476 -39.988741
-29.386859 22.37733 -51.169562
-29.753677 21.614757 -49.731161
-28.909201 22.468508 -49.972732
-39.997656 -27.46658 -18.247962
-39.949482 -28.679692 -18.116346
-39.827849 -28.574716 -17.180433
-39.112573 -32.192693 -12.005325
-39.153554 -32.462072 -12.878082
-39.15373 -31.052578 -12.156757
-39.112573 -32.192693 -12.005325
-38.989159 -32.001512 -11.031914
-31.407362 19.806242 -49.188009
-32.185726 18.906807 -48.948679
-31.70758 19.093754 -47.85746
-31.540602 2.508674 -25.518512
-31.382103 1.550815 -24.533459
-31.715054 3.46902 -26.554352
-32.403868 2.701184 -26.524291
-31.540602 2.508674 -25.518512
-31.871242 4.462709 -27.621221
-31.715054 3.46902 -26.554352
-31.987637 5.497528 -28.740172
-32.694716 4.69635 -28.679081
-31.871242 4.462709 -27.621221
-31.3473 6.29254 -28.881939
-32.170774 6.526181 -29.939799
-31.987637 5.497528 -28.740172
-30.704374 7.192203 -29.137636
-31.3473 6.29254 -28.881939
-30.044553 8.006577 -29.318846
-30.870616 8.135566 -30.262777
-30.704374 7.192203 -29.137636
-26.209595 10.021631 -27.476773
-26.88863 9.163362 -27.352359
-26.294221 10.959547 -28.524932
-26.209595 10.021631 -27.476773
-25.442963 10.921567 -27.578398
-37.537076 -30.828963 0.884781
-37.395271 -30.328688 -0.167051
-37.787249 -31.829892 1.168777
-37.640047 -31.362993 1.991808
-37.537076 -30.828963 0.884781
-37.555262 -26.833911 -8.089727
-37.595582 -27.671202 -7.055399
-37.237152 -26.603132 -7.151649
-37.928932 -27.021276 -9.018159
-37.555262 -26.833911 -8.089727
-37.570502 -25.953207 -9.11441
-36.97101 -18.600942 -14.949863
-37.007418 -17.647602 -15.8161
-37.421885 -19.604388 -14.875891
-36.87764 -19.500056 -14.013256
-36.97101 -18.600942 -14.949863
-40.854496 -18.846404 -25.747414
-40.774695 -19.994664 -24.828272
-40.915818 -17.799377 -26.555354
-40.854496 -18.846404 -25.747414
-40.797528 -17.797626 -25.713722
-40.97243 -16.653154 -27.39308
-40.915818 -17.799377 -26.555354
-40.902525 -15.690179 -27.274794
-40.97243 -16.653154 -27.39308
-40.788196 -14.628907 -27.222708
-40.902525 -15.690179 -27.274794
-40.744521 -15.689326 -26.469577
-40.680214 -13.610475 -27.19411
-40.838218 -13.611328 -27.999327
-40.788196 -14.628907 -27.222708
-40.109581 -4.483594 -32.214074
-40.326153 -5.441261 -31.988185
-40.055237 -5.045559 -31.382042
-40.109581 -4.483594 -32.214074
-39.859834 -3.333326 -32.498212
-37.229973 9.409589 -42.437912
-37.318861 8.593452 -41.123901
-36.797503 9.764408 -41.553318
-24.454456 23.95836 -43.969044
-24.623116 23.14875 -42.677761
-24.978943 24.09301 -45.353777
-24.454456 23.95836 -43.969044
-24.147053 24.807891 -45.278391
-26.1771 25.595093 -53.055239
-25.801052 25.663274 -51.804149
-25.277835 26.343905 -53.110071
-27.090021 24.801697 -52.888195
-26.1771 25.595093 -53.055239
-28.011054 23.960006 -52.719103
-27.62135 24.072772 -51.580225
-27.090021 24.801697 -52.888195
-28.900026 23.111688 -52.541912
-28.011054 23.960006 -52.719103
-38.565073 -34.629008 -7.62399
-38.403827 -35.423383 -6.539184
-38.652287 -33.545355 -7.864715
-38.685721 -33.90693 -8.727607
-38.565073 -34.629008 -7.62399
-35.742859 -7.055207 -22.135684
-36.334888 -7.947997 -22.188981
-35.933882 -6.13475 -23.060434
-35.742859 -7.055207 -22.135684
-36.072133 -5.201782 -23.954364
-36.570173 -6.045274 -23.934036
-35.933882 -6.13475 -23.060434
-35.571573 -4.32145 -24.001413
-36.207865 -4.231973 -24.875014
-36.072133 -5.201782 -23.954364
-34.999719 -3.502527 -24.005074
-35.571573 -4.32145 -24.001413
-34.863987 -4.472335 -23.084423
-36.948513 -28.717712 -1.413848
-36.523909 -27.712613 -1.59638
-37.146044 -29.081801 -2.26505
-37.303797 -29.725602 -1.247054
-36.948513 -28.717712 -1.413848
-36.955494 -27.809493 -4.197819
-37.067285 -28.447516 -3.225693
-36.678968 -27.435889 -3.40397
-36.922325 -27.119143 -5.246708
-37.310642 -28.130772 -5.068431
-36.955494 -27.809493 -4.197819
-36.852718 -26.428311 -6.232596
-36.922325 -27.119143 -5.246708
-37.237152 -26.603132 -7.151649
-36.852718 -26.428311 -6.232596
-36.598918 -15.67458 -16.700558
-36.049245 -14.746619 -16.670061
-37.142148 -15.718094 -17.559138
-37.04281 -16.633445 -16.678283
-36.598918 -15.67458 -16.700558
-36.449737 -11.88412 -19.434211
-36.318741 -12.872492 -18.506583
-37.028654 -11.817661 -20.283674
-36.449737 -11.88412 -19.434211
-36.548482 -10.8732 -20.323863
-40.014921 -28.813443 -19.01032
-39.949482 -28.679692 -18.116346
-40.014921 -28.813443 -19.01032
-40.195215 -27.711143 -20.067387
-40.498108 -23.279612 -22.085031
-40.511902 -24.387466 -22.047986
-40.382973 -24.37862 -21.159132
-40.596149 -22.157488 -23.019151
-40.498108 -23.279612 -22.085031
-40.46722 -22.148642 -22.130297
-40.689222 -21.085597 -23.907589
-40.596149 -22.157488 -23.019151
-40.650734 -19.935585 -23.9851
-40.774695 -19.994664 -24.828272
-40.689222 -21.085597 -23.907589
-39.037075 1.149417 -35.156774
-39.379404 0.159384 -34.965961
-38.980791 0.559065 -34.182699
-38.662826 2.30438 -35.439281
-38.245403 2.596434 -34.668611
-38.269768 3.351716 -35.734381
-39.037075 1.149417 -35.156774
-38.662826 2.30438 -35.439281
-35.885804 13.00585 -45.767367
-36.077427 12.215944 -44.453312
-35.432057 13.368194 -44.803111
-35.885804 13.00585 -45.767367
-35.655404 13.727266 -47.08371
-23.113996 27.106392 -49.084333
-23.48591 26.382362 -47.862054
-23.574158 27.085107 -50.445114
-23.113996 27.106392 -49.084333
-24.028654 27.073888 -51.741138
-24.447291 26.423305 -50.562957
-23.574158 27.085107 -50.445114
-24.329564 27.076555 -53.031216
-24.028654 27.073888 -51.741138
-25.277835 26.343905 -53.110071
-24.329564 27.076555 -53.031216
-39.335275 -31.583554 -13.955615
-39.153554 -32.462072 -12.878082
-39.488173 -30.682474 -15.010729
-39.335275 -31.583554 -13.955615
-39.430042 -30.342679 -14.185282
-39.681307 -29.614713 -16.144607
-39.488173 -30.682474 -15.010729
-39.729481 -28.401602 -16.276222
-39.827849 -28.574716 -17.180433
-39.681307 -29.614713 -16.144607
-34.308515 15.976162 -47.957521
-34.979233 14.909737 -47.522147
-34.569716 15.224524 -46.55254
-33.633577 16.985859 -48.313412
-33.19247 17.242634 -47.303022
-32.927049 17.937544 -48.628519
-34.308515 15.976162 -47.957521
-33.633577 16.985859 -48.313412
-24.308684 20.365225 -37.499943
-23.604999 20.279697 -36.213934
-40.580798 -8.601282 -30.00627
-40.72159 -8.678241 -30.536144
-40.680183 -9.334663 -29.834865
-33.539829 -3.73705 -22.258653
-34.134733 -4.566045 -22.206525
-33.703125 -2.732623 -23.227906
-33.539829 -3.73705 -22.258653
-33.877358 -1.756571 -24.201763
-34.466365 -2.677359 -24.06194
-33.703125 -2.732623 -23.227906
-33.293042 -0.855419 -24.341392
-32.617528 -0.017743 -24.379925
-34.056282 -0.800155 -25.175425
-33.877358 -1.756571 -24.201763
-33.293042 -0.855419 -24.341392
-29.189858 7.778347 -28.237532
-28.328785 7.498355 -27.144207
-29.356101 8.721709 -29.362673
-30.044553 8.006577 -29.318846
-29.189858 7.778347 -28.237532
-27.781129 9.276546 -28.352333
-27.608907 8.380295 -27.281385
-26.88863 9.163362 -27.352359
-23.29824 13.63102 -27.7181
-24.013622 12.636768 -27.652457
-23.402781 14.538477 -28.831208
-23.29824 13.63102 -27.7181
-22.612181 14.54196 -27.776438
-22.038301 16.426177 -28.929404
-21.907074 15.576538 -27.788274
-22.816043 16.389219 -30.108685
-22.038301 16.426177 -28.929404
-22.137622 17.365979 -30.148542
-23.681621 18.301731 -33.642345
-23.674456 17.369297 -32.463934
-22.92253 18.261454 -32.506236
-23.677589 19.305036 -34.972563
-24.429516 18.412879 -34.930262
-23.681621 18.301731 -33.642345
-23.604999 20.279697 -36.213934
-23.677589 19.305036 -34.972563
-38.105341 -33.886608 1.779701
-38.023823 -33.390465 2.602062
-37.971739 -32.860066 1.453443
-38.164183 -34.960211 2.094721
-38.105341 -33.886608 1.779701
-38.112099 -34.429811 0.946103
-38.171505 -36.024872 2.449836
-38.164183 -34.960211 2.094721
-38.104147 -36.565447 1.618766
-38.171505 -36.024872 2.449836
-38.092976 -36.979668 0.755632
-38.104147 -36.565447 1.618766
-38.159769 -35.917635 0.39799
-38.007952 -37.42891 -0.138637
-38.092976 -36.979668 0.755632
-38.116918 -36.747221 -1.325102
-38.007952 -37.42891 -0.138637
-38.171438 -36.118063 -2.457202
-38.116918 -36.747221 -1.325102
-38.203118 -35.702698 -1.597242
-38.278113 -35.460936 -3.654339
-38.171438 -36.118063 -2.457202
-38.341498 -34.830213 -4.718871
-38.278113 -35.460936 -3.654339
-38.321022 -34.442818 -3.793874
-38.458023 -34.039764 -5.809752
-38.415114 -35.057882 -5.670217
-38.341498 -34.830213 -4.718871
-37.582335 -23.259875 -12.008046
-37.559357 -24.173621 -11.012134
-38.028589 -23.405479 -12.894256
-37.582335 -23.259875 -12.008046
-37.657627 -22.391226 -12.981686
-40.680183 -9.334663 -29.834865
-40.803829 -10.078983 -29.834147
-40.663037 -10.002025 -29.304274
-40.89703 -10.680864 -29.988902
-40.893534 -11.620332 -29.38461
-40.803829 -10.078983 -29.834147
-40.89703 -10.680864 -29.988902
-40.77256 -8.388434 -31.13796
-40.72159 -8.678241 -30.536144
-40.77256 -8.388434 -31.13796
-40.666184 -7.46521 -31.435219
-40.490986 -6.494393 -31.65952
-40.326153 -5.441261 -31.988185
-39.602062 -1.504863 -33.69019
-39.560693 -2.296882 -32.695343
-39.281751 -1.222985 -32.997039
-39.602062 -1.504863 -33.69019
-39.655678 -0.945723 -34.639717
-37.443349 7.018498 -38.742723
-36.923296 8.172097 -39.080956
-37.406445 7.794672 -39.901075
-37.888515 5.946674 -38.339905
-37.405367 6.324098 -37.519785
-37.443349 7.018498 -38.742723
-38.275904 4.862747 -37.932926
-37.888515 5.946674 -38.339905
-36.619894 11.217073 -44.142449
-36.166147 11.579416 -43.178192
-36.077427 12.215944 -44.453312
-37.128068 10.113393 -43.740135
-36.619894 11.217073 -44.142449
-37.229973 9.409589 -42.437912
-37.128068 10.113393 -43.740135
-25.012437 20.447961 -38.642043
-25.129238 19.498921 -37.402578
-24.308684 20.365225 -37.499943
-25.740115 20.502173 -39.891376
-25.012437 20.447961 -38.642043
-24.919561 21.368476 -39.988741
-25.466792 22.333084 -42.641253
-24.803562 22.238354 -41.274584
-24.623116 23.14875 -42.677761
-24.332169 25.688532 -47.965029
-23.825283 25.636371 -46.56015
-23.48591 26.382362 -47.862054
-30.580275 20.758384 -49.51239
-30.102617 20.849562 -48.315561
-29.753677 21.614757 -49.731161
-31.407362 19.806242 -49.188009
-30.580275 20.758384 -49.51239
-29.386859 22.37733 -51.169562
-28.900026 23.111688 -52.541912
3 0 53 51
3 2 56 54
3 2 58 56
3 1 61 59
3 3 204 205
3 3 206 208
3 206 63 207
3 206 207 208
3 4 66 64
3 6 69 67
3 6 71 69
3 7 74 72
3 9 77 75
3 9 79 77
3 209 83 210
3 211 85 212
3 213 212 83
3 211 212 213
3 10 214 216
3 214 86 215
3 214 215 216
3 10 88 86
3 10 90 88
3 217 92 218
3 219 94 220
3 221 220 92
3 219 220 221
3 11 222 224
3 222 95 223
3 222 223 224
3 11 97 95
3 11 99 97
3 7 102 100
3 7 72 102
3 12 105 104
3 12 106 105
3 8 225 227
3 227 226 107
3 225 226 227
3 5 110 108
3 228 112 229
3 230 114 231
3 13 117 115
3 15 118 52
3 15 119 118
3 232 122 233
3 234 233 120
3 232 233 234
3 235 123 236
3 237 124 238
3 240 239 124
3 241 126 242
3 243 128 244
3 245 244 126
3 243 244 245
3 246 129 247
3 248 120 249
3 250 249 129
3 248 249 250
3 19 251 253
3 253 252 55
3 251 252 253
3 19 254 255
3 19 256 257
3 20 130 57
3 20 131 130
3 21 134 132
3 22 258 260
3 260 259 60
3 258 259 260
3 22 261 262
3 264 263 135
3 24 137 62
3 24 138 137
3 25 141 139
3 27 142 65
3 27 143 142
3 14 144 116
3 28 145 68
3 28 146 145
3 28 147 146
3 266 265 70
3 29 150 148
3 31 151 73
3 31 152 151
3 16 153 121
3 32 154 76
3 32 155 154
3 32 156 155
3 33 157 78
3 33 158 157
3 34 267 268
3 34 269 271
3 269 159 270
3 269 270 271
3 34 160 159
3 35 161 80
3 35 162 161
3 35 163 162
3 36 164 81
3 36 165 164
3 272 166 273
3 37 167 82
3 37 168 167
3 37 169 168
3 38 170 84
3 38 171 170
3 274 172 275
3 276 173 277
3 279 278 173
3 39 280 281
3 39 282 283
3 39 284 285
3 40 174 87
3 40 175 174
3 40 176 175
3 41 177 89
3 41 178 177
3 17 179 125
3 42 180 91
3 42 181 180
3 42 182 181
3 43 183 93
3 43 184 183
3 44 286 287
3 44 288 289
3 44 290 292
3 290 185 291
3 290 291 292
3 45 186 96
3 45 187 186
3 45 188 187
3 46 189 98
3 46 190 189
3 18 191 127
3 47 192 101
3 47 193 192
3 47 194 193
3 29 195 103
3 29 148 195
3 48 293 294
3 48 295 297
3 295 196 296
3 295 296 297
3 30 298 300
3 300 299 149
3 298 299 300
3 302 301 133
3 26 197 140
3 304 303 109
3 305 198 306
3 49 199 111
3 49 200 199
3 23 201 136
3 50 202 113
3 50 203 202
3 50 307 309
3 309 308 203
3 307 308 309
3 51 52 13
3 53 52 51
3 53 15 52
3 54 310 312
3 310 55 311
3 310 311 312
3 56 55 54
3 56 19 55
3 56 57 19
3 58 57 56
3 58 20 57
3 59 60 21
3 61 60 59
3 61 22 60
3 313 62 314
3 63 315 317
3 315 62 316
3 315 316 317
3 63 24 62
3 64 65 25
3 66 65 64
3 66 27 65
3 67 68 14
3 69 68 67
3 69 28 68
3 69 70 28
3 71 70 69
3 71 318 320
3 320 319 70
3 318 319 320
3 72 73 29
3 74 73 72
3 74 31 73
3 75 76 16
3 77 76 75
3 77 32 76
3 77 78 32
3 79 78 77
3 79 33 78
3 321 34 322
3 323 80 324
3 325 324 34
3 323 324 325
3 326 80 327
3 328 35 329
3 330 329 80
3 328 329 330
3 331 81 332
3 333 332 35
3 331 332 333
3 334 81 335
3 336 36 337
3 338 337 81
3 336 337 338
3 339 82 340
3 83 341 343
3 341 82 342
3 341 342 343
3 83 37 82
3 83 84 37
3 85 84 83
3 85 38 84
3 86 344 345
3 86 346 348
3 346 39 347
3 346 347 348
3 86 87 39
3 88 87 86
3 88 40 87
3 88 89 40
3 90 89 88
3 90 41 89
3 349 91 350
3 351 350 17
3 349 350 351
3 92 352 354
3 352 91 353
3 352 353 354
3 92 42 91
3 92 93 42
3 94 93 92
3 94 43 93
3 95 355 356
3 95 357 359
3 357 44 358
3 357 358 359
3 95 96 44
3 97 96 95
3 97 45 96
3 97 98 45
3 99 98 97
3 99 46 98
3 100 101 18
3 102 101 100
3 102 47 101
3 102 103 47
3 72 103 102
3 72 29 103
3 104 360 361
3 105 362 364
3 364 363 104
3 362 363 364
3 105 365 366
3 105 367 368
3 106 369 371
3 371 370 105
3 369 370 371
3 106 372 374
3 372 48 373
3 372 373 374
3 107 375 377
3 377 376 30
3 375 376 377
3 379 378 107
3 108 109 26
3 110 109 108
3 110 380 382
3 382 381 109
3 380 381 382
3 383 111 384
3 112 385 387
3 385 111 386
3 385 386 387
3 112 49 111
3 388 113 389
3 390 389 23
3 388 389 390
3 391 113 392
3 393 50 394
3 395 394 113
3 393 394 395
3 397 396 50
3 114 398 399
3 114 400 402
3 400 3 401
3 400 401 402
3 115 116 4
3 117 116 115
3 117 14 116
3 52 117 13
3 118 117 52
3 118 14 117
3 118 67 14
3 119 67 118
3 119 6 67
3 120 121 7
3 122 121 120
3 122 16 121
3 403 122 404
3 405 122 406
3 407 16 408
3 409 408 122
3 407 408 409
3 410 75 411
3 412 411 16
3 410 411 412
3 123 413 415
3 413 75 414
3 413 414 415
3 123 9 75
3 124 416 417
3 124 418 420
3 418 10 419
3 418 419 420
3 124 125 10
3 421 125 422
3 423 422 124
3 421 422 423
3 424 17 425
3 426 425 125
3 424 425 426
3 427 17 428
3 430 429 17
3 126 431 432
3 126 433 435
3 433 11 434
3 433 434 435
3 126 127 11
3 128 127 126
3 128 18 127
3 436 128 437
3 129 438 440
3 438 128 439
3 438 439 440
3 129 18 128
3 129 100 18
3 120 100 129
3 120 7 100
3 55 441 442
3 444 443 55
3 57 445 447
3 447 446 19
3 445 446 447
3 130 448 450
3 450 449 57
3 448 449 450
3 130 451 452
3 130 453 455
3 453 104 454
3 453 454 455
3 131 104 130
3 131 12 104
3 132 133 8
3 134 133 132
3 134 456 458
3 458 457 133
3 456 457 458
3 60 134 21
3 459 134 460
3 461 460 60
3 459 460 461
3 463 462 134
3 135 464 466
3 466 465 5
3 464 465 466
3 468 467 135
3 469 136 470
3 471 136 472
3 473 23 474
3 475 474 136
3 473 474 475
3 476 23 477
3 479 478 23
3 62 480 481
3 137 482 484
3 484 483 62
3 482 483 484
3 137 485 486
3 137 487 489
3 487 54 488
3 487 488 489
3 138 54 137
3 138 2 54
3 139 140 1
3 141 140 139
3 141 26 140
3 65 141 25
3 142 141 65
3 142 26 141
3 142 108 26
3 143 108 142
3 143 5 108
3 116 66 4
3 144 66 116
3 144 27 66
3 68 144 14
3 145 144 68
3 145 27 144
3 145 143 27
3 146 143 145
3 146 5 143
3 146 135 5
3 147 135 146
3 147 490 492
3 492 491 135
3 490 491 492
3 70 147 28
3 493 147 494
3 495 494 70
3 493 494 495
3 497 496 147
3 499 498 0
3 148 500 502
3 500 149 501
3 500 501 502
3 150 149 148
3 150 30 149
3 73 150 29
3 151 150 73
3 151 30 150
3 151 107 30
3 152 107 151
3 152 8 107
3 121 74 7
3 153 74 121
3 153 31 74
3 76 153 16
3 154 153 76
3 154 31 153
3 154 152 31
3 155 152 154
3 155 8 152
3 155 132 8
3 156 132 155
3 156 21 132
3 78 156 32
3 157 156 78
3 157 21 156
3 157 59 21
3 158 59 157
3 158 1 59
3 503 123 504
3 505 123 506
3 507 9 508
3 509 508 123
3 507 508 509
3 159 510 511
3 159 512 514
3 512 9 513
3 512 513 514
3 159 79 9
3 160 79 159
3 160 33 79
3 80 160 34
3 161 160 80
3 161 33 160
3 161 158 33
3 162 158 161
3 162 1 158
3 162 139 1
3 163 139 162
3 163 25 139
3 81 163 35
3 164 163 81
3 164 25 163
3 164 64 25
3 165 64 164
3 165 4 64
3 166 515 516
3 166 517 519
3 517 36 518
3 517 518 519
3 82 520 522
3 520 166 521
3 520 521 522
3 167 166 82
3 167 36 166
3 167 165 36
3 168 165 167
3 168 4 165
3 168 115 4
3 169 115 168
3 169 13 115
3 84 169 37
3 170 169 84
3 170 13 169
3 170 51 13
3 171 51 170
3 171 0 51
3 523 85 524
3 172 525 527
3 525 85 526
3 525 526 527
3 172 38 85
3 528 172 529
3 173 530 532
3 530 172 531
3 530 531 532
3 173 38 172
3 173 171 38
3 533 171 534
3 535 534 173
3 533 534 535
3 536 0 537
3 538 537 171
3 536 537 538
3 540 539 0
3 87 541 543
3 543 542 39
3 541 542 543
3 174 544 546
3 546 545 87
3 544 545 546
3 174 547 548
3 174 549 550
3 175 551 553
3 553 552 174
3 551 552 553
3 175 554 555
3 175 556 557
3 176 558 560
3 560 559 175
3 558 559 560
3 176 561 562
3 89 176 40
3 177 176 89
3 177 563 565
3 565 564 176
3 563 564 565
3 177 566 568
3 566 114 567
3 566 567 568
3 178 114 177
3 178 3 114
3 125 90 10
3 179 90 125
3 179 41 90
3 91 179 17
3 180 179 91
3 180 41 179
3 180 178 41
3 181 178 180
3 181 3 178
3 181 63 3
3 182 63 181
3 182 24 63
3 93 182 42
3 183 182 93
3 183 24 182
3 183 138 24
3 184 138 183
3 184 2 138
3 569 94 570
3 185 571 573
3 571 94 572
3 571 572 573
3 185 43 94
3 96 185 44
3 186 185 96
3 186 43 185
3 186 184 43
3 187 184 186
3 187 2 184
3 187 58 2
3 188 58 187
3 188 20 58
3 98 188 45
3 189 188 98
3 189 20 188
3 189 131 20
3 190 131 189
3 190 12 131
3 127 99 11
3 191 99 127
3 191 46 99
3 101 191 18
3 192 191 101
3 192 46 191
3 192 190 46
3 193 190 192
3 193 12 190
3 193 106 12
3 194 106 193
3 194 48 106
3 103 194 47
3 195 194 103
3 195 48 194
3 195 196 48
3 148 196 195
3 148 574 576
3 576 575 196
3 574 575 576
3 196 577 578
3 196 579 580
3 149 581 582
3 584 583 149
3 586 585 30
3 133 587 589
3 589 588 8
3 587 588 589
3 591 590 133
3 140 61 1
3 197 61 140
3 197 22 61
3 109 197 26
3 592 197 593
3 594 593 109
3 592 593 594
3 595 22 596
3 597 596 197
3 595 596 597
3 599 598 22
3 600 110 601
3 602 601 5
3 600 601 602
3 603 110 604
3 606 605 110
3 607 53 608
3 609 608 0
3 607 608 609
3 198 610 612
3 610 53 611
3 610 611 612
3 198 15 53
3 111 613 615
3 613 198 614
3 613 614 615
3 199 198 111
3 199 15 198
3 199 119 15
3 200 119 199
3 200 6 119
3 136 616 618
3 616 112 617
3 616 617 618
3 201 112 136
3 201 49 112
3 113 201 23
3 202 201 113
3 202 49 201
3 202 200 49
3 203 200 202
3 203 6 200
3 203 71 6
3 619 71 620
3 621 620 203
3 619 620 621
3 623 622 71
3 625 624 50
