ply
format ascii 1.0
element vertex 497
property float x
property float y
property float z
element face 540
property list uchar int vertex_index
end_header
7.079351 53.219219 -43.752502
13.501556 38.421734 -31.474936
4.524652 45.870422 -51.033966
11.195627 47.344051 -37.70937
10.278909 43.411259 -47.006283
14.753637 37.472233 -41.211712
13.67175 27.895699 -18.814072
14.912522 27.145908 -13.550119
12.320109 50.849705 -29.577995
13.085152 39.913818 -23.335815
2.547865 50.815121 -49.416855
5.678085 49.859959 -47.443665
12.51213 43.311134 -34.526249
12.694709 41.893986 -39.316936
14.112998 37.87606 -36.165794
13.709452 33.954002 -17.791292
14.030133 27.68243 -15.970418
14.633996 33.832996 -15.24724
11.44636 55.403679 -32.980465
12.78918 57.141319 -29.257292
13.519922 46.53767 -22.840754
13.568707 40.304974 -20.181709
13.306085 34.046883 -20.892105
-0.016295 41.389221 -54.516262
12.59774 39.734653 -49.370541
9.624811 41.331745 -51.713696
14.157102 33.422016 -28.408224
1.197873 46.1502 -52.164555
3.286331 42.012886 -54.213032
9.456373 50.518021 -40.802959
8.445346 47.990509 -45.073193
10.754557 45.409679 -42.31078
12.710616 40.868866 -44.33905
8.444037 56.622944 -40.077496
10.353768 53.217663 -36.809429
11.673503 49.071606 -33.52227
12.545908 44.287266 -30.171745
13.305892 52.13522 -25.936878
12.793027 45.591999 -26.41678
13.097261 39.026192 -27.194925
13.483118 33.680874 -24.39291
13.898439 28.210323 -22.114229
7.50898 45.082863 -49.285118
6.429564 42.011696 -53.356174
5.707916 54.519516 -44.999008
5.001066 52.388859 -46.744396
6.41874 51.620022 -45.534763
13.051982 40.908585 -33.058899
13.222508 40.48901 -35.315857
13.745407 38.281487 -33.750843
14.024439 37.177952 -17.568159
14.081804 33.776695 -16.498722
14.557769 37.016663 -16.251987
14.000788 43.633606 -19.9786
14.000315 40.540554 -18.764048
13.614765 37.237362 -19.005957
1.047975 39.422447 -55.68964
3.552162 48.393097 -50.027988
1.98478 48.49073 -50.779663
2.878182 46.250477 -51.574654
2.185599 44.054649 -53.053989
3.775328 43.984558 -52.704578
10.410015 48.865124 -39.333252
10.025327 47.871605 -41.544857
11.017369 46.19891 -40.058113
13.597275 39.701786 -40.23275
12.679545 41.495243 -41.716728
13.775928 39.296471 -42.827259
13.857929 38.983917 -45.433525
14.963898 37.403446 -43.979111
13.992917 25.258516 -19.420515
13.983003 24.938477 -17.911606
14.413662 27.303732 -14.695873
9.475037 55.008862 -38.461536
11.940031 53.053131 -31.266325
11.513338 52.152477 -33.057381
11.971468 49.855591 -31.454344
12.158311 46.828617 -31.764126
12.342095 47.666908 -29.722593
13.191743 43.185295 -23.10483
13.08612 46.094166 -24.625647
12.952221 42.782806 -24.904093
12.842831 42.257931 -26.730568
13.033535 39.306168 -25.194252
13.298717 36.382107 -25.751148
13.174754 36.724144 -23.8939
13.448314 31.084757 -19.836517
13.499709 30.885698 -21.448067
13.702745 28.073009 -20.35244
9.34791 45.623825 -45.851059
7.931114 46.618904 -47.215084
8.950401 44.399063 -48.139172
8.03511 41.830597 -52.555729
7.583994 40.459362 -54.631912
5.906688 40.485771 -55.13279
3.355834 53.122074 -47.871307
4.180923 50.422276 -48.486404
5.107872 47.787689 -49.309052
11.909719 45.354458 -36.201923
11.863657 44.54018 -38.366383
12.605894 42.55164 -36.827606
13.473065 39.925804 -37.71941
14.408243 37.745361 -38.713966
13.572618 30.777111 -18.271828
13.793329 27.625618 -17.288006
13.821352 30.66926 -16.865604
14.228806 30.786993 -15.532023
14.744718 30.535023 -14.345993
12.083695 56.507374 -31.136007
12.479255 54.114399 -29.418653
13.996055 49.674023 -22.688522
14.037299 46.763893 -21.237043
13.546597 43.51091 -21.481443
13.284135 40.110252 -21.601994
13.189446 36.950405 -22.125866
13.334272 37.024239 -20.501499
13.44189 33.943466 -19.247715
-1.108314 43.656319 -53.496468
11.314211 41.552402 -48.12801
9.949978 42.393517 -49.420147
11.093491 40.729912 -50.544327
13.881401 35.831997 -29.9254
14.265712 35.725758 -32.272511
-0.499456 46.1339 -52.50248
0.551196 43.646591 -53.465019
1.639277 41.785622 -54.41877
2.628823 39.942478 -55.657734
8.337428 52.025585 -42.27478
7.8072 50.463821 -44.219887
8.971174 49.22678 -42.94849
9.695312 46.759819 -43.682739
10.58864 44.338852 -44.620419
11.755322 43.836269 -40.760864
11.690456 43.031929 -43.130093
11.587182 42.231335 -45.594341
12.686348 40.303417 -46.844608
13.911024 38.623821 -48.029079
14.708333 35.613155 -34.691128
15.190147 35.565742 -37.361382
15.617129 35.519581 -39.741993
16.911438 33.675224 -40.91074
15.9643 35.639397 -42.453217
14.102258 24.637968 -16.50844
15.517015 26.530586 -12.485919
7.778971 55.030754 -41.817986
8.90604 53.456989 -40.363434
9.912557 51.878822 -38.724007
10.723694 50.148697 -37.169743
10.911545 54.373573 -34.748657
11.093639 51.336597 -35.036572
11.414926 48.254848 -35.605137
12.010753 46.119595 -33.988762
12.53229 43.677353 -32.297432
12.941226 41.205299 -30.805103
13.123526 54.824585 -27.536762
12.774565 51.494774 -27.685867
13.404604 49.231842 -24.400188
12.960763 48.701199 -26.068371
12.605118 48.210068 -27.880659
12.60769 45.030544 -28.322273
12.838402 41.797192 -28.66954
13.247703 38.849426 -29.310736
13.505356 36.31636 -27.752357
13.763568 33.635963 -26.409342
14.006728 30.851791 -25.037498
13.326328 33.840443 -22.609909
13.684813 30.832005 -23.157097
7.114876 49.111855 -46.24007
6.618838 47.388573 -48.193325
6.055964 45.597881 -50.203308
8.464456 43.146034 -50.429066
6.974022 43.558678 -51.382603
5.405552 43.828838 -52.142864
4.869245 42.025818 -53.914089
4.238549 40.151749 -55.607819
14.566479 38.785927 -16.812998
14.291104 37.097307 -16.910073
14.299815 38.866571 -17.471083
14.287752 40.547872 -18.069028
14.279827 42.088873 -18.673223
14.299815 38.866571 -17.471083
14.012377 38.859253 -18.166103
14.287752 40.547872 -18.069028
0.797917 38.18131 -56.274938
1.567961 38.548872 -56.370653
14.804884 25.567313 -13.769588
14.555454 25.646225 -14.342465
14.663092 27.22482 -14.122996
15.042816 25.477832 -13.197716
14.804884 25.567313 -13.769588
8.152764 39.812123 -55.306486
8.397386 40.366383 -54.268332
7.310562 39.783343 -55.576813
8.152764 39.812123 -55.306486
3.810607 54.094948 -47.094053
2.986675 54.552257 -47.628843
12.436438 56.824347 -30.196649
12.207768 58.153477 -31.130371
12.56051 58.47045 -30.191014
14.3243 46.754133 -20.512394
14.356248 48.41955 -21.208125
-0.764506 41.116836 -54.518006
-1.310516 42.250386 -54.008108
-0.562304 42.52277 -54.006365
14.4156 33.296307 -29.522305
14.27775 34.501297 -30.280893
14.019251 34.627007 -29.166812
1.75507 50.923677 -49.787033
2.126383 52.151535 -49.137747
0.740468 47.344477 -51.771853
1.133922 48.514742 -51.079407
1.591327 47.320465 -51.472109
0.349208 46.14205 -52.333517
-0.108197 47.336327 -51.940815
0.740468 47.344477 -51.771853
14.473883 38.009445 -47.311352
13.884476 38.803869 -46.731302
14.447336 38.189493 -46.013575
14.571365 37.874513 -48.686607
14.473883 38.009445 -47.311352
14.938302 34.47326 -33.865095
14.487023 35.669456 -33.48182
14.716992 34.529562 -32.655787
15.773134 34.496172 -37.71883
15.45459 34.521416 -36.470179
15.986625 34.473091 -38.909136
15.403638 35.542662 -38.551687
15.773134 34.496172 -37.71883
17.099497 33.862827 -42.286718
17.583548 32.929161 -41.520859
16.625928 34.844914 -43.057957
16.437869 34.657311 -41.681978
17.099497 33.862827 -42.286718
16.138803 35.658726 -43.833855
16.625928 34.844914 -43.057957
15.875361 26.349202 -12.019732
15.771456 28.074978 -12.418518
15.642012 24.829974 -12.14287
15.875361 26.349202 -12.019732
7.860455 57.41542 -40.826223
8.332583 58.166392 -39.909843
8.111504 55.826849 -40.947741
7.527922 56.619326 -41.696468
7.860455 57.41542 -40.826223
11.178953 54.888626 -33.864561
10.860312 55.889404 -34.73238
11.12772 56.404457 -33.848284
13.214709 53.479902 -26.73682
13.459781 55.089872 -26.697981
13.550963 53.74519 -25.898039
14.068564 28.257216 -23.005403
13.961751 29.568056 -23.526837
13.791626 29.521164 -22.635663
14.196099 26.949548 -22.424397
14.068564 28.257216 -23.005403
4.795062 39.462273 -56.267092
5.072618 40.31876 -55.370305
5.629131 39.629284 -56.029578
3.959853 39.258885 -56.320633
4.795062 39.462273 -56.267092
5.354491 53.454188 -45.871702
4.633223 53.728341 -46.530597
4.986648 54.793669 -45.657904
12.963147 58.851215 -29.357564
12.56051 58.47045 -30.191014
14.280064 43.635399 -19.280499
14.306044 45.18899 -19.883173
14.000552 42.08708 -19.371324
14.280064 43.635399 -19.280499
14.279827 42.088873 -18.673223
0.296511 39.137769 -55.631475
-0.235625 40.121156 -55.044787
0.51584 40.405834 -55.102951
0.296511 39.137769 -55.631475
0.797917 38.18131 -56.274938
12.454311 39.465463 -50.679862
13.235992 38.984447 -50.04776
14.58118 32.082203 -28.779884
14.314646 32.077621 -27.725676
15.00032 37.399258 -45.286367
14.447336 38.189493 -46.013575
14.410913 38.193681 -44.706318
14.186107 23.95004 -19.051786
14.236065 24.182315 -19.793791
14.18115 23.79002 -18.297332
14.186107 23.95004 -19.051786
13.98796 25.098496 -18.666061
14.174774 23.641346 -17.587362
14.18115 23.79002 -18.297332
14.364529 25.895933 -14.986676
14.172764 26.085282 -15.623949
14.221898 27.493081 -15.333146
14.364529 25.895933 -14.986676
14.555454 25.646225 -14.342465
8.870888 57.303156 -39.084322
8.332583 58.166392 -39.909843
9.386388 56.496115 -38.276342
8.959537 55.815903 -39.269516
8.870888 57.303156 -39.084322
9.809207 55.710285 -37.482458
9.386388 56.496115 -38.276342
10.248573 54.814686 -36.656405
9.914403 54.113263 -37.635483
9.809207 55.710285 -37.482458
13.619749 52.31138 -25.059432
13.550963 53.74519 -25.898039
13.930813 26.830964 -20.723554
14.028661 26.899621 -21.604449
13.800592 28.141666 -21.233335
14.0759 25.423718 -20.257592
13.930813 26.830964 -20.723554
13.847831 26.665762 -19.886478
14.236065 24.182315 -19.793791
14.0759 25.423718 -20.257592
8.622943 41.052 -53.23024
8.82996 41.581171 -52.134712
9.417794 40.802574 -52.809224
7.809552 41.144979 -53.59382
8.622943 41.052 -53.23024
8.397386 40.366383 -54.268332
6.471909 39.796547 -55.827252
6.745341 40.472566 -54.882351
7.310562 39.783343 -55.576813
5.629131 39.629284 -56.029578
6.471909 39.796547 -55.827252
2.530367 53.305011 -48.364973
2.986675 54.552257 -47.628843
2.951849 51.968598 -48.644081
2.126383 52.151535 -49.137747
2.530367 53.305011 -48.364973
4.17845 52.755466 -47.307851
3.810607 54.094948 -47.094053
4.633223 53.728341 -46.530597
11.480759 57.020756 -32.965606
11.12772 56.404457 -33.848284
11.799426 57.572603 -32.043377
12.207768 58.153477 -31.130371
11.765028 55.955526 -32.058236
11.480759 57.020756 -32.965606
11.799426 57.572603 -32.043377
14.335625 49.874615 -21.933864
14.316116 51.369015 -22.702364
14.016677 48.218958 -21.962782
14.335625 49.874615 -21.933864
14.356248 48.41955 -21.208125
14.019044 45.19875 -20.607822
14.3243 46.754133 -20.512394
14.306044 45.18899 -19.883173
-1.887822 43.402859 -53.552304
-1.656972 44.840723 -53.108931
-1.887822 43.402859 -53.552304
-1.310516 42.250386 -54.008108
-0.764506 41.116836 -54.518006
-0.235625 40.121156 -55.044787
11.702186 39.963093 -51.266755
11.845616 40.232282 -49.957434
12.454311 39.465463 -50.679862
10.939019 40.322611 -51.714329
11.702186 39.963093 -51.266755
10.204679 40.623527 -52.299014
10.359151 41.030828 -51.129012
10.939019 40.322611 -51.714329
9.417794 40.802574 -52.809224
10.204679 40.623527 -52.299014
14.469905 34.448177 -31.454448
14.073557 35.778878 -31.098956
14.27775 34.501297 -30.280893
14.716992 34.529562 -32.655787
14.469905 34.448177 -31.454448
14.4156 33.296307 -29.522305
14.58118 32.082203 -28.779884
1.473527 49.761482 -50.468437
1.75507 50.923677 -49.787033
2.266322 49.652925 -50.098259
1.473527 49.761482 -50.468437
1.133922 48.514742 -51.079407
-0.955391 47.467825 -52.1139
-0.108197 47.336327 -51.940815
-1.352543 46.079513 -52.611937
-0.955391 47.467825 -52.1139
-0.803885 44.89511 -52.999474
-1.656972 44.840723 -53.108931
-1.352543 46.079513 -52.611937
2.358385 38.808887 -56.3547
1.567961 38.548872 -56.370653
1.838399 39.682462 -55.673687
13.892633 38.429031 -49.377029
13.235992 38.984447 -50.04776
13.254382 39.179237 -48.69981
13.892633 38.429031 -49.377029
14.571365 37.874513 -48.686607
15.213683 34.545122 -35.135052
14.938302 34.47326 -33.865095
14.94924 35.589449 -36.026255
15.213683 34.545122 -35.135052
15.45459 34.521416 -36.470179
17.29211 32.720066 -40.150955
17.583548 32.929161 -41.520859
16.63378 33.550912 -39.49351
17.29211 32.720066 -40.150955
16.264284 34.597403 -40.326366
15.986625 34.473091 -38.909136
16.63378 33.550912 -39.49351
15.638602 36.540751 -44.596802
15.464099 36.521422 -43.216164
16.138803 35.658726 -43.833855
15.00032 37.399258 -45.286367
15.638602 36.540751 -44.596802
14.234402 23.491091 -16.885779
14.174774 23.641346 -17.587362
14.042631 24.788222 -17.210023
14.208827 24.563051 -15.892959
14.066195 26.160199 -16.239429
14.172764 26.085282 -15.623949
14.30983 23.197501 -16.199632
14.208827 24.563051 -15.892959
14.234402 23.491091 -16.885779
14.30983 23.197501 -16.199632
14.902644 38.743235 -16.198338
14.566479 38.785927 -16.812998
14.88144 37.039639 -15.696206
14.902644 38.743235 -16.198338
14.919553 35.447805 -15.193832
14.595883 35.42483 -15.749613
14.88144 37.039639 -15.696206
14.956172 33.709944 -14.684509
14.919553 35.447805 -15.193832
15.011533 32.060957 -14.233885
14.689357 32.18401 -14.796616
14.956172 33.709944 -14.684509
15.050189 30.379651 -13.821634
15.011533 32.060957 -14.233885
15.13409 28.685094 -13.423697
14.82862 28.840466 -13.948056
15.050189 30.379651 -13.821634
15.436337 28.377432 -12.891597
15.771456 28.074978 -12.418518
15.214768 26.838247 -13.018019
15.13409 28.685094 -13.423697
15.436337 28.377432 -12.891597
15.345063 25.170172 -12.665616
15.042816 25.477832 -13.197716
15.214768 26.838247 -13.018019
15.345063 25.170172 -12.665616
15.642012 24.829974 -12.14287
5.36249 55.973393 -44.862201
4.986648 54.793669 -45.657904
6.114931 55.356093 -44.14629
5.36249 55.973393 -44.862201
6.800649 54.705944 -43.523037
6.393633 53.869368 -44.375755
6.114931 55.356093 -44.14629
7.150459 55.611711 -42.555779
7.527922 56.619326 -41.696468
7.429161 54.124987 -42.785244
6.800649 54.705944 -43.523037
7.150459 55.611711 -42.555779
10.527462 55.392641 -35.626019
10.860312 55.889404 -34.73238
10.632656 53.795618 -35.779043
10.248573 54.814686 -36.656405
10.527462 55.392641 -35.626019
13.151464 57.556669 -28.45547
12.963147 58.851215 -29.357564
13.318637 56.398302 -27.595205
13.459781 55.089872 -26.697981
12.956353 55.982952 -28.397027
13.151464 57.556669 -28.45547
13.318637 56.398302 -27.595205
13.96483 51.080782 -23.435254
14.316116 51.369015 -22.702364
13.669104 50.859691 -24.291087
13.96483 51.080782 -23.435254
13.70033 49.452933 -23.544355
13.355248 50.683531 -25.168533
13.619749 52.31138 -25.059432
13.669104 50.859691 -24.291087
14.117879 32.184594 -26.726236
14.314646 32.077621 -27.725676
13.960335 33.528989 -27.408783
14.239459 30.792508 -26.040313
14.117879 32.184594 -26.726236
13.885148 32.243877 -25.72342
14.40233 29.470848 -25.450284
14.239459 30.792508 -26.040313
14.122709 29.577949 -24.467038
13.845771 30.841898 -24.097297
13.961751 29.568056 -23.526837
14.40233 29.470848 -25.450284
14.122709 29.577949 -24.467038
14.196099 26.949548 -22.424397
14.028661 26.899621 -21.604449
3.15499 39.154249 -56.345591
3.433686 40.047114 -55.632776
3.959853 39.258885 -56.320633
2.358385 38.808887 -56.3547
3.15499 39.154249 -56.345591
3 0 46 44
3 1 49 47
3 175 52 176
3 177 176 50
3 175 176 177
3 178 54 179
3 180 50 181
3 182 181 54
3 180 181 182
3 184 183 56
3 2 59 57
3 2 61 59
3 3 64 62
3 5 67 65
3 5 69 67
3 6 71 70
3 7 185 187
3 187 186 72
3 185 186 187
3 7 188 189
3 8 76 74
3 8 78 76
3 9 81 79
3 9 83 81
3 9 85 83
3 6 88 86
3 6 70 88
3 4 91 89
3 190 93 191
3 193 192 93
3 194 95 195
3 11 96 45
3 11 97 96
3 12 100 98
3 14 101 48
3 14 102 101
3 15 105 103
3 17 106 51
3 17 107 106
3 19 196 198
3 196 108 197
3 196 197 198
3 19 109 108
3 199 111 200
3 21 112 53
3 21 113 112
3 21 115 113
3 15 116 55
3 15 103 116
3 23 201 203
3 203 202 117
3 201 202 203
3 24 120 118
3 26 204 206
3 206 205 121
3 204 205 206
3 10 207 208
3 27 209 211
3 211 210 58
3 209 210 211
3 27 212 214
3 212 123 213
3 212 213 214
3 27 124 123
3 28 125 60
3 28 126 125
3 29 129 127
3 31 130 63
3 31 131 130
3 13 132 99
3 32 133 66
3 32 134 133
3 32 135 134
3 215 136 216
3 217 216 68
3 215 216 217
3 219 218 136
3 220 137 221
3 222 221 122
3 220 221 222
3 223 138 224
3 225 139 226
3 227 226 138
3 225 226 227
3 228 140 229
3 230 141 231
3 232 231 140
3 230 231 232
3 234 233 141
3 16 142 104
3 235 143 236
3 238 237 143
3 33 239 240
3 33 241 243
3 241 144 242
3 241 242 243
3 33 145 144
3 34 146 73
3 34 147 146
3 18 244 246
3 244 148 245
3 244 245 246
3 35 149 75
3 35 150 149
3 35 151 150
3 36 152 77
3 36 153 152
3 37 247 249
3 247 154 248
3 247 248 249
3 37 155 154
3 20 156 110
3 38 157 80
3 38 158 157
3 38 159 158
3 39 160 82
3 39 161 160
3 39 162 161
3 40 163 84
3 40 164 163
3 22 165 114
3 41 166 87
3 41 250 252
3 252 251 166
3 250 251 252
3 41 253 254
3 30 167 128
3 42 168 90
3 42 169 168
3 25 170 119
3 43 171 92
3 43 172 171
3 43 173 172
3 255 174 256
3 257 256 94
3 255 256 257
3 259 258 174
3 44 260 262
3 260 45 261
3 260 261 262
3 46 45 44
3 46 11 45
3 47 48 12
3 49 48 47
3 49 14 48
3 50 51 15
3 52 51 50
3 52 17 51
3 263 19 264
3 265 53 266
3 54 267 269
3 267 53 268
3 267 268 269
3 54 21 53
3 54 55 21
3 50 55 54
3 50 15 55
3 56 270 272
3 272 271 23
3 270 271 272
3 274 273 56
3 276 275 24
3 278 277 26
3 57 58 10
3 59 58 57
3 59 27 58
3 59 60 27
3 61 60 59
3 61 28 60
3 62 63 29
3 64 63 62
3 64 31 63
3 65 66 13
3 67 66 65
3 67 32 66
3 67 68 32
3 69 68 67
3 69 279 281
3 281 280 68
3 279 280 281
3 70 282 283
3 71 284 286
3 286 285 70
3 284 285 286
3 71 287 288
3 72 289 291
3 291 290 16
3 289 290 291
3 293 292 72
3 294 33 295
3 296 73 297
3 298 297 33
3 296 297 298
3 299 73 300
3 301 34 302
3 303 302 73
3 301 302 303
3 74 75 18
3 76 75 74
3 76 35 75
3 76 77 35
3 78 77 76
3 78 36 77
3 304 37 305
3 79 80 20
3 81 80 79
3 81 38 80
3 81 82 38
3 83 82 81
3 83 39 82
3 83 84 39
3 85 84 83
3 85 40 84
3 86 87 22
3 88 87 86
3 88 41 87
3 88 306 308
3 308 307 41
3 306 307 308
3 70 309 311
3 311 310 88
3 309 310 311
3 70 312 313
3 89 90 30
3 91 90 89
3 91 42 90
3 314 92 315
3 316 315 25
3 314 315 316
3 93 317 319
3 317 92 318
3 317 318 319
3 93 43 92
3 93 94 43
3 320 94 321
3 322 321 93
3 320 321 322
3 324 323 94
3 95 325 326
3 95 327 329
3 327 10 328
3 327 328 329
3 45 330 332
3 330 95 331
3 330 331 332
3 96 95 45
3 96 10 95
3 96 57 10
3 97 57 96
3 97 2 57
3 98 99 3
3 100 99 98
3 100 13 99
3 48 100 12
3 101 100 48
3 101 13 100
3 101 65 13
3 102 65 101
3 102 5 65
3 103 104 6
3 105 104 103
3 105 16 104
3 51 105 15
3 106 105 51
3 106 16 105
3 106 72 16
3 107 72 106
3 107 7 72
3 333 18 334
3 108 335 336
3 108 337 339
3 337 18 338
3 337 338 339
3 108 74 18
3 109 74 108
3 109 8 74
3 340 110 341
3 111 342 344
3 342 110 343
3 342 343 344
3 111 20 110
3 53 345 347
3 345 111 346
3 345 346 347
3 112 111 53
3 112 20 111
3 112 79 20
3 113 79 112
3 113 9 79
3 113 114 9
3 115 114 113
3 115 22 114
3 55 115 21
3 116 115 55
3 116 22 115
3 116 86 22
3 103 86 116
3 103 6 86
3 117 348 349
3 351 350 117
3 353 352 23
3 118 119 4
3 120 119 118
3 120 25 119
3 354 120 355
3 356 355 24
3 354 355 356
3 357 120 358
3 359 25 360
3 361 360 120
3 359 360 361
3 363 362 25
3 121 122 1
3 364 122 365
3 366 365 121
3 364 365 366
3 368 367 122
3 370 369 26
3 58 371 373
3 373 372 10
3 371 372 373
3 375 374 58
3 123 376 377
3 123 378 379
3 123 380 382
3 380 117 381
3 380 381 382
3 124 117 123
3 124 23 117
3 60 124 27
3 125 124 60
3 125 23 124
3 125 56 23
3 126 56 125
3 126 383 385
3 385 384 56
3 383 384 385
3 127 128 0
3 129 128 127
3 129 30 128
3 63 129 29
3 130 129 63
3 130 30 129
3 130 89 30
3 131 89 130
3 131 4 89
3 99 64 3
3 132 64 99
3 132 31 64
3 66 132 13
3 133 132 66
3 133 31 132
3 133 131 31
3 134 131 133
3 134 4 131
3 134 118 4
3 135 118 134
3 135 24 118
3 68 135 32
3 136 135 68
3 136 24 135
3 136 386 388
3 388 387 24
3 386 387 388
3 390 389 136
3 122 49 1
3 137 49 122
3 137 14 49
3 391 137 392
3 138 393 395
3 393 137 394
3 393 394 395
3 138 14 137
3 138 102 14
3 139 102 138
3 139 5 102
3 140 396 397
3 140 398 399
3 140 400 402
3 400 139 401
3 400 401 402
3 141 139 140
3 141 5 139
3 141 69 5
3 403 69 404
3 405 404 141
3 403 404 405
3 407 406 69
3 104 71 6
3 142 71 104
3 142 408 410
3 410 409 71
3 408 409 410
3 411 142 412
3 413 412 16
3 411 412 413
3 414 142 415
3 417 416 142
3 418 52 419
3 420 52 421
3 422 17 423
3 424 423 52
3 422 423 424
3 425 17 426
3 427 107 428
3 429 428 17
3 427 428 429
3 430 107 431
3 432 7 433
3 434 433 107
3 432 433 434
3 143 435 436
3 143 437 439
3 437 7 438
3 437 438 439
3 143 440 442
3 442 441 7
3 440 441 442
3 444 443 143
3 445 44 446
3 447 44 448
3 449 0 450
3 451 450 44
3 449 450 451
3 144 452 453
3 144 454 456
3 454 0 455
3 454 455 456
3 144 127 0
3 145 127 144
3 145 29 127
3 73 145 33
3 146 145 73
3 146 29 145
3 146 62 29
3 147 62 146
3 147 3 62
3 148 457 458
3 148 459 461
3 459 34 460
3 459 460 461
3 75 148 18
3 149 148 75
3 149 34 148
3 149 147 34
3 150 147 149
3 150 3 147
3 150 98 3
3 151 98 150
3 151 12 98
3 77 151 35
3 152 151 77
3 152 12 151
3 152 47 12
3 153 47 152
3 153 1 47
3 462 19 463
3 154 464 465
3 154 466 468
3 466 19 467
3 466 467 468
3 154 109 19
3 155 109 154
3 155 8 109
3 110 469 470
3 156 471 473
3 473 472 110
3 471 472 473
3 156 474 476
3 474 37 475
3 474 475 476
3 80 156 20
3 157 156 80
3 157 37 156
3 157 155 37
3 158 155 157
3 158 8 155
3 158 78 8
3 159 78 158
3 159 36 78
3 82 159 38
3 160 159 82
3 160 36 159
3 160 153 36
3 161 153 160
3 161 1 153
3 161 121 1
3 162 121 161
3 162 26 121
3 84 162 39
3 163 162 84
3 163 26 162
3 163 477 479
3 479 478 26
3 477 478 479
3 164 480 482
3 482 481 163
3 480 481 482
3 164 483 484
3 114 85 9
3 165 85 114
3 165 40 85
3 87 165 22
3 166 165 87
3 166 40 165
3 166 164 40
3 485 164 486
3 487 486 166
3 485 486 487
3 489 488 164
3 491 490 41
3 128 46 0
3 167 46 128
3 167 11 46
3 90 167 30
3 168 167 90
3 168 11 167
3 168 97 11
3 169 97 168
3 169 2 97
3 119 91 4
3 170 91 119
3 170 42 91
3 92 170 25
3 171 170 92
3 171 42 170
3 171 169 42
3 172 169 171
3 172 2 169
3 172 61 2
3 173 61 172
3 173 28 61
3 94 173 43
3 174 173 94
3 174 28 173
3 174 126 28
3 492 126 493
3 494 493 174
3 492 493 494
3 496 495 126
