ply
format ascii 1.0
element vertex 757
property float x
property float y
property float z
element face 892
property list uchar int vertex_index
end_header
5.290642 92.216187 13.272218
28.248569 100.219185 -18.737417
17.062969 105.305801 -0.575343
12.588191 105.789536 -27.833925
25.632113 89.413521 -42.811924
10.599897 99.449577 7.455632
17.824593 98.703148 13.343709
2.545226 95.914993 4.384449
8.411523 103.935837 -5.295657
21.892311 105.857269 -24.42738
19.729342 100.79081 -36.641636
23.283827 105.932404 -10.056607
28.396069 98.416046 -3.272506
23.855566 101.607872 5.430252
5.280593 104.559265 -17.699146
15.134345 107.876694 -15.206799
24.82262 60.057564 -49.763691
9.3248 98.898705 -38.125401
22.192945 77.413986 -48.906933
29.439291 73.700485 -45.47966
7.56675 95.674789 10.602893
11.019115 95.910431 13.368349
7.819668 92.088432 15.740464
4.156519 94.127647 9.295656
6.596077 98.236145 5.362895
30.228935 95.513245 -22.179127
30.183525 95.890556 -15.237527
25.4867 103.68412 -21.917694
24.796816 102.409302 -28.771519
27.942472 99.50061 -25.699099
20.35747 106.472404 -5.498381
23.743395 104.235001 -2.298258
20.759415 104.214119 2.059986
12.884407 105.233406 -3.281443
11.842654 106.533417 -9.919051
16.247776 107.174866 -7.996902
19.636169 107.620972 -12.664471
28.309875 96.03196 4.603518
29.931341 93.184647 0.159759
7.092803 103.794754 -28.62331
5.247106 100.621185 -33.545586
11.170377 102.871704 -33.568802
22.829159 95.744423 -40.258305
18.371193 96.243958 -41.549103
21.477091 90.56929 -44.494705
24.075443 83.840958 -46.441017
26.109947 75.874786 -47.629223
27.91448 81.965805 -44.419552
13.714798 102.92942 3.439349
17.541553 102.484367 6.416369
14.27821 99.659882 10.040358
14.562564 95.625549 16.362837
5.32098 100.30748 -0.426163
9.585421 102.109344 1.176534
17.612066 106.482368 -26.575649
16.391996 104.017227 -32.65955
20.844637 103.924156 -31.065535
24.046295 99.690994 -34.920139
26.770506 94.077255 -37.928608
25.952084 103.790573 -14.453988
28.35741 99.90834 -11.292299
26.132389 102.92263 -6.951902
26.268929 100.830505 1.092946
26.379438 97.563194 9.060271
21.023331 100.831024 9.643587
23.979219 97.781746 13.209804
8.792567 105.853737 -22.905666
6.984588 104.742287 -11.446501
10.54855 106.822289 -16.619987
13.905029 107.424782 -21.618961
18.616478 107.674088 -19.998938
22.608866 106.507919 -17.561827
21.214096 61.589405 -50.79995
30.128162 94.915771 -7.55385
14.928373 100.281105 -37.932785
23.860268 69.095352 -49.643829
27.460667 66.965721 -48.12368
30.610626 64.266983 -45.756851
6.297473 93.782425 12.113779
7.773152 94.001816 13.195059
6.416703 92.254768 14.279999
4.779557 93.114494 11.496208
5.875546 95.027107 9.840781
4.022714 91.217377 13.288063
3.169619 92.048309 11.227593
29.286066 97.985069 -20.373152
30.236532 95.802338 -18.600912
29.251829 98.256767 -16.960073
26.999611 102.089188 -20.17392
26.769131 101.780296 -23.716232
28.136002 99.991768 -22.143522
29.208366 97.57756 -23.917368
18.659054 106.141281 -3.167251
20.425798 105.501152 -1.680492
18.972343 104.90979 0.746774
15.03947 105.404953 -1.896761
14.575011 106.348656 -5.514352
16.72995 106.406319 -4.367941
18.44463 107.002647 -6.776042
28.294104 94.375656 8.452763
29.118237 93.275108 6.121077
9.803625 104.900963 -28.323803
9.071972 103.503822 -31.185469
11.865109 104.496346 -30.763054
24.421047 92.742065 -41.551613
22.199924 93.332428 -42.478287
23.632814 90.317558 -43.675503
22.809784 87.613541 -45.483536
24.786673 86.938141 -44.758392
25.997536 83.190941 -45.542343
26.741947 85.835358 -43.793594
12.117036 101.259338 5.530342
14.217066 101.46244 6.789361
12.493215 99.66201 8.734569
10.992865 93.854187 16.150442
12.725959 95.773544 14.903667
3.752653 98.083168 2.011795
8.535782 98.930542 6.300978
8.149196 100.191422 3.521379
10.180657 100.882446 4.408236
11.711999 102.75399 2.054606
19.986107 106.284775 -25.660662
19.385883 105.353096 -28.921421
21.530464 104.929199 -28.01405
26.138294 100.158447 -30.621529
24.434822 101.152328 -32.085796
25.964705 98.600952 -33.705505
25.422731 97.017639 -36.621826
24.668535 105.059761 -12.358469
26.051603 103.483345 -10.672146
24.762329 104.61808 -8.481807
23.70966 103.109146 1.626022
25.091763 102.641777 -0.502287
25.098886 101.36116 3.435683
26.343267 99.273842 5.197129
25.183867 99.748482 7.280786
17.751642 100.840256 9.650537
19.37429 101.783241 8.066544
19.407272 99.829994 11.7201
4.430274 104.092789 -20.553782
6.050222 104.63369 -23.321138
6.996816 105.365433 -20.364178
5.932065 102.777 -5.918616
5.15592 103.178726 -8.888484
7.515206 104.336975 -8.348886
13.414931 107.368561 -12.586471
11.055572 106.749619 -13.203153
12.842025 107.477516 -16.048254
12.287004 107.315025 -19.20952
14.787679 107.818268 -18.524023
16.389408 107.693611 -21.168833
16.972057 107.983215 -17.53544
21.545986 106.970299 -11.546319
21.138018 107.266403 -15.293294
22.970499 106.36834 -13.905667
24.399971 105.327797 -15.960693
23.058401 60.620899 -50.366348
21.421886 57.076668 -50.831066
28.383886 99.290382 -7.194592
29.343346 97.468323 -9.448958
29.310791 96.755287 -5.465065
30.534344 90.174057 2.109618
30.730909 91.037697 -1.726781
31.293562 88.030388 -0.094145
7.298891 99.955025 -35.906097
17.952484 102.635765 -34.687275
15.484035 102.305481 -35.396034
17.440857 100.708763 -37.343697
17.525867 93.456894 -43.662441
15.826352 95.955452 -42.00098
21.873627 69.796425 -50.129803
23.119493 73.509895 -49.337795
27.890471 74.709412 -46.661285
26.971066 71.59964 -47.885418
28.599699 70.30751 -46.901653
29.128727 65.877716 -46.993347
30.116743 69.338753 -45.632694
9.061477 97.631599 9.020728
10.844901 97.808792 10.382954
9.346096 96.005295 11.782881
9.36148 94.113617 14.446612
3.456579 95.14045 6.853616
4.661551 97.221985 4.814498
5.336663 96.201233 7.371848
7.265352 97.09684 8.060978
2.357841 93.040573 8.819763
31.082207 93.308014 -16.599268
31.031107 93.117348 -13.216702
23.751261 104.949181 -23.39407
23.412491 104.284821 -26.715464
25.232637 103.196144 -25.220699
26.439049 101.196968 -27.25552
21.835703 106.403915 -7.751238
23.373016 105.318649 -6.126326
22.05892 105.491425 -3.620948
22.255428 104.426651 -0.028684
22.375437 102.983498 3.979505
17.799303 96.396461 16.839363
19.497269 97.753708 15.160838
3.573378 103.404945 -14.928534
10.707986 104.767288 -4.481716
10.091319 105.381149 -7.65489
12.475616 106.062828 -6.726413
14.110758 107.042809 -9.195177
15.750998 107.678322 -11.663932
17.473017 107.942818 -14.013098
17.938797 107.598602 -10.290941
20.053936 107.178444 -9.138577
28.326242 97.46582 0.536774
29.197159 95.999825 -1.616287
29.152367 94.730598 2.407557
29.872583 91.827614 3.945793
4.208638 102.413971 -28.699276
3.397239 100.948097 -31.1707
6.264174 102.328651 -31.298338
8.225972 101.878937 -33.646107
10.216945 101.115303 -35.806828
21.329954 98.49604 -38.518932
19.211565 98.592033 -39.262142
20.720018 96.258957 -40.888069
19.911621 93.578156 -43.147858
21.954992 84.548866 -47.028275
23.107527 80.689171 -47.840897
24.235041 76.564171 -48.40163
25.146719 79.89183 -47.165707
27.003448 79.201065 -46.179169
28.680634 78.055885 -45.06205
15.347579 104.267288 1.451608
17.298697 104.049088 2.857849
15.781756 102.88018 4.891172
15.974777 101.152542 8.40045
16.162729 99.366463 11.60649
12.592032 97.796799 11.836019
14.394074 97.704124 13.246385
16.153561 97.279732 14.880915
4.433203 101.009186 -3.502922
6.815951 102.234093 -2.881204
5.970698 99.287056 2.614665
7.440195 101.253609 0.399438
9.09626 103.161514 -2.021607
11.343106 103.901825 -1.145968
13.361618 104.212311 0.10965
15.130195 106.283897 -27.345306
14.568471 105.085083 -30.387762
17.048246 105.38475 -29.751913
18.720436 104.106354 -31.989363
20.414314 102.456688 -33.973618
22.965105 103.283493 -30.077606
22.506435 102.021278 -33.040485
21.969336 100.228447 -36.122536
23.457481 97.918961 -37.688511
24.88242 95.20105 -39.116322
26.158886 92.035446 -40.506947
27.386852 88.497841 -41.633953
27.874163 90.942917 -39.172306
27.178047 102.112274 -16.659599
28.281137 100.266716 -15.050282
27.165588 102.116455 -13.037886
27.359795 101.473015 -9.1281
27.320368 100.877922 -5.133183
24.965971 103.758636 -4.540796
26.305901 101.902153 -2.938935
27.393543 99.82914 -1.266325
27.413408 98.547676 2.693875
27.381765 97.004234 6.812072
27.37553 95.14917 10.775277
19.162457 103.453186 4.478634
20.929718 102.626572 5.926332
22.5688 101.335854 7.676122
21.091383 98.702736 13.499908
22.509047 99.484375 11.446802
23.949528 99.806824 9.343621
25.226284 97.977135 10.958426
5.321473 103.714584 -26.216627
7.8895 104.960037 -25.757811
10.675424 106.015945 -25.392666
4.535974 103.495995 -11.90514
6.078831 104.741547 -14.575558
9.398023 105.727036 -10.643668
8.68903 105.919647 -14.049932
7.895255 105.799881 -17.292286
9.812066 106.532898 -19.799406
11.427188 106.798454 -22.332752
13.227603 106.752792 -24.801723
15.770249 107.161621 -24.186796
18.224152 107.200233 -23.473938
20.257277 106.956154 -22.379871
19.103346 107.818481 -16.242113
20.690374 107.262383 -18.962648
22.379145 106.258278 -21.091949
24.173489 105.235748 -19.72444
25.7988 103.819031 -18.279556
4.975977 90.632568 14.979084
29.296427 98.039162 -13.378419
30.166508 95.554428 -11.53451
30.912785 92.818428 -9.535384
30.074785 93.988083 -3.536972
30.800707 92.121452 -5.528205
31.528028 90.056534 -7.654775
13.799642 103.601845 -33.165607
12.985301 101.749649 -35.839367
12.10609 99.773903 -38.056664
16.660528 98.478241 -39.803806
14.063397 98.13575 -40.058891
22.653254 65.412933 -50.29285
24.478035 64.582169 -49.761036
25.132185 72.711441 -48.702583
25.786932 68.408546 -48.925125
26.193184 63.576321 -49.061352
27.853582 62.367455 -48.153023
29.4877 60.898407 -46.995319
28.479362 84.655067 -42.539288
30.921377 72.157349 -44.098663
31.411654 67.45533 -44.429688
28.649208 93.037148 9.23773
28.237526 93.473213 10.46225
11.839427 93.723374 16.969058
10.942053 92.707241 17.55086
3.14894 96.99908 3.198122
2.72809 97.434399 1.814214
2.124376 96.350311 3.000541
1.440883 95.169426 4.186184
1.984197 94.872177 5.402865
2.124376 96.350311 3.000541
1.440883 95.169426 4.186184
26.690783 98.044964 -33.020914
26.051499 99.3797 -32.163517
26.777578 98.823712 -31.478926
26.518462 97.290867 -34.495847
26.690783 98.044964 -33.020914
4.855434 104.326027 -19.126464
3.475866 103.554573 -19.173927
3.901025 103.787811 -17.746609
24.024149 58.0135 -50.043104
23.142039 58.295168 -50.344432
23.940511 60.339231 -50.06502
31.223569 87.422612 1.731119
30.913953 89.102223 1.007737
30.84396 88.494446 2.833
31.492618 85.777825 2.559296
31.562612 86.385601 0.734033
31.223569 87.422612 1.731119
7.926672 98.259537 -38.172534
6.913718 98.787697 -37.062882
8.311846 99.426865 -37.015749
8.945457 97.732945 -39.122587
7.926672 98.259537 -38.172534
16.251252 93.364182 -43.75016
17.030416 92.069794 -44.482645
21.101286 77.599556 -49.097351
21.58921 79.205521 -48.637051
21.700252 75.644077 -49.333098
21.101286 77.599556 -49.097351
22.656219 75.46194 -49.122364
22.163525 73.692031 -49.548529
21.700252 75.644077 -49.333098
8.569297 92.027603 16.456371
9.340203 93.040196 15.809445
8.590574 93.101024 15.093538
30.69691 94.289787 -21.206365
30.694693 94.105728 -22.907926
27.837623 99.060119 -27.415437
27.085911 99.908299 -28.193648
27.19076 100.348789 -26.47731
28.5316 98.140564 -26.537245
27.837623 99.060119 -27.415437
30.21801 95.165646 -23.96918
29.707726 96.197804 -24.8383
29.718651 96.545402 -23.048248
30.694693 94.105728 -22.907926
30.21801 95.165646 -23.96918
18.609705 95.892612 17.733863
17.770886 95.141972 18.536205
2.738113 102.67617 -13.583605
2.257786 102.589932 -14.953636
29.818332 91.06382 5.91732
29.49541 92.551361 5.033435
29.441159 91.787567 7.004962
30.171105 90.264069 4.806276
29.818332 91.06382 5.91732
20.257464 90.733467 -44.719273
19.474728 92.2379 -44.045849
20.694356 92.073723 -43.821281
21.014169 89.206665 -45.307533
20.257464 90.733467 -44.719273
15.331471 95.217758 17.345887
16.12697 96.044849 16.604927
15.358062 96.452641 15.621876
4.877091 100.658333 -1.964542
3.772703 100.049515 -2.264895
4.216591 99.698662 -0.726515
21.064008 97.612263 15.24204
20.294326 98.228222 14.330373
20.266951 97.137749 16.072505
23.244133 98.63306 12.328303
22.48715 98.389175 13.370212
23.222237 97.537861 14.251713
4.341781 103.479317 -24.804972
3.879647 102.965084 -26.154707
20.416677 59.728907 -50.989699
20.227122 61.985508 -50.946595
20.623907 55.289473 -50.993793
21.477604 54.815321 -50.788902
4.846215 89.632713 16.066488
4.228406 89.915188 15.13655
5.609034 90.526996 15.692037
4.846215 89.632713 16.066488
31.123537 90.577595 -4.695066
30.765808 91.579575 -3.627493
31.088638 90.035717 -2.794354
31.487198 89.545136 -5.758351
31.164367 91.088993 -6.59149
31.123537 90.577595 -4.695066
31.825004 88.479607 -6.650697
31.487198 89.545136 -5.758351
3.922788 99.920693 -33.503293
2.997854 100.084148 -32.315849
4.322172 100.784641 -32.358143
13.618415 96.802853 -41.117086
14.944875 97.045601 -41.029936
14.499892 95.712704 -42.088131
12.705523 97.70026 -40.211945
13.618415 96.802853 -41.117086
30.742216 61.747806 -45.769598
30.180753 60.063519 -46.388832
30.049163 62.582695 -46.376085
28.687356 86.012058 -41.430439
27.933107 86.576454 -42.08662
28.141101 87.933445 -40.977772
31.532965 71.29565 -43.415203
31.257454 73.504032 -43.186354
31.778104 68.944641 -43.580715
31.166515 69.80634 -44.264176
31.532965 71.29565 -43.415203
3.596166 91.632843 12.257828
2.77089 90.920071 12.315106
3.197437 90.504604 13.34534
29.061274 92.486874 8.071886
28.70617 93.825382 7.28692
28.649208 93.037148 9.23773
29.441159 91.787567 7.004962
29.061274 92.486874 8.071886
12.705973 94.683052 16.345671
11.859412 94.813865 15.527055
11.839427 93.723374 16.969058
13.624276 94.609055 17.075255
13.644261 95.699546 15.633252
12.705973 94.683052 16.345671
14.466142 94.408215 17.90104
13.624276 94.609055 17.075255
3.432428 98.586506 0.492464
2.72809 97.434399 1.814214
4.536816 99.195324 0.792816
4.216591 99.698662 -0.726515
3.432428 98.586506 0.492464
26.247474 96.499211 -35.954008
25.693718 97.809296 -35.163666
26.518462 97.290867 -34.495847
26.921362 95.029019 -36.607399
26.096618 95.547447 -37.275217
26.247474 96.499211 -35.954008
27.54476 93.476825 -37.217779
26.921362 95.029019 -36.607399
23.922322 96.70932 15.053969
23.222237 97.537861 14.251713
24.559263 96.855294 14.030569
23.922322 96.70932 15.053969
3.098766 103.331238 -20.583627
3.475866 103.554573 -19.173927
3.896181 103.668419 -21.97355
3.098766 103.331238 -20.583627
5.240248 104.363239 -21.93746
4.706155 103.93887 -23.357228
3.896181 103.668419 -21.97355
5.543992 102.977863 -7.40355
4.322641 102.291821 -7.607663
4.710713 102.090958 -6.122729
22.323782 56.523052 -50.576791
22.240144 58.848783 -50.598707
23.142039 58.295168 -50.344432
21.477604 54.815321 -50.788902
22.323782 56.523052 -50.576791
31.369965 88.532062 -1.978036
31.088638 90.035717 -2.794354
31.012236 89.534042 -0.910463
31.637177 86.955056 -1.023485
31.369965 88.532062 -1.978036
31.637177 86.955056 -1.023485
31.562612 86.385601 0.734033
5.888668 99.317154 -35.83392
4.862775 99.650234 -34.653664
6.272998 100.288105 -34.725842
5.888668 99.317154 -35.83392
6.913718 98.787697 -37.062882
15.401495 94.613461 -42.919429
16.67611 94.706173 -42.83171
16.251252 93.364182 -43.75016
14.499892 95.712704 -42.088131
15.401495 94.613461 -42.919429
21.540592 71.835296 -49.944533
20.828691 70.045051 -50.287714
22.49656 71.65316 -49.733799
21.540592 71.835296 -49.944533
22.163525 73.692031 -49.548529
10.155895 92.910481 16.661361
10.177173 93.983902 15.298527
9.340203 93.040196 15.809445
10.942053 92.707241 17.55086
10.155895 92.910481 16.661361
2.272755 91.338256 11.19423
2.77089 90.920071 12.315106
1.866866 91.834388 9.990315
2.272755 91.338256 11.19423
2.76373 92.544441 10.023678
1.398659 92.252151 8.825322
1.866866 91.834388 9.990315
1.890505 93.434967 7.620522
1.398659 92.252151 8.825322
2.439874 94.484905 6.637448
1.890505 93.434967 7.620522
2.90721 94.090511 7.83669
3.000903 95.527721 5.619032
1.984197 94.872177 5.402865
2.439874 94.484905 6.637448
30.700709 94.434334 -19.417257
30.69691 94.289787 -21.206365
30.232734 95.657792 -20.39002
31.123546 93.187172 -18.416435
30.700709 94.434334 -19.417257
30.65937 94.555176 -17.60009
31.494452 91.974411 -17.496791
31.123546 93.187172 -18.416435
31.466826 91.905438 -15.712281
31.494452 91.974411 -17.496791
31.441277 91.810104 -14.020998
31.466826 91.905438 -15.712281
31.056657 93.212681 -14.907985
31.381854 91.695603 -12.259512
31.441277 91.810104 -14.020998
26.935533 99.389038 -29.876652
26.288671 100.677707 -28.938524
27.085911 99.908299 -28.193648
26.777578 98.823712 -31.478926
26.935533 99.389038 -29.876652
29.164548 97.179039 -25.64638
28.5316 98.140564 -26.537245
28.575419 98.539085 -24.808234
29.164548 97.179039 -25.64638
29.707726 96.197804 -24.8383
19.458688 96.571236 16.8946
18.648286 97.075085 16.0001
18.609705 95.892612 17.733863
20.266951 97.137749 16.072505
19.458688 96.571236 16.8946
3.047418 103.210651 -16.361303
2.257786 102.589932 -14.953636
4.426985 103.982105 -16.31384
3.901025 103.787811 -17.746609
3.047418 103.210651 -16.361303
24.924975 57.630281 -49.699613
25.645089 59.4243 -49.390736
30.501985 89.43729 3.888189
30.203463 91.000835 3.027706
30.171105 90.264069 4.806276
30.84396 88.494446 2.833
30.501985 89.43729 3.888189
3.802938 101.681034 -29.934988
2.420735 100.927826 -29.85644
2.826434 101.660763 -28.620728
18.281852 92.177269 -44.30314
18.718744 93.517525 -43.40515
19.474728 92.2379 -44.045849
17.030416 92.069794 -44.482645
18.281852 92.177269 -44.30314
21.680515 87.728791 -45.801949
21.014169 89.206665 -45.307533
22.143438 89.091415 -44.98912
21.25312 86.196453 -46.574318
21.680515 87.728791 -45.801949
22.382388 86.081204 -46.255905
20.810063 84.531288 -47.304799
21.25312 86.196453 -46.574318
21.470233 82.772961 -47.697722
20.810063 84.531288 -47.304799
22.046501 80.843113 -48.104033
21.470233 82.772961 -47.697722
22.53126 82.619019 -47.434586
22.650236 79.051579 -48.373915
21.58921 79.205521 -48.637051
22.046501 80.843113 -48.104033
16.949841 95.603214 17.58415
16.976432 96.838097 15.860139
16.12697 96.044849 16.604927
17.770886 95.141972 18.536205
16.949841 95.603214 17.58415
15.331471 95.217758 17.345887
14.466142 94.408215 17.90104
3.224504 100.229236 -3.595047
3.772703 100.049515 -2.264895
3.961282 101.207051 -4.914882
3.224504 100.229236 -3.595047
5.182634 101.893093 -4.710769
4.710713 102.090958 -6.122729
3.961282 101.207051 -4.914882
28.384757 89.155983 -39.746948
28.141101 87.933445 -40.977772
27.630508 89.720379 -40.403129
28.096588 91.909656 -37.839628
27.322335 92.510086 -38.550457
27.54476 93.476825 -37.217779
28.629141 90.147239 -38.514724
28.096588 91.909656 -37.839628
28.384757 89.155983 -39.746948
28.629141 90.147239 -38.514724
27.778239 93.85997 11.623507
28.237526 93.473213 10.46225
27.834817 94.762413 9.61402
21.778319 97.998356 14.396765
21.064008 97.612263 15.24204
21.800215 99.093556 12.473355
21.778319 97.998356 14.396765
22.48715 98.389175 13.370212
25.182795 96.952988 12.904879
24.602752 97.879441 12.084115
24.559263 96.855294 14.030569
25.749567 96.886589 11.894258
25.182795 96.952988 12.904879
26.326144 96.679619 10.945181
25.802861 97.770164 10.009348
25.749567 96.886589 11.894258
26.82419 95.472606 11.802684
26.877484 96.356182 9.917774
26.326144 96.679619 10.945181
27.315041 94.19289 12.71318
26.82419 95.472606 11.802684
27.778239 93.85997 11.623507
27.315041 94.19289 12.71318
3.32323 102.314778 -27.396031
2.826434 101.660763 -28.620728
4.765055 103.064278 -27.457952
3.32323 102.314778 -27.396031
3.879647 102.965084 -26.154707
5.685847 104.174137 -24.768883
4.341781 103.479317 -24.804972
4.706155 103.93887 -23.357228
3.914963 102.469612 -9.092192
4.322641 102.291821 -7.607663
3.604991 102.628246 -10.60052
3.914963 102.469612 -9.092192
4.845947 103.33736 -10.396812
3.219411 102.721695 -12.071908
3.604991 102.628246 -10.60052
4.054676 103.45047 -13.416837
2.738113 102.67617 -13.583605
3.219411 102.721695 -12.071908
20.520573 57.472538 -51.005257
20.416677 59.728907 -50.989699
21.317991 59.333036 -50.815508
19.722594 55.685343 -51.167984
20.520573 57.472538 -51.005257
20.623907 55.289473 -50.993793
24.024149 58.0135 -50.043104
24.924975 57.630281 -49.699613
3.751774 90.207592 14.291039
3.197437 90.504604 13.34534
4.499346 90.924972 14.133574
3.751774 90.207592 14.291039
4.228406 89.915188 15.13655
6.329398 91.338097 15.342495
5.69634 91.443668 14.629542
5.609034 90.526996 15.692037
7.03088 91.254929 16.072727
7.118186 92.1716 15.010231
6.329398 91.338097 15.342495
7.713468 91.058491 16.907894
7.03088 91.254929 16.072727
8.569297 92.027603 16.456371
7.713468 91.058491 16.907894
31.322693 91.546143 -10.418853
31.381854 91.695603 -12.259512
30.971946 92.967888 -11.376043
31.630314 90.165196 -9.478549
31.322693 91.546143 -10.418853
31.220406 91.437481 -8.59508
31.917972 88.738369 -8.453255
31.630314 90.165196 -9.478549
31.917972 88.738369 -8.453255
31.825004 88.479607 -6.650697
2.062056 100.205219 -31.043336
2.420735 100.927826 -29.85644
2.062056 100.205219 -31.043336
2.997854 100.084148 -32.315849
3.922788 99.920693 -33.503293
4.862775 99.650234 -34.653664
11.726869 98.519337 -39.210831
13.084744 98.954826 -39.057778
12.705523 97.70026 -40.211945
10.336225 98.081738 -39.245199
10.715445 99.336304 -38.091032
11.726869 98.519337 -39.210831
8.945457 97.732945 -39.122587
10.336225 98.081738 -39.245199
20.918742 63.786104 -50.746437
20.227122 61.985508 -50.946595
21.248507 67.889614 -50.411364
20.203572 68.13824 -50.569274
20.828691 70.045051 -50.287714
21.638321 65.697868 -50.492887
21.248507 67.889614 -50.411364
22.263441 67.604679 -50.211326
21.933675 63.501169 -50.5464
20.918742 63.786104 -50.746437
21.638321 65.697868 -50.492887
26.330371 61.183678 -49.039566
25.645089 59.4243 -49.390736
25.507902 61.816942 -49.412521
27.16057 60.579245 -48.585402
26.330371 61.183678 -49.039566
27.023383 62.971888 -48.607187
27.981883 60.052926 -48.098593
27.16057 60.579245 -48.585402
28.798942 59.318402 -47.519741
27.981883 60.052926 -48.098593
28.670641 61.632931 -47.574171
29.525756 58.454382 -46.975485
28.798942 59.318402 -47.519741
29.525756 58.454382 -46.975485
30.180753 60.063519 -46.388832
29.239507 84.021221 -41.781891
28.687356 86.012058 -41.430439
28.957075 82.804989 -42.821039
29.239507 84.021221 -41.781891
28.674634 81.460358 -43.761172
28.196921 83.310436 -43.47942
28.957075 82.804989 -42.821039
29.057711 79.505398 -44.08242
28.297557 80.010845 -44.740801
28.674634 81.460358 -43.761172
29.455345 77.337383 -44.389692
29.057711 79.505398 -44.08242
29.834674 75.159683 -44.598498
29.059963 75.878185 -45.270855
29.455345 77.337383 -44.389692
30.575717 74.388115 -43.907999
31.257454 73.504032 -43.186354
30.180334 72.928917 -44.789162
29.834674 75.159683 -44.598498
30.575717 74.388115 -43.907999
32.057809 66.569523 -43.657793
31.778104 68.944641 -43.580715
31.656231 65.071371 -44.427969
32.057809 66.569523 -43.657793
31.255717 63.477198 -45.09155
31.01114 65.861156 -45.093269
31.656231 65.071371 -44.427969
30.742216 61.747806 -45.769598
31.255717 63.477198 -45.09155
3 0 80 78
3 0 78 81
3 0 81 83
3 1 87 85
3 1 90 88
3 1 85 90
3 2 94 92
3 2 97 95
3 2 92 97
3 315 314 99
3 3 103 101
3 4 106 104
3 4 108 106
3 4 110 108
3 5 113 111
3 317 316 114
3 7 318 320
3 318 116 319
3 318 319 320
3 5 119 117
3 5 111 119
3 7 321 322
3 7 323 324
3 9 123 121
3 325 126 326
3 327 326 124
3 325 326 327
3 329 328 126
3 11 130 128
3 13 133 131
3 13 135 133
3 6 138 136
3 14 330 332
3 330 139 331
3 330 331 332
3 14 141 139
3 8 144 142
3 15 147 145
3 15 149 147
3 15 151 149
3 11 154 152
3 11 128 154
3 16 333 335
3 335 334 156
3 333 334 335
3 12 160 158
3 336 163 337
3 338 337 161
3 336 337 338
3 341 340 163
3 339 340 341
3 17 342 344
3 344 343 164
3 342 343 344
3 17 345 346
3 10 167 165
3 348 347 168
3 18 349 350
3 18 351 352
3 18 353 355
3 353 171 354
3 353 354 355
3 19 174 172
3 19 176 174
3 20 179 177
3 22 180 79
3 22 356 358
3 358 357 180
3 356 357 358
3 23 183 181
3 20 184 82
3 20 177 184
3 23 185 84
3 23 181 185
3 25 359 360
3 26 186 86
3 26 187 186
3 27 190 188
3 29 191 89
3 29 361 363
3 363 362 191
3 361 362 363
3 29 364 365
3 25 366 368
3 368 367 91
3 366 367 368
3 25 369 370
3 30 194 192
3 32 195 93
3 32 196 195
3 372 371 197
3 373 199 374
3 33 202 200
3 35 203 96
3 35 204 203
3 35 206 204
3 30 207 98
3 30 192 207
3 37 210 208
3 375 211 376
3 377 376 100
3 375 376 377
3 379 378 211
3 39 214 212
3 41 215 102
3 41 216 215
3 42 219 217
3 44 220 105
3 44 380 382
3 382 381 220
3 380 381 382
3 44 383 384
3 45 221 107
3 45 222 221
3 45 224 222
3 47 225 109
3 47 226 225
3 48 229 227
3 50 230 112
3 50 231 230
3 21 232 178
3 51 233 115
3 51 234 233
3 51 385 387
3 387 386 234
3 385 386 387
3 52 388 390
3 388 235 389
3 388 389 390
3 52 236 235
3 24 237 182
3 53 238 118
3 53 239 238
3 53 240 239
3 48 241 120
3 48 227 241
3 54 244 242
3 56 245 122
3 56 246 245
3 28 247 189
3 57 248 125
3 57 249 248
3 57 250 249
3 58 251 127
3 58 252 251
3 58 254 252
3 59 257 255
3 61 258 129
3 61 259 258
3 31 260 193
3 62 261 132
3 62 262 261
3 62 263 262
3 63 264 134
3 63 265 264
3 49 266 228
3 64 267 137
3 64 268 267
3 391 269 392
3 393 392 198
3 391 392 393
3 65 394 396
3 394 270 395
3 394 395 396
3 65 271 270
3 65 272 271
3 397 273 398
3 66 274 140
3 66 275 274
3 67 276 143
3 67 277 276
3 34 278 201
3 68 279 146
3 68 280 279
3 68 281 280
3 69 282 148
3 69 283 282
3 69 284 283
3 70 285 150
3 70 286 285
3 36 287 205
3 71 288 153
3 71 289 288
3 71 290 289
3 59 291 155
3 59 255 291
3 72 399 400
3 402 401 157
3 403 292 404
3 406 405 292
3 60 293 256
3 73 294 159
3 73 295 294
3 38 296 209
3 407 297 408
3 409 408 162
3 407 408 409
3 410 298 411
3 412 411 297
3 410 411 412
3 414 413 298
3 40 415 417
3 417 416 213
3 415 416 417
3 55 299 243
3 74 300 166
3 74 301 300
3 43 302 218
3 418 303 419
3 420 419 169
3 418 419 420
3 422 421 303
3 75 304 170
3 75 305 304
3 46 306 223
3 76 307 173
3 76 308 307
3 76 309 308
3 77 310 175
3 77 423 425
3 425 424 310
3 423 424 425
3 426 311 427
3 428 427 253
3 426 427 428
3 429 312 430
3 431 313 432
3 433 432 312
3 431 432 433
3 78 79 20
3 80 79 78
3 80 22 79
3 81 82 23
3 78 82 81
3 78 20 82
3 83 434 436
3 434 84 435
3 434 435 436
3 81 84 83
3 81 23 84
3 85 86 25
3 87 86 85
3 87 26 86
3 88 89 27
3 90 89 88
3 90 29 89
3 90 91 29
3 85 91 90
3 85 25 91
3 92 93 30
3 94 93 92
3 94 32 93
3 95 96 33
3 97 96 95
3 97 35 96
3 97 98 35
3 92 98 97
3 92 30 98
3 99 100 37
3 437 100 438
3 439 438 99
3 437 438 439
3 441 440 100
3 101 102 39
3 103 102 101
3 103 41 102
3 104 105 42
3 106 105 104
3 106 44 105
3 106 107 44
3 108 107 106
3 108 45 107
3 108 109 45
3 110 109 108
3 110 47 109
3 111 112 48
3 113 112 111
3 113 50 112
3 114 115 21
3 442 115 443
3 444 443 114
3 442 443 444
3 445 51 446
3 447 446 115
3 445 446 447
3 449 448 51
3 116 450 451
3 116 452 454
3 452 52 453
3 452 453 454
3 117 118 24
3 119 118 117
3 119 53 118
3 119 120 53
3 111 120 119
3 111 48 120
3 121 122 54
3 123 122 121
3 123 56 122
3 124 125 28
3 126 125 124
3 126 57 125
3 126 127 57
3 455 127 456
3 457 456 126
3 455 456 457
3 458 58 459
3 460 459 127
3 458 459 460
3 462 461 58
3 128 129 59
3 130 129 128
3 130 61 129
3 131 132 31
3 133 132 131
3 133 62 132
3 133 134 62
3 135 134 133
3 135 63 134
3 136 137 49
3 138 137 136
3 138 64 137
3 463 65 464
3 466 465 65
3 139 467 468
3 139 469 470
3 139 471 473
3 471 140 472
3 471 472 473
3 141 140 139
3 141 66 140
3 142 474 476
3 474 143 475
3 474 475 476
3 144 143 142
3 144 67 143
3 145 146 34
3 147 146 145
3 147 68 146
3 147 148 68
3 149 148 147
3 149 69 148
3 149 150 69
3 151 150 149
3 151 70 150
3 152 153 36
3 154 153 152
3 154 71 153
3 154 155 71
3 128 155 154
3 128 59 155
3 156 157 72
3 477 157 478
3 479 478 156
3 477 478 479
3 481 480 157
3 158 159 60
3 160 159 158
3 160 73 159
3 161 162 38
3 163 162 161
3 163 482 484
3 484 483 162
3 482 483 484
3 163 485 486
3 488 487 163
3 164 489 491
3 491 490 40
3 489 490 491
3 493 492 164
3 165 166 55
3 167 166 165
3 167 74 166
3 168 169 43
3 494 169 495
3 496 495 168
3 494 495 496
3 498 497 169
3 499 170 500
3 171 501 503
3 501 170 502
3 501 502 503
3 171 75 170
3 172 173 46
3 174 173 172
3 174 76 173
3 174 175 76
3 176 175 174
3 176 77 175
3 177 178 5
3 179 178 177
3 179 21 178
3 79 179 20
3 180 179 79
3 180 21 179
3 180 114 21
3 504 114 505
3 506 505 180
3 504 505 506
3 508 507 114
3 181 182 7
3 183 182 181
3 183 24 182
3 82 183 23
3 184 183 82
3 184 24 183
3 184 117 24
3 177 117 184
3 177 5 117
3 84 509 510
3 185 511 513
3 513 512 84
3 511 512 513
3 185 514 515
3 185 516 517
3 181 518 520
3 520 519 185
3 518 519 520
3 181 521 523
3 521 7 522
3 521 522 523
3 86 524 526
3 526 525 25
3 524 525 526
3 186 527 529
3 529 528 86
3 527 528 529
3 186 530 531
3 186 532 533
3 187 534 536
3 536 535 186
3 534 535 536
3 187 537 538
3 188 189 9
3 190 189 188
3 190 28 189
3 89 190 27
3 191 190 89
3 191 28 190
3 191 124 28
3 539 124 540
3 541 540 191
3 539 540 541
3 543 542 124
3 91 544 546
3 546 545 29
3 544 545 546
3 548 547 91
3 192 193 11
3 194 193 192
3 194 31 193
3 93 194 30
3 195 194 93
3 195 31 194
3 195 131 31
3 196 131 195
3 196 13 131
3 197 198 6
3 549 198 550
3 551 550 197
3 549 550 551
3 553 552 198
3 199 554 555
3 199 556 558
3 556 14 557
3 556 557 558
3 200 201 8
3 202 201 200
3 202 34 201
3 96 202 33
3 203 202 96
3 203 34 202
3 203 145 34
3 204 145 203
3 204 15 145
3 204 205 15
3 206 205 204
3 206 36 205
3 98 206 35
3 207 206 98
3 207 36 206
3 207 152 36
3 192 152 207
3 192 11 152
3 560 559 16
3 208 209 12
3 210 209 208
3 210 38 209
3 100 210 37
3 211 210 100
3 211 38 210
3 211 161 38
3 561 161 562
3 563 562 211
3 561 562 563
3 565 564 161
3 212 566 568
3 566 213 567
3 566 567 568
3 214 213 212
3 214 40 213
3 102 214 39
3 215 214 102
3 215 40 214
3 215 164 40
3 216 164 215
3 216 17 164
3 217 218 10
3 219 218 217
3 219 43 218
3 105 219 42
3 220 219 105
3 220 43 219
3 220 168 43
3 569 168 570
3 571 570 220
3 569 570 571
3 573 572 168
3 107 574 576
3 576 575 44
3 574 575 576
3 221 577 579
3 579 578 107
3 577 578 579
3 221 580 581
3 221 582 583
3 222 584 586
3 586 585 221
3 584 585 586
3 222 587 589
3 587 18 588
3 587 588 589
3 222 223 18
3 224 223 222
3 224 46 223
3 109 224 45
3 225 224 109
3 225 46 224
3 225 172 46
3 226 172 225
3 226 19 172
3 227 228 2
3 229 228 227
3 229 49 228
3 112 229 48
3 230 229 112
3 230 49 229
3 230 136 49
3 231 136 230
3 231 6 136
3 178 113 5
3 232 113 178
3 232 50 113
3 115 232 21
3 233 232 115
3 233 50 232
3 233 231 50
3 234 231 233
3 234 6 231
3 234 197 6
3 590 197 591
3 592 591 234
3 590 591 592
3 594 593 197
3 596 595 51
3 235 597 598
3 235 599 600
3 235 601 603
3 601 142 602
3 601 602 603
3 236 142 235
3 236 8 142
3 182 116 7
3 237 116 182
3 237 52 116
3 118 237 24
3 238 237 118
3 238 52 237
3 238 236 52
3 239 236 238
3 239 8 236
3 239 200 8
3 240 200 239
3 240 33 200
3 120 240 53
3 241 240 120
3 241 33 240
3 241 95 33
3 227 95 241
3 227 2 95
3 242 243 3
3 244 243 242
3 244 55 243
3 122 244 54
3 245 244 122
3 245 55 244
3 245 165 55
3 246 165 245
3 246 10 165
3 189 123 9
3 247 123 189
3 247 56 123
3 125 247 28
3 248 247 125
3 248 56 247
3 248 246 56
3 249 246 248
3 249 10 246
3 249 217 10
3 250 217 249
3 250 42 217
3 127 250 57
3 251 250 127
3 251 42 250
3 251 104 42
3 252 104 251
3 252 4 104
3 252 253 4
3 254 253 252
3 254 604 606
3 606 605 253
3 604 605 606
3 607 254 608
3 609 608 58
3 607 608 609
3 610 254 611
3 613 612 254
3 255 256 1
3 257 256 255
3 257 60 256
3 129 257 59
3 258 257 129
3 258 60 257
3 258 158 60
3 259 158 258
3 259 12 158
3 193 130 11
3 260 130 193
3 260 61 130
3 132 260 31
3 261 260 132
3 261 61 260
3 261 259 61
3 262 259 261
3 262 12 259
3 262 208 12
3 263 208 262
3 263 37 208
3 134 263 62
3 264 263 134
3 264 37 263
3 264 99 37
3 265 99 264
3 265 614 616
3 616 615 99
3 614 615 616
3 228 94 2
3 266 94 228
3 266 32 94
3 137 266 49
3 267 266 137
3 267 32 266
3 267 196 32
3 268 196 267
3 268 13 196
3 198 138 6
3 269 138 198
3 269 64 138
3 617 269 618
3 270 619 621
3 619 269 620
3 619 620 621
3 270 64 269
3 270 268 64
3 271 268 270
3 271 13 268
3 271 135 13
3 272 135 271
3 272 63 135
3 622 272 623
3 624 623 65
3 622 623 624
3 625 272 626
3 627 63 628
3 629 628 272
3 627 628 629
3 630 265 631
3 632 631 63
3 630 631 632
3 633 265 634
3 636 635 265
3 637 212 638
3 273 639 641
3 639 212 640
3 639 640 641
3 273 39 212
3 140 642 644
3 642 273 643
3 642 643 644
3 274 273 140
3 274 39 273
3 274 101 39
3 275 101 274
3 275 3 101
3 143 645 646
3 276 647 649
3 649 648 143
3 647 648 649
3 276 650 651
3 276 652 654
3 652 199 653
3 652 653 654
3 277 199 276
3 277 14 199
3 201 144 8
3 278 144 201
3 278 67 144
3 146 278 34
3 279 278 146
3 279 67 278
3 279 277 67
3 280 277 279
3 280 14 277
3 280 141 14
3 281 141 280
3 281 66 141
3 148 281 68
3 282 281 148
3 282 66 281
3 282 275 66
3 283 275 282
3 283 3 275
3 283 242 3
3 284 242 283
3 284 54 242
3 150 284 69
3 285 284 150
3 285 54 284
3 285 121 54
3 286 121 285
3 286 9 121
3 205 151 15
3 287 151 205
3 287 70 151
3 153 287 36
3 288 287 153
3 288 70 287
3 288 286 70
3 289 286 288
3 289 9 286
3 289 188 9
3 290 188 289
3 290 27 188
3 155 290 71
3 291 290 155
3 291 27 290
3 291 88 27
3 255 88 291
3 255 1 88
3 157 655 657
3 657 656 72
3 655 656 657
3 660 659 157
3 658 659 660
3 662 661 16
3 663 83 664
3 292 665 667
3 665 83 666
3 665 666 667
3 292 0 83
3 292 80 0
3 668 80 669
3 670 669 292
3 668 669 670
3 671 22 672
3 673 672 80
3 671 672 673
3 674 22 675
3 677 676 22
3 256 87 1
3 293 87 256
3 293 26 87
3 159 293 60
3 294 293 159
3 294 26 293
3 294 187 26
3 295 187 294
3 295 678 680
3 680 679 187
3 678 679 680
3 209 160 12
3 296 160 209
3 296 73 160
3 162 296 38
3 297 296 162
3 297 73 296
3 297 295 73
3 298 295 297
3 298 681 683
3 683 682 295
3 681 682 683
3 298 684 685
3 687 686 298
3 213 688 689
3 691 690 213
3 693 692 40
3 243 103 3
3 299 103 243
3 299 41 103
3 166 299 55
3 300 299 166
3 300 41 299
3 300 216 41
3 301 216 300
3 301 17 216
3 218 167 10
3 302 167 218
3 302 74 167
3 169 302 43
3 303 302 169
3 303 74 302
3 303 301 74
3 694 301 695
3 696 695 303
3 694 695 696
3 697 17 698
3 699 698 301
3 697 698 699
3 701 700 17
3 702 72 703
3 170 704 706
3 704 705 706
3 304 707 709
3 709 708 170
3 707 708 709
3 304 710 712
3 710 72 711
3 710 711 712
3 304 156 72
3 305 156 304
3 305 16 156
3 223 171 18
3 306 171 223
3 306 75 171
3 173 306 46
3 307 306 173
3 307 75 306
3 307 305 75
3 308 305 307
3 308 16 305
3 308 713 715
3 715 714 16
3 713 714 715
3 309 716 718
3 718 717 308
3 716 717 718
3 309 719 720
3 175 309 76
3 310 309 175
3 310 721 723
3 723 722 309
3 721 722 723
3 310 724 725
3 727 726 310
3 253 110 4
3 311 110 253
3 311 47 110
3 728 311 729
3 730 311 731
3 732 47 733
3 734 733 311
3 732 733 734
3 735 226 736
3 737 736 47
3 735 736 737
3 738 226 739
3 740 19 741
3 742 741 226
3 740 741 742
3 312 743 744
3 312 745 747
3 745 19 746
3 745 746 747
3 312 176 19
3 313 176 312
3 313 77 176
3 748 313 749
3 750 313 751
3 752 77 753
3 754 753 313
3 752 753 754
3 756 755 77
