ply
format ascii 1.0
element vertex 490
property float x
property float y
property float z
element face 536
property list uchar int vertex_index
end_header
-8.31771 55.473354 -37.535313
-13.316051 36.363949 -35.584911
-6.723172 41.9921 -50.233326
-10.017678 46.865871 -36.082592
-11.051484 40.14505 -43.728619
-7.411442 48.961353 -42.78886
-14.465016 35.458904 -15.865112
-12.704807 40.438828 -21.537243
-16.351032 32.634373 -45.223782
-10.309491 55.793217 -31.664524
-11.489249 44.129005 -28.53546
-8.984982 51.662094 -36.743618
-8.93571 47.995613 -39.415958
-7.887032 52.45731 -39.655338
-14.810169 34.042225 -40.267891
-9.174723 41.433815 -47.086212
-11.662385 37.875607 -48.197468
-9.322148 38.728363 -51.628181
-12.452987 47.555382 -22.91923
-12.071302 42.363285 -24.894495
-11.580011 49.105259 -26.374393
-10.789449 50.360813 -29.872423
-11.38198 55.44355 -28.254183
-11.487615 41.542786 -35.49815
-12.388013 38.535378 -39.677521
-10.439343 43.210075 -39.474957
-8.99013 44.558102 -43.012707
-7.0645 45.324532 -46.380054
-14.758267 28.065895 -14.86841
-13.977738 30.601898 -17.48362
-13.420637 33.027588 -20.512766
-13.481248 38.18961 -18.552414
-13.420305 45.363052 -19.803753
-13.58235 36.124573 -44.329529
-9.247067 56.001606 -34.891094
-12.987142 35.406891 -23.904795
-12.598077 37.648617 -27.662374
-12.160514 39.632729 -31.681627
-10.87678 45.556858 -32.174492
-9.941852 51.027637 -33.450451
-6.220437 53.947021 -42.580463
-5.363359 50.002552 -45.636826
-4.644026 45.961372 -48.896469
-1.652936 45.98177 -50.938408
-3.835075 41.994678 -52.429771
-8.603057 53.853657 -37.120415
-8.456818 52.171177 -38.188198
-8.085259 54.195 -38.482601
-14.432503 33.811165 -35.726913
-14.087134 34.980064 -37.828056
-8.031091 41.745293 -48.788715
-9.16335 40.095531 -49.378063
-7.974351 40.239117 -50.975651
-6.601257 40.393776 -52.200508
-12.41248 50.859859 -23.85203
-11.985545 48.271912 -24.674063
-11.9248 51.694824 -25.55138
-11.474218 52.196907 -27.179245
-11.900061 54.910618 -26.570856
-10.702951 44.231075 -35.751167
-11.056221 42.303848 -37.519855
-10.256232 44.763855 -37.676701
-8.195582 48.569675 -41.183437
-8.936642 46.276489 -41.133022
-8.159945 46.693619 -42.878742
-8.138738 44.941982 -44.707764
-7.223319 47.072838 -44.588829
-15.108044 30.213139 -14.185631
-14.557589 31.872013 -15.358909
-14.336168 29.296797 -16.126179
-14.089011 33.171097 -16.597887
-13.69401 34.360935 -17.905735
-13.9672 36.915478 -17.111568
-13.439619 48.981102 -20.741711
-11.751978 39.464539 -41.733471
-12.988426 37.199242 -41.910824
-12.313851 38.0256 -44.003769
-12.99744 36.742798 -21.007111
-13.169099 34.40115 -22.106884
-12.721889 37.845955 -22.613056
-11.7729 43.236679 -26.778606
-12.242721 39.791214 -26.202906
-11.991109 40.859646 -28.036385
-12.383564 38.709053 -29.627024
-11.729009 41.802876 -30.012817
-11.444731 42.641838 -31.962002
-11.181571 44.964134 -30.371693
-10.539385 53.083946 -30.709732
-10.361786 50.750168 -31.731165
-10.062067 53.429501 -32.453697
-9.599533 53.652729 -34.033096
-9.79201 56.000435 -33.276203
-4.107501 50.37516 -46.933315
-4.969986 47.993504 -47.258339
-3.659826 48.19965 -48.44323
0.414855 43.155273 -52.975048
-0.02398 45.60894 -51.751545
-1.165741 43.70528 -52.341877
-2.673777 43.862019 -51.659565
-2.282872 41.716785 -53.22506
-9.453408 49.429028 -36.335682
-9.540197 47.329403 -37.79604
-8.913242 49.895042 -38.0014
-8.340654 50.296677 -39.55389
-7.596584 50.856209 -41.176811
-15.521549 33.326523 -42.682533
-10.149753 40.910599 -45.420994
-11.384958 38.885056 -45.963177
-10.302217 39.628517 -47.728668
-10.535795 38.438168 -49.948914
-12.510109 43.87429 -22.249516
-12.387616 41.246075 -23.143606
-12.146056 44.878746 -23.823683
-11.784695 45.678055 -25.576559
-11.446898 46.704472 -27.250359
-11.111233 47.228924 -29.075972
-11.18947 49.643135 -28.10586
-11.029347 52.671524 -28.855457
-10.837894 55.692764 -29.99136
-12.317601 38.992512 -35.639534
-12.942736 37.409317 -37.630112
-11.900513 39.956127 -37.527935
-11.385362 40.809872 -39.515213
-10.721015 41.648434 -41.436886
-9.621359 45.615093 -39.436447
-9.749341 43.958996 -41.310238
-9.955624 42.354092 -43.272144
-9.128735 42.856636 -44.975639
-8.041819 43.408039 -46.659672
-6.907622 43.542763 -48.345188
-14.138363 28.22607 -18.481714
-13.93973 29.476204 -20.112247
-13.671797 31.883804 -18.950274
-13.317772 35.478882 -19.463528
-13.058972 39.278133 -20.050997
-13.925947 40.594639 -17.715031
-13.390189 41.711315 -19.158764
-12.927786 43.048447 -20.683096
-12.904797 46.531006 -21.36405
-12.942358 50.311569 -22.288612
-13.557428 36.205601 -39.878819
-14.224134 35.185528 -42.27549
-14.936294 34.322075 -44.814251
-12.722005 37.019463 -46.477886
-14.05138 35.385147 -46.908142
-8.735191 55.741337 -36.353699
-13.624011 35.2132 -33.606567
-13.724003 31.004671 -21.839811
-13.57262 32.240467 -23.577852
-13.448875 33.382374 -25.448629
-12.456399 38.970131 -24.406326
-12.780246 36.62899 -25.876959
-12.922072 36.854191 -31.382977
-12.701741 37.820717 -33.564117
-11.857535 40.618622 -33.568779
-11.092814 43.566322 -33.79401
-10.468621 46.25811 -34.202938
-10.73413 47.95631 -30.97842
-10.359898 48.356289 -32.8629
-9.925537 48.920334 -34.65696
-9.472488 51.556232 -35.077194
-9.078972 53.773941 -35.700096
-7.511405 54.807365 -39.735538
-7.134723 53.262539 -41.090168
-6.790332 51.456131 -42.59586
-5.809237 51.926022 -44.05735
-6.495904 49.493874 -44.213169
-6.167493 47.600155 -45.962772
-5.939326 45.754436 -47.639462
-5.564865 43.915035 -49.570824
-2.16398 48.163864 -49.574581
-3.172145 46.031532 -50.03083
-4.209932 43.96579 -50.681431
-5.369144 41.944572 -51.52702
-5.091911 40.360626 -53.25835
-12.174961 52.908343 -25.212513
-12.16864 51.277341 -24.701705
-12.418801 52.49086 -24.362838
-12.162592 54.516239 -25.722251
-11.91243 53.302721 -26.061118
-12.174961 52.908343 -25.212513
-14.511302 33.665458 -15.612011
-14.806565 33.012262 -15.02748
-14.760279 34.805708 -15.280582
-17.128733 31.819868 -45.493586
-16.69326 32.005683 -44.092053
-16.728588 32.414282 -46.598305
-17.128733 31.819868 -45.493586
-3.412743 50.427349 -47.539513
-3.69433 51.652414 -46.821032
-3.188905 49.339594 -48.29447
-3.883663 49.287405 -47.688272
-3.412743 50.427349 -47.539513
-0.986663 42.502764 -53.062195
-0.375443 43.430277 -52.658462
-0.196365 42.22776 -53.378781
-1.545228 41.508516 -53.503787
-1.724306 42.711033 -52.783468
-0.986663 42.502764 -53.062195
-2.135178 40.621155 -54.0176
-1.545228 41.508516 -53.503787
-15.496534 32.972979 -40.332503
-15.040344 33.402181 -39.129986
-15.165859 33.684374 -41.475212
-15.852224 32.615127 -41.539823
-15.496534 32.972979 -40.332503
-9.97521 38.065027 -51.998962
-10.582033 37.919929 -51.159329
-9.928971 38.583265 -50.788547
-9.353101 38.103269 -52.820518
-9.97521 38.065027 -51.998962
-15.015676 27.23277 -14.285323
-15.190565 28.306392 -13.943933
-14.933155 29.139517 -14.527021
-14.90052 26.185201 -14.674621
-15.015676 27.23277 -14.285323
-14.726405 26.851787 -15.243204
-14.90052 26.185201 -14.674621
-14.180298 28.784726 -17.228249
-14.359513 28.132176 -16.549529
-14.156953 29.949348 -16.804899
-14.058051 29.413984 -17.982667
-14.260611 27.596812 -17.727296
-14.180298 28.784726 -17.228249
-14.242812 42.002607 -17.439681
-14.193396 40.06346 -17.109921
-13.405247 43.537183 -19.481259
-13.669069 43.054678 -18.812793
-13.684128 44.880547 -19.135288
-13.298148 51.471445 -21.919561
-13.190988 49.646335 -21.515161
-13.546778 50.806212 -21.14611
-12.995594 51.970528 -22.74049
-13.298148 51.471445 -21.919561
-14.289303 35.053942 -48.270229
-13.570849 35.785923 -47.974411
-14.8064 34.555329 -47.239863
-14.289303 35.053942 -48.270229
-13.736846 34.597676 -32.506328
-14.16348 33.878176 -33.579473
-12.947235 36.099812 -27.49411
-13.03832 35.589998 -26.601402
-12.689162 37.138804 -26.769666
-12.874184 36.646937 -28.500999
-12.947235 36.099812 -27.49411
-7.377942 55.967367 -39.766506
-7.700236 55.532491 -39.119918
-6.67758 53.60478 -41.835316
-6.930827 54.462 -41.112679
-6.473685 54.804241 -41.857826
-5.586298 50.964287 -44.847088
-5.201995 52.223084 -44.757204
-4.979056 51.261348 -45.546942
-1.078606 47.059853 -50.716915
-0.264128 46.873438 -51.123483
-0.838458 45.795355 -51.344977
-1.908458 47.072817 -50.256495
-1.334128 48.1509 -50.035001
-1.078606 47.059853 -50.716915
-14.851511 33.286652 -36.859497
-15.004114 32.641722 -35.707414
-14.678826 33.871101 -37.910068
-14.851511 33.286652 -36.859497
-14.259819 34.395615 -36.777484
-14.448652 34.511145 -39.047973
-15.040344 33.402181 -39.129986
-14.678826 33.871101 -37.910068
-7.983128 39.56819 -51.977396
-8.657027 38.812813 -52.303661
-8.64825 39.48374 -51.301916
-7.296581 39.64552 -52.589824
-7.983128 39.56819 -51.977396
-7.287804 40.316446 -51.588079
-6.498983 39.663136 -53.170336
-7.296581 39.64552 -52.589824
-15.081792 32.182825 -14.440842
-15.406413 31.584887 -13.932825
-14.832816 31.042576 -14.77227
-15.081792 32.182825 -14.440842
-14.806565 33.012262 -15.02748
-13.731825 46.810719 -19.569957
-13.684128 44.880547 -19.135288
-13.741483 48.619743 -20.038936
-13.429962 47.172077 -20.272732
-13.731825 46.810719 -19.569957
-13.846272 50.332396 -20.424575
-13.741483 48.619743 -20.038936
-13.546778 50.806212 -21.14611
-13.846272 50.332396 -20.424575
-12.376351 37.031153 -48.619074
-11.778144 37.405135 -49.451756
-6.025426 55.178953 -42.537883
-6.473685 54.804241 -41.857826
-4.351127 51.447653 -46.195187
-3.69433 51.652414 -46.821032
-4.73543 50.188856 -46.285071
-4.979056 51.261348 -45.546942
-4.351127 51.447653 -46.195187
0.195437 44.382106 -52.363297
0.822572 45.433866 -52.032269
1.041989 44.207033 -52.64402
-2.921041 40.861326 -53.701021
-3.697143 41.000273 -53.303377
-3.058973 41.855732 -52.827416
-2.921041 40.861326 -53.701021
-2.135178 40.621155 -54.0176
-14.764401 36.753963 -15.583333
-14.760279 34.805708 -15.280582
-14.462931 37.495592 -16.184961
-14.764401 36.753963 -15.583333
-16.278519 32.351758 -42.821428
-15.852224 32.615127 -41.539823
-15.936291 32.980448 -43.953158
-16.69326 32.005683 -44.092053
-16.278519 32.351758 -42.821428
-11.214849 37.686415 -50.327478
-11.778144 37.405135 -49.451756
-11.09909 38.156887 -49.073191
-11.214849 37.686415 -50.327478
-10.582033 37.919929 -51.159329
-9.353101 38.103269 -52.820518
-8.657027 38.812813 -52.303661
1.258515 42.828997 -53.190747
1.041989 44.207033 -52.64402
0.582531 41.897575 -53.592207
1.258515 42.828997 -53.190747
-0.196365 42.22776 -53.378781
0.582531 41.897575 -53.592207
-15.402095 29.639603 -13.699637
-15.406413 31.584887 -13.932825
-15.402095 29.639603 -13.699637
-15.190565 28.306392 -13.943933
-14.515355 27.467238 -15.872089
-14.726405 26.851787 -15.243204
-14.547218 28.681346 -15.497295
-14.515355 27.467238 -15.872089
-14.359513 28.132176 -16.549529
-14.403138 26.576133 -18.313043
-14.260611 27.596812 -17.727296
-14.344283 27.197615 -19.162188
-14.403138 26.576133 -18.313043
-14.039047 28.851137 -19.296981
-14.244966 27.822682 -19.977455
-14.344283 27.197615 -19.162188
-14.214023 38.223879 -16.808189
-14.216108 36.187191 -16.48834
-14.462931 37.495592 -16.184961
-13.946573 38.755059 -17.4133
-14.214023 38.223879 -16.808189
-14.193396 40.06346 -17.109921
-13.936948 42.49634 -18.090927
-14.242812 42.002607 -17.439681
-13.658068 41.152977 -18.436898
-13.936948 42.49634 -18.090927
-13.669069 43.054678 -18.812793
-12.730655 52.244673 -23.522199
-12.677419 50.585714 -23.070321
-12.995594 51.970528 -22.74049
-12.418801 52.49086 -24.362838
-12.730655 52.244673 -23.522199
-12.906161 36.603081 -47.759283
-12.192195 37.447535 -47.337677
-12.376351 37.031153 -48.619074
-13.386692 36.202305 -46.693014
-12.906161 36.603081 -47.759283
-13.570849 35.785923 -47.974411
-15.248857 34.023792 -46.192917
-14.493837 34.853611 -45.861196
-14.8064 34.555329 -47.239863
-15.956226 33.179941 -46.397683
-15.643663 33.478224 -45.019016
-15.248857 34.023792 -46.192917
-16.728588 32.414282 -46.598305
-15.956226 33.179941 -46.397683
-8.103388 55.865486 -38.019806
-8.328911 56.388506 -37.399786
-12.189229 56.12359 -26.282301
-12.162592 54.516239 -25.722251
-11.903431 56.439036 -27.112648
-12.189229 56.12359 -26.282301
-11.644391 56.705501 -27.954312
-11.64102 55.177084 -27.41252
-11.903431 56.439036 -27.112648
-11.356204 56.940136 -28.792217
-11.644391 56.705501 -27.954312
-11.084161 57.064743 -29.660805
-11.109937 55.568157 -29.122771
-11.356204 56.940136 -28.792217
-10.756384 57.014488 -30.53423
-11.084161 57.064743 -29.660805
-10.492183 57.064715 -31.370812
-10.573692 55.74299 -30.827942
-10.756384 57.014488 -30.53423
-10.178406 57.132238 -32.242722
-10.492183 57.064715 -31.370812
-9.919666 57.235848 -33.048561
-10.05075 55.896826 -32.470364
-10.178406 57.132238 -32.242722
-9.642196 57.106959 -33.780077
-9.919666 57.235848 -33.048561
-9.369725 57.107544 -34.587523
-9.519538 56.001021 -34.083649
-9.642196 57.106959 -33.780077
-9.06259 56.943745 -35.386106
-9.369725 57.107544 -34.587523
-8.806652 56.81361 -36.117409
-8.991129 55.871471 -35.622397
-9.06259 56.943745 -35.386106
-8.537651 56.522498 -36.808979
-8.806652 56.81361 -36.117409
-8.328911 56.388506 -37.399786
-8.52645 55.607346 -36.944506
-8.537651 56.522498 -36.808979
-14.567726 33.177159 -34.639646
-15.004114 32.641722 -35.707414
-14.028257 34.512183 -34.66674
-14.567726 33.177159 -34.639646
-14.16348 33.878176 -33.579473
-14.18591 28.50681 -20.843792
-14.244966 27.822682 -19.977455
-14.078046 29.271043 -21.707574
-14.18591 28.50681 -20.843792
-13.831867 30.240437 -20.976029
-14.018937 29.957345 -22.569938
-14.078046 29.271043 -21.707574
-13.943246 30.575243 -23.438959
-14.018937 29.957345 -22.569938
-13.648312 31.622569 -22.708832
-13.919328 31.152385 -24.391492
-13.943246 30.575243 -23.438959
-13.857455 31.723338 -25.326881
-13.919328 31.152385 -24.391492
-13.510748 32.81142 -24.513241
-13.801932 32.388794 -26.323791
-13.857455 31.723338 -25.326881
-13.372635 33.96669 -26.387237
-13.11456 35.005682 -25.662794
-13.03832 35.589998 -26.601402
-13.801932 32.388794 -26.323791
-13.372635 33.96669 -26.387237
-12.766927 37.177155 -29.483324
-12.874184 36.646937 -28.500999
-12.49082 38.178835 -28.644699
-13.036181 36.249724 -30.3613
-12.766927 37.177155 -29.483324
-12.652818 37.781622 -30.505001
-13.385877 35.418171 -31.394534
-13.036181 36.249724 -30.3613
-13.273041 36.033696 -32.494772
-13.736846 34.597676 -32.506328
-13.385877 35.418171 -31.394534
-7.987163 55.226309 -38.49345
-8.201484 54.834177 -38.008957
-8.103388 55.865486 -38.019806
-7.798332 54.501182 -39.10907
-7.987163 55.226309 -38.49345
-7.700236 55.532491 -39.119918
-7.119168 55.234413 -40.435363
-7.377942 55.967367 -39.766506
-7.323064 54.034952 -40.412853
-7.119168 55.234413 -40.435363
-6.930827 54.462 -41.112679
-5.714341 54.251926 -43.259394
-6.025426 55.178953 -42.537883
-5.508741 53.241427 -43.997837
-5.201995 52.223084 -44.757204
-6.014837 52.936521 -43.318906
-5.714341 54.251926 -43.259394
-5.508741 53.241427 -43.997837
0.562201 46.79515 -51.473324
0.822572 45.433866 -52.032269
0.562201 46.79515 -51.473324
-0.264128 46.873438 -51.123483
-1.704264 49.398618 -49.34895
-1.334128 48.1509 -50.035001
-2.440983 49.321701 -48.860146
-1.704264 49.398618 -49.34895
-2.911903 48.181757 -49.008905
-3.188905 49.339594 -48.29447
-2.440983 49.321701 -48.860146
-5.74431 39.646561 -53.699257
-6.498983 39.663136 -53.170336
-5.846584 40.377201 -52.729429
-4.325561 40.183247 -53.717666
-4.463493 41.177652 -52.84406
-3.697143 41.000273 -53.303377
-4.951197 39.484959 -54.211174
-4.325561 40.183247 -53.717666
-5.74431 39.646561 -53.699257
-4.951197 39.484959 -54.211174
3 0 47 45
3 1 49 48
3 2 52 50
3 2 53 52
3 175 56 176
3 177 176 54
3 175 176 177
3 178 58 179
3 180 179 56
3 178 179 180
3 3 61 59
3 5 64 62
3 5 66 64
3 6 181 183
3 181 68 182
3 181 182 183
3 6 70 68
3 6 72 70
3 8 184 185
3 8 186 187
3 4 76 74
3 7 79 77
3 10 82 80
3 10 84 82
3 10 86 84
3 9 89 87
3 9 91 89
3 188 92 189
3 190 94 191
3 192 191 92
3 190 191 192
3 193 97 194
3 195 194 95
3 193 194 195
3 196 99 197
3 198 197 97
3 196 197 198
3 200 199 99
3 11 102 100
3 13 103 46
3 13 104 103
3 14 201 202
3 14 203 205
3 203 105 204
3 203 204 205
3 15 108 106
3 17 109 51
3 17 206 208
3 208 207 109
3 206 207 208
3 17 209 210
3 18 112 110
3 20 113 55
3 20 114 113
3 20 116 114
3 22 117 57
3 22 118 117
3 23 121 119
3 25 122 60
3 25 123 122
3 12 124 101
3 26 125 63
3 26 126 125
3 26 127 126
3 27 128 65
3 27 129 128
3 28 211 213
3 213 212 67
3 211 212 213
3 28 214 215
3 28 216 217
3 29 218 220
3 220 219 69
3 218 219 220
3 29 221 223
3 221 130 222
3 221 222 223
3 29 132 130
3 31 133 71
3 31 134 133
3 224 135 225
3 32 226 228
3 226 136 227
3 226 227 228
3 32 137 136
3 32 138 137
3 229 139 230
3 231 230 73
3 229 230 231
3 233 232 139
3 24 140 120
3 33 141 75
3 33 142 141
3 16 143 107
3 234 144 235
3 237 236 144
3 238 146 239
3 30 147 131
3 35 148 78
3 35 149 148
3 19 150 111
3 36 151 81
3 36 240 242
3 242 241 151
3 240 241 242
3 36 243 244
3 37 152 83
3 37 153 152
3 37 154 153
3 38 155 85
3 38 156 155
3 21 157 115
3 39 158 88
3 39 159 158
3 39 160 159
3 34 161 90
3 34 145 161
3 245 162 246
3 40 247 249
3 247 163 248
3 247 248 249
3 40 164 163
3 41 250 252
3 250 165 251
3 250 251 252
3 41 166 165
3 41 167 166
3 42 168 93
3 42 169 168
3 43 253 255
3 255 254 96
3 253 254 255
3 43 256 258
3 256 170 257
3 256 257 258
3 43 171 170
3 44 172 98
3 44 173 172
3 44 174 173
3 45 46 11
3 47 46 45
3 47 13 46
3 48 259 260
3 49 261 263
3 263 262 48
3 261 262 263
3 49 264 266
3 264 14 265
3 264 265 266
3 50 51 15
3 52 51 50
3 52 17 51
3 52 267 269
3 269 268 17
3 267 268 269
3 53 270 272
3 272 271 52
3 270 271 272
3 53 273 274
3 54 55 18
3 56 55 54
3 56 20 55
3 56 57 20
3 58 57 56
3 58 22 57
3 59 60 23
3 61 60 59
3 61 25 60
3 62 63 12
3 64 63 62
3 64 26 63
3 64 65 26
3 66 65 64
3 66 27 65
3 275 67 276
3 68 277 279
3 277 67 278
3 277 278 279
3 68 28 67
3 68 69 28
3 70 69 68
3 70 29 69
3 70 71 29
3 72 71 70
3 72 31 71
3 280 32 281
3 282 73 283
3 284 283 32
3 282 283 284
3 285 73 286
3 288 287 73
3 74 75 24
3 76 75 74
3 76 33 75
3 290 289 16
3 77 78 30
3 79 78 77
3 79 35 78
3 80 81 19
3 82 81 80
3 82 36 81
3 82 83 36
3 84 83 82
3 84 37 83
3 84 85 37
3 86 85 84
3 86 38 85
3 87 88 21
3 89 88 87
3 89 39 88
3 89 90 39
3 91 90 89
3 91 34 90
3 291 40 292
3 92 293 294
3 92 295 297
3 295 41 296
3 295 296 297
3 92 93 41
3 94 93 92
3 94 42 93
3 95 298 300
3 298 96 299
3 298 299 300
3 97 96 95
3 97 43 96
3 97 98 43
3 99 98 97
3 99 44 98
3 99 301 303
3 303 302 44
3 301 302 303
3 305 304 99
3 100 101 3
3 102 101 100
3 102 12 101
3 46 102 11
3 103 102 46
3 103 12 102
3 103 62 12
3 104 62 103
3 104 5 62
3 306 6 307
3 309 308 6
3 105 310 311
3 105 312 314
3 312 8 313
3 312 313 314
3 106 107 4
3 108 107 106
3 108 16 107
3 51 108 15
3 109 108 51
3 109 16 108
3 109 315 317
3 317 316 16
3 315 316 317
3 319 318 109
3 321 320 17
3 110 111 7
3 112 111 110
3 112 19 111
3 55 112 18
3 113 112 55
3 113 19 112
3 113 80 19
3 114 80 113
3 114 10 80
3 114 115 10
3 116 115 114
3 116 21 115
3 57 116 20
3 117 116 57
3 117 21 116
3 117 87 21
3 118 87 117
3 118 9 87
3 322 95 323
3 324 95 325
3 327 326 95
3 119 120 1
3 121 120 119
3 121 24 120
3 60 121 23
3 122 121 60
3 122 24 121
3 122 74 24
3 123 74 122
3 123 4 74
3 101 61 3
3 124 61 101
3 124 25 61
3 63 124 12
3 125 124 63
3 125 25 124
3 125 123 25
3 126 123 125
3 126 4 123
3 126 106 4
3 127 106 126
3 127 15 106
3 65 127 26
3 128 127 65
3 128 15 127
3 128 50 15
3 129 50 128
3 129 2 50
3 67 328 329
3 331 330 67
3 69 332 334
3 334 333 28
3 332 333 334
3 336 335 69
3 130 337 338
3 130 339 340
3 130 341 343
3 341 131 342
3 341 342 343
3 132 131 130
3 132 30 131
3 71 132 29
3 133 132 71
3 133 30 132
3 133 77 30
3 134 77 133
3 134 7 77
3 344 72 345
3 346 345 6
3 344 345 346
3 135 347 349
3 347 72 348
3 347 348 349
3 135 31 72
3 350 135 351
3 136 352 354
3 352 135 353
3 352 353 354
3 136 31 135
3 136 134 31
3 137 134 136
3 137 7 134
3 137 110 7
3 138 110 137
3 138 18 110
3 73 138 32
3 139 138 73
3 139 18 138
3 139 54 18
3 355 54 356
3 357 356 139
3 355 356 357
3 359 358 54
3 120 49 1
3 140 49 120
3 140 14 49
3 75 140 24
3 141 140 75
3 141 14 140
3 141 105 14
3 142 105 141
3 142 8 105
3 107 76 4
3 143 76 107
3 143 33 76
3 360 143 361
3 362 361 16
3 360 361 362
3 144 363 365
3 363 143 364
3 363 364 365
3 144 33 143
3 144 142 33
3 366 142 367
3 368 367 144
3 366 367 368
3 369 8 370
3 371 370 142
3 369 370 371
3 373 372 8
3 375 374 0
3 376 58 377
3 378 58 379
3 380 22 381
3 382 381 58
3 380 381 382
3 383 22 384
3 385 118 386
3 387 386 22
3 385 386 387
3 388 118 389
3 390 9 391
3 392 391 118
3 390 391 392
3 393 9 394
3 395 91 396
3 397 396 9
3 395 396 397
3 398 91 399
3 400 34 401
3 402 401 91
3 400 401 402
3 403 34 404
3 405 145 406
3 407 406 34
3 405 406 407
3 408 145 409
3 410 0 411
3 412 411 145
3 410 411 412
3 413 48 414
3 146 415 417
3 415 48 416
3 415 416 417
3 146 1 48
3 131 418 419
3 147 420 422
3 422 421 131
3 420 421 422
3 147 423 424
3 78 147 30
3 148 147 78
3 148 425 427
3 427 426 147
3 425 426 427
3 148 428 429
3 149 430 432
3 432 431 148
3 430 431 432
3 149 433 434
3 111 79 7
3 150 79 111
3 150 35 79
3 81 150 19
3 151 150 81
3 151 35 150
3 151 149 35
3 435 149 436
3 437 436 151
3 435 436 437
3 439 438 149
3 83 440 442
3 442 441 36
3 440 441 442
3 152 443 445
3 445 444 83
3 443 444 445
3 152 446 447
3 152 448 450
3 448 146 449
3 448 449 450
3 153 146 152
3 153 1 146
3 153 119 1
3 154 119 153
3 154 23 119
3 85 154 37
3 155 154 85
3 155 23 154
3 155 59 23
3 156 59 155
3 156 3 59
3 115 86 10
3 157 86 115
3 157 38 86
3 88 157 21
3 158 157 88
3 158 38 157
3 158 156 38
3 159 156 158
3 159 3 156
3 159 100 3
3 160 100 159
3 160 11 100
3 90 160 39
3 161 160 90
3 161 11 160
3 161 45 11
3 145 45 161
3 145 0 45
3 451 47 452
3 453 452 0
3 451 452 453
3 162 454 456
3 454 47 455
3 454 455 456
3 162 13 47
3 457 162 458
3 163 459 461
3 459 162 460
3 459 460 461
3 163 13 162
3 163 104 13
3 164 104 163
3 164 5 104
3 462 40 463
3 165 464 465
3 165 466 468
3 466 40 467
3 466 467 468
3 165 164 40
3 166 164 165
3 166 5 164
3 166 66 5
3 167 66 166
3 167 27 66
3 93 167 41
3 168 167 93
3 168 27 167
3 168 129 27
3 169 129 168
3 169 2 129
3 96 469 470
3 472 471 96
3 170 473 474
3 170 475 476
3 170 477 479
3 477 94 478
3 477 478 479
3 171 94 170
3 171 42 94
3 98 171 43
3 172 171 98
3 172 42 171
3 172 169 42
3 173 169 172
3 173 2 169
3 173 53 2
3 174 53 173
3 174 480 482
3 482 481 53
3 480 481 482
3 483 174 484
3 485 484 44
3 483 484 485
3 486 174 487
3 489 488 174
