ply
format ascii 1.0
element vertex 1105
property float x
property float y
property float z
element face 1142
property list uchar int vertex_index
end_header
40.655075 8.710883 15.501492
25.05158 -16.965988 38.801243
-29.876299 -34.131741 56.108456
-25.187193 -38.723969 69.342018
35.163773 -2.41998 29.430571
12.817087 -17.343248 49.885548
40.303638 8.885671 9.317939
-30.449402 -25.322344 62.964272
-29.98098 -22.005087 54.184189
1.093861 -26.374512 59.709003
-6.65915 -27.719862 66.274071
-28.348089 -28.200466 69.758018
-29.182905 -37.098438 63.974663
6.016594 -18.674139 56.747341
7.704626 -25.194916 52.28648
30.56296 -9.387258 35.340546
-29.219492 -30.772476 47.589344
-29.226894 -17.935442 45.534904
38.735832 3.83157 21.969328
29.656876 -0.929178 34.987762
24.604139 -8.572971 40.395767
18.944235 -16.679714 43.733902
13.417678 -24.490799 45.472515
40.869465 8.787722 12.716676
40.571171 4.811531 12.371601
40.733307 5.508382 15.518954
-0.417335 -23.080317 61.876362
-2.644738 -27.127972 63.142376
-4.295952 -23.785295 64.929474
-29.794418 -27.127285 66.778038
2.256576 -19.292833 60.107498
3.523823 -22.415831 58.299026
27.917074 -13.068299 37.377407
-29.560789 -32.412601 51.76609
-23.984638 -34.037586 71.387917
-20.525028 -33.956154 71.699799
-21.929878 -38.600021 70.43013
-29.844246 -35.648846 60.223473
27.09737 -4.609523 38.043121
15.447083 -13.401865 48.328075
18.605309 -12.844027 45.25375
15.942482 -16.997883 46.597435
16.118858 -20.568651 44.772312
13.12428 -21.019276 47.817677
5.485166 -28.925217 53.255791
8.269996 -28.527481 49.513977
37.123421 0.806706 25.730013
38.888012 -0.616054 22.629601
37.320824 -3.675751 26.452229
-30.148619 -29.921597 59.612709
-29.903419 -28.067541 55.166107
-30.406401 -23.663631 58.73645
2.382372 -29.706482 57.06509
-1.073466 -30.399834 60.845951
-4.592476 -31.13199 64.067032
-8.53687 -31.923498 67.012871
-25.877222 -28.90975 71.817986
-26.935791 -33.577995 69.82058
-27.569595 -38.21994 67.246864
-28.834593 -32.671753 67.240555
-29.853804 -31.604109 63.752811
9.41444 -18.056213 53.402626
10.140843 -21.436495 51.188656
6.881826 -21.822416 54.86808
4.457571 -25.731386 56.14056
33.062653 -5.829531 32.589104
22.113489 -20.801624 39.684662
-29.04705 -29.211967 43.262245
-29.450111 -26.418226 50.666203
-29.111029 -24.543421 46.405727
-29.014856 -22.816666 42.330906
-29.219425 -16.035212 41.589844
-12.601657 -32.701527 69.352112
-16.716722 -33.618279 70.956581
39.974537 6.548774 18.375612
34.764698 1.760077 28.689371
32.472393 -1.566561 32.328152
30.130564 -5.0619 35.355946
27.6784 -8.759763 37.789162
24.917807 -12.789892 39.725697
21.426613 -8.705928 43.251301
21.674429 -12.653236 42.439213
21.953358 -16.726311 41.140633
19.138426 -20.460039 42.04015
16.315239 -24.378296 42.603252
10.536965 -24.717312 48.843819
11.026199 -28.105347 46.067226
40.319271 11.869226 14.004839
40.371372 12.674108 10.559235
40.017666 2.603572 18.952267
40.837219 8.653033 14.321334
40.881977 7.023566 13.986848
40.761684 7.359546 15.415837
-1.072774 -21.441219 62.642334
-2.335075 -23.49773 63.431858
-3.130436 -21.840387 64.211891
0.946215 -21.239485 60.971775
26.532625 -15.117205 38.124084
-29.748796 -33.385689 54.020523
-24.677746 -36.459999 70.416985
-23.066412 -36.271362 70.98864
-23.621059 -38.637447 70.080643
-29.922941 -34.841213 58.151684
12.507751 -15.643501 50.816948
14.079217 -15.368703 49.201466
15.678853 -15.20767 47.540936
14.390539 -17.094971 48.233528
14.516489 -18.939236 47.286674
13.026464 -19.088751 48.902084
36.160046 -0.735868 27.629631
37.207008 -1.539673 26.213024
36.291164 -3.063656 28.020199
39.711094 8.702167 7.750458
39.986229 6.613249 9.182186
-30.306301 -27.740734 61.324902
-30.28437 -26.88648 59.197083
-30.479061 -24.697857 60.799358
1.683231 -28.063255 58.531219
0.677542 -30.048798 59.009941
-0.06238 -28.436176 60.340675
-4.558112 -27.304966 64.726326
-3.651413 -29.106884 63.654873
-5.563407 -29.426306 65.20311
-6.481363 -31.608952 65.546738
-7.487998 -29.910954 66.586014
-27.872368 -26.021009 70.874214
-26.6665 -26.359314 71.818321
-27.246344 -28.800772 70.883942
-26.402266 -31.296583 70.947701
-27.677036 -30.933332 69.84787
-27.975637 -33.387836 68.610741
-28.619127 -30.489262 68.57196
-30.207809 -26.466702 64.915527
-29.846704 -29.459387 65.286964
-30.175705 -28.542032 63.357944
-30.095839 -30.66877 61.746395
5.59165 -17.028368 57.469913
7.369805 -16.710365 55.852295
9.137611 -16.337784 54.179726
7.798002 -18.361347 55.026661
8.078602 -20.017088 54.195469
6.491523 -20.130072 55.87598
2.190876 -24.480795 59.098942
3.949891 -24.005981 57.36676
2.895292 -26.029871 57.85582
3.388194 -27.70417 56.630112
31.874191 -7.457372 34.003571
33.250893 -7.997907 32.660397
32.02327 -9.824326 34.018089
-29.101866 -30.103661 45.388626
-29.931562 -25.117548 54.638901
-29.676985 -27.226225 52.877228
-29.69717 -24.079338 52.392994
-29.29538 -22.178711 48.188457
-29.155766 -21.258713 46.05772
-29.031221 -23.507164 44.432713
-29.077568 -20.35339 43.838448
-29.087679 -19.566729 41.873882
-29.17963 -16.946796 43.458549
-19.339815 -36.2314 71.031792
-18.634686 -33.866791 71.433617
-17.453327 -35.988533 70.68763
-15.454394 -35.646347 70.102264
-16.277473 -37.988033 69.823349
-28.502781 -37.749283 65.704666
30.717278 0.768998 33.471348
32.269241 0.552687 31.93359
31.156809 -1.140516 33.567726
31.30061 -3.248356 33.918514
29.879456 -3.058725 35.246525
25.90757 -6.548185 39.253113
27.40403 -6.747977 37.954063
26.101082 -8.683758 39.112484
26.292017 -10.760223 38.859554
24.743242 -10.59639 40.140842
21.115177 -7.048378 43.646324
19.777769 -9.095914 44.784321
18.76911 -14.711129 44.573662
20.169907 -12.686754 43.79409
20.267649 -14.672518 43.185776
21.846851 -14.57246 41.838947
20.507509 -16.581854 42.3741
20.599754 -18.699467 41.553097
19.076857 -18.615683 42.861488
14.706029 -22.550602 45.185814
16.195604 -22.433672 43.731701
14.837501 -24.431904 43.987091
14.96814 -26.227703 42.863197
13.445151 -26.340841 44.337921
8.848519 -23.202618 51.885086
10.372181 -23.020149 50.062641
9.129229 -24.862999 50.598522
8.521742 -30.061325 48.18729
9.641844 -28.178741 47.827469
40.442619 12.292892 12.330823
39.41888 5.307137 20.088066
40.044506 4.682498 18.645746
39.483093 3.243106 20.471823
40.694817 8.785225 11.024148
40.504761 6.718512 10.826216
40.801186 6.835083 12.458958
40.76054 5.072699 13.980565
40.591286 3.408828 15.635812
0.330327 -24.759407 60.878048
-0.756314 -26.773201 61.467625
-1.445637 -25.065933 62.450714
-3.394804 -25.392035 64.053101
-5.509945 -25.671385 65.655548
-28.852663 -25.577847 69.651245
-29.190262 -27.814709 68.316978
-29.630827 -24.858021 68.164406
3.606582 -17.300421 59.195953
4.235347 -18.813049 58.412254
4.739806 -20.551138 57.556961
2.955258 -20.854485 59.219044
1.581754 -22.806707 60.110058
29.220163 -11.233628 36.473385
-29.482063 -34.34026 49.996632
-29.370855 -31.630707 49.537815
-29.345087 -14.346271 45.159836
-23.323378 -31.70331 72.085327
-21.60508 -31.483295 72.239944
-22.263813 -33.976601 71.706818
-21.240946 -36.341579 71.147095
28.403278 -2.775601 36.576351
26.839256 -2.772601 38.027786
25.622061 -4.644882 39.385014
24.362707 -6.629763 40.631691
16.840464 -11.47457 47.334427
18.368309 -11.089802 45.868732
17.007971 -13.247571 46.749985
17.328856 -14.860579 45.94701
17.465202 -16.7826 45.120213
17.572969 -18.722448 44.205048
16.079395 -18.774784 45.682911
14.639814 -20.624765 46.307877
13.300106 -22.661705 46.690659
6.48509 -27.159231 52.837105
7.941648 -26.893776 50.986008
6.891244 -28.759459 51.346085
38.012604 2.312611 23.784576
38.840622 1.613489 22.335985
38.070541 -0.017912 24.297375
38.126541 -2.112819 24.613033
-29.996084 -32.002209 57.734886
-29.892525 -31.133078 55.751354
-30.079815 -29.000597 57.508373
-30.152893 -25.993744 57.003616
-30.222595 -22.795403 56.471497
-1.775797 -28.72917 62.000099
-2.784225 -30.733299 62.491901
-9.379332 -34.211117 67.169006
-24.960546 -31.447632 71.697639
-25.566799 -33.770176 70.796364
-26.045921 -36.234825 69.68293
-26.523405 -38.537075 68.3853
-27.250443 -35.883148 68.645561
-28.297064 -35.526741 67.181747
-29.028313 -34.876801 65.691887
-29.342772 -30.031147 67.029175
-29.465322 -32.07983 65.58094
-29.534822 -34.347233 63.930462
-29.867197 -33.479427 62.062744
-30.003075 -32.852692 59.922474
10.904031 -16.00721 52.428459
11.205385 -17.62607 51.583641
11.425893 -19.328333 50.649647
9.880536 -19.641945 52.303875
8.529753 -21.548481 53.068584
7.211898 -23.582157 53.730923
5.291692 -22.106331 56.533367
5.61021 -23.764694 55.571468
6.110287 -25.424841 54.228432
5.064185 -27.211212 54.713566
4.047543 -29.229889 55.090958
34.100128 -4.084949 31.117119
35.333397 -4.560281 29.682201
34.364891 -6.276489 31.193306
23.596451 -19.013237 39.257484
-29.698479 -30.38282 53.444572
-29.488457 -29.508865 51.233082
-29.292578 -28.565872 49.102184
-29.482155 -23.195496 50.312351
-29.257786 -25.331745 48.521057
-29.129696 -27.678421 46.899349
-29.029934 -26.904034 44.758141
-28.998661 -25.868069 42.866589
-8.68831 -28.222052 67.61264
-9.625246 -30.22863 67.984238
-10.585602 -32.388054 68.26844
-11.378515 -34.780609 68.306641
-19.768932 -31.696321 72.036087
-17.845306 -31.452621 71.649979
-14.765533 -33.191704 70.296471
-13.356182 -35.061356 69.307556
40.27116 9.438008 16.339273
40.419041 7.793043 16.702471
39.875675 8.435189 17.871088
39.281406 7.23893 19.678061
36.963448 2.874968 25.316425
36.009033 1.398601 27.194443
34.990105 -0.211322 29.044464
33.628654 0.260908 30.530287
33.910904 -1.803721 30.801851
32.759815 -3.619425 32.507366
31.623959 -5.318494 33.976234
30.402126 -7.201839 35.3549
28.576099 -4.774766 36.731319
28.957863 -6.799733 36.607555
29.041607 -9.04407 36.645645
27.768097 -10.954189 37.660599
26.353823 -12.941419 38.58707
24.990801 -14.895675 39.295021
22.765509 -6.732368 42.096581
23.038406 -8.627262 41.775726
19.985865 -10.807499 44.34193
21.587494 -10.588039 42.884071
23.115662 -10.695435 41.509689
23.319275 -12.641059 41.038868
23.442429 -14.689781 40.516872
23.452465 -16.897465 39.95771
22.02989 -18.78973 40.428463
20.571239 -20.785604 40.782227
19.069258 -22.557795 41.182671
17.603418 -20.636032 43.299927
17.665379 -22.427464 42.388508
11.703352 -21.090332 49.470505
11.755582 -22.890448 48.40868
11.998279 -24.497948 47.136421
9.374726 -26.523771 49.250393
10.772861 -26.452747 47.442978
12.188868 -26.283529 45.792767
12.289086 -28.109129 44.559792
40.070057 11.091269 15.710295
40.570179 10.050116 14.829625
39.344952 10.975943 6.457502
40.019257 10.993119 8.131495
40.449383 10.888995 9.773938
40.689064 10.667967 11.473401
40.728523 10.377865 13.230712
40.486679 5.995924 16.912321
40.43375 3.921005 17.1849
40.297375 1.807937 17.459362
39.499657 1.076882 20.762091
-2.418188 -20.826342 63.743568
-2.101605 -21.640803 63.427112
-1.389358 -20.626759 62.95879
-1.389358 -20.626759 62.95879
-0.342041 -20.483189 62.147346
25.874529 -17.114798 38.20149
26.615051 -16.190407 37.862911
25.792102 -16.041597 38.462664
-29.812548 -33.758715 55.064489
-29.773333 -34.73013 54.213794
-29.837085 -35.103155 55.257761
-24.736971 -39.868191 69.12389
-23.953904 -39.82493 69.493202
-24.404126 -38.680708 69.711331
-25.447325 -39.84481 68.703957
-24.736971 -39.868191 69.12389
-29.870148 -35.548434 56.253193
-29.893469 -35.90317 57.274807
-29.89962 -34.486477 57.13007
-29.837085 -35.103155 55.257761
-29.870148 -35.548434 56.253193
-29.217197 -31.868248 46.7621
-29.27753 -32.284574 47.751272
-29.160679 -30.438068 46.488985
-29.158385 -31.53384 45.661741
-29.217197 -31.868248 46.7621
-29.19133 -19.597077 45.796312
-29.256738 -19.998747 46.894112
-29.292302 -18.337111 46.632703
-17.851723 -37.156692 70.476993
-18.396571 -36.109966 70.859711
-18.794967 -37.278126 70.649074
-17.263796 -38.156442 70.044853
-16.8654 -36.988283 70.255489
-17.851723 -37.156692 70.476993
-16.664285 -39.125122 69.593647
-17.263796 -38.156442 70.044853
-28.932653 -38.484079 64.071503
-28.592591 -38.809501 64.936504
-28.842843 -37.423861 64.839664
30.187077 -0.08009 34.229555
30.003056 0.910977 34.136839
29.472855 0.061889 34.895046
19.010232 -9.191245 45.529229
19.68152 -8.159357 44.952185
9.207038 -29.960175 47.306832
8.636836 -30.884431 47.517994
-29.099077 -24.073051 69.534039
-28.649109 -24.38792 70.187496
-29.488159 -23.713138 68.790619
-29.241745 -25.217934 68.907826
-29.099077 -24.073051 69.534039
2.931579 -18.296627 59.651725
2.604968 -17.400968 60.022551
1.929965 -18.397174 60.478323
28.670699 -13.27377 36.772516
29.322243 -12.356434 36.320505
28.568618 -12.150963 36.925396
-29.521426 -33.37643 50.881361
-29.568706 -34.843933 51.078466
-29.608069 -33.880104 51.963195
-21.044593 -38.595196 70.444123
-20.700126 -37.465975 70.802605
-21.585412 -37.4708 70.788612
-21.388675 -39.80583 70.035252
-21.044593 -38.595196 70.444123
-29.739292 -37.13422 60.339493
-29.721004 -36.087961 61.184601
26.668893 -1.874216 38.01552
27.477035 -1.850572 37.24522
24.871915 -4.680883 40.07907
25.48312 -3.724797 39.404393
24.242238 -5.673324 40.702408
24.992384 -5.637322 40.008353
24.871915 -4.680883 40.07907
15.382554 -12.55008 48.590946
14.615427 -13.558052 49.162355
16.143774 -12.438218 47.831251
16.079244 -11.586433 48.094122
15.382554 -12.55008 48.590946
37.74403 -4.002262 25.637765
38.146889 -3.220796 24.718167
37.723683 -2.894285 25.532631
40.361176 4.6961 11.551538
40.32797 5.649591 10.778845
40.537966 5.765021 11.598909
1.897584 -30.679139 57.29396
2.683443 -30.449418 56.344923
-0.651054 -31.204801 60.123593
0.22445 -31.029283 59.205588
-0.197962 -30.224316 59.927946
-1.507055 -31.424822 61.009974
-0.651054 -31.204801 60.123593
-4.15925 -32.019436 63.461963
-3.255124 -31.820091 62.674398
-3.68835 -30.932644 63.279466
-5.072499 -32.218013 64.247712
-4.15925 -32.019436 63.461963
-7.990459 -32.814349 66.446415
-6.962706 -32.657076 65.713348
-7.509117 -31.766225 66.279805
-8.958101 -33.067307 67.090938
-8.41169 -33.958158 66.524483
-7.990459 -32.814349 66.446415
-25.530607 -27.796384 72.153401
-25.925246 -26.521166 72.153568
-26.271861 -27.634532 71.818153
-25.110008 -29.095299 72.076881
-25.530607 -27.796384 72.153401
-25.418884 -30.178691 71.757812
-24.65167 -30.36424 72.016708
-25.110008 -29.095299 72.076881
2.683443 -30.449418 56.344923
3.516029 -30.211122 55.357857
3.214958 -29.468186 56.078024
33.847794 -8.294168 32.014626
33.290102 -9.117209 32.695841
22.920977 -20.948599 39.108238
23.662458 -20.054405 38.894649
22.85497 -19.907431 39.471073
-29.094083 -30.325004 42.524511
-29.097866 -30.75992 43.547832
-29.058444 -28.804935 42.251728
-29.105477 -29.917972 41.513994
-29.094083 -30.325004 42.524511
-29.505866 -21.552471 50.081339
-29.618538 -22.041638 51.185816
-29.032412 -24.128814 41.577051
-29.024315 -25.654515 41.844893
-29.006759 -24.342368 42.598748
-29.053137 -22.400973 41.358969
-29.032412 -24.128814 41.577051
-29.210535 -17.306835 40.778252
-29.144662 -19.072593 40.920271
-29.153552 -17.80097 41.731863
-29.292126 -15.556612 40.622057
-29.210535 -17.306835 40.778252
-29.334722 -13.867066 44.234578
-29.422024 -12.528768 45.090798
-9.709943 -28.28376 68.23423
-9.096295 -27.252943 67.948211
-10.178411 -29.287048 68.420029
-9.156778 -29.225341 67.798439
-9.709943 -28.28376 68.23423
-11.593629 -32.54479 68.810276
-11.137561 -31.41183 68.724517
-12.145588 -31.568566 69.266354
-16.323296 -32.397187 71.010368
-16.887588 -31.314357 71.357067
-17.281014 -32.53545 71.30328
-15.741128 -33.404992 70.626526
-15.347701 -32.183899 70.680313
-16.323296 -32.397187 71.010368
-13.799904 -36.285149 69.233173
-14.405288 -35.353852 69.70491
-14.84901 -36.577644 69.630527
-12.770646 -36.093527 68.772628
-13.799904 -36.285149 69.233173
-27.212741 -39.551853 67.119339
-26.689646 -39.71042 67.688557
-27.0465 -38.378507 67.816082
39.754242 9.339374 17.648276
40.073418 8.936598 17.10518
39.951985 9.840784 16.882368
38.839201 7.533391 20.363447
39.191438 8.219363 19.393473
38.913403 6.490257 20.67279
38.839201 7.533391 20.363447
36.841048 3.952259 25.091496
37.350323 3.620445 24.441686
35.386865 1.579339 27.941907
35.892775 2.382236 27.004156
35.270607 2.562974 27.75162
17.049889 -24.412295 41.96516
17.72496 -23.436878 41.857788
16.990309 -23.40288 42.49588
16.35927 -25.363502 42.064977
17.049889 -24.412295 41.96516
15.003324 -27.168045 42.337272
14.285852 -27.135362 43.028562
39.851433 10.667414 16.567879
39.692926 11.544785 16.301204
39.951985 9.840784 16.882368
40.170609 10.264639 16.024784
39.851433 10.667414 16.567879
39.459497 12.051614 6.706561
39.118603 12.123205 5.905551
39.79665 12.060202 7.543557
39.682105 10.984531 7.294498
39.459497 12.051614 6.706561
40.227947 12.82215 9.650472
40.135099 13.715809 10.073494
40.410377 11.781551 10.166586
40.266953 11.929593 9.257824
40.227947 12.82215 9.650472
35.873102 -4.939589 28.970796
35.391998 -5.759602 29.794106
1.322634 -19.408996 60.879928
1.929965 -18.397174 60.478323
0.667453 -20.382321 61.312067
1.601395 -20.266159 60.539637
1.322634 -19.408996 60.879928
-0.063279 -21.340352 61.807054
0.667453 -20.382321 61.312067
-0.342041 -20.483189 62.147346
27.272814 -15.233574 37.570435
27.965039 -14.209121 37.197096
27.224849 -14.092752 37.750746
27.272814 -15.233574 37.570435
26.615051 -16.190407 37.862911
-29.702072 -34.366648 53.090412
-29.773333 -34.73013 54.213794
-29.654792 -32.899145 52.893306
-29.608069 -33.880104 51.963195
-29.702072 -34.366648 53.090412
-23.095123 -39.817999 69.772182
-22.249533 -39.799285 69.946926
-22.775468 -38.618734 70.255387
-23.095123 -39.817999 69.772182
-23.953904 -39.82493 69.493202
-29.87613 -36.261711 58.297779
-29.836782 -36.665527 59.333674
-29.883593 -35.24503 59.187579
-29.87613 -36.261711 58.297779
-29.893469 -35.90317 57.274807
13.145762 -14.67887 50.406791
12.337491 -14.835621 51.215359
13.931494 -14.541471 49.599051
13.145762 -14.67887 50.406791
13.293484 -15.506102 50.009207
14.76315 -14.385284 48.76477
14.615427 -13.558052 49.162355
13.931494 -14.541471 49.599051
5.637721 -29.786154 52.554793
4.959385 -29.856238 53.514555
39.45409 7.493994 7.651665
39.326502 8.671871 6.996868
39.591657 6.449535 8.367529
39.45409 7.493994 7.651665
39.848662 7.657708 8.466322
39.735689 5.45142 9.139883
39.591657 6.449535 8.367529
40.392542 3.731954 12.378861
40.545285 3.909789 13.19917
-27.269434 -26.190162 71.346267
-26.977835 -24.930403 71.811649
-27.58077 -24.76125 71.339596
6.271888 -15.997346 57.001726
5.344682 -16.213262 57.797054
7.160965 -15.838344 56.192917
6.271888 -15.997346 57.001726
6.480728 -16.869366 56.661104
8.027296 -15.704413 55.406035
7.160965 -15.838344 56.192917
8.253708 -16.524074 55.016011
8.911199 -15.518123 54.56975
8.027296 -15.704413 55.406035
32.67629 -10.030418 33.374687
33.290102 -9.117209 32.695841
32.637081 -8.911116 33.339243
22.206386 -21.863644 39.250637
21.424495 -21.724631 39.812242
-29.125274 -31.205767 44.611023
-29.158385 -31.53384 45.661741
-29.074458 -29.657814 44.325435
-29.097866 -30.75992 43.547832
-29.125274 -31.205767 44.611023
-29.326545 -20.458746 47.95948
-29.412478 -21.044079 49.019392
-29.225573 -21.718712 47.123089
-29.326545 -20.458746 47.95948
-29.256738 -19.998747 46.894112
-13.175603 -31.793802 69.764873
-12.145588 -31.568566 69.266354
-15.260549 -37.748487 69.49107
-14.84901 -36.577644 69.630527
-15.865934 -36.81719 69.962806
-15.649524 -38.950428 69.305718
-15.260549 -37.748487 69.49107
-15.649524 -38.950428 69.305718
-16.664285 -39.125122 69.593647
-28.19397 -39.056116 65.714451
-27.727377 -39.291444 66.48555
-28.036188 -37.984611 66.475765
-28.19397 -39.056116 65.714451
-28.592591 -38.809501 64.936504
34.618749 2.794223 28.488323
35.270607 2.562974 27.75162
30.542287 1.750498 33.329216
30.003056 0.910977 34.136839
31.3137 1.64768 32.565728
30.542287 1.750498 33.329216
31.49326 0.660842 32.702469
32.089681 1.539525 31.79685
31.3137 1.64768 32.565728
20.350223 -7.135589 44.383187
21.048686 -6.073945 43.707363
20.446473 -8.072146 44.215322
20.350223 -7.135589 44.383187
19.68152 -8.159357 44.952185
13.524358 -27.19193 43.765924
14.285852 -27.135362 43.028562
14.206646 -26.284272 43.600559
9.76709 -29.018883 47.126921
9.081793 -29.120033 48.007379
9.207038 -29.960175 47.306832
10.459267 -28.982185 46.246799
10.334022 -28.142044 46.947347
9.76709 -29.018883 47.126921
11.097328 -28.997324 45.435121
10.459267 -28.982185 46.246799
40.186298 13.498137 11.000764
40.135099 13.715809 10.073494
40.221922 13.307529 11.886558
40.406996 12.4835 11.445029
40.186298 13.498137 11.000764
40.184534 13.003961 12.809034
40.221922 13.307529 11.886558
40.12286 12.792128 13.646043
40.380945 12.081059 13.167831
40.184534 13.003961 12.809034
39.150641 -0.94626 21.882664
38.835335 -1.770239 22.887032
40.639969 4.040374 14.003652
40.545285 3.909789 13.19917
40.665855 4.942115 13.176083
40.555342 3.208438 14.831276
40.639969 4.040374 14.003652
40.675913 4.240763 14.808188
40.469834 2.299104 15.765375
40.555342 3.208438 14.831276
-30.540541 -23.889647 62.747755
-30.471261 -24.298661 63.809406
-28.158962 -24.609502 70.79898
-27.58077 -24.76125 71.339596
-28.362516 -25.799428 70.26273
-28.158962 -24.609502 70.79898
-28.649109 -24.38792 70.187496
-29.817989 -23.317456 68.035797
-29.488159 -23.713138 68.790619
-29.910014 -24.441038 67.286678
-29.817989 -23.317456 68.035797
-29.99181 -25.57567 66.593494
-29.712623 -25.992653 67.471222
-29.910014 -24.441038 67.286678
-30.198505 -25.245378 65.662239
-30.001114 -26.796993 65.846782
-29.99181 -25.57567 66.593494
-30.350465 -24.87084 64.785034
-30.198505 -25.245378 65.662239
-30.471261 -24.298661 63.809406
-30.328606 -25.894523 63.939899
-30.350465 -24.87084 64.785034
3.336698 -16.486079 59.498622
2.604968 -17.400968 60.022551
4.352149 -16.349289 58.660074
3.336698 -16.486079 59.498622
4.599116 -17.164395 58.332933
5.344682 -16.213262 57.797054
4.352149 -16.349289 58.660074
29.975552 -11.394623 35.837728
30.64695 -10.471438 35.271309
29.891562 -10.310443 35.906965
29.975552 -11.394623 35.837728
29.322243 -12.356434 36.320505
28.670699 -13.27377 36.772516
27.965039 -14.209121 37.197096
-29.557588 -35.827469 50.220044
-29.568706 -34.843933 51.078466
-29.487265 -35.463375 49.187384
-29.557588 -35.827469 50.220044
-29.408816 -34.068466 48.954916
-29.487265 -35.463375 49.187384
-29.353212 -32.71369 48.725508
-29.408816 -34.068466 48.954916
-29.426459 -32.985484 49.767224
-29.295173 -31.201591 48.56358
-29.27753 -32.284574 47.751272
-29.353212 -32.71369 48.725508
-29.86795 -21.446433 53.121735
-30.014843 -20.309313 53.9811
-29.328893 -16.680578 46.345836
-29.292302 -18.337111 46.632703
-29.38799 -14.885993 46.158302
-29.285991 -16.140856 45.34737
-29.328893 -16.680578 46.345836
-29.456692 -13.088147 46.080179
-29.38799 -14.885993 46.158302
-29.422024 -12.528768 45.090798
-29.456692 -13.088147 46.080179
-22.464229 -31.593303 72.162635
-22.168344 -30.389833 72.4071
-23.027493 -30.49984 72.329792
-19.749561 -37.410885 70.744954
-20.290381 -36.28649 71.089443
-20.700126 -37.465975 70.802605
-18.794967 -37.278126 70.649074
-19.749561 -37.410885 70.744954
-21.388675 -39.80583 70.035252
-22.249533 -39.799285 69.946926
-29.215583 -38.261149 63.180884
-29.390334 -36.812758 63.060196
-29.739292 -37.13422 60.339493
-29.836782 -36.665527 59.333674
28.885846 -0.92886 35.725208
29.472855 0.061889 34.895046
28.259047 -1.852072 36.519503
29.030077 -1.852389 35.782056
28.885846 -0.92886 35.725208
27.621267 -2.774101 37.302069
28.259047 -1.852072 36.519503
27.477035 -1.850572 37.24522
26.091718 -2.788656 38.725779
26.668893 -1.874216 38.01552
26.230658 -3.708741 38.7064
26.091718 -2.788656 38.725779
25.48312 -3.724797 39.404393
16.787723 -10.524045 47.543573
16.079244 -11.586433 48.094122
17.54158 -10.380573 46.804282
16.787723 -10.524045 47.543573
17.604387 -11.282186 46.601579
18.305502 -10.188189 46.071434
17.54158 -10.380573 46.804282
6.34076 -29.703275 51.59994
6.188205 -28.842338 52.300938
5.637721 -29.786154 52.554793
7.015909 -29.571762 50.672647
6.34076 -29.703275 51.59994
7.705285 -29.455773 49.756593
7.58062 -28.64347 50.430031
7.015909 -29.571762 50.672647
7.831157 -30.222696 49.09325
8.395869 -29.294403 48.850634
7.705285 -29.455773 49.756593
8.011108 -31.024054 48.338232
7.831157 -30.222696 49.09325
8.636836 -30.884431 47.517994
8.011108 -31.024054 48.338232
38.4546 -2.518622 23.878748
38.835335 -1.770239 22.887032
38.507277 -1.364437 23.621317
38.4546 -2.518622 23.878748
38.146889 -3.220796 24.718167
40.068704 5.596959 9.95683
40.245495 6.665881 10.004201
40.32797 5.649591 10.778845
39.735689 5.45142 9.139883
40.068704 5.596959 9.95683
40.361176 4.6961 11.551538
40.392542 3.731954 12.378861
-30.555371 -23.577403 61.665298
-30.464232 -25.010101 61.881815
-30.540541 -23.889647 62.747755
-30.557341 -22.993204 60.657578
-30.555371 -23.577403 61.665298
-30.52101 -22.476091 59.626123
-30.442731 -24.180744 59.767904
-30.557341 -22.993204 60.657578
-30.458042 -22.0111 58.532234
-30.52101 -22.476091 59.626123
-30.366139 -21.576987 57.399757
-30.314498 -23.229517 57.603973
-30.458042 -22.0111 58.532234
-30.258261 -21.105457 56.229782
-30.366139 -21.576987 57.399757
-30.137454 -20.710299 55.086129
-30.101788 -22.400245 55.327843
-30.258261 -21.105457 56.229782
-30.014843 -20.309313 53.9811
-30.137454 -20.710299 55.086129
1.045168 -30.850297 58.266386
1.897584 -30.679139 57.29396
1.529957 -29.87764 58.037515
1.045168 -30.850297 58.266386
0.22445 -31.029283 59.205588
-2.362435 -31.591555 61.832949
-1.507055 -31.424822 61.009974
-1.928845 -30.566567 61.668926
-2.362435 -31.591555 61.832949
-3.255124 -31.820091 62.674398
-6.016942 -32.456494 64.987565
-5.072499 -32.218013 64.247712
-5.536919 -31.370471 64.806885
-6.016942 -32.456494 64.987565
-6.962706 -32.657076 65.713348
-8.791296 -35.133707 66.545074
-8.41169 -33.958158 66.524483
-9.775434 -35.386311 67.16986
-8.791296 -35.133707 66.545074
-26.290617 -25.185758 72.176548
-26.977835 -24.930403 71.811649
-26.290617 -25.185758 72.176548
-25.925246 -26.521166 72.153568
-23.833086 -30.492079 72.210552
-23.027493 -30.49984 72.329792
-24.141962 -31.575471 71.891483
-23.833086 -30.492079 72.210552
-24.65167 -30.36424 72.016708
-29.566292 -35.437155 63.038095
-29.390334 -36.812758 63.060196
-29.358863 -35.722836 63.952562
-29.73248 -35.003252 62.104236
-29.566292 -35.437155 63.038095
-29.701009 -33.91333 62.996603
-29.855722 -34.564137 61.143108
-29.721004 -36.087961 61.184601
-29.73248 -35.003252 62.104236
9.772438 -15.353727 53.757128
8.911199 -15.518123 54.56975
10.655648 -15.188441 52.881495
9.772438 -15.353727 53.757128
10.020821 -16.172497 53.304092
11.535631 -15.017475 52.021114
10.655648 -15.188441 52.881495
11.705891 -15.825356 51.622704
12.337491 -14.835621 51.215359
11.535631 -15.017475 52.021114
4.240573 -30.008575 54.432139
4.959385 -29.856238 53.514555
4.766355 -29.077553 54.173375
4.240573 -30.008575 54.432139
3.516029 -30.211122 55.357857
34.907746 -6.617706 30.549658
35.391998 -5.759602 29.794106
34.849144 -5.418385 30.437753
34.404793 -7.433459 31.281081
33.807892 -7.137198 31.926852
33.847794 -8.294168 32.014626
34.907746 -6.617706 30.549658
34.404793 -7.433459 31.281081
31.377105 -10.689971 34.610081
31.293115 -9.605792 34.679318
30.64695 -10.471438 35.271309
32.108122 -10.998772 33.94854
31.377105 -10.689971 34.610081
32.67629 -10.030418 33.374687
32.108122 -10.998772 33.94854
24.422874 -19.084526 38.68964
25.150439 -18.060901 38.46152
24.324016 -17.989612 39.029364
24.422874 -19.084526 38.68964
23.662458 -20.054405 38.894649
22.920977 -20.948599 39.108238
22.206386 -21.863644 39.250637
-29.726045 -22.483559 52.226137
-29.839075 -23.042212 53.288592
-29.86795 -21.446433 53.121735
-29.589662 -23.637417 51.352672
-29.726045 -22.483559 52.226137
-29.618538 -22.041638 51.185816
-29.388768 -22.687103 49.250404
-29.505866 -21.552471 50.081339
-29.412478 -21.044079 49.019392
-29.03425 -27.132986 42.0539
-29.058444 -28.804935 42.251728
-29.022855 -27.540018 43.064417
-29.03425 -27.132986 42.0539
-29.024315 -25.654515 41.844893
-29.089549 -20.776005 41.130457
-29.053137 -22.400973 41.358969
-29.051268 -21.191698 42.102394
-29.089549 -20.776005 41.130457
-29.144662 -19.072593 40.920271
-29.251994 -15.167328 43.383934
-29.262358 -15.646534 44.309192
-29.334722 -13.867066 44.234578
-29.271892 -14.711537 42.449582
-29.199528 -16.491004 42.524197
-29.251994 -15.167328 43.383934
-29.303058 -14.263912 41.467398
-29.271892 -14.711537 42.449582
-29.292126 -15.556612 40.622057
-29.303058 -14.263912 41.467398
-3.472329 -20.927383 64.505859
-2.418188 -20.826342 63.743568
-4.106751 -21.872124 64.913196
-3.472329 -20.927383 64.505859
-4.689509 -22.844579 65.271988
-3.713194 -22.812841 64.570683
-4.106751 -21.872124 64.913196
-5.355913 -23.87359 65.679149
-4.689509 -22.844579 65.271988
-5.96291 -24.816635 66.042186
-4.902948 -24.72834 65.292511
-5.355913 -23.87359 65.679149
-6.546383 -25.885475 66.364857
-5.96291 -24.816635 66.042186
-7.120985 -26.909714 66.674118
-6.084548 -26.695623 65.96481
-6.546383 -25.885475 66.364857
-8.135566 -27.160809 67.343402
-9.096295 -27.252943 67.948211
-7.67373 -27.970957 66.943355
-7.120985 -26.909714 66.674118
-8.135566 -27.160809 67.343402
-10.657383 -30.332118 68.582416
-10.178411 -29.287048 68.420029
-10.105424 -31.308342 68.126339
-10.657383 -30.332118 68.582416
-11.137561 -31.41183 68.724517
-10.775025 -35.671056 67.738678
-9.775434 -35.386311 67.16986
-10.378923 -34.495863 67.737823
-21.210413 -30.438715 72.375293
-22.168344 -30.389833 72.4071
-20.292339 -30.545228 72.273365
-21.210413 -30.438715 72.375293
-20.687006 -31.589808 72.138015
-19.374674 -30.543143 72.118332
-20.292339 -30.545228 72.273365
-18.412861 -30.421293 71.925278
-19.374674 -30.543143 72.118332
-18.807119 -31.574471 71.843033
-17.386199 -30.219923 71.656818
-18.412861 -30.421293 71.925278
-17.386199 -30.219923 71.656818
-16.887588 -31.314357 71.357067
-14.257541 -32.03889 70.237053
-15.347701 -32.183899 70.680313
-13.683595 -32.946616 69.824292
-13.175603 -31.793802 69.764873
-14.257541 -32.03889 70.237053
-11.781813 -35.953153 68.272171
-12.367349 -34.920983 68.807098
-12.770646 -36.093527 68.772628
-10.775025 -35.671056 67.738678
-11.781813 -35.953153 68.272171
-26.115431 -39.751363 68.225597
-25.447325 -39.84481 68.703957
-25.855299 -38.630522 68.863659
-26.115431 -39.751363 68.225597
-26.689646 -39.71042 67.688557
-27.212741 -39.551853 67.119339
-27.727377 -39.291444 66.48555
-28.932653 -38.484079 64.071503
-29.215583 -38.261149 63.180884
39.488573 8.817493 18.489987
39.754242 9.339374 17.648276
39.578541 7.837059 18.774574
39.488573 8.817493 18.489987
39.191438 8.219363 19.393473
38.98214 5.52436 20.877792
39.350143 6.273034 19.883063
38.913403 6.490257 20.67279
38.640616 4.786577 21.818424
39.077356 4.569354 21.028697
38.98214 5.52436 20.877792
38.236515 4.098746 22.768138
38.640616 4.786577 21.818424
37.874901 3.339266 23.675762
38.374218 3.07209 22.876952
38.236515 4.098746 22.768138
37.488026 2.593789 24.5505
37.874901 3.339266 23.675762
37.350323 3.620445 24.441686
36.369982 3.120419 26.065147
36.841048 3.952259 25.091496
36.486241 2.136785 26.255434
36.369982 3.120419 26.065147
35.892775 2.382236 27.004156
34.088989 2.06388 29.380141
34.618749 2.794223 28.488323
32.841261 1.460185 31.00225
32.089681 1.539525 31.79685
33.520967 1.314296 30.300598
32.841261 1.460185 31.00225
32.948948 0.406798 31.231938
34.196676 1.010493 29.609829
34.088989 2.06388 29.380141
33.520967 1.314296 30.300598
21.818523 -6.018591 42.968153
21.048686 -6.073945 43.707363
22.64369 -5.860587 42.193281
21.818523 -6.018591 42.968153
21.940343 -6.890373 42.871453
23.443639 -5.724626 41.434853
22.64369 -5.860587 42.193281
23.564108 -6.681065 41.364136
24.242238 -5.673324 40.702408
23.443639 -5.724626 41.434853
19.073039 -10.092858 45.326526
19.010232 -9.191245 45.529229
18.305502 -10.188189 46.071434
20.653369 -21.716621 40.361025
21.424495 -21.724631 39.812242
21.342364 -20.793614 40.233445
19.902379 -22.602716 40.561247
20.653369 -21.716621 40.361025
19.820248 -21.671699 40.982449
19.154398 -23.566855 40.684235
19.902379 -22.602716 40.561247
18.426899 -23.502044 41.254869
18.367319 -22.492629 41.78559
17.72496 -23.436878 41.857788
19.154398 -23.566855 40.684235
18.426899 -23.502044 41.254869
15.68572 -26.288206 42.19495
16.35927 -25.363502 42.064977
15.641689 -25.302999 42.733224
15.68572 -26.288206 42.19495
15.003324 -27.168045 42.337272
12.946325 -28.076074 43.87686
13.524358 -27.19193 43.765924
12.867119 -27.224985 44.448857
11.728771 -28.999215 44.681404
11.657642 -28.107238 45.313509
11.097328 -28.997324 45.435121
12.369174 -29.00192 43.959824
11.728771 -28.999215 44.681404
12.946325 -28.076074 43.87686
12.369174 -29.00192 43.959824
40.002346 12.432363 14.537011
40.12286 12.792128 13.646043
39.877739 12.043385 15.389738
39.692926 11.544785 16.301204
40.194664 11.480248 14.857567
40.002346 12.432363 14.537011
39.877739 12.043385 15.389738
38.899881 11.029946 5.647308
39.118603 12.123205 5.905551
39.143431 9.808759 6.35039
38.899881 11.029946 5.647308
39.528023 9.839055 7.10398
39.326502 8.671871 6.996868
39.143431 9.808759 6.35039
40.05189 11.981656 8.436602
39.79665 12.060202 7.543557
40.23432 10.941057 8.952716
40.05189 11.981656 8.436602
40.266953 11.929593 9.257824
40.322878 1.498658 16.677149
40.469834 2.299104 15.765375
40.44433 2.608383 16.547587
39.456463 -0.099793 20.948909
39.193835 0.230414 21.695846
39.150641 -0.94626 21.882664
39.707234 0.712911 20.000855
39.456463 -0.099793 20.948909
39.966238 1.476257 19.095942
39.758662 1.840227 19.857179
39.707234 0.712911 20.000855
40.106093 1.078439 18.34949
40.157521 2.205755 18.205814
39.966238 1.476257 19.095942
40.19829 0.737754 17.566807
40.106093 1.078439 18.34949
40.322878 1.498658 16.677149
40.19829 0.737754 17.566807
36.351985 -4.191276 28.139795
35.81228 -3.811968 28.8512
35.873102 -4.939589 28.970796
36.866816 -4.497324 27.355809
36.805994 -3.369703 27.236214
36.351985 -4.191276 28.139795
37.348719 -4.743246 26.555909
36.866816 -4.497324 27.355809
37.74403 -4.002262 25.637765
37.348719 -4.743246 26.555909
25.874529 -17.114798 38.20149
25.150439 -18.060901 38.46152
3 0 92 90
3 344 95 345
3 346 345 93
3 344 345 346
3 347 93 348
3 1 349 351
3 351 350 97
3 349 350 351
3 2 352 354
3 352 98 353
3 352 353 354
3 3 101 99
3 3 355 357
3 357 356 101
3 355 356 357
3 3 358 359
3 2 360 362
3 362 361 102
3 360 361 362
3 2 363 364
3 5 104 103
3 5 106 104
3 5 108 106
3 4 111 109
3 6 113 112
3 7 116 114
3 9 119 117
3 10 122 120
3 10 124 122
3 11 127 125
3 11 129 127
3 11 131 129
3 7 134 132
3 7 114 134
3 13 137 136
3 13 139 137
3 13 141 139
3 9 144 142
3 9 117 144
3 15 148 146
3 16 365 366
3 16 367 369
3 367 149 368
3 367 368 369
3 8 152 150
3 17 370 372
3 370 154 371
3 370 371 372
3 17 156 154
3 17 158 156
3 373 161 374
3 375 374 159
3 373 374 375
3 376 163 377
3 378 377 161
3 376 377 378
3 380 379 163
3 12 381 383
3 383 382 164
3 381 382 383
3 19 384 386
3 384 165 385
3 384 385 386
3 19 167 165
3 19 169 167
3 20 172 170
3 20 174 172
3 387 176 388
3 21 179 177
3 21 181 179
3 21 183 181
3 22 186 184
3 22 188 186
3 14 191 189
3 390 389 192
3 18 197 195
3 23 200 198
3 25 201 91
3 25 202 201
3 26 205 203
3 28 206 94
3 28 207 206
3 391 208 392
3 393 210 394
3 395 394 208
3 393 394 395
3 30 396 398
3 396 211 397
3 396 397 398
3 30 212 211
3 30 214 212
3 26 215 96
3 26 203 215
3 32 399 401
3 401 400 216
3 399 400 401
3 33 402 404
3 402 217 403
3 402 403 404
3 33 218 217
3 34 222 220
3 36 223 100
3 36 405 407
3 407 406 223
3 405 406 407
3 36 408 409
3 37 410 411
3 412 225 413
3 414 226 415
3 416 227 417
3 418 417 226
3 416 417 418
3 39 419 420
3 39 421 423
3 421 228 422
3 421 422 423
3 39 230 228
3 41 231 105
3 41 232 231
3 41 234 232
3 43 235 107
3 43 236 235
3 44 239 237
3 46 242 240
3 48 243 110
3 48 424 426
3 426 425 243
3 424 425 426
3 24 427 429
3 429 428 199
3 427 428 429
3 49 246 244
3 51 247 115
3 51 248 247
3 52 430 431
3 53 432 434
3 434 433 118
3 432 433 434
3 53 435 436
3 27 249 204
3 54 250 121
3 54 437 439
3 439 438 250
3 437 438 439
3 54 440 441
3 55 442 444
3 444 443 123
3 442 443 444
3 55 445 447
3 445 251 446
3 445 446 447
3 56 448 450
3 450 449 126
3 448 449 450
3 56 451 452
3 56 453 455
3 453 252 454
3 453 454 455
3 57 253 128
3 57 254 253
3 57 256 254
3 59 257 130
3 59 258 257
3 29 259 209
3 60 260 133
3 60 261 260
3 60 262 261
3 49 263 135
3 49 244 263
3 61 264 138
3 61 265 264
3 61 267 265
3 63 268 140
3 63 269 268
3 31 270 213
3 64 271 143
3 64 272 271
3 64 273 272
3 52 274 145
3 52 456 458
3 458 457 274
3 456 457 458
3 65 277 275
3 460 459 147
3 66 461 463
3 463 462 278
3 461 462 463
3 67 464 465
3 67 466 468
3 466 467 468
3 50 279 245
3 68 280 151
3 68 281 280
3 469 282 470
3 69 283 153
3 69 284 283
3 69 285 284
3 70 286 155
3 70 471 473
3 473 472 286
3 471 472 473
3 70 474 475
3 71 476 478
3 478 477 157
3 476 477 478
3 71 479 480
3 482 481 219
3 483 287 484
3 485 288 486
3 487 486 287
3 485 486 487
3 72 488 490
3 488 289 489
3 488 489 490
3 72 290 289
3 35 291 221
3 73 292 160
3 73 491 493
3 493 492 292
3 491 492 493
3 73 494 496
3 494 293 495
3 494 495 496
3 497 294 498
3 499 498 162
3 497 498 499
3 501 500 294
3 58 502 504
3 504 503 255
3 502 503 504
3 505 297 506
3 507 506 295
3 505 506 507
3 508 298 509
3 511 510 298
3 512 299 513
3 75 514 516
3 514 300 515
3 514 515 516
3 75 301 300
3 76 302 166
3 76 303 302
3 76 304 303
3 77 305 168
3 77 306 305
3 38 307 224
3 78 308 171
3 78 309 308
3 78 310 309
3 79 311 173
3 79 312 311
3 80 313 175
3 80 314 313
3 40 315 229
3 81 316 178
3 81 317 316
3 81 318 317
3 82 319 180
3 82 320 319
3 82 321 320
3 83 322 182
3 83 323 322
3 42 324 233
3 84 325 185
3 84 517 519
3 519 518 325
3 517 518 519
3 84 520 521
3 523 522 187
3 62 326 266
3 85 327 190
3 85 328 327
3 45 329 238
3 86 330 193
3 86 331 330
3 86 332 331
3 524 333 525
3 526 295 527
3 528 527 333
3 526 527 528
3 529 335 530
3 531 336 532
3 533 532 335
3 531 532 533
3 88 534 535
3 88 536 538
3 536 337 537
3 536 537 538
3 88 338 337
3 87 339 194
3 87 334 339
3 74 340 296
3 89 341 196
3 89 342 341
3 47 343 241
3 540 539 276
3 90 91 23
3 92 91 90
3 92 25 91
3 93 94 26
3 95 94 93
3 95 28 94
3 541 30 542
3 543 96 544
3 545 544 30
3 543 544 545
3 93 546 548
3 546 96 547
3 546 547 548
3 93 26 96
3 97 549 551
3 551 550 32
3 549 550 551
3 553 552 97
3 98 554 555
3 98 556 558
3 556 33 557
3 556 557 558
3 99 100 34
3 101 100 99
3 101 36 100
3 101 559 561
3 561 560 36
3 559 560 561
3 563 562 101
3 102 564 566
3 566 565 37
3 564 565 566
3 568 567 102
3 103 569 570
3 104 571 573
3 573 572 103
3 571 572 573
3 104 574 576
3 574 39 575
3 574 575 576
3 104 105 39
3 106 105 104
3 106 41 105
3 106 107 41
3 108 107 106
3 108 43 107
3 578 577 44
3 109 110 46
3 111 110 109
3 111 48 110
3 112 579 580
3 113 581 583
3 583 582 112
3 581 582 583
3 113 584 585
3 587 586 24
3 114 115 49
3 116 115 114
3 116 51 115
3 117 118 52
3 119 118 117
3 119 53 118
3 120 121 27
3 122 121 120
3 122 54 121
3 122 123 54
3 124 123 122
3 124 55 123
3 125 588 590
3 588 126 589
3 588 589 590
3 127 126 125
3 127 56 126
3 127 128 56
3 129 128 127
3 129 57 128
3 129 130 57
3 131 130 129
3 131 59 130
3 132 133 29
3 134 133 132
3 134 60 133
3 134 135 60
3 114 135 134
3 114 49 135
3 136 591 592
3 137 593 595
3 595 594 136
3 593 594 595
3 137 596 597
3 137 598 600
3 598 138 599
3 598 599 600
3 139 138 137
3 139 61 138
3 139 140 61
3 141 140 139
3 141 63 140
3 142 143 31
3 144 143 142
3 144 64 143
3 144 145 64
3 117 145 144
3 117 52 145
3 146 147 65
3 148 147 146
3 148 601 603
3 603 602 147
3 601 602 603
3 605 604 66
3 149 606 607
3 149 608 610
3 608 67 609
3 608 609 610
3 150 151 50
3 152 151 150
3 152 68 151
3 611 153 612
3 154 613 615
3 613 153 614
3 613 614 615
3 154 69 153
3 154 155 69
3 156 155 154
3 156 70 155
3 156 157 70
3 158 157 156
3 158 71 157
3 616 72 617
3 159 160 35
3 161 160 159
3 161 73 160
3 161 162 73
3 163 162 161
3 163 618 620
3 620 619 162
3 618 619 620
3 163 621 622
3 624 623 163
3 164 625 627
3 627 626 58
3 625 626 627
3 629 628 164
3 630 75 631
3 165 632 633
3 165 634 635
3 165 636 638
3 636 166 637
3 636 637 638
3 167 166 165
3 167 76 166
3 167 168 76
3 169 168 167
3 169 77 168
3 170 171 38
3 172 171 170
3 172 78 171
3 172 173 78
3 174 173 172
3 174 79 173
3 639 175 640
3 176 641 643
3 641 175 642
3 641 642 643
3 176 80 175
3 177 178 40
3 179 178 177
3 179 81 178
3 179 180 81
3 181 180 179
3 181 82 180
3 181 182 82
3 183 182 181
3 183 83 182
3 184 185 42
3 186 185 184
3 186 84 185
3 186 187 84
3 188 187 186
3 188 644 646
3 646 645 187
3 644 645 646
3 189 190 62
3 191 190 189
3 191 85 190
3 192 193 45
3 647 193 648
3 649 648 192
3 647 648 649
3 650 86 651
3 652 651 193
3 650 651 652
3 654 653 86
3 655 88 656
3 657 194 658
3 659 658 88
3 657 658 659
3 660 194 661
3 662 87 663
3 664 663 194
3 662 663 664
3 195 196 74
3 197 196 195
3 197 89 196
3 666 665 47
3 198 199 6
3 200 199 198
3 200 24 199
3 91 200 23
3 201 200 91
3 201 24 200
3 201 667 669
3 669 668 24
3 667 668 669
3 202 670 672
3 672 671 201
3 670 671 672
3 202 673 674
3 676 675 7
3 203 204 9
3 205 204 203
3 205 27 204
3 94 205 26
3 206 205 94
3 206 27 205
3 206 120 27
3 207 120 206
3 207 10 120
3 677 125 678
3 208 679 681
3 679 125 680
3 679 680 681
3 208 11 125
3 208 209 11
3 210 209 208
3 210 29 209
3 682 210 683
3 684 210 685
3 686 29 687
3 688 687 210
3 686 687 688
3 689 132 690
3 691 690 29
3 689 690 691
3 692 132 693
3 694 7 695
3 696 695 132
3 694 695 696
3 211 697 698
3 211 699 700
3 211 701 703
3 701 136 702
3 701 702 703
3 212 136 211
3 212 13 136
3 212 213 13
3 214 213 212
3 214 31 213
3 96 214 30
3 215 214 96
3 215 31 214
3 215 142 31
3 203 142 215
3 203 9 142
3 216 704 706
3 706 705 15
3 704 705 706
3 708 707 216
3 710 709 32
3 217 711 712
3 217 713 714
3 217 715 716
3 218 717 719
3 719 718 217
3 717 718 719
3 218 720 722
3 720 16 721
3 720 721 722
3 724 723 8
3 725 17 726
3 727 219 728
3 729 728 17
3 727 728 729
3 730 219 731
3 733 732 219
3 220 734 736
3 734 221 735
3 734 735 736
3 222 221 220
3 222 35 221
3 100 222 34
3 223 222 100
3 223 35 222
3 223 159 35
3 737 159 738
3 739 738 223
3 737 738 739
3 741 740 159
3 743 742 36
3 745 744 12
3 747 746 37
3 748 19 749
3 750 224 751
3 752 751 19
3 750 751 752
3 225 753 755
3 753 224 754
3 753 754 755
3 225 38 224
3 756 225 757
3 226 758 760
3 758 225 759
3 758 759 760
3 226 38 225
3 226 170 38
3 227 170 226
3 227 20 170
3 228 761 762
3 228 763 764
3 228 765 767
3 765 229 766
3 765 766 767
3 230 229 228
3 230 40 229
3 105 230 39
3 231 230 105
3 231 40 230
3 231 177 40
3 232 177 231
3 232 21 177
3 232 233 21
3 234 233 232
3 234 42 233
3 107 234 41
3 235 234 107
3 235 42 234
3 235 184 42
3 236 184 235
3 236 22 184
3 237 238 14
3 239 238 237
3 239 45 238
3 768 239 769
3 770 769 44
3 768 769 770
3 771 239 772
3 773 45 774
3 775 774 239
3 773 774 775
3 776 192 777
3 778 777 45
3 776 777 778
3 779 192 780
3 782 781 192
3 240 241 18
3 242 241 240
3 242 47 241
3 110 242 46
3 243 242 110
3 243 47 242
3 243 783 785
3 785 784 47
3 783 784 785
3 787 786 243
3 199 113 6
3 788 113 789
3 790 789 199
3 788 789 790
3 792 791 113
3 794 793 24
3 244 245 2
3 246 245 244
3 246 50 245
3 115 246 49
3 247 246 115
3 247 50 246
3 247 150 50
3 248 150 247
3 248 8 150
3 795 116 796
3 797 796 7
3 795 796 797
3 798 116 799
3 800 51 801
3 802 801 116
3 800 801 802
3 803 51 804
3 805 248 806
3 807 806 51
3 805 806 807
3 808 248 809
3 810 8 811
3 812 811 248
3 810 811 812
3 814 813 8
3 118 815 817
3 817 816 52
3 815 816 817
3 819 818 118
3 204 119 9
3 249 119 204
3 249 53 119
3 121 249 27
3 250 249 121
3 250 53 249
3 250 820 822
3 822 821 53
3 820 821 822
3 824 823 250
3 123 825 827
3 827 826 54
3 825 826 827
3 829 828 123
3 251 830 831
3 251 832 833
3 126 834 835
3 837 836 126
3 838 220 839
3 252 840 842
3 840 220 841
3 840 841 842
3 252 34 220
3 128 252 56
3 253 252 128
3 253 34 252
3 253 99 34
3 254 99 253
3 254 3 99
3 254 255 3
3 256 255 254
3 256 58 255
3 130 256 57
3 257 256 130
3 257 58 256
3 257 164 58
3 258 164 257
3 258 12 164
3 209 131 11
3 259 131 209
3 259 59 131
3 133 259 29
3 260 259 133
3 260 59 259
3 260 258 59
3 261 258 260
3 261 12 258
3 261 843 845
3 845 844 12
3 843 844 845
3 262 846 848
3 848 847 261
3 846 847 848
3 262 849 851
3 849 37 850
3 849 850 851
3 135 262 60
3 263 262 135
3 263 37 262
3 263 102 37
3 244 102 263
3 244 2 102
3 138 852 853
3 264 854 856
3 856 855 138
3 854 855 856
3 264 857 858
3 264 859 861
3 859 103 860
3 859 860 861
3 265 103 264
3 265 5 103
3 265 266 5
3 267 266 265
3 267 62 266
3 140 267 61
3 268 267 140
3 268 62 267
3 268 189 62
3 269 189 268
3 269 14 189
3 213 141 13
3 270 141 213
3 270 63 141
3 143 270 31
3 271 270 143
3 271 63 270
3 271 269 63
3 272 269 271
3 272 14 269
3 272 237 14
3 273 237 272
3 273 44 237
3 145 273 64
3 274 273 145
3 274 44 273
3 274 862 864
3 864 863 44
3 862 863 864
3 866 865 274
3 275 276 4
3 277 276 275
3 277 867 869
3 869 868 276
3 867 868 869
3 147 277 65
3 870 277 871
3 872 871 147
3 870 871 872
3 874 873 277
3 875 148 876
3 877 876 15
3 875 876 877
3 878 148 879
3 881 880 148
3 278 882 884
3 884 883 1
3 882 883 884
3 886 885 278
3 888 887 66
3 245 98 2
3 279 98 245
3 279 33 98
3 151 279 50
3 280 279 151
3 280 33 279
3 280 218 33
3 281 218 280
3 281 16 218
3 889 152 890
3 891 890 8
3 889 890 891
3 282 892 894
3 892 152 893
3 892 893 894
3 282 68 152
3 153 895 897
3 895 282 896
3 895 896 897
3 283 282 153
3 283 68 282
3 283 281 68
3 284 281 283
3 284 16 281
3 284 149 16
3 285 149 284
3 285 67 149
3 155 285 69
3 286 285 155
3 286 67 285
3 286 898 900
3 900 899 67
3 898 899 900
3 902 901 286
3 157 903 905
3 905 904 70
3 903 904 905
3 907 906 157
3 219 158 17
3 908 158 909
3 910 909 219
3 908 909 910
3 911 71 912
3 913 912 158
3 911 912 913
3 914 71 915
3 917 916 71
3 918 95 919
3 920 95 921
3 922 28 923
3 924 923 95
3 922 923 924
3 925 28 926
3 927 207 928
3 929 928 28
3 927 928 929
3 930 207 931
3 932 10 933
3 934 933 207
3 932 933 934
3 287 935 936
3 287 937 939
3 937 10 938
3 937 938 939
3 287 124 10
3 288 124 287
3 288 55 124
3 940 288 941
3 289 942 944
3 942 288 943
3 942 943 944
3 289 55 288
3 289 251 55
3 290 251 289
3 290 945 947
3 947 946 251
3 945 946 947
3 221 948 949
3 291 950 952
3 952 951 221
3 950 951 952
3 291 953 954
3 160 291 35
3 292 291 160
3 292 955 957
3 957 956 291
3 955 956 957
3 292 958 959
3 961 960 292
3 293 962 963
3 293 964 966
3 964 72 965
3 964 965 966
3 162 293 73
3 294 293 162
3 294 72 293
3 294 290 72
3 967 290 968
3 969 968 294
3 967 968 969
3 971 970 290
3 255 972 974
3 974 973 3
3 972 973 974
3 976 975 255
3 978 977 58
3 980 979 12
3 295 296 0
3 297 296 295
3 297 74 296
3 981 297 982
3 298 983 985
3 983 297 984
3 983 984 985
3 298 74 297
3 298 195 74
3 986 195 987
3 988 987 298
3 986 987 988
3 989 18 990
3 991 990 195
3 989 990 991
3 992 18 993
3 994 240 995
3 996 995 18
3 994 995 996
3 299 997 999
3 997 240 998
3 997 998 999
3 299 46 240
3 1000 299 1001
3 300 1002 1004
3 1002 299 1003
3 1002 1003 1004
3 300 46 299
3 300 109 46
3 301 109 300
3 301 4 109
3 1005 75 1006
3 166 1007 1008
3 302 1009 1011
3 1011 1010 166
3 1009 1010 1011
3 302 1012 1014
3 1012 75 1013
3 1012 1013 1014
3 302 301 75
3 303 301 302
3 303 4 301
3 303 275 4
3 304 275 303
3 304 65 275
3 168 304 76
3 305 304 168
3 305 65 304
3 305 146 65
3 306 146 305
3 306 15 146
3 224 169 19
3 307 169 224
3 307 77 169
3 171 307 38
3 308 307 171
3 308 77 307
3 308 306 77
3 309 306 308
3 309 15 306
3 309 216 15
3 310 216 309
3 310 32 216
3 173 310 78
3 311 310 173
3 311 32 310
3 311 97 32
3 312 97 311
3 312 1 97
3 175 1015 1016
3 313 1017 1019
3 1019 1018 175
3 1017 1018 1019
3 313 1020 1021
3 313 1022 1024
3 1022 227 1023
3 1022 1023 1024
3 314 227 313
3 314 20 227
3 229 1025 1027
3 1025 176 1026
3 1025 1026 1027
3 315 176 229
3 315 80 176
3 178 315 40
3 316 315 178
3 316 80 315
3 316 314 80
3 317 314 316
3 317 20 314
3 317 174 20
3 318 174 317
3 318 79 174
3 180 318 81
3 319 318 180
3 319 79 318
3 319 312 79
3 320 312 319
3 320 1 312
3 320 278 1
3 321 278 320
3 321 66 278
3 182 321 82
3 322 321 182
3 322 66 321
3 322 1028 1030
3 1030 1029 66
3 1028 1029 1030
3 323 1031 1033
3 1033 1032 322
3 1031 1032 1033
3 323 1034 1035
3 233 183 21
3 324 183 233
3 324 83 183
3 185 324 42
3 325 324 185
3 325 83 324
3 325 323 83
3 1036 323 1037
3 1038 1037 325
3 1036 1037 1038
3 1040 1039 323
3 187 1041 1043
3 1043 1042 84
3 1041 1042 1043
3 1045 1044 187
3 266 108 5
3 326 108 266
3 326 43 108
3 190 326 62
3 327 326 190
3 327 43 326
3 327 236 43
3 328 236 327
3 328 22 236
3 238 191 14
3 329 191 238
3 329 85 191
3 193 329 45
3 330 329 193
3 330 85 329
3 330 328 85
3 331 328 330
3 331 22 328
3 331 188 22
3 332 188 331
3 332 1046 1048
3 1048 1047 188
3 1046 1047 1048
3 1049 332 1050
3 1051 1050 86
3 1049 1050 1051
3 1052 332 1053
3 1055 1054 332
3 1056 87 1057
3 333 1058 1059
3 333 1060 1062
3 1060 87 1061
3 1060 1061 1062
3 333 334 87
3 295 334 333
3 295 0 334
3 335 1063 1064
3 335 1065 1066
3 335 1067 1069
3 1067 112 1068
3 1067 1068 1069
3 336 112 335
3 336 6 112
3 1070 336 1071
3 337 1072 1074
3 1072 336 1073
3 1072 1073 1074
3 337 6 336
3 337 198 6
3 338 198 337
3 338 23 198
3 194 338 88
3 339 338 194
3 339 23 338
3 339 90 23
3 334 90 339
3 334 0 90
3 296 92 0
3 340 92 296
3 340 25 92
3 196 340 74
3 341 340 196
3 341 25 340
3 341 202 25
3 342 202 341
3 342 1075 1077
3 1077 1076 202
3 1075 1076 1077
3 241 197 18
3 343 197 241
3 343 89 197
3 1078 343 1079
3 1080 1079 47
3 1078 1079 1080
3 1081 343 1082
3 1083 89 1084
3 1085 1084 343
3 1083 1084 1085
3 1086 342 1087
3 1088 1087 89
3 1086 1087 1088
3 1089 342 1090
3 1092 1091 342
3 276 111 4
3 1093 111 1094
3 1095 1094 276
3 1093 1094 1095
3 1096 48 1097
3 1098 1097 111
3 1096 1097 1098
3 1099 48 1100
3 1102 1101 48
3 1104 1103 1
