ply
format ascii 1.0
element vertex 314
property float x
property float y
property float z
element face 293
property list uchar int vertex_index
end_header
-5.613364 29.445332 -65.26532
0.444677 -7.06246 -56.196083
-0.045904 22.555712 -63.190388
-0.987009 12.81214 -64.922813
-2.159414 2.618351 -63.907612
-0.463821 17.815088 -64.416985
1.083577 13.236465 -61.787544
-0.225295 3.019233 -61.22147
-0.766425 -1.947405 -60.218426
-1.171281 -7.482529 -58.61541
-2.496759 26.193531 -64.757339
-2.671069 21.888338 -66.625435
-3.087924 17.303749 -67.769585
-3.384457 12.300944 -67.818115
0.390806 8.129424 -61.821903
-1.609417 7.86278 -64.809166
-3.849951 7.092825 -67.180244
1.748684 -17.30127 -50.84745
0.256323 -12.588025 -54.572708
0.583619 -4.28968 -57.012108
0.082975 -1.91109 -58.832207
-0.147483 -4.460351 -58.221821
-0.967914 -4.640103 -59.454624
-0.336235 -7.159232 -57.480095
-1.211174 26.769709 -63.08247
-1.18924 24.592184 -64.005333
-2.599216 24.143456 -65.804916
-1.284287 22.210264 -64.881927
-0.799357 15.395554 -64.88855
-1.700467 17.558823 -66.106667
-1.955868 15.301744 -66.439163
-3.24408 14.878356 -67.922302
-2.173439 12.766239 -66.501411
1.328248 8.401849 -60.31271
0.968123 5.799503 -60.135754
-1.181093 2.916857 -62.677231
-0.846448 5.499922 -63.036606
-1.899208 5.343213 -64.478088
-2.774404 7.61376 -66.20031
-2.948537 4.898462 -65.604721
-4.12534 4.507435 -66.653198
-3.156741 2.371137 -64.972229
1.019333 -14.790228 -52.668514
-0.269638 20.192883 -63.942692
0.641157 18.089233 -62.803497
0.371874 15.557762 -63.157627
0.031372 13.174026 -63.44976
0.657796 3.271454 -59.807003
0.30153 0.726419 -59.478928
-0.544495 0.504323 -60.817207
-1.453385 0.360106 -62.134014
-1.656259 -2.40526 -61.332668
-3.984968 29.878252 -63.691528
-2.62936 28.3508 -63.631386
-4.028709 27.951927 -65.179375
-3.932946 25.998453 -66.306038
-1.538482 19.825554 -65.681824
-2.867174 19.597662 -67.308289
-4.281282 19.284397 -68.797287
-4.440201 16.881516 -69.11898
-4.61153 14.455147 -69.199745
-4.791679 11.933802 -69.060951
0.722674 10.724097 -61.910442
-0.268046 10.53866 -63.4622
0.079628 5.555388 -61.575603
-0.540332 8.111807 -63.317223
-1.367032 10.378379 -65.057365
-2.46372 10.138514 -66.427834
-3.707163 9.821133 -67.704483
-4.981862 9.24739 -68.698387
-5.156879 6.664701 -68.169632
1.023195 -9.522343 -54.289791
2.652445 -19.713293 -48.919056
1.695849 -14.509713 -51.605099
0.932048 -12.001531 -53.636917
0.289281 -9.714567 -55.497681
-0.463858 -10.016495 -56.598957
-6.399896 29.227075 -65.957081
-6.483165 30.05899 -65.174824
-5.590282 28.504031 -65.989479
-6.399896 29.227075 -65.957081
0.010265 23.759813 -62.770574
0.592964 22.72608 -62.313895
-0.617572 23.573948 -63.59786
-0.561403 24.77805 -63.178047
0.010265 23.759813 -62.770574
1.227469 4.548807 -59.247446
1.417196 5.864228 -59.381579
1.261998 18.217824 -61.884974
0.817997 19.256908 -62.469637
0.727726 14.397113 -62.472585
0.933254 15.745838 -62.305479
1.289106 14.585189 -61.620437
0.574757 -0.450664 -58.533015
0.69871 0.738756 -58.780358
-1.51208 -6.316843 -59.547123
-1.410396 -4.89563 -59.96673
-1.069597 -6.061316 -59.035017
-1.583938 -7.717075 -59.064318
-1.51208 -6.316843 -59.547123
-3.291311 30.161644 -62.916037
-4.038312 30.790987 -62.92769
-3.376651 22.892059 -67.026577
-3.340724 24.019618 -66.616318
-2.635143 23.015897 -66.215176
-3.384442 21.735217 -67.406384
-3.376651 22.892059 -67.026577
-4.731321 4.135829 -67.021603
-4.225826 3.07446 -66.240528
1.34652 -10.604817 -53.366113
1.375938 -9.323063 -53.731006
2.200565 -18.507281 -49.883253
2.292281 -20.011669 -49.433662
1.8404 -18.805657 -50.39786
2.107857 -17.155169 -50.282213
2.559737 -18.361181 -49.318016
2.200565 -18.507281 -49.883253
1.722266 -15.905492 -51.226275
2.08144 -15.759391 -50.661038
2.107857 -17.155169 -50.282213
1.615029 13.395582 -60.967952
1.289106 14.585189 -61.620437
0.333297 -3.100385 -57.922157
0.465479 -1.769419 -58.209654
0.715801 -2.958714 -57.299605
-0.57237 25.866812 -62.716616
-0.528435 27.04246 -62.219646
-1.200207 25.680946 -63.543901
-0.57237 25.866812 -62.716616
-0.561403 24.77805 -63.178047
1.597259 7.165401 -59.470056
1.824893 8.422079 -59.487877
1.148186 7.100676 -60.224232
1.597259 7.165401 -59.470056
1.417196 5.864228 -59.381579
-3.741526 2.006311 -65.400044
-4.225826 3.07446 -66.240528
-3.64104 3.439286 -65.812714
1.388008 -17.499913 -51.371487
1.8404 -18.805657 -50.39786
1.023333 -16.244391 -52.282018
1.384008 -16.045749 -51.757982
1.388008 -17.499913 -51.371487
0.63685 -15.056671 -53.193439
1.023333 -16.244391 -52.282018
0.255346 -13.955569 -54.145536
0.637828 -13.689127 -53.620611
0.63685 -15.056671 -53.193439
-0.155723 -12.704339 -55.156502
0.255346 -13.955569 -54.145536
0.474467 21.490147 -62.663083
0.592964 22.72608 -62.313895
0.362599 20.308732 -63.039234
-0.157771 21.374297 -63.56654
0.474467 21.490147 -62.663083
0.185759 19.141058 -63.373095
0.362599 20.308732 -63.039234
0.817997 19.256908 -62.469637
1.067896 17.011573 -62.128414
1.261998 18.217824 -61.884974
0.506516 16.823498 -62.980562
1.067896 17.011573 -62.128414
0.933254 15.745838 -62.305479
0.876843 2.011273 -58.944395
1.072306 3.284782 -59.083071
0.479663 1.998936 -59.642966
0.876843 2.011273 -58.944395
0.69871 0.738756 -58.780358
0.192252 -0.592335 -59.155568
0.574757 -0.450664 -58.533015
0.465479 -1.769419 -58.209654
-1.891372 0.113253 -62.614391
-2.244387 1.242376 -63.50119
-1.806399 1.489229 -63.020813
-1.992809 -1.269429 -62.213718
-1.891372 0.113253 -62.614391
-1.554822 -1.022577 -61.733341
-2.113695 -2.643002 -61.809776
-1.992809 -1.269429 -62.213718
-1.754568 -3.778209 -60.905752
-1.312086 -3.522682 -60.393646
-1.410396 -4.89563 -59.96673
-2.113695 -2.643002 -61.809776
-1.754568 -3.778209 -60.905752
0.959776 -4.143668 -56.392361
0.715801 -2.958714 -57.299605
0.869101 -5.466492 -56.047835
0.959776 -4.143668 -56.392361
0.799631 -6.852882 -55.639822
0.514148 -5.67607 -56.604095
0.869101 -5.466492 -56.047835
-5.628658 30.260122 -64.497433
-6.483165 30.05899 -65.174824
-4.81446 30.476582 -63.710537
-4.038312 30.790987 -62.92769
-4.799166 29.661792 -64.478424
-5.628658 30.260122 -64.497433
-4.81446 30.476582 -63.710537
-1.185909 27.801062 -62.507857
-0.528435 27.04246 -62.219646
-1.895002 28.591608 -62.782314
-1.185909 27.801062 -62.507857
-1.920267 27.560254 -63.356928
-2.613507 29.397918 -62.885965
-1.895002 28.591608 -62.782314
-3.307164 29.114526 -63.661457
-3.291311 30.161644 -62.916037
-2.613507 29.397918 -62.885965
-4.797954 27.757329 -65.946506
-5.590282 28.504031 -65.989479
-4.821036 28.69863 -65.222347
-4.750073 26.780592 -66.509838
-4.797954 27.757329 -65.946506
-3.980828 26.97519 -65.742706
-4.732645 25.811134 -67.095363
-4.750073 26.780592 -66.509838
-4.007589 24.947116 -66.866878
-3.266081 25.070954 -66.055477
-3.340724 24.019618 -66.616318
-4.732645 25.811134 -67.095363
-4.007589 24.947116 -66.866878
-3.482494 20.589879 -67.74781
-3.384442 21.735217 -67.406384
-2.769121 20.743 -66.966862
-4.189548 20.433246 -68.49231
-3.482494 20.589879 -67.74781
-3.574228 19.441029 -68.052788
-4.952872 20.342478 -69.166363
-4.189548 20.433246 -68.49231
-5.057356 19.121105 -69.452095
-4.952872 20.342478 -69.166363
-5.136815 17.919665 -69.612942
-5.057356 19.121105 -69.452095
-4.360741 18.082957 -68.958134
-5.211982 16.680838 -69.728961
-5.136815 17.919665 -69.612942
-5.297646 15.467654 -69.769344
-5.211982 16.680838 -69.728961
-4.525866 15.668332 -69.159362
-5.347653 14.183088 -69.733326
-5.297646 15.467654 -69.769344
-5.437728 12.922415 -69.663929
-5.347653 14.183088 -69.733326
-4.701605 13.194475 -69.130348
-5.540731 11.56088 -69.541587
-5.437728 12.922415 -69.663929
1.446988 12.069148 -60.971361
1.615029 13.395582 -60.967952
1.569323 9.65184 -60.233944
1.824893 8.422079 -59.487877
1.266536 10.812964 -61.03281
1.569323 9.65184 -60.233944
1.025461 9.562973 -61.111576
0.903126 11.980281 -61.848993
1.446988 12.069148 -60.971361
1.266536 10.812964 -61.03281
0.81296 4.535478 -59.971379
1.227469 4.548807 -59.247446
1.072306 3.284782 -59.083071
-5.635822 10.217674 -69.360305
-5.540731 11.56088 -69.541587
-4.88677 10.590596 -68.879669
-5.730613 8.851204 -69.12402
-5.635822 10.217674 -69.360305
-5.818122 7.559859 -68.859642
-5.730613 8.851204 -69.12402
-5.06937 7.956046 -68.43401
-5.852248 6.076435 -68.459587
-5.818122 7.559859 -68.859642
-5.247091 5.214462 -67.77982
-4.641109 5.586068 -67.411415
-4.731321 4.135829 -67.021603
-5.852248 6.076435 -68.459587
-5.247091 5.214462 -67.77982
-2.74305 1.118769 -64.033499
-2.658078 2.494744 -64.43992
-2.244387 1.242376 -63.50119
-3.264915 0.951886 -64.548862
-2.74305 1.118769 -64.033499
-3.741526 2.006311 -65.400044
-3.264915 0.951886 -64.548862
1.08889 -8.082824 -54.686676
1.375938 -9.323063 -53.731006
0.733936 -8.292402 -55.242937
0.799631 -6.852882 -55.639822
1.08889 -8.082824 -54.686676
2.79457 -21.230632 -48.483419
2.292281 -20.011669 -49.433662
3.12915 -20.902867 -48.008484
2.79457 -21.230632 -48.483419
2.991511 -19.427514 -48.421492
3.12915 -20.902867 -48.008484
2.991511 -19.427514 -48.421492
2.559737 -18.361181 -49.318016
2.026841 -14.329571 -51.083103
2.08144 -15.759391 -50.661038
1.682847 -13.098502 -52.023768
2.026841 -14.329571 -51.083103
1.300946 -11.844411 -53.039676
1.682847 -13.098502 -52.023768
1.313948 -13.255622 -52.621008
0.977622 -10.761937 -53.963354
1.34652 -10.604817 -53.366113
1.300946 -11.844411 -53.039676
-0.515813 -11.418574 -56.169626
-0.103767 -11.30226 -55.585832
-0.155723 -12.704339 -55.156502
-0.872798 -10.111467 -57.148117
-0.515813 -11.418574 -56.169626
-1.22651 -8.844484 -58.156343
-0.81757 -8.749512 -57.607183
-0.872798 -10.111467 -57.148117
-1.583938 -7.717075 -59.064318
-1.22651 -8.844484 -58.156343
3 0 77 78
3 0 79 80
3 1 21 19
3 1 23 21
3 2 81 82
3 2 83 85
3 83 25 84
3 83 84 85
3 2 27 25
3 3 30 28
3 3 32 30
3 86 34 87
3 4 37 35
3 4 39 37
3 4 41 39
3 88 44 89
3 6 90 92
3 90 45 91
3 90 91 92
3 6 46 45
3 93 48 94
3 8 49 20
3 8 50 49
3 8 51 50
3 9 95 97
3 97 96 22
3 95 96 97
3 9 98 99
3 100 52 101
3 10 53 24
3 10 54 53
3 10 55 54
3 11 102 104
3 104 103 26
3 102 103 104
3 11 105 106
3 5 56 43
3 12 57 29
3 12 58 57
3 12 59 58
3 13 60 31
3 13 61 60
3 14 62 33
3 14 63 62
3 7 64 47
3 15 65 36
3 15 66 65
3 15 67 66
3 16 68 38
3 16 69 68
3 16 70 69
3 108 107 40
3 109 71 110
3 17 111 113
3 111 72 112
3 111 112 113
3 17 114 116
3 116 115 72
3 114 115 116
3 17 117 119
3 117 73 118
3 117 118 119
3 18 74 42
3 18 75 74
3 18 76 75
3 120 6 121
3 19 122 124
3 122 20 123
3 122 123 124
3 21 20 19
3 21 8 20
3 21 22 8
3 23 22 21
3 23 9 22
3 125 24 126
3 25 127 129
3 127 24 128
3 127 128 129
3 25 10 24
3 25 26 10
3 27 26 25
3 27 11 26
3 28 29 5
3 30 29 28
3 30 12 29
3 30 31 12
3 32 31 30
3 32 13 31
3 130 33 131
3 34 132 134
3 132 33 133
3 132 133 134
3 34 14 33
3 35 36 7
3 37 36 35
3 37 15 36
3 37 38 15
3 39 38 37
3 39 16 38
3 39 40 16
3 41 40 39
3 41 135 137
3 137 136 40
3 135 136 137
3 138 17 139
3 140 42 141
3 142 141 17
3 140 141 142
3 143 42 144
3 145 18 146
3 147 146 42
3 145 146 147
3 149 148 18
3 150 2 151
3 152 43 153
3 154 153 2
3 152 153 154
3 44 155 157
3 155 43 156
3 155 156 157
3 44 5 43
3 158 44 159
3 45 160 162
3 160 44 161
3 160 161 162
3 45 5 44
3 45 28 5
3 46 28 45
3 46 3 28
3 163 47 164
3 48 165 167
3 165 47 166
3 165 166 167
3 48 7 47
3 20 168 170
3 168 48 169
3 168 169 170
3 49 48 20
3 49 7 48
3 49 35 7
3 50 35 49
3 50 4 35
3 50 171 173
3 173 172 4
3 171 172 173
3 51 174 176
3 176 175 50
3 174 175 176
3 51 177 178
3 22 51 8
3 179 51 180
3 181 180 22
3 179 180 181
3 183 182 51
3 184 19 185
3 186 19 187
3 188 1 189
3 190 189 19
3 188 189 190
3 191 0 192
3 52 193 194
3 52 195 197
3 195 0 196
3 195 196 197
3 24 198 199
3 53 200 202
3 202 201 24
3 200 201 202
3 53 203 204
3 53 205 207
3 205 52 206
3 205 206 207
3 54 52 53
3 54 0 52
3 54 208 210
3 210 209 0
3 208 209 210
3 55 211 213
3 213 212 54
3 211 212 213
3 55 214 215
3 26 55 10
3 216 55 217
3 218 217 26
3 216 217 218
3 220 219 55
3 43 27 2
3 56 27 43
3 56 11 27
3 29 56 5
3 57 56 29
3 57 11 56
3 57 221 223
3 223 222 11
3 221 222 223
3 58 224 226
3 226 225 57
3 224 225 226
3 58 227 228
3 58 229 230
3 59 231 233
3 233 232 58
3 231 232 233
3 59 234 235
3 31 59 12
3 60 59 31
3 60 236 238
3 238 237 59
3 236 237 238
3 60 239 240
3 61 241 243
3 243 242 60
3 241 242 243
3 61 244 245
3 246 6 247
3 33 248 249
3 62 250 252
3 252 251 33
3 250 251 252
3 62 253 255
3 253 6 254
3 253 254 255
3 62 46 6
3 63 46 62
3 63 3 46
3 47 256 258
3 256 34 257
3 256 257 258
3 64 34 47
3 64 14 34
3 36 64 7
3 65 64 36
3 65 14 64
3 65 63 14
3 66 63 65
3 66 3 63
3 66 32 3
3 67 32 66
3 67 13 32
3 38 67 15
3 68 67 38
3 68 13 67
3 68 61 13
3 69 61 68
3 69 259 261
3 261 260 61
3 259 260 261
3 69 262 263
3 70 264 266
3 266 265 69
3 264 265 266
3 70 267 268
3 40 70 16
3 269 70 270
3 271 270 40
3 269 270 271
3 273 272 70
3 274 41 275
3 276 275 4
3 274 275 276
3 277 41 278
3 280 279 41
3 71 281 282
3 71 283 285
3 283 1 284
3 283 284 285
3 72 286 287
3 72 288 289
3 72 290 291
3 293 292 72
3 73 294 295
3 73 296 297
3 42 73 17
3 74 73 42
3 74 298 300
3 300 299 73
3 298 299 300
3 74 301 303
3 301 71 302
3 301 302 303
3 75 71 74
3 75 1 71
3 75 23 1
3 76 23 75
3 76 9 23
3 304 76 305
3 306 305 18
3 304 305 306
3 307 76 308
3 309 9 310
3 311 310 76
3 309 310 311
3 313 312 9
