ply
format ascii 1.0
element vertex 360
property float x
property float y
property float z
element face 280
property list uchar int vertex_index
end_header
35.545082 47.15015 -39.475239
17.9678 45.193554 -51.349934
24.343889 40.110817 -48.778278
37.730816 56.991535 -31.88072
37.309849 64.000656 -9.015941
36.687061 69.010109 -25.347551
17.302885 35.908211 -51.004139
14.329775 38.455051 -52.008469
30.814995 44.391586 -45.072807
21.145306 42.764221 -50.338455
36.515285 70.676376 -19.415249
36.937683 52.896965 -36.164242
34.594498 49.269203 -41.078224
33.502506 46.117702 -42.404476
22.737225 41.496101 -49.638958
20.732368 38.001175 -50.044174
22.197378 36.538483 -49.294746
30.462154 39.244732 -44.667431
29.076736 40.882362 -46.034321
36.687927 67.943893 -11.017351
36.950058 67.681404 -14.246972
36.957729 59.846523 -33.8386
37.414169 55.164314 -34.056297
12.868988 39.783485 -52.372967
26.196281 43.808392 -48.264935
37.252731 61.46109 -31.396265
37.386333 63.090336 -28.881775
37.367191 64.879997 -26.134258
37.336048 66.006813 -23.305721
36.457474 67.646317 -7.7565
37.006176 63.973358 -5.889335
17.697323 40.734245 -51.220325
16.092119 41.693829 -51.661697
15.849375 37.431698 -51.551403
32.318535 47.643089 -43.920433
32.072376 42.59103 -43.636356
19.684755 44.102001 -50.875591
19.23246 39.245964 -50.668373
18.737989 34.604477 -50.393917
29.402214 45.70153 -46.392567
27.528822 41.895893 -47.244884
25.758102 38.496262 -47.83289
36.615986 70.045616 -22.4195
36.358719 71.071007 -16.31179
35.463936 52.38184 -39.567337
36.156891 55.028019 -37.821484
36.325054 50.438694 -37.937187
14.540187 42.93829 -52.004429
35.018896 45.640871 -40.191979
34.543604 46.700397 -40.993471
35.06979 48.209677 -40.276731
23.540557 40.803459 -49.208618
23.709153 43.378868 -49.407858
24.512486 42.686226 -48.977518
29.521318 37.316807 -45.087416
30.207357 36.619535 -44.408609
38.069013 55.593712 -30.914428
37.924684 54.794929 -32.056556
37.427822 64.026032 -10.631839
37.116861 65.99765 -11.632544
36.998888 65.972274 -10.016646
37.712183 62.207737 -9.685792
37.427822 64.026032 -10.631839
37.591156 62.155828 -8.141024
37.712183 62.207737 -9.685792
37.924684 54.794929 -32.056556
37.766361 53.881319 -33.144344
37.572492 56.077924 -32.968508
17.171669 45.772871 -51.519588
18.064653 47.580763 -51.385024
27.109913 45.584303 -47.900904
26.364286 46.254219 -48.408028
37.022045 64.591257 -29.809394
37.319532 62.275713 -30.13902
36.955244 63.776634 -31.066639
37.027126 66.945053 -25.740904
37.055866 66.159142 -27.165762
36.715801 68.224198 -26.772408
36.031505 69.406418 -7.157611
36.152319 69.595013 -8.746609
36.283352 67.58112 -6.073869
36.031505 69.406418 -7.157611
36.955244 63.776634 -31.066639
36.876758 62.870632 -32.309092
32.911146 49.436346 -43.308703
32.317211 50.143284 -44.065668
32.680027 41.805441 -42.858542
32.787441 44.354366 -43.020416
33.395092 43.568777 -42.242602
31.901551 39.987858 -43.403418
32.680027 41.805441 -42.858542
21.346127 45.292854 -50.443842
22.131555 44.701021 -50.141178
20.415031 43.433111 -50.607023
20.615851 45.961744 -50.71241
21.346127 45.292854 -50.443842
19.439687 34.030787 -50.064234
19.735178 36.302826 -50.219046
20.436877 35.729135 -49.889362
18.383219 32.250118 -50.242962
19.439687 34.030787 -50.064234
30.108604 45.046558 -45.732687
30.179344 47.473835 -45.904604
30.885734 46.818863 -45.244724
27.395375 39.478342 -46.977758
28.302779 41.389128 -46.639602
28.169331 38.971576 -46.372476
26.510015 37.778526 -47.271761
26.643462 40.196078 -47.538887
27.395375 39.478342 -46.977758
36.565635 70.360996 -20.917375
36.26325 71.851619 -21.976585
36.2129 72.167 -20.474459
36.882528 68.779495 -19.935105
36.932879 68.464115 -21.43723
36.565635 70.360996 -20.917375
36.226484 71.309967 -14.666704
35.936934 72.967568 -15.704691
37.055736 67.463673 -15.908179
37.343939 65.773985 -14.789223
37.286491 62.03581 -5.012726
36.840697 63.828392 -4.310047
35.344574 54.79569 -39.574751
34.943388 53.372436 -40.444959
36.547287 53.962492 -36.992863
36.399445 56.236592 -36.87512
36.78984 55.171064 -36.046499
37.054833 50.66894 -36.156176
36.748518 49.439804 -37.042648
36.631369 51.667829 -37.050714
12.901857 41.793224 -52.318808
12.087996 40.281425 -52.524899
36.359852 70.366863 -26.385647
36.715801 68.224198 -26.772408
16.287609 34.400801 -51.219026
16.98855 33.610501 -50.893284
34.048502 47.693452 -41.74135
33.503131 48.673653 -42.550724
34.049127 50.249403 -41.887598
33.997608 45.124647 -41.656597
34.048502 47.693452 -41.74135
34.543604 46.700397 -40.993471
33.395092 43.568777 -42.242602
33.997608 45.124647 -41.656597
22.927515 44.066961 -49.791429
23.709153 43.378868 -49.407858
21.941266 42.130161 -49.988707
22.131555 44.701021 -50.141178
22.927515 44.066961 -49.791429
21.169382 34.997789 -49.514648
20.436877 35.729135 -49.889362
21.464873 37.269829 -49.66946
28.828609 38.135622 -45.770861
29.769445 40.063547 -45.350876
29.521318 37.316807 -45.087416
28.169331 38.971576 -46.372476
28.828609 38.135622 -45.770861
36.103696 72.635704 -18.950323
36.2129 72.167 -20.474459
36.818993 67.812648 -12.632161
36.522154 69.615166 -13.634296
36.391089 69.74641 -12.019485
37.247926 65.866405 -13.247355
36.818993 67.812648 -12.632161
37.116861 65.99765 -11.632544
37.343939 65.773985 -14.789223
37.247926 65.866405 -13.247355
36.799864 58.645843 -34.883679
36.568262 61.087076 -34.737986
37.028084 56.304739 -34.992527
36.799864 58.645843 -34.883679
37.185949 57.505418 -33.947449
37.175926 54.030639 -35.11027
36.78984 55.171064 -36.046499
37.028084 56.304739 -34.992527
37.549637 52.937798 -34.230635
37.311394 51.804123 -35.284607
37.175926 54.030639 -35.11027
37.549637 52.937798 -34.230635
37.766361 53.881319 -33.144344
12.745717 37.70314 -52.406405
13.599381 39.119268 -52.190718
13.476111 37.038923 -52.224155
12.054077 38.330656 -52.612498
12.745717 37.70314 -52.406405
12.087996 40.281425 -52.524899
12.054077 38.330656 -52.612498
35.516298 44.800962 -39.365778
35.990515 46.40019 -38.641537
25.438682 44.535013 -48.720847
26.364286 46.254219 -48.408028
25.270085 41.959604 -48.521607
24.512486 42.686226 -48.977518
25.438682 44.535013 -48.720847
37.607933 60.042518 -30.382948
37.846975 57.807741 -30.625175
37.491773 59.226312 -31.638492
37.674734 60.857141 -29.125703
37.607933 60.042518 -30.382948
37.319532 62.275713 -30.13902
37.700428 61.733139 -27.894317
37.674734 60.857141 -29.125703
37.065437 65.264311 -28.539521
37.022045 64.591257 -29.809394
37.376762 63.985167 -27.508017
37.065437 65.264311 -28.539521
37.055866 66.159142 -27.165762
37.690857 62.62797 -26.520559
37.700428 61.733139 -27.894317
37.376762 63.985167 -27.508017
37.71311 63.182423 -25.135904
37.690857 62.62797 -26.520559
37.697539 63.74583 -23.721635
37.71311 63.182423 -25.135904
37.351619 65.443405 -24.719989
37.656522 64.354763 -22.3082
37.697539 63.74583 -23.721635
36.267545 69.743801 -10.377035
36.391089 69.74641 -12.019485
36.5727 67.795105 -9.386926
36.267545 69.743801 -10.377035
36.152319 69.595013 -8.746609
36.557703 65.744641 -5.140287
36.731825 65.809838 -6.822917
36.283352 67.58112 -6.073869
36.840697 63.828392 -4.310047
36.557703 65.744641 -5.140287
36.729258 62.063349 -33.53026
36.568262 61.087076 -34.737986
37.10523 60.653807 -32.617432
36.729258 62.063349 -33.53026
36.876758 62.870632 -32.309092
15.560854 35.162544 -51.492659
16.57613 36.669955 -51.277771
16.287609 34.400801 -51.219026
14.953303 35.966924 -51.749765
15.560854 35.162544 -51.492659
14.193503 36.478601 -51.978298
15.089575 37.943374 -51.779936
14.953303 35.966924 -51.749765
13.476111 37.038923 -52.224155
14.193503 36.478601 -51.978298
31.637504 48.444615 -44.668537
32.317211 50.143284 -44.065668
31.566765 46.017337 -44.49662
30.885734 46.818863 -45.244724
31.637504 48.444615 -44.668537
32.91052 46.880396 -43.162455
32.911146 49.436346 -43.308703
33.503131 48.673653 -42.550724
31.09644 38.314709 -43.918955
31.267265 40.917881 -44.151893
31.901551 39.987858 -43.403418
30.207357 36.619535 -44.408609
31.09644 38.314709 -43.918955
35.018896 45.640871 -40.191979
35.516298 44.800962 -39.365778
18.898017 46.95458 -51.200804
18.064653 47.580763 -51.385024
19.756494 46.408804 -50.963633
20.615851 45.961744 -50.71241
18.826277 44.647778 -51.112763
18.898017 46.95458 -51.200804
19.756494 46.408804 -50.963633
17.706102 32.958634 -50.588173
16.98855 33.610501 -50.893284
18.020437 35.256344 -50.699028
17.706102 32.958634 -50.588173
18.383219 32.250118 -50.242962
29.50063 48.442213 -46.555199
30.179344 47.473835 -45.904604
28.71288 46.530872 -46.96472
29.50063 48.442213 -46.555199
27.776184 44.628054 -47.390878
28.71288 46.530872 -46.96472
28.465518 43.798711 -46.818725
26.862552 42.852142 -47.754909
27.109913 45.584303 -47.900904
27.776184 44.628054 -47.390878
25.408337 35.899764 -47.616864
26.510015 37.778526 -47.271761
24.702651 36.758645 -48.126549
25.408337 35.899764 -47.616864
23.995545 37.565922 -48.599243
25.050995 39.303539 -48.305584
24.702651 36.758645 -48.126549
22.922289 35.779755 -48.857477
23.270634 38.32465 -49.036512
23.995545 37.565922 -48.599243
21.836465 33.996027 -49.091677
22.922289 35.779755 -48.857477
21.169382 34.997789 -49.514648
21.836465 33.996027 -49.091677
38.069013 55.593712 -30.914428
37.846975 57.807741 -30.625175
36.316174 71.045666 -25.00628
36.359852 70.366863 -26.385647
36.280636 71.563419 -23.542255
36.26325 71.851619 -21.976585
36.651523 69.527862 -23.883525
36.316174 71.045666 -25.00628
36.280636 71.563419 -23.542255
37.29291 66.444714 -21.88034
36.976017 68.026214 -22.86261
36.932879 68.464115 -21.43723
37.656522 64.354763 -22.3082
37.29291 66.444714 -21.88034
36.025413 72.83302 -17.398593
35.936934 72.967568 -15.704691
36.437002 70.873692 -17.863519
36.103696 72.635704 -18.950323
36.025413 72.83302 -17.398593
36.654388 69.376205 -15.279381
36.226484 71.309967 -14.666704
36.522154 69.615166 -13.634296
36.760067 69.158474 -16.940588
36.654388 69.376205 -15.279381
37.055736 67.463673 -15.908179
36.83835 68.961159 -18.492318
36.437002 70.873692 -17.863519
36.760067 69.158474 -16.940588
36.882528 68.779495 -19.935105
36.83835 68.961159 -18.492318
37.43932 62.142179 -6.577721
37.591156 62.155828 -8.141024
37.158012 63.987007 -7.452638
37.43932 62.142179 -6.577721
37.286491 62.03581 -5.012726
34.508669 51.816118 -41.200403
34.049127 50.249403 -41.887598
35.029217 50.825521 -40.322781
34.508669 51.816118 -41.200403
34.943388 53.372436 -40.444959
35.968907 57.421791 -37.786058
36.399445 56.236592 -36.87512
35.691052 56.11878 -38.701825
35.968907 57.421791 -37.786058
35.810413 53.704929 -38.694411
35.344574 54.79569 -39.574751
35.691052 56.11878 -38.701825
36.3805 48.044462 -37.872511
35.990515 46.40019 -38.641537
35.935068 48.794422 -38.706213
36.3805 48.044462 -37.872511
36.748518 49.439804 -37.042648
37.054833 50.66894 -36.156176
37.311394 51.804123 -35.284607
16.233829 44.023009 -51.67547
17.171669 45.772871 -51.519588
17.02996 43.443691 -51.505815
15.457862 44.645239 -51.846836
16.233829 44.023009 -51.67547
15.316153 42.31606 -51.833063
14.591616 45.055199 -51.974407
15.457862 44.645239 -51.846836
13.737456 43.370627 -52.134539
13.704587 41.360888 -52.188698
12.901857 41.793224 -52.318808
14.591616 45.055199 -51.974407
13.737456 43.370627 -52.134539
3 0 48 50
3 50 49 12
3 48 49 50
3 2 51 53
3 51 14 52
3 51 52 53
3 2 16 14
3 55 54 17
3 3 56 57
3 4 58 60
3 60 59 19
3 58 59 60
3 4 61 62
3 4 63 64
3 3 22 21
3 3 65 67
3 67 66 22
3 65 66 67
3 1 68 69
3 70 24 71
3 72 26 73
3 74 73 25
3 72 73 74
3 5 75 77
3 75 27 76
3 75 76 77
3 5 28 27
3 78 29 79
3 81 80 29
3 82 25 83
3 6 33 31
3 84 34 85
3 86 35 87
3 88 87 13
3 86 87 88
3 90 89 35
3 9 91 92
3 9 93 95
3 93 36 94
3 93 94 95
3 9 37 36
3 96 38 97
3 98 97 15
3 96 97 98
3 100 99 38
3 8 101 103
3 101 39 102
3 101 102 103
3 104 40 105
3 106 105 18
3 104 105 106
3 107 41 108
3 109 108 40
3 107 108 109
3 10 110 112
3 110 42 111
3 110 111 112
3 10 113 115
3 115 114 42
3 113 114 115
3 116 43 117
3 119 118 20
3 121 120 30
3 122 44 123
3 11 124 126
3 124 45 125
3 124 125 126
3 11 46 45
3 11 127 129
3 129 128 46
3 127 128 129
3 7 47 32
3 131 130 23
3 132 5 133
3 135 134 6
3 12 136 138
3 136 13 137
3 136 137 138
3 139 13 140
3 141 140 12
3 139 140 141
3 143 142 13
3 14 144 145
3 14 146 148
3 146 9 147
3 146 147 148
3 14 15 9
3 16 15 14
3 16 149 151
3 151 150 15
3 149 150 151
3 17 18 8
3 152 18 153
3 154 153 17
3 152 153 154
3 156 155 18
3 157 10 158
3 19 159 161
3 159 20 160
3 159 160 161
3 162 20 163
3 164 163 19
3 162 163 164
3 166 165 20
3 21 167 168
3 22 169 171
3 171 170 21
3 169 170 171
3 22 172 174
3 172 11 173
3 172 173 174
3 22 175 177
3 177 176 11
3 175 176 177
3 179 178 22
3 180 23 181
3 182 181 7
3 180 181 182
3 183 23 184
3 186 185 23
3 188 187 0
3 24 189 190
3 24 191 193
3 191 2 192
3 191 192 193
3 25 194 196
3 196 195 3
3 194 195 196
3 26 197 199
3 199 198 25
3 197 198 199
3 26 200 201
3 202 26 203
3 27 204 206
3 204 26 205
3 204 205 206
3 27 207 209
3 209 208 26
3 207 208 209
3 27 210 211
3 28 212 214
3 214 213 27
3 212 213 214
3 28 215 216
3 217 19 218
3 29 219 221
3 219 19 220
3 219 220 221
3 29 4 19
3 29 30 4
3 222 30 223
3 224 223 29
3 222 223 224
3 226 225 30
3 227 21 228
3 25 229 231
3 229 21 230
3 229 230 231
3 25 3 21
3 31 32 1
3 33 32 31
3 33 7 32
3 232 33 233
3 234 233 6
3 232 233 234
3 235 33 236
3 237 7 238
3 239 238 33
3 237 238 239
3 241 240 7
3 34 242 243
3 34 244 246
3 244 8 245
3 244 245 246
3 13 247 249
3 247 34 248
3 247 248 249
3 35 34 13
3 35 8 34
3 35 17 8
3 250 17 251
3 252 251 35
3 250 251 252
3 254 253 17
3 256 255 0
3 257 1 258
3 36 259 260
3 36 261 263
3 261 1 262
3 261 262 263
3 36 31 1
3 37 31 36
3 37 6 31
3 15 37 9
3 38 37 15
3 38 6 37
3 38 264 266
3 266 265 6
3 264 265 266
3 268 267 38
3 39 269 270
3 39 271 272
3 18 39 8
3 40 39 18
3 40 273 275
3 275 274 39
3 273 274 275
3 40 276 278
3 276 24 277
3 276 277 278
3 41 24 40
3 41 2 24
3 279 41 280
3 281 41 282
3 283 2 284
3 285 284 41
3 283 284 285
3 286 16 287
3 288 287 2
3 286 287 288
3 289 16 290
3 292 291 16
3 294 293 3
3 295 5 296
3 42 297 298
3 42 299 301
3 299 5 300
3 299 300 301
3 42 28 5
3 302 28 303
3 304 303 42
3 302 303 304
3 306 305 28
3 43 307 308
3 43 309 311
3 309 10 310
3 309 310 311
3 20 312 314
3 312 43 313
3 312 313 314
3 315 43 316
3 317 316 20
3 315 316 317
3 318 10 319
3 320 319 43
3 318 319 320
3 322 321 10
3 30 323 325
3 325 324 4
3 323 324 325
3 327 326 30
3 328 12 329
3 44 330 332
3 330 12 331
3 330 331 332
3 44 0 12
3 45 333 334
3 45 335 336
3 45 337 339
3 337 44 338
3 337 338 339
3 46 44 45
3 46 0 44
3 46 340 342
3 342 341 0
3 340 341 342
3 344 343 46
3 346 345 11
3 32 347 349
3 349 348 1
3 347 348 349
3 47 350 352
3 352 351 32
3 350 351 352
3 47 353 354
3 23 47 7
3 355 47 356
3 357 356 23
3 355 356 357
3 359 358 47
