ply
format ascii 1.0
element vertex 377
property float x
property float y
property float z
element face 398
property list uchar int vertex_index
end_header
25.076122 7.595218 -22.21653
25.195616 -3.933396 -8.002165
31.155298 2.423312 -22.598259
24.891895 1.17836 -14.593688
30.806204 -4.644537 -14.712835
31.179241 -10.439335 -7.2523
25.133251 15.203015 -30.633701
24.794682 -1.468041 -11.107872
27.859087 -1.779743 -14.568269
27.882368 -4.733864 -10.970621
34.039494 -13.558611 -7.037203
33.759628 -10.97555 -10.860397
22.09338 10.308691 -22.046072
22.196037 13.67132 -25.934597
25.190578 11.195137 -26.316114
28.120338 4.992857 -22.296413
28.331184 8.843018 -26.606977
31.323446 6.359568 -26.798546
22.067844 7.229806 -18.330969
25.033373 4.244755 -18.36076
27.960791 1.498735 -18.365065
30.99024 -1.366521 -18.518305
33.666615 -4.397654 -18.617477
28.183262 -7.255598 -7.658573
30.803797 -7.71546 -10.905394
33.587582 -7.826108 -14.707968
24.695646 19.155222 -34.581291
28.282274 12.854434 -30.941963
27.865175 16.952135 -35.228767
23.863245 -2.184386 -8.344473
23.59919 -1.038158 -9.763303
25.054792 -2.841982 -9.5476
26.32527 -3.197081 -10.933547
26.535955 -4.550164 -9.331366
35.118542 -13.979519 -8.746316
23.542295 8.99267 -22.197321
23.689213 10.612522 -24.189125
25.195612 9.322715 -24.258615
29.693041 3.773641 -22.517412
29.784473 5.586611 -24.49283
31.249643 4.268987 -24.571432
23.405874 1.365841 -12.841656
23.363482 2.762305 -14.566969
23.367144 4.276382 -16.430588
24.812096 2.716088 -16.330843
26.383698 2.873666 -18.251097
26.451361 1.266361 -16.501534
29.373497 -3.200797 -14.666385
29.338476 -1.524053 -16.51383
30.805223 -3.023487 -16.528172
32.346436 -2.797054 -18.600826
32.232407 -4.465924 -16.673977
29.923933 -9.922524 -5.790039
28.414881 -8.335271 -5.990682
29.6283 -8.854866 -7.348307
29.421282 -7.615558 -9.056066
30.975056 -9.175795 -9.036223
34.931061 -11.096721 -12.810285
33.571262 -9.379892 -12.751411
34.861557 -9.49787 -14.748445
34.797642 -7.803616 -16.625099
23.640038 14.344808 -28.217287
22.097754 15.480796 -27.749407
23.489656 16.203379 -30.049482
23.444567 18.113663 -32.052517
24.927778 17.060698 -32.470375
29.877695 9.597982 -28.822672
28.442745 10.880837 -28.912834
29.869276 11.8139 -31.2337
29.47027 15.974754 -35.637115
27.570478 19.007421 -37.418026
32.538971 0.933119 -22.610739
23.334837 0.252174 -11.221595
24.839849 -0.275582 -12.727106
26.389563 -0.293051 -14.619729
26.27965 -1.764397 -12.708573
27.749031 -3.256641 -12.6768
29.304518 -4.767179 -12.730738
32.648708 -12.046646 -7.03265
32.476601 -10.776908 -8.957334
33.82056 -12.356906 -8.801375
34.950165 -12.63171 -10.629207
20.737499 11.751369 -21.96261
20.848688 13.333374 -23.914371
22.188324 11.844989 -23.914734
23.618986 12.468911 -26.167717
25.122061 13.186759 -28.426937
22.698002 22.433542 -36.001812
26.689072 6.252254 -22.3011
26.638733 8.186471 -24.367916
28.270779 6.897289 -24.46884
29.80393 7.603901 -26.628431
31.353216 8.351406 -28.916761
22.089954 8.756927 -20.207632
23.512123 7.274281 -20.174498
23.572025 5.627775 -18.305048
24.989634 6.010427 -20.336126
26.540987 4.523632 -20.254681
28.115641 3.211416 -20.381588
29.578751 1.85161 -20.393539
27.868387 -0.180769 -16.403662
29.518801 0.063115 -18.43416
31.132612 0.487781 -20.603096
32.485741 -0.986466 -20.625315
33.755901 -2.414797 -20.761011
27.064228 -6.834277 -6.236911
26.577856 -5.607552 -7.682651
27.896688 -6.002172 -9.213383
29.258173 -6.261288 -10.759839
30.753246 -6.234203 -12.756239
32.307041 -9.35221 -10.833715
32.244331 -7.85813 -12.732289
32.194767 -6.216066 -14.653023
33.528778 -6.137852 -16.554354
20.789867 15.005111 -25.654247
23.047857 20.258156 -33.946384
24.226883 21.341768 -36.61134
26.886471 10.049119 -26.619652
26.734922 11.924504 -28.529984
26.71191 13.946425 -30.733755
29.745249 13.908037 -33.478275
28.19692 14.872567 -33.133556
26.560402 16.035738 -32.92276
26.268265 18.065527 -34.958107
25.893593 20.148279 -37.048664
30.551587 -10.180929 -6.52117
30.7162 -10.759729 -5.664093
31.343854 -11.018135 -6.395224
35.426611 -10.319969 -14.815984
34.896309 -10.297296 -13.779365
35.461363 -11.119395 -13.846904
35.425411 -9.504438 -15.801056
35.426611 -10.319969 -14.815984
30.596525 11.164769 -31.225293
29.873486 10.705941 -30.028186
30.600735 10.056809 -30.019779
33.220167 1.23411 -23.721898
33.236429 0.215958 -22.746385
33.506894 -13.382897 -6.140362
34.123432 -14.09762 -6.022512
33.344101 -12.802629 -7.034927
32.811501 -12.626914 -6.138085
33.506894 -13.382897 -6.140362
35.504935 -13.395319 -10.68505
35.034353 -13.305615 -9.687762
35.589123 -14.069223 -9.743605
35.476391 -12.681017 -11.703359
35.504935 -13.395319 -10.68505
22.125954 21.958521 -34.692701
21.889165 23.027572 -35.549132
22.078899 7.993366 -19.2693
21.403914 8.794165 -19.290684
21.392859 8.030605 -18.352352
34.30855 -4.277675 -19.664656
34.353193 -3.286246 -20.736424
33.711258 -3.406226 -19.689244
34.819561 -6.913862 -17.628454
35.360272 -7.7412 -17.684183
21.378597 16.141675 -27.552619
22.036215 16.443821 -28.684114
30.374523 14.361287 -34.647247
30.525325 13.294355 -33.549524
26.505381 20.634304 -38.349348
26.732036 19.57785 -37.233345
27.343824 20.063875 -38.534029
25.668022 21.22024 -38.149996
26.505381 20.634304 -38.349348
23.731217 -1.611272 -9.053888
23.051293 -0.648475 -9.191783
23.183321 -1.221589 -8.482368
34.662487 -14.415054 -6.823846
34.123432 -14.09762 -6.022512
35.202011 -14.625508 -7.678402
34.579018 -13.769065 -7.89176
34.662487 -14.415054 -6.823846
35.624437 -14.730647 -8.678036
35.202011 -14.625508 -7.678402
35.589123 -14.069223 -9.743605
35.624437 -14.730647 -8.678036
21.329545 7.403282 -17.43989
21.392859 8.030605 -18.352352
22.723291 2.242449 -12.942251
22.715178 1.70147 -12.157033
22.702095 2.940681 -13.804907
22.723291 2.242449 -12.942251
23.384678 2.064073 -13.704313
22.694501 3.561738 -14.618333
22.702095 2.940681 -13.804907
23.365313 3.519343 -15.498779
22.696332 4.318776 -15.550142
22.694501 3.561738 -14.618333
30.166266 -10.466272 -4.990873
30.7162 -10.759729 -5.664093
29.406499 -9.658584 -5.112941
30.166266 -10.466272 -4.990873
29.169407 -9.128898 -5.89036
28.651973 -8.864958 -5.213262
29.406499 -9.658584 -5.112941
35.393454 -8.657311 -16.739382
34.8296 -8.650743 -15.686772
35.425411 -9.504438 -15.801056
35.360272 -7.7412 -17.684183
35.393454 -8.657311 -16.739382
22.732166 16.805112 -29.834152
22.036215 16.443821 -28.684114
22.793705 15.842088 -28.899445
23.467112 17.158521 -31.051
22.709621 17.760254 -30.83567
22.732166 16.805112 -29.834152
30.076561 16.450922 -36.871113
30.237033 15.394646 -35.726667
29.31285 16.957956 -36.686666
30.076561 16.450922 -36.871113
28.510303 17.446646 -36.482492
28.667722 16.463445 -35.432941
29.31285 16.957956 -36.686666
28.362954 18.47429 -37.577122
27.717827 17.979778 -36.323397
28.510303 17.446646 -36.482492
28.109985 19.528495 -38.683234
28.362954 18.47429 -37.577122
27.343824 20.063875 -38.534029
28.109985 19.528495 -38.683234
32.630719 1.949492 -23.725131
31.938882 2.694589 -23.718891
31.847134 1.678216 -22.604499
32.630719 1.949492 -23.725131
33.220167 1.23411 -23.721898
22.891851 -0.071776 -9.874429
23.051293 -0.648475 -9.191783
22.759674 0.573389 -10.603575
22.891851 -0.071776 -9.874429
23.467014 -0.392992 -10.492449
22.679659 1.144637 -11.347003
22.759674 0.573389 -10.603575
23.370356 0.809008 -12.031626
22.715178 1.70147 -12.157033
22.679659 1.144637 -11.347003
32.078587 -11.821791 -6.285399
32.811501 -12.626914 -6.138085
31.913975 -11.242991 -7.142475
31.343854 -11.018135 -6.395224
32.078587 -11.821791 -6.285399
35.466839 -11.913522 -12.793899
34.940613 -11.864216 -11.719746
35.476391 -12.681017 -11.703359
35.461363 -11.119395 -13.846904
35.466839 -11.913522 -12.793899
20.793093 12.542371 -22.938491
20.192857 13.33621 -22.974441
20.137263 12.545208 -21.99856
22.41296 23.455483 -36.855797
21.889165 23.027572 -35.549132
23.225119 22.892013 -37.262439
22.41296 23.455483 -36.855797
23.341922 -1.683606 -7.837331
23.183321 -1.221589 -8.482368
24.000551 -2.674325 -7.625876
23.341922 -1.683606 -7.837331
24.666736 -3.54883 -7.454722
24.529431 -3.058891 -8.173319
24.000551 -2.674325 -7.625876
31.338495 9.433522 -30.066824
30.600735 10.056809 -30.019779
30.615455 8.974694 -28.869717
31.986054 3.617426 -24.705478
31.20247 3.34615 -23.584846
31.938882 2.694589 -23.718891
31.982974 4.654006 -25.746561
31.986054 3.617426 -24.705478
32.019875 5.699297 -26.860118
31.286544 5.314278 -25.684989
31.982974 4.654006 -25.746561
32.062886 6.756585 -27.998538
32.019875 5.699297 -26.860118
32.077771 7.752504 -29.057645
31.338331 7.355487 -27.857654
32.062886 6.756585 -27.998538
32.064376 8.748368 -30.10237
32.077771 7.752504 -29.057645
31.338495 9.433522 -30.066824
32.064376 8.748368 -30.10237
20.096637 11.851869 -21.101108
20.137263 12.545208 -21.99856
20.729363 11.018605 -21.075141
20.096637 11.851869 -21.101108
21.407304 10.297266 -21.116872
21.415439 11.03003 -22.004341
20.729363 11.018605 -21.075141
21.405591 9.521384 -20.197652
21.403914 8.794165 -19.290684
22.091667 9.532809 -21.126852
21.407304 10.297266 -21.116872
21.405591 9.521384 -20.197652
22.04106 6.54156 -17.441737
21.329545 7.403282 -17.43989
22.69071 5.064848 -16.491546
22.696332 4.318776 -15.550142
22.79315 5.740545 -17.428776
22.69071 5.064848 -16.491546
23.469584 4.952078 -17.367818
22.819935 6.42879 -18.318008
22.04106 6.54156 -17.441737
22.79315 5.740545 -17.428776
33.209814 -0.743834 -21.753673
33.236429 0.215958 -22.746385
32.512356 -0.026673 -21.618027
33.844894 -1.458 -21.821521
33.209814 -0.743834 -21.753673
33.120821 -1.700632 -20.693163
34.402363 -2.283938 -21.790022
33.844894 -1.458 -21.821521
34.402363 -2.283938 -21.790022
34.353193 -3.286246 -20.736424
25.376069 -4.477444 -7.299788
24.666736 -3.54883 -7.454722
27.894605 -8.009536 -5.376677
28.651973 -8.864958 -5.213262
27.219279 -7.259039 -5.499792
27.894605 -8.009536 -5.376677
27.739555 -7.584774 -6.113796
26.538709 -6.419094 -5.709319
27.219279 -7.259039 -5.499792
26.310375 -5.927885 -6.417161
26.538709 -6.419094 -5.709319
26.067189 -5.314522 -7.140031
26.310375 -5.927885 -6.417161
26.821042 -6.220915 -6.959781
25.886736 -4.770474 -7.842408
25.376069 -4.477444 -7.299788
26.067189 -5.314522 -7.140031
34.185129 -6.08098 -17.593082
34.16321 -6.970734 -16.589726
34.819561 -6.913862 -17.628454
34.254047 -5.210881 -18.624643
33.597696 -5.267753 -17.585915
34.185129 -6.08098 -17.593082
34.30855 -4.277675 -19.664656
34.254047 -5.210881 -18.624643
20.196868 14.094488 -23.835823
20.192857 13.33621 -22.974441
20.167458 14.930356 -24.705761
20.196868 14.094488 -23.835823
20.819277 14.169242 -24.784309
20.104214 15.754624 -25.485188
20.167458 14.930356 -24.705761
20.724654 15.903832 -26.505039
21.44381 15.242953 -26.701827
21.378597 16.141675 -27.552619
20.104214 15.754624 -25.485188
20.724654 15.903832 -26.505039
22.618826 18.754872 -31.759526
22.709621 17.760254 -30.83567
22.420471 19.827118 -32.706459
22.618826 18.754872 -31.759526
23.246212 19.18591 -32.999451
22.300882 20.870828 -33.664988
22.420471 19.827118 -32.706459
22.872929 21.345849 -34.974098
22.125954 21.958521 -34.692701
22.300882 20.870828 -33.664988
23.989559 22.346126 -37.567203
23.225119 22.892013 -37.262439
23.462443 21.887655 -36.306576
30.587339 12.247287 -32.427236
30.596525 11.164769 -31.225293
29.807263 12.860969 -32.355987
30.587339 12.247287 -32.427236
30.525325 13.294355 -33.549524
29.60776 14.941396 -34.557695
30.374523 14.361287 -34.647247
30.237033 15.394646 -35.726667
24.834667 21.816985 -37.931334
25.060238 20.745023 -36.830002
25.668022 21.22024 -38.149996
23.989559 22.346126 -37.567203
24.834667 21.816985 -37.931334
3 1 31 29
3 1 33 31
3 0 37 35
3 2 40 38
3 3 42 41
3 3 44 42
3 3 46 44
3 4 49 47
3 4 51 49
3 5 125 127
3 125 52 126
3 125 126 127
3 5 54 52
3 5 56 54
3 128 59 129
3 130 129 57
3 128 129 130
3 132 131 59
3 6 63 61
3 6 65 63
3 133 68 134
3 135 134 66
3 133 134 135
3 137 136 71
3 7 72 30
3 7 73 72
3 7 75 73
3 9 76 32
3 9 77 76
3 10 138 139
3 10 140 142
3 140 78 141
3 140 141 142
3 10 80 78
3 143 81 144
3 145 144 34
3 143 144 145
3 147 146 81
3 12 84 82
3 14 85 36
3 14 86 85
3 148 87 149
3 15 90 88
3 17 91 39
3 17 92 91
3 18 150 152
3 150 93 151
3 150 151 152
3 18 94 93
3 19 95 43
3 19 96 95
3 19 97 96
3 20 98 45
3 20 99 98
3 8 100 74
3 21 101 48
3 21 102 101
3 21 103 102
3 22 104 50
3 22 153 155
3 155 154 104
3 153 154 155
3 23 105 53
3 23 106 105
3 23 107 106
3 24 108 55
3 24 109 108
3 11 110 79
3 25 111 58
3 25 112 111
3 25 113 112
3 157 156 60
3 13 114 83
3 159 158 62
3 26 115 64
3 26 116 115
3 16 117 89
3 27 118 67
3 27 119 118
3 160 120 161
3 28 121 69
3 28 122 121
3 28 123 122
3 162 124 163
3 164 163 70
3 162 163 164
3 166 165 124
3 29 167 169
3 167 30 168
3 167 168 169
3 31 30 29
3 31 7 30
3 31 32 7
3 33 32 31
3 33 9 32
3 170 10 171
3 172 34 173
3 174 173 10
3 172 173 174
3 175 34 176
3 178 177 34
3 35 36 12
3 37 36 35
3 37 14 36
3 38 39 15
3 40 39 38
3 40 17 39
3 179 18 180
3 41 181 182
3 42 183 185
3 185 184 41
3 183 184 185
3 42 186 187
3 42 188 190
3 188 43 189
3 188 189 190
3 44 43 42
3 44 19 43
3 44 45 19
3 46 45 44
3 46 20 45
3 47 48 8
3 49 48 47
3 49 21 48
3 49 50 21
3 51 50 49
3 51 22 50
3 52 191 192
3 52 193 194
3 52 195 197
3 195 53 196
3 195 196 197
3 54 53 52
3 54 23 53
3 54 55 23
3 56 55 54
3 56 24 55
3 57 58 11
3 59 58 57
3 59 25 58
3 59 60 25
3 198 60 199
3 200 199 59
3 198 199 200
3 202 201 60
3 61 62 13
3 63 62 61
3 63 203 205
3 205 204 62
3 203 204 205
3 63 206 208
3 206 64 207
3 206 207 208
3 65 64 63
3 65 26 64
3 66 67 16
3 68 67 66
3 68 27 67
3 209 69 210
3 211 69 212
3 213 28 214
3 215 214 69
3 213 214 215
3 216 70 217
3 218 217 28
3 216 217 218
3 219 70 220
3 222 221 70
3 71 223 225
3 225 224 2
3 223 224 225
3 227 226 71
3 30 228 229
3 72 230 232
3 232 231 30
3 230 231 232
3 72 233 234
3 72 235 237
3 235 41 236
3 235 236 237
3 73 41 72
3 73 3 41
3 73 74 3
3 75 74 73
3 75 8 74
3 32 75 7
3 76 75 32
3 76 8 75
3 76 47 8
3 77 47 76
3 77 4 47
3 78 238 239
3 78 240 242
3 240 5 241
3 240 241 242
3 78 79 5
3 80 79 78
3 80 11 79
3 34 80 10
3 81 80 34
3 81 11 80
3 81 57 11
3 243 57 244
3 245 244 81
3 243 244 245
3 247 246 57
3 82 248 250
3 248 83 249
3 248 249 250
3 84 83 82
3 84 13 83
3 36 84 12
3 85 84 36
3 85 13 84
3 85 61 13
3 86 61 85
3 86 6 61
3 87 251 252
3 87 253 254
3 255 29 256
3 257 29 258
3 259 1 260
3 261 260 29
3 259 260 261
3 88 89 0
3 90 89 88
3 90 16 89
3 39 90 15
3 91 90 39
3 91 16 90
3 91 66 16
3 92 66 91
3 92 262 264
3 264 263 66
3 262 263 264
3 265 40 266
3 267 266 2
3 265 266 267
3 268 40 269
3 270 17 271
3 272 271 40
3 270 271 272
3 273 17 274
3 275 92 276
3 277 276 17
3 275 276 277
3 278 92 279
3 281 280 92
3 282 82 283
3 284 82 285
3 286 12 287
3 288 287 82
3 286 287 288
3 93 289 290
3 93 291 293
3 291 12 292
3 291 292 293
3 93 35 12
3 94 35 93
3 94 0 35
3 294 18 295
3 43 296 297
3 95 298 300
3 300 299 43
3 298 299 300
3 95 301 303
3 301 18 302
3 301 302 303
3 95 94 18
3 96 94 95
3 96 0 94
3 96 88 0
3 97 88 96
3 97 15 88
3 45 97 19
3 98 97 45
3 98 15 97
3 98 38 15
3 99 38 98
3 99 2 38
3 74 46 3
3 100 46 74
3 100 20 46
3 48 100 8
3 101 100 48
3 101 20 100
3 101 99 20
3 102 99 101
3 102 2 99
3 102 71 2
3 103 71 102
3 103 304 306
3 306 305 71
3 304 305 306
3 50 103 21
3 104 103 50
3 104 307 309
3 309 308 103
3 307 308 309
3 104 310 311
3 313 312 104
3 314 1 315
3 53 316 317
3 105 318 320
3 320 319 53
3 318 319 320
3 105 321 322
3 105 323 324
3 106 325 327
3 327 326 105
3 325 326 327
3 106 328 330
3 328 1 329
3 328 329 330
3 106 33 1
3 107 33 106
3 107 9 33
3 55 107 23
3 108 107 55
3 108 9 107
3 108 77 9
3 109 77 108
3 109 4 77
3 79 56 5
3 110 56 79
3 110 24 56
3 58 110 11
3 111 110 58
3 111 24 110
3 111 109 24
3 112 109 111
3 112 4 109
3 112 51 4
3 113 51 112
3 113 22 51
3 60 113 25
3 331 113 332
3 333 332 60
3 331 332 333
3 334 22 335
3 336 335 113
3 334 335 336
3 338 337 22
3 83 339 340
3 114 341 343
3 343 342 83
3 341 342 343
3 114 344 345
3 62 114 13
3 346 114 347
3 348 347 62
3 346 347 348
3 350 349 114
3 64 351 352
3 115 353 355
3 355 354 64
3 353 354 355
3 115 356 357
3 115 358 360
3 358 87 359
3 358 359 360
3 116 87 115
3 116 361 363
3 363 362 87
3 361 362 363
3 89 37 0
3 117 37 89
3 117 14 37
3 67 117 16
3 118 117 67
3 118 14 117
3 118 86 14
3 119 86 118
3 119 6 86
3 364 68 365
3 120 366 368
3 366 68 367
3 366 367 368
3 120 27 68
3 69 369 371
3 369 120 370
3 369 370 371
3 121 120 69
3 121 27 120
3 121 119 27
3 122 119 121
3 122 6 119
3 122 65 6
3 123 65 122
3 123 26 65
3 70 123 28
3 124 123 70
3 124 26 123
3 124 116 26
3 372 116 373
3 374 373 124
3 372 373 374
3 376 375 116
