ply
format ascii 1.0
element vertex 904
property float x
property float y
property float z
element face 823
property list uchar int vertex_index
end_header
33.974335 -22.29842 20.886658
37.624447 10.544029 18.289042
27.849581 -41.851936 -12.872649
19.460794 -35.967686 -27.964001
36.028435 -6.34866 20.218523
36.584541 -19.749786 12.602581
34.187229 -32.794403 3.863836
33.552994 -34.407307 12.772553
1.486815 3.298111 -58.359138
24.56238 -39.256119 -20.639332
29.683142 -43.779404 -4.638562
3.155047 -16.45587 -48.710506
35.04092 -14.470881 20.673992
36.592594 -13.051272 16.618452
35.382965 -21.024178 16.931101
35.064598 -27.582048 12.72595
34.119644 -28.335255 16.925949
26.425766 -40.592293 -16.819839
32.34119 -39.297249 3.805891
32.148197 -38.313004 -0.512878
30.064226 -44.973446 -0.532168
2.422802 23.460287 -59.834118
1.882838 18.346416 -60.96645
0.847984 -1.627748 -57.587101
26.37813 -47.975124 -12.204312
36.918377 1.750181 19.392809
37.607395 -5.061646 15.995049
35.783794 -26.365383 8.231239
34.03297 -33.631683 8.427565
32.309242 -40.169319 8.41226
17.379654 -39.698597 -30.032179
14.369769 -37.285191 -33.409447
11.448619 -34.12759 -36.592968
8.582203 -30.703056 -39.91106
5.929104 -26.74507 -43.39579
35.891235 8.304079 22.595407
35.152084 -0.16879 23.39883
34.314442 -8.517431 23.879028
22.304073 -37.809669 -24.249537
20.021055 -42.115612 -26.681282
30.59948 -36.461582 -9.410638
31.60796 -37.355885 -4.930292
28.899755 -42.872055 -8.89602
-2.597654 30.445036 -62.140545
0.154303 27.315212 -61.356823
1.669844 -11.687292 -52.442436
3.605855 -22.09244 -47.097912
34.538067 -18.34815 20.77087
35.274223 -17.809429 18.846045
34.692825 -21.749527 18.908791
34.73103 -24.898167 16.96513
34.103897 -25.384352 18.983583
28.593338 -38.528828 -13.215096
27.804094 -38.048683 -15.235498
27.163055 -41.378143 -14.843853
31.32476 -42.702011 3.757414
31.226494 -42.228409 1.576911
30.261072 -45.361206 1.60872
29.149281 -47.832176 -0.594887
2.954644 18.695648 -59.44305
2.58775 15.946582 -59.794853
1.494634 15.933913 -61.453331
2.146482 13.554699 -60.148361
36.519794 -2.231184 19.773752
37.360729 -1.626348 17.576582
36.850452 -5.786882 18.123135
36.668915 -16.519329 14.627357
37.2668 -12.634413 14.349133
37.237011 -16.156733 12.232774
36.255363 -23.172352 10.584237
34.280399 -31.208855 12.734976
34.679066 -30.474985 10.570134
33.800491 -34.192635 10.489032
33.128117 -37.121815 8.262529
32.987156 -37.430534 10.656374
16.547457 -41.739803 -30.999741
15.851645 -38.415821 -31.778559
15.167526 -40.38435 -32.573818
12.06302 -37.118362 -35.980076
10.57549 -35.518318 -37.635612
9.976767 -32.418808 -38.255642
9.174673 -33.576511 -39.238201
35.36071 11.837755 23.961527
35.048645 7.450119 24.472437
35.588245 4.089708 22.948879
34.652756 3.149009 24.949825
33.858635 -12.534002 24.092846
25.96694 -36.745113 -19.158575
24.817108 -36.063927 -21.155403
23.503078 -35.47237 -23.144209
23.508736 -38.429657 -22.456171
21.163351 -43.168472 -24.997602
30.910721 -41.131069 -2.717758
31.876879 -37.905079 -2.869771
30.609795 -40.639442 -4.934379
30.182789 -40.336754 -7.057629
29.285952 -43.479084 -6.765782
28.032038 -45.88628 -8.684818
28.399048 -46.370453 -6.626885
-2.758374 32.393452 -60.719402
-1.209497 30.978241 -60.665501
1.231832 22.896448 -61.437401
1.297072 25.417305 -60.748074
0.066434 24.963915 -62.350761
1.86627 5.928952 -58.627403
2.357833 -14.149429 -50.561108
4.693485 -24.333055 -45.265633
35.548183 -10.457225 20.473856
36.368538 -9.688763 18.458696
35.845146 -13.73609 18.682959
36.014523 -17.027275 16.808023
36.026768 -20.309496 14.842434
35.84901 -23.669178 12.725397
35.340073 -24.210604 14.869024
34.640163 -27.89234 14.850358
33.878143 -31.536198 14.973412
26.953741 -37.466881 -17.167065
25.590096 -39.868164 -18.698154
33.239834 -36.181519 3.735108
33.23756 -35.520096 1.552463
32.233849 -38.932079 1.574798
31.095629 -41.676731 -0.613701
29.956615 -44.245342 -2.515646
28.705404 -46.837624 -4.592784
28.981041 -47.177509 -2.681294
3.27585 21.426609 -58.986038
2.158494 20.921143 -60.472935
0.994837 20.424582 -62.135777
1.09589 0.751093 -58.081787
27.063635 -45.088772 -12.591047
26.57453 -44.282005 -14.490727
25.905823 -47.36409 -14.14996
37.30534 6.073011 18.897108
38.112263 6.804276 16.650806
37.755436 2.623369 17.183393
38.079365 -0.801874 15.505771
37.134258 -9.078538 16.306681
37.806602 -8.445017 14.121718
35.076248 -29.608335 5.951861
35.454254 -27.067793 10.472225
34.896698 -30.17745 8.222679
34.147388 -33.241547 6.058037
33.252544 -36.559887 6.121084
32.293114 -39.961349 6.009466
31.451294 -42.913303 6.083328
1.966281 0.872763 -56.610287
1.622929 -1.508627 -56.255184
1.335933 -3.997656 -55.772614
1.154584 -6.643305 -55.083561
18.357813 -37.887463 -29.013542
18.001717 -34.755802 -29.690416
16.834236 -36.595184 -30.77832
15.352971 -35.365559 -32.414837
13.617902 -38.886517 -34.284988
12.937631 -35.625832 -34.962631
12.239736 -32.67281 -35.768799
10.690056 -31.036295 -37.485748
9.30476 -29.352339 -39.092964
7.985895 -27.706898 -40.711697
6.658536 -25.812624 -42.471973
7.221211 -28.751331 -41.634155
36.209389 12.78537 21.964367
36.743946 9.484996 20.586048
36.450951 5.077491 21.00316
36.096584 0.986935 21.357466
35.660236 -3.235806 21.731068
34.718185 -4.339013 23.723812
35.182095 -7.412165 22.083214
34.728619 -11.332889 22.303534
34.241215 -15.307996 22.489481
33.755188 -19.083277 22.637241
20.872143 -36.836746 -26.209419
25.869738 -43.650383 -16.520096
25.108717 -43.010796 -18.400393
24.245596 -42.421883 -20.226137
23.278286 -41.553505 -22.078821
22.204939 -40.920933 -23.828941
21.047274 -39.852859 -25.578518
19.787031 -38.892834 -27.262495
18.81596 -41.002125 -28.281618
17.92997 -42.95763 -29.326683
33.480991 -29.148462 18.969831
33.378864 -32.166977 16.990089
33.107018 -35.242306 14.893708
32.729095 -37.932598 12.786251
32.151215 -40.734661 10.512744
30.000816 -35.972889 -11.42217
29.126173 -39.433975 -11.248112
33.074371 -35.082874 -0.702487
31.087751 -37.172451 -7.172688
29.813156 -39.562599 -9.12514
28.426571 -42.382648 -10.863597
27.581997 -45.493073 -10.652847
-4.330753 33.483559 -60.551334
-4.091657 31.703722 -62.163853
2.555285 26.08918 -59.180214
1.370395 28.045723 -59.823639
0.224241 29.59638 -60.248619
-1.160645 28.832415 -61.933243
1.810398 10.901831 -60.155178
1.72868 -9.123783 -53.172222
5.43125 -23.603191 -44.272083
4.310408 -21.395643 -46.103458
3.330577 -19.141735 -47.923927
2.46703 -17.009069 -49.716976
38.019644 11.004818 17.123787
37.742123 12.797452 17.933091
30.355604 -45.490656 2.690176
30.792916 -44.031609 2.683067
30.887448 -44.161058 3.764523
29.817449 -46.797497 1.591485
30.355604 -45.490656 2.690176
2.93069 14.867924 -59.133573
3.136688 16.280718 -59.045904
2.710056 13.671982 -59.310327
2.367116 14.75064 -59.971607
2.93069 14.867924 -59.133573
19.356305 -34.523783 -28.273987
20.128301 -34.913355 -27.366224
36.781199 -19.65963 11.424581
37.107433 -17.863104 11.239677
36.910776 -17.95326 12.417677
36.419952 -21.461069 11.593409
36.61661 -21.370914 10.415408
36.781199 -19.65963 11.424581
15.486684 -42.059337 -32.278292
15.857492 -41.062077 -31.78678
16.176649 -42.737064 -31.491254
10.235753 -36.161034 -38.089188
10.998411 -37.12644 -37.241514
9.535344 -35.19013 -38.890482
9.875082 -34.547415 -38.436906
10.235753 -36.161034 -38.089188
8.835904 -34.241146 -39.69429
9.535344 -35.19013 -38.890482
34.603054 6.814302 25.411395
34.775736 8.882506 25.169351
34.405109 4.663747 25.650089
34.850701 5.299564 24.711131
34.603054 6.814302 25.411395
34.18968 -32.479092 2.794718
34.670702 -30.930372 3.831184
-0.517215 31.385143 -59.910983
-1.285961 32.034866 -60.005791
0.010265 23.759813 -62.770574
0.649133 23.930181 -61.894081
0.592964 22.72608 -62.313895
-0.561403 24.77805 -63.178047
0.010265 23.759813 -62.770574
1.227469 4.548807 -59.247446
1.417196 5.864228 -59.381579
1.676543 4.613531 -58.493271
3.107951 -15.075971 -49.123659
3.521334 -16.195384 -48.219167
2.75644 -15.30265 -49.635807
2.709344 -13.92275 -50.04896
3.107951 -15.075971 -49.123659
28.597503 -48.983617 -1.621541
28.705355 -49.265867 -0.600839
3.717329 20.422129 -58.437914
3.90853 21.917752 -58.226982
1.261998 18.217824 -61.884974
0.817997 19.256908 -62.469637
1.438837 19.385499 -61.551113
0.933254 15.745838 -62.305479
1.289106 14.585189 -61.620437
0.574757 -0.450664 -58.533015
0.69871 0.738756 -58.780358
0.971937 -0.438327 -57.834444
37.934507 -4.742728 14.915067
38.170493 -2.612842 14.670428
37.84338 -2.93176 15.75041
37.809394 -10.319035 13.131203
37.536701 -10.539715 14.235425
37.539494 -12.413733 13.24491
38.097896 -8.2055 12.930626
37.809394 -10.319035 13.131203
35.858311 -26.186093 7.052183
36.16872 -24.573222 8.214643
35.430021 -27.986859 7.09155
35.504537 -27.807569 5.912494
35.858311 -26.186093 7.052183
2.178808 -0.33336 -55.779894
2.400314 1.005568 -55.950978
2.007132 -1.524055 -55.602342
1.794605 -0.317932 -56.432735
2.178808 -0.33336 -55.779894
1.602112 -5.31143 -54.799826
1.709291 -4.001003 -55.123396
1.511437 -6.634254 -54.4553
1.245259 -5.320481 -55.428088
1.602112 -5.31143 -54.799826
14.09357 -35.690445 -33.738932
14.585171 -34.730629 -33.241627
14.86137 -36.325375 -32.912142
13.269164 -39.652851 -34.741493
14.012183 -40.524146 -33.925697
34.516313 -6.428222 23.80142
34.278877 -4.843003 24.616802
34.077005 -6.932212 24.69441
33.800039 -15.742039 23.460424
34.049925 -13.920999 23.291164
33.60875 -14.355042 24.262106
33.557026 -17.62968 23.534304
33.998201 -17.195636 22.563361
33.800039 -15.742039 23.460424
22.241982 -36.295578 -24.613922
22.841485 -35.126928 -24.061257
22.903575 -36.641019 -23.696873
21.588108 -37.323207 -25.229478
21.526018 -35.809117 -25.593863
22.241982 -36.295578 -24.613922
25.621495 -45.241833 -16.235912
26.222134 -43.966194 -15.505411
25.97389 -45.557643 -15.221227
24.572986 -44.24046 -19.007511
24.943255 -44.58581 -18.073065
24.141426 -43.946003 -19.920383
24.677156 -42.71634 -19.313265
24.572986 -44.24046 -19.007511
22.762287 -42.772299 -22.64777
23.215854 -43.16728 -21.793094
22.225614 -42.456013 -23.52283
22.741613 -41.237219 -22.953881
22.762287 -42.772299 -22.64777
18.133766 -44.637298 -29.080818
18.537367 -43.610231 -28.530831
17.543453 -44.041759 -29.844791
18.133766 -44.637298 -29.080818
33.165958 -29.455941 19.976527
33.462837 -27.675509 19.878335
33.032934 -33.923647 17.020919
33.11071 -32.409509 18.051953
32.897011 -35.461312 15.972728
33.242941 -33.704642 15.941899
33.032934 -33.923647 17.020919
32.321936 -39.669403 12.691537
32.56382 -38.232422 13.821575
32.032996 -41.070435 11.554784
32.440155 -39.33363 11.649497
32.321936 -39.669403 12.691537
38.467757 7.321241 15.522786
38.315061 5.233202 15.779656
30.300148 -36.217236 -10.416404
30.706465 -34.656039 -10.467657
31.005797 -34.900385 -9.461892
32.221108 -35.988581 -3.915231
32.355567 -36.263178 -2.884971
31.742419 -37.630482 -3.900031
32.0446 -35.773184 -5.00695
32.221108 -35.988581 -3.915231
31.347856 -37.264168 -6.05149
31.784495 -35.681467 -6.128148
32.0446 -35.773184 -5.00695
27.407531 -47.158665 -9.531224
27.595244 -47.371032 -8.576833
28.091942 -48.073656 -5.563949
28.236757 -48.297392 -4.583347
-3.57606 33.898508 -59.84052
-4.375105 34.342024 -59.670221
-3.291311 30.161644 -62.916037
-4.038312 30.790987 -62.92769
-3.344656 31.074379 -62.152199
2.489044 24.774733 -59.507166
3.107635 25.152777 -58.745495
3.041394 23.83833 -59.072447
2.065968 9.672069 -59.409111
2.282763 11.071755 -59.439402
17.806375 -33.316977 -30.075674
17.198927 -34.168825 -30.584295
1.699262 -10.405537 -52.807329
2.047481 -10.350547 -52.224268
2.018064 -11.632302 -51.859375
1.34652 -10.604817 -53.366113
1.375938 -9.323063 -53.731006
1.699262 -10.405537 -52.807329
2.107857 -17.155169 -50.282213
2.559737 -18.361181 -49.318016
2.08144 -15.759391 -50.661038
2.107857 -17.155169 -50.282213
28.198716 -38.288755 -14.225297
28.540878 -36.751329 -14.347913
28.9355 -36.991402 -13.337712
29.261554 -48.032982 0.489681
29.705177 -46.596691 0.506916
29.817449 -46.797497 1.591485
28.705355 -49.265867 -0.600839
29.261554 -48.032982 0.489681
3.320136 17.655251 -58.870002
3.556726 19.056649 -58.66642
2.771197 17.321115 -59.618952
3.320136 17.655251 -58.870002
3.136688 16.280718 -59.045904
1.615029 13.395582 -60.967952
1.289106 14.585189 -61.620437
1.820558 14.744306 -60.800846
0.465479 -1.769419 -58.209654
0.715801 -2.958714 -57.299605
25.854096 -49.08778 -12.924572
26.029261 -49.38361 -12.033513
37.524599 -14.174892 12.186731
37.539494 -12.413733 13.24491
37.251906 -14.395573 13.290954
37.453193 -15.895869 11.112578
37.524599 -14.174892 12.186731
37.453193 -15.895869 11.112578
37.107433 -17.863104 11.239677
36.404505 -22.976706 9.391142
36.61661 -21.370914 10.415408
36.019579 -24.768867 9.407738
36.16872 -24.573222 8.214643
36.404505 -22.976706 9.391142
11.742176 -37.926462 -36.413746
12.491723 -38.768774 -35.589037
11.319255 -36.31834 -36.807844
11.742176 -37.926462 -36.413746
10.998411 -37.12644 -37.241514
8.47455 -32.598466 -40.085437
8.178314 -31.161738 -40.421867
8.878438 -32.139784 -39.57463
8.47455 -32.598466 -40.085437
8.835904 -34.241146 -39.69429
34.931769 11.076324 24.913896
35.051443 13.182603 24.692175
35.204678 9.643937 24.216982
34.931769 11.076324 24.913896
34.775736 8.882506 25.169351
33.880106 -8.869573 24.790851
34.077005 -6.932212 24.69441
33.652203 -10.877858 24.897759
34.086539 -10.525716 23.985937
33.880106 -8.869573 24.790851
33.430441 -12.811015 25.027452
33.652203 -10.877858 24.897759
33.60875 -14.355042 24.262106
33.430441 -12.811015 25.027452
26.079645 -35.262308 -19.477071
26.674392 -35.537104 -18.41446
25.504729 -34.921715 -20.475485
26.079645 -35.262308 -19.477071
25.392024 -36.40452 -20.156989
24.874969 -34.596132 -21.487788
25.504729 -34.921715 -20.475485
24.160093 -35.768148 -22.149806
24.217954 -34.300354 -22.482191
24.874969 -34.596132 -21.487788
21.249339 -44.725584 -24.674795
21.704819 -43.579783 -24.10716
20.747954 -44.263645 -25.501292
21.249339 -44.725584 -24.674795
20.176806 -43.737215 -26.343132
20.592203 -42.642042 -25.839442
20.747954 -44.263645 -25.501292
19.582909 -43.189222 -27.208131
20.176806 -43.737215 -26.343132
31.295595 -35.139005 -8.360046
31.005797 -34.900385 -9.461892
27.778748 -47.613119 -7.547866
27.595244 -47.371032 -8.576833
28.215543 -46.128366 -7.655851
-2.0604 32.742472 -60.032742
-2.789871 33.353454 -59.924554
-1.983935 31.685847 -60.692452
-2.0604 32.742472 -60.032742
-1.285961 32.034866 -60.005791
-0.57237 25.866812 -62.716616
-0.528435 27.04246 -62.219646
0.110368 26.139564 -61.853792
-0.57237 25.866812 -62.716616
-0.561403 24.77805 -63.178047
1.597259 7.165401 -59.470056
2.093904 7.18563 -58.645224
1.597259 7.165401 -59.470056
1.417196 5.864228 -59.381579
2.362058 -12.86337 -50.918711
2.709344 -13.92275 -50.04896
2.013838 -12.91836 -51.501772
2.018064 -11.632302 -51.859375
2.362058 -12.86337 -50.918711
4.921176 -25.816561 -44.865555
5.311294 -25.539062 -44.330711
5.538985 -27.022569 -43.930633
4.354798 -24.778936 -45.732636
4.921176 -25.816561 -44.865555
3.810983 -23.658628 -46.648775
4.14967 -23.212747 -46.181773
4.354798 -24.778936 -45.732636
28.11345 -36.429222 -15.399804
28.540878 -36.751329 -14.347913
27.688274 -36.138321 -16.365587
28.11345 -36.429222 -15.399804
27.378918 -37.757782 -16.201282
27.167793 -35.897987 -17.418705
27.688274 -36.138321 -16.365587
26.460341 -37.105997 -18.16282
26.674392 -35.537104 -18.41446
27.167793 -35.897987 -17.418705
28.374575 -48.467334 -3.627602
28.236757 -48.297392 -4.583347
28.843223 -47.007566 -3.637039
28.513383 -48.656284 -2.664745
29.065161 -47.504842 -1.63809
28.597503 -48.983617 -1.621541
28.374575 -48.467334 -3.627602
28.513383 -48.656284 -2.664745
3.467918 22.821491 -58.648407
3.90853 21.917752 -58.226982
2.849326 22.443448 -59.410078
3.041394 23.83833 -59.072447
3.467918 22.821491 -58.648407
3.115247 20.061128 -59.214544
3.717329 20.422129 -58.437914
3.556726 19.056649 -58.66642
0.474467 21.490147 -62.663083
0.592964 22.72608 -62.313895
1.113335 21.660515 -61.786589
0.362599 20.308732 -63.039234
0.474467 21.490147 -62.663083
0.362599 20.308732 -63.039234
0.817997 19.256908 -62.469637
1.067896 17.011573 -62.128414
1.261998 18.217824 -61.884974
1.688736 17.140165 -61.209891
1.067896 17.011573 -62.128414
0.933254 15.745838 -62.305479
0.876843 2.011273 -58.944395
1.072306 3.284782 -59.083071
1.291352 2.024602 -58.220462
0.876843 2.011273 -58.944395
0.69871 0.738756 -58.780358
0.574757 -0.450664 -58.533015
0.465479 -1.769419 -58.209654
3.603965 -17.617814 -47.794668
3.521334 -16.195384 -48.219167
25.639537 -47.098686 -15.050844
25.97389 -45.557643 -15.221227
26.240177 -45.823048 -14.320343
25.617943 -48.782263 -13.897396
26.141976 -47.669607 -13.177136
25.854096 -49.08778 -12.924572
25.35492 -48.657976 -14.829531
25.617943 -48.782263 -13.897396
25.639537 -47.098686 -15.050844
25.35492 -48.657976 -14.829531
38.136648 3.142749 16.04595
38.315061 5.233202 15.779656
37.93385 4.713823 16.917099
38.298613 1.430128 15.207139
38.136648 3.142749 16.04595
37.9174 0.910747 16.344582
38.390152 -0.492304 14.442421
38.298613 1.430128 15.207139
38.390152 -0.492304 14.442421
38.170493 -2.612842 14.670428
38.034111 -6.434413 13.978402
37.934507 -4.742728 14.915067
37.706998 -6.753331 15.058383
38.034111 -6.434413 13.978402
38.097896 -8.2055 12.930626
35.115212 -29.337338 4.875196
35.504537 -27.807569 5.912494
34.631738 -31.201369 4.907849
34.670702 -30.930372 3.831184
35.115212 -29.337338 4.875196
30.950715 -44.266705 4.92748
30.887448 -44.161058 3.764523
31.388027 -42.807657 4.920371
2.363676 6.004521 -57.836828
2.093904 7.18563 -58.645224
2.117419 4.691018 -57.768766
2.363676 6.004521 -57.836828
1.927691 3.375598 -57.634634
1.676543 4.613531 -58.493271
2.117419 4.691018 -57.768766
2.167424 2.162923 -56.760209
2.400314 1.005568 -55.950978
1.726548 2.085437 -57.484713
1.927691 3.375598 -57.634634
2.167424 2.162923 -56.760209
1.852789 -2.756488 -55.364681
2.007132 -1.524055 -55.602342
1.479431 -2.753141 -56.013899
1.852789 -2.756488 -55.364681
1.709291 -4.001003 -55.123396
0.959776 -4.143668 -56.392361
0.715801 -2.958714 -57.299605
1.091959 -2.812702 -56.679857
0.869101 -5.466492 -56.047835
0.959776 -4.143668 -56.392361
1.245259 -5.320481 -55.428088
0.799631 -6.852882 -55.639822
0.869101 -5.466492 -56.047835
16.615187 -35.088516 -31.128247
17.198927 -34.168825 -30.584295
17.417977 -35.675493 -30.234368
15.874554 -34.473703 -31.946506
16.615187 -35.088516 -31.128247
16.093604 -35.980372 -31.596578
15.065571 -33.88912 -32.816248
15.874554 -34.473703 -31.946506
15.065571 -33.88912 -32.816248
14.585171 -34.730629 -33.241627
14.786995 -41.273062 -33.070112
15.486684 -42.059337 -32.278292
14.392714 -39.635433 -33.429403
14.786995 -41.273062 -33.070112
14.012183 -40.524146 -33.925697
12.840461 -38.002439 -35.132532
13.269164 -39.652851 -34.741493
12.491723 -38.768774 -35.589037
13.377501 -34.860765 -34.515524
14.09357 -35.690445 -33.738932
13.6537 -36.455512 -34.186039
13.028553 -33.384254 -34.918608
13.377501 -34.860765 -34.515524
12.588684 -34.149321 -35.365715
12.713732 -31.875174 -35.343287
13.028553 -33.384254 -34.918608
11.948029 -31.241414 -36.16516
12.713732 -31.875174 -35.343287
11.173189 -30.423157 -37.023634
11.948029 -31.241414 -36.16516
11.464896 -31.854552 -36.627274
10.440863 -29.557439 -37.855372
11.173189 -30.423157 -37.023634
9.748216 -28.715461 -38.65898
10.440863 -29.557439 -37.855372
9.997408 -30.194317 -38.289356
9.048644 -27.971037 -39.482181
9.748216 -28.715461 -38.65898
8.389212 -27.148316 -40.291548
9.048644 -27.971037 -39.482181
8.645328 -28.529618 -39.902331
7.713614 -26.213239 -41.160048
8.389212 -27.148316 -40.291548
7.322216 -26.759761 -41.591835
7.049934 -25.266102 -42.040185
7.713614 -26.213239 -41.160048
7.497819 -30.185876 -41.283414
7.901707 -29.727193 -40.772607
8.178314 -31.161738 -40.421867
6.818793 -29.237773 -42.159776
7.497819 -30.185876 -41.283414
6.17274 -28.234643 -43.040594
6.575157 -27.7482 -42.514972
6.818793 -29.237773 -42.159776
5.538985 -27.022569 -43.930633
6.17274 -28.234643 -43.040594
37.31807 12.258469 19.113678
37.742123 12.797452 17.933091
35.469202 13.78311 23.703603
35.051443 13.182603 24.692175
35.893541 14.256917 22.705023
35.469202 13.78311 23.703603
35.785049 12.311563 22.962947
36.308531 15.069023 21.654341
35.893541 14.256917 22.705023
36.61054 13.37914 20.95134
36.308531 15.069023 21.654341
36.877819 11.728953 20.26218
36.61054 13.37914 20.95134
36.476668 11.135183 21.275208
37.184196 10.014513 19.437545
37.31807 12.258469 19.113678
36.877819 11.728953 20.26218
34.187033 2.541183 25.898859
34.405109 4.663747 25.650089
34.424513 0.980245 25.164707
34.187033 2.541183 25.898859
34.674177 -0.678655 24.389209
34.90242 1.490109 24.174328
34.424513 0.980245 25.164707
34.457228 -2.763766 24.5517
34.278877 -4.843003 24.616802
34.935135 -2.253901 23.561321
34.674177 -0.678655 24.389209
34.457228 -2.763766 24.5517
23.568593 -34.015349 -23.409973
24.217954 -34.300354 -22.482191
23.568593 -34.015349 -23.409973
22.841485 -35.126928 -24.061257
20.833976 -35.347885 -26.488933
21.526018 -35.809117 -25.593863
20.166469 -36.402216 -27.08671
20.128301 -34.913355 -27.366224
20.833976 -35.347885 -26.488933
25.323765 -44.905603 -17.132917
25.621495 -45.241833 -16.235912
25.489227 -43.33059 -17.460245
25.323765 -44.905603 -17.132917
24.943255 -44.58581 -18.073065
23.699509 -43.601469 -20.866751
24.141426 -43.946003 -19.920383
23.761941 -41.987694 -21.152479
23.699509 -43.601469 -20.866751
23.215854 -43.16728 -21.793094
21.684145 -42.044702 -24.413272
22.225614 -42.456013 -23.52283
21.704819 -43.579783 -24.10716
18.980362 -42.632479 -28.008299
19.418508 -41.558869 -27.48145
19.582909 -43.189222 -27.208131
18.372965 -41.979878 -28.80415
18.980362 -42.632479 -28.008299
18.537367 -43.610231 -28.530831
16.852197 -43.432846 -30.68132
17.238714 -42.348717 -30.163212
17.543453 -44.041759 -29.844791
16.176649 -42.737064 -31.491254
16.852197 -43.432846 -30.68132
33.354439 -19.516777 23.552917
33.557026 -17.62968 23.534304
33.497557 -21.082828 22.676977
33.354439 -19.516777 23.552917
33.60713 -22.6904 21.801685
33.864762 -20.690849 21.76195
33.497557 -21.082828 22.676977
33.709509 -24.250488 20.836749
33.60713 -22.6904 21.801685
33.77429 -25.793454 19.885212
34.039116 -23.841386 19.935121
33.709509 -24.250488 20.836749
33.792444 -27.266407 18.976707
33.77429 -25.793454 19.885212
33.462837 -27.675509 19.878335
33.161774 -30.900252 19.041824
33.165958 -29.455941 19.976527
33.429928 -30.657719 17.97996
33.161774 -30.900252 19.041824
33.11071 -32.409509 18.051953
32.752781 -36.887276 14.875304
32.897011 -35.461312 15.972728
32.918056 -36.587452 13.83998
32.752781 -36.887276 14.875304
32.56382 -38.232422 13.821575
31.728453 -42.387333 10.440808
32.032996 -41.070435 11.554784
31.777052 -42.106003 9.387559
31.728453 -42.387333 10.440808
31.856065 -41.823332 8.337317
32.230228 -40.45199 9.462502
31.777052 -42.106003 9.387559
31.427091 -43.195324 7.172851
31.880268 -41.541311 7.247794
31.856065 -41.823332 8.337317
30.989455 -44.495209 5.977034
31.427091 -43.195324 7.172851
30.950715 -44.266705 4.92748
30.989455 -44.495209 5.977034
38.263552 9.134942 16.304668
38.019644 11.004818 17.123787
37.868355 8.674152 17.469924
38.263552 9.134942 16.304668
38.467757 7.321241 15.522786
30.348767 -34.352118 -11.60647
30.706465 -34.656039 -10.467657
29.639239 -35.713432 -12.441249
30.348767 -34.352118 -11.60647
29.297077 -37.250858 -12.318633
28.9355 -36.991402 -13.337712
29.639239 -35.713432 -12.441249
33.714846 -33.841938 1.639031
34.18968 -32.479092 2.794718
33.712395 -34.15725 2.70815
33.633251 -33.623327 0.511556
33.714846 -33.841938 1.639031
33.155966 -35.301485 0.424988
33.514457 -33.502798 -0.713801
33.633251 -33.623327 0.511556
32.954313 -34.852075 -1.801329
32.475625 -36.493977 -1.786129
32.355567 -36.263178 -2.884971
33.514457 -33.502798 -0.713801
32.954313 -34.852075 -1.801329
31.539731 -35.49444 -7.241072
31.784495 -35.681467 -6.128148
30.843615 -36.817017 -8.291663
31.295595 -35.139005 -8.360046
31.539731 -35.49444 -7.241072
27.18251 -46.962061 -10.515238
27.807018 -45.689677 -9.668833
27.407531 -47.158665 -9.531224
26.580577 -48.203086 -11.290971
26.980063 -46.734099 -11.428579
27.18251 -46.962061 -10.515238
26.029261 -49.38361 -12.033513
26.580577 -48.203086 -11.290971
27.938764 -47.840071 -6.580999
28.552226 -46.604039 -5.609834
28.091942 -48.073656 -5.563949
27.778748 -47.613119 -7.547866
27.938764 -47.840071 -6.580999
-5.095429 33.890856 -60.350898
-4.375105 34.342024 -59.670221
-5.018638 33.07631 -61.292259
-5.095429 33.890856 -60.350898
-3.544563 32.938506 -60.635368
-3.57606 33.898508 -59.84052
-2.789871 33.353454 -59.924554
-4.89909 32.186391 -62.098518
-5.018638 33.07631 -61.292259
-4.211205 32.59364 -61.357594
-4.867805 31.389316 -62.9467
-4.89909 32.186391 -62.098518
-4.867805 31.389316 -62.9467
-4.038312 30.790987 -62.92769
3.21241 26.559971 -58.437588
3.107635 25.152777 -58.745495
2.644404 27.448135 -58.746158
3.21241 26.559971 -58.437588
2.051959 28.426406 -59.067871
2.644404 27.448135 -58.746158
1.96284 27.067451 -59.501926
1.469625 29.283436 -59.261244
2.051959 28.426406 -59.067871
0.896547 30.058765 -59.473734
1.469625 29.283436 -59.261244
0.797318 28.821051 -60.036129
0.199654 30.694213 -59.702541
0.896547 30.058765 -59.473734
-0.492628 30.287311 -60.45706
-0.517215 31.385143 -59.910983
0.199654 30.694213 -59.702541
-1.185909 27.801062 -62.507857
-0.503171 28.073813 -61.645033
-0.528435 27.04246 -62.219646
-1.895002 28.591608 -62.782314
-1.185909 27.801062 -62.507857
-2.613507 29.397918 -62.885965
-1.87915 29.638725 -62.036894
-1.895002 28.591608 -62.782314
-3.291311 30.161644 -62.916037
-2.613507 29.397918 -62.885965
2.450805 12.398188 -59.435993
2.710056 13.671982 -59.310327
1.97844 12.228265 -60.15177
2.450805 12.398188 -59.435993
2.282763 11.071755 -59.439402
1.446988 12.069148 -60.971361
1.615029 13.395582 -60.967952
1.97844 12.228265 -60.15177
1.569323 9.65184 -60.233944
2.065968 9.672069 -59.409111
1.266536 10.812964 -61.03281
1.569323 9.65184 -60.233944
1.446988 12.069148 -60.971361
1.266536 10.812964 -61.03281
1.227469 4.548807 -59.247446
1.072306 3.284782 -59.083071
18.626767 -33.917841 -29.137194
19.356305 -34.523783 -28.273987
18.731255 -35.361744 -28.827208
18.626767 -33.917841 -29.137194
17.806375 -33.316977 -30.075674
2.102886 -9.051564 -52.563347
2.047481 -10.350547 -52.224268
1.798485 -7.874493 -53.49963
2.102886 -9.051564 -52.563347
1.441632 -7.883544 -54.127892
1.511437 -6.634254 -54.4553
1.798485 -7.874493 -53.49963
1.08889 -8.082824 -54.686676
1.441632 -7.883544 -54.127892
1.375938 -9.323063 -53.731006
0.799631 -6.852882 -55.639822
1.08889 -8.082824 -54.686676
6.426831 -24.274496 -42.919485
7.049934 -25.266102 -42.040185
5.813188 -23.169779 -43.81954
6.426831 -24.274496 -42.919485
6.044893 -24.707907 -43.372028
5.246178 -22.114841 -44.710184
5.813188 -23.169779 -43.81954
4.685757 -21.011067 -45.625872
5.246178 -22.114841 -44.710184
4.870829 -22.499417 -45.18777
4.181645 -20.087701 -46.491144
4.685757 -21.011067 -45.625872
3.69173 -18.960746 -47.401378
4.181645 -20.087701 -46.491144
3.820492 -20.268689 -47.013693
3.242812 -17.798803 -48.317217
3.603965 -17.617814 -47.794668
3.69173 -18.960746 -47.401378
3.271275 -22.420206 -47.572848
3.810983 -23.658628 -46.648775
3.12915 -20.902867 -48.008484
3.271275 -22.420206 -47.572848
2.991511 -19.427514 -48.421492
3.468216 -20.617088 -47.510919
3.12915 -20.902867 -48.008484
2.898803 -18.075402 -48.820452
2.991511 -19.427514 -48.421492
2.559737 -18.361181 -49.318016
2.026841 -14.329571 -51.083103
2.412431 -15.579249 -50.139042
2.08144 -15.759391 -50.661038
1.682847 -13.098502 -52.023768
2.013838 -12.91836 -51.501772
2.026841 -14.329571 -51.083103
1.300946 -11.844411 -53.039676
1.682847 -13.098502 -52.023768
1.34652 -10.604817 -53.366113
1.300946 -11.844411 -53.039676
3 0 49 47
3 0 51 49
3 2 54 52
3 1 205 206
3 207 57 208
3 209 208 55
3 207 208 209
3 211 210 57
3 212 60 213
3 214 62 215
3 216 215 60
3 214 215 216
3 3 217 218
3 4 65 63
3 5 68 66
3 5 219 221
3 221 220 68
3 219 220 221
3 5 222 224
3 222 69 223
3 222 223 224
3 7 72 70
3 7 74 72
3 225 77 226
3 227 226 75
3 225 226 227
3 228 79 229
3 230 81 231
3 232 231 79
3 230 231 232
3 234 233 81
3 235 83 236
3 237 85 238
3 239 238 83
3 237 238 239
3 9 88 87
3 9 90 88
3 6 240 241
3 10 94 92
3 10 96 94
3 10 98 96
3 242 100 243
3 244 103 245
3 246 245 101
3 244 245 246
3 248 247 103
3 8 249 251
3 251 250 104
3 249 250 251
3 11 252 253
3 11 254 256
3 254 105 255
3 254 255 256
3 12 109 107
3 14 110 48
3 14 111 110
3 14 113 111
3 16 114 50
3 16 115 114
3 17 116 53
3 17 117 116
3 18 120 118
3 20 121 56
3 20 122 121
3 20 124 122
3 258 257 58
3 259 125 260
3 22 126 59
3 22 127 126
3 22 261 263
3 263 262 127
3 261 262 263
3 265 264 61
3 23 266 268
3 268 267 128
3 266 267 268
3 24 131 129
3 25 134 132
3 26 135 64
3 26 269 271
3 271 270 135
3 269 270 271
3 13 136 108
3 272 137 273
3 274 273 67
3 272 273 274
3 276 275 137
3 27 277 278
3 27 279 281
3 279 138 280
3 279 280 281
3 15 139 112
3 28 140 71
3 28 141 140
3 28 142 141
3 29 143 73
3 29 144 143
3 282 145 283
3 284 146 285
3 286 285 145
3 284 285 286
3 287 147 288
3 289 148 290
3 291 290 147
3 289 290 291
3 30 151 149
3 31 152 76
3 31 292 294
3 294 293 152
3 292 293 294
3 295 153 296
3 32 154 78
3 32 155 154
3 32 156 155
3 33 157 80
3 33 158 157
3 33 160 158
3 35 161 82
3 35 162 161
3 35 163 162
3 36 164 84
3 36 165 164
3 37 297 299
3 297 166 298
3 297 298 299
3 37 167 166
3 37 168 167
3 300 169 301
3 302 301 86
3 300 301 302
3 303 170 304
3 305 304 169
3 303 304 305
3 38 306 308
3 308 307 89
3 306 307 308
3 38 309 311
3 309 171 310
3 309 310 311
3 312 172 313
3 314 313 130
3 312 313 314
3 315 173 316
3 317 174 318
3 319 318 173
3 317 318 319
3 320 175 321
3 322 176 323
3 324 323 175
3 322 323 324
3 39 177 91
3 39 178 177
3 39 179 178
3 325 180 326
3 328 327 180
3 329 181 330
3 331 182 332
3 333 183 334
3 335 334 182
3 333 334 335
3 336 184 337
3 338 185 339
3 340 339 184
3 338 339 340
3 342 341 133
3 40 343 345
3 343 186 344
3 343 344 345
3 40 187 186
3 19 188 119
3 41 346 348
3 348 347 93
3 346 347 348
3 41 349 350
3 41 351 353
3 351 189 352
3 351 352 353
3 42 190 95
3 42 191 190
3 42 192 191
3 355 354 97
3 357 356 123
3 358 193 359
3 43 194 99
3 43 360 362
3 362 361 194
3 360 361 362
3 21 363 365
3 363 195 364
3 363 364 365
3 44 196 102
3 44 197 196
3 44 198 197
3 366 199 367
3 369 368 150
3 45 370 372
3 370 200 371
3 370 371 372
3 45 373 375
3 375 374 200
3 373 374 375
3 34 201 159
3 46 202 106
3 46 203 202
3 376 204 377
3 379 378 204
3 47 48 12
3 49 48 47
3 49 14 48
3 49 50 14
3 51 50 49
3 51 16 50
3 52 380 382
3 380 53 381
3 380 381 382
3 54 53 52
3 54 17 53
3 55 56 18
3 57 56 55
3 57 20 56
3 57 58 20
3 383 58 384
3 385 384 57
3 383 384 385
3 387 386 58
3 388 59 389
3 60 390 392
3 390 59 391
3 390 391 392
3 60 22 59
3 60 61 22
3 62 61 60
3 62 393 395
3 395 394 61
3 393 394 395
3 397 396 23
3 399 398 24
3 63 64 25
3 65 64 63
3 65 26 64
3 66 67 13
3 68 67 66
3 68 400 402
3 402 401 67
3 400 401 402
3 68 403 404
3 406 405 68
3 69 407 408
3 69 409 411
3 409 27 410
3 409 410 411
3 70 71 15
3 72 71 70
3 72 28 71
3 72 73 28
3 74 73 72
3 74 29 73
3 75 76 30
3 77 76 75
3 77 31 76
3 412 78 413
3 79 414 416
3 414 78 415
3 414 415 416
3 79 32 78
3 79 80 32
3 81 80 79
3 81 33 80
3 81 417 419
3 419 418 33
3 417 418 419
3 421 420 81
3 422 82 423
3 83 424 426
3 424 82 425
3 424 425 426
3 83 35 82
3 83 84 35
3 85 84 83
3 85 36 84
3 427 37 428
3 429 86 430
3 431 430 37
3 429 430 431
3 432 86 433
3 435 434 86
3 87 436 437
3 88 438 440
3 440 439 87
3 438 439 440
3 88 441 442
3 88 443 445
3 443 89 444
3 443 444 445
3 90 89 88
3 90 38 89
3 446 91 447
3 448 91 449
3 450 39 451
3 452 451 91
3 450 451 452
3 454 453 39
3 455 40 456
3 92 93 19
3 94 93 92
3 94 41 93
3 94 95 41
3 96 95 94
3 96 42 95
3 96 97 42
3 98 97 96
3 98 457 459
3 459 458 97
3 457 458 459
3 460 99 461
3 100 462 464
3 462 99 463
3 462 463 464
3 100 43 99
3 101 102 21
3 103 102 101
3 103 44 102
3 103 465 467
3 467 466 44
3 465 466 467
3 469 468 103
3 104 470 471
3 473 472 104
3 105 474 475
3 105 476 478
3 476 45 477
3 476 477 478
3 479 106 480
3 481 480 34
3 479 480 481
3 482 106 483
3 484 46 485
3 486 485 106
3 484 485 486
3 107 108 4
3 109 108 107
3 109 13 108
3 48 109 12
3 110 109 48
3 110 13 109
3 110 66 13
3 111 66 110
3 111 5 66
3 111 112 5
3 113 112 111
3 113 15 112
3 50 113 14
3 114 113 50
3 114 15 113
3 114 70 15
3 115 70 114
3 115 7 70
3 53 487 488
3 116 489 491
3 491 490 53
3 489 490 491
3 116 492 493
3 116 494 496
3 494 87 495
3 494 495 496
3 117 87 116
3 117 9 87
3 118 119 6
3 120 119 118
3 120 19 119
3 56 120 18
3 121 120 56
3 121 19 120
3 121 92 19
3 122 92 121
3 122 10 92
3 122 123 10
3 124 123 122
3 124 497 499
3 499 498 123
3 497 498 499
3 58 124 20
3 500 124 501
3 502 501 58
3 500 501 502
3 504 503 124
3 125 505 506
3 125 507 509
3 507 21 508
3 507 508 509
3 59 510 512
3 510 125 511
3 510 511 512
3 126 125 59
3 126 21 125
3 126 101 21
3 127 101 126
3 127 513 515
3 515 514 101
3 513 514 515
3 127 516 517
3 519 518 127
3 61 520 522
3 522 521 22
3 520 521 522
3 524 523 61
3 128 525 527
3 527 526 8
3 525 526 527
3 529 528 128
3 531 530 23
3 532 11 533
3 129 130 2
3 131 130 129
3 131 534 536
3 536 535 130
3 534 535 536
3 537 131 538
3 539 538 24
3 537 538 539
3 540 131 541
3 543 542 131
3 132 133 1
3 134 133 132
3 134 544 546
3 546 545 133
3 544 545 546
3 64 134 25
3 135 134 64
3 135 547 549
3 549 548 134
3 547 548 549
3 135 550 551
3 553 552 135
3 108 65 4
3 136 65 108
3 136 26 65
3 67 136 13
3 137 136 67
3 137 26 136
3 137 554 556
3 556 555 26
3 554 555 556
3 558 557 137
3 138 559 560
3 138 561 563
3 561 6 562
3 561 562 563
3 112 69 5
3 139 69 112
3 139 27 69
3 71 139 15
3 140 139 71
3 140 27 139
3 140 138 27
3 141 138 140
3 141 6 138
3 141 118 6
3 142 118 141
3 142 18 118
3 73 142 28
3 143 142 73
3 143 18 142
3 143 55 18
3 144 55 143
3 144 564 566
3 566 565 55
3 564 565 566
3 567 104 568
3 569 104 570
3 571 8 572
3 573 572 104
3 571 572 573
3 145 574 575
3 145 576 578
3 576 8 577
3 576 577 578
3 145 128 8
3 146 128 145
3 146 23 128
3 579 146 580
3 147 581 583
3 581 146 582
3 581 582 583
3 147 23 146
3 147 584 586
3 586 585 23
3 584 585 586
3 148 587 589
3 589 588 147
3 587 588 589
3 148 590 591
3 149 150 3
3 151 150 149
3 151 592 594
3 594 593 150
3 592 593 594
3 76 151 30
3 152 151 76
3 152 595 597
3 597 596 151
3 595 596 597
3 152 598 599
3 601 600 152
3 602 77 603
3 153 604 606
3 604 77 605
3 604 605 606
3 153 31 77
3 78 607 609
3 607 153 608
3 607 608 609
3 154 153 78
3 154 31 153
3 154 610 612
3 612 611 31
3 610 611 612
3 155 613 615
3 615 614 154
3 613 614 615
3 155 616 617
3 155 618 619
3 156 620 622
3 622 621 155
3 620 621 622
3 156 623 624
3 80 156 32
3 157 156 80
3 157 625 627
3 627 626 156
3 625 626 627
3 157 628 629
3 158 630 632
3 632 631 157
3 630 631 632
3 158 633 634
3 158 635 637
3 635 159 636
3 635 636 637
3 160 159 158
3 160 34 159
3 638 160 639
3 640 639 33
3 638 639 640
3 641 160 642
3 643 34 644
3 645 644 160
3 643 644 645
3 647 646 34
3 648 1 649
3 82 650 651
3 161 652 654
3 654 653 82
3 652 653 654
3 161 655 656
3 161 657 658
3 162 659 661
3 661 660 161
3 659 660 661
3 162 662 664
3 662 1 663
3 662 663 664
3 162 132 1
3 163 132 162
3 163 25 132
3 84 163 35
3 164 163 84
3 164 25 163
3 164 63 25
3 165 63 164
3 165 4 63
3 665 85 666
3 667 85 668
3 669 36 670
3 671 670 85
3 669 670 671
3 166 672 673
3 166 674 676
3 674 36 675
3 674 675 676
3 166 165 36
3 167 165 166
3 167 4 165
3 167 107 4
3 168 107 167
3 168 12 107
3 86 168 37
3 169 168 86
3 169 12 168
3 169 47 12
3 170 47 169
3 170 0 47
3 89 677 678
3 680 679 89
3 171 681 682
3 171 683 685
3 683 3 684
3 683 684 685
3 130 54 2
3 172 54 130
3 172 17 54
3 686 172 687
3 173 688 690
3 688 172 689
3 688 689 690
3 173 17 172
3 173 117 17
3 174 117 173
3 174 9 117
3 691 174 692
3 175 693 695
3 693 174 694
3 693 694 695
3 175 9 174
3 175 90 9
3 176 90 175
3 176 38 90
3 91 696 698
3 696 176 697
3 696 697 698
3 177 176 91
3 177 38 176
3 177 171 38
3 178 171 177
3 178 3 171
3 178 149 3
3 179 149 178
3 179 30 149
3 699 179 700
3 701 700 39
3 699 700 701
3 180 702 704
3 702 179 703
3 702 703 704
3 180 30 179
3 180 75 30
3 705 75 706
3 707 706 180
3 705 706 707
3 709 708 75
3 710 170 711
3 712 170 713
3 714 0 715
3 716 715 170
3 714 715 716
3 717 0 718
3 719 51 720
3 721 720 0
3 719 720 721
3 181 722 724
3 722 51 723
3 722 723 724
3 181 16 51
3 725 181 726
3 182 727 729
3 727 181 728
3 727 728 729
3 182 16 181
3 182 115 16
3 183 115 182
3 183 7 115
3 730 183 731
3 184 732 734
3 732 183 733
3 732 733 734
3 184 7 183
3 184 74 7
3 185 74 184
3 185 29 74
3 735 185 736
3 737 185 738
3 739 29 740
3 741 740 185
3 739 740 741
3 742 144 743
3 744 743 29
3 742 743 744
3 745 144 746
3 748 747 144
3 133 749 751
3 751 750 1
3 749 750 751
3 753 752 133
3 186 754 755
3 186 756 757
3 186 758 760
3 758 52 759
3 758 759 760
3 187 52 186
3 187 2 52
3 119 761 763
3 763 762 6
3 761 762 763
3 188 764 766
3 766 765 119
3 764 765 766
3 188 767 768
3 93 188 19
3 769 188 770
3 771 770 93
3 769 770 771
3 773 772 188
3 189 774 775
3 189 776 778
3 776 40 777
3 776 777 778
3 95 189 41
3 190 189 95
3 190 40 189
3 190 187 40
3 191 187 190
3 191 2 187
3 191 129 2
3 192 129 191
3 192 24 129
3 97 192 42
3 779 192 780
3 781 780 97
3 779 780 781
3 782 24 783
3 784 783 192
3 782 783 784
3 786 785 24
3 123 98 10
3 787 98 788
3 789 788 123
3 787 788 789
3 791 790 98
3 193 792 793
3 193 794 795
3 99 796 798
3 796 193 797
3 796 797 798
3 194 193 99
3 194 799 801
3 801 800 193
3 799 800 801
3 194 802 803
3 805 804 194
3 195 806 807
3 195 808 809
3 102 195 21
3 196 195 102
3 196 810 812
3 812 811 195
3 810 811 812
3 196 813 814
3 197 815 817
3 817 816 196
3 815 816 817
3 197 818 819
3 197 820 822
3 820 100 821
3 820 821 822
3 198 100 197
3 198 43 100
3 823 198 824
3 825 824 44
3 823 824 825
3 826 198 827
3 828 43 829
3 830 829 198
3 828 829 830
3 832 831 43
3 833 62 834
3 199 835 837
3 835 62 836
3 835 836 837
3 199 838 840
3 840 839 62
3 838 839 840
3 841 199 842
3 843 199 844
3 846 845 199
3 848 847 8
3 150 849 851
3 851 850 3
3 849 850 851
3 853 852 150
3 200 854 855
3 200 856 857
3 200 858 860
3 858 148 859
3 858 859 860
3 861 148 862
3 863 862 200
3 861 862 863
3 865 864 148
3 159 866 867
3 201 868 870
3 870 869 159
3 868 869 870
3 201 871 872
3 106 201 34
3 202 201 106
3 202 873 875
3 875 874 201
3 873 874 875
3 202 876 877
3 203 878 880
3 880 879 202
3 878 879 880
3 203 881 883
3 881 11 882
3 881 882 883
3 884 46 885
3 886 46 887
3 888 203 889
3 890 889 46
3 888 889 890
3 204 891 893
3 891 203 892
3 891 892 893
3 204 11 203
3 204 105 11
3 894 105 895
3 896 895 204
3 894 895 896
3 897 45 898
3 899 898 105
3 897 898 899
3 900 45 901
3 903 902 45
