ply
format ascii 1.0
element vertex 807
property float x
property float y
property float z
element face 947
property list uchar int vertex_index
end_header
-20.235434 97.243408 14.974918
-4.812918 100.537796 -34.648285
-3.452244 93.456955 9.530544
-14.250804 107.228745 -12.825541
-28.191431 98.320961 -8.323021
-24.928791 99.192078 -35.163021
-30.611696 69.632652 -46.147949
-28.983591 92.385872 5.847461
-24.744482 100.748764 3.208625
-10.101385 106.223206 -25.129707
-19.8785 106.40094 -24.944153
-15.78131 102.652748 -36.086388
-21.332802 93.462311 -44.220913
-12.165771 96.98317 12.049584
-17.570679 103.996239 0.985038
-8.896947 102.263573 -0.979315
-4.306807 103.732971 -13.232364
-6.305811 86.78952 21.062933
-22.576712 105.612068 -11.253939
-27.055216 100.734612 -22.803242
-28.706581 86.888481 -42.093388
-25.055664 79.681992 -49.069157
-25.850475 62.889072 -50.949558
-25.563309 97.100342 10.454553
-22.587797 99.792709 9.159239
-7.368177 103.862915 -30.361727
-13.043454 105.180893 -30.8752
-10.569942 102.141289 -35.742069
-13.638537 99.088394 -40.331062
-7.915334 95.599503 10.620188
-10.633781 100.062721 5.46731
-6.204497 98.078629 4.732738
-10.559891 88.034248 22.910446
-16.114195 106.123756 -6.081548
-20.218864 105.556961 -5.037243
-18.753176 107.126221 -12.092445
-22.590214 103.598114 -30.169764
-23.940172 104.269562 -23.868807
-26.190983 100.515488 -29.119143
-28.199165 95.342072 -33.6035
-26.991142 93.517403 -39.120998
-19.110708 88.902191 -47.415741
-23.522257 86.866959 -47.134373
-30.280018 60.490906 -47.194698
-28.404991 66.675323 -49.020493
-29.365961 87.95974 12.797784
-27.787085 93.076195 11.759596
-27.211994 97.097832 4.632442
-26.553703 100.285049 -2.684009
-12.246848 107.284279 -19.295313
-17.111832 107.651215 -18.909557
-15.270865 107.01149 -25.316885
-17.907278 105.147476 -30.911139
-20.71277 101.779076 -35.843704
-23.249777 96.923592 -40.110111
-18.676067 98.734833 -40.557354
-16.452955 94.610764 -44.293018
-32.269669 72.866165 -42.119499
-1.953897 101.583389 -29.390995
0.901946 97.88591 -33.10598
-16.418911 97.611443 13.603462
-18.975212 101.100204 7.838598
-14.935163 101.072395 6.671046
-13.343428 103.618004 0.006995
-11.49277 105.328522 -6.764976
-4.045904 99.911873 -1.638051
-6.788849 103.487556 -7.16234
-9.507905 106.035065 -13.050268
-7.143116 105.672546 -19.207327
-4.509726 104.152023 -24.537779
-13.675173 93.40937 18.352169
-9.475116 92.212051 16.873486
-5.011624 90.478188 15.327094
-21.498455 103.155251 1.836728
-23.72164 103.60833 -3.925313
-25.819763 102.556076 -9.871043
-21.396233 106.527 -18.196274
-24.996895 103.887115 -17.172585
-27.634859 100.13266 -15.615764
-30.016071 78.717819 -44.45285
-25.562683 90.640617 -43.494026
-27.206093 83.300789 -46.130955
-28.182354 75.359734 -47.9063
-25.863533 71.487724 -50.358673
-23.079561 59.685081 -52.059589
-6.565625 99.591782 -37.164726
-22.037773 96.605072 15.634501
-23.160952 97.727402 12.869823
-21.508839 98.753998 11.987952
-6.073048 102.305885 -32.635136
-8.941618 103.16851 -33.155777
-7.754945 101.548775 -35.194767
-9.124689 100.29982 -37.633614
-5.669964 94.525024 10.135188
-7.145299 96.924911 7.738959
-4.841628 95.8041 7.243711
-28.9489 96.910995 -11.244501
-15.295194 106.829514 -9.582942
-17.462738 106.821983 -9.129094
-16.491907 107.391235 -12.767406
-23.777267 101.570938 -32.816078
-24.47732 102.228279 -29.776485
-25.623453 100.024551 -32.15765
-27.228264 98.114716 -31.419777
-26.630388 97.501846 -34.455513
-27.635059 94.608315 -36.446823
-25.975426 96.5373 -37.254829
-31.577841 66.644127 -45.045513
-31.404972 61.827423 -45.670513
-30.552885 65.232376 -46.748466
-29.485106 63.615936 -48.097626
-29.551622 68.24826 -47.719936
-25.172318 99.071533 6.727467
-26.478279 97.246078 7.410267
-26.070211 99.01741 4.08745
-26.867069 98.80883 1.07082
-25.630264 100.750397 0.26828
-10.98574 106.855499 -22.183645
-13.617695 107.342049 -22.288857
-12.627364 106.754204 -25.308369
-14.470529 104.100708 -33.549335
-15.539567 105.367554 -30.869761
-16.923794 104.087448 -33.514896
-19.380089 103.700714 -33.331123
-18.270729 102.446083 -36.008266
-19.793867 100.508171 -38.156315
-17.27553 100.8964 -38.37886
-12.318698 97.043877 -41.974586
-15.01938 97.131622 -42.300606
-13.905245 94.855202 -43.93668
0.957488 99.945847 -28.814053
-14.322277 97.515305 12.667284
-15.70506 99.520065 10.000469
-13.582949 99.087555 9.543359
-9.815529 101.195312 2.428046
-12.07534 102.044968 2.697087
-11.144073 103.065781 -0.52765
-12.507321 104.629211 -3.458325
-10.177107 103.942085 -3.887727
-3.145847 102.407333 -10.181986
-4.344572 102.232368 -7.27825
-5.602423 103.766838 -10.294111
-8.078795 104.918137 -10.231667
-6.967606 105.026344 -13.177876
-8.282625 105.960846 -16.110426
-5.700906 104.841408 -16.019863
-3.296084 103.022484 -27.115334
-15.594622 93.578407 19.236519
-8.43644 87.476044 21.963139
-10.037007 90.096764 20.04591
-7.991077 89.623886 19.016716
-7.190258 91.349472 16.105892
-5.7109 88.724495 18.225868
-29.192106 90.32399 9.150364
-18.367243 102.693863 4.326438
-20.299438 102.287285 4.939687
-19.559341 103.755791 1.43191
-21.512331 105.723122 -8.086608
-22.036242 104.812248 -4.733977
-23.301147 104.657318 -7.729038
-24.792921 103.325935 -7.138597
-24.30595 104.279129 -10.759935
-18.592743 107.213753 -22.065153
-19.350254 107.267334 -18.802067
-20.687073 106.62429 -21.447056
-25.628262 102.612305 -23.419018
-24.487991 104.205803 -20.620895
-26.103565 102.432358 -19.919018
-26.456966 102.081276 -16.579311
-27.378613 100.541702 -19.301983
-29.418186 87.949234 -39.762043
-30.142876 84.170174 -41.155159
-30.755745 80.010902 -42.406883
-29.452816 82.9328 -43.336586
-22.311386 95.365593 -42.255848
-24.555365 93.867325 -41.886459
-23.506897 92.304016 -43.93277
-24.209164 83.406372 -48.273109
-25.43652 85.156822 -46.79446
-26.166262 81.65609 -47.712025
-27.828863 79.51149 -47.026817
-26.731749 77.809975 -48.526932
-27.162319 73.579201 -49.179077
-25.608418 75.594452 -49.787273
-26.836586 60.294838 -50.306664
-25.388365 58.749348 -51.084885
-24.00839 57.364517 -51.628372
-24.500025 61.359173 -51.584633
-24.700102 96.467995 13.438677
-24.16227 98.619514 9.813209
-23.822733 100.360962 6.251238
-8.767202 105.202621 -27.80497
-11.428704 105.827972 -28.185436
-10.202994 104.645866 -30.750227
-11.727486 103.776726 -33.437042
-13.297431 102.573509 -35.952209
-14.703261 100.962479 -38.360954
-12.096566 100.834015 -38.044739
-10.821947 98.83873 -39.909782
-10.102638 96.276627 11.507116
-11.49296 98.714058 8.642106
-9.330024 97.908043 8.162204
-8.328163 99.162636 4.961709
-7.459674 100.318283 1.737917
-1.821407 102.277092 -12.926523
-28.798223 94.19091 2.299888
-16.923082 105.190201 -2.602957
-18.853281 105.013947 -2.126257
-18.355494 106.039505 -5.71835
-19.65238 106.4664 -8.773315
-20.825405 106.520271 -11.724869
-21.272257 105.127174 -27.813042
-21.98761 105.520851 -24.582285
-23.243948 104.119331 -27.112719
-24.972294 102.677475 -26.673868
-26.589895 100.807762 -26.142269
-29.112518 92.387794 -35.36607
-28.527514 91.650818 -38.057587
-28.03425 90.255226 -40.537834
-20.265886 91.250801 -45.978428
-22.430431 90.285347 -45.815041
-21.435217 88.13504 -47.318184
-22.24263 84.809906 -48.5163
-28.277042 62.035664 -49.263485
-27.147003 64.775856 -50.114426
-2.573023 94.672615 6.639364
-28.441793 92.782196 8.863921
-26.807407 95.279335 10.893865
-27.568054 95.111412 8.155455
-28.192101 94.776459 5.390884
-27.930174 96.635345 1.574315
-27.660912 98.194458 -2.0661
-27.342848 99.606049 -5.737809
-13.340814 107.402908 -16.071182
-15.548182 107.641785 -15.989787
-14.778327 107.648026 -19.307344
-16.147934 107.489075 -22.185415
-17.55088 106.967392 -24.907179
-14.062482 106.258865 -28.092289
-16.556877 106.271347 -28.155016
-18.942123 105.926758 -28.006252
-20.34606 104.578529 -30.620634
-21.644857 102.881653 -33.087387
-22.874008 100.711655 -35.600418
-24.138033 98.190254 -37.751072
-21.983004 99.486519 -38.165245
-20.999273 98.112167 -40.357063
-20.145819 96.195175 -42.522987
-16.212727 99.074623 -40.524075
-17.751139 96.693954 -42.628643
-18.91604 94.121338 -44.429047
-17.876764 91.734528 -46.05962
-32.374424 68.388268 -43.19455
-31.477873 71.563553 -44.273594
-3.134941 101.092484 -32.098366
-1.876697 99.262398 -33.985088
-0.550598 99.847427 -31.438551
2.370756 98.145378 -30.665726
-18.373484 97.788116 13.92769
-19.706621 99.275574 11.402131
-17.652416 99.6082 10.559989
-17.030973 101.31292 7.094512
-16.418213 102.716278 3.870809
-12.86962 100.778778 5.919423
-14.288987 102.496696 3.315806
-15.463747 103.950287 0.459207
-14.780407 105.031548 -2.94998
-13.90711 105.866531 -6.344568
-12.937025 106.465446 -9.790439
-3.920547 97.023315 4.089413
-5.188413 99.148323 1.485453
-6.406403 101.156212 -1.393279
-3.010367 100.507744 -4.596641
-5.324234 101.723465 -4.269065
-7.752947 102.951042 -4.164104
-9.120686 104.508347 -7.003357
-10.510173 105.786362 -9.888243
-11.892569 106.761131 -12.921429
-10.89912 106.854927 -16.272644
-9.601955 106.580948 -19.296072
-8.488485 106.081032 -22.373625
-4.453127 104.439682 -18.943151
-5.787967 105.022491 -21.987133
-7.260579 105.316849 -24.831129
-5.951679 104.226471 -27.417257
-4.642682 102.817795 -29.964161
-18.961802 95.647209 17.464092
-17.056431 95.749474 16.779432
-14.965516 95.702293 15.867089
-12.820015 95.128838 15.355774
-12.226847 90.821434 20.749146
-11.508295 92.709183 17.791393
-10.740107 94.612251 14.547102
-8.565787 93.905495 13.750864
-6.460823 93.025856 13.12436
-4.266675 92.051147 12.436203
-20.869001 100.709381 8.295305
-22.178196 101.534439 5.500395
-23.218731 102.102486 2.566984
-20.901596 104.462822 -1.666122
-22.624973 103.582008 -1.102595
-24.218943 102.284554 -0.269434
-25.269983 102.128258 -3.568093
-26.208048 101.564331 -6.552361
-27.112648 100.584839 -9.323615
-17.919142 107.53241 -15.599532
-19.981339 107.070564 -15.239723
-22.068998 106.160858 -14.760461
-22.731104 105.55513 -21.274733
-23.286501 105.403076 -17.691072
-23.823429 104.950417 -14.090109
-25.387838 103.392891 -13.572492
-26.758141 101.503143 -12.844742
-28.005812 99.184555 -11.978016
-31.910189 77.132614 -41.122429
-31.255253 75.833107 -43.312508
-30.436171 74.330063 -45.33255
-25.256083 95.369896 -39.691845
-26.362024 92.229599 -41.334232
-27.189426 88.999664 -42.853165
-24.546358 88.903976 -45.449787
-26.350424 87.074554 -45.037495
-27.971298 85.25827 -44.24707
-28.701893 81.325821 -45.289219
-29.175785 76.996353 -46.324474
-29.49456 72.511276 -47.109055
-28.424501 71.041679 -48.533184
-27.253 69.452614 -49.720451
-26.008495 67.115936 -50.721592
-24.655886 69.056564 -51.210629
-24.613167 65.261009 -51.484943
-23.394396 63.319344 -51.967876
-4.199165 99.538006 -35.545002
-5.075518 99.064999 -36.803223
-5.689272 100.064789 -35.906506
-28.656764 97.080162 -7.93457
-28.287339 97.760627 -6.519646
-28.570166 97.615978 -9.783761
-29.035498 96.375179 -9.39531
-28.656764 97.080162 -7.93457
-12.537771 94.713051 -43.750811
-13.111971 95.94954 -42.955633
-11.744497 95.807389 -42.769763
-13.25425 93.553799 -44.636105
-12.537771 94.713051 -43.750811
-29.32988 90.973232 6.207633
-29.434137 89.942291 7.859084
-29.087848 91.354931 7.498912
-27.661499 99.716057 -22.188417
-27.823197 99.619602 -20.437787
-27.216915 100.638157 -21.052613
-24.184039 95.987327 14.933252
-24.893307 95.277237 15.302222
-9.453314 98.461895 -39.758438
-9.973318 99.569275 -38.771698
-8.604685 99.19244 -38.620354
-10.198357 97.668285 -40.772005
-9.453314 98.461895 -39.758438
-0.529583 101.457191 -12.877876
-1.211831 101.574272 -11.563199
-1.207485 102.146466 -14.348275
-0.529583 101.457191 -12.877876
-29.119579 93.617638 0.87104
-28.732028 94.88977 0.58638
-26.916722 99.537068 -28.730002
-27.116177 99.683204 -27.241564
-26.390439 100.661625 -27.630706
-28.423504 95.609367 -32.061062
-27.938053 96.995689 -30.969201
-27.713715 96.728394 -32.511638
-28.893933 94.102837 -33.05489
-28.423504 95.609367 -32.061062
-28.655842 93.864933 -34.484785
-29.35061 92.625698 -33.936174
-28.893933 94.102837 -33.05489
-21.627722 83.556126 -49.094986
-21.168785 85.260166 -48.58303
-22.670049 83.01352 -48.995356
-21.627722 83.556126 -49.094986
-30.654256 58.738754 -46.634355
-31.216733 59.407013 -45.872263
-30.842495 61.159165 -46.432606
-30.049886 58.260528 -47.325935
-30.654256 58.738754 -46.634355
-29.662247 59.67769 -47.827351
-30.049886 58.260528 -47.325935
-28.22567 91.869469 11.954194
-27.910739 91.948124 13.442273
-28.114439 92.929195 10.311758
-28.553024 91.72247 10.506356
-28.22567 91.869469 11.954194
-26.185358 96.189839 10.674209
-26.393008 95.087521 12.463947
-25.770959 95.998024 12.244291
-32.322046 70.627217 -42.657024
-32.765663 68.773899 -42.112631
-32.713285 71.012848 -41.575105
3.080684 98.147438 -29.339411
1.664122 99.045613 -29.73989
2.374049 99.047673 -28.413575
3.636363 97.31353 -30.237164
3.080684 98.147438 -29.339411
-2.746445 96.321884 3.959506
-3.246785 95.847965 5.364389
-2.072683 95.146534 5.234481
-4.617159 99.530098 -0.076299
-4.040612 98.508213 1.346177
-3.469358 98.889988 -0.215575
-2.39956 100.663155 -6.080516
-1.875676 99.78172 -4.576623
-3.079093 103.695545 -18.898737
-3.813119 103.997013 -17.509045
-5.148846 104.587257 -23.262456
-4.473482 104.384567 -21.85258
-3.834361 103.949333 -23.127903
-18.224424 94.651241 18.710979
-19.18687 94.556847 19.087714
-17.271738 94.702373 18.368648
-18.009116 95.698341 17.121762
-18.224424 94.651241 18.710979
-11.393369 89.427841 21.829796
-12.47449 89.742428 22.217474
-11.641012 88.348835 23.298124
0.082934 97.587242 -34.355704
-1.306388 98.275486 -34.795257
-0.487376 98.574154 -33.545534
-29.642447 86.59964 13.066447
-29.715832 85.387104 14.784402
-29.439346 86.747204 14.515739
-28.210372 98.89431 -15.247923
-28.395848 98.420257 -13.429049
-27.820335 99.658608 -13.79689
-31.647334 79.150791 -40.589397
-32.157493 77.747215 -39.93453
-23.96973 68.112187 -51.517724
-23.854186 69.991894 -51.37266
-23.948371 66.214409 -51.654881
-24.634526 67.158786 -51.347786
-23.96973 68.112187 -51.517724
-23.338985 65.243577 -51.896347
-24.003782 64.290177 -51.72641
-23.948371 66.214409 -51.654881
-22.78119 57.788747 -52.057924
-23.245604 56.628466 -51.842315
-23.543976 58.524799 -51.843981
-22.40763 58.817284 -52.208323
-22.109259 56.92095 -52.206657
-22.78119 57.788747 -52.057924
-5.883422 98.488769 -37.975212
-7.325152 98.838421 -38.38591
-5.883422 98.488769 -37.975212
-5.075518 99.064999 -36.803223
-22.599363 97.166237 14.252162
-23.414464 96.617031 14.648824
-22.852874 96.055866 16.031163
-7.325152 98.838421 -38.38591
-8.604685 99.19244 -38.620354
-7.845157 99.945801 -37.39917
-29.395023 95.536159 -10.790562
-29.035498 96.375179 -9.39531
-29.355035 95.913822 -12.495783
-29.395023 95.536159 -10.790562
-19.602824 87.306309 -48.032751
-18.500453 87.579754 -48.018268
-31.491407 64.235775 -45.358013
-31.917246 62.696844 -44.740233
-32.003681 65.105196 -44.427733
-27.432568 93.052884 13.174159
-27.910739 91.948124 13.442273
-14.56522 93.569744 -44.822683
-15.839074 93.447525 -45.000853
-15.1791 94.732983 -44.114849
-14.56522 93.569744 -44.822683
-13.25425 93.553799 -44.636105
-32.564436 73.447777 -41.01316
-32.713285 71.012848 -41.575105
0.284647 100.703026 -27.74513
-0.498204 100.764618 -29.102524
-1.171046 101.521797 -28.033601
1.666782 99.841706 -27.488919
0.284647 100.703026 -27.74513
2.374049 99.047673 -28.413575
1.666782 99.841706 -27.488919
-2.933985 99.233398 -1.671193
-3.469358 98.889988 -0.215575
-3.74521 102.319851 -8.730118
-3.066663 101.525466 -7.42132
-2.4673 101.612949 -8.873188
-3.109973 103.420108 -24.465015
-3.834361 103.949333 -23.127903
-2.503152 102.855339 -25.753792
-3.902905 103.587254 -25.826557
-3.109973 103.420108 -24.465015
-1.84214 102.241344 -26.895771
-2.503152 102.855339 -25.753792
-1.171046 101.521797 -28.033601
-2.624991 102.302937 -28.253165
-1.84214 102.241344 -26.895771
-15.859834 92.386963 20.929416
-16.540833 93.61684 19.597192
-14.897133 92.415573 20.36648
-15.859834 92.386963 20.929416
-13.937409 92.331054 19.924305
-14.634897 93.493888 18.794344
-14.897133 92.415573 20.36648
1.445738 96.827091 -33.9361
2.229226 97.051903 -32.720457
-29.477502 88.969105 9.606654
-29.56443 87.78698 11.430364
-29.279033 89.141865 10.974074
-29.477502 88.969105 9.606654
-29.434137 89.942291 7.859084
-27.961905 99.415775 -18.806483
-28.090028 99.211254 -16.963373
-27.506736 100.337181 -17.458873
-27.961905 99.415775 -18.806483
-27.823197 99.619602 -20.437787
-30.058395 86.551727 -39.30228
-29.661485 88.501358 -38.488928
-30.420741 84.662198 -39.998838
-30.058395 86.551727 -39.30228
-29.780531 86.059704 -40.458601
-30.763677 82.669571 -40.605762
-30.420741 84.662198 -39.998838
-30.449311 82.090538 -41.781021
-31.070112 80.589935 -41.231624
-30.763677 82.669571 -40.605762
-26.487165 58.10968 -50.382737
-27.25144 58.945144 -49.932058
-25.763055 57.336935 -50.771847
-26.487165 58.10968 -50.382737
-26.112476 59.522093 -50.695774
-25.015844 56.583329 -51.097643
-25.763055 57.336935 -50.771847
-24.698377 58.056933 -51.356628
-24.325856 55.890913 -51.369387
-25.015844 56.583329 -51.097643
-25.339355 95.68185 13.736353
-24.893307 95.277237 15.302222
-25.131706 96.784168 11.946615
-25.770959 95.998024 12.244291
-25.339355 95.68185 13.736353
-23.930527 97.097699 13.15425
-24.184039 95.987327 14.933252
-23.414464 96.617031 14.648824
-10.946732 96.770859 -41.804407
-11.570322 97.941304 -40.942184
-10.198357 97.668285 -40.772005
-11.744497 95.807389 -42.769763
-10.946732 96.770859 -41.804407
-1.874051 101.639392 -10.190931
-2.4673 101.612949 -8.873188
-2.483627 102.342212 -11.554254
-1.874051 101.639392 -10.190931
-1.211831 101.574272 -11.563199
-2.49726 102.915718 -14.500732
-3.73996 103.643658 -14.653652
-3.064107 103.005032 -13.079444
-2.49726 102.915718 -14.500732
-1.207485 102.146466 -14.348275
-10.854523 86.981628 24.302272
-11.641012 88.348835 23.298124
-9.778107 86.597229 23.949489
-10.854523 86.981628 24.302272
-8.716382 86.318127 23.475835
-9.498165 87.755146 22.436793
-9.778107 86.597229 23.949489
-7.699643 86.148457 22.88684
-8.716382 86.318127 23.475835
-6.634329 85.805194 22.436737
-7.371125 87.132782 21.513036
-7.699643 86.148457 22.88684
-29.173641 92.808457 2.68913
-29.266325 91.905937 4.462917
-28.890907 93.288391 4.073675
-29.173641 92.808457 2.68913
-29.119579 93.617638 0.87104
-27.315828 99.712525 -25.648522
-27.548489 99.67595 -23.979009
-26.822555 100.771187 -24.472755
-27.315828 99.712525 -25.648522
-27.116177 99.683204 -27.241564
-27.435362 98.336681 -29.880319
-26.916722 99.537068 -28.730002
-26.709623 99.315102 -30.26946
-27.435362 98.336681 -29.880319
-27.938053 96.995689 -30.969201
-29.713233 91.134716 -34.908915
-29.35061 92.625698 -33.936174
-29.508651 90.720638 -36.290942
-29.713233 91.134716 -34.908915
-29.21615 90.35215 -37.6367
-29.508651 90.720638 -36.290942
-28.820016 92.019306 -36.711828
-28.97285 89.800026 -38.909815
-29.661485 88.501358 -38.488928
-29.21615 90.35215 -37.6367
-20.765079 86.922733 -47.983973
-20.272962 88.518616 -47.366962
-19.602824 87.306309 -48.032751
-21.838923 86.472473 -47.917242
-20.765079 86.922733 -47.983973
-21.168785 85.260166 -48.58303
-23.653316 82.311753 -48.87376
-23.225897 84.108139 -48.394705
-22.670049 83.01352 -48.995356
-24.076566 80.449562 -49.271784
-24.632414 81.544182 -48.671133
-23.653316 82.311753 -48.87376
-24.470678 78.557026 -49.624254
-24.076566 80.449562 -49.271784
-31.791109 60.175442 -45.04106
-31.917246 62.696844 -44.740233
-31.791109 60.175442 -45.04106
-31.216733 59.407013 -45.872263
-29.264791 61.240206 -48.278814
-29.662247 59.67769 -47.827351
-29.882562 62.053421 -47.646162
-28.660759 60.450069 -48.861744
-29.264791 61.240206 -48.278814
-28.881074 62.8258 -48.680555
-27.971668 59.815557 -49.410469
-28.660759 60.450069 -48.861744
-27.556814 61.165251 -49.785075
-27.25144 58.945144 -49.932058
-27.971668 59.815557 -49.410469
-1.880069 93.407971 7.878519
-3.012633 94.064785 8.084954
-2.319679 92.80014 9.324109
-1.460055 93.989837 6.486423
-1.880069 93.407971 7.878519
-2.072683 95.146534 5.234481
-1.460055 93.989837 6.486423
-29.120839 88.08511 14.226214
-29.439346 86.747204 14.515739
-29.015108 89.311241 12.473288
-29.120839 88.08511 14.226214
-28.92818 90.493367 10.649578
-29.279033 89.141865 10.974074
-29.015108 89.311241 12.473288
-28.816949 91.553093 9.007143
-28.92818 90.493367 10.649578
-28.553024 91.72247 10.506356
-26.942729 94.154454 12.741293
-26.393008 95.087521 12.463947
-27.297246 94.177765 11.326731
-27.432568 93.052884 13.174159
-26.942729 94.154454 12.741293
-28.298004 96.111988 0.223594
-28.732028 94.88977 0.58638
-28.364199 95.413128 1.937102
-28.163373 96.891545 -1.596614
-28.298004 96.111988 0.223594
-27.795543 97.414901 -0.245893
-28.02208 97.697376 -3.391185
-28.163373 96.891545 -1.596614
-27.863048 98.403171 -5.22704
-28.02208 97.697376 -3.391185
-27.50188 98.900253 -3.901955
-27.767139 98.963505 -7.030415
-28.287339 97.760627 -6.519646
-27.863048 98.403171 -5.22704
-16.550979 92.009407 -45.884153
-17.164859 93.172646 -45.176319
-15.839074 93.447525 -45.000853
-17.247809 90.57296 -46.671043
-16.550979 92.009407 -45.884153
-17.864781 89.156791 -47.349104
-18.493736 90.318359 -46.73768
-17.247809 90.57296 -46.671043
-18.500453 87.579754 -48.018268
-17.864781 89.156791 -47.349104
-32.81983 66.555183 -42.507935
-32.765663 68.773899 -42.112631
-32.401972 65.977266 -43.502251
-32.81983 66.555183 -42.507935
-31.976132 67.516198 -44.120031
-32.003681 65.105196 -44.427733
-32.401972 65.977266 -43.502251
2.963631 97.181637 -31.50033
2.229226 97.051903 -32.720457
1.636351 98.015644 -31.885853
2.963631 97.181637 -31.50033
3.636363 97.31353 -30.237164
-3.406679 97.445709 2.648157
-2.746445 96.321884 3.959506
-4.55448 98.085819 2.787433
-3.406679 97.445709 2.648157
-4.040612 98.508213 1.346177
-2.416216 99.531334 -3.150488
-1.875676 99.78172 -4.576623
-3.528136 100.209809 -3.117346
-2.933985 99.233398 -1.671193
-2.416216 99.531334 -3.150488
-3.677469 101.370056 -5.937445
-2.39956 100.663155 -6.080516
-3.066663 101.525466 -7.42132
-4.437009 104.197876 -16.047401
-5.003856 104.28719 -14.626114
-3.73996 103.643658 -14.653652
-5.077017 104.640545 -17.481507
-4.437009 104.197876 -16.047401
-3.813119 103.997013 -17.509045
-3.806062 104.093163 -20.330589
-3.079093 103.695545 -18.898737
-5.120547 104.731087 -20.465142
-3.806062 104.093163 -20.330589
-4.473482 104.384567 -21.85258
-22.256221 95.43586 17.423655
-22.852874 96.055866 16.031163
-21.446342 95.845345 17.009388
-22.256221 95.43586 17.423655
-20.545172 96.164513 16.679596
-21.136603 96.92424 15.30471
-21.446342 95.845345 17.009388
-19.908356 95.366413 17.924183
-19.18687 94.556847 19.087714
-19.598618 96.445309 16.219505
-20.545172 96.164513 16.679596
-19.908356 95.366413 17.924183
-16.325526 94.66394 18.007976
-17.271738 94.702373 18.368648
-16.540833 93.61684 19.597192
-13.213245 91.037087 21.122794
-12.47449 89.742428 22.217474
-12.95101 92.115402 19.550657
-13.937409 92.331054 19.924305
-13.213245 91.037087 21.122794
-5.611131 85.362702 22.103288
-6.634329 85.805194 22.436737
-5.284492 86.38023 20.68555
-5.611131 85.362702 22.103288
-4.987037 87.347718 19.267018
-6.008356 87.757008 19.6444
-5.284492 86.38023 20.68555
-4.67589 88.306538 17.832065
-4.987037 87.347718 19.267018
-4.326251 89.183384 16.382677
-5.361262 89.601342 16.776481
-4.67589 88.306538 17.832065
-4.019929 90.002716 15.03192
-4.326251 89.183384 16.382677
-3.647455 90.789196 13.586474
-4.63915 91.264668 13.881649
-4.019929 90.002716 15.03192
-3.207021 91.475422 12.200077
-3.647455 90.789196 13.586474
-2.799805 92.178325 10.747248
-3.859459 92.754051 10.983374
-3.207021 91.475422 12.200077
-2.319679 92.80014 9.324109
-2.799805 92.178325 10.747248
-2.731054 98.900307 -35.213403
-4.199165 99.538006 -35.545002
-3.344807 99.900097 -34.316687
-2.731054 98.900307 -35.213403
-1.306388 98.275486 -34.795257
0.082934 97.587242 -34.355704
1.445738 96.827091 -33.9361
-29.642447 86.59964 13.066447
-29.56443 87.78698 11.430364
-29.32988 90.973232 6.207633
-29.266325 91.905937 4.462917
-28.867393 97.283478 -13.062291
-28.477356 98.047775 -11.611258
-28.395848 98.420257 -13.429049
-29.355035 95.913822 -12.495783
-28.867393 97.283478 -13.062291
-28.210372 98.89431 -15.247923
-28.090028 99.211254 -16.963373
-27.661499 99.716057 -22.188417
-27.548489 99.67595 -23.979009
-32.384696 75.581001 -40.514625
-32.157493 77.747215 -39.93453
-32.089929 74.99939 -41.620964
-32.564436 73.447777 -41.01316
-32.384696 75.581001 -40.514625
-31.332967 78.571758 -41.764656
-31.647334 79.150791 -40.589397
-31.070112 80.589935 -41.231624
-24.747055 76.513256 -49.983312
-25.332041 77.638222 -49.428215
-24.470678 78.557026 -49.624254
-24.964472 74.424701 -50.299814
-24.747055 76.513256 -49.983312
-25.09203 72.371338 -50.585514
-25.735976 73.541088 -50.072973
-24.964472 74.424701 -50.299814
-24.488206 71.155757 -51.011492
-23.854186 69.991894 -51.37266
-25.259709 70.272144 -50.784651
-25.09203 72.371338 -50.585514
-24.488206 71.155757 -51.011492
-22.698614 64.077904 -52.105323
-23.338985 65.243577 -51.896347
-22.682944 62.304051 -52.156629
-22.698614 64.077904 -52.105323
-22.525526 60.486919 -52.202486
-23.236978 61.502212 -52.013733
-22.682944 62.304051 -52.156629
-21.853595 59.619121 -52.351219
-22.40763 58.817284 -52.208323
-22.525526 60.486919 -52.202486
-23.581619 55.427467 -51.63015
-24.325856 55.890913 -51.369387
-23.581619 55.427467 -51.63015
-23.245604 56.628466 -51.842315
3 1 332 334
3 334 333 85
3 332 333 334
3 0 88 86
3 1 91 89
3 1 85 91
3 2 95 93
3 4 335 336
3 4 337 339
3 337 96 338
3 337 338 339
3 3 99 97
3 5 102 100
3 5 104 102
3 5 106 104
3 6 109 107
3 6 111 109
3 8 114 112
3 8 116 114
3 9 119 117
3 11 122 120
3 11 124 122
3 11 126 124
3 340 129 341
3 342 341 127
3 340 341 342
3 344 343 129
3 13 133 131
3 15 136 134
3 15 138 136
3 16 141 139
3 16 143 141
3 16 145 143
3 17 150 148
3 17 152 150
3 7 345 347
3 347 346 153
3 345 346 347
3 14 156 154
3 18 159 157
3 18 161 159
3 10 164 162
3 19 167 165
3 19 169 167
3 19 348 350
3 350 349 169
3 348 349 350
3 20 171 170
3 20 173 171
3 12 176 174
3 21 179 177
3 21 181 179
3 21 183 181
3 22 185 184
3 22 187 185
3 351 188 352
3 24 189 87
3 24 190 189
3 25 193 191
3 27 194 90
3 27 195 194
3 27 197 195
3 353 198 354
3 355 354 92
3 353 354 355
3 357 356 198
3 29 201 199
3 31 202 94
3 31 203 202
3 358 204 359
3 361 360 204
3 363 362 205
3 33 208 206
3 35 209 98
3 35 210 209
3 36 213 211
3 38 214 101
3 38 215 214
3 38 364 366
3 366 365 215
3 364 365 366
3 39 367 369
3 369 368 103
3 367 368 369
3 39 370 371
3 39 372 374
3 372 216 373
3 372 373 374
3 40 217 105
3 40 218 217
3 41 221 219
3 375 222 376
3 378 377 222
3 43 379 381
3 381 380 108
3 379 380 381
3 43 382 383
3 43 384 385
3 44 223 110
3 44 224 223
3 46 386 387
3 46 388 390
3 388 226 389
3 388 389 390
3 23 391 393
3 391 227 392
3 391 392 393
3 47 228 113
3 47 229 228
3 47 230 229
3 48 231 115
3 48 232 231
3 49 235 233
3 51 236 118
3 51 237 236
3 26 238 192
3 52 239 121
3 52 240 239
3 52 241 240
3 53 242 123
3 53 243 242
3 53 245 243
3 55 246 125
3 55 247 246
3 28 248 196
3 56 249 128
3 56 250 249
3 56 251 250
3 57 394 396
3 394 252 395
3 394 395 396
3 57 253 252
3 58 256 254
3 397 257 398
3 399 398 130
3 397 398 399
3 401 400 257
3 60 260 258
3 62 261 132
3 62 262 261
3 30 263 200
3 63 264 135
3 63 265 264
3 63 266 265
3 64 267 137
3 64 268 267
3 402 269 403
3 404 403 225
3 402 403 404
3 65 405 407
3 405 270 406
3 405 406 407
3 65 271 270
3 408 272 409
3 66 273 140
3 66 274 273
3 66 275 274
3 67 276 142
3 67 277 276
3 67 278 277
3 68 279 144
3 68 280 279
3 410 281 411
3 69 412 414
3 412 282 413
3 412 413 414
3 69 283 282
3 69 284 283
3 58 285 146
3 58 254 285
3 415 286 416
3 417 287 418
3 419 418 286
3 417 418 419
3 70 288 147
3 70 289 288
3 32 420 422
3 420 290 421
3 420 421 422
3 71 291 149
3 71 292 291
3 71 293 292
3 72 294 151
3 72 295 294
3 59 423 425
3 425 424 255
3 423 424 425
3 45 426 428
3 426 427 428
3 61 296 259
3 73 297 155
3 73 298 297
3 34 299 207
3 74 300 158
3 74 301 300
3 74 302 301
3 75 303 160
3 75 304 303
3 50 305 234
3 76 306 163
3 76 307 306
3 37 308 212
3 77 309 166
3 77 310 309
3 77 311 310
3 78 312 168
3 78 313 312
3 78 429 431
3 431 430 313
3 429 430 431
3 432 314 433
3 79 315 172
3 79 316 315
3 54 317 244
3 80 318 175
3 80 319 318
3 42 320 220
3 81 321 178
3 81 322 321
3 81 323 322
3 82 324 180
3 82 325 324
3 82 326 325
3 83 327 182
3 83 328 327
3 434 329 435
3 436 330 437
3 438 437 329
3 436 437 438
3 439 331 440
3 441 440 330
3 439 440 441
3 84 442 444
3 444 443 186
3 442 443 444
3 84 445 447
3 445 446 447
3 85 448 449
3 451 450 85
3 86 452 454
3 452 87 453
3 452 453 454
3 88 87 86
3 88 24 87
3 89 90 25
3 91 90 89
3 91 27 90
3 91 92 27
3 85 92 91
3 85 455 457
3 457 456 92
3 455 456 457
3 93 94 29
3 95 94 93
3 95 31 94
3 96 458 459
3 96 460 461
3 97 98 33
3 99 98 97
3 99 35 98
3 100 101 36
3 102 101 100
3 102 38 101
3 102 103 38
3 104 103 102
3 104 39 103
3 104 105 39
3 106 105 104
3 106 40 105
3 463 462 41
3 107 464 466
3 464 108 465
3 464 465 466
3 109 108 107
3 109 43 108
3 109 110 43
3 111 110 109
3 111 44 110
3 467 46 468
3 112 113 23
3 114 113 112
3 114 47 113
3 114 115 47
3 116 115 114
3 116 48 115
3 117 118 49
3 119 118 117
3 119 51 118
3 120 121 26
3 122 121 120
3 122 52 121
3 122 123 52
3 124 123 122
3 124 53 123
3 124 125 53
3 126 125 124
3 126 55 125
3 127 128 28
3 129 128 127
3 129 56 128
3 129 469 471
3 471 470 56
3 469 470 471
3 473 472 129
3 474 57 475
3 476 130 477
3 478 477 58
3 476 477 478
3 479 130 480
3 482 481 130
3 131 132 60
3 133 132 131
3 133 62 132
3 134 135 30
3 136 135 134
3 136 63 135
3 136 137 63
3 138 137 136
3 138 64 137
3 483 65 484
3 139 485 487
3 485 140 486
3 485 486 487
3 141 140 139
3 141 66 140
3 141 142 66
3 143 142 141
3 143 67 142
3 143 144 67
3 145 144 143
3 145 68 144
3 488 69 489
3 490 146 491
3 492 491 69
3 490 491 492
3 493 146 494
3 495 58 496
3 497 496 146
3 495 496 497
3 498 147 499
3 500 147 501
3 502 70 503
3 504 503 147
3 502 503 504
3 148 149 32
3 150 149 148
3 150 71 149
3 150 151 71
3 152 151 150
3 152 72 151
3 506 505 59
3 153 507 509
3 509 508 45
3 507 508 509
3 511 510 153
3 154 155 61
3 156 155 154
3 156 73 155
3 157 158 34
3 159 158 157
3 159 74 158
3 159 160 74
3 161 160 159
3 161 75 160
3 162 163 50
3 164 163 162
3 164 76 163
3 165 166 37
3 167 166 165
3 167 77 166
3 167 168 77
3 169 168 167
3 169 78 168
3 169 512 514
3 514 513 78
3 512 513 514
3 516 515 169
3 170 517 518
3 171 519 521
3 521 520 170
3 519 520 521
3 171 522 523
3 171 524 526
3 524 172 525
3 524 525 526
3 173 172 171
3 173 79 172
3 174 175 54
3 176 175 174
3 176 80 175
3 177 178 42
3 179 178 177
3 179 81 178
3 179 180 81
3 181 180 179
3 181 82 180
3 181 182 82
3 183 182 181
3 183 83 182
3 184 527 528
3 185 529 531
3 531 530 184
3 529 530 531
3 185 532 533
3 185 534 536
3 534 186 535
3 534 535 536
3 187 186 185
3 187 84 186
3 188 537 538
3 188 539 541
3 539 23 540
3 539 540 541
3 87 542 544
3 542 188 543
3 542 543 544
3 189 188 87
3 189 23 188
3 189 112 23
3 190 112 189
3 190 8 112
3 191 192 9
3 193 192 191
3 193 26 192
3 90 193 25
3 194 193 90
3 194 26 193
3 194 120 26
3 195 120 194
3 195 11 120
3 195 196 11
3 197 196 195
3 197 28 196
3 92 197 27
3 198 197 92
3 198 28 197
3 198 127 28
3 545 127 546
3 547 546 198
3 545 546 547
3 549 548 127
3 199 200 13
3 201 200 199
3 201 30 200
3 94 201 29
3 202 201 94
3 202 30 201
3 202 134 30
3 203 134 202
3 203 15 134
3 550 139 551
3 204 552 554
3 552 139 553
3 552 553 554
3 204 16 139
3 204 555 557
3 557 556 16
3 555 556 557
3 559 558 204
3 560 32 561
3 562 32 563
3 564 148 565
3 566 565 32
3 564 565 566
3 567 148 568
3 569 17 570
3 571 570 148
3 569 570 571
3 205 572 574
3 574 573 7
3 572 573 574
3 576 575 205
3 206 207 14
3 208 207 206
3 208 34 207
3 98 208 33
3 209 208 98
3 209 34 208
3 209 157 34
3 210 157 209
3 210 18 157
3 211 212 10
3 213 212 211
3 213 37 212
3 101 213 36
3 214 213 101
3 214 37 213
3 214 165 37
3 215 165 214
3 215 19 165
3 215 577 579
3 579 578 19
3 577 578 579
3 581 580 215
3 103 582 584
3 584 583 38
3 582 583 584
3 586 585 103
3 216 587 588
3 216 589 590
3 105 216 39
3 217 216 105
3 217 591 593
3 593 592 216
3 591 592 593
3 217 594 596
3 594 170 595
3 594 595 596
3 218 170 217
3 218 20 170
3 219 220 12
3 221 220 219
3 221 42 220
3 597 221 598
3 599 598 41
3 597 598 599
3 222 600 602
3 600 221 601
3 600 601 602
3 222 42 221
3 222 177 42
3 603 177 604
3 605 604 222
3 603 604 605
3 606 21 607
3 608 607 177
3 606 607 608
3 610 609 21
3 108 611 612
3 614 613 108
3 110 615 617
3 617 616 43
3 615 616 617
3 223 618 620
3 620 619 110
3 618 619 620
3 223 621 622
3 223 623 625
3 623 184 624
3 623 624 625
3 224 184 223
3 224 22 184
3 626 225 627
3 628 627 2
3 626 627 628
3 629 225 630
3 632 631 225
3 633 45 634
3 635 45 636
3 637 153 638
3 639 638 45
3 637 638 639
3 226 640 642
3 640 153 641
3 640 641 642
3 226 7 153
3 227 643 644
3 227 645 647
3 645 46 646
3 645 646 647
3 113 227 23
3 228 227 113
3 228 46 227
3 228 226 46
3 229 226 228
3 229 7 226
3 229 205 7
3 230 205 229
3 230 648 650
3 650 649 205
3 648 649 650
3 115 230 47
3 231 230 115
3 231 651 653
3 653 652 230
3 651 652 653
3 231 654 655
3 232 656 658
3 658 657 231
3 656 657 658
3 232 659 661
3 659 4 660
3 659 660 661
3 233 234 3
3 235 234 233
3 235 50 234
3 118 235 49
3 236 235 118
3 236 50 235
3 236 162 50
3 237 162 236
3 237 10 162
3 192 119 9
3 238 119 192
3 238 51 119
3 121 238 26
3 239 238 121
3 239 51 238
3 239 237 51
3 240 237 239
3 240 10 237
3 240 211 10
3 241 211 240
3 241 36 211
3 123 241 52
3 242 241 123
3 242 36 241
3 242 100 36
3 243 100 242
3 243 5 100
3 243 244 5
3 245 244 243
3 245 54 244
3 125 245 53
3 246 245 125
3 246 54 245
3 246 174 54
3 247 174 246
3 247 12 174
3 196 126 11
3 248 126 196
3 248 55 126
3 128 248 28
3 249 248 128
3 249 55 248
3 249 247 55
3 250 247 249
3 250 12 247
3 250 219 12
3 251 219 250
3 251 41 219
3 662 251 663
3 664 663 56
3 662 663 664
3 665 251 666
3 667 41 668
3 669 668 251
3 667 668 669
3 671 670 41
3 252 672 673
3 252 674 675
3 252 676 678
3 676 107 677
3 676 677 678
3 253 107 252
3 253 6 107
3 254 255 1
3 256 255 254
3 256 59 255
3 130 256 58
3 257 256 130
3 257 59 256
3 257 679 681
3 681 680 59
3 679 680 681
3 683 682 257
3 258 259 0
3 260 259 258
3 260 61 259
3 132 260 60
3 261 260 132
3 261 61 260
3 261 154 61
3 262 154 261
3 262 14 154
3 200 133 13
3 263 133 200
3 263 62 133
3 135 263 30
3 264 263 135
3 264 62 263
3 264 262 62
3 265 262 264
3 265 14 262
3 265 206 14
3 266 206 265
3 266 33 206
3 137 266 63
3 267 266 137
3 267 33 266
3 267 97 33
3 268 97 267
3 268 3 97
3 225 95 2
3 269 95 225
3 269 31 95
3 684 269 685
3 270 686 688
3 686 269 687
3 686 687 688
3 270 31 269
3 270 203 31
3 271 203 270
3 271 15 203
3 272 689 690
3 272 691 693
3 691 65 692
3 691 692 693
3 140 694 696
3 694 272 695
3 694 695 696
3 273 272 140
3 273 65 272
3 273 271 65
3 274 271 273
3 274 15 271
3 274 138 15
3 275 138 274
3 275 64 138
3 142 275 66
3 276 275 142
3 276 64 275
3 276 268 64
3 277 268 276
3 277 3 268
3 277 233 3
3 278 233 277
3 278 49 233
3 144 278 67
3 279 278 144
3 279 49 278
3 279 117 49
3 280 117 279
3 280 9 117
3 697 145 698
3 699 698 16
3 697 698 699
3 281 700 702
3 700 145 701
3 700 701 702
3 281 68 145
3 703 281 704
3 282 705 707
3 705 281 706
3 705 706 707
3 282 68 281
3 282 280 68
3 283 280 282
3 283 9 280
3 283 191 9
3 284 191 283
3 284 25 191
3 146 284 69
3 285 284 146
3 285 25 284
3 285 89 25
3 254 89 285
3 254 1 89
3 708 86 709
3 710 86 711
3 712 0 713
3 714 713 86
3 712 713 714
3 286 715 716
3 286 717 719
3 717 0 718
3 717 718 719
3 286 258 0
3 287 258 286
3 287 60 258
3 147 720 722
3 720 287 721
3 720 721 722
3 288 287 147
3 288 60 287
3 288 131 60
3 289 131 288
3 289 13 131
3 290 723 724
3 290 725 727
3 725 70 726
3 725 726 727
3 149 290 32
3 291 290 149
3 291 70 290
3 291 289 70
3 292 289 291
3 292 13 289
3 292 199 13
3 293 199 292
3 293 29 199
3 151 293 71
3 294 293 151
3 294 29 293
3 294 93 29
3 295 93 294
3 295 2 93
3 728 17 729
3 730 17 731
3 732 152 733
3 734 733 17
3 732 733 734
3 735 152 736
3 737 72 738
3 739 738 152
3 737 738 739
3 740 72 741
3 742 295 743
3 744 743 72
3 742 743 744
3 745 295 746
3 747 2 748
3 749 748 295
3 747 748 749
3 751 750 2
3 255 752 754
3 754 753 1
3 752 753 754
3 756 755 255
3 758 757 59
3 760 759 45
3 762 761 7
3 259 88 0
3 296 88 259
3 296 24 88
3 155 296 61
3 297 296 155
3 297 24 296
3 297 190 24
3 298 190 297
3 298 8 190
3 207 156 14
3 299 156 207
3 299 73 156
3 158 299 34
3 300 299 158
3 300 73 299
3 300 298 73
3 301 298 300
3 301 8 298
3 301 116 8
3 302 116 301
3 302 48 116
3 160 302 74
3 303 302 160
3 303 48 302
3 303 232 48
3 304 232 303
3 304 4 232
3 234 99 3
3 305 99 234
3 305 35 99
3 163 305 50
3 306 305 163
3 306 35 305
3 306 210 35
3 307 210 306
3 307 18 210
3 212 164 10
3 308 164 212
3 308 76 164
3 166 308 37
3 309 308 166
3 309 76 308
3 309 307 76
3 310 307 309
3 310 18 307
3 310 161 18
3 311 161 310
3 311 75 161
3 168 311 77
3 312 311 168
3 312 75 311
3 312 304 75
3 313 304 312
3 313 4 304
3 313 96 4
3 763 96 764
3 765 764 313
3 763 764 765
3 767 766 96
3 769 768 78
3 771 770 19
3 314 772 773
3 314 774 776
3 774 57 775
3 774 775 776
3 172 777 779
3 777 314 778
3 777 778 779
3 315 314 172
3 315 57 314
3 315 253 57
3 316 253 315
3 316 6 253
3 244 106 5
3 317 106 244
3 317 40 106
3 175 317 54
3 318 317 175
3 318 40 317
3 318 218 40
3 319 218 318
3 319 20 218
3 220 176 12
3 320 176 220
3 320 80 176
3 178 320 42
3 321 320 178
3 321 80 320
3 321 319 80
3 322 319 321
3 322 20 319
3 322 173 20
3 323 173 322
3 323 79 173
3 180 323 81
3 324 323 180
3 324 79 323
3 324 316 79
3 325 316 324
3 325 6 316
3 325 111 6
3 326 111 325
3 326 44 111
3 182 326 82
3 327 326 182
3 327 44 326
3 327 224 44
3 328 224 327
3 328 22 224
3 780 183 781
3 782 781 21
3 780 781 782
3 783 183 784
3 785 83 786
3 787 786 183
3 785 786 787
3 329 788 789
3 329 790 792
3 790 83 791
3 790 791 792
3 329 328 83
3 330 328 329
3 330 22 328
3 330 187 22
3 331 187 330
3 331 84 187
3 793 331 794
3 795 331 796
3 797 84 798
3 799 798 331
3 797 798 799
3 802 801 84
3 800 801 802
3 186 803 804
3 806 805 186
