ply
format ascii 1.0
element vertex 421
property float x
property float y
property float z
element face 465
property list uchar int vertex_index
end_header
-22.949369 -7.076767 -6.347281
-33.306313 -9.364587 -17.582508
-22.699825 4.374025 -18.287949
-33.58823 -22.330196 -3.590874
-26.965027 -9.586326 -10.78345
-28.051201 -2.864251 -17.768002
-21.881517 -2.0132 -11.443166
-28.060505 -15.014726 -5.002098
-32.72282 -16.633415 -10.516335
-29.504341 4.938723 -25.81354
-23.938404 11.645998 -26.532045
-37.165417 -24.073114 -10.10365
-24.563931 -8.832864 -8.232061
-24.440945 -6.121453 -11.112356
-22.167473 -4.850245 -8.655448
-25.355312 -11.220985 -5.651246
-27.160284 -12.492417 -7.710477
-36.237854 -8.917751 -21.337856
-33.977333 -5.478679 -21.324968
-25.237219 0.577752 -17.914051
-28.796787 0.881451 -21.592758
-26.023905 4.306423 -21.936174
-26.716408 8.267111 -26.28141
-23.333546 7.994767 -22.308441
-35.937847 -26.22089 -2.822922
-35.459194 -23.48773 -6.696714
-32.805031 -13.106665 -13.954384
-35.318722 -16.671288 -14.001791
-35.707573 -12.916404 -17.619143
-30.158056 -9.834822 -13.978119
-30.686367 -6.004763 -17.665159
-27.336052 -6.433951 -14.071551
-24.647974 -2.891353 -14.306993
-22.109844 1.031212 -14.60116
-30.812309 -18.581591 -4.287061
-32.872047 -19.579983 -7.132265
-30.063107 -16.036192 -7.439783
-29.922323 -13.096654 -10.700305
-31.439205 -2.269812 -21.386208
-35.201199 -20.23472 -10.35909
-23.67292 -8.177349 -7.142745
-23.330019 -6.949358 -8.380859
-22.461229 -5.975803 -7.444369
-24.135893 -9.259463 -5.964876
-24.883627 -10.114203 -6.858728
-34.80254 -9.082504 -19.455158
-35.053795 -7.132172 -21.231262
-33.61327 -7.367009 -19.472324
-23.97175 2.39237 -18.09305
-25.61726 2.527766 -19.974312
-24.32427 4.26298 -20.114042
-24.522564 6.178432 -22.034777
-22.910341 6.16532 -20.132353
-34.850517 -24.275349 -3.217216
-35.652138 -24.920656 -4.751655
-34.489079 -22.908453 -5.162865
-33.092033 -11.312638 -15.78287
-34.350739 -12.987918 -15.854262
-34.573784 -11.072628 -17.649786
-35.969566 -10.939658 -19.4744
-28.577105 -9.855154 -12.321551
-28.8162 -8.10172 -14.118732
-27.189005 -8.110516 -12.435557
-23.131638 -4.218195 -11.188814
-24.496319 -4.575802 -12.637501
-23.182941 -2.659548 -12.739378
-23.330259 -0.960459 -14.442664
-21.986835 -0.598105 -12.960964
-29.474602 -16.872272 -4.60043
-30.424276 -17.465658 -5.795598
-28.979826 -15.657684 -6.055332
-27.077518 -11.224742 -9.183144
-28.440969 -12.884582 -9.098914
-28.410307 -11.416012 -10.639634
-29.944756 -11.505733 -12.265027
-29.405161 -4.54632 -17.642887
-31.078365 -4.154015 -19.525454
-29.684305 -2.557502 -19.530064
-29.064074 2.937716 -23.610876
-30.53479 1.360792 -23.578466
-30.851788 3.27651 -25.548573
-31.164164 5.263888 -27.682312
-29.878311 7.063214 -28.193705
-25.358337 9.983651 -26.530239
-37.196831 -25.765842 -8.185977
-32.794415 -18.246538 -8.792809
-34.138119 -20.119362 -8.661911
-33.9958 -18.431499 -10.394508
-36.49958 -16.58993 -15.819702
-36.426765 -18.496611 -14.087229
-25.742239 -9.448513 -9.368529
-25.629225 -7.919911 -10.836685
-24.372889 -7.479661 -9.592837
-23.156803 -5.586801 -9.782388
-21.922567 -3.437702 -9.982494
-26.675222 -13.142764 -5.32043
-27.541313 -13.801698 -6.346776
-26.205534 -12.018412 -6.589809
-25.781744 -10.664065 -7.907405
-35.435841 -5.291259 -23.080763
-26.638506 -1.146644 -17.861467
-28.346878 -1.045821 -19.556831
-26.960611 0.759686 -19.780443
-27.387985 2.556302 -21.727621
-27.675831 4.556897 -23.762186
-28.156164 6.50323 -26.007055
-26.307713 6.282232 -23.99987
-25.027374 8.041862 -24.29862
-23.597393 9.863098 -24.371521
-36.567177 -26.797865 -4.376095
-36.427963 -25.416199 -6.347872
-36.282097 -23.741701 -8.346511
-32.804501 -14.993234 -12.24991
-34.097847 -16.71431 -12.276604
-34.128178 -14.860917 -14.007213
-35.400234 -14.73401 -15.758708
-31.672213 -9.634058 -15.678158
-32.055058 -7.690702 -17.637512
-30.376135 -7.865719 -15.851851
-28.892666 -6.23195 -15.770092
-27.627108 -4.576051 -15.936668
-25.77836 -6.322477 -12.525937
-26.029322 -4.675218 -14.254846
-26.308887 -2.891922 -16.063923
-24.933048 -1.084218 -16.17808
-23.57221 0.655332 -16.139067
-22.373621 2.613851 -16.336149
-32.21941 -20.420969 -3.945745
-33.17865 -20.97859 -5.449702
-31.782515 -19.164618 -5.607641
-31.500349 -17.857418 -7.213361
-31.395626 -16.406349 -8.955166
-28.619158 -14.259866 -7.617728
-29.920029 -14.549645 -9.12968
-31.348402 -14.77298 -10.691243
-31.403131 -13.151731 -12.335534
-31.501995 -11.396059 -14.014988
-21.896975 -4.791251 -6.665595
-32.435505 -5.764461 -19.542454
-32.787525 -3.820689 -21.429222
-33.114117 -1.811834 -23.367729
-30.181883 -0.601928 -21.601242
-31.76309 -0.136483 -23.444796
-21.409838 6.408063 -18.332033
-21.724512 8.138635 -20.33255
-21.968918 9.994904 -22.378906
-22.253681 11.829319 -24.514851
-22.507639 13.634503 -26.66333
-34.216236 -21.525171 -6.877334
-35.223919 -21.813181 -8.525756
-36.247345 -22.13755 -10.18881
-35.294289 -18.549601 -12.235342
-36.305725 -20.33189 -12.181386
-37.211372 -22.245621 -12.095476
-23.542631 -8.168115 -6.156078
-23.850033 -8.631683 -5.605625
-23.256771 -7.540335 -5.796828
-33.860603 -22.954073 -2.666307
-33.178063 -21.952748 -2.905342
-34.219374 -23.302772 -3.404045
-34.491747 -23.92665 -2.479478
-33.860603 -22.954073 -2.666307
-28.333046 -15.502567 -4.290186
-27.677697 -14.598247 -4.498166
-28.767553 -15.943499 -4.801264
-29.040095 -16.43134 -4.089352
-28.333046 -15.502567 -4.290186
-24.732997 11.75274 -27.579301
-25.442963 10.921567 -27.578398
-24.64837 10.814825 -26.531142
-24.013622 12.636768 -27.652457
-24.732997 11.75274 -27.579301
-37.554794 -25.106843 -10.073246
-37.570502 -25.953207 -9.11441
-37.181124 -24.919478 -9.144813
-37.559357 -24.173621 -11.012134
-37.554794 -25.106843 -10.073246
-37.007418 -17.647602 -15.8161
-37.04281 -16.633445 -16.678283
-25.668326 -11.730419 -5.024735
-25.033895 -10.691128 -5.238328
-26.015267 -12.181874 -5.485838
-26.32828 -12.691309 -4.859327
-25.668326 -11.730419 -5.024735
-36.334888 -7.947997 -22.188981
-36.807083 -8.848842 -22.180059
-34.134733 -4.566045 -22.206525
-34.863987 -4.472335 -23.084423
-34.706587 -5.384969 -22.202866
-36.097452 -26.786102 -1.79192
-35.599241 -25.822477 -2.059692
-36.364303 -27.147401 -2.627383
-36.097452 -26.786102 -1.79192
-36.252512 -26.509377 -3.599509
-36.678968 -27.435889 -3.40397
-36.364303 -27.147401 -2.627383
-36.202915 -13.837816 -17.600278
-36.049245 -14.746619 -16.670061
-35.553903 -13.825207 -16.688925
-36.318741 -12.872492 -18.506583
-36.202915 -13.837816 -17.600278
-36.682626 -9.862247 -21.255591
-36.548482 -10.8732 -20.323863
-36.10371 -9.928705 -20.406128
-36.807083 -8.848842 -22.180059
-36.682626 -9.862247 -21.255591
-31.111258 -19.148733 -3.470332
-30.419687 -18.239239 -3.665053
-31.51586 -19.50128 -4.116403
-31.814808 -20.068421 -3.299674
-31.111258 -19.148733 -3.470332
-31.996253 0.802178 -24.466624
-31.14894 0.612155 -23.511631
-31.382103 1.550815 -24.533459
-32.617528 -0.017743 -24.379925
-31.996253 0.802178 -24.466624
-27.608907 8.380295 -27.281385
-28.328785 7.498355 -27.144207
-27.436286 7.385171 -26.144233
-21.644373 -4.250343 -7.212969
-21.425381 -3.603252 -6.910311
-20.860148 7.484604 -18.438716
-20.726282 6.76176 -17.562264
-21.017485 8.349889 -19.438975
-21.567175 7.273349 -19.332292
-20.860148 7.484604 -18.438716
-21.312647 11.115004 -22.447427
-21.226741 10.145957 -21.397191
-21.455029 12.032211 -23.5154
-22.1113 10.912111 -23.446879
-21.312647 11.115004 -22.447427
-21.802532 14.669082 -26.675165
-21.695493 13.76686 -25.578886
-22.612181 14.54196 -27.776438
-21.802532 14.669082 -26.675165
-36.81712 -20.417696 -13.060334
-36.366245 -19.414251 -13.134308
-36.87764 -19.500056 -14.013256
-37.269943 -21.374561 -13.01738
-36.758549 -21.288756 -12.138431
-36.81712 -20.417696 -13.060334
-37.657627 -22.391226 -12.981686
-37.269943 -21.374561 -13.01738
-24.424186 -9.710367 -5.395143
-23.850033 -8.631683 -5.605625
-24.745603 -10.240224 -5.808061
-25.033895 -10.691128 -5.238328
-24.424186 -9.710367 -5.395143
-35.055576 -24.849707 -2.256839
-34.491747 -23.92665 -2.479478
-35.394182 -25.24812 -3.020069
-35.599241 -25.822477 -2.059692
-35.055576 -24.849707 -2.256839
-29.750833 -17.38458 -3.821738
-29.040095 -16.43134 -4.089352
-30.143456 -17.726931 -4.443746
-30.419687 -18.239239 -3.665053
-29.750833 -17.38458 -3.821738
-31.540602 2.508674 -25.518512
-31.382103 1.550815 -24.533459
-30.693289 2.318651 -24.563519
-31.715054 3.46902 -26.554352
-31.540602 2.508674 -25.518512
-31.871242 4.462709 -27.621221
-31.715054 3.46902 -26.554352
-31.007976 4.270199 -26.615443
-31.987637 5.497528 -28.740172
-31.871242 4.462709 -27.621221
-31.3473 6.29254 -28.881939
-31.987637 5.497528 -28.740172
-30.704374 7.192203 -29.137636
-31.3473 6.29254 -28.881939
-30.521237 6.163551 -27.938009
-30.044553 8.006577 -29.318846
-30.704374 7.192203 -29.137636
-26.209595 10.021631 -27.476773
-26.88863 9.163362 -27.352359
-26.037373 9.125381 -26.405825
-26.209595 10.021631 -27.476773
-25.442963 10.921567 -27.578398
-37.555262 -26.833911 -8.089727
-37.237152 -26.603132 -7.151649
-37.555262 -26.833911 -8.089727
-37.570502 -25.953207 -9.11441
-36.97101 -18.600942 -14.949863
-36.463172 -17.54327 -14.953466
-37.007418 -17.647602 -15.8161
-36.87764 -19.500056 -14.013256
-36.97101 -18.600942 -14.949863
-26.985056 -13.662266 -4.657332
-26.32828 -12.691309 -4.859327
-27.367863 -14.078745 -5.161264
-27.677697 -14.598247 -4.498166
-26.985056 -13.662266 -4.657332
-35.742859 -7.055207 -22.135684
-36.334888 -7.947997 -22.188981
-35.645825 -8.024961 -21.284559
-35.933882 -6.13475 -23.060434
-35.742859 -7.055207 -22.135684
-35.244818 -6.211716 -22.156013
-36.072133 -5.201782 -23.954364
-35.933882 -6.13475 -23.060434
-35.571573 -4.32145 -24.001413
-36.072133 -5.201782 -23.954364
-35.571573 -4.32145 -24.001413
-34.863987 -4.472335 -23.084423
-36.955494 -27.809493 -4.197819
-36.678968 -27.435889 -3.40397
-36.922325 -27.119143 -5.246708
-36.955494 -27.809493 -4.197819
-36.852718 -26.428311 -6.232596
-36.922325 -27.119143 -5.246708
-36.49757 -26.107032 -5.361984
-36.812397 -25.59102 -7.266925
-37.237152 -26.603132 -7.151649
-36.852718 -26.428311 -6.232596
-36.598918 -15.67458 -16.700558
-35.949907 -15.66197 -15.789205
-36.049245 -14.746619 -16.670061
-37.04281 -16.633445 -16.678283
-36.598918 -15.67458 -16.700558
-36.449737 -11.88412 -19.434211
-36.318741 -12.872492 -18.506583
-35.838569 -11.928031 -18.546771
-36.449737 -11.88412 -19.434211
-36.548482 -10.8732 -20.323863
-32.493653 -20.998134 -3.082777
-31.814808 -20.068421 -3.299674
-32.90382 -21.375583 -3.768309
-33.178063 -21.952748 -2.905342
-32.493653 -20.998134 -3.082777
-22.228153 -5.311098 -6.176852
-22.423172 -5.934009 -6.506438
-22.75435 -6.453857 -6.017696
-21.761594 -4.099337 -6.410334
-22.228153 -5.311098 -6.176852
-21.425381 -3.603252 -6.910311
-21.761594 -4.099337 -6.410334
-22.75435 -6.453857 -6.017696
-23.256771 -7.540335 -5.796828
-33.539829 -3.73705 -22.258653
-34.134733 -4.566045 -22.206525
-33.382429 -4.649684 -21.377095
-33.703125 -2.732623 -23.227906
-33.539829 -3.73705 -22.258653
-32.950821 -2.816261 -22.398475
-33.877358 -1.756571 -24.201763
-33.703125 -2.732623 -23.227906
-33.293042 -0.855419 -24.341392
-32.438603 -0.974158 -23.406263
-32.617528 -0.017743 -24.379925
-33.877358 -1.756571 -24.201763
-33.293042 -0.855419 -24.341392
-29.189858 7.778347 -28.237532
-29.017238 6.783222 -27.10038
-28.328785 7.498355 -27.144207
-30.044553 8.006577 -29.318846
-29.189858 7.778347 -28.237532
-27.608907 8.380295 -27.281385
-26.88863 9.163362 -27.352359
-21.9265 -4.842619 -7.602356
-22.179102 -5.383527 -7.054982
-21.644373 -4.250343 -7.212969
-21.779622 -4.279841 -8.207896
-22.314351 -5.413024 -8.049909
-21.9265 -4.842619 -7.602356
-21.623189 -3.728121 -8.791113
-21.779622 -4.279841 -8.207896
-21.500736 -3.021849 -9.454636
-22.04502 -4.143973 -9.318971
-21.623189 -3.728121 -8.791113
-21.399935 -2.365868 -10.113462
-21.500736 -3.021849 -9.454636
-21.37941 -1.653617 -10.843798
-21.902042 -2.725451 -10.71283
-21.399935 -2.365868 -10.113462
-21.330289 -0.91413 -11.561923
-21.37941 -1.653617 -10.843798
-21.382948 -0.206583 -12.320823
-21.934176 -1.305652 -12.202065
-21.330289 -0.91413 -11.561923
-21.439987 0.473361 -13.086706
-21.382948 -0.206583 -12.320823
-21.501492 1.288019 -13.906803
-22.048339 0.216554 -13.781062
-21.439987 0.473361 -13.086706
-21.506324 2.118585 -14.66911
-21.501492 1.288019 -13.906803
-21.638212 2.909904 -15.536604
-22.241732 1.822531 -15.468654
-21.506324 2.118585 -14.66911
-21.793799 3.662966 -16.44092
-21.638212 2.909904 -15.536604
-21.956902 4.543052 -17.416821
-22.536723 3.493938 -17.312049
-21.793799 3.662966 -16.44092
-21.311908 5.560072 -17.438862
-20.726282 6.76176 -17.562264
-22.054831 5.391044 -18.309991
-21.956902 4.543052 -17.416821
-21.311908 5.560072 -17.438862
-21.104538 9.217822 -20.374013
-21.017485 8.349889 -19.438975
-21.846715 9.066769 -21.355728
-21.104538 9.217822 -20.374013
-21.226741 10.145957 -21.397191
-21.568514 12.864268 -24.504646
-21.455029 12.032211 -23.5154
-22.38066 12.731911 -25.58909
-21.568514 12.864268 -24.504646
-21.695493 13.76686 -25.578886
-23.29824 13.63102 -27.7181
-24.013622 12.636768 -27.652457
-23.223022 12.640251 -26.597687
-23.29824 13.63102 -27.7181
-22.612181 14.54196 -27.776438
-37.582335 -23.259875 -12.008046
-37.559357 -24.173621 -11.012134
-37.188395 -23.159368 -11.099563
-37.582335 -23.259875 -12.008046
-37.657627 -22.391226 -12.981686
3 0 42 40
3 0 154 156
3 154 43 155
3 154 155 156
3 0 40 43
3 1 47 45
3 2 50 48
3 2 52 50
3 3 157 158
3 3 159 161
3 159 53 160
3 159 160 161
3 3 55 53
3 1 58 56
3 1 45 58
3 4 62 60
3 6 65 63
3 6 67 65
3 7 162 163
3 7 164 166
3 164 68 165
3 164 165 166
3 7 70 68
3 4 73 71
3 4 60 73
3 5 77 75
3 9 80 78
3 9 81 80
3 9 82 81
3 10 167 169
3 169 168 83
3 167 168 169
3 10 170 171
3 11 172 174
3 174 173 84
3 172 173 174
3 11 175 176
3 8 87 85
3 178 177 88
3 12 92 90
3 14 93 41
3 14 94 93
3 15 179 180
3 15 181 183
3 181 95 182
3 181 182 183
3 15 97 95
3 12 98 44
3 12 90 98
3 17 184 185
3 18 99 46
3 18 186 188
3 188 187 99
3 186 187 188
3 19 102 100
3 21 103 49
3 21 104 103
3 21 106 104
3 23 107 51
3 23 108 107
3 24 189 190
3 24 191 192
3 24 193 195
3 193 109 194
3 193 194 195
3 25 110 54
3 25 111 110
3 26 114 112
3 28 115 57
3 28 196 198
3 198 197 115
3 196 197 198
3 28 199 200
3 17 201 203
3 203 202 59
3 201 202 203
3 17 204 205
3 29 118 116
3 31 119 61
3 31 120 119
3 13 121 91
3 32 122 64
3 32 123 122
3 32 124 123
3 33 125 66
3 33 126 125
3 34 206 207
3 34 208 210
3 208 127 209
3 208 209 210
3 34 129 127
3 36 130 69
3 36 131 130
3 16 132 96
3 37 133 72
3 37 134 133
3 37 135 134
3 29 136 74
3 29 116 136
3 30 138 117
3 38 139 76
3 38 140 139
3 20 141 101
3 211 142 212
3 213 212 79
3 211 212 213
3 215 214 142
3 22 216 218
3 218 217 105
3 216 217 218
3 220 219 137
3 221 143 222
3 223 144 224
3 225 224 143
3 223 224 225
3 226 145 227
3 228 146 229
3 230 229 145
3 228 229 230
3 231 147 232
3 234 233 147
3 35 148 128
3 39 149 86
3 39 150 149
3 27 151 113
3 235 152 236
3 237 236 89
3 235 236 237
3 238 153 239
3 240 239 152
3 238 239 240
3 242 241 153
3 40 41 12
3 42 41 40
3 42 14 41
3 43 243 244
3 43 245 247
3 245 15 246
3 245 246 247
3 43 44 15
3 40 44 43
3 40 12 44
3 45 46 17
3 47 46 45
3 47 18 46
3 48 49 19
3 50 49 48
3 50 21 49
3 50 51 21
3 52 51 50
3 52 23 51
3 53 248 249
3 53 250 252
3 250 24 251
3 250 251 252
3 53 54 24
3 55 54 53
3 55 25 54
3 56 57 26
3 58 57 56
3 58 28 57
3 58 59 28
3 45 59 58
3 45 17 59
3 60 61 29
3 62 61 60
3 62 31 61
3 63 64 13
3 65 64 63
3 65 32 64
3 65 66 32
3 67 66 65
3 67 33 66
3 68 253 254
3 68 255 257
3 255 34 256
3 255 256 257
3 68 69 34
3 70 69 68
3 70 36 69
3 71 72 16
3 73 72 71
3 73 37 72
3 73 74 37
3 60 74 73
3 60 29 74
3 75 76 30
3 77 76 75
3 77 38 76
3 78 79 20
3 80 79 78
3 80 258 260
3 260 259 79
3 258 259 260
3 80 261 262
3 81 263 265
3 265 264 80
3 263 264 265
3 81 266 267
3 81 268 269
3 82 270 272
3 272 271 81
3 270 271 272
3 82 273 274
3 83 275 277
3 277 276 22
3 275 276 277
3 279 278 83
3 84 280 281
3 283 282 84
3 85 86 35
3 87 86 85
3 87 39 86
3 88 89 27
3 284 89 285
3 286 285 88
3 284 285 286
3 288 287 89
3 90 91 4
3 92 91 90
3 92 13 91
3 41 92 12
3 93 92 41
3 93 13 92
3 93 63 13
3 94 63 93
3 94 6 63
3 95 289 290
3 95 291 293
3 291 7 292
3 291 292 293
3 95 96 7
3 97 96 95
3 97 16 96
3 44 97 15
3 98 97 44
3 98 16 97
3 98 71 16
3 90 71 98
3 90 4 71
3 46 294 296
3 296 295 17
3 294 295 296
3 99 297 299
3 299 298 46
3 297 298 299
3 99 300 301
3 99 302 303
3 305 304 99
3 100 101 5
3 102 101 100
3 102 20 101
3 49 102 19
3 103 102 49
3 103 20 102
3 103 78 20
3 104 78 103
3 104 9 78
3 104 105 9
3 106 105 104
3 106 22 105
3 51 106 21
3 107 106 51
3 107 22 106
3 107 83 22
3 108 83 107
3 108 10 83
3 109 306 307
3 109 308 309
3 54 109 24
3 110 109 54
3 110 310 312
3 312 311 109
3 310 311 312
3 110 313 315
3 313 84 314
3 313 314 315
3 111 84 110
3 111 11 84
3 112 113 8
3 114 113 112
3 114 27 113
3 57 114 26
3 115 114 57
3 115 27 114
3 115 88 27
3 316 88 317
3 318 317 115
3 316 317 318
3 320 319 88
3 59 321 323
3 323 322 28
3 321 322 323
3 325 324 59
3 116 117 1
3 118 117 116
3 118 30 117
3 61 118 29
3 119 118 61
3 119 30 118
3 119 75 30
3 120 75 119
3 120 5 75
3 91 62 4
3 121 62 91
3 121 31 62
3 64 121 13
3 122 121 64
3 122 31 121
3 122 120 31
3 123 120 122
3 123 5 120
3 123 100 5
3 124 100 123
3 124 19 100
3 66 124 32
3 125 124 66
3 125 19 124
3 125 48 19
3 126 48 125
3 126 2 48
3 127 326 327
3 127 328 330
3 328 3 329
3 328 329 330
3 127 128 3
3 129 128 127
3 129 35 128
3 69 129 34
3 130 129 69
3 130 35 129
3 130 85 35
3 131 85 130
3 131 8 85
3 96 70 7
3 132 70 96
3 132 36 70
3 72 132 16
3 133 132 72
3 133 36 132
3 133 131 36
3 134 131 133
3 134 8 131
3 134 112 8
3 135 112 134
3 135 26 112
3 74 135 37
3 136 135 74
3 136 26 135
3 136 56 26
3 116 56 136
3 116 1 56
3 331 137 332
3 333 332 0
3 331 332 333
3 334 137 335
3 337 336 137
3 338 0 339
3 117 47 1
3 138 47 117
3 138 18 47
3 76 138 30
3 139 138 76
3 139 18 138
3 139 340 342
3 342 341 18
3 340 341 342
3 140 343 345
3 345 344 139
3 343 344 345
3 140 346 347
3 101 77 5
3 141 77 101
3 141 38 77
3 79 141 20
3 142 141 79
3 142 38 141
3 142 140 38
3 348 140 349
3 350 349 142
3 348 349 350
3 352 351 140
3 105 82 9
3 353 82 354
3 355 354 105
3 353 354 355
3 357 356 82
3 359 358 22
3 137 42 0
3 360 42 361
3 362 361 137
3 360 361 362
3 363 14 364
3 365 364 42
3 363 364 365
3 366 14 367
3 368 94 369
3 370 369 14
3 368 369 370
3 371 94 372
3 373 6 374
3 375 374 94
3 373 374 375
3 376 6 377
3 378 67 379
3 380 379 6
3 378 379 380
3 381 67 382
3 383 33 384
3 385 384 67
3 383 384 385
3 386 33 387
3 388 126 389
3 390 389 33
3 388 389 390
3 391 126 392
3 393 2 394
3 395 394 126
3 393 394 395
3 143 396 397
3 143 398 400
3 398 2 399
3 398 399 400
3 143 52 2
3 144 52 143
3 144 23 52
3 401 144 402
3 145 403 405
3 403 144 404
3 403 404 405
3 145 23 144
3 145 108 23
3 146 108 145
3 146 10 108
3 406 146 407
3 147 408 410
3 408 146 409
3 408 409 410
3 147 10 146
3 147 411 413
3 413 412 10
3 411 412 413
3 415 414 147
3 128 55 3
3 148 55 128
3 148 25 55
3 86 148 35
3 149 148 86
3 149 25 148
3 149 111 25
3 150 111 149
3 150 11 111
3 113 87 8
3 151 87 113
3 151 39 87
3 89 151 27
3 152 151 89
3 152 39 151
3 152 150 39
3 153 150 152
3 153 11 150
3 153 416 418
3 418 417 11
3 416 417 418
3 420 419 153
