ply
format ascii 1.0
element vertex 893
property float x
property float y
property float z
element face 1156
property list uchar int vertex_index
end_header
24.92609 -100.037758 -20.229496
9.49479 -92.019287 -38.589031
21.678465 -61.216187 -22.449066
24.818962 -79.691856 -13.258354
18.45204 -103.946091 -3.958584
21.036343 -80.659645 -29.918488
23.400646 -51.765026 -18.603907
22.637928 -62.316193 -15.783028
26.487488 -90.444237 -15.990846
24.322453 -82.119453 -21.67474
23.773378 -92.018265 -26.208733
18.276472 -105.967598 -24.5306
18.892061 -98.976685 -30.916515
9.72654 -101.70636 -34.078468
-0.520756 -91.619301 -39.965099
20.639816 -48.63665 -25.30826
18.739723 -57.543106 -29.198486
23.079554 -69.604469 -11.6112
24.847425 -74.550476 -4.774733
26.631023 -85.29509 -5.963315
26.934315 -95.853271 -8.393005
24.624594 -98.461449 0.070719
23.142195 -104.366394 -12.520055
14.941969 -107.783859 -16.144697
22.973444 -71.862831 -18.526463
21.651636 -70.981628 -25.821669
17.252338 -88.233322 -34.59193
23.457077 -57.933525 -13.914347
22.974499 -61.984226 -12.706267
26.274145 -95.402832 -17.99958
25.596479 -91.889832 -21.205015
24.640099 -96.555099 -23.492872
13.528371 -106.939674 -25.92083
14.586184 -104.587967 -29.646275
9.205939 -104.803146 -30.733791
-0.573233 -96.072983 -37.362751
22.236986 -56.401718 -20.641214
22.289967 -50.241726 -21.904734
21.134211 -54.892719 -24.017714
19.476191 -53.069351 -27.375044
20.544273 -59.824017 -25.824524
27.026905 -87.196182 -1.725302
27.163862 -90.702621 -7.055215
27.058867 -92.673782 -2.755681
19.342726 -100.674713 2.303876
22.052872 -101.780922 -1.9054
24.234276 -101.702904 -6.162905
21.167955 -104.700188 -8.145055
19.496836 -106.79863 -14.569916
17.028271 -106.424858 -10.203042
23.785191 -74.527031 -12.193254
23.01053 -71.058464 -14.940533
23.841936 -76.165886 -16.041286
23.17131 -82.189667 -25.923258
23.034094 -77.107491 -23.987877
21.636419 -76.181923 -27.824862
19.932846 -69.351608 -29.514053
19.293419 -73.820496 -31.444805
14.579705 -96.274445 -35.10228
18.143841 -93.998917 -33.185284
13.813268 -90.627289 -36.811958
22.952147 -57.362556 -17.185793
22.295982 -61.916527 -19.107161
14.259993 -104.842834 -5.923816
25.891626 -85.159317 -14.361892
24.79644 -81.357147 -17.443401
25.498833 -86.598953 -19.195702
24.453213 -87.295349 -23.877806
22.505613 -86.552544 -28.261347
4.165641 -86.246147 -41.361771
8.71762 -85.589378 -39.954773
22.277687 -103.571602 -22.544117
22.422377 -100.465149 -25.781202
19.093189 -103.11158 -27.829737
14.676105 -100.97435 -32.834839
9.903337 -97.442581 -36.644398
4.475083 -101.046852 -34.621716
4.850385 -97.174904 -37.524044
4.762329 -92.296753 -39.678894
-0.823787 -86.014946 -42.043507
18.337561 -46.316967 -28.834953
17.258169 -50.660244 -30.653603
16.378572 -54.726231 -32.434322
22.976645 -65.243835 -10.817216
23.482004 -67.64077 -8.117467
23.874666 -72.334259 -8.446026
24.722569 -77.336357 -9.134855
25.724329 -79.940361 -5.375464
25.792233 -82.600449 -9.825167
26.707603 -88.163063 -11.018839
26.991951 -93.527588 -12.454642
26.320213 -98.535095 -14.314841
26.295786 -94.003693 1.615647
26.165855 -97.614792 -4.314251
25.665848 -100.558197 -10.154267
24.42108 -102.791206 -16.447166
21.233299 -105.860313 -18.66185
16.937471 -107.568161 -20.446619
11.904139 -107.84864 -22.002497
12.322142 -106.703316 -11.825753
9.54961 -107.3647 -17.382526
22.672415 -66.352478 -13.902068
22.536127 -66.991173 -17.153362
22.274584 -67.03492 -20.700199
23.684824 -76.913788 -19.951464
22.627277 -72.012764 -22.16721
21.553137 -65.976151 -24.119213
20.265797 -64.835007 -27.601389
18.25127 -62.401558 -30.920311
21.933172 -96.032173 -28.613262
20.886423 -90.688004 -30.78466
19.503742 -84.721771 -32.366146
12.844696 -84.257057 -37.918404
23.366957 -60.128235 -11.846946
23.177967 -61.780106 -11.236647
25.77878 -97.833405 -19.022995
25.588938 -96.102707 -20.803358
24.935934 -98.263878 -21.820751
10.813178 -106.864502 -26.553596
11.427529 -106.036369 -28.50857
8.706732 -105.822113 -28.856512
21.880541 -58.955822 -21.582985
21.759766 -55.810242 -22.289986
21.386349 -58.164059 -23.314629
20.767397 -57.406273 -24.99218
21.196968 -60.445435 -24.081841
27.139688 -90.079353 -2.124676
27.002197 -90.998825 0.08448
18.827227 -102.407028 -0.798046
20.710011 -101.384636 0.22722
20.254152 -102.991234 -2.767775
21.687775 -103.301338 -4.961048
19.922195 -104.413567 -5.92662
19.287006 -105.742355 -9.257984
17.887228 -105.275253 -7.047871
24.255747 -76.990784 -12.745765
23.779856 -75.282082 -14.137389
24.314659 -77.987106 -14.773687
22.200224 -81.398354 -27.982996
22.446014 -79.288651 -26.878159
21.443928 -78.399216 -28.803223
20.555534 -75.162918 -29.707296
20.186842 -77.435219 -30.719343
12.106048 -94.41848 -36.916595
14.075429 -93.456818 -36.158997
11.801255 -91.563698 -37.727577
22.956499 -60.135403 -14.866322
23.223579 -57.65554 -15.511898
22.776293 -59.869919 -16.436302
22.540543 -59.634197 -18.15189
22.483257 -62.184807 -17.453663
26.256819 -87.833664 -15.236049
25.758171 -85.94075 -16.741385
26.05024 -88.586464 -17.584772
24.819696 -92.006485 -23.725983
25.107235 -89.637054 -22.48848
24.285315 -89.647827 -24.907574
23.597586 -87.086685 -26.113365
23.187029 -89.526337 -27.297705
20.431604 -104.984276 -23.481007
20.734703 -103.627914 -25.213091
18.623301 -104.671608 -26.434956
12.353367 -103.371925 -31.928507
14.672652 -102.852257 -31.416559
12.271796 -101.504158 -33.551876
12.226271 -99.25325 -34.971485
9.905636 -99.776924 -35.409241
-0.42621 -94.079094 -38.701927
2.10867 -96.680313 -37.612022
2.14809 -94.52726 -38.843281
4.862638 -94.820648 -38.697739
2.033328 -92.031097 -39.963215
1.981451 -89.233543 -40.957081
-0.516142 -88.956726 -41.073612
21.517502 -49.343334 -23.64967
21.335327 -46.282696 -24.351988
20.332556 -45.358818 -26.004982
19.144764 -44.262833 -27.73498
19.565653 -47.380318 -27.07501
19.145056 -55.430168 -28.188227
18.397444 -51.849964 -29.069744
18.077032 -54.276741 -29.840096
16.916779 -53.01136 -31.425356
17.667986 -56.526627 -30.803358
24.040312 -71.059502 -6.577785
24.347418 -73.558434 -6.766995
24.253269 -74.808784 -8.765543
24.723906 -75.919601 -7.03142
26.532558 -83.583504 -3.498438
26.176357 -82.481491 -5.580122
25.7642 -81.430748 -7.64863
26.260563 -83.990944 -7.807304
26.312401 -85.363281 -10.275331
26.678411 -86.687164 -8.497791
27.162439 -93.310249 -7.789117
27.127131 -92.087715 -9.596391
27.04854 -94.785172 -10.381851
26.797827 -96.099472 -13.346253
26.752047 -97.100227 -11.267365
25.571447 -96.328346 1.015232
26.247904 -95.871208 -1.175417
25.536695 -97.980087 -1.934592
23.734009 -103.188828 -9.287918
25.043999 -101.222252 -8.113061
24.541506 -102.64785 -11.375639
25.183088 -101.762085 -13.319915
23.931252 -103.660934 -14.399288
23.006205 -104.487144 -17.447533
22.433266 -105.173286 -15.510783
17.310493 -107.468399 -15.398019
18.415262 -107.327644 -17.437475
16.044741 -107.845985 -18.464344
14.37619 -107.895363 -21.248823
13.42686 -107.992859 -19.013405
13.304401 -105.862999 -8.799057
8.121883 -107.274323 -20.124725
22.962181 -67.42173 -11.192253
22.785126 -65.876648 -12.404061
22.829357 -68.121658 -12.884032
22.994762 -71.477303 -16.759771
22.749258 -69.250977 -16.155132
22.685596 -69.285141 -17.883476
22.422615 -66.839958 -18.945271
22.610788 -69.46579 -19.546381
24.646191 -81.977905 -19.592815
24.236 -79.307182 -18.96134
24.035446 -79.525429 -20.840357
22.349369 -74.245453 -24.971119
22.820606 -74.555046 -23.137064
22.252926 -71.824875 -23.977264
22.096279 -69.123871 -23.136951
21.619335 -68.585159 -24.901207
20.947493 -65.359962 -25.954071
20.955416 -67.951385 -26.764933
18.794392 -68.139534 -31.178839
19.138132 -66.012291 -30.191189
17.959534 -64.593384 -31.777885
20.750521 -99.855156 -28.508131
22.35165 -98.340294 -27.162373
20.586288 -97.644356 -29.752237
17.760523 -91.137077 -33.945873
19.698177 -92.53231 -31.953432
19.155113 -89.58297 -32.772057
20.358459 -87.921387 -31.480829
18.563049 -86.624626 -33.426643
8.310672 -82.360535 -40.418266
10.970663 -85.010719 -38.942871
10.376194 -81.530396 -39.447105
23.179291 -60.051247 -13.277062
22.800505 -62.255161 -14.134405
26.477417 -92.897148 -17.07659
26.111721 -91.18853 -18.731955
25.981268 -93.780464 -19.729366
25.279114 -94.225632 -22.286333
24.331425 -94.36721 -24.793861
16.027714 -106.562744 -25.414045
16.425116 -105.468903 -27.246523
13.95665 -105.944893 -27.936756
11.883516 -104.849754 -30.338013
9.572403 -103.416359 -32.48661
-2.973127 -90.949799 -39.777489
-3.11145 -88.358376 -40.987804
22.766785 -54.02755 -19.568815
22.897108 -51.002113 -20.268705
22.250095 -53.418587 -21.287924
21.642296 -52.532997 -22.98414
20.90201 -51.796303 -24.649797
19.986969 -50.811054 -26.382225
20.383471 -54.18354 -25.695969
20.024824 -56.528774 -26.60984
19.742449 -58.883099 -27.501011
26.895561 -86.396889 -3.860899
26.962374 -87.95137 -6.546398
27.126305 -89.107498 -4.306539
27.188408 -91.813026 -5.017727
27.027109 -94.42112 -5.610729
22.242458 -100.095047 1.229018
23.508297 -100.172668 -0.812577
24.54723 -100.052689 -3.000256
23.286032 -101.731056 -3.791811
22.904221 -103.242096 -6.956967
22.284239 -104.642845 -10.274902
21.422829 -105.772491 -13.576972
20.497671 -105.875801 -11.390107
18.386219 -106.750832 -12.320333
16.066742 -107.24939 -13.173309
23.369423 -71.996368 -11.843823
23.025728 -70.452995 -13.304033
23.356945 -72.821869 -13.599148
23.373747 -73.548676 -15.503492
23.392805 -74.139633 -17.323059
23.827129 -82.248169 -23.88983
23.689411 -79.701042 -22.909239
23.129898 -79.455345 -24.970608
22.432802 -76.75029 -25.944645
21.699568 -73.621979 -26.770357
20.88813 -70.281097 -27.716372
20.837076 -72.731453 -28.57575
19.763641 -71.83403 -30.363121
18.372461 -70.256142 -32.14423
16.669634 -97.890305 -33.187286
18.52389 -96.644463 -32.170563
16.43347 -95.193832 -34.247803
16.12274 -92.543304 -35.033203
15.693545 -89.600632 -35.711399
23.88727 -52.299625 -16.80759
23.86274 -55.37154 -14.50018
23.5495 -55.040203 -16.135334
23.186405 -54.625473 -17.840336
22.643188 -56.737835 -18.936117
22.262434 -59.287651 -19.842857
22.028135 -61.669128 -20.825319
17.464678 -101.389 1.416432
17.032303 -103.090042 -1.839478
16.42178 -104.575439 -5.03845
14.933629 -103.441696 -2.728243
25.385006 -82.446083 -13.836744
24.879379 -80.742195 -15.280395
25.359591 -83.363365 -15.988868
25.191723 -83.933449 -18.254292
24.947195 -84.596085 -20.477362
25.684935 -89.328575 -20.071075
25.124239 -87.19249 -21.448473
24.471474 -84.773056 -22.745085
23.814219 -84.750809 -24.946613
22.931929 -84.334648 -27.057812
21.768465 -83.598663 -29.152685
6.85334 -89.269562 -40.059319
9.241844 -89.079773 -39.27412
6.591212 -86.123589 -40.696289
23.796885 -102.05513 -21.159481
23.879354 -100.399162 -22.955843
22.501827 -102.089134 -24.149933
20.865332 -101.896362 -26.907009
19.074936 -101.285568 -29.398853
16.819601 -103.935768 -28.989017
17.087143 -102.220505 -30.405256
17.01005 -100.263794 -31.79397
14.693469 -98.86647 -34.002487
12.369174 -97.034393 -35.926708
9.79179 -94.875702 -37.673786
6.961601 -103.194847 -32.719872
7.159545 -101.551613 -34.432056
2.066098 -98.645241 -36.185349
4.75334 -99.242828 -36.186031
7.32696 -99.615738 -35.932053
7.451573 -97.437386 -37.179874
7.428234 -95.081421 -38.231319
7.10275 -92.290977 -39.241299
4.423502 -89.289993 -40.627422
1.706067 -86.387085 -41.772945
17.156937 -45.125889 -30.3629
18.906071 -49.640392 -28.1276
17.759203 -48.494991 -29.747595
16.473492 -47.012867 -31.381731
15.991785 -49.131744 -32.238316
15.551397 -51.215469 -33.086987
23.142921 -63.137932 -10.427353
23.277359 -64.172218 -9.296519
23.187765 -66.468689 -9.515725
23.249338 -68.804237 -9.798018
23.602764 -69.868744 -8.255421
23.451944 -71.060791 -10.032616
23.808937 -73.607468 -10.363334
24.27257 -76.097084 -10.665072
24.784079 -78.682365 -11.173794
25.256466 -77.283737 -5.13819
25.235527 -78.676849 -7.304607
25.265337 -80.00486 -9.424381
25.306534 -81.199303 -11.668547
25.852554 -83.869362 -12.120321
26.337124 -86.743469 -12.783817
26.65601 -89.435318 -13.504561
26.98752 -89.356857 -8.984128
26.954466 -90.819214 -11.504936
26.798281 -92.006508 -14.297077
26.731493 -94.523392 -15.17169
26.386234 -97.052277 -16.242144
25.774025 -99.399857 -17.144178
26.74749 -93.399796 -0.384517
26.733213 -95.1558 -3.282437
26.637119 -96.874474 -6.46164
25.299795 -99.779839 -5.046141
25.965693 -99.175934 -7.179214
26.455929 -98.28186 -9.258206
26.146322 -99.507339 -12.164742
25.544622 -100.791 -15.200022
24.821405 -101.476311 -18.31216
23.440439 -103.458214 -19.440237
21.866934 -104.903526 -20.552517
19.904066 -106.070992 -21.734905
20.569849 -106.426666 -16.545891
19.268938 -106.883797 -19.464859
17.777386 -106.945442 -22.409737
15.389393 -107.419662 -23.281807
12.84868 -107.548241 -24.030035
10.078869 -107.341171 -24.568773
15.670832 -105.798248 -8.123006
14.698797 -106.734512 -11.087778
13.546637 -107.389473 -13.99631
10.937304 -107.192818 -14.754261
12.207331 -107.740791 -16.830616
10.821257 -107.798737 -19.682859
9.196856 -107.49865 -22.277464
22.905054 -63.702923 -11.866806
22.74095 -64.13974 -13.304108
22.608961 -64.471901 -14.905592
22.762991 -68.611504 -14.490761
22.595652 -66.713501 -15.548032
22.502085 -64.47168 -16.554726
22.38938 -64.559486 -18.143795
22.220098 -64.348541 -19.86335
21.963045 -64.051598 -21.558155
24.324558 -78.733459 -16.800289
23.841221 -76.802422 -18.017645
23.309227 -74.348724 -19.263735
23.419891 -77.0495 -22.028513
23.147339 -74.629135 -21.235176
22.841238 -71.91671 -20.420378
22.410927 -69.385307 -21.413363
21.974867 -66.4216 -22.380699
21.573425 -63.47839 -23.282867
21.061031 -62.961296 -24.969612
20.347925 -62.205681 -26.755219
19.522537 -61.241806 -28.390268
20.096495 -66.996529 -28.57312
19.375645 -63.795258 -29.241579
18.563292 -60.185192 -29.968857
17.342272 -58.575344 -31.637726
23.744007 -98.67025 -24.539373
23.402798 -96.584869 -26.133774
23.055128 -94.144424 -27.335508
20.121916 -95.193756 -31.021931
21.447741 -93.571518 -29.784519
22.427111 -91.565109 -28.615395
21.87327 -88.848869 -29.47452
21.110649 -85.871101 -30.406586
20.326231 -82.730484 -31.202255
11.229692 -88.307396 -38.50069
13.385438 -87.629906 -37.391388
15.112394 -86.497345 -36.323627
12.087263 -80.644897 -38.478718
14.424596 -83.097122 -36.891537
16.539288 -85.125084 -35.252239
19.656528 -79.544533 -31.745554
23.280775 -61.678645 -10.662624
23.390645 -60.930498 -10.832397
8.38757 -106.159439 -27.859727
9.759955 -106.343308 -27.705054
9.440793 -106.680633 -26.708269
26.973558 -90.011238 1.387509
27.03321 -89.663444 0.244388
23.577675 -50.154194 -18.839475
23.849176 -50.587806 -17.950221
24.597422 -74.054455 -5.770864
24.431348 -72.830082 -5.76078
24.681351 -73.326103 -4.764649
24.705406 -97.502518 1.553455
24.149949 -98.418442 1.167666
25.09802 -97.394897 0.542975
25.178833 -96.435967 2.025711
24.705406 -97.502518 1.553455
17.700135 -65.581353 -32.294075
18.376963 -66.366459 -31.478362
18.117563 -67.354427 -31.994552
17.244905 -63.85672 -32.627519
17.700135 -65.581353 -32.294075
9.115642 -80.270447 -40.138962
9.343433 -81.945465 -39.932686
8.08288 -80.685517 -40.624542
-4.27588 -90.478836 -39.563483
-2.986632 -92.060162 -39.118622
-4.332085 -89.251511 -40.219614
-4.27588 -90.478836 -39.563483
26.910497 -85.868424 -1.481515
26.987799 -86.378246 -0.480083
26.961233 -86.796536 -2.7931
26.844825 -85.468777 -2.549314
26.910497 -85.868424 -1.481515
20.168045 -100.081433 2.906675
19.494519 -99.701179 3.936211
24.104493 -52.496384 -15.917676
24.345643 -51.125743 -16.158347
23.659909 -56.652533 -14.207263
23.992124 -55.551026 -13.708687
23.789293 -56.832018 -13.415771
16.455599 -101.661838 0.851711
16.659132 -100.83456 2.357039
16.239411 -102.51236 -0.776244
17.24849 -102.239521 -0.211523
16.455599 -101.661838 0.851711
15.190074 -102.688187 -1.220627
15.982966 -103.265869 -2.28386
16.239411 -102.51236 -0.776244
5.718342 -102.120849 -33.670794
5.571407 -102.842781 -32.821623
4.328148 -101.768783 -33.772545
0.746433 -97.359112 -36.77405
0.649946 -98.18528 -36.061585
-0.66972 -96.899151 -36.650286
-0.911717 -84.507831 -42.444925
0.35321 -84.693901 -42.309645
0.44114 -86.201015 -41.908226
-3.2008 -86.95467 -41.525695
-4.395231 -86.677044 -41.413705
22.684293 -48.989345 -21.379401
22.987863 -49.369539 -20.561386
22.593538 -50.62192 -21.08672
18.133766 -44.637298 -29.080818
18.537367 -43.610231 -28.530831
18.741163 -45.2899 -28.284966
17.747249 -45.721428 -29.598926
17.543453 -44.041759 -29.844791
18.133766 -44.637298 -29.080818
15.697426 -53.975172 -33.243424
15.283839 -52.219791 -33.569756
15.964984 -52.97085 -32.760655
23.495382 -63.646849 -8.502948
23.395209 -63.186533 -9.174133
23.334885 -67.05473 -8.816596
23.34952 -65.91803 -8.723621
23.49664 -66.504071 -8.024492
25.724552 -79.150757 -4.246601
25.919571 -80.393417 -4.340582
25.490398 -78.612049 -5.256827
25.49062 -77.822445 -4.127965
25.724552 -79.150757 -4.246601
26.273786 -93.059296 3.075645
25.959409 -94.210946 2.752476
26.508045 -92.767781 1.990569
26.273786 -93.059296 3.075645
26.521638 -93.701744 0.615565
26.733897 -92.465832 0.990487
26.508045 -92.767781 1.990569
10.243457 -107.278759 -16.068393
9.664502 -106.918362 -14.916052
8.970655 -107.004303 -16.230185
7.76508 -107.138443 -22.468993
8.65937 -107.386486 -21.201094
7.227593 -107.02628 -21.392623
8.247373 -107.159005 -23.525951
7.76508 -107.138443 -22.468993
11.76092 -78.842254 -38.6969
10.803611 -79.201595 -39.2533
15.089079 -82.334442 -36.374667
14.04733 -81.308792 -37.157353
16.146425 -83.348423 -35.555018
15.481942 -84.111103 -36.071888
15.089079 -82.334442 -36.374667
17.149573 -84.258259 -34.692747
16.146425 -83.348423 -35.555018
18.780524 -78.841949 -32.705285
19.190662 -80.444394 -32.385972
19.150326 -77.74815 -32.171601
18.780524 -78.841949 -32.705285
23.48514 -60.104563 -11.137547
23.649677 -59.171413 -11.367374
23.272462 -60.954171 -11.541797
23.48514 -60.104563 -11.137547
23.390645 -60.930498 -10.832397
27.045564 -87.762123 -0.660503
26.987799 -86.378246 -0.480083
27.101956 -89.203709 -0.86019
27.083296 -88.637767 -1.924989
27.045564 -87.762123 -0.660503
27.070943 -90.539089 -1.020098
27.101956 -89.203709 -0.86019
27.03321 -89.663444 0.244388
4.048015 -84.721771 -41.646688
2.821025 -84.806789 -41.911976
3.051074 -100.628506 -34.60113
4.328148 -101.768783 -33.772545
21.882133 -48.243433 -23.135814
22.268365 -48.692629 -22.263346
21.903734 -49.79253 -22.777202
21.791045 -46.713114 -23.486973
21.882133 -48.243433 -23.135814
21.426414 -47.813015 -24.000829
21.790807 -45.136894 -23.784354
21.791045 -46.713114 -23.486973
21.249339 -44.725584 -24.674795
21.704819 -43.579783 -24.10716
21.790807 -45.136894 -23.784354
20.747954 -44.263645 -25.501292
21.249339 -44.725584 -24.674795
20.833942 -45.820757 -25.178485
20.176806 -43.737215 -26.343132
20.747954 -44.263645 -25.501292
19.73866 -44.810825 -26.869981
19.582909 -43.189222 -27.208131
20.176806 -43.737215 -26.343132
23.670338 -66.923191 -7.209158
23.49664 -66.504071 -8.024492
24.277795 -71.580616 -5.666175
24.182344 -70.3447 -5.583331
24.193865 -72.308968 -6.67239
24.277795 -71.580616 -5.666175
24.431348 -72.830082 -5.76078
26.323686 -82.214989 -3.402069
26.505709 -82.738919 -2.288825
26.145585 -81.663983 -4.442911
26.323686 -82.214989 -3.402069
26.354458 -83.032498 -4.53928
25.950343 -81.210926 -5.477793
25.919571 -80.393417 -4.340582
26.145585 -81.663983 -4.442911
25.59724 -95.373272 2.452268
25.178833 -96.435967 2.025711
25.933616 -95.16602 1.31544
25.959409 -94.210946 2.752476
25.59724 -95.373272 2.452268
12.586824 -105.316883 -7.733299
13.782197 -105.352916 -7.361436
13.064619 -104.806801 -6.295678
12.078701 -105.761657 -9.15775
12.586824 -105.316883 -7.733299
11.587571 -106.181816 -10.671098
12.813271 -106.283158 -10.312405
12.078701 -105.761657 -9.15775
8.270793 -107.045009 -17.614008
8.970655 -107.004303 -16.230185
7.55693 -106.999821 -18.985108
8.835746 -107.319512 -18.753625
8.270793 -107.045009 -17.614008
6.750964 -106.852531 -20.226517
7.55693 -106.999821 -18.985108
7.227593 -107.02628 -21.392623
6.750964 -106.852531 -20.226517
17.466909 -62.747971 -32.166488
17.612777 -61.652057 -31.737702
18.105402 -63.497471 -31.349098
17.466909 -62.747971 -32.166488
17.244905 -63.85672 -32.627519
23.59039 -57.949892 -13.131611
23.789293 -56.832018 -13.415771
23.54533 -59.047247 -12.097911
23.649677 -59.171413 -11.367374
23.451497 -59.008753 -12.812969
23.54533 -59.047247 -12.097911
23.273124 -60.089741 -12.562004
23.318184 -58.992386 -13.595705
23.59039 -57.949892 -13.131611
23.451497 -59.008753 -12.812969
-1.888012 -95.578789 -37.167271
-0.66972 -96.899151 -36.650286
-1.786685 -94.621754 -37.911253
-1.888012 -95.578789 -37.167271
-1.713173 -93.624809 -38.580841
-0.499721 -95.076038 -38.032339
-1.786685 -94.621754 -37.911253
-1.699669 -92.514446 -39.239708
-1.713173 -93.624809 -38.580841
-2.986632 -92.060162 -39.118622
-4.401247 -87.9558 -40.824771
-3.042288 -89.654088 -40.382646
-4.332085 -89.251511 -40.219614
-4.395231 -86.677044 -41.413705
-4.401247 -87.9558 -40.824771
24.926888 -73.720516 -3.721767
24.681351 -73.326103 -4.764649
26.663323 -84.062084 -2.368084
26.505709 -82.738919 -2.288825
26.71406 -84.990196 -3.679669
26.663323 -84.062084 -2.368084
26.844825 -85.468777 -2.549314
20.851688 -100.436394 1.868348
20.168045 -100.081433 2.906675
20.026369 -101.029674 1.265548
21.617911 -99.791599 2.369247
20.851688 -100.436394 1.868348
21.476235 -100.739841 0.728119
22.379751 -99.128223 2.787219
21.617911 -99.791599 2.369247
22.95888 -99.235241 1.746816
22.379751 -99.128223 2.787219
23.5918 -99.274051 0.726018
22.95888 -99.235241 1.746816
22.875377 -100.133858 0.20822
24.066446 -99.317059 -0.370929
24.149949 -98.418442 1.167666
23.5918 -99.274051 0.726018
17.906598 -68.412732 -32.477248
18.117563 -67.354427 -31.994552
18.583427 -69.197838 -31.661535
24.092488 -50.855106 -17.052062
24.345643 -51.125743 -16.158347
23.643958 -52.032325 -17.705748
23.849176 -50.587806 -17.950221
24.092488 -50.855106 -17.052062
24.266038 -54.229754 -13.923825
23.992124 -55.551026 -13.708687
24.092228 -54.032341 -14.76397
24.266038 -54.229754 -13.923825
23.935608 -53.866672 -15.581547
24.092228 -54.032341 -14.76397
23.70612 -55.205872 -15.317757
23.718385 -53.669914 -16.471462
24.104493 -52.496384 -15.917676
23.935608 -53.866672 -15.581547
18.578506 -100.183639 3.337346
19.494519 -99.701179 3.936211
17.639482 -100.540783 2.893624
16.659132 -100.83456 2.357039
18.403702 -101.031857 1.860154
18.578506 -100.183639 3.337346
17.639482 -100.540783 2.893624
14.091333 -102.787662 -1.703887
15.190074 -102.688187 -1.220627
13.797027 -103.527641 -3.253735
14.091333 -102.787662 -1.703887
13.460209 -104.22821 -4.851521
14.596811 -104.142265 -4.32603
13.797027 -103.527641 -3.253735
13.064619 -104.806801 -6.295678
13.460209 -104.22821 -4.851521
5.260801 -84.660492 -41.313947
5.378426 -86.184868 -41.02903
4.048015 -84.721771 -41.646688
6.342363 -84.405293 -40.997456
5.260801 -84.660492 -41.313947
7.405567 -84.138187 -40.626698
7.654416 -85.856483 -40.325531
6.342363 -84.405293 -40.997456
7.202093 -82.523765 -40.858444
8.514146 -83.974956 -40.18652
7.405567 -84.138187 -40.626698
7.000818 -80.769371 -41.091223
7.202093 -82.523765 -40.858444
8.08288 -80.685517 -40.624542
7.000818 -80.769371 -41.091223
7.308803 -105.515808 -28.993718
8.38757 -106.159439 -27.859727
7.687944 -105.114716 -29.915422
7.308803 -105.515808 -28.993718
7.937548 -104.605232 -30.854062
8.956336 -105.312629 -29.795151
7.687944 -105.114716 -29.915422
6.815378 -103.801083 -31.847103
5.571407 -102.842781 -32.821623
8.08377 -103.998997 -31.726832
7.937548 -104.605232 -30.854062
6.815378 -103.801083 -31.847103
1.846582 -99.4277 -35.382947
0.649946 -98.18528 -36.061585
3.27059 -99.846046 -35.403532
3.051074 -100.628506 -34.60113
1.846582 -99.4277 -35.382947
1.591238 -84.877258 -42.117563
2.821025 -84.806789 -41.911976
2.935854 -86.316616 -41.567358
1.591238 -84.877258 -42.117563
0.35321 -84.693901 -42.309645
-1.903145 -87.253845 -41.568599
-1.813796 -88.657551 -41.030708
-3.2008 -86.95467 -41.525695
-2.056968 -85.782955 -42.053547
-0.669965 -87.485836 -41.55856
-1.903145 -87.253845 -41.568599
-2.127048 -84.370567 -42.498695
-2.056968 -85.782955 -42.053547
-0.911717 -84.507831 -42.444925
-2.127048 -84.370567 -42.498695
23.325906 -49.772738 -19.671874
23.577675 -50.154194 -18.839475
23.148877 -51.38357 -19.436306
23.325906 -49.772738 -19.671874
22.987863 -49.369539 -20.561386
22.684293 -48.989345 -21.379401
22.268365 -48.692629 -22.263346
18.980362 -42.632479 -28.008299
19.582909 -43.189222 -27.208131
18.980362 -42.632479 -28.008299
18.537367 -43.610231 -28.530831
16.852197 -43.432846 -30.68132
17.543453 -44.041759 -29.844791
16.481389 -44.430107 -31.172833
16.852197 -43.432846 -30.68132
16.139667 -45.373596 -31.682249
16.481389 -44.430107 -31.172833
16.815214 -46.069378 -30.872315
15.818056 -46.282455 -32.159503
16.139667 -45.373596 -31.682249
15.577203 -47.341894 -32.587795
15.818056 -46.282455 -32.159503
16.232639 -48.072305 -31.810023
15.320101 -48.378124 -33.030158
15.577203 -47.341894 -32.587795
15.099907 -49.419987 -33.454493
15.320101 -48.378124 -33.030158
15.771591 -50.173606 -32.662651
14.853974 -50.443363 -33.890887
15.099907 -49.419987 -33.454493
14.853974 -50.443363 -33.890887
15.283839 -52.219791 -33.569756
23.32799 -62.66939 -9.73955
23.263252 -62.357557 -10.257977
23.21014 -63.655075 -9.861936
23.32799 -62.66939 -9.73955
23.395209 -63.186533 -9.174133
23.394317 -64.769795 -8.614018
23.495382 -63.646849 -8.502948
23.232562 -65.320453 -9.406122
23.394317 -64.769795 -8.614018
23.34952 -65.91803 -8.723621
23.672486 -68.118862 -7.295184
23.670338 -66.923191 -7.209158
23.95164 -69.828228 -6.525343
24.182344 -70.3447 -5.583331
23.732866 -69.232849 -7.364161
23.95164 -69.828228 -6.525343
23.821538 -70.464123 -7.416603
23.542384 -68.754757 -8.186444
23.672486 -68.118862 -7.295184
23.732866 -69.232849 -7.364161
25.0873 -75.105404 -3.839083
24.926888 -73.720516 -3.721767
25.291821 -76.472035 -4.020811
25.49062 -77.822445 -4.127965
25.051946 -75.917107 -4.956461
25.0873 -75.105404 -3.839083
25.291821 -76.472035 -4.020811
26.86125 -91.265346 1.224986
26.973558 -90.011238 1.387509
26.874843 -92.19931 -0.150018
26.86125 -91.265346 1.224986
26.733897 -92.465832 0.990487
9.073638 -106.918968 -25.715857
9.440793 -106.680633 -26.708269
10.446023 -107.102836 -25.561184
11.04291 -106.521241 -12.131563
11.587571 -106.181816 -10.671098
10.350492 -106.765991 -13.595816
9.664502 -106.918362 -14.916052
11.629723 -106.948067 -13.290007
11.04291 -106.521241 -12.131563
10.350492 -106.765991 -13.595816
8.688379 -107.080265 -24.671605
9.637863 -107.419911 -23.423119
8.247373 -107.159005 -23.525951
9.073638 -106.918968 -25.715857
8.688379 -107.080265 -24.671605
23.160444 -62.459019 -10.832
23.280775 -61.678645 -10.662624
23.263252 -62.357557 -10.257977
17.158279 -59.738951 -32.096409
17.796771 -60.488451 -31.279018
17.612777 -61.652057 -31.737702
16.665751 -57.83514 -32.474079
17.158279 -59.738951 -32.096409
16.183901 -55.910584 -32.872377
16.860422 -56.650787 -32.036024
16.665751 -57.83514 -32.474079
15.697426 -53.975172 -33.243424
16.183901 -55.910584 -32.872377
9.948076 -79.644344 -39.737493
9.115642 -80.270447 -40.138962
11.231728 -81.087647 -38.962912
9.948076 -79.644344 -39.737493
10.803611 -79.201595 -39.2533
12.878664 -80.082679 -37.950943
11.76092 -78.842254 -38.6969
13.25593 -81.871009 -37.685128
12.878664 -80.082679 -37.950943
14.04733 -81.308792 -37.157353
18.161454 -85.00803 -33.779949
17.551168 -85.874855 -34.339441
17.149573 -84.258259 -34.692747
18.6318 -84.056602 -33.249701
19.033395 -85.673199 -32.896394
18.161454 -85.00803 -33.779949
19.114269 -83.033013 -32.696268
18.6318 -84.056602 -33.249701
19.525514 -82.037369 -32.114323
19.914986 -83.726128 -31.784201
19.114269 -83.033013 -32.696268
19.99138 -81.137508 -31.473904
19.525514 -82.037369 -32.114323
19.190662 -80.444394 -32.385972
19.415484 -76.693493 -31.658496
19.921685 -78.489876 -31.232448
19.150326 -77.74815 -32.171601
18.968772 -74.886132 -32.021227
19.74013 -75.627858 -31.082074
19.415484 -76.693493 -31.658496
18.522712 -73.140915 -32.340965
18.968772 -74.886132 -32.021227
18.062233 -71.358738 -32.690677
18.83294 -72.038319 -31.794517
18.522712 -73.140915 -32.340965
17.65423 -69.530831 -32.943575
18.062233 -71.358738 -32.690677
17.906598 -68.412732 -32.477248
17.65423 -69.530831 -32.943575
3 445 114 446
3 0 117 115
3 447 120 448
3 449 448 118
3 447 448 449
3 2 123 121
3 2 125 123
3 450 127 451
3 4 130 128
3 4 132 130
3 4 134 132
3 3 137 135
3 5 140 138
3 5 142 140
3 1 145 143
3 7 148 146
3 7 150 148
3 8 153 151
3 10 156 154
3 10 158 156
3 11 161 159
3 13 164 162
3 13 166 164
3 14 169 167
3 14 171 169
3 14 173 171
3 6 452 453
3 15 175 174
3 15 176 175
3 15 178 176
3 16 181 179
3 16 183 181
3 18 454 456
3 454 185 455
3 454 455 456
3 18 187 185
3 19 189 188
3 19 191 189
3 19 193 191
3 20 196 194
3 20 198 196
3 21 457 458
3 21 459 461
3 459 199 460
3 459 460 461
3 21 201 199
3 22 204 202
3 22 206 204
3 22 208 206
3 23 211 209
3 23 213 211
3 17 218 216
3 24 221 219
3 24 223 221
3 9 226 224
3 25 229 227
3 25 231 229
3 25 233 231
3 462 236 463
3 464 463 234
3 462 463 464
3 466 465 236
3 12 239 237
3 26 242 240
3 26 244 242
3 467 247 468
3 469 468 245
3 467 468 469
3 28 248 113
3 28 249 248
3 29 252 250
3 31 253 116
3 31 254 253
3 32 257 255
3 34 258 119
3 34 259 258
3 470 260 471
3 473 472 260
3 36 264 262
3 38 265 122
3 38 266 265
3 38 268 266
3 40 269 124
3 40 270 269
3 41 474 475
3 41 476 478
3 476 271 477
3 476 477 478
3 41 273 271
3 43 274 126
3 43 275 274
3 44 479 480
3 45 276 129
3 45 277 276
3 45 279 277
3 47 280 131
3 47 281 280
3 47 283 281
3 49 284 133
3 49 285 284
3 50 288 286
3 52 289 136
3 52 290 289
3 53 293 291
3 55 294 139
3 55 295 294
3 55 297 295
3 57 298 141
3 57 299 298
3 58 302 300
3 60 303 144
3 60 304 303
3 481 305 482
3 27 483 485
3 483 306 484
3 483 484 485
3 61 307 147
3 61 308 307
3 61 309 308
3 62 310 149
3 62 311 310
3 486 312 487
3 488 313 489
3 490 489 312
3 488 489 490
3 491 315 492
3 493 492 313
3 491 492 493
3 64 318 316
3 66 319 152
3 66 320 319
3 30 321 251
3 67 322 155
3 67 323 322
3 67 324 323
3 68 325 157
3 68 326 325
3 69 329 327
3 71 332 330
3 73 333 160
3 73 334 333
3 33 335 256
3 74 336 163
3 74 337 336
3 74 338 337
3 75 339 165
3 75 340 339
3 76 494 496
3 494 341 495
3 494 495 496
3 76 342 341
3 35 497 499
3 497 343 498
3 497 498 499
3 77 344 168
3 77 345 344
3 77 346 345
3 78 347 170
3 78 348 347
3 78 349 348
3 79 350 172
3 79 500 502
3 502 501 350
3 500 501 502
3 504 503 261
3 37 505 507
3 507 506 263
3 505 506 507
3 80 508 510
3 510 509 177
3 508 509 510
3 80 511 513
3 511 351 512
3 511 512 513
3 39 352 267
3 81 353 180
3 81 354 353
3 81 355 354
3 82 356 182
3 82 514 516
3 516 515 356
3 514 515 516
3 517 358 518
3 84 519 521
3 519 359 520
3 519 520 521
3 84 360 359
3 85 361 184
3 85 362 361
3 85 363 362
3 86 364 186
3 86 365 364
3 87 522 523
3 87 524 526
3 524 366 525
3 524 525 526
3 87 367 366
3 88 368 190
3 88 369 368
3 88 370 369
3 89 371 192
3 89 372 371
3 42 373 272
3 90 374 195
3 90 375 374
3 90 376 375
3 91 377 197
3 91 378 377
3 92 527 528
3 92 529 530
3 92 531 533
3 531 379 532
3 531 532 533
3 93 380 200
3 93 381 380
3 46 382 278
3 94 383 203
3 94 384 383
3 94 385 384
3 95 386 205
3 95 387 386
3 95 388 387
3 96 389 207
3 96 390 389
3 48 391 282
3 97 392 210
3 97 393 392
3 97 394 393
3 98 395 212
3 98 396 395
3 63 397 314
3 99 398 214
3 99 399 398
3 100 534 536
3 534 400 535
3 534 535 536
3 100 401 400
3 100 402 401
3 537 403 538
3 539 538 215
3 537 538 539
3 541 540 403
3 83 404 357
3 101 405 217
3 101 406 405
3 51 407 287
3 102 408 220
3 102 409 408
3 102 410 409
3 103 411 222
3 103 412 411
3 65 413 317
3 104 414 225
3 104 415 414
3 54 416 292
3 105 417 228
3 105 418 417
3 105 419 418
3 106 420 230
3 106 421 420
3 106 422 421
3 107 423 232
3 107 424 423
3 56 425 296
3 108 426 235
3 108 427 426
3 108 428 427
3 72 429 331
3 109 430 238
3 109 431 430
3 59 432 301
3 110 433 241
3 110 434 433
3 110 435 434
3 111 436 243
3 111 437 436
3 70 438 328
3 112 439 246
3 112 440 439
3 542 441 543
3 544 442 545
3 546 443 547
3 548 547 442
3 546 547 548
3 550 549 443
3 551 444 552
3 554 553 444
3 555 113 556
3 114 557 559
3 557 113 558
3 557 558 559
3 114 28 113
3 115 116 29
3 117 116 115
3 117 31 116
3 118 119 32
3 120 119 118
3 120 34 119
3 121 122 36
3 123 122 121
3 123 38 122
3 123 124 38
3 125 124 123
3 125 40 124
3 560 41 561
3 562 126 563
3 564 563 41
3 562 563 564
3 127 565 567
3 565 126 566
3 565 566 567
3 127 43 126
3 128 129 44
3 130 129 128
3 130 45 129
3 130 131 45
3 132 131 130
3 132 47 131
3 132 133 47
3 134 133 132
3 134 49 133
3 135 136 50
3 137 136 135
3 137 52 136
3 138 139 53
3 140 139 138
3 140 55 139
3 140 141 55
3 142 141 140
3 142 57 141
3 143 144 58
3 145 144 143
3 145 60 144
3 146 147 27
3 148 147 146
3 148 61 147
3 148 149 61
3 150 149 148
3 150 62 149
3 151 152 64
3 153 152 151
3 153 66 152
3 154 155 30
3 156 155 154
3 156 67 155
3 156 157 67
3 158 157 156
3 158 68 157
3 569 568 69
3 159 160 71
3 161 160 159
3 161 73 160
3 162 163 33
3 164 163 162
3 164 74 163
3 164 165 74
3 166 165 164
3 166 75 165
3 570 76 571
3 167 168 35
3 169 168 167
3 169 77 168
3 169 170 77
3 171 170 169
3 171 78 170
3 171 172 78
3 173 172 171
3 173 79 172
3 174 572 574
3 574 573 37
3 572 573 574
3 175 575 577
3 577 576 174
3 575 576 577
3 175 578 579
3 175 580 582
3 580 581 582
3 176 583 585
3 585 584 175
3 583 584 585
3 176 586 587
3 176 588 590
3 588 177 589
3 588 589 590
3 178 177 176
3 178 80 177
3 179 180 39
3 181 180 179
3 181 81 180
3 181 182 81
3 183 182 181
3 183 82 182
3 591 84 592
3 593 184 594
3 185 595 597
3 595 184 596
3 595 596 597
3 185 85 184
3 185 186 85
3 187 186 185
3 187 86 186
3 188 598 599
3 189 600 602
3 602 601 188
3 600 601 602
3 189 603 605
3 603 87 604
3 603 604 605
3 189 190 87
3 191 190 189
3 191 88 190
3 191 192 88
3 193 192 191
3 193 89 192
3 194 195 42
3 196 195 194
3 196 90 195
3 196 197 90
3 198 197 196
3 198 91 197
3 199 606 607
3 199 608 610
3 608 92 609
3 608 609 610
3 199 200 92
3 201 200 199
3 201 93 200
3 202 203 46
3 204 203 202
3 204 94 203
3 204 205 94
3 206 205 204
3 206 95 205
3 206 207 95
3 208 207 206
3 208 96 207
3 209 210 48
3 211 210 209
3 211 97 210
3 211 212 97
3 213 212 211
3 213 98 212
3 611 214 612
3 613 612 63
3 611 612 613
3 614 214 615
3 616 99 617
3 618 617 214
3 616 617 618
3 619 100 620
3 621 215 622
3 623 622 100
3 621 622 623
3 624 215 625
3 627 626 215
3 216 217 83
3 218 217 216
3 218 101 217
3 219 220 51
3 221 220 219
3 221 102 220
3 221 222 102
3 223 222 221
3 223 103 222
3 224 225 65
3 226 225 224
3 226 104 225
3 227 228 54
3 229 228 227
3 229 105 228
3 229 230 105
3 231 230 229
3 231 106 230
3 231 232 106
3 233 232 231
3 233 107 232
3 234 235 56
3 236 235 234
3 236 108 235
3 236 628 630
3 630 629 108
3 628 629 630
3 632 631 236
3 237 238 72
3 239 238 237
3 239 109 238
3 240 241 59
3 242 241 240
3 242 110 241
3 242 243 110
3 244 243 242
3 244 111 243
3 245 246 70
3 247 246 245
3 247 112 246
3 633 27 634
3 113 635 636
3 248 637 639
3 639 638 113
3 637 638 639
3 248 640 642
3 640 27 641
3 640 641 642
3 248 146 27
3 249 146 248
3 249 7 146
3 250 251 8
3 252 251 250
3 252 30 251
3 116 252 29
3 253 252 116
3 253 30 252
3 253 154 30
3 254 154 253
3 254 10 154
3 255 256 11
3 257 256 255
3 257 33 256
3 119 257 32
3 258 257 119
3 258 33 257
3 258 162 33
3 259 162 258
3 259 13 162
3 643 35 644
3 645 35 646
3 647 167 648
3 649 648 35
3 647 648 649
3 260 650 652
3 650 167 651
3 650 651 652
3 260 14 167
3 260 261 14
3 653 261 654
3 655 654 260
3 653 654 655
3 657 656 261
3 262 263 6
3 264 263 262
3 264 37 263
3 122 264 36
3 265 264 122
3 265 37 264
3 265 174 37
3 266 174 265
3 266 15 174
3 266 267 15
3 268 267 266
3 268 39 267
3 124 268 38
3 269 268 124
3 269 39 268
3 269 179 39
3 270 179 269
3 270 16 179
3 658 18 659
3 660 188 661
3 271 662 664
3 662 188 663
3 662 663 664
3 271 19 188
3 271 272 19
3 273 272 271
3 273 42 272
3 126 273 41
3 274 273 126
3 274 42 273
3 274 194 42
3 275 194 274
3 275 20 194
3 129 665 667
3 667 666 44
3 665 666 667
3 276 668 670
3 670 669 129
3 668 669 670
3 276 671 672
3 276 673 674
3 277 675 677
3 677 676 276
3 675 676 677
3 277 678 680
3 678 21 679
3 678 679 680
3 277 278 21
3 279 278 277
3 279 46 278
3 131 279 45
3 280 279 131
3 280 46 279
3 280 202 46
3 281 202 280
3 281 22 202
3 281 282 22
3 283 282 281
3 283 48 282
3 133 283 47
3 284 283 133
3 284 48 283
3 284 209 48
3 285 209 284
3 285 23 209
3 286 287 17
3 288 287 286
3 288 51 287
3 136 288 50
3 289 288 136
3 289 51 288
3 289 219 51
3 290 219 289
3 290 24 219
3 291 292 9
3 293 292 291
3 293 54 292
3 139 293 53
3 294 293 139
3 294 54 293
3 294 227 54
3 295 227 294
3 295 25 227
3 295 296 25
3 297 296 295
3 297 56 296
3 141 297 55
3 298 297 141
3 298 56 297
3 298 234 56
3 299 234 298
3 299 681 683
3 683 682 234
3 681 682 683
3 300 301 12
3 302 301 300
3 302 59 301
3 144 302 58
3 303 302 144
3 303 59 302
3 303 240 59
3 304 240 303
3 304 26 240
3 305 684 685
3 305 686 688
3 686 6 687
3 686 687 688
3 306 689 690
3 306 691 692
3 147 306 27
3 307 306 147
3 307 693 695
3 695 694 306
3 693 694 695
3 307 696 698
3 696 305 697
3 696 697 698
3 308 305 307
3 308 6 305
3 308 262 6
3 309 262 308
3 309 36 262
3 149 309 61
3 310 309 149
3 310 36 309
3 310 121 36
3 311 121 310
3 311 2 121
3 699 44 700
3 312 701 702
3 312 703 705
3 703 44 704
3 703 704 705
3 312 128 44
3 313 128 312
3 313 4 128
3 313 314 4
3 315 314 313
3 315 63 314
3 706 315 707
3 708 315 709
3 710 63 711
3 712 711 315
3 710 711 712
3 714 713 63
3 316 317 3
3 318 317 316
3 318 65 317
3 152 318 64
3 319 318 152
3 319 65 318
3 319 224 65
3 320 224 319
3 320 9 224
3 251 153 8
3 321 153 251
3 321 66 153
3 155 321 30
3 322 321 155
3 322 66 321
3 322 320 66
3 323 320 322
3 323 9 320
3 323 291 9
3 324 291 323
3 324 53 291
3 157 324 67
3 325 324 157
3 325 53 324
3 325 138 53
3 326 138 325
3 326 5 138
3 327 328 1
3 329 328 327
3 329 70 328
3 715 329 716
3 717 716 69
3 715 716 717
3 718 329 719
3 720 70 721
3 722 721 329
3 720 721 722
3 723 245 724
3 725 724 70
3 723 724 725
3 726 245 727
3 729 728 245
3 330 331 0
3 332 331 330
3 332 72 331
3 160 332 71
3 333 332 160
3 333 72 332
3 333 237 72
3 334 237 333
3 334 12 237
3 256 161 11
3 335 161 256
3 335 73 161
3 163 335 33
3 336 335 163
3 336 73 335
3 336 334 73
3 337 334 336
3 337 12 334
3 337 300 12
3 338 300 337
3 338 58 300
3 165 338 74
3 339 338 165
3 339 58 338
3 339 143 58
3 340 143 339
3 340 1 143
3 730 120 731
3 732 120 733
3 734 34 735
3 736 735 120
3 734 735 736
3 341 737 738
3 341 739 741
3 739 34 740
3 739 740 741
3 341 259 34
3 342 259 341
3 342 13 259
3 343 742 743
3 343 744 746
3 744 76 745
3 744 745 746
3 168 343 35
3 344 343 168
3 344 76 343
3 344 342 76
3 345 342 344
3 345 13 342
3 345 166 13
3 346 166 345
3 346 75 166
3 170 346 77
3 347 346 170
3 347 75 346
3 347 340 75
3 348 340 347
3 348 1 340
3 348 327 1
3 349 327 348
3 349 69 327
3 172 349 78
3 350 349 172
3 350 69 349
3 350 747 749
3 749 748 69
3 747 748 749
3 751 750 350
3 261 173 14
3 752 173 753
3 754 753 261
3 752 753 754
3 755 79 756
3 757 756 173
3 755 756 757
3 758 79 759
3 761 760 79
3 263 762 764
3 764 763 6
3 762 763 764
3 766 765 263
3 768 767 37
3 177 769 770
3 772 771 177
3 351 773 774
3 351 775 776
3 267 178 15
3 352 178 267
3 352 80 178
3 180 352 39
3 353 352 180
3 353 80 352
3 353 351 80
3 354 351 353
3 354 777 779
3 779 778 351
3 777 778 779
3 354 780 781
3 355 782 784
3 784 783 354
3 782 783 784
3 355 785 786
3 182 355 81
3 356 355 182
3 356 787 789
3 789 788 355
3 787 788 789
3 356 790 791
3 793 792 356
3 794 357 795
3 358 796 798
3 796 357 797
3 796 797 798
3 358 83 357
3 799 358 800
3 359 801 803
3 801 358 802
3 801 802 803
3 359 83 358
3 359 216 83
3 360 216 359
3 360 17 216
3 804 84 805
3 184 806 807
3 361 808 810
3 810 809 184
3 808 809 810
3 361 811 813
3 811 84 812
3 811 812 813
3 361 360 84
3 362 360 361
3 362 17 360
3 362 286 17
3 363 286 362
3 363 50 286
3 186 363 85
3 364 363 186
3 364 50 363
3 364 135 50
3 365 135 364
3 365 3 135
3 814 18 815
3 366 816 817
3 366 818 820
3 818 18 819
3 818 819 820
3 366 187 18
3 367 187 366
3 367 86 187
3 190 367 87
3 368 367 190
3 368 86 367
3 368 365 86
3 369 365 368
3 369 3 365
3 369 316 3
3 370 316 369
3 370 64 316
3 192 370 88
3 371 370 192
3 371 64 370
3 371 151 64
3 372 151 371
3 372 8 151
3 272 193 19
3 373 193 272
3 373 89 193
3 195 373 42
3 374 373 195
3 374 89 373
3 374 372 89
3 375 372 374
3 375 8 372
3 375 250 8
3 376 250 375
3 376 29 250
3 197 376 90
3 377 376 197
3 377 29 376
3 377 115 29
3 378 115 377
3 378 0 115
3 821 127 822
3 379 823 825
3 823 127 824
3 823 824 825
3 379 43 127
3 200 379 92
3 380 379 200
3 380 43 379
3 380 275 43
3 381 275 380
3 381 20 275
3 278 201 21
3 382 201 278
3 382 93 201
3 203 382 46
3 383 382 203
3 383 93 382
3 383 381 93
3 384 381 383
3 384 20 381
3 384 198 20
3 385 198 384
3 385 91 198
3 205 385 94
3 386 385 205
3 386 91 385
3 386 378 91
3 387 378 386
3 387 0 378
3 387 330 0
3 388 330 387
3 388 71 330
3 207 388 95
3 389 388 207
3 389 71 388
3 389 159 71
3 390 159 389
3 390 11 159
3 282 208 22
3 391 208 282
3 391 96 208
3 210 391 48
3 392 391 210
3 392 96 391
3 392 390 96
3 393 390 392
3 393 11 390
3 393 255 11
3 394 255 393
3 394 32 255
3 212 394 97
3 395 394 212
3 395 32 394
3 395 118 32
3 396 118 395
3 396 826 828
3 828 827 118
3 826 827 828
3 314 134 4
3 397 134 314
3 397 49 134
3 214 397 63
3 398 397 214
3 398 49 397
3 398 285 49
3 399 285 398
3 399 23 285
3 829 99 830
3 400 831 832
3 400 833 835
3 833 99 834
3 833 834 835
3 400 399 99
3 401 399 400
3 401 23 399
3 401 213 23
3 402 213 401
3 402 98 213
3 215 402 100
3 403 402 215
3 403 98 402
3 403 396 98
3 836 396 837
3 838 837 403
3 836 837 838
3 840 839 396
3 357 841 843
3 841 114 842
3 841 842 843
3 404 114 357
3 404 28 114
3 217 404 83
3 405 404 217
3 405 28 404
3 405 249 28
3 406 249 405
3 406 7 249
3 287 218 17
3 407 218 287
3 407 101 218
3 220 407 51
3 408 407 220
3 408 101 407
3 408 406 101
3 409 406 408
3 409 7 406
3 409 150 7
3 410 150 409
3 410 62 150
3 222 410 102
3 411 410 222
3 411 62 410
3 411 311 62
3 412 311 411
3 412 2 311
3 317 137 3
3 413 137 317
3 413 52 137
3 225 413 65
3 414 413 225
3 414 52 413
3 414 290 52
3 415 290 414
3 415 24 290
3 292 226 9
3 416 226 292
3 416 104 226
3 228 416 54
3 417 416 228
3 417 104 416
3 417 415 104
3 418 415 417
3 418 24 415
3 418 223 24
3 419 223 418
3 419 103 223
3 230 419 105
3 420 419 230
3 420 103 419
3 420 412 103
3 421 412 420
3 421 2 412
3 421 125 2
3 422 125 421
3 422 40 125
3 232 422 106
3 423 422 232
3 423 40 422
3 423 270 40
3 424 270 423
3 424 16 270
3 296 233 25
3 425 233 296
3 425 107 233
3 235 425 56
3 426 425 235
3 426 107 425
3 426 424 107
3 427 424 426
3 427 16 424
3 427 183 16
3 428 183 427
3 428 82 183
3 844 428 845
3 846 845 108
3 844 845 846
3 847 428 848
3 849 82 850
3 851 850 428
3 849 850 851
3 853 852 82
3 331 117 0
3 429 117 331
3 429 31 117
3 238 429 72
3 430 429 238
3 430 31 429
3 430 254 31
3 431 254 430
3 431 10 254
3 301 239 12
3 432 239 301
3 432 109 239
3 241 432 59
3 433 432 241
3 433 109 432
3 433 431 109
3 434 431 433
3 434 10 431
3 434 158 10
3 435 158 434
3 435 68 158
3 243 435 110
3 436 435 243
3 436 68 435
3 436 326 68
3 437 326 436
3 437 5 326
3 328 145 1
3 438 145 328
3 438 60 145
3 246 438 70
3 439 438 246
3 439 60 438
3 439 304 60
3 440 304 439
3 440 26 304
3 854 247 855
3 441 856 858
3 856 247 857
3 856 857 858
3 441 112 247
3 859 441 860
3 442 861 863
3 861 441 862
3 861 862 863
3 442 112 441
3 442 440 112
3 443 440 442
3 443 26 440
3 443 244 26
3 864 244 865
3 866 865 443
3 864 865 866
3 867 111 868
3 869 868 244
3 867 868 869
3 870 111 871
3 872 437 873
3 874 873 111
3 872 873 874
3 444 875 877
3 875 437 876
3 875 876 877
3 444 5 437
3 444 142 5
3 878 142 879
3 880 879 444
3 878 879 880
3 881 57 882
3 883 882 142
3 881 882 883
3 884 57 885
3 886 299 887
3 888 887 57
3 886 887 888
3 889 299 890
3 892 891 299
