ply
format ascii 1.0
element vertex 323
property float x
property float y
property float z
element face 290
property list uchar int vertex_index
end_header
0.5548 -5.926605 -56.475021
0.692506 6.22479 -60.777744
4.192447 1.464197 -64.315552
4.485586 14.074 -67.914154
2.446621 10.212641 -64.662262
2.406734 15.91398 -65.41259
-1.829467 -15.735155 -49.787899
0.018994 -12.405716 -53.646061
0.772224 0.269692 -58.9641
2.216322 -2.296621 -60.43998
2.399963 4.149558 -62.92609
4.38378 7.966296 -66.592293
3.503626 30.835701 -62.701019
2.84094 26.296265 -64.370979
2.620105 21.305305 -65.465645
4.844291 19.568981 -68.420563
-3.150345 -22.178856 -46.874313
1.41134 13.951179 -63.712711
1.424315 16.70512 -63.967033
-0.015407 -4.694543 -55.878014
-0.187276 -7.91672 -54.538074
-0.496717 -10.981037 -53.115528
0.418395 -9.149856 -55.229706
1.20045 -7.611361 -57.026817
0.785864 3.281712 -60.006958
1.565351 2.026477 -60.917099
1.537877 5.146084 -61.881367
3.377861 12.09609 -66.312279
3.367403 8.98342 -65.647995
4.455795 10.946624 -67.375572
5.571274 9.674022 -68.190063
5.65862 12.701612 -68.883423
3.967481 25.464836 -66.051239
2.64557 23.762403 -64.968193
3.755447 23.107164 -66.562958
3.65845 20.414907 -66.953957
4.999506 22.270979 -68.183655
-5.201573 -26.502409 -43.607555
-1.477997 -17.583488 -50.072868
-2.454705 -19.042572 -48.278233
3.149287 -0.463107 -62.391533
3.034404 -3.895882 -60.985645
1.510337 8.154598 -62.701817
1.445093 11.017087 -63.275806
2.325157 12.973505 -64.991356
3.400791 15.018707 -66.71579
-1.377998 -12.684284 -51.175453
-0.899588 -14.219607 -51.647255
0.746679 -2.78056 -57.868763
1.387166 -4.405021 -58.402397
1.477161 -1.032351 -59.718678
2.356532 0.976919 -61.804794
3.266929 2.66871 -63.646534
2.386391 7.18167 -63.8139
3.356908 5.936368 -64.806267
4.261058 4.704139 -65.493065
5.339029 6.420121 -67.097672
2.36236 31.878521 -60.966568
2.059709 29.705238 -61.887184
3.054019 28.526157 -63.589901
1.801364 27.241745 -62.712559
1.646808 24.646366 -63.389301
1.496361 21.950258 -63.7757
1.440402 19.408958 -63.970051
2.459088 18.73555 -65.502724
3.510202 17.694641 -66.9524
4.708848 16.839224 -68.357475
5.887183 15.655773 -69.449387
-3.434168 -20.203009 -46.609863
-4.228986 -23.34951 -45.141541
2.099387 -5.73664 -59.052517
0.923825 17.154463 -63.194433
0.946824 15.819616 -63.136764
0.34895 5.33483 -59.90354
0.289694 6.810075 -60.257562
0.739185 4.753251 -60.392351
0.395629 3.863291 -59.518147
0.34895 5.33483 -59.90354
4.580373 25.074119 -66.873752
4.751486 26.269414 -66.529709
4.474355 23.895283 -67.129612
3.861464 24.286 -66.307098
4.580373 25.074119 -66.873752
5.096385 23.477191 -67.93996
4.377477 22.689072 -67.373306
4.474355 23.895283 -67.129612
-5.269553 -25.363986 -43.546192
-5.748661 -26.891042 -42.82319
-1.809199 -19.251283 -49.329109
-1.270791 -18.432495 -50.290363
4.12329 -0.293576 -63.590526
3.60171 -1.257228 -62.628517
3.670867 0.500545 -63.353543
1.009356 11.552181 -62.659687
1.035736 10.037097 -62.366035
-1.185746 -11.082828 -51.925258
-1.597908 -11.804775 -51.046888
-0.230984 -14.130643 -52.839138
-0.690276 -15.037588 -51.839735
-0.440297 -13.312662 -52.646658
0.25874 -13.383492 -53.803583
-0.230984 -14.130643 -52.839138
0.392829 -0.68687 -57.967165
0.415099 0.874772 -58.546009
0.759451 -1.255434 -58.416432
0.380056 -2.211996 -57.419497
0.392829 -0.68687 -57.967165
6.125001 8.948276 -68.448734
6.224318 10.503519 -68.899326
2.932993 31.357111 -61.833793
3.125135 32.390918 -61.267586
3.695768 31.869508 -62.134811
2.94748 27.411211 -63.98044
3.662009 28.114587 -64.479109
3.55547 26.99964 -64.869648
6.601108 16.450072 -70.054611
5.976652 17.063356 -69.561245
6.518438 15.025602 -69.883362
6.601108 16.450072 -70.054611
-2.282278 -16.31877 -48.963946
-2.041435 -14.80876 -49.636566
-3.612495 -23.816837 -46.091241
-4.151815 -24.402164 -45.224855
-3.689666 -22.764183 -46.007927
2.947046 -5.6167 -60.250349
3.458144 -4.677945 -61.188318
0.940337 14.442645 -63.009603
0.99248 13.019227 -62.87814
1.417828 15.32815 -63.839872
0.940337 14.442645 -63.009603
0.946824 15.819616 -63.136764
-0.401477 -5.519509 -54.936331
-0.362041 -4.091874 -55.482811
-0.487411 -7.130597 -54.266361
-0.401477 -5.519509 -54.936331
-0.101342 -6.305632 -55.208044
-0.590385 -8.699046 -53.606569
-0.487411 -7.130597 -54.266361
-0.341997 -9.448878 -53.826801
-0.745105 -10.231204 -52.895296
-0.590385 -8.699046 -53.606569
0.66081 -10.077095 -55.366779
0.461109 -11.705025 -54.574957
0.218695 -10.777786 -54.437883
1.051837 -9.307847 -56.265335
0.66081 -10.077095 -55.366779
0.809423 -8.380608 -56.128262
1.511659 -8.428658 -57.244383
1.051837 -9.307847 -56.265335
0.421918 2.380782 -59.067438
0.395629 3.863291 -59.518147
0.779044 1.775702 -59.485529
0.415099 0.874772 -58.546009
0.421918 2.380782 -59.067438
6.267991 12.017314 -69.246006
6.224318 10.503519 -68.899326
5.614947 11.187817 -68.536743
4.296944 31.413065 -62.988084
3.695768 31.869508 -62.134811
4.11874 26.583926 -65.709778
4.751486 26.269414 -66.529709
3.40421 25.88055 -65.211109
3.55547 26.99964 -64.869648
4.11874 26.583926 -65.709778
-5.749553 -28.158361 -42.847606
-5.748661 -26.891042 -42.82319
-5.148439 -27.68266 -43.709072
-5.749553 -28.158361 -42.847606
-2.297553 -19.980825 -48.431792
-1.966351 -18.31303 -49.17555
-1.809199 -19.251283 -49.329109
-2.645373 -21.548966 -47.729832
-2.802525 -20.610714 -47.576273
-2.297553 -19.980825 -48.431792
-3.025552 -23.220121 -47.014259
-2.645373 -21.548966 -47.729832
3.544268 -2.973616 -61.925573
3.091845 -2.179495 -61.688589
3.60171 -1.257228 -62.628517
3.458144 -4.677945 -61.188318
3.544268 -2.973616 -61.925573
0.659442 7.640949 -61.117004
0.289694 6.810075 -60.257562
1.068358 8.605853 -62.07904
1.101422 7.189694 -61.73978
0.659442 7.640949 -61.117004
1.477715 9.585843 -62.988811
1.068358 8.605853 -62.07904
1.035736 10.037097 -62.366035
1.428216 12.484133 -63.494259
1.009356 11.552181 -62.659687
0.99248 13.019227 -62.87814
-1.815701 -13.283325 -50.330343
-1.597908 -11.804775 -51.046888
-1.603733 -14.20972 -50.481676
-2.041435 -14.80876 -49.636566
-1.815701 -13.283325 -50.330343
-0.937358 -11.83266 -52.14549
-1.185746 -11.082828 -51.925258
-0.745105 -10.231204 -52.895296
-0.97948 -16.719528 -51.052542
-1.188792 -15.901547 -50.860062
-0.690276 -15.037588 -51.839735
-1.270791 -18.432495 -50.290363
-0.97948 -16.719528 -51.052542
0.25874 -13.383492 -53.803583
0.461109 -11.705025 -54.574957
4.675012 0.69108 -64.506451
4.762188 2.320952 -65.176445
-0.000987 -3.168988 -56.424122
-0.362041 -4.091874 -55.482811
0.365636 -3.737552 -56.873389
-0.000987 -3.168988 -56.424122
0.380056 -2.211996 -57.419497
4.796494 3.940923 -65.765202
4.762188 2.320952 -65.176445
4.226752 3.084168 -64.904308
5.335479 4.798914 -66.567505
4.796494 3.940923 -65.765202
4.800044 5.56213 -66.295368
5.938192 5.777181 -67.385071
5.335479 4.798914 -66.567505
6.008878 7.321326 -67.902538
5.455151 8.047072 -67.643867
6.125001 8.948276 -68.448734
5.938192 5.777181 -67.385071
6.008878 7.321326 -67.902538
2.57487 32.979215 -60.420798
3.125135 32.390918 -61.267586
1.829804 32.422174 -60.203118
2.57487 32.979215 -60.420798
1.620304 31.265088 -60.595182
1.829804 32.422174 -60.203118
1.468979 30.178446 -61.05549
1.620304 31.265088 -60.595182
2.211034 30.79188 -61.426876
1.425254 28.942323 -61.519621
1.468979 30.178446 -61.05549
4.07214 30.358379 -63.572693
4.296944 31.413065 -62.988084
3.847336 29.203606 -64.017133
3.662009 28.114587 -64.479109
3.278822 29.680929 -63.14546
4.07214 30.358379 -63.572693
3.847336 29.203606 -64.017133
1.296082 27.710576 -61.932308
1.425254 28.942323 -61.519621
1.930536 28.473492 -62.299871
1.197124 26.419632 -62.22665
1.296082 27.710576 -61.932308
1.119846 25.121942 -62.565022
1.197124 26.419632 -62.22665
1.724086 25.944056 -63.05093
1.041976 23.851841 -62.735663
1.119846 25.121942 -62.565022
0.966753 22.503787 -62.928862
1.041976 23.851841 -62.735663
1.571585 23.298312 -63.582501
0.966208 21.207587 -63.081066
0.966753 22.503787 -62.928862
0.938229 19.936937 -63.178242
0.966208 21.207587 -63.081066
1.468382 20.679608 -63.872875
0.931869 18.506382 -63.195942
0.938229 19.936937 -63.178242
1.432358 18.057039 -63.968542
0.923825 17.154463 -63.194433
0.931869 18.506382 -63.195942
5.721936 23.002323 -68.691318
5.096385 23.477191 -67.93996
5.637182 21.707598 -68.901181
5.721936 23.002323 -68.691318
5.559574 20.356599 -69.019634
4.921899 20.91998 -68.302109
5.637182 21.707598 -68.901181
5.455205 19.01996 -69.046833
5.559574 20.356599 -69.019634
5.387484 17.655082 -69.015289
4.776569 18.204103 -68.389019
5.455205 19.01996 -69.046833
5.298015 16.247498 -68.903431
5.387484 17.655082 -69.015289
5.976652 17.063356 -69.561245
6.404156 13.548522 -69.60038
5.772901 14.178693 -69.166405
6.518438 15.025602 -69.883362
6.267991 12.017314 -69.246006
6.404156 13.548522 -69.60038
-2.594898 -17.972478 -48.209113
-2.282278 -16.31877 -48.963946
-2.142086 -17.388863 -49.033066
-3.084629 -18.552697 -47.374927
-2.594898 -17.972478 -48.209113
-2.944437 -19.622791 -47.444048
-3.6074 -19.275283 -46.481878
-3.084629 -18.552697 -47.374927
-3.961002 -20.770086 -45.773544
-3.6074 -19.275283 -46.481878
-4.35841 -22.343336 -45.039383
-3.961002 -20.770086 -45.773544
-3.831577 -21.77626 -45.875702
-4.783259 -23.787537 -44.313185
-4.35841 -22.343336 -45.039383
-4.715279 -24.925959 -44.374548
-5.269553 -25.363986 -43.546192
-4.783259 -23.787537 -44.313185
-4.638108 -25.978613 -44.457862
-4.715279 -24.925959 -44.374548
-4.151815 -24.402164 -45.224855
-5.148439 -27.68266 -43.709072
-4.638108 -25.978613 -44.457862
-3.612495 -23.816837 -46.091241
-3.025552 -23.220121 -47.014259
1.961127 -7.491297 -58.257233
1.511659 -8.428658 -57.244383
1.649919 -6.674001 -58.039667
2.479538 -6.537078 -59.283785
2.566896 -4.816261 -60.019081
2.947046 -5.6167 -60.250349
1.961127 -7.491297 -58.257233
2.479538 -6.537078 -59.283785
4.12329 -0.293576 -63.590526
4.675012 0.69108 -64.506451
3 71 18 72
3 0 20 19
3 0 22 20
3 0 23 22
3 1 73 74
3 1 75 77
3 75 24 76
3 75 76 77
3 1 26 24
3 3 29 27
3 3 31 29
3 78 32 79
3 80 34 81
3 82 81 32
3 80 81 82
3 83 36 84
3 85 84 34
3 83 84 85
3 86 37 87
3 89 88 38
3 2 90 92
3 92 91 40
3 90 91 92
3 93 43 94
3 5 44 17
3 5 45 44
3 95 46 96
3 7 47 21
3 7 97 99
3 99 98 47
3 97 98 99
3 7 100 101
3 8 102 103
3 8 104 106
3 104 48 105
3 104 105 106
3 8 50 48
3 10 51 25
3 10 52 51
3 4 53 42
3 11 54 28
3 11 55 54
3 11 56 55
3 108 107 30
3 12 109 111
3 109 57 110
3 109 110 111
3 12 58 57
3 13 112 114
3 112 59 113
3 112 113 114
3 13 60 59
3 13 61 60
3 14 62 33
3 14 63 62
3 14 64 63
3 15 65 35
3 15 66 65
3 115 67 116
3 118 117 67
3 6 119 120
3 16 68 39
3 16 69 68
3 16 121 123
3 123 122 69
3 121 122 123
3 9 70 49
3 125 124 41
3 126 17 127
3 18 128 130
3 128 17 129
3 128 129 130
3 18 5 17
3 19 131 132
3 20 133 135
3 135 134 19
3 133 134 135
3 20 136 137
3 20 138 140
3 138 21 139
3 138 139 140
3 22 21 20
3 22 7 21
3 22 141 143
3 143 142 7
3 141 142 143
3 23 144 146
3 146 145 22
3 144 145 146
3 23 147 148
3 24 149 150
3 24 151 153
3 151 8 152
3 151 152 153
3 24 25 8
3 26 25 24
3 26 10 25
3 27 28 4
3 29 28 27
3 29 11 28
3 29 30 11
3 31 30 29
3 31 154 156
3 156 155 30
3 154 155 156
3 157 12 158
3 32 159 160
3 32 161 163
3 161 13 162
3 161 162 163
3 32 33 13
3 34 33 32
3 34 14 33
3 34 35 14
3 36 35 34
3 36 15 35
3 37 164 165
3 37 166 167
3 38 39 6
3 168 39 169
3 170 169 38
3 168 169 170
3 171 16 172
3 173 172 39
3 171 172 173
3 175 174 16
3 40 41 9
3 176 41 177
3 178 177 40
3 176 177 178
3 180 179 41
3 181 1 182
3 183 42 184
3 185 184 1
3 183 184 185
3 43 186 188
3 186 42 187
3 186 187 188
3 43 4 42
3 17 189 191
3 189 43 190
3 189 190 191
3 44 43 17
3 44 4 43
3 44 27 4
3 45 27 44
3 45 3 27
3 46 192 193
3 46 194 196
3 194 6 195
3 194 195 196
3 21 197 199
3 197 46 198
3 197 198 199
3 47 46 21
3 47 6 46
3 47 38 6
3 200 38 201
3 202 201 47
3 200 201 202
3 204 203 38
3 206 205 7
3 208 207 2
3 209 19 210
3 48 211 213
3 211 19 212
3 211 212 213
3 48 0 19
3 48 49 0
3 50 49 48
3 50 9 49
3 25 50 8
3 51 50 25
3 51 9 50
3 51 40 9
3 52 40 51
3 52 2 40
3 42 26 1
3 53 26 42
3 53 10 26
3 28 53 4
3 54 53 28
3 54 10 53
3 54 52 10
3 55 52 54
3 55 2 52
3 55 214 216
3 216 215 2
3 214 215 216
3 56 217 219
3 219 218 55
3 217 218 219
3 56 220 221
3 30 56 11
3 222 56 223
3 224 223 30
3 222 223 224
3 226 225 56
3 57 227 228
3 57 229 230
3 57 231 232
3 58 233 235
3 235 234 57
3 233 234 235
3 58 236 237
3 238 12 239
3 59 240 241
3 59 242 244
3 242 12 243
3 242 243 244
3 59 58 12
3 60 58 59
3 60 245 247
3 247 246 58
3 245 246 247
3 60 248 249
3 61 250 252
3 252 251 60
3 250 251 252
3 61 253 254
3 33 61 13
3 62 61 33
3 62 255 257
3 257 256 61
3 255 256 257
3 62 258 259
3 63 260 262
3 262 261 62
3 260 261 262
3 63 263 264
3 63 265 267
3 265 18 266
3 265 266 267
3 64 18 63
3 64 5 18
3 35 64 14
3 65 64 35
3 65 5 64
3 65 45 5
3 66 45 65
3 66 3 45
3 268 36 269
3 270 36 271
3 272 15 273
3 274 273 36
3 272 273 274
3 275 15 276
3 277 66 278
3 279 278 15
3 277 278 279
3 67 280 282
3 280 66 281
3 280 281 282
3 67 3 66
3 67 31 3
3 283 31 284
3 285 284 67
3 283 284 285
3 287 286 31
3 39 288 290
3 290 289 6
3 288 289 290
3 68 291 293
3 293 292 39
3 291 292 293
3 68 294 295
3 68 296 297
3 69 298 300
3 300 299 68
3 298 299 300
3 69 301 302
3 69 303 305
3 303 37 304
3 303 304 305
3 306 37 307
3 308 307 69
3 306 307 308
3 310 309 37
3 312 311 16
3 49 23 0
3 70 23 49
3 70 313 315
3 315 314 23
3 313 314 315
3 41 70 9
3 316 70 317
3 318 317 41
3 316 317 318
3 320 319 70
3 322 321 2
