ply
format ascii 1.0
element vertex 884
property float x
property float y
property float z
element face 761
property list uchar int vertex_index
end_header
0.423336 17.603806 -62.421833
-36.23748 9.134612 22.224791
-14.461926 -37.684673 -31.60664
-28.231169 -42.448837 -7.817873
-34.725315 -7.571092 23.840374
-35.602772 -20.777082 16.563877
-25.853567 -39.158489 -15.450316
0.7908 28.179407 -61.152058
-5.337533 -24.225563 -43.484829
-2.785696 -12.322133 -49.095417
-22.248323 -39.569366 -21.122183
-20.285074 -41.054153 -23.573526
-21.331852 -36.277668 -23.335026
-1.334594 14.104218 -59.297119
-1.043272 8.319516 -58.451939
0.57362 12.087274 -62.043568
-16.313063 -42.887398 -29.143559
-14.497495 -43.310581 -31.828531
-12.124 -37.494144 -34.596733
-34.581547 7.238447 26.394041
-35.50106 0.74876 23.321304
-27.139229 -40.754791 -11.920429
-0.708675 -3.489205 -55.087608
-0.993494 -9.481371 -52.675064
-18.348915 -42.286186 -26.201212
-16.692936 -37.491707 -28.869761
-29.122988 -43.636818 -3.538475
-0.692715 2.551516 -57.214432
-1.498043 19.74719 -59.575962
-36.339832 -6.114251 19.843159
-35.37492 -14.186156 20.383707
-34.325211 -21.748318 20.748053
-34.236252 -28.302549 17.057055
-33.542397 -34.348831 13.058416
-32.103783 -40.247459 9.113073
-31.976341 -39.533031 4.897191
-31.59189 -38.552734 0.196476
-24.474083 -37.103031 -18.702137
-23.413813 -42.187668 -18.33728
-1.640563 25.407806 -59.031521
0.437144 23.057316 -62.082024
-9.778469 -31.729252 -37.428913
-3.780631 -18.347557 -46.353893
-22.763803 -37.246151 -21.136366
-21.791363 -37.93544 -22.261726
-0.504737 15.734521 -60.81749
-0.281643 12.974821 -60.781788
0.469333 14.934111 -62.306496
-15.399191 -40.21529 -30.382389
-15.369299 -42.909 -30.515291
-14.267151 -40.308304 -31.905655
-13.224238 -40.284054 -33.331291
-13.271041 -37.643181 -33.109188
-35.402538 7.960333 24.353237
-35.094261 4.144715 24.786983
-35.959099 4.940047 22.644814
-27.69615 -41.721016 -9.89005
-0.787547 -6.344474 -53.994648
-19.675491 -39.015839 -24.841257
-19.280407 -41.564472 -24.932091
-18.594637 -39.504807 -26.196165
-17.585287 -39.911659 -27.494249
-29.44873 -44.238781 -1.357478
-0.113117 7.395361 -59.737381
-0.800292 5.47125 -57.994781
0.005394 4.44487 -59.029335
0.057973 1.479851 -58.127918
-2.514461 18.148014 -58.118401
-2.616371 21.089003 -58.136883
-34.299377 -11.689994 24.005854
-36.163795 -17.076633 16.495277
-36.095798 -13.570411 18.345694
-35.520538 -17.522486 18.630461
-34.856617 -18.194395 20.51557
-35.003426 -21.184126 18.679302
-34.383114 -25.014132 18.85804
-34.924133 -24.47003 16.92919
-34.319214 -30.903509 12.927932
-33.740959 -33.97316 10.878396
-32.903915 -37.33844 11.091843
-32.976528 -36.975956 8.874529
-32.097927 -39.793953 7.000101
-32.983574 -36.608402 6.775462
-25.19582 -41.88834 -15.2371
-24.591988 -40.839539 -16.872663
-23.989252 -39.659531 -18.41157
-25.21361 -38.065289 -17.103437
-0.353805 29.293547 -59.522354
-1.576276 28.073101 -58.615517
-0.470918 26.632061 -60.158085
-0.613415 24.023605 -60.498299
0.592884 25.597519 -61.740742
-11.090792 -32.299232 -35.805538
-6.506559 -25.276848 -41.836567
-7.478789 -28.212496 -40.424713
-6.295749 -27.279675 -42.038826
-2.482432 -9.556389 -50.341003
-4.281425 -16.791893 -45.977463
-3.208428 -15.245732 -47.76619
-21.789347 -41.923893 -21.09049
-21.246975 -40.327633 -22.359158
-20.759981 -38.443581 -23.519991
-20.251902 -36.640984 -24.613415
-1.145014 11.215862 -59.024288
-0.222057 10.189709 -60.297729
0.626379 9.057108 -61.456264
-13.381064 -43.062782 -33.441982
-34.733311 -0.145039 25.118982
-35.174362 -3.455963 23.494326
-36.097767 -20.507984 14.453678
-35.405663 -24.292044 14.653295
-25.838125 -42.848392 -13.386092
-26.560301 -39.911167 -13.680256
-1.537685 -5.207825 -53.158585
-1.573426 -8.037682 -52.165604
-1.817818 -10.925265 -50.918324
-2.253404 -13.882366 -49.485233
-19.069723 -44.234013 -24.900324
-18.19297 -44.984974 -26.26166
-17.361866 -42.627998 -27.619337
-16.518526 -40.274891 -28.890738
-15.593947 -37.627205 -30.208632
-37.035564 9.996158 20.026669
-36.695507 5.698514 20.723604
-28.718391 -43.120125 -5.615512
-0.692816 -0.332175 -56.21563
0.013434 -1.643433 -56.97023
-1.483024 16.944586 -59.438869
-0.5073 18.595163 -60.999119
-36.341282 1.222127 21.183586
-35.985363 -2.566291 21.548225
-35.533501 -6.735352 21.929586
-35.83765 -10.104767 20.270731
-35.051994 -11.009907 22.204809
-34.598415 -14.952834 22.358053
-34.155319 -18.428497 22.522778
-33.797836 -25.277775 20.918295
-33.741425 -28.533949 19.220119
-33.581722 -31.609491 17.370806
-34.716797 -27.750952 14.890108
-33.979107 -31.31171 15.137114
-33.265751 -34.721581 15.271471
-32.764774 -37.678776 13.28133
-31.056915 -42.722347 5.16644
-30.931459 -42.103222 2.890738
-31.822947 -39.077507 2.585059
-30.667322 -41.731903 0.648234
-30.379299 -41.177322 -1.630559
-29.996037 -40.676765 -3.879376
-29.627003 -39.930859 -6.029637
-29.112274 -39.308964 -8.171144
-28.590982 -38.465965 -10.208059
-28.015779 -37.714199 -12.046179
-27.232885 -37.052235 -14.035019
-23.792509 -36.152569 -20.075718
-22.8202 -40.856026 -19.82066
-23.351236 -38.407879 -19.887129
-1.665395 22.489956 -59.290443
-0.583659 21.457338 -60.823738
0.436055 20.464916 -62.386433
-14.655306 -35.192177 -31.49086
-13.32722 -35.126633 -33.051865
-12.131828 -34.964134 -34.501732
-10.962366 -34.786701 -35.972473
-8.517778 -31.086393 -39.054737
-4.487835 -21.337162 -44.937225
-2.73509 -16.902384 -48.139992
-22.552661 -36.569399 -21.636398
-22.97374 -36.392685 -21.134922
0.923825 17.154463 -63.194433
0.946824 15.819616 -63.136764
0.446334 16.268959 -62.364165
-27.545996 -43.609903 -8.70911
-27.793754 -43.963905 -7.693041
-27.963659 -42.084926 -8.853962
-27.278486 -43.245992 -9.745199
-27.545996 -43.609903 -8.70911
-18.809557 -38.250282 -26.13248
-19.135064 -39.260323 -25.518711
-19.349984 -38.005798 -25.455025
-18.223069 -38.390608 -26.833004
-18.809557 -38.250282 -26.13248
-29.55717 -44.630423 -0.231961
-28.983875 -45.789894 -1.221834
0.34895 5.33483 -59.90354
-0.053861 5.920115 -59.383358
0.289694 6.810075 -60.257562
0.395629 3.863291 -59.518147
0.34895 5.33483 -59.90354
-3.209969 21.836117 -57.485422
-3.139603 20.391727 -57.496628
-34.308628 -8.011918 24.786788
-34.518175 -5.932894 24.663191
-34.512346 -9.630543 23.923114
-34.095659 -10.071369 24.869528
-34.308628 -8.011918 24.786788
-33.803785 -33.774374 9.770689
-34.144008 -32.289462 10.817301
-33.42157 -35.275772 8.768755
-33.358744 -35.474558 9.876463
-33.803785 -33.774374 9.770689
-33.425092 -35.091995 7.719221
-32.980051 -36.792179 7.824995
-33.42157 -35.275772 8.768755
-5.269553 -25.363986 -43.546192
-5.748661 -26.891042 -42.82319
-5.816641 -25.752619 -42.761827
-3.119619 -11.605848 -48.868819
-2.967987 -10.222976 -49.491612
-2.634064 -10.939261 -49.71821
-3.312214 -13.087121 -48.185983
-3.119619 -11.605848 -48.868819
-2.997062 -13.783932 -48.430803
-3.52358 -14.548921 -47.52137
-3.312214 -13.087121 -48.185983
-1.239804 12.66004 -59.160703
-1.640769 11.698232 -58.38248
-1.735559 13.142411 -58.518896
1.009356 11.552181 -62.659687
1.035736 10.037097 -62.366035
0.6 10.572191 -61.749916
-16.392528 -44.354039 -29.100188
-16.820288 -44.08128 -28.39839
-15.060488 -44.70545 -31.137766
-15.496391 -44.50466 -30.481146
-14.933397 -43.109791 -31.171911
-14.583196 -44.709335 -31.891503
-15.060488 -44.70545 -31.137766
-13.93928 -43.186681 -32.635257
-14.02498 -44.585436 -32.698228
-14.583196 -44.709335 -31.891503
-12.129819 -38.767744 -34.712576
-12.679938 -40.162699 -34.079855
-12.674119 -38.889099 -33.964012
-11.535107 -37.353952 -35.38122
-12.129819 -38.767744 -34.712576
-34.447229 5.191379 26.509491
-34.192034 6.80793 27.343404
-36.35017 -20.033328 13.452257
-36.40826 -18.531075 14.436833
-35.973715 -22.062432 13.53576
-36.35017 -20.033328 13.452257
-26.488677 -41.801592 -12.653261
-26.106444 -43.371515 -12.439126
-26.756996 -42.324714 -11.706295
-1.12318 -4.348515 -54.123097
-1.482744 -3.668395 -53.780512
-1.06824 -2.809086 -54.745024
-1.185746 -11.082828 -51.925258
-1.597908 -11.804775 -51.046888
-1.405656 -10.203318 -51.796694
-20.103387 -42.370281 -23.591236
-20.55607 -42.070688 -22.933322
-37.258674 8.120376 19.248165
-37.405656 10.384489 18.91268
-28.434245 -44.964796 -4.505422
-28.645955 -45.198813 -3.441594
-28.92069 -43.378472 -4.576994
-28.231946 -44.70645 -5.543941
-28.434245 -44.964796 -4.505422
-1.399808 7.403214 -57.62619
-1.527281 8.885117 -57.861428
-1.120345 3.119034 -56.721502
-1.174134 4.578901 -57.111677
-0.746503 4.011383 -57.604607
-1.081908 1.726957 -56.307656
-1.120345 3.119034 -56.721502
-0.692765 1.109671 -56.715031
-1.081958 0.285112 -55.808255
-1.081908 1.726957 -56.307656
0.392829 -0.68687 -57.967165
0.035703 -0.081791 -57.549074
0.415099 0.874772 -58.546009
0.380056 -2.211996 -57.419497
0.392829 -0.68687 -57.967165
-36.744942 1.678665 20.100465
-36.518394 3.46032 20.953595
-36.922055 3.916859 19.870475
-36.162598 -4.340271 20.695692
-36.392864 -2.250889 20.470316
-36.570099 -4.024869 19.617784
-33.974921 -22.015165 21.757515
-33.889975 -20.355254 22.644877
-34.240265 -20.088408 21.635416
-34.061523 -23.513047 20.833174
-33.711233 -23.779893 21.842636
-33.974921 -22.015165 21.757515
-34.895063 -27.596967 13.816701
-35.06123 -26.021498 14.771701
-35.239497 -25.867513 13.698294
-32.083759 -40.459086 10.235693
-32.483825 -39.004576 11.225078
-32.503849 -38.792949 10.102458
-31.700758 -41.771782 9.285734
-32.083759 -40.459086 10.235693
-31.660137 -41.604971 8.194926
-31.700758 -41.771782 9.285734
-31.707418 -38.81512 1.390768
-32.274581 -37.491672 2.364574
-32.159053 -37.229286 1.170283
-30.485976 -39.072371 -3.985436
-30.65126 -39.344406 -2.95771
-30.301459 -38.699417 -5.060567
-29.81152 -40.303812 -4.954506
-30.485976 -39.072371 -3.985436
-29.583818 -37.680855 -8.297213
-29.817197 -38.057436 -7.272832
-29.323172 -37.259355 -9.31567
-28.851628 -38.887465 -9.189602
-29.583818 -37.680855 -8.297213
-28.351365 -36.279305 -12.263442
-28.75134 -36.514385 -11.230809
-27.959918 -35.948323 -13.257862
-27.624332 -37.383217 -13.040599
-28.351365 -36.279305 -12.263442
-23.186959 -43.524681 -18.206326
-23.717992 -42.835076 -17.505414
-22.888112 -42.82781 -18.998514
-23.186959 -43.524681 -18.206326
-23.117007 -41.521847 -19.07897
-22.591305 -42.16199 -19.740204
-22.888112 -42.82781 -18.998514
-2.193862 26.099187 -58.351087
-2.161719 27.431835 -58.143085
-1.60842 26.740454 -58.823519
-2.186643 24.70609 -58.485968
-2.193862 26.099187 -58.351087
-1.652979 23.948881 -59.160982
-2.199059 23.247165 -58.615429
-2.186643 24.70609 -58.485968
-14.816529 -33.924504 -31.448457
-15.290478 -35.05806 -30.775067
-12.873474 -33.742144 -33.653904
-13.521956 -33.94331 -32.911301
-12.275778 -33.660894 -34.378838
-12.729524 -35.045383 -33.776798
-12.873474 -33.742144 -33.653904
-9.777749 -33.00906 -37.470894
-10.369698 -34.537785 -36.742674
-10.370417 -33.257976 -36.700693
-7.960348 -30.818885 -39.804907
-7.998283 -29.649445 -39.739725
-7.440853 -29.381936 -40.489895
-8.560344 -32.422722 -39.070966
-7.960348 -30.818885 -39.804907
-4.347975 -18.974491 -45.479868
-4.598372 -18.196659 -45.291653
-4.031028 -17.569725 -46.165678
-4.134233 -19.84236 -45.645559
-4.701577 -20.469293 -44.771534
-4.347975 -18.974491 -45.479868
-2.282278 -16.31877 -48.963946
-2.494247 -15.392375 -48.812613
-2.041435 -14.80876 -49.636566
-22.06644 -36.914043 -22.199078
-22.277583 -37.590795 -21.699046
-22.552661 -36.569399 -21.636398
-21.836685 -36.085157 -22.735727
-21.561608 -37.106554 -22.798376
-22.06644 -36.914043 -22.199078
0.940337 14.442645 -63.009603
0.99248 13.019227 -62.87814
0.521477 13.510693 -62.175032
0.940337 14.442645 -63.009603
0.946824 15.819616 -63.136764
-27.035457 -42.807827 -10.691105
-27.278486 -43.245992 -9.745199
-27.41769 -41.237904 -10.90524
-26.756996 -42.324714 -11.706295
-27.035457 -42.807827 -10.691105
-0.401477 -5.519509 -54.936331
-0.748111 -4.91684 -54.541128
-0.362041 -4.091874 -55.482811
-0.487411 -7.130597 -54.266361
-0.401477 -5.519509 -54.936331
-0.590385 -8.699046 -53.606569
-0.890521 -7.912922 -53.334856
-0.487411 -7.130597 -54.266361
-0.745105 -10.231204 -52.895296
-0.590385 -8.699046 -53.606569
-17.718394 -38.594034 -27.482046
-18.089962 -39.708233 -26.845207
-18.223069 -38.390608 -26.833004
-17.272218 -37.384058 -28.169802
-17.139111 -38.701683 -28.182005
-17.718394 -38.594034 -27.482046
-28.808826 -45.499794 -2.351096
-28.983875 -45.789894 -1.221834
-29.285859 -43.937799 -2.447977
-28.645955 -45.198813 -3.441594
-28.808826 -45.499794 -2.351096
0.421918 2.380782 -59.067438
0.031683 2.96236 -58.578626
0.395629 3.863291 -59.518147
0.415099 0.874772 -58.546009
0.421918 2.380782 -59.067438
-3.088647 18.921232 -57.487387
-3.003651 17.318501 -57.415579
-2.565416 19.618509 -58.127642
-3.088647 18.921232 -57.487387
-3.139603 20.391727 -57.496628
-33.899309 -12.045165 24.939101
-34.095659 -10.071369 24.869528
-34.052103 -13.545101 24.185132
-33.899309 -12.045165 24.939101
-36.710788 -5.721646 18.810282
-36.570099 -4.024869 19.617784
-36.129796 -15.323522 17.420486
-36.428488 -13.275524 17.289488
-36.462486 -15.028635 16.36428
-34.433136 -30.754637 11.84207
-34.696272 -29.173246 12.835613
-34.030086 -32.438334 11.903164
-34.433136 -30.754637 11.84207
-34.144008 -32.289462 10.817301
-32.066851 -36.930955 0.036865
-32.159053 -37.229286 1.170283
-31.449186 -38.282391 -0.919784
-32.066851 -36.930955 0.036865
-24.608995 -42.685412 -15.955324
-24.920946 -43.260676 -15.047968
-24.30708 -42.161011 -16.773105
-24.608995 -42.685412 -15.955324
-24.893904 -41.36394 -16.054882
-24.002901 -41.513604 -17.604971
-23.717992 -42.835076 -17.505414
-24.30708 -42.161011 -16.773105
-0.96504 28.683324 -59.068935
-1.507529 29.392586 -58.346188
-0.896294 30.002809 -58.799606
-11.27621 -31.101401 -35.679075
-11.75526 -32.328444 -35.030741
-10.58847 -30.867256 -36.476812
-11.27621 -31.101401 -35.679075
-9.932309 -30.582266 -37.2885
-10.434631 -32.014242 -36.617226
-10.58847 -30.867256 -36.476812
-6.992674 -26.744672 -41.13064
-7.606407 -27.169579 -40.32181
-7.120292 -25.701754 -41.027737
-6.849334 -28.915526 -41.296951
-7.440853 -29.381936 -40.489895
-6.887269 -27.746085 -41.231769
-6.296641 -28.546993 -42.063242
-6.849334 -28.915526 -41.296951
-6.296641 -28.546993 -42.063242
-5.748661 -26.891042 -42.82319
-2.917436 -8.879739 -50.000258
-2.423144 -8.158006 -50.883541
-2.917436 -8.879739 -50.000258
-2.967987 -10.222976 -49.491612
-4.060078 -15.322001 -46.627007
-4.658345 -15.976712 -45.734963
-3.744927 -16.018813 -46.871826
-4.060078 -15.322001 -46.627007
-3.52358 -14.548921 -47.52137
-21.308206 -42.505558 -21.691804
-21.602016 -43.266913 -21.012435
-21.03702 -41.707428 -22.326138
-21.308206 -42.505558 -21.691804
-21.518161 -41.125763 -21.724824
-20.766025 -40.690893 -22.966342
-20.55607 -42.070688 -22.933322
-21.03702 -41.707428 -22.326138
-19.63819 -36.818371 -25.341105
-19.349984 -38.005798 -25.455025
-19.963697 -37.828412 -24.727336
-1.578152 10.33329 -58.147602
-1.640769 11.698232 -58.38248
-1.094143 9.767689 -58.738113
-1.527281 8.885117 -57.861428
-1.578152 10.33329 -58.147602
0.659442 7.640949 -61.117004
0.289694 6.810075 -60.257562
0.256631 8.226235 -60.596823
1.068358 8.605853 -62.07904
0.659442 7.640949 -61.117004
1.068358 8.605853 -62.07904
1.035736 10.037097 -62.366035
1.009356 11.552181 -62.659687
0.99248 13.019227 -62.87814
-15.920647 -44.36484 -29.786054
-16.392528 -44.354039 -29.100188
-15.841181 -42.898199 -29.829425
-15.920647 -44.36484 -29.786054
-15.496391 -44.50466 -30.481146
-13.549786 -44.656269 -33.4468
-14.02498 -44.585436 -32.698228
-12.8707 -43.093109 -34.197409
-13.549786 -44.656269 -33.4468
-12.758351 -41.552063 -34.1352
-13.302651 -41.673418 -33.386637
-12.679938 -40.162699 -34.079855
-12.8707 -43.093109 -34.197409
-12.758351 -41.552063 -34.1352
-34.703587 3.644513 25.705962
-34.447229 5.191379 26.509491
-34.837904 5.691581 25.590512
-34.523111 1.499636 25.871961
-34.703587 3.644513 25.705962
-34.913786 1.999838 24.952982
-34.307579 -0.492746 26.115934
-34.523111 1.499636 25.871961
-34.522173 -2.219868 25.302495
-34.307579 -0.492746 26.115934
-34.742699 -3.87533 24.490167
-34.522173 -2.219868 25.302495
-34.953837 -1.800501 24.306654
-34.949838 -5.513528 23.66735
-34.518175 -5.932894 24.663191
-34.742699 -3.87533 24.490167
-36.441274 -16.815399 15.457633
-36.462486 -15.028635 16.36428
-36.130781 -18.792309 15.474478
-36.441274 -16.815399 15.457633
-36.40826 -18.531075 14.436833
-35.627663 -23.954462 13.635568
-35.751715 -22.400014 14.553486
-35.973715 -22.062432 13.53576
-35.239497 -25.867513 13.698294
-35.627663 -23.954462 13.635568
-25.508107 -44.257377 -13.241395
-26.106444 -43.371515 -12.439126
-25.242099 -43.740702 -14.122464
-25.508107 -44.257377 -13.241395
-25.516973 -42.368366 -14.311596
-24.920946 -43.260676 -15.047968
-25.242099 -43.740702 -14.122464
-0.259587 30.603491 -59.130747
-0.896294 30.002809 -58.799606
0.262222 29.972601 -59.873075
-0.259587 30.603491 -59.130747
0.834524 29.415531 -60.687928
0.218497 28.736477 -60.337206
0.262222 29.972601 -59.873075
-6.710139 -24.289679 -41.690901
-7.120292 -25.701754 -41.027737
-6.104826 -23.780508 -42.510685
-6.710139 -24.289679 -41.690901
-5.520313 -23.254866 -43.334816
-5.922046 -24.751206 -42.660698
-6.104826 -23.780508 -42.510685
-1.906287 -4.51941 -52.864418
-1.482744 -3.668395 -53.780512
-1.95077 -5.983724 -52.292332
-1.906287 -4.51941 -52.864418
-1.968641 -7.398653 -51.795842
-1.95077 -5.983724 -52.292332
-1.555556 -6.622753 -52.662095
-2.027929 -8.797035 -51.253304
-2.423144 -8.158006 -50.883541
-1.968641 -7.398653 -51.795842
-1.815701 -13.283325 -50.330343
-2.035611 -12.403816 -50.201779
-1.597908 -11.804775 -51.046888
-2.041435 -14.80876 -49.636566
-1.815701 -13.283325 -50.330343
-1.185746 -11.082828 -51.925258
-0.745105 -10.231204 -52.895296
-19.601053 -42.62544 -24.270519
-20.103387 -42.370281 -23.591236
-19.782741 -41.309313 -24.252809
-19.495711 -43.960211 -24.254635
-19.601053 -42.62544 -24.270519
-19.175065 -42.899242 -24.916207
-19.398263 -45.296921 -24.221285
-19.495711 -43.960211 -24.254635
-19.00502 -45.70447 -24.898076
-19.398263 -45.296921 -24.221285
-18.566643 -46.07995 -25.578744
-19.00502 -45.70447 -24.898076
-18.631346 -44.609493 -25.580992
-18.200245 -46.479687 -26.246875
-18.566643 -46.07995 -25.578744
-17.760241 -45.130068 -26.95744
-18.200245 -46.479687 -26.246875
-17.34469 -43.95158 -27.636279
-17.760241 -45.130068 -26.95744
-17.777418 -43.806486 -26.940499
-16.837464 -42.757698 -28.381448
-16.820288 -44.08128 -28.39839
-17.34469 -43.95158 -27.636279
-37.088646 5.971554 19.596633
-36.865536 7.847336 20.375136
-37.258674 8.120376 19.248165
-36.922055 3.916859 19.870475
-37.088646 5.971554 19.596633
-28.037365 -44.299549 -6.591861
-28.231946 -44.70645 -5.543941
-28.47478 -42.784481 -6.716692
-27.793754 -43.963905 -7.693041
-28.037365 -44.299549 -6.591861
-1.278318 5.979081 -57.397611
-1.399808 7.403214 -57.62619
-0.921782 6.895383 -58.22336
-1.278318 5.979081 -57.397611
-1.174134 4.578901 -57.111677
-1.06031 -1.230571 -55.309034
-1.081958 0.285112 -55.808255
-0.700746 -1.91069 -55.651619
-1.06824 -2.809086 -54.745024
-1.06031 -1.230571 -55.309034
-0.000987 -3.168988 -56.424122
-0.362041 -4.091874 -55.482811
-0.347621 -2.566319 -56.028919
-0.000987 -3.168988 -56.424122
0.380056 -2.211996 -57.419497
-34.356779 8.913083 27.082349
-34.192034 6.80793 27.343404
-34.752573 9.314296 26.07104
-34.356779 8.913083 27.082349
-35.163069 9.675238 25.050638
-34.992042 7.59939 25.373639
-34.752573 9.314296 26.07104
-35.538829 10.138094 24.077359
-35.163069 9.675238 25.050638
-35.9563 10.725234 23.013136
-35.820009 8.547473 23.289014
-35.538829 10.138094 24.077359
-36.34692 11.240623 21.955011
-35.9563 10.725234 23.013136
-36.745962 11.671396 20.85595
-36.636522 9.565385 21.12573
-36.34692 11.240623 21.955011
-37.152529 12.192566 19.671474
-36.745962 11.671396 20.85595
-37.405656 10.384489 18.91268
-37.152529 12.192566 19.671474
-1.865959 14.628101 -58.607664
-1.735559 13.142411 -58.518896
-2.455892 16.649999 -58.018305
-3.003651 17.318501 -57.415579
-1.940173 16.048285 -58.678539
-2.455892 16.649999 -58.018305
-1.998742 17.5463 -58.778635
-1.408809 15.524402 -59.367994
-1.865959 14.628101 -58.607664
-1.940173 16.048285 -58.678539
-36.570824 -0.35668 20.287997
-36.744942 1.678665 20.100465
-36.163322 -0.672082 21.365905
-36.570824 -0.35668 20.287997
-36.392864 -2.250889 20.470316
-36.485012 -7.766011 18.951276
-36.710788 -5.721646 18.810282
-36.362995 -11.494091 18.202544
-36.428488 -13.275524 17.289488
-36.233921 -9.761268 19.165062
-36.362995 -11.494091 18.202544
-35.966724 -11.837589 19.308213
-36.088741 -8.109509 20.056945
-36.485012 -7.766011 18.951276
-36.233921 -9.761268 19.165062
-34.201622 -15.176521 23.361232
-34.052103 -13.545101 24.185132
-34.448896 -13.321414 23.181953
-33.980074 -16.914352 23.443594
-34.201622 -15.176521 23.361232
-34.376867 -16.690666 22.440416
-33.779731 -18.944691 23.426046
-33.980074 -16.914352 23.443594
-33.779731 -18.944691 23.426046
-33.889975 -20.355254 22.644877
-33.469535 -25.629337 21.905825
-33.711233 -23.779893 21.842636
-33.504953 -27.112093 21.047653
-33.469535 -25.629337 21.905825
-33.476748 -28.74018 20.198565
-33.504953 -27.112093 21.047653
-33.76963 -26.905862 20.069207
-33.435732 -30.313454 19.302295
-33.476748 -28.74018 20.198565
-33.35588 -31.851225 18.377639
-33.435732 -30.313454 19.302295
-33.661574 -30.07172 18.295462
-33.268946 -33.292108 17.380311
-33.35588 -31.851225 18.377639
-34.518006 -29.32723 13.90902
-34.895063 -27.596967 13.816701
-34.696272 -29.173246 12.835613
-33.11096 -34.848152 16.330644
-33.268946 -33.292108 17.380311
-33.423737 -33.165536 16.321138
-32.914414 -36.363843 15.360477
-33.11096 -34.848152 16.330644
-32.663925 -37.84244 14.365406
-32.914414 -36.363843 15.360477
-33.015263 -36.200178 14.276401
-32.376847 -39.328097 13.426289
-32.663925 -37.84244 14.365406
-32.414255 -39.174744 12.319821
-32.834345 -37.508608 12.186587
-32.483825 -39.004576 11.225078
-32.376847 -39.328097 13.426289
-32.414255 -39.174744 12.319821
-31.657208 -41.378218 7.13844
-31.660137 -41.604971 8.194926
-32.100855 -40.020706 8.056587
-31.136702 -42.842415 6.22161
-31.657208 -41.378218 7.13844
-31.577421 -41.25815 6.08327
-30.611075 -44.242403 5.219321
-31.136702 -42.842415 6.22161
-30.536376 -43.953613 4.145253
-30.611075 -44.242403 5.219321
-30.473648 -43.644051 3.007402
-30.536376 -43.953613 4.145253
-30.994187 -42.412785 4.028589
-30.298534 -43.562643 1.892147
-30.473648 -43.644051 3.007402
-33.463184 -34.847931 6.701992
-33.425092 -35.091995 7.719221
-32.941067 -36.442043 5.653458
-33.463184 -34.847931 6.701992
-32.437451 -37.904358 4.714322
-32.479957 -38.070717 5.836327
-32.941067 -36.442043 5.653458
-32.360754 -37.676595 3.558257
-32.274581 -37.491672 2.364574
-31.899644 -39.305269 3.741125
-32.437451 -37.904358 4.714322
-32.360754 -37.676595 3.558257
-30.166466 -43.376984 0.770895
-30.298534 -43.562643 1.892147
-30.799391 -41.917563 1.769486
-30.058026 -42.985342 -0.354622
-29.55717 -44.630423 -0.231961
-30.166466 -43.376984 0.770895
-30.84289 -39.594684 -1.833302
-30.985594 -39.865028 -0.717041
-31.449186 -38.282391 -0.919784
-30.187668 -40.927043 -2.754968
-30.84289 -39.594684 -1.833302
-30.65126 -39.344406 -2.95771
-30.074562 -38.368384 -6.202078
-30.301459 -38.699417 -5.060567
-29.369639 -39.619912 -7.10039
-30.074562 -38.368384 -6.202078
-29.817197 -38.057436 -7.272832
-29.038942 -36.890268 -10.311749
-29.323172 -37.259355 -9.31567
-28.30338 -38.090082 -11.127119
-29.038942 -36.890268 -10.311749
-28.75134 -36.514385 -11.230809
-27.572693 -35.606659 -14.210902
-27.959918 -35.948323 -13.257862
-26.882899 -36.616478 -14.908877
-27.572693 -35.606659 -14.210902
-26.19324 -37.669605 -15.616526
-26.543226 -38.105362 -14.742667
-26.882899 -36.616478 -14.908877
-25.873261 -37.123005 -16.443086
-25.533589 -38.611889 -16.276877
-26.19324 -37.669605 -15.616526
-25.489974 -36.747509 -17.260209
-25.873261 -37.123005 -16.443086
-25.12021 -36.26638 -18.059559
-24.843846 -37.58416 -17.902787
-25.489974 -36.747509 -17.260209
-24.723789 -35.889691 -18.826356
-25.12021 -36.26638 -18.059559
-24.383002 -35.414459 -19.513146
-24.133296 -36.6278 -19.388928
-24.723789 -35.889691 -18.826356
-23.925582 -35.228651 -20.231423
-24.383002 -35.414459 -19.513146
-23.488093 -35.845894 -20.604598
-23.925582 -35.228651 -20.231423
-22.075879 -42.695923 -20.375119
-21.602016 -43.266913 -21.012435
-22.304773 -41.38996 -20.455575
-22.075879 -42.695923 -20.375119
-22.591305 -42.16199 -19.740204
-23.488093 -35.845894 -20.604598
-22.97374 -36.392685 -21.134922
-23.278156 -36.69936 -20.606042
-2.114496 28.833962 -57.964312
-1.507529 29.392586 -58.346188
-2.114496 28.833962 -57.964312
-2.161719 27.431835 -58.143085
-2.674547 22.546689 -58.038648
-3.209969 21.836117 -57.485422
-2.140883 21.789479 -58.713663
-2.674547 22.546689 -58.038648
-2.199059 23.247165 -58.615429
1.425254 28.942323 -61.519621
0.834524 29.415531 -60.687928
1.296082 27.710576 -61.932308
1.425254 28.942323 -61.519621
1.197124 26.419632 -62.22665
0.691842 26.888463 -61.4464
1.296082 27.710576 -61.932308
1.119846 25.121942 -62.565022
1.197124 26.419632 -62.22665
1.041976 23.851841 -62.735663
0.515014 24.327417 -61.911383
1.119846 25.121942 -62.565022
0.966753 22.503787 -62.928862
1.041976 23.851841 -62.735663
0.966208 21.207587 -63.081066
0.4366 21.761116 -62.234229
0.966753 22.503787 -62.928862
0.938229 19.936937 -63.178242
0.966208 21.207587 -63.081066
0.931869 18.506382 -63.195942
0.429696 19.034361 -62.404133
0.938229 19.936937 -63.178242
0.923825 17.154463 -63.194433
0.931869 18.506382 -63.195942
-21.721347 -35.225988 -23.144678
-21.836685 -36.085157 -22.735727
-21.145077 -35.371037 -23.811886
-21.721347 -35.225988 -23.144678
-20.605103 -35.552695 -24.45108
-20.791877 -36.459326 -23.974221
-21.145077 -35.371037 -23.811886
-19.987018 -35.638817 -25.169837
-20.605103 -35.552695 -24.45108
-19.63819 -36.818371 -25.341105
-19.987018 -35.638817 -25.169837
-16.960458 -36.190462 -28.722087
-17.272218 -37.384058 -28.169802
-16.309293 -36.207825 -29.464517
-16.960458 -36.190462 -28.722087
-15.759799 -36.275574 -30.133952
-16.143442 -37.559456 -29.539197
-16.309293 -36.207825 -29.464517
-15.124626 -36.409691 -30.849746
-15.759799 -36.275574 -30.133952
-15.290478 -35.05806 -30.775067
-14.185999 -33.976082 -32.130798
-14.816529 -33.924504 -31.448457
-13.991263 -35.159405 -32.271363
-14.185999 -33.976082 -32.130798
-13.521956 -33.94331 -32.911301
-11.61131 -33.631683 -35.153635
-12.275778 -33.660894 -34.378838
-11.75526 -32.328444 -35.030741
-10.95429 -36.000231 -36.06909
-11.535107 -37.353952 -35.38122
-11.543183 -36.140422 -35.284603
-10.95429 -36.000231 -36.06909
-10.369698 -34.537785 -36.742674
-9.230649 -30.294272 -38.148043
-9.932309 -30.582266 -37.2885
-8.080809 -28.535895 -39.645942
-7.606407 -27.169579 -40.32181
-8.600304 -29.972843 -38.960954
-8.080809 -28.535895 -39.645942
-7.998283 -29.649445 -39.739725
-9.148124 -31.407823 -38.241825
-9.230649 -30.294272 -38.148043
-8.600304 -29.972843 -38.960954
-9.147404 -32.68763 -38.283806
-9.777749 -33.00906 -37.470894
-9.148124 -31.407823 -38.241825
-9.147404 -32.68763 -38.283806
-8.560344 -32.422722 -39.070966
-4.880527 -17.31891 -45.12562
-4.658345 -15.976712 -45.734963
-4.880527 -17.31891 -45.12562
-4.598372 -18.196659 -45.291653
-5.095464 -21.810665 -44.061014
-4.701577 -20.469293 -44.771534
-4.912684 -22.781363 -44.211027
-5.520313 -23.254866 -43.334816
-5.095464 -21.810665 -44.061014
-2.594898 -17.972478 -48.209113
-2.282278 -16.31877 -48.963946
-3.084629 -18.552697 -47.374927
-2.594898 -17.972478 -48.209113
-3.6074 -19.275283 -46.481878
-3.257861 -17.62497 -47.246943
-3.084629 -18.552697 -47.374927
-3.961002 -20.770086 -45.773544
-4.134233 -19.84236 -45.645559
-3.6074 -19.275283 -46.481878
-4.35841 -22.343336 -45.039383
-3.961002 -20.770086 -45.773544
-4.783259 -23.787537 -44.313185
-4.912684 -22.781363 -44.211027
-4.35841 -22.343336 -45.039383
-5.269553 -25.363986 -43.546192
-4.783259 -23.787537 -44.313185
3 168 167 43
3 0 47 45
3 0 169 171
3 171 170 47
3 169 170 171
3 2 50 48
3 2 52 50
3 1 55 53
3 3 172 173
3 3 174 176
3 174 56 175
3 174 175 176
3 177 60 178
3 179 178 58
3 177 178 179
3 181 180 60
3 182 62 183
3 184 65 185
3 186 185 63
3 184 185 186
3 188 187 65
3 189 68 190
3 4 191 192
3 4 193 195
3 193 69 194
3 193 194 195
3 5 72 70
3 5 74 72
3 5 76 74
3 196 78 197
3 198 80 199
3 200 199 78
3 198 199 200
3 201 82 202
3 203 202 80
3 201 202 203
3 6 84 83
3 6 86 84
3 7 89 87
3 7 91 89
3 8 95 93
3 8 204 206
3 206 205 95
3 204 205 206
3 9 207 209
3 209 208 96
3 207 208 209
3 9 210 211
3 9 212 214
3 212 98 213
3 212 213 214
3 10 100 99
3 12 101 44
3 12 102 101
3 13 215 217
3 215 103 216
3 215 216 217
3 15 104 46
3 15 105 104
3 15 218 220
3 220 219 105
3 218 219 220
3 16 221 222
3 17 223 225
3 225 224 49
3 223 224 225
3 17 226 227
3 17 228 230
3 228 106 229
3 228 229 230
3 18 231 233
3 233 232 51
3 231 232 233
3 18 234 235
3 19 236 237
3 20 107 54
3 20 108 107
3 238 109 239
3 241 240 109
3 21 242 244
3 242 111 243
3 242 243 244
3 21 112 111
3 22 245 247
3 245 113 246
3 245 246 247
3 23 114 57
3 23 115 114
3 23 248 250
3 250 249 115
3 248 249 250
3 11 251 252
3 24 117 59
3 24 118 117
3 24 119 118
3 25 120 61
3 25 121 120
3 254 253 122
3 26 255 256
3 26 257 259
3 257 124 258
3 257 258 259
3 14 260 261
3 27 262 264
3 264 263 64
3 262 263 264
3 27 265 266
3 27 267 269
3 267 125 268
3 267 268 269
3 270 126 271
3 272 271 66
3 270 271 272
3 274 273 126
3 28 127 67
3 28 128 127
3 275 129 276
3 277 276 123
3 275 276 277
3 29 278 280
3 278 130 279
3 278 279 280
3 29 131 130
3 30 132 71
3 30 133 132
3 30 134 133
3 31 135 73
3 31 281 283
3 283 282 135
3 281 282 283
3 31 284 286
3 284 136 285
3 284 285 286
3 32 137 75
3 32 138 137
3 287 139 288
3 289 288 110
3 287 288 289
3 33 140 77
3 33 141 140
3 33 142 141
3 34 290 292
3 292 291 79
3 290 291 292
3 34 293 294
3 34 295 296
3 35 143 81
3 35 144 143
3 36 297 299
3 297 145 298
3 297 298 299
3 36 146 145
3 36 147 146
3 300 148 301
3 302 149 303
3 304 303 148
3 302 303 304
3 305 150 306
3 307 151 308
3 309 308 150
3 307 308 309
3 310 152 311
3 312 153 313
3 314 313 152
3 312 313 314
3 38 315 316
3 38 317 318
3 38 319 321
3 319 155 320
3 319 320 321
3 37 156 85
3 37 154 156
3 39 322 324
3 324 323 88
3 322 323 324
3 39 325 326
3 39 327 329
3 327 157 328
3 327 328 329
3 40 158 90
3 40 159 158
3 330 160 331
3 332 161 333
3 334 162 335
3 336 335 161
3 334 335 336
3 41 163 92
3 41 337 339
3 339 338 163
3 337 338 339
3 340 164 341
3 342 341 94
3 340 341 342
3 344 343 164
3 42 345 347
3 347 346 97
3 345 346 347
3 42 348 350
3 348 165 349
3 348 349 350
3 351 166 352
3 353 352 116
3 351 352 353
3 43 44 10
3 354 44 355
3 356 355 43
3 354 355 356
3 357 12 358
3 359 358 44
3 357 358 359
3 45 46 13
3 47 46 45
3 47 15 46
3 47 360 362
3 362 361 15
3 360 361 362
3 364 363 47
3 48 49 16
3 50 49 48
3 50 17 49
3 50 51 17
3 52 51 50
3 52 18 51
3 53 54 19
3 55 54 53
3 55 20 54
3 56 365 366
3 56 367 369
3 367 21 368
3 367 368 369
3 370 57 371
3 372 371 22
3 370 371 372
3 373 57 374
3 375 23 376
3 377 376 57
3 375 376 377
3 379 378 23
3 58 59 11
3 60 59 58
3 60 24 59
3 60 61 24
3 380 61 381
3 382 381 60
3 380 381 382
3 383 25 384
3 385 384 61
3 383 384 385
3 62 386 387
3 62 388 390
3 388 26 389
3 388 389 390
3 63 64 14
3 65 64 63
3 65 27 64
3 65 66 27
3 391 66 392
3 393 392 65
3 391 392 393
3 395 394 66
3 396 67 397
3 68 398 400
3 398 67 399
3 398 399 400
3 68 28 67
3 69 401 402
3 69 403 404
3 405 29 406
3 70 407 409
3 407 71 408
3 407 408 409
3 72 71 70
3 72 30 71
3 72 73 30
3 74 73 72
3 74 31 73
3 74 75 31
3 76 75 74
3 76 32 75
3 410 77 411
3 78 412 414
3 412 77 413
3 412 413 414
3 78 33 77
3 78 79 33
3 80 79 78
3 80 34 79
3 80 81 34
3 82 81 80
3 82 35 81
3 415 36 416
3 418 417 36
3 83 419 420
3 84 421 423
3 423 422 83
3 421 422 423
3 84 424 426
3 424 38 425
3 424 425 426
3 84 85 38
3 86 85 84
3 86 37 85
3 87 427 429
3 427 88 428
3 427 428 429
3 89 88 87
3 89 39 88
3 89 90 39
3 91 90 89
3 91 40 90
3 430 92 431
3 432 92 433
3 434 41 435
3 436 435 92
3 434 435 436
3 93 437 439
3 437 94 438
3 437 438 439
3 95 94 93
3 95 440 442
3 442 441 94
3 440 441 442
3 95 443 444
3 446 445 95
3 96 447 448
3 450 449 96
3 451 97 452
3 98 453 455
3 453 97 454
3 453 454 455
3 98 42 97
3 99 456 457
3 100 458 460
3 460 459 99
3 458 459 460
3 100 461 463
3 461 11 462
3 461 462 463
3 44 100 10
3 101 100 44
3 101 11 100
3 101 58 11
3 102 58 101
3 102 464 466
3 466 465 58
3 464 465 466
3 103 467 468
3 103 469 471
3 469 14 470
3 469 470 471
3 46 103 13
3 104 103 46
3 104 14 103
3 104 63 14
3 105 63 104
3 105 472 474
3 474 473 63
3 472 473 474
3 105 475 476
3 478 477 105
3 480 479 15
3 49 481 483
3 483 482 16
3 481 482 483
3 485 484 49
3 106 486 487
3 106 488 489
3 51 106 17
3 490 106 491
3 492 491 51
3 490 491 492
3 494 493 106
3 54 495 497
3 497 496 19
3 495 496 497
3 107 498 500
3 500 499 54
3 498 499 500
3 107 501 502
3 107 503 504
3 108 505 507
3 507 506 107
3 505 506 507
3 108 508 510
3 508 4 509
3 508 509 510
3 511 70 512
3 109 513 515
3 513 70 514
3 513 514 515
3 109 5 70
3 109 110 5
3 516 110 517
3 518 517 109
3 516 517 518
3 520 519 110
3 111 521 522
3 111 523 524
3 111 525 527
3 525 83 526
3 525 526 527
3 112 83 111
3 112 6 83
3 528 87 529
3 530 87 531
3 532 7 533
3 534 533 87
3 532 533 534
3 535 93 536
3 537 93 538
3 539 8 540
3 541 540 93
3 539 540 541
3 113 542 543
3 113 544 545
3 57 113 22
3 114 113 57
3 114 546 548
3 548 547 113
3 546 547 548
3 114 549 551
3 549 96 550
3 549 550 551
3 115 96 114
3 115 9 96
3 115 116 9
3 552 116 553
3 554 553 115
3 552 553 554
3 556 555 116
3 558 557 23
3 59 559 561
3 561 560 11
3 559 560 561
3 117 562 564
3 564 563 59
3 562 563 564
3 117 565 566
3 117 567 568
3 118 569 571
3 571 570 117
3 569 570 571
3 118 572 573
3 118 574 575
3 119 576 578
3 578 577 118
3 576 577 578
3 119 579 581
3 579 16 580
3 579 580 581
3 61 119 24
3 120 119 61
3 120 16 119
3 120 48 16
3 121 48 120
3 121 2 48
3 122 123 1
3 582 123 583
3 584 583 122
3 582 583 584
3 586 585 123
3 124 587 588
3 124 589 591
3 589 3 590
3 589 590 591
3 64 592 594
3 594 593 14
3 592 593 594
3 596 595 64
3 125 597 598
3 125 599 601
3 599 22 600
3 599 600 601
3 66 125 27
3 126 125 66
3 126 22 125
3 126 602 604
3 604 603 22
3 602 603 604
3 606 605 126
3 607 19 608
3 609 19 610
3 611 53 612
3 613 612 19
3 611 612 613
3 614 53 615
3 616 1 617
3 618 617 53
3 616 617 618
3 619 1 620
3 621 122 622
3 623 622 1
3 621 622 623
3 624 122 625
3 627 626 122
3 628 13 629
3 67 630 631
3 127 632 634
3 634 633 67
3 632 633 634
3 127 635 637
3 635 13 636
3 635 636 637
3 127 45 13
3 128 45 127
3 128 0 45
3 123 55 1
3 129 55 123
3 129 20 55
3 638 129 639
3 130 640 642
3 640 129 641
3 640 641 642
3 130 20 129
3 130 108 20
3 131 108 130
3 131 4 108
3 643 29 644
3 71 645 646
3 132 647 649
3 649 648 71
3 647 648 649
3 132 650 652
3 650 29 651
3 650 651 652
3 132 131 29
3 133 131 132
3 133 4 131
3 133 69 4
3 134 69 133
3 134 653 655
3 655 654 69
3 653 654 655
3 73 134 30
3 135 134 73
3 135 656 658
3 658 657 134
3 656 657 658
3 135 659 660
3 662 661 135
3 136 663 664
3 136 665 666
3 75 136 31
3 137 136 75
3 137 667 669
3 669 668 136
3 667 668 669
3 137 670 671
3 138 672 674
3 674 673 137
3 672 673 674
3 138 675 676
3 110 76 5
3 139 76 110
3 139 32 76
3 77 677 679
3 677 139 678
3 677 678 679
3 140 139 77
3 140 32 139
3 140 138 32
3 141 138 140
3 141 680 682
3 682 681 138
3 680 681 682
3 141 683 684
3 142 685 687
3 687 686 141
3 685 686 687
3 142 688 689
3 79 142 33
3 690 142 691
3 692 691 79
3 690 691 692
3 694 693 142
3 81 695 697
3 697 696 34
3 695 696 697
3 143 698 700
3 700 699 81
3 698 699 700
3 143 701 702
3 143 703 704
3 144 705 707
3 707 706 143
3 705 706 707
3 144 708 709
3 710 82 711
3 712 82 713
3 714 35 715
3 716 715 82
3 714 715 716
3 145 717 718
3 145 719 721
3 719 35 720
3 719 720 721
3 145 144 35
3 146 144 145
3 146 722 724
3 724 723 144
3 722 723 724
3 146 725 727
3 725 62 726
3 725 726 727
3 147 62 146
3 147 26 62
3 728 147 729
3 730 729 36
3 728 729 730
3 148 731 733
3 731 147 732
3 731 732 733
3 148 26 147
3 148 124 26
3 149 124 148
3 149 3 124
3 734 149 735
3 150 736 738
3 736 149 737
3 736 737 738
3 150 3 149
3 150 56 3
3 151 56 150
3 151 21 56
3 739 151 740
3 152 741 743
3 741 151 742
3 741 742 743
3 152 21 151
3 152 112 21
3 153 112 152
3 153 6 112
3 744 153 745
3 746 153 747
3 748 6 749
3 750 749 153
3 748 749 750
3 751 86 752
3 753 752 6
3 751 752 753
3 754 86 755
3 756 37 757
3 758 757 86
3 756 757 758
3 759 37 760
3 761 154 762
3 763 762 37
3 761 762 763
3 764 154 765
3 767 766 154
3 768 99 769
3 155 770 772
3 770 99 771
3 770 771 772
3 155 10 99
3 85 155 38
3 156 155 85
3 156 10 155
3 156 43 10
3 154 43 156
3 154 773 775
3 775 774 43
3 773 774 775
3 88 776 777
3 779 778 88
3 780 68 781
3 157 782 784
3 782 68 783
3 782 783 784
3 157 28 68
3 90 157 39
3 158 157 90
3 158 28 157
3 158 128 28
3 159 128 158
3 159 0 128
3 785 7 786
3 787 7 788
3 789 91 790
3 791 790 7
3 789 790 791
3 792 91 793
3 794 40 795
3 796 795 91
3 794 795 796
3 797 40 798
3 799 159 800
3 801 800 40
3 799 800 801
3 802 159 803
3 804 0 805
3 806 805 159
3 804 805 806
3 808 807 0
3 809 12 810
3 811 12 812
3 813 102 814
3 815 814 12
3 813 814 815
3 816 102 817
3 819 818 102
3 820 25 821
3 822 25 823
3 824 121 825
3 826 825 25
3 824 825 826
3 160 827 829
3 827 121 828
3 827 828 829
3 160 2 121
3 830 160 831
3 161 832 834
3 832 160 833
3 832 833 834
3 161 2 160
3 161 52 2
3 162 52 161
3 162 18 52
3 92 835 837
3 835 162 836
3 835 836 837
3 163 162 92
3 163 18 162
3 163 838 840
3 840 839 18
3 838 839 840
3 842 841 163
3 843 41 844
3 94 845 846
3 164 847 849
3 849 848 94
3 847 848 849
3 164 850 852
3 850 41 851
3 850 851 852
3 164 853 855
3 855 854 41
3 853 854 855
3 857 856 164
3 97 858 859
3 861 860 97
3 165 862 863
3 165 864 866
3 864 8 865
3 864 865 866
3 116 98 9
3 166 98 116
3 166 42 98
3 867 166 868
3 869 166 870
3 871 42 872
3 873 872 166
3 871 872 873
3 874 165 875
3 876 875 42
3 874 875 876
3 877 165 878
3 879 8 880
3 881 880 165
3 879 880 881
3 883 882 8
