ply
format ascii 1.0
element vertex 537
property float x
property float y
property float z
element face 550
property list uchar int vertex_index
end_header
67.789528 -19.42757 -4.882795
53.305443 2.402288 -22.084528
66.71154 -36.576942 9.539516
63.965462 -0.755936 -21.70075
62.7286 -5.35404 -12.15044
66.240753 -10.14474 -12.23649
56.666946 13.048172 -31.578508
67.711342 -27.481136 -5.194647
67.842949 -28.599941 1.464077
70.333076 -34.907848 1.982778
66.102036 -42.444275 4.71163
60.919006 4.468479 -21.606199
61.044731 8.403227 -32.319397
65.541794 -16.67967 -4.462595
65.636208 -11.783588 -7.978813
67.167519 -14.792255 -8.300333
53.37825 12.041252 -30.935751
55.764919 8.287928 -26.542128
65.824829 -32.156998 -4.684864
67.353683 -32.869049 5.161615
70.039818 -31.504375 1.472455
70.094284 -35.409908 5.490618
64.345375 -1.95623 -16.558691
62.132408 -0.389553 -16.743315
63.079865 2.904829 -21.509916
61.415085 7.588531 -26.707346
62.676083 3.919903 -26.954645
65.219803 -6.870772 -12.010786
65.141502 -5.465304 -16.737249
53.562653 16.346558 -36.356873
68.486488 -23.136843 -5.201164
67.1968 -18.93733 -8.604527
65.996208 -23.76646 -8.655993
68.016365 -24.053947 -1.754248
69.492043 -27.348701 -1.979799
69.25943 -31.216129 -1.774969
67.54557 -35.398148 -0.987095
70.812065 -38.395672 6.296448
68.846283 -38.614288 3.078235
64.883797 -39.664177 0.405643
57.537445 3.960196 -21.978415
59.106735 9.019344 -26.601233
59.223618 11.903868 -31.983774
63.839989 -5.936949 -21.831251
66.851677 -17.913645 -4.670265
66.778801 -15.516396 -6.339413
67.524063 -17.110308 -6.536837
52.576557 4.561346 -24.048204
53.796394 7.450359 -26.358332
54.720745 5.389084 -24.260263
64.632828 -34.538555 -4.2103
67.039024 -34.811123 7.264485
68.960464 -34.080284 5.269596
68.740936 -35.947411 7.454334
64.322556 -1.086798 -19.059416
63.759285 0.48698 -18.993235
63.672356 1.308258 -21.586927
62.959152 3.678213 -24.183455
63.344711 1.593655 -24.302916
66.303566 -10.715299 -10.040644
65.489853 -9.328835 -9.926815
65.918221 -8.310637 -12.099409
65.451591 -5.902764 -14.297066
65.704758 -7.809825 -14.420038
55.104267 12.75095 -31.316702
53.645164 14.420033 -33.591286
55.198296 14.802151 -34.005981
54.993965 16.286243 -36.807045
56.6091 14.636238 -34.328072
68.266129 -25.249479 -5.251139
67.503021 -23.269215 -6.924158
66.850639 -25.622429 -6.896166
67.976463 -26.346193 -0.182716
68.967422 -25.615007 -1.908077
69.123596 -27.815626 -0.29372
70.427704 -33.154926 1.657136
70.074455 -31.206337 -0.202698
69.868149 -33.076073 0.041975
68.560074 -33.283966 -1.458982
69.245407 -35.021793 0.438055
70.67466 -38.548645 8.14841
68.032722 -41.998871 6.083841
69.277237 -40.184631 5.284491
67.587715 -40.521553 3.836453
67.002052 -39.02927 1.687129
65.546326 -41.050011 2.516439
61.600677 2.064314 -19.149469
60.029289 2.066389 -19.384005
59.364311 4.434208 -21.780344
58.537544 6.713205 -24.188868
60.088486 6.796 -24.096148
61.262688 8.261147 -29.495821
60.39679 9.806341 -29.346277
60.217323 10.420296 -32.168854
58.994537 12.447752 -34.825027
59.991493 10.495626 -34.991707
64.239838 -8.183664 -19.327829
64.178322 -13.301428 -6.04356
65.653488 -14.234179 -6.162401
66.594116 -13.11694 -8.12319
52.729065 9.374224 -28.395132
54.645935 10.246292 -28.769384
56.406933 10.895393 -28.97611
66.875641 -29.794851 -5.010763
65.966568 -28.057095 -6.753082
67.629234 -30.786053 3.233824
69.169029 -29.980267 1.414013
69.110046 -32.079781 3.259053
70.124687 -33.503624 3.398748
70.638611 -35.046135 3.665154
63.848625 -3.392674 -14.251102
62.510147 -2.868872 -14.404774
63.414574 -0.913193 -16.589777
62.851837 1.546427 -19.015841
62.163631 3.967701 -21.510717
61.348427 6.328239 -24.055254
62.302711 5.279408 -24.088236
62.165215 6.003992 -26.826975
61.924164 6.199621 -29.633768
64.315491 -10.835822 -7.90876
64.305115 -8.360764 -9.899748
64.14782 -5.878158 -12.016562
64.834976 -4.411613 -14.225552
64.916565 -3.493326 -16.622702
64.561172 -3.11234 -19.171206
51.966629 13.65469 -33.01799
52.034348 15.879322 -35.771156
68.334389 -21.182558 -5.069456
67.880577 -18.967167 -6.719448
67.86264 -21.03619 -6.857355
66.722565 -21.291771 -8.673384
65.085922 -26.320164 -8.534065
66.812561 -20.306616 -3.085075
66.667427 -22.689857 -1.543482
67.95475 -21.743752 -3.303665
68.701607 -23.399883 -3.481974
69.038185 -25.242332 -3.592636
68.971481 -27.236591 -3.608341
69.829178 -29.443314 -0.307957
69.583382 -29.226542 -1.943039
68.528976 -29.347027 -3.504616
67.756927 -31.538198 -3.261705
66.718079 -33.77681 -2.867571
65.487312 -36.034073 -2.319555
69.967789 -37.192982 7.748111
70.714935 -36.852634 5.831476
70.646049 -36.688778 4.067082
70.173943 -38.408745 4.608231
69.787071 -36.736122 2.4569
68.264488 -37.014267 0.988708
66.291809 -37.53154 -0.361473
64.145782 -38.287643 -1.624479
55.494133 3.209583 -22.11455
56.730579 6.185114 -24.273138
57.551487 8.87528 -26.593397
57.968323 11.11195 -29.102327
60.398598 8.602703 -26.629995
59.301567 10.764294 -29.214808
58.042664 12.785213 -31.788546
57.872421 13.8493 -34.597694
67.359924 -16.752205 -8.471382
65.054779 -7.793775 -16.851885
64.514702 -5.50726 -19.27677
64.002098 -3.201441 -21.799074
63.503464 -0.884224 -24.394846
52.941 3.481817 -23.066366
51.814602 3.175689 -22.917089
52.179045 2.096159 -21.935251
63.631922 -35.040104 -4.860553
64.004684 -35.727396 -3.899474
65.629776 -36.083233 9.452939
65.461556 -36.88205 10.626674
66.875282 -35.694033 8.402
65.793518 -35.200323 8.315423
65.629776 -36.083233 9.452939
66.97797 -27.986562 1.53391
66.792644 -29.1126 2.386793
67.909706 -27.473067 0.64068
67.044727 -26.859688 0.710514
66.97797 -27.986562 1.53391
65.045944 -42.755983 4.080807
64.76809 -42.058852 2.983212
65.824181 -41.747143 3.614035
61.866672 -5.315156 -12.286635
61.851685 -6.537413 -11.190555
65.597641 -15.456924 -5.312498
64.776298 -14.995417 -5.228376
64.720451 -16.218163 -4.378474
66.95084 -13.631802 -9.248412
66.664139 -12.794145 -9.15984
66.880818 -13.954598 -8.211761
52.219314 7.99447 -27.170172
51.720743 8.959943 -28.080053
65.372413 -31.348354 -5.582194
65.897819 -30.167281 -5.745144
66.350235 -30.975925 -4.847813
66.347122 -32.320551 5.160395
66.143581 -33.321179 6.169117
67.491458 -31.827551 4.197719
66.484897 -31.279053 4.196499
66.347122 -32.320551 5.160395
52.672439 12.847971 -31.97687
51.745733 12.39983 -31.685708
52.451543 11.593111 -30.644588
52.66474 16.999029 -37.477192
51.900588 16.765411 -37.184333
52.798501 16.11294 -36.064014
53.380749 17.024113 -37.775467
52.66474 16.999029 -37.477192
54.787071 16.714832 -38.23021
55.660267 15.947181 -36.985359
65.596882 -22.834266 -9.583386
65.96006 -21.596921 -9.592081
66.359386 -22.529115 -8.664689
64.575019 -27.619704 -8.413639
65.526245 -27.188629 -7.643574
65.015343 -28.48817 -7.523148
65.88953 -20.924594 -2.19307
66.060303 -19.712135 -2.969495
67.341896 -23.371902 -1.648865
66.547939 -23.870879 -0.770562
67.222409 -24.552924 -0.875945
69.869526 -38.00981 8.951303
69.222752 -37.42169 8.775495
63.829024 -40.093304 -0.196127
63.460016 -39.405037 -1.211188
64.51479 -38.97591 -0.609418
61.493656 -1.602934 -15.716461
61.682525 -2.842593 -14.547191
62.321278 -1.629212 -15.574044
56.822059 2.448479 -20.955311
57.85808 2.800232 -20.825142
56.515789 3.58489 -22.046482
55.800404 2.073173 -21.023378
56.822059 2.448479 -20.955311
58.280476 13.377045 -36.133656
58.859497 12.442672 -36.228023
64.882511 -9.094205 -16.886616
65.338752 -8.926232 -15.699078
63.332477 -1.126948 -25.713108
63.497815 -2.272559 -24.401001
63.24691 0.272643 -25.717548
63.332477 -1.126948 -25.713108
51.47624 4.26461 -23.79574
51.814602 3.175689 -22.917089
52.143061 5.588031 -24.996707
51.47624 4.26461 -23.79574
53.186476 6.005852 -25.203268
52.752979 7.032538 -26.151772
52.143061 5.588031 -24.996707
64.208413 -33.79034 -5.138307
64.804413 -32.599562 -5.37559
65.228828 -33.347777 -4.447582
64.208413 -33.79034 -5.138307
63.631922 -35.040104 -4.860553
65.986252 -34.292215 7.220552
65.793518 -35.200323 8.315423
67.196354 -33.840086 6.21305
66.143581 -33.321179 6.169117
65.986252 -34.292215 7.220552
56.467834 15.122179 -35.745873
55.660267 15.947181 -36.985359
55.801533 15.46124 -35.567559
67.202457 -25.699047 -0.090178
67.044727 -26.859688 0.710514
67.996414 -25.20007 -0.968482
67.222409 -24.552924 -0.875945
67.202457 -25.699047 -0.090178
70.608776 -39.330223 9.371747
70.222961 -38.687641 9.151453
70.760834 -39.277721 8.402833
70.608776 -39.330223 9.371747
70.829537 -39.201235 7.476852
70.743363 -38.472158 7.222429
70.760834 -39.277721 8.402833
68.654979 -41.091751 5.684166
69.417057 -40.947227 6.441021
68.7948 -41.854348 6.840696
64.477455 -41.416989 1.904478
64.146191 -40.724072 0.849079
65.215061 -40.357094 1.461041
64.477455 -41.416989 1.904478
64.76809 -42.058852 2.983212
61.064353 0.85204 -18.082377
61.330219 -0.374893 -16.8793
61.866542 0.83738 -17.946392
60.27866 0.853078 -18.199644
61.064353 0.85204 -18.082377
60.814983 2.065352 -19.266737
59.337888 0.661518 -18.375235
60.27866 0.853078 -18.199644
59.104002 1.853328 -19.527937
59.337888 0.661518 -18.375235
58.771513 3.037238 -20.726107
59.104002 1.853328 -19.527937
59.6968 3.250298 -20.582175
58.450878 4.197202 -21.879379
57.85808 2.800232 -20.825142
58.771513 3.037238 -20.726107
59.357975 11.466609 -36.311363
58.859497 12.442672 -36.228023
59.493015 11.471689 -34.908367
66.858734 -17.885061 -9.539102
66.581306 -19.122367 -9.568867
64.022599 -9.621185 -19.308134
64.475041 -9.28915 -18.124588
63.893033 -8.530406 -20.5432
64.022599 -9.621185 -19.308134
63.693108 -7.407049 -21.794911
64.039914 -7.060307 -20.57954
63.893033 -8.530406 -20.5432
64.038715 -14.529041 -5.168956
63.078911 -14.230222 -5.122611
64.915905 -13.767803 -6.102981
64.038715 -14.529041 -5.168956
64.776298 -14.995417 -5.228376
66.518864 -11.593324 -10.118568
66.448841 -11.91612 -9.081917
66.664139 -12.794145 -9.15984
66.487457 -11.308045 -11.21649
66.27216 -10.43002 -11.138567
66.518864 -11.593324 -10.118568
52.126951 10.259597 -29.374279
51.720743 8.959943 -28.080053
53.053657 10.707738 -29.665442
52.451543 11.593111 -30.644588
52.126951 10.259597 -29.374279
53.262729 8.412292 -27.376732
52.219314 7.99447 -27.170172
52.752979 7.032538 -26.151772
65.443283 -29.298403 -6.616303
66.421104 -28.925973 -5.881922
65.897819 -30.167281 -5.745144
65.015343 -28.48817 -7.523148
65.443283 -29.298403 -6.616303
65.372413 -31.348354 -5.582194
64.804413 -32.599562 -5.37559
66.685787 -30.205656 3.271666
66.484897 -31.279053 4.196499
67.736092 -29.692997 2.34895
66.792644 -29.1126 2.386793
66.685787 -30.205656 3.271666
68.183132 -42.723327 7.250619
68.7948 -41.854348 6.840696
67.282726 -42.919494 6.534619
68.183132 -42.723327 7.250619
66.317383 -43.142196 5.848514
67.067379 -42.221573 5.397735
67.282726 -42.919494 6.534619
65.294171 -43.410328 5.192934
66.317383 -43.142196 5.848514
52.450809 0.974101 -21.018629
52.179045 2.096159 -21.935251
66.555786 -37.357357 10.752897
65.461556 -36.88205 10.626674
67.594628 -37.11367 9.671198
66.555786 -37.357357 10.752897
62.756009 -6.592685 -11.072838
61.851685 -6.537413 -11.190555
63.290142 -13.018553 -6.031986
63.078911 -14.230222 -5.122611
63.358726 -11.78575 -6.964586
63.290142 -13.018553 -6.031986
64.246906 -12.068625 -6.97616
63.4944 -10.564374 -7.929534
63.358726 -11.78575 -6.964586
63.489212 -9.326846 -8.925028
63.4944 -10.564374 -7.929534
64.310303 -9.598293 -8.904254
63.544266 -8.096047 -9.947492
63.489212 -9.326846 -8.925028
63.465618 -6.854744 -11.005899
63.544266 -8.096047 -9.947492
64.226467 -7.119461 -10.958155
63.43821 -5.616099 -12.083501
62.756009 -6.592685 -11.072838
63.465618 -6.854744 -11.005899
51.077598 13.20094 -32.614795
51.745733 12.39983 -31.685708
51.191944 14.360674 -34.002854
51.077598 13.20094 -32.614795
51.225803 15.47299 -35.379436
51.191944 14.360674 -34.002854
52.000489 14.767006 -34.394573
51.157696 16.490919 -36.796349
51.225803 15.47299 -35.379436
51.157696 16.490919 -36.796349
51.900588 16.765411 -37.184333
54.096405 16.993955 -38.000553
53.380749 17.024113 -37.775467
54.278309 16.316401 -36.581959
54.096405 16.993955 -38.000553
54.787071 16.714832 -38.23021
66.344189 -20.299588 -9.603296
66.581306 -19.122367 -9.568867
66.959682 -20.11455 -8.638955
66.344189 -20.299588 -9.603296
65.96006 -21.596921 -9.592081
64.201843 -26.80182 -9.34791
64.575019 -27.619704 -8.413639
64.687923 -25.446213 -9.462495
64.201843 -26.80182 -9.34791
65.143067 -24.169361 -9.52346
65.541065 -25.043312 -8.595029
64.687923 -25.446213 -9.462495
65.596882 -22.834266 -9.583386
65.143067 -24.169361 -9.52346
64.516243 -17.439684 -3.551861
64.720451 -16.218163 -4.378474
65.424919 -17.898663 -3.658256
64.516243 -17.439684 -3.551861
66.07986 -18.51565 -3.76209
66.196735 -17.296658 -4.56643
65.424919 -17.898663 -3.658256
66.832119 -19.11013 -3.87767
66.07986 -18.51565 -3.76209
66.060303 -19.712135 -2.969495
65.602756 -23.316721 -0.652178
66.547939 -23.870879 -0.770562
65.816963 -22.116214 -1.422273
65.602756 -23.316721 -0.652178
66.739994 -21.498236 -2.314278
65.88953 -20.924594 -2.19307
65.816963 -22.116214 -1.422273
64.431927 -36.475155 -2.954102
64.004684 -35.727396 -3.899474
65.06007 -35.286314 -3.264927
68.609326 -36.798905 8.628607
67.726238 -36.262177 8.496925
67.594628 -37.11367 9.671198
69.354363 -36.570197 7.601223
68.609326 -36.798905 8.628607
69.222752 -37.42169 8.775495
70.321224 -37.870813 7.94826
69.869526 -38.00981 8.951303
70.222961 -38.687641 9.151453
70.61026 -39.208185 6.591578
70.829537 -39.201235 7.476852
69.842846 -40.102665 6.0856
69.417057 -40.947227 6.441021
70.291199 -39.214722 5.74747
69.842846 -40.102665 6.0856
69.72559 -39.296688 4.946361
70.493004 -38.402209 5.452339
70.61026 -39.208185 6.591578
70.291199 -39.214722 5.74747
63.761162 -37.60194 -2.606564
64.431927 -36.475155 -2.954102
64.816547 -37.160858 -1.972017
63.13784 -38.780338 -2.226739
63.761162 -37.60194 -2.606564
63.13784 -38.780338 -2.226739
63.460016 -39.405037 -1.211188
63.829024 -40.093304 -0.196127
64.146191 -40.724072 0.849079
65.045944 -42.755983 4.080807
65.294171 -43.410328 5.192934
53.595301 1.281154 -21.073109
52.450809 0.974101 -21.018629
61.757446 -4.072572 -13.413802
61.866672 -5.315156 -12.286635
62.619374 -4.111456 -13.277607
61.757446 -4.072572 -13.413802
61.682525 -2.842593 -14.547191
61.493656 -1.602934 -15.716461
61.330219 -0.374893 -16.8793
54.689646 1.684801 -21.08812
55.800404 2.073173 -21.023378
54.399788 2.805935 -22.099539
53.595301 1.281154 -21.073109
54.689646 1.684801 -21.08812
57.099495 14.72871 -35.880684
56.467834 15.122179 -35.745873
57.240761 14.242769 -34.462883
57.719418 14.07782 -36.019989
58.433479 13.148526 -34.71136
58.280476 13.377045 -36.133656
57.099495 14.72871 -35.880684
57.719418 14.07782 -36.019989
66.940296 -16.792499 -9.47253
67.278362 -17.844767 -8.537954
66.858734 -17.885061 -9.539102
67.077373 -15.642602 -9.411922
66.940296 -16.792499 -9.47253
66.981171 -14.662627 -9.326398
67.263722 -15.77223 -8.385858
67.077373 -15.642602 -9.411922
66.95084 -13.631802 -9.248412
66.981171 -14.662627 -9.326398
66.224636 -11.224214 -12.306663
66.487457 -11.308045 -11.21649
65.931739 -10.101714 -13.391381
66.224636 -11.224214 -12.306663
65.663742 -8.934257 -14.483155
65.972756 -8.977283 -13.328264
65.931739 -10.101714 -13.391381
65.379768 -7.8018 -15.635962
65.663742 -8.934257 -14.483155
65.338752 -8.926232 -15.699078
64.647309 -7.98872 -18.089857
64.882511 -9.094205 -16.886616
64.475041 -9.28915 -18.124588
63.607174 -6.292958 -23.065018
63.693108 -7.407049 -21.794911
63.666077 -4.798922 -23.119204
63.607174 -6.292958 -23.065018
63.747132 -3.431167 -23.103115
63.921044 -4.569195 -21.815162
63.666077 -4.798922 -23.119204
63.752781 -2.042832 -23.09696
63.747132 -3.431167 -23.103115
63.497815 -2.272559 -24.401001
63.167533 1.511583 -25.671584
63.424087 0.354716 -24.348881
63.24691 0.272643 -25.717548
62.833219 2.674707 -26.997448
63.010397 2.756779 -25.62878
63.167533 1.511583 -25.671584
62.547956 3.818554 -28.333754
62.833219 2.674707 -26.997448
62.171997 4.958413 -29.673315
62.300123 5.059762 -28.294207
62.547956 3.818554 -28.333754
61.831135 6.074237 -31.013005
62.171997 4.958413 -29.673315
61.391419 7.17604 -32.35582
61.484448 7.301424 -30.976582
61.831135 6.074237 -31.013005
60.966181 8.245666 -33.689636
61.391419 7.17604 -32.35582
60.439561 9.291866 -35.025791
60.518112 9.449426 -33.655552
60.966181 8.245666 -33.689636
59.90398 10.294868 -36.345062
60.439561 9.291866 -35.025791
59.357975 11.466609 -36.311363
59.90398 10.294868 -36.345062
3 0 46 44
3 1 165 167
3 165 47 166
3 165 166 167
3 1 49 47
3 169 168 50
3 2 170 171
3 2 172 174
3 172 51 173
3 172 173 174
3 2 53 51
3 3 56 54
3 3 58 56
3 5 61 59
3 5 63 61
3 6 66 64
3 6 68 66
3 7 71 69
3 8 175 176
3 8 177 179
3 177 72 178
3 177 178 179
3 8 74 72
3 9 77 75
3 9 79 77
3 10 83 81
3 10 85 83
3 10 180 182
3 182 181 85
3 180 181 182
3 4 183 184
3 11 87 86
3 11 88 87
3 11 90 88
3 12 93 91
3 12 95 93
3 13 185 187
3 185 98 186
3 185 186 187
3 15 99 45
3 15 188 190
3 190 189 99
3 188 189 190
3 191 100 192
3 17 101 48
3 17 102 101
3 18 193 195
3 195 194 103
3 193 194 195
3 19 196 197
3 19 198 200
3 198 105 199
3 198 199 200
3 19 107 105
3 21 108 52
3 21 109 108
3 22 112 110
3 24 113 55
3 24 114 113
3 24 116 114
3 26 117 57
3 26 118 117
3 14 119 97
3 27 120 60
3 27 121 120
3 27 122 121
3 28 123 62
3 28 124 123
3 16 201 203
3 201 125 202
3 201 202 203
3 29 126 65
3 29 204 206
3 206 205 126
3 204 205 206
3 29 207 208
3 210 209 67
3 30 129 127
3 32 130 70
3 32 211 213
3 213 212 130
3 211 212 213
3 214 131 215
3 216 215 104
3 214 215 216
3 217 132 218
3 33 219 221
3 219 133 220
3 219 220 221
3 33 134 133
3 33 135 134
3 34 136 73
3 34 137 136
3 20 138 106
3 35 139 76
3 35 140 139
3 35 141 140
3 36 142 78
3 36 143 142
3 222 144 223
3 37 145 80
3 37 146 145
3 38 147 82
3 38 148 147
3 38 149 148
3 39 150 84
3 39 151 150
3 39 224 226
3 226 225 151
3 224 225 226
3 23 227 229
3 229 228 111
3 227 228 229
3 40 230 231
3 40 232 234
3 232 152 233
3 232 233 234
3 40 153 152
3 41 154 89
3 41 155 154
3 25 156 115
3 42 157 92
3 42 158 157
3 42 159 158
3 236 235 94
3 31 160 128
3 237 161 238
3 43 162 96
3 43 163 162
3 239 164 240
3 242 241 164
3 44 45 13
3 46 45 44
3 46 15 45
3 47 243 244
3 47 245 246
3 47 247 249
3 247 48 248
3 247 248 249
3 49 48 47
3 49 17 48
3 50 250 252
3 252 251 18
3 250 251 252
3 254 253 50
3 51 255 256
3 51 257 259
3 257 19 258
3 257 258 259
3 51 52 19
3 53 52 51
3 53 21 52
3 54 55 22
3 56 55 54
3 56 24 55
3 56 57 24
3 58 57 56
3 58 26 57
3 59 60 14
3 61 60 59
3 61 27 60
3 61 62 27
3 63 62 61
3 63 28 62
3 64 65 16
3 66 65 64
3 66 29 65
3 66 67 29
3 68 67 66
3 68 260 262
3 262 261 67
3 260 261 262
3 69 70 30
3 71 70 69
3 71 32 70
3 72 263 264
3 72 265 267
3 265 33 266
3 265 266 267
3 72 73 33
3 74 73 72
3 74 34 73
3 75 76 20
3 77 76 75
3 77 35 76
3 77 78 35
3 79 78 77
3 79 36 78
3 268 80 269
3 270 80 271
3 272 37 273
3 274 273 80
3 272 273 274
3 81 275 277
3 275 82 276
3 275 276 277
3 83 82 81
3 83 38 82
3 83 84 38
3 85 84 83
3 85 39 84
3 85 278 280
3 280 279 39
3 278 279 280
3 282 281 85
3 86 283 285
3 285 284 23
3 283 284 285
3 87 286 288
3 288 287 86
3 286 287 288
3 87 289 290
3 87 291 292
3 88 293 295
3 295 294 87
3 293 294 295
3 88 296 298
3 296 40 297
3 296 297 298
3 88 89 40
3 90 89 88
3 90 41 89
3 91 92 25
3 93 92 91
3 93 42 92
3 93 94 42
3 95 94 93
3 95 299 301
3 301 300 94
3 299 300 301
3 303 302 31
3 304 96 305
3 306 96 307
3 308 43 309
3 310 309 96
3 308 309 310
3 311 97 312
3 98 313 315
3 313 97 314
3 313 314 315
3 98 14 97
3 45 98 13
3 99 98 45
3 99 14 98
3 99 59 14
3 316 59 317
3 318 317 99
3 316 317 318
3 319 5 320
3 321 320 59
3 319 320 321
3 100 322 323
3 100 324 326
3 324 16 325
3 324 325 326
3 48 327 329
3 327 100 328
3 327 328 329
3 101 100 48
3 101 16 100
3 101 64 16
3 102 64 101
3 102 6 64
3 103 104 7
3 330 104 331
3 332 331 103
3 330 331 332
3 334 333 104
3 336 335 18
3 105 337 338
3 105 339 341
3 339 8 340
3 339 340 341
3 105 106 8
3 107 106 105
3 107 20 106
3 52 107 19
3 108 107 52
3 108 20 107
3 108 75 20
3 109 75 108
3 109 9 75
3 342 81 343
3 344 81 345
3 346 10 347
3 348 347 81
3 346 347 348
3 350 349 10
3 110 111 4
3 112 111 110
3 112 23 111
3 55 112 22
3 113 112 55
3 113 23 112
3 113 86 23
3 114 86 113
3 114 11 86
3 114 115 11
3 116 115 114
3 116 25 115
3 57 116 24
3 117 116 57
3 117 25 116
3 117 91 25
3 118 91 117
3 118 12 91
3 351 1 352
3 353 2 354
3 356 355 2
3 357 4 358
3 97 359 360
3 119 361 363
3 363 362 97
3 361 362 363
3 119 364 365
3 60 119 14
3 120 119 60
3 120 366 368
3 368 367 119
3 366 367 368
3 120 369 370
3 121 371 373
3 373 372 120
3 371 372 373
3 121 374 376
3 374 4 375
3 374 375 376
3 121 110 4
3 122 110 121
3 122 22 110
3 62 122 27
3 123 122 62
3 123 22 122
3 123 54 22
3 124 54 123
3 124 3 54
3 125 377 378
3 125 379 380
3 65 125 16
3 126 125 65
3 126 381 383
3 383 382 125
3 381 382 383
3 126 384 385
3 387 386 126
3 67 388 390
3 390 389 29
3 388 389 390
3 392 391 67
3 127 128 0
3 129 128 127
3 129 31 128
3 70 129 30
3 130 129 70
3 130 31 129
3 130 393 395
3 395 394 31
3 393 394 395
3 397 396 130
3 104 71 7
3 131 71 104
3 131 32 71
3 398 131 399
3 400 131 401
3 402 32 403
3 404 403 131
3 402 403 404
3 406 405 32
3 407 13 408
3 409 13 410
3 411 44 412
3 413 412 13
3 411 412 413
3 132 414 416
3 414 44 415
3 414 415 416
3 132 0 44
3 133 417 418
3 133 419 420
3 133 421 423
3 421 132 422
3 421 422 423
3 134 132 133
3 134 0 132
3 134 127 0
3 135 127 134
3 135 30 127
3 73 135 33
3 136 135 73
3 136 30 135
3 136 69 30
3 137 69 136
3 137 7 69
3 106 74 8
3 138 74 106
3 138 34 74
3 76 138 20
3 139 138 76
3 139 34 138
3 139 137 34
3 140 137 139
3 140 7 137
3 140 103 7
3 141 103 140
3 141 18 103
3 78 141 35
3 142 141 78
3 142 18 141
3 142 50 18
3 143 50 142
3 143 424 426
3 426 425 50
3 424 425 426
3 427 53 428
3 429 428 2
3 427 428 429
3 144 430 432
3 430 53 431
3 430 431 432
3 144 21 53
3 80 433 435
3 433 144 434
3 433 434 435
3 145 144 80
3 145 21 144
3 145 109 21
3 146 109 145
3 146 9 109
3 436 37 437
3 82 438 439
3 147 440 442
3 442 441 82
3 440 441 442
3 147 443 445
3 443 37 444
3 443 444 445
3 147 146 37
3 148 146 147
3 148 9 146
3 148 79 9
3 149 79 148
3 149 36 79
3 84 149 38
3 150 149 84
3 150 36 149
3 150 143 36
3 151 143 150
3 151 446 448
3 448 447 143
3 446 447 448
3 151 449 450
3 452 451 151
3 454 453 39
3 456 455 10
3 457 1 458
3 111 459 461
3 461 460 4
3 459 460 461
3 463 462 111
3 465 464 23
3 152 466 467
3 152 468 470
3 468 1 469
3 468 469 470
3 152 49 1
3 153 49 152
3 153 17 49
3 89 153 40
3 154 153 89
3 154 17 153
3 154 102 17
3 155 102 154
3 155 6 102
3 115 90 11
3 156 90 115
3 156 41 90
3 92 156 25
3 157 156 92
3 157 41 156
3 157 155 41
3 158 155 157
3 158 6 155
3 158 68 6
3 159 68 158
3 159 471 473
3 473 472 68
3 471 472 473
3 94 159 42
3 474 159 475
3 476 475 94
3 474 475 476
3 478 477 159
3 128 46 0
3 160 46 128
3 160 15 46
3 479 160 480
3 481 480 31
3 479 480 481
3 482 160 483
3 484 15 485
3 486 485 160
3 484 485 486
3 488 487 15
3 489 5 490
3 491 5 492
3 493 63 494
3 495 494 5
3 493 494 495
3 161 496 498
3 496 63 497
3 496 497 498
3 161 28 63
3 96 499 501
3 499 161 500
3 499 500 501
3 162 161 96
3 162 28 161
3 162 124 28
3 163 124 162
3 163 3 124
3 502 43 503
3 504 43 505
3 506 163 507
3 508 507 43
3 506 507 508
3 164 509 511
3 509 163 510
3 509 510 511
3 164 3 163
3 164 58 3
3 512 58 513
3 514 513 164
3 512 513 514
3 515 26 516
3 517 516 58
3 515 516 517
3 518 26 519
3 520 118 521
3 522 521 26
3 520 521 522
3 523 118 524
3 525 12 526
3 527 526 118
3 525 526 527
3 528 12 529
3 530 95 531
3 532 531 12
3 530 531 532
3 533 95 534
3 536 535 95
