ply
format ascii 1.0
element vertex 757
property float x
property float y
property float z
element face 892
property list uchar int vertex_index
end_header
-21.744354 68.285019 27.943163
-1.479315 80.363708 -3.589859
-9.865862 86.692596 14.362285
-12.786459 85.963272 -13.172527
0.115778 69.983734 -29.817879
-16.90601 77.95433 22.395084
-8.868567 79.878815 29.773804
-25.331202 72.247284 18.817657
-19.167206 81.825668 9.357538
-3.839468 87.254578 -10.002209
-4.59244 81.961609 -22.825436
-3.800489 88.028885 5.336046
-1.501078 79.342194 12.131775
-3.126583 84.128159 21.721268
-21.97467 82.212433 -2.672215
-10.97521 88.365204 -0.395224
-1.18479 40.450409 -33.002716
-16.539009 79.116287 -21.887619
-2.803162 57.736675 -34.180843
2.193407 53.746761 -32.191376
-19.703953 72.649857 25.604919
-16.122744 74.371918 28.755516
-19.066563 69.044998 30.794716
-23.315058 70.143051 23.836004
-21.004274 75.286636 19.966938
-0.914957 74.550476 -7.464031
-1.337069 75.130692 -0.104776
-2.036217 84.668411 -6.995155
-1.675959 83.206863 -14.422186
-0.992111 79.376511 -11.099203
-6.431536 88.566956 9.91555
-3.520363 86.703308 13.429592
-5.999947 86.482391 17.929482
-14.354733 84.924896 11.403049
-15.19635 85.749695 4.488087
-10.432955 88.133942 6.815364
-6.756861 89.36438 2.155594
-1.137438 77.178238 20.355938
-1.40007 73.164505 15.420255
-19.321136 83.177872 -13.208656
-21.549538 80.398224 -17.445999
-14.451715 83.260864 -18.195358
-1.804882 76.73317 -26.795479
-5.899792 77.236404 -27.171719
-2.931692 71.44133 -30.638382
-0.881121 64.389847 -32.993835
0.400566 56.405552 -33.99649
1.394388 62.238316 -31.679756
-13.534794 82.908524 18.579262
-9.291468 83.924149 22.102465
-12.826008 79.62381 25.789242
-12.398691 75.140686 32.668327
-22.57547 77.194748 14.146252
-17.982933 80.42038 15.829163
-7.444126 87.602966 -12.149429
-8.33 85.11441 -18.184132
-3.967037 85.235214 -16.929722
-1.470705 80.622925 -21.207863
0.193396 74.315903 -24.726212
-2.236181 85.108047 0.759307
-1.643713 80.376404 4.146482
-2.148113 84.498596 8.755438
-1.821495 82.747696 16.983685
-1.402348 79.798935 25.376778
-5.590485 83.094376 26.056248
-2.801867 80.320435 30.054379
-17.490376 84.781891 -7.988592
-20.44178 82.340637 3.152995
-16.164055 85.624069 -2.024689
-11.671747 87.604385 -7.131792
-7.017189 89.003601 -5.257336
-3.876692 88.182159 -2.500904
-4.415627 42.084679 -33.216183
-1.491112 74.692093 7.514207
-9.818621 81.29451 -22.917046
-1.628469 49.605556 -34.284069
1.047157 47.551693 -33.540833
2.594971 44.470856 -31.281952
-20.853355 70.205612 26.92576
-19.284784 71.001465 28.251692
-20.548176 68.630341 29.174171
-22.425907 69.118286 26.122498
-21.469631 71.489746 24.51614
-23.079737 66.942795 27.872478
-24.174849 67.719162 25.798626
-1.214041 77.547653 -5.60041
-1.161783 74.963409 -3.813061
-1.40435 77.819473 -1.849602
-1.65386 82.680588 -5.315683
-1.445667 82.199738 -9.110497
-1.271955 79.990219 -7.374287
-0.943398 77.036758 -9.297697
-8.080853 87.909271 12.160852
-6.223877 87.689926 13.896928
-7.829832 86.854935 16.092648
-12.056267 86.027695 12.785256
-12.400515 86.735931 9.122197
-10.156086 87.575882 10.554165
-8.314846 88.63118 8.289039
-0.908812 75.663101 24.526058
-1.056816 73.953918 21.96604
-15.950333 84.658081 -13.290766
-16.89053 83.454315 -15.729008
-13.552179 84.767838 -15.833336
-0.749981 73.511032 -28.439369
-2.263905 74.258835 -28.957314
-1.16083 70.939316 -30.455956
-1.800434 68.046417 -31.972466
-0.258581 67.336823 -31.665176
0.467056 63.4995 -32.558445
0.8225 66.212265 -30.906223
-15.281776 80.529037 20.551085
-13.155857 81.422653 22.200096
-14.866383 78.94574 23.996666
-15.895461 72.155136 31.754795
-14.268623 74.893402 30.644562
-24.034365 74.742371 16.492809
-18.943928 76.709625 21.035124
-19.578789 77.893356 17.939466
-17.421532 79.32486 19.116306
-15.74425 81.810181 17.087513
-5.406023 87.713623 -11.208435
-5.588692 86.719986 -14.584372
-3.860714 86.388306 -13.561659
-0.924189 80.48024 -16.433283
-1.529362 82.066147 -17.925919
-0.694715 79.210892 -19.873196
-0.555134 77.639404 -23.075428
-2.889051 86.840714 3.034921
-2.228355 84.939957 4.727664
-2.82353 86.507126 7.038386
-3.32732 85.573364 17.557161
-2.525177 84.960098 15.220697
-2.326317 83.728989 19.386845
-1.612625 81.423187 21.16832
-2.123995 82.190598 23.583202
-9.049116 82.052979 25.969383
-7.346876 83.750626 24.048838
-7.162306 81.723709 28.004677
-22.896294 81.944656 -5.407232
-20.672699 83.15979 -8.079908
-19.782854 83.625244 -5.349087
-21.663216 80.084839 8.739138
-22.399851 80.414291 5.76923
-19.785524 82.178528 6.214566
-13.088203 87.264847 2.045944
-15.650721 85.787643 1.173127
-13.469749 87.149094 -1.335098
-13.917871 86.822479 -4.586248
-11.287268 88.096466 -3.834021
-9.171171 88.5457 -6.320778
-8.927727 88.966995 -2.832176
-5.109631 88.995407 3.691584
-5.191133 89.083496 -0.180552
-3.86339 88.245239 1.382722
-2.889154 86.89798 -0.906799
-2.70083 41.417698 -33.199356
-4.250193 37.534142 -32.414478
-1.606262 79.996155 8.106567
-1.547205 77.616638 5.830711
-1.510895 77.120865 9.771898
-1.413668 69.83873 17.066298
-1.449034 70.884583 13.109842
-1.389404 67.603668 14.819228
-19.046463 79.993408 -19.700211
-6.349079 83.822922 -20.568985
-9.000135 83.388931 -20.739388
-6.968695 81.856598 -23.050148
-6.796902 74.324417 -28.675041
-8.667059 76.785904 -26.760147
-3.386063 50.145458 -34.203423
-2.117672 53.79211 -34.420483
1.464918 55.216747 -33.307117
0.79631 52.091961 -33.948784
1.764599 50.774784 -33.136276
1.946867 46.113552 -32.612999
2.439232 49.216976 -31.90659
-18.383429 75.28775 24.086143
-16.464556 76.304749 25.622822
-17.935154 73.612503 27.050503
-17.626793 71.659119 29.900364
-24.301916 71.210968 21.365644
-23.123926 73.771088 19.225431
-22.252705 72.678162 21.9203
-20.297348 74.060989 22.833214
-25.310226 68.692993 23.52409
-1.0345 72.300568 -2.013386
-1.211548 72.353134 1.654352
-2.734688 86.222351 -8.57766
-2.63413 85.491699 -12.268387
-1.860052 84.068558 -10.762533
-1.19026 81.470215 -12.827696
-4.987831 88.612518 7.636213
-3.683609 87.519165 9.353245
-4.824312 87.919556 11.645923
-4.629416 86.906006 15.712428
-4.421955 85.568848 19.822317
-8.77264 77.422012 33.462898
-7.048866 79.404663 31.884129
-24.037416 80.622208 0.04731
-16.729794 83.482727 10.251141
-17.238396 83.908875 6.927674
-14.771152 85.473984 7.903361
-12.740236 87.138565 5.537197
-10.700151 88.387604 3.160639
-8.723577 89.137009 0.778791
-8.526443 89.033386 4.490903
-6.609808 89.120178 5.998465
-1.340216 78.404663 16.218489
-1.411726 76.348602 13.781294
-1.257137 75.293442 17.851032
-1.265488 71.980515 19.462503
-22.796949 81.595764 -12.989065
-23.978292 80.362137 -15.115414
-20.402431 81.968811 -15.465078
-17.935179 81.918121 -17.874786
-15.459559 81.389496 -20.220814
-3.0788 79.575851 -24.913441
-5.159372 79.786865 -25.21719
-3.591421 77.231735 -27.19939
-4.294033 74.524994 -29.025089
-2.656719 64.867355 -32.994308
-1.739536 61.176167 -33.814995
-1.025951 57.257084 -34.275093
-0.153492 60.504551 -33.675175
1.036425 59.456226 -33.112019
1.847872 58.082653 -32.114391
-11.70875 84.995117 16.507887
-9.571478 85.474609 18.220791
-11.371223 83.632156 20.264675
-11.064451 81.944199 24.020136
-10.811687 79.944794 27.728388
-14.522076 77.064514 27.377581
-12.567406 77.524536 29.296118
-10.635033 77.651886 31.33672
-23.387682 77.871048 11.254923
-20.951624 79.569672 11.767026
-21.775095 76.333038 17.058012
-20.255013 78.844376 14.840137
-18.568092 81.24852 12.568107
-16.231539 82.790924 13.644626
-13.940267 84.074905 14.969449
-9.924095 86.98494 -12.802464
-10.494799 85.821411 -15.7085
-7.815004 86.506683 -15.301279
-5.89344 85.433273 -17.726124
-4.200363 83.769547 -20.041313
-2.572451 84.485382 -15.811928
-2.597355 83.181793 -19.149155
-2.754183 81.553955 -22.208153
-1.548985 78.85202 -24.190502
-0.55839 75.744156 -25.957634
0.254669 72.311401 -27.483719
0.927254 68.624237 -28.745403
0.819496 70.72937 -26.137718
-1.791332 82.916245 -1.45974
-1.603445 80.495071 0.249343
-1.84757 82.90239 2.453078
-1.823076 82.629013 6.424652
-1.726423 82.083374 10.457525
-2.697554 85.884018 11.101549
-2.00679 83.77121 12.842293
-1.571327 81.253555 14.550777
-1.374521 80.131302 18.697365
-1.154716 78.713882 22.882799
-0.932415 77.004517 27.084888
-7.577705 85.466095 20.064943
-5.780571 84.947006 21.992764
-4.225645 83.912903 23.953659
-5.455477 80.940796 30.079191
-4.066172 81.949646 28.074404
-2.942911 82.373322 25.898129
-1.942581 80.351212 27.783993
-21.683685 82.503708 -10.634926
-18.342806 84.09407 -10.706007
-15.139723 85.591324 -10.596264
-23.182844 80.585922 2.868203
-21.162632 82.344696 0.186112
-17.771162 84.10257 3.690413
-18.353315 84.101044 0.554413
-19.014954 83.936417 -2.464525
-16.768501 85.286041 -5.086092
-14.465956 86.303818 -7.683193
-12.162998 86.8974 -10.257421
-9.491465 87.885925 -9.657299
-7.190529 88.430954 -8.785397
-5.306299 88.435059 -7.655304
-6.88435 89.319138 -1.601868
-5.24733 88.892776 -3.969166
-3.858385 87.850616 -6.303223
-2.830853 86.690063 -4.781914
-2.169081 85.014999 -3.149744
-21.897568 66.591904 29.688126
-1.513857 77.845779 1.958474
-1.445475 75.043488 3.668741
-1.341478 72.138992 5.396502
-1.475834 74.067749 11.433212
-1.422647 71.651031 9.216227
-1.165525 69.159775 7.164684
-11.213573 84.357498 -18.323318
-12.07218 82.54776 -20.598133
-13.046228 80.353912 -22.497398
-7.747883 79.511597 -25.121265
-10.763191 78.810837 -24.68721
-2.946724 45.918415 -33.864342
-1.321341 45.162533 -33.794849
-0.498903 53.111942 -34.362381
-0.143183 48.731274 -34.08223
0.054691 44.100449 -33.463223
1.165987 42.768185 -32.807384
2.024378 41.213291 -31.781368
1.488888 64.735046 -29.718849
2.655136 52.061031 -30.663704
2.891411 47.47765 -30.276058
-0.866647 73.998581 25.315478
-0.791091 74.764229 26.615123
-15.007278 72.29985 32.753679
-15.840677 70.909439 33.172667
-24.682783 73.494827 17.655233
-25.199441 73.969994 16.366128
-25.847859 72.72245 17.528552
-26.478997 71.511238 18.768812
-25.901643 70.993789 19.982056
-25.847859 72.72245 17.528552
-26.478997 71.511238 18.768812
-0.508479 78.305405 -19.074087
-0.809452 79.845566 -18.153239
-0.623216 78.940079 -17.354131
-0.356331 77.608566 -20.750466
-0.508479 78.305405 -19.074087
-22.435482 82.078544 -4.039724
-23.940348 81.237335 -4.044345
-23.479536 81.371223 -2.676837
-1.912891 38.544041 -32.640836
-2.670911 39.027685 -32.739156
-1.94281 40.934054 -33.101036
-1.399367 67.00576 16.775983
-1.401536 68.721199 15.942763
-1.411499 68.123291 17.899518
-1.338844 65.326416 17.651222
-1.328881 65.924324 15.694468
-1.399367 67.00576 16.775983
-18.36063 78.38301 -21.540692
-19.614357 78.821571 -20.446987
-17.792736 79.554847 -20.793915
-17.094752 77.775925 -22.54254
-18.36063 78.38301 -21.540692
-8.246723 74.014785 -28.326172
-7.309848 72.707229 -29.2115
-3.848679 57.787658 -33.970365
-3.252123 59.592426 -33.873163
-3.416792 55.925151 -34.177216
-3.848679 57.787658 -33.970365
-2.460417 55.764392 -34.300663
-3.074047 53.952869 -34.297035
-3.416792 55.925151 -34.177216
-18.263604 69.23024 31.708839
-17.54372 70.537301 31.261663
-18.346678 70.352058 30.34754
-0.860854 73.270203 -6.539199
-0.71834 72.990265 -8.310256
-0.827668 78.946884 -12.922392
-0.926743 79.993736 -13.786638
-1.091185 80.423363 -11.963449
-0.79706 77.832214 -12.017399
-0.827668 78.946884 -12.922392
-0.755116 74.224289 -9.262595
-0.769336 75.46743 -10.179428
-0.929177 75.793617 -8.380864
-0.71834 72.990265 -8.310256
-0.755116 74.224289 -9.262595
-7.901359 77.118202 34.549324
-8.777446 76.062836 35.224718
-24.996433 79.766556 1.428567
-25.479273 79.799858 0.073803
-1.171815 71.249725 21.501645
-1.161152 72.967217 20.714272
-1.067479 72.236427 22.753414
-1.289304 70.248688 20.265286
-1.171815 71.249725 21.501645
-4.051991 71.461556 -30.511236
-4.733162 73.003388 -29.70459
-3.612862 72.983162 -29.831736
-3.363612 69.877495 -31.238497
-4.051991 71.461556 -30.511236
-11.476398 75.112885 33.730533
-10.594569 76.368484 33.06473
-11.516862 76.396286 32.002523
-22.981576 77.532898 12.700588
-24.170759 76.719803 12.504869
-23.764653 76.381653 13.950534
-5.428107 79.723198 32.046437
-6.252172 80.17273 30.98166
-6.224802 78.955131 32.948906
-3.434019 81.135041 29.064391
-4.017779 80.822418 30.10885
-3.385626 80.007812 31.098837
-22.807606 82.009354 -9.318815
-23.375497 81.686829 -10.537326
-5.212928 40.113781 -32.831047
-5.356033 42.266466 -33.158411
-5.101071 35.545582 -31.98184
-4.270644 35.120369 -31.913736
-22.001288 65.513123 30.76137
-22.703236 65.675636 29.804265
-21.210197 66.609574 30.556425
-22.001288 65.513123 30.76137
-1.363169 70.086761 10.087019
-1.43584 71.267807 11.163035
-1.376362 69.703537 12.033826
-1.234608 68.841133 9.061248
-1.294086 70.405403 8.190456
-1.363169 70.086761 10.087019
-1.03228 67.6372 8.078755
-1.234608 68.841133 9.061248
-23.367103 79.567077 -17.217371
-24.58148 79.549034 -16.052079
-22.763915 80.38018 -16.280707
-11.282512 77.377724 -25.368021
-9.715125 77.798371 -25.723678
-10.234447 76.365257 -26.40449
-12.43219 78.285744 -24.347889
-11.282512 77.377724 -25.368021
2.634116 41.978248 -30.828165
2.348819 40.349466 -31.077873
2.309674 42.842073 -31.53166
1.4241 65.837631 -28.503132
1.208071 66.679642 -29.232126
1.143283 67.782227 -28.016409
2.802015 51.141338 -29.716845
2.642809 53.349926 -29.786219
2.920153 48.849648 -29.523021
2.773274 49.76934 -30.469881
2.802015 51.141338 -29.716845
-23.627293 67.330979 26.835552
-24.509501 66.544044 26.850676
-23.961945 66.155861 27.887602
-0.940649 73.14399 24.035469
-0.982814 74.808509 23.246049
-0.866647 73.998581 25.315478
-1.067479 72.236427 22.753414
-0.940649 73.14399 24.035469
-14.193859 73.668983 32.198563
-15.082042 73.524269 31.199679
-15.007278 72.29985 32.753679
-13.258892 73.792625 33.210445
-13.333657 75.017044 31.656444
-14.193859 73.668983 32.198563
-12.366816 73.81546 34.264122
-13.258892 73.792625 33.210445
-24.4941 75.155464 15.123812
-25.199441 73.969994 16.366128
-23.304918 75.968559 15.319531
-23.764653 76.381653 13.950534
-24.4941 75.155464 15.123812
-0.286541 76.822823 -22.351582
-0.624924 78.425148 -21.474312
-0.356331 77.608566 -20.750466
0.087724 75.161072 -23.176974
-0.180869 75.977654 -23.90082
-0.286541 76.822823 -22.351582
0.373327 73.424584 -23.946667
0.087724 75.161072 -23.176974
-2.765331 79.152863 32.101595
-3.385626 80.007812 31.098837
-2.304366 79.271492 31.004639
-2.765331 79.152863 32.101595
-24.464773 81.118652 -5.356267
-23.940348 81.237335 -4.044345
-23.41391 81.729827 -6.704968
-24.464773 81.118652 -5.356267
-21.784497 82.552223 -6.74357
-22.302112 82.337395 -8.041307
-23.41391 81.729827 -6.704968
-22.031534 80.249565 7.254184
-23.305478 79.392662 7.082762
-22.93716 79.227936 8.567716
-3.445593 37.085907 -32.346717
-3.475512 39.47592 -32.806917
-2.670911 39.027685 -32.739156
-4.270644 35.120369 -31.913736
-3.445593 37.085907 -32.346717
-1.346547 68.06308 12.88852
-1.376362 69.703537 12.033826
-1.419219 69.244125 13.964535
-1.249809 66.462074 13.786106
-1.346547 68.06308 12.88852
-1.249809 66.462074 13.786106
-1.328881 65.924324 15.694468
-20.882647 79.203797 -19.41539
-22.134185 79.406205 -18.288284
-20.298001 80.195816 -18.573105
-20.882647 79.203797 -19.41539
-19.614357 78.821571 -20.446987
-9.181802 75.245529 -27.368725
-7.731981 75.55516 -27.717594
-8.246723 74.014785 -28.326172
-10.234447 76.365257 -26.40449
-9.181802 75.245529 -27.368725
-3.708242 52.129543 -34.188506
-4.382224 50.246227 -34.047303
-2.751868 51.968784 -34.311953
-3.708242 52.129543 -34.188506
-3.074047 53.952869 -34.297035
-16.678054 70.785309 32.188879
-16.761127 71.907128 30.827579
-17.54372 70.537301 31.261663
-15.840677 70.909439 33.172667
-16.678054 70.785309 32.188879
-25.165774 66.974846 25.776806
-24.509501 66.544044 26.850676
-25.733463 67.461761 24.639538
-25.165774 66.974846 25.776806
-24.742537 68.206077 24.661358
-26.387799 67.969261 23.51825
-25.733463 67.461761 24.639538
-25.891155 69.216644 22.335272
-26.387799 67.969261 23.51825
-25.387 70.475631 21.256049
-25.891155 69.216644 22.335272
-24.806071 69.95198 22.444867
-24.816559 71.729126 20.091651
-25.901643 70.993789 19.982056
-25.387 70.475631 21.256049
-0.984267 73.476669 -4.713714
-0.860854 73.270203 -6.539199
-1.03837 74.756943 -5.638546
-0.920625 72.145249 -3.813877
-0.984267 73.476669 -4.713714
-1.098142 73.631989 -2.913223
-0.796531 70.847031 -2.877872
-0.920625 72.145249 -3.813877
-0.910407 70.945672 -1.099128
-0.796531 70.847031 -2.877872
-0.998931 70.971954 0.734742
-0.910407 70.945672 -1.099128
-1.123024 72.326851 -0.179517
-1.100555 70.934013 2.551969
-0.998931 70.971954 0.734742
-0.793707 79.498749 -15.589432
-1.057225 80.975227 -14.630489
-0.926743 79.993736 -13.786638
-0.623216 78.940079 -17.354131
-0.793707 79.498749 -15.589432
-0.772703 76.662338 -11.116646
-0.79706 77.832214 -12.017399
-0.967754 78.206635 -10.19845
-0.772703 76.662338 -11.116646
-0.769336 75.46743 -10.179428
-7.039472 78.109527 33.75994
-7.910753 78.413337 32.673513
-7.901359 77.118202 34.549324
-6.224802 78.955131 32.948906
-7.039472 78.109527 33.75994
-24.510909 80.576111 -1.317074
-25.479273 79.799858 0.073803
-23.006043 81.417321 -1.312453
-23.479536 81.371223 -2.676837
-24.510909 80.576111 -1.317074
-1.197809 37.958709 -32.493873
-0.539155 39.829026 -32.7825
-1.363394 69.177796 19.067183
-1.339578 70.909622 18.264401
-1.289304 70.248688 20.265286
-1.411499 68.123291 17.899518
-1.363394 69.177796 19.067183
-23.387621 80.97895 -14.052239
-25.126534 80.149865 -13.905619
-24.535863 80.766678 -12.842444
-5.984597 72.903099 -29.529566
-5.545467 74.424706 -28.850065
-4.733162 73.003388 -29.70459
-7.309848 72.707229 -29.2115
-5.984597 72.903099 -29.529566
-2.797983 68.180038 -31.905539
-3.363612 69.877495 -31.238497
-2.366063 69.743874 -31.305424
-3.226126 66.590508 -32.41646
-2.797983 68.180038 -31.905539
-2.228576 66.456886 -32.483387
-3.742443 64.895859 -32.794553
-3.226126 66.590508 -32.41646
-3.178901 63.157766 -33.279895
-3.742443 64.895859 -32.794553
-2.72031 61.312172 -33.690239
-3.178901 63.157766 -33.279895
-2.198128 63.021761 -33.404651
-2.271349 59.456421 -33.997919
-3.252123 59.592426 -33.873163
-2.72031 61.312172 -33.690239
-9.663372 76.253547 34.127819
-9.703837 77.536949 32.399809
-10.594569 76.368484 33.06473
-8.777446 76.062836 35.224718
-9.663372 76.253547 34.127819
-11.476398 75.112885 33.730533
-12.366816 73.81546 34.264122
-24.628833 77.054153 11.139888
-24.170759 76.719803 12.504869
-23.799394 78.12104 9.825608
-24.628833 77.054153 11.139888
-22.525449 78.977944 9.997031
-22.93716 79.227936 8.567716
-23.799394 78.12104 9.825608
1.089404 68.834793 -26.712567
1.143283 67.782227 -28.016409
0.873375 69.676804 -27.441561
0.686376 71.631317 -24.65242
0.506446 72.522637 -25.431965
0.373327 73.424584 -23.946667
0.940938 69.793564 -25.303749
0.686376 71.631317 -24.65242
1.089404 68.834793 -26.712567
0.940938 69.793564 -25.303749
-0.802893 75.434937 27.894538
-0.791091 74.764229 26.615123
-0.920613 76.333809 25.805473
-4.712431 80.317993 31.111243
-5.428107 79.723198 32.046437
-4.760825 81.445221 29.076798
-4.712431 80.317993 31.111243
-4.017779 80.822418 30.10885
-1.874722 79.28688 29.869446
-2.372224 80.335824 28.919186
-2.304366 79.271492 31.004639
-1.578256 79.1167 28.682688
-1.874722 79.28688 29.869446
-1.308139 78.840561 27.479081
-1.672464 80.075074 26.580385
-1.578256 79.1167 28.682688
-1.073173 77.443352 28.333135
-1.167381 78.401726 26.230833
-1.308139 78.840561 27.479081
-0.831135 76.008408 29.179674
-1.073173 77.443352 28.333135
-0.802893 75.434937 27.894538
-0.831135 76.008408 29.179674
-23.932129 81.232856 -11.714396
-24.535863 80.766678 -12.842444
-22.240317 82.049736 -11.811996
-23.932129 81.232856 -11.714396
-23.375497 81.686829 -10.537326
-21.178192 82.831749 -9.357417
-22.807606 82.009354 -9.318815
-22.302112 82.337395 -8.041307
-23.729734 79.563011 5.673853
-23.305478 79.392662 7.082762
-24.12123 79.648826 4.223339
-23.729734 79.563011 5.673853
-22.791348 80.500107 4.318716
-24.569147 79.748413 2.839013
-24.12123 79.648826 4.223339
-23.61013 80.604065 1.457756
-24.996433 79.766556 1.428567
-24.569147 79.748413 2.839013
-5.130211 37.838513 -32.430194
-5.212928 40.113781 -32.831047
-4.33291 39.80941 -32.815331
-5.981089 35.849953 -31.997557
-5.130211 37.838513 -32.430194
-5.101071 35.545582 -31.98184
-1.912891 38.544041 -32.640836
-1.197809 37.958709 -32.493873
-23.294321 65.851082 28.896441
-23.961945 66.155861 27.887602
-22.488653 66.767349 28.780302
-23.294321 65.851082 28.896441
-22.703236 65.675636 29.804265
-20.535501 67.628792 30.299448
-21.222872 67.611122 29.431148
-21.210197 66.609574 30.556425
-19.794694 67.836121 31.109721
-19.80737 68.83767 29.984444
-20.535501 67.628792 30.299448
-19.038774 67.909233 32.029692
-19.794694 67.836121 31.109721
-18.263604 69.23024 31.708839
-19.038774 67.909233 32.029692
-1.16552 70.826943 4.423044
-1.100555 70.934013 2.551969
-1.276513 72.246063 3.525427
-1.077543 69.337334 5.307135
-1.16552 70.826943 4.423044
-1.253502 70.649383 6.280593
-0.911091 67.890541 6.234559
-1.077543 69.337334 5.307135
-0.911091 67.890541 6.234559
-1.03228 67.6372 8.078755
-25.746229 79.50312 -14.930548
-25.126534 80.149865 -13.905619
-25.746229 79.50312 -14.930548
-24.58148 79.549034 -16.052079
-23.367103 79.567077 -17.217371
-22.134185 79.406205 -18.288284
-13.573708 79.057281 -23.252983
-11.904709 79.582375 -23.592304
-12.43219 78.285744 -24.347889
-15.320099 78.438469 -22.948093
-14.792618 79.735099 -22.192509
-13.573708 79.057281 -23.252983
-17.094752 77.775925 -22.54254
-15.320099 78.438469 -22.948093
-4.602447 44.218481 -33.472805
-5.356033 42.266466 -33.158411
-4.087665 48.24887 -33.966425
-5.083825 48.349639 -33.810305
-4.382224 50.246227 -34.047303
-3.867996 46.135349 -33.796885
-4.087665 48.24887 -33.966425
-3.166393 48.031937 -34.033883
-3.681176 44.001547 -33.540262
-4.602447 44.218481 -33.472805
-3.867996 46.135349 -33.796885
0.080586 41.654045 -33.012753
-0.539155 39.829026 -32.7825
-0.565049 42.275429 -33.232969
0.636234 40.987914 -32.684833
0.080586 41.654045 -33.012753
0.610339 43.434317 -33.135303
1.165709 40.2486 -32.311256
0.636234 40.987914 -32.684833
1.594904 39.471153 -31.798248
1.165709 40.2486 -32.311256
1.595182 41.990738 -32.294376
2.017608 38.636976 -31.251131
1.594904 39.471153 -31.798248
2.017608 38.636976 -31.251131
2.348819 40.349466 -31.077873
1.66235 63.861238 -28.934478
1.4241 65.837631 -28.503132
1.723693 62.704877 -30.048589
1.66235 63.861238 -28.934478
1.676443 61.456513 -31.029043
1.441638 63.486681 -30.699303
1.723693 62.704877 -30.048589
1.903185 59.378681 -31.24636
1.62113 60.160484 -31.897073
1.676443 61.456513 -31.029043
2.096792 57.267761 -31.406608
1.903185 59.378681 -31.24636
2.269559 55.099815 -31.445101
2.02064 55.914707 -32.152884
2.096792 57.267761 -31.406608
2.500424 54.25695 -30.681265
2.642809 53.349926 -29.786219
2.424272 52.903896 -31.42754
2.269559 55.099815 -31.445101
2.500424 54.25695 -30.681265
3.053681 46.543152 -29.286317
2.920153 48.849648 -29.523021
2.977108 45.076582 -29.923042
3.053681 46.543152 -29.286317
2.828888 43.573185 -30.425989
2.743191 45.974253 -30.779005
2.977108 45.076582 -29.923042
2.634116 41.978248 -30.828165
2.828888 43.573185 -30.425989
3 0 80 78
3 0 78 81
3 0 81 83
3 1 87 85
3 1 90 88
3 1 85 90
3 2 94 92
3 2 97 95
3 2 92 97
3 315 314 99
3 3 103 101
3 4 106 104
3 4 108 106
3 4 110 108
3 5 113 111
3 317 316 114
3 7 318 320
3 318 116 319
3 318 319 320
3 5 119 117
3 5 111 119
3 7 321 322
3 7 323 324
3 9 123 121
3 325 126 326
3 327 326 124
3 325 326 327
3 329 328 126
3 11 130 128
3 13 133 131
3 13 135 133
3 6 138 136
3 14 330 332
3 330 139 331
3 330 331 332
3 14 141 139
3 8 144 142
3 15 147 145
3 15 149 147
3 15 151 149
3 11 154 152
3 11 128 154
3 16 333 335
3 335 334 156
3 333 334 335
3 12 160 158
3 336 163 337
3 338 337 161
3 336 337 338
3 341 340 163
3 339 340 341
3 17 342 344
3 344 343 164
3 342 343 344
3 17 345 346
3 10 167 165
3 348 347 168
3 18 349 350
3 18 351 352
3 18 353 355
3 353 171 354
3 353 354 355
3 19 174 172
3 19 176 174
3 20 179 177
3 22 180 79
3 22 356 358
3 358 357 180
3 356 357 358
3 23 183 181
3 20 184 82
3 20 177 184
3 23 185 84
3 23 181 185
3 25 359 360
3 26 186 86
3 26 187 186
3 27 190 188
3 29 191 89
3 29 361 363
3 363 362 191
3 361 362 363
3 29 364 365
3 25 366 368
3 368 367 91
3 366 367 368
3 25 369 370
3 30 194 192
3 32 195 93
3 32 196 195
3 372 371 197
3 373 199 374
3 33 202 200
3 35 203 96
3 35 204 203
3 35 206 204
3 30 207 98
3 30 192 207
3 37 210 208
3 375 211 376
3 377 376 100
3 375 376 377
3 379 378 211
3 39 214 212
3 41 215 102
3 41 216 215
3 42 219 217
3 44 220 105
3 44 380 382
3 382 381 220
3 380 381 382
3 44 383 384
3 45 221 107
3 45 222 221
3 45 224 222
3 47 225 109
3 47 226 225
3 48 229 227
3 50 230 112
3 50 231 230
3 21 232 178
3 51 233 115
3 51 234 233
3 51 385 387
3 387 386 234
3 385 386 387
3 52 388 390
3 388 235 389
3 388 389 390
3 52 236 235
3 24 237 182
3 53 238 118
3 53 239 238
3 53 240 239
3 48 241 120
3 48 227 241
3 54 244 242
3 56 245 122
3 56 246 245
3 28 247 189
3 57 248 125
3 57 249 248
3 57 250 249
3 58 251 127
3 58 252 251
3 58 254 252
3 59 257 255
3 61 258 129
3 61 259 258
3 31 260 193
3 62 261 132
3 62 262 261
3 62 263 262
3 63 264 134
3 63 265 264
3 49 266 228
3 64 267 137
3 64 268 267
3 391 269 392
3 393 392 198
3 391 392 393
3 65 394 396
3 394 270 395
3 394 395 396
3 65 271 270
3 65 272 271
3 397 273 398
3 66 274 140
3 66 275 274
3 67 276 143
3 67 277 276
3 34 278 201
3 68 279 146
3 68 280 279
3 68 281 280
3 69 282 148
3 69 283 282
3 69 284 283
3 70 285 150
3 70 286 285
3 36 287 205
3 71 288 153
3 71 289 288
3 71 290 289
3 59 291 155
3 59 255 291
3 72 399 400
3 402 401 157
3 403 292 404
3 406 405 292
3 60 293 256
3 73 294 159
3 73 295 294
3 38 296 209
3 407 297 408
3 409 408 162
3 407 408 409
3 410 298 411
3 412 411 297
3 410 411 412
3 414 413 298
3 40 415 417
3 417 416 213
3 415 416 417
3 55 299 243
3 74 300 166
3 74 301 300
3 43 302 218
3 418 303 419
3 420 419 169
3 418 419 420
3 422 421 303
3 75 304 170
3 75 305 304
3 46 306 223
3 76 307 173
3 76 308 307
3 76 309 308
3 77 310 175
3 77 423 425
3 425 424 310
3 423 424 425
3 426 311 427
3 428 427 253
3 426 427 428
3 429 312 430
3 431 313 432
3 433 432 312
3 431 432 433
3 78 79 20
3 80 79 78
3 80 22 79
3 81 82 23
3 78 82 81
3 78 20 82
3 83 434 436
3 434 84 435
3 434 435 436
3 81 84 83
3 81 23 84
3 85 86 25
3 87 86 85
3 87 26 86
3 88 89 27
3 90 89 88
3 90 29 89
3 90 91 29
3 85 91 90
3 85 25 91
3 92 93 30
3 94 93 92
3 94 32 93
3 95 96 33
3 97 96 95
3 97 35 96
3 97 98 35
3 92 98 97
3 92 30 98
3 99 100 37
3 437 100 438
3 439 438 99
3 437 438 439
3 441 440 100
3 101 102 39
3 103 102 101
3 103 41 102
3 104 105 42
3 106 105 104
3 106 44 105
3 106 107 44
3 108 107 106
3 108 45 107
3 108 109 45
3 110 109 108
3 110 47 109
3 111 112 48
3 113 112 111
3 113 50 112
3 114 115 21
3 442 115 443
3 444 443 114
3 442 443 444
3 445 51 446
3 447 446 115
3 445 446 447
3 449 448 51
3 116 450 451
3 116 452 454
3 452 52 453
3 452 453 454
3 117 118 24
3 119 118 117
3 119 53 118
3 119 120 53
3 111 120 119
3 111 48 120
3 121 122 54
3 123 122 121
3 123 56 122
3 124 125 28
3 126 125 124
3 126 57 125
3 126 127 57
3 455 127 456
3 457 456 126
3 455 456 457
3 458 58 459
3 460 459 127
3 458 459 460
3 462 461 58
3 128 129 59
3 130 129 128
3 130 61 129
3 131 132 31
3 133 132 131
3 133 62 132
3 133 134 62
3 135 134 133
3 135 63 134
3 136 137 49
3 138 137 136
3 138 64 137
3 463 65 464
3 466 465 65
3 139 467 468
3 139 469 470
3 139 471 473
3 471 140 472
3 471 472 473
3 141 140 139
3 141 66 140
3 142 474 476
3 474 143 475
3 474 475 476
3 144 143 142
3 144 67 143
3 145 146 34
3 147 146 145
3 147 68 146
3 147 148 68
3 149 148 147
3 149 69 148
3 149 150 69
3 151 150 149
3 151 70 150
3 152 153 36
3 154 153 152
3 154 71 153
3 154 155 71
3 128 155 154
3 128 59 155
3 156 157 72
3 477 157 478
3 479 478 156
3 477 478 479
3 481 480 157
3 158 159 60
3 160 159 158
3 160 73 159
3 161 162 38
3 163 162 161
3 163 482 484
3 484 483 162
3 482 483 484
3 163 485 486
3 488 487 163
3 164 489 491
3 491 490 40
3 489 490 491
3 493 492 164
3 165 166 55
3 167 166 165
3 167 74 166
3 168 169 43
3 494 169 495
3 496 495 168
3 494 495 496
3 498 497 169
3 499 170 500
3 171 501 503
3 501 170 502
3 501 502 503
3 171 75 170
3 172 173 46
3 174 173 172
3 174 76 173
3 174 175 76
3 176 175 174
3 176 77 175
3 177 178 5
3 179 178 177
3 179 21 178
3 79 179 20
3 180 179 79
3 180 21 179
3 180 114 21
3 504 114 505
3 506 505 180
3 504 505 506
3 508 507 114
3 181 182 7
3 183 182 181
3 183 24 182
3 82 183 23
3 184 183 82
3 184 24 183
3 184 117 24
3 177 117 184
3 177 5 117
3 84 509 510
3 185 511 513
3 513 512 84
3 511 512 513
3 185 514 515
3 185 516 517
3 181 518 520
3 520 519 185
3 518 519 520
3 181 521 523
3 521 7 522
3 521 522 523
3 86 524 526
3 526 525 25
3 524 525 526
3 186 527 529
3 529 528 86
3 527 528 529
3 186 530 531
3 186 532 533
3 187 534 536
3 536 535 186
3 534 535 536
3 187 537 538
3 188 189 9
3 190 189 188
3 190 28 189
3 89 190 27
3 191 190 89
3 191 28 190
3 191 124 28
3 539 124 540
3 541 540 191
3 539 540 541
3 543 542 124
3 91 544 546
3 546 545 29
3 544 545 546
3 548 547 91
3 192 193 11
3 194 193 192
3 194 31 193
3 93 194 30
3 195 194 93
3 195 31 194
3 195 131 31
3 196 131 195
3 196 13 131
3 197 198 6
3 549 198 550
3 551 550 197
3 549 550 551
3 553 552 198
3 199 554 555
3 199 556 558
3 556 14 557
3 556 557 558
3 200 201 8
3 202 201 200
3 202 34 201
3 96 202 33
3 203 202 96
3 203 34 202
3 203 145 34
3 204 145 203
3 204 15 145
3 204 205 15
3 206 205 204
3 206 36 205
3 98 206 35
3 207 206 98
3 207 36 206
3 207 152 36
3 192 152 207
3 192 11 152
3 560 559 16
3 208 209 12
3 210 209 208
3 210 38 209
3 100 210 37
3 211 210 100
3 211 38 210
3 211 161 38
3 561 161 562
3 563 562 211
3 561 562 563
3 565 564 161
3 212 566 568
3 566 213 567
3 566 567 568
3 214 213 212
3 214 40 213
3 102 214 39
3 215 214 102
3 215 40 214
3 215 164 40
3 216 164 215
3 216 17 164
3 217 218 10
3 219 218 217
3 219 43 218
3 105 219 42
3 220 219 105
3 220 43 219
3 220 168 43
3 569 168 570
3 571 570 220
3 569 570 571
3 573 572 168
3 107 574 576
3 576 575 44
3 574 575 576
3 221 577 579
3 579 578 107
3 577 578 579
3 221 580 581
3 221 582 583
3 222 584 586
3 586 585 221
3 584 585 586
3 222 587 589
3 587 18 588
3 587 588 589
3 222 223 18
3 224 223 222
3 224 46 223
3 109 224 45
3 225 224 109
3 225 46 224
3 225 172 46
3 226 172 225
3 226 19 172
3 227 228 2
3 229 228 227
3 229 49 228
3 112 229 48
3 230 229 112
3 230 49 229
3 230 136 49
3 231 136 230
3 231 6 136
3 178 113 5
3 232 113 178
3 232 50 113
3 115 232 21
3 233 232 115
3 233 50 232
3 233 231 50
3 234 231 233
3 234 6 231
3 234 197 6
3 590 197 591
3 592 591 234
3 590 591 592
3 594 593 197
3 596 595 51
3 235 597 598
3 235 599 600
3 235 601 603
3 601 142 602
3 601 602 603
3 236 142 235
3 236 8 142
3 182 116 7
3 237 116 182
3 237 52 116
3 118 237 24
3 238 237 118
3 238 52 237
3 238 236 52
3 239 236 238
3 239 8 236
3 239 200 8
3 240 200 239
3 240 33 200
3 120 240 53
3 241 240 120
3 241 33 240
3 241 95 33
3 227 95 241
3 227 2 95
3 242 243 3
3 244 243 242
3 244 55 243
3 122 244 54
3 245 244 122
3 245 55 244
3 245 165 55
3 246 165 245
3 246 10 165
3 189 123 9
3 247 123 189
3 247 56 123
3 125 247 28
3 248 247 125
3 248 56 247
3 248 246 56
3 249 246 248
3 249 10 246
3 249 217 10
3 250 217 249
3 250 42 217
3 127 250 57
3 251 250 127
3 251 42 250
3 251 104 42
3 252 104 251
3 252 4 104
3 252 253 4
3 254 253 252
3 254 604 606
3 606 605 253
3 604 605 606
3 607 254 608
3 609 608 58
3 607 608 609
3 610 254 611
3 613 612 254
3 255 256 1
3 257 256 255
3 257 60 256
3 129 257 59
3 258 257 129
3 258 60 257
3 258 158 60
3 259 158 258
3 259 12 158
3 193 130 11
3 260 130 193
3 260 61 130
3 132 260 31
3 261 260 132
3 261 61 260
3 261 259 61
3 262 259 261
3 262 12 259
3 262 208 12
3 263 208 262
3 263 37 208
3 134 263 62
3 264 263 134
3 264 37 263
3 264 99 37
3 265 99 264
3 265 614 616
3 616 615 99
3 614 615 616
3 228 94 2
3 266 94 228
3 266 32 94
3 137 266 49
3 267 266 137
3 267 32 266
3 267 196 32
3 268 196 267
3 268 13 196
3 198 138 6
3 269 138 198
3 269 64 138
3 617 269 618
3 270 619 621
3 619 269 620
3 619 620 621
3 270 64 269
3 270 268 64
3 271 268 270
3 271 13 268
3 271 135 13
3 272 135 271
3 272 63 135
3 622 272 623
3 624 623 65
3 622 623 624
3 625 272 626
3 627 63 628
3 629 628 272
3 627 628 629
3 630 265 631
3 632 631 63
3 630 631 632
3 633 265 634
3 636 635 265
3 637 212 638
3 273 639 641
3 639 212 640
3 639 640 641
3 273 39 212
3 140 642 644
3 642 273 643
3 642 643 644
3 274 273 140
3 274 39 273
3 274 101 39
3 275 101 274
3 275 3 101
3 143 645 646
3 276 647 649
3 649 648 143
3 647 648 649
3 276 650 651
3 276 652 654
3 652 199 653
3 652 653 654
3 277 199 276
3 277 14 199
3 201 144 8
3 278 144 201
3 278 67 144
3 146 278 34
3 279 278 146
3 279 67 278
3 279 277 67
3 280 277 279
3 280 14 277
3 280 141 14
3 281 141 280
3 281 66 141
3 148 281 68
3 282 281 148
3 282 66 281
3 282 275 66
3 283 275 282
3 283 3 275
3 283 242 3
3 284 242 283
3 284 54 242
3 150 284 69
3 285 284 150
3 285 54 284
3 285 121 54
3 286 121 285
3 286 9 121
3 205 151 15
3 287 151 205
3 287 70 151
3 153 287 36
3 288 287 153
3 288 70 287
3 288 286 70
3 289 286 288
3 289 9 286
3 289 188 9
3 290 188 289
3 290 27 188
3 155 290 71
3 291 290 155
3 291 27 290
3 291 88 27
3 255 88 291
3 255 1 88
3 157 655 657
3 657 656 72
3 655 656 657
3 660 659 157
3 658 659 660
3 662 661 16
3 663 83 664
3 292 665 667
3 665 83 666
3 665 666 667
3 292 0 83
3 292 80 0
3 668 80 669
3 670 669 292
3 668 669 670
3 671 22 672
3 673 672 80
3 671 672 673
3 674 22 675
3 677 676 22
3 256 87 1
3 293 87 256
3 293 26 87
3 159 293 60
3 294 293 159
3 294 26 293
3 294 187 26
3 295 187 294
3 295 678 680
3 680 679 187
3 678 679 680
3 209 160 12
3 296 160 209
3 296 73 160
3 162 296 38
3 297 296 162
3 297 73 296
3 297 295 73
3 298 295 297
3 298 681 683
3 683 682 295
3 681 682 683
3 298 684 685
3 687 686 298
3 213 688 689
3 691 690 213
3 693 692 40
3 243 103 3
3 299 103 243
3 299 41 103
3 166 299 55
3 300 299 166
3 300 41 299
3 300 216 41
3 301 216 300
3 301 17 216
3 218 167 10
3 302 167 218
3 302 74 167
3 169 302 43
3 303 302 169
3 303 74 302
3 303 301 74
3 694 301 695
3 696 695 303
3 694 695 696
3 697 17 698
3 699 698 301
3 697 698 699
3 701 700 17
3 702 72 703
3 170 704 706
3 704 705 706
3 304 707 709
3 709 708 170
3 707 708 709
3 304 710 712
3 710 72 711
3 710 711 712
3 304 156 72
3 305 156 304
3 305 16 156
3 223 171 18
3 306 171 223
3 306 75 171
3 173 306 46
3 307 306 173
3 307 75 306
3 307 305 75
3 308 305 307
3 308 16 305
3 308 713 715
3 715 714 16
3 713 714 715
3 309 716 718
3 718 717 308
3 716 717 718
3 309 719 720
3 175 309 76
3 310 309 175
3 310 721 723
3 723 722 309
3 721 722 723
3 310 724 725
3 727 726 310
3 253 110 4
3 311 110 253
3 311 47 110
3 728 311 729
3 730 311 731
3 732 47 733
3 734 733 311
3 732 733 734
3 735 226 736
3 737 736 47
3 735 736 737
3 738 226 739
3 740 19 741
3 742 741 226
3 740 741 742
3 312 743 744
3 312 745 747
3 745 19 746
3 745 746 747
3 312 176 19
3 313 176 312
3 313 77 176
3 748 313 749
3 750 313 751
3 752 77 753
3 754 753 313
3 752 753 754
3 756 755 77
