ply
format ascii 1.0
element vertex 377
property float x
property float y
property float z
element face 398
property list uchar int vertex_index
end_header
52.955032 -15.226645 -4.944427
46.569439 -28.34927 10.645838
61.9795 -15.159016 -4.201662
49.326271 -22.358913 3.234107
59.249348 -24.607212 2.368083
56.657482 -32.843224 9.430211
54.600922 -6.747833 -13.698616
47.620766 -25.530552 7.016611
54.129723 -23.398014 2.918958
52.422123 -27.342125 6.372011
62.081169 -34.661461 9.287701
63.007133 -30.776077 5.254786
48.617195 -15.240624 -5.6171
49.653946 -11.649286 -9.99984
54.136971 -11.163432 -9.306379
57.587776 -14.854855 -4.353504
58.661263 -10.309181 -8.437851
62.673309 -10.292927 -7.950308
47.067467 -18.281122 -1.138767
51.243683 -18.93449 -0.745335
55.980228 -19.212391 -0.596561
60.760117 -19.944214 -0.833588
64.966499 -21.542572 -1.301065
51.261585 -30.827135 9.94408
57.771152 -29.001961 5.702564
64.048943 -26.302395 1.814469
54.302692 -2.136023 -17.985441
59.03157 -5.572071 -12.81311
58.646488 -0.743353 -17.366465
44.635418 -26.863194 10.970401
44.995636 -25.704298 9.145765
46.987526 -26.996532 8.848829
49.9188 -26.476198 6.714985
49.255531 -28.135283 8.499973
64.933479 -33.773308 7.176618
50.7206 -15.351308 -5.304764
51.369476 -13.502932 -7.517155
53.627434 -13.242355 -7.112202
59.850899 -14.874396 -4.215815
60.387146 -12.522587 -6.121214
62.401962 -12.735678 -6.020411
46.334236 -23.121124 5.290779
47.20435 -21.723892 3.270929
48.131699 -20.258343 1.194618
50.286186 -20.677963 1.271772
53.570419 -19.060637 -0.623219
52.615971 -21.000502 1.272275
56.687393 -23.955269 2.659515
57.557266 -21.741594 1.006392
60.022224 -22.296909 0.770197
62.973816 -20.625988 -1.05422
62.376446 -23.026134 0.504094
53.599297 -33.428284 11.592176
50.990356 -32.294369 11.803787
53.908958 -31.877621 9.647736
54.408218 -30.110271 7.792613
57.150265 -31.013964 7.506876
65.74234 -29.625259 3.309509
63.528442 -28.591806 3.472594
66.112991 -27.373184 1.603743
66.428452 -25.051901 0.002359
52.166183 -9.452844 -11.889381
49.922184 -9.637642 -12.09156
52.289337 -7.272428 -14.008064
52.228622 -5.021706 -16.062201
54.544903 -4.450856 -15.861704
60.97477 -7.720786 -10.230671
58.940083 -7.961446 -10.595308
61.004745 -5.276271 -12.422831
60.52803 -0.360233 -17.015284
58.178715 1.640268 -19.671869
63.899109 -15.756655 -4.294352
45.57914 -24.450779 7.250484
48.418854 -23.978849 5.14687
51.653358 -22.888351 3.116664
50.73592 -24.718641 4.925393
53.231979 -25.410133 4.640667
55.840572 -26.108141 4.320829
59.415459 -33.758636 9.308353
59.885941 -31.904291 7.301451
62.515171 -32.813572 7.189537
65.340561 -31.772053 5.159175
46.689804 -14.768611 -5.811869
47.213455 -13.156054 -7.985981
49.214024 -13.518174 -7.833792
51.857162 -11.535187 -9.719418
54.464645 -8.993748 -11.508141
51.596176 -0.454086 -19.95273
55.265434 -15.013061 -4.60784
55.927917 -12.89196 -6.700787
58.204773 -12.607283 -6.354372
60.766479 -10.137935 -8.126987
62.783417 -7.83133 -9.995237
47.889511 -16.823658 -3.376789
49.938416 -17.085333 -3.104012
49.060303 -18.716381 -0.933147
52.148125 -17.120865 -2.818729
54.467804 -17.066906 -2.581409
56.835308 -17.055187 -2.436579
59.179459 -17.194983 -2.404467
55.062813 -21.328012 1.181532
58.402489 -19.485048 -0.67164
61.423637 -17.562651 -2.480434
63.490692 -18.199697 -2.641127
65.308044 -19.117655 -2.853916
48.572323 -31.011305 12.086658
48.793945 -29.660686 10.289846
51.750534 -29.161432 8.134933
55.065479 -28.17231 6.022783
58.484482 -26.852865 3.999685
60.450592 -29.860888 5.44001
61.077789 -27.673416 3.708695
61.73217 -25.383686 2.076906
64.538086 -23.943586 0.239126
47.586956 -11.364799 -10.065775
51.993095 -2.736271 -18.044611
53.885159 0.160019 -20.061689
56.427933 -10.699355 -8.851456
56.746574 -8.437491 -11.045645
56.873394 -6.117764 -13.266447
60.854904 -2.816315 -14.689608
58.932846 -3.15773 -15.075405
56.805748 -3.761523 -15.497112
56.547417 -1.39851 -17.723024
56.106674 0.936762 -19.932207
55.128389 -33.135754 10.511194
54.960422 -33.936514 11.533152
56.489515 -33.643984 10.45217
66.97797 -27.986562 1.53391
65.927665 -28.499221 2.456626
66.792644 -29.1126 2.386793
67.044727 -26.859688 0.710514
66.97797 -27.986562 1.53391
61.866672 -5.315156 -12.286635
60.989757 -6.498529 -11.326751
61.851685 -6.537413 -11.190555
64.776298 -14.995417 -5.228376
64.720451 -16.218163 -4.378474
60.573658 -35.021599 10.372841
61.906459 -35.47151 10.414314
60.748314 -34.210048 9.298027
59.240803 -34.570187 10.383167
60.573658 -35.021599 10.372841
66.347122 -32.320551 5.160395
65.13702 -32.77268 6.167897
66.143581 -33.321179 6.169117
66.484897 -31.279053 4.196499
66.347122 -32.320551 5.160395
50.649262 -1.715204 -18.877405
50.460293 -0.561125 -19.733989
47.478489 -17.55239 -2.257778
46.593429 -17.169055 -2.342409
46.182407 -17.897787 -1.223398
65.88953 -20.924594 -2.19307
66.060303 -19.712135 -2.969495
65.137271 -20.330113 -2.07749
66.547939 -23.870879 -0.770562
67.222409 -24.552924 -0.875945
48.860491 -9.516056 -12.060378
49.968539 -8.568945 -13.092135
61.493656 -1.602934 -15.716461
61.682525 -2.842593 -14.547191
56.822059 2.448479 -20.955311
57.142694 1.288515 -19.802038
57.85808 2.800232 -20.825142
55.800404 2.073173 -21.023378
56.822059 2.448479 -20.955311
44.815527 -26.283746 10.058083
44.00884 -25.437289 10.186798
43.828732 -26.016737 11.099115
63.314591 -35.125492 9.327032
61.906459 -35.47151 10.414314
64.740746 -34.681415 8.27149
63.507324 -34.217385 8.232159
63.314591 -35.125492 9.327032
65.986252 -34.292215 7.220552
64.740746 -34.681415 8.27149
66.143581 -33.321179 6.169117
65.986252 -34.292215 7.220552
45.787466 -18.484265 -0.090962
46.182407 -17.897787 -1.223398
45.427023 -22.593479 5.32583
45.08152 -23.147656 6.348074
45.86208 -21.894863 4.315905
45.427023 -22.593479 5.32583
46.769293 -22.422508 4.280854
46.266365 -21.305464 3.258597
45.86208 -21.894863 4.315905
47.668025 -20.991118 2.232773
46.73004 -20.57269 2.220441
46.266365 -21.305464 3.258597
53.550133 -34.074922 12.603844
54.960422 -33.936514 11.533152
52.279778 -33.474602 12.649406
53.550133 -34.074922 12.603844
52.294826 -32.861327 11.697982
50.975307 -32.907645 12.755211
52.279778 -33.474602 12.649406
67.202457 -25.699047 -0.090178
66.270721 -26.212542 0.803051
67.044727 -26.859688 0.710514
67.222409 -24.552924 -0.875945
67.202457 -25.699047 -0.090178
51.152115 -7.386338 -14.050387
49.968539 -8.568945 -13.092135
51.105761 -8.455035 -13.049812
52.25898 -6.147067 -15.035132
51.121758 -6.260978 -15.077456
51.152115 -7.386338 -14.050387
61.064353 0.85204 -18.082377
61.330219 -0.374893 -16.8793
60.27866 0.853078 -18.199644
61.064353 0.85204 -18.082377
59.337888 0.661518 -18.375235
59.587259 -0.551793 -17.190874
60.27866 0.853078 -18.199644
59.104002 1.853328 -19.527937
58.412601 0.448458 -18.519167
59.337888 0.661518 -18.375235
58.771513 3.037238 -20.726107
59.104002 1.853328 -19.527937
57.85808 2.800232 -20.825142
58.771513 3.037238 -20.726107
64.038715 -14.529041 -5.168956
63.078911 -14.230222 -5.122611
62.939305 -15.457835 -4.248007
64.038715 -14.529041 -5.168956
64.776298 -14.995417 -5.228376
44.153908 -24.95817 9.255885
44.00884 -25.437289 10.186798
44.44566 -24.331411 8.308244
44.153908 -24.95817 9.255885
45.287388 -25.077539 8.198125
44.703972 -23.812484 7.327927
44.44566 -24.331411 8.308244
45.956688 -23.785951 6.270632
45.08152 -23.147656 6.348074
44.703972 -23.812484 7.327927
57.868504 -34.10169 10.391241
59.240803 -34.570187 10.383167
58.036471 -33.30093 9.369282
56.489515 -33.643984 10.45217
57.868504 -34.10169 10.391241
66.685787 -30.205656 3.271666
65.54145 -30.698656 4.234342
66.484897 -31.279053 4.196499
66.792644 -29.1126 2.386793
66.685787 -30.205656 3.271666
46.95163 -13.962332 -6.898925
46.09301 -13.503429 -6.911696
45.831185 -14.309708 -5.82464
51.324411 0.667972 -20.869352
50.460293 -0.561125 -19.733989
52.450809 0.974101 -21.018629
51.324411 0.667972 -20.869352
43.818771 -26.447143 11.972641
43.828732 -26.016737 11.099115
44.588347 -27.381821 11.843035
43.818771 -26.447143 11.972641
45.555357 -28.124859 11.680754
45.602429 -27.606232 10.80812
44.588347 -27.381821 11.843035
62.756009 -6.592685 -11.072838
61.851685 -6.537413 -11.190555
61.879093 -7.776058 -10.112954
63.290142 -13.018553 -6.031986
62.190731 -13.947347 -5.111036
63.078911 -14.230222 -5.122611
63.358726 -11.78575 -6.964586
63.290142 -13.018553 -6.031986
63.4944 -10.564374 -7.929534
62.537636 -11.514302 -6.985359
63.358726 -11.78575 -6.964586
63.489212 -9.326846 -8.925028
63.4944 -10.564374 -7.929534
63.544266 -8.096047 -9.947492
62.728363 -9.062129 -8.972772
63.489212 -9.326846 -8.925028
63.465618 -6.854744 -11.005899
63.544266 -8.096047 -9.947492
62.756009 -6.592685 -11.072838
63.465618 -6.854744 -11.005899
45.551779 -14.971847 -4.730351
45.831185 -14.309708 -5.82464
46.364662 -15.491867 -4.693271
45.551779 -14.971847 -4.730351
47.328358 -15.727874 -4.595886
47.6535 -15.004618 -5.714484
46.364662 -15.491867 -4.693271
46.964516 -16.519391 -3.475731
46.593429 -17.169055 -2.342409
48.253353 -16.032141 -4.496944
47.328358 -15.727874 -4.595886
46.964516 -16.519391 -3.475731
46.631934 -18.955559 -0.03196
45.787466 -18.484265 -0.090962
47.164049 -19.944169 1.134733
46.73004 -20.57269 2.220441
47.628351 -19.173188 0.07085
47.164049 -19.944169 1.134733
48.596001 -19.487362 0.130736
48.063885 -18.498751 -1.035957
46.631934 -18.955559 -0.03196
47.628351 -19.173188 0.07085
64.516243 -17.439684 -3.551861
64.720451 -16.218163 -4.378474
63.694901 -16.978176 -3.467739
65.424919 -17.898663 -3.658256
64.516243 -17.439684 -3.551861
64.399368 -18.658676 -2.747521
66.07986 -18.51565 -3.76209
65.424919 -17.898663 -3.658256
66.07986 -18.51565 -3.76209
66.060303 -19.712135 -2.969495
46.488447 -28.951524 11.525505
45.555357 -28.124859 11.680754
49.803428 -32.220152 12.843947
50.975307 -32.907645 12.755211
48.594412 -31.57862 12.985383
49.803428 -32.220152 12.843947
49.78134 -31.652837 11.945222
47.550981 -30.791885 13.102941
48.594412 -31.57862 12.985383
47.489889 -30.282542 12.245915
47.550981 -30.791885 13.102941
47.6007 -29.607232 11.34751
47.489889 -30.282542 12.245915
48.683134 -30.335995 11.188252
47.681692 -29.004978 10.467842
46.488447 -28.951524 11.525505
47.6007 -29.607232 11.34751
65.602756 -23.316721 -0.652178
65.483269 -24.497743 0.120743
66.547939 -23.870879 -0.770562
65.816963 -22.116214 -1.422273
64.752293 -22.743079 -0.530969
65.602756 -23.316721 -0.652178
65.88953 -20.924594 -2.19307
65.816963 -22.116214 -1.422273
46.311983 -12.742599 -7.952128
46.09301 -13.503429 -6.911696
46.498734 -11.846971 -8.992026
46.311983 -12.742599 -7.952128
47.400205 -12.260426 -9.025878
46.646462 -10.974966 -9.961839
46.498734 -11.846971 -8.992026
47.692877 -10.379634 -11.047486
48.75457 -10.50122 -11.078667
48.860491 -9.516056 -12.060378
46.646462 -10.974966 -9.961839
47.692877 -10.379634 -11.047486
51.083103 -5.144362 -16.029149
51.121758 -6.260978 -15.077456
50.965339 -4.001645 -17.020353
51.083103 -5.144362 -16.029149
52.110858 -3.878989 -17.053406
50.847721 -2.856297 -17.923345
50.965339 -4.001645 -17.020353
51.794635 -1.595178 -18.99867
50.649262 -1.715204 -18.877405
50.847721 -2.856297 -17.923345
53.595301 1.281154 -21.073109
52.450809 0.974101 -21.018629
52.740668 -0.147033 -20.00721
61.757446 -4.072572 -13.413802
61.866672 -5.315156 -12.286635
60.929824 -4.046293 -13.55622
61.757446 -4.072572 -13.413802
61.682525 -2.842593 -14.547191
60.691467 -1.588274 -15.852446
61.493656 -1.602934 -15.716461
61.330219 -0.374893 -16.8793
54.689646 1.684801 -21.08812
54.995916 0.548391 -19.996948
55.800404 2.073173 -21.023378
53.595301 1.281154 -21.073109
54.689646 1.684801 -21.08812
3 1 31 29
3 1 33 31
3 0 37 35
3 2 40 38
3 3 42 41
3 3 44 42
3 3 46 44
3 4 49 47
3 4 51 49
3 5 125 127
3 125 52 126
3 125 126 127
3 5 54 52
3 5 56 54
3 128 59 129
3 130 129 57
3 128 129 130
3 132 131 59
3 6 63 61
3 6 65 63
3 133 68 134
3 135 134 66
3 133 134 135
3 137 136 71
3 7 72 30
3 7 73 72
3 7 75 73
3 9 76 32
3 9 77 76
3 10 138 139
3 10 140 142
3 140 78 141
3 140 141 142
3 10 80 78
3 143 81 144
3 145 144 34
3 143 144 145
3 147 146 81
3 12 84 82
3 14 85 36
3 14 86 85
3 148 87 149
3 15 90 88
3 17 91 39
3 17 92 91
3 18 150 152
3 150 93 151
3 150 151 152
3 18 94 93
3 19 95 43
3 19 96 95
3 19 97 96
3 20 98 45
3 20 99 98
3 8 100 74
3 21 101 48
3 21 102 101
3 21 103 102
3 22 104 50
3 22 153 155
3 155 154 104
3 153 154 155
3 23 105 53
3 23 106 105
3 23 107 106
3 24 108 55
3 24 109 108
3 11 110 79
3 25 111 58
3 25 112 111
3 25 113 112
3 157 156 60
3 13 114 83
3 159 158 62
3 26 115 64
3 26 116 115
3 16 117 89
3 27 118 67
3 27 119 118
3 160 120 161
3 28 121 69
3 28 122 121
3 28 123 122
3 162 124 163
3 164 163 70
3 162 163 164
3 166 165 124
3 29 167 169
3 167 30 168
3 167 168 169
3 31 30 29
3 31 7 30
3 31 32 7
3 33 32 31
3 33 9 32
3 170 10 171
3 172 34 173
3 174 173 10
3 172 173 174
3 175 34 176
3 178 177 34
3 35 36 12
3 37 36 35
3 37 14 36
3 38 39 15
3 40 39 38
3 40 17 39
3 179 18 180
3 41 181 182
3 42 183 185
3 185 184 41
3 183 184 185
3 42 186 187
3 42 188 190
3 188 43 189
3 188 189 190
3 44 43 42
3 44 19 43
3 44 45 19
3 46 45 44
3 46 20 45
3 47 48 8
3 49 48 47
3 49 21 48
3 49 50 21
3 51 50 49
3 51 22 50
3 52 191 192
3 52 193 194
3 52 195 197
3 195 53 196
3 195 196 197
3 54 53 52
3 54 23 53
3 54 55 23
3 56 55 54
3 56 24 55
3 57 58 11
3 59 58 57
3 59 25 58
3 59 60 25
3 198 60 199
3 200 199 59
3 198 199 200
3 202 201 60
3 61 62 13
3 63 62 61
3 63 203 205
3 205 204 62
3 203 204 205
3 63 206 208
3 206 64 207
3 206 207 208
3 65 64 63
3 65 26 64
3 66 67 16
3 68 67 66
3 68 27 67
3 209 69 210
3 211 69 212
3 213 28 214
3 215 214 69
3 213 214 215
3 216 70 217
3 218 217 28
3 216 217 218
3 219 70 220
3 222 221 70
3 71 223 225
3 225 224 2
3 223 224 225
3 227 226 71
3 30 228 229
3 72 230 232
3 232 231 30
3 230 231 232
3 72 233 234
3 72 235 237
3 235 41 236
3 235 236 237
3 73 41 72
3 73 3 41
3 73 74 3
3 75 74 73
3 75 8 74
3 32 75 7
3 76 75 32
3 76 8 75
3 76 47 8
3 77 47 76
3 77 4 47
3 78 238 239
3 78 240 242
3 240 5 241
3 240 241 242
3 78 79 5
3 80 79 78
3 80 11 79
3 34 80 10
3 81 80 34
3 81 11 80
3 81 57 11
3 243 57 244
3 245 244 81
3 243 244 245
3 247 246 57
3 82 248 250
3 248 83 249
3 248 249 250
3 84 83 82
3 84 13 83
3 36 84 12
3 85 84 36
3 85 13 84
3 85 61 13
3 86 61 85
3 86 6 61
3 87 251 252
3 87 253 254
3 255 29 256
3 257 29 258
3 259 1 260
3 261 260 29
3 259 260 261
3 88 89 0
3 90 89 88
3 90 16 89
3 39 90 15
3 91 90 39
3 91 16 90
3 91 66 16
3 92 66 91
3 92 262 264
3 264 263 66
3 262 263 264
3 265 40 266
3 267 266 2
3 265 266 267
3 268 40 269
3 270 17 271
3 272 271 40
3 270 271 272
3 273 17 274
3 275 92 276
3 277 276 17
3 275 276 277
3 278 92 279
3 281 280 92
3 282 82 283
3 284 82 285
3 286 12 287
3 288 287 82
3 286 287 288
3 93 289 290
3 93 291 293
3 291 12 292
3 291 292 293
3 93 35 12
3 94 35 93
3 94 0 35
3 294 18 295
3 43 296 297
3 95 298 300
3 300 299 43
3 298 299 300
3 95 301 303
3 301 18 302
3 301 302 303
3 95 94 18
3 96 94 95
3 96 0 94
3 96 88 0
3 97 88 96
3 97 15 88
3 45 97 19
3 98 97 45
3 98 15 97
3 98 38 15
3 99 38 98
3 99 2 38
3 74 46 3
3 100 46 74
3 100 20 46
3 48 100 8
3 101 100 48
3 101 20 100
3 101 99 20
3 102 99 101
3 102 2 99
3 102 71 2
3 103 71 102
3 103 304 306
3 306 305 71
3 304 305 306
3 50 103 21
3 104 103 50
3 104 307 309
3 309 308 103
3 307 308 309
3 104 310 311
3 313 312 104
3 314 1 315
3 53 316 317
3 105 318 320
3 320 319 53
3 318 319 320
3 105 321 322
3 105 323 324
3 106 325 327
3 327 326 105
3 325 326 327
3 106 328 330
3 328 1 329
3 328 329 330
3 106 33 1
3 107 33 106
3 107 9 33
3 55 107 23
3 108 107 55
3 108 9 107
3 108 77 9
3 109 77 108
3 109 4 77
3 79 56 5
3 110 56 79
3 110 24 56
3 58 110 11
3 111 110 58
3 111 24 110
3 111 109 24
3 112 109 111
3 112 4 109
3 112 51 4
3 113 51 112
3 113 22 51
3 60 113 25
3 331 113 332
3 333 332 60
3 331 332 333
3 334 22 335
3 336 335 113
3 334 335 336
3 338 337 22
3 83 339 340
3 114 341 343
3 343 342 83
3 341 342 343
3 114 344 345
3 62 114 13
3 346 114 347
3 348 347 62
3 346 347 348
3 350 349 114
3 64 351 352
3 115 353 355
3 355 354 64
3 353 354 355
3 115 356 357
3 115 358 360
3 358 87 359
3 358 359 360
3 116 87 115
3 116 361 363
3 363 362 87
3 361 362 363
3 89 37 0
3 117 37 89
3 117 14 37
3 67 117 16
3 118 117 67
3 118 14 117
3 118 86 14
3 119 86 118
3 119 6 86
3 364 68 365
3 120 366 368
3 366 68 367
3 366 367 368
3 120 27 68
3 69 369 371
3 369 120 370
3 369 370 371
3 121 120 69
3 121 27 120
3 121 119 27
3 122 119 121
3 122 6 119
3 122 65 6
3 123 65 122
3 123 26 65
3 70 123 28
3 124 123 70
3 124 26 123
3 124 116 26
3 372 116 373
3 374 373 124
3 372 373 374
3 376 375 116
