ply
format ascii 1.0
element vertex 893
property float x
property float y
property float z
element face 1156
property list uchar int vertex_index
end_header
-1.269779 -119.455109 -3.612608
-16.158829 -112.537033 -20.955261
-9.238657 -79.194824 -4.195185
-5.426655 -97.988327 5.072063
-6.040543 -122.448044 13.817093
-2.568136 -100.869583 -10.702463
-10.192057 -68.211891 -1.730318
-12.717447 -80.313629 1.102376
-0.605923 -109.002121 2.118323
-1.732515 -102.337601 -2.612814
-1.128853 -112.538086 -8.877348
-7.077288 -126.060013 -9.699503
-6.135807 -119.773987 -15.378782
-15.789948 -121.723206 -19.896633
-28.134079 -110.573593 -23.388523
-10.043928 -64.76712 -7.456696
-7.826767 -75.291138 -9.489393
-11.5261 -87.532394 5.66717
-8.081692 -89.805389 12.202354
-1.904495 -100.291794 11.831027
1.287533 -112.346069 9.740324
0.000381 -114.857574 19.251377
-1.681715 -122.978607 4.881916
-9.641903 -127.439819 -0.296653
-7.868162 -91.44458 -0.020724
-3.603846 -90.380127 -5.833607
-7.141888 -108.973022 -16.60247
-11.544174 -74.976318 2.468179
-12.637691 -79.588593 3.928304
-0.236984 -114.483932 -0.537788
-0.551962 -111.64299 -3.441158
-1.244701 -116.521637 -6.759668
-11.625851 -126.930634 -11.931301
-10.916727 -124.833389 -15.677078
-16.222326 -124.567154 -17.232029
-27.97963 -114.814468 -22.348881
-10.937693 -73.606667 -3.327477
-10.161718 -66.695679 -4.656778
-9.676271 -71.988258 -6.017265
-9.130522 -69.88604 -8.691778
-7.67094 -77.496826 -6.786545
-0.678278 -101.591949 16.15798
0.438597 -106.217926 11.139754
1.142765 -107.666489 15.703194
-5.652065 -118.42868 20.666584
-2.35158 -119.455505 16.788845
-0.244686 -119.219437 12.249696
-3.236179 -123.370926 9.52528
-5.147615 -126.222824 2.090267
-7.38973 -125.646332 6.793852
-8.859602 -92.719269 5.470083
-10.330582 -90.133606 2.756076
-6.844727 -95.51944 2.372836
-1.078228 -102.291931 -6.776031
-2.35202 -96.928329 -4.255203
-2.292196 -95.798157 -7.840151
-4.440205 -88.507919 -9.014091
-4.778803 -93.578354 -11.260904
-10.419382 -117.037354 -18.927902
-6.193422 -114.968918 -16.419952
-11.142803 -111.447418 -18.926533
-11.805273 -74.602173 -0.507802
-11.360451 -80.205429 -1.616863
-10.708435 -123.485428 10.962181
-2.420549 -103.420944 4.031309
-3.521292 -100.905518 1.392601
-1.306992 -106.329819 -0.575954
-0.666899 -107.635834 -5.447685
-1.401667 -107.294662 -10.061409
-22.749039 -106.53952 -22.262402
-17.373596 -106.372803 -20.4151
-3.582781 -123.457214 -6.78026
-3.272011 -120.57991 -10.092014
-6.531103 -123.449493 -13.157867
-10.461893 -121.49762 -17.98275
-15.685439 -117.668777 -20.986736
-21.782608 -120.463547 -20.681019
-21.700813 -116.876083 -22.305347
-21.967106 -112.193909 -22.617714
-28.563578 -105.364975 -23.603123
-10.623219 -62.484917 -10.207546
-10.098413 -67.368698 -11.369484
-10.07453 -72.5327 -12.156101
-12.390921 -82.558456 5.977412
-11.128906 -84.14241 8.831125
-9.853828 -88.981537 8.70483
-7.0007 -94.016159 8.554932
-5.11812 -94.828644 12.084479
-3.661013 -99.310059 8.175034
-0.960796 -104.955597 7.24403
0.422436 -110.832535 5.57383
0.303291 -116.557159 3.211085
0.683617 -109.268784 20.699497
1.294823 -113.753754 14.422335
0.529457 -118.148346 7.579461
-1.226929 -121.597137 0.374807
-4.024357 -125.397995 -2.595488
-7.959574 -127.478043 -5.24765
-12.810726 -127.543854 -7.119911
-12.372656 -125.788925 4.532166
-14.822994 -126.506104 -1.914108
-12.614647 -84.733017 3.132225
-11.184721 -85.894073 0.401966
-8.634447 -85.854462 -2.186581
-4.306929 -96.910889 -0.830265
-5.13043 -91.427078 -2.828154
-6.265274 -84.812012 -4.788145
-5.538982 -83.069984 -7.575583
-7.211342 -80.691277 -10.464201
-2.989174 -116.697052 -12.303804
-3.154388 -111.627335 -13.438799
-4.250193 -105.349838 -13.816481
-12.791567 -104.769394 -18.486515
-11.71813 -77.241524 4.591256
-12.124548 -79.056213 5.282143
-0.585835 -117.061951 -2.044121
-0.689041 -115.727112 -3.679098
-1.282682 -118.100571 -5.307966
-14.21437 -126.664291 -12.649378
-13.800889 -125.973328 -14.795216
-16.53751 -125.454285 -15.304104
-10.343712 -76.389252 -3.834414
-10.287394 -72.867233 -4.681444
-9.478024 -75.627609 -5.138252
-8.782232 -74.724205 -6.444357
-8.298828 -78.416031 -5.478315
0.420715 -104.59549 16.013857
0.535929 -105.430603 18.462894
-5.720364 -120.498703 17.267633
-3.875111 -119.126114 18.841908
-4.051567 -121.182724 15.325992
-2.656389 -121.501587 13.18915
-4.493393 -123.093277 11.74914
-5.18672 -124.768066 8.126537
-6.60046 -124.191452 10.323257
-7.158703 -95.339478 5.324802
-7.961416 -94.278381 3.921852
-6.189056 -96.938705 3.679315
-1.517517 -101.750381 -8.800152
-1.565428 -99.167007 -7.313927
-2.23925 -98.39209 -9.195501
-3.218796 -94.828796 -9.60041
-3.550644 -97.309799 -10.968405
-13.132877 -114.991516 -20.088528
-10.667276 -114.383926 -19.01355
-13.533398 -112.173813 -19.970844
-12.478638 -77.594452 1.68996
-11.831009 -74.855957 0.965178
-12.375004 -77.582596 0.249649
-11.931114 -77.382721 -1.153193
-12.198822 -80.377754 -0.278955
-1.338346 -106.203156 3.183363
-1.843071 -105.062485 1.783187
-1.007866 -107.807266 0.678581
-0.713734 -112.315979 -6.221481
-0.609732 -109.804459 -4.549461
-0.714663 -110.157593 -7.128193
-0.801683 -107.668808 -7.825901
-1.179642 -110.076691 -9.566843
-5.188053 -124.957626 -8.296122
-4.964037 -123.694489 -10.119957
-6.785734 -124.890411 -11.575005
-13.212883 -123.50856 -18.026272
-10.65661 -123.308945 -17.015499
-13.017134 -121.800568 -19.050182
-12.911697 -119.806564 -19.69836
-15.683014 -119.835327 -20.618565
-28.033651 -112.823792 -23.011169
-24.844423 -115.990768 -22.516624
-24.902176 -113.886734 -22.973419
-21.776848 -114.661102 -22.587727
-25.040724 -111.528717 -23.156696
-25.281666 -108.931885 -23.151501
-28.305708 -108.083618 -23.558659
-10.061941 -65.779037 -6.066914
-10.002903 -62.355927 -6.550728
-10.311804 -61.331898 -7.954767
-10.786535 -60.233177 -9.348146
-10.20615 -63.667908 -8.835659
-8.450939 -72.567429 -9.10828
-9.402119 -68.681213 -10.036152
-8.976742 -71.319626 -10.452326
-9.979685 -69.942467 -11.773462
-8.70274 -73.99102 -10.844162
-9.901754 -87.007721 10.45429
-8.954758 -89.418671 10.396812
-8.565636 -91.474319 8.640226
-7.62048 -91.887527 10.335251
-2.681099 -98.029099 14.009546
-3.463892 -97.498474 11.991541
-4.361309 -97.057144 10.132036
-2.749542 -99.79277 9.923992
-2.175667 -102.089615 7.795613
-1.333956 -102.638763 9.592399
1.066576 -109.285004 10.538335
0.547245 -108.587814 8.434166
0.920073 -111.605682 7.576805
0.548342 -113.745361 4.468337
0.900688 -114.570023 6.537403
0.565845 -112.144012 20.118444
1.172104 -111.47493 17.640472
0.821215 -114.369003 16.84885
-0.831512 -121.225586 8.597958
0.300217 -118.76387 9.900546
-0.407196 -120.725677 6.273749
-0.254721 -120.040451 4.003826
-1.347704 -122.392654 2.585512
-2.474993 -123.685379 -1.119631
-2.756922 -124.390671 1.1346
-7.284554 -127.101212 0.818455
-6.446766 -127.069672 -1.617998
-8.675562 -127.655838 -2.796795
-10.291332 -127.76973 -6.304916
-11.108961 -127.708252 -3.77552
-11.448538 -124.821838 7.763455
-16.389027 -126.255295 -5.016462
-12.218239 -84.994217 5.80012
-12.713305 -83.749237 4.548402
-12.174841 -86.332794 4.334029
-9.213541 -90.964828 1.359988
-10.842375 -88.219604 1.534545
-9.655745 -88.681824 0.193423
-9.982601 -86.019516 -0.903833
-8.274466 -88.815475 -1.126863
-2.559055 -101.813522 -0.573772
-3.934311 -99.105591 0.240418
-2.847492 -99.629929 -1.58005
-2.884684 -93.77182 -5.033831
-3.5819 -94.187027 -3.409451
-4.124714 -91.012726 -4.300085
-5.653818 -88.232971 -3.803995
-4.810621 -87.606384 -5.210869
-5.625217 -84.01683 -6.155489
-4.500536 -86.800018 -6.677965
-5.827847 -87.244492 -10.570679
-5.780022 -84.654037 -9.702944
-7.341202 -83.276169 -11.166941
-4.555338 -120.421799 -12.932932
-3.109119 -118.776291 -11.341089
-4.407759 -118.39003 -13.894581
-6.537622 -112.117386 -16.591095
-4.519409 -113.441315 -14.992012
-4.902239 -110.509048 -15.206108
-3.567169 -108.630142 -13.693396
-5.55283 -107.28653 -15.270863
-18.232784 -102.927246 -20.118542
-14.971439 -105.745407 -19.457043
-15.970545 -102.167236 -19.17775
-12.239697 -77.457481 3.147725
-12.860209 -80.033974 2.51501
-0.239525 -111.77887 0.86441
-0.538713 -110.529388 -0.633341
-0.435999 -113.185867 -2.104019
-0.724104 -114.160461 -5.074957
-1.175169 -114.679321 -7.949247
-9.232843 -126.726273 -10.931122
-8.883163 -125.684998 -12.878119
-11.233387 -126.050797 -13.970858
-13.474566 -124.909714 -16.60363
-15.974969 -123.311111 -18.772167
-31.169361 -109.36058 -23.24625
-31.286072 -106.975281 -23.621716
-10.898516 -70.871796 -2.630997
-10.237005 -67.508362 -3.214449
-10.569216 -70.153831 -4.049448
-10.178032 -69.306732 -5.435066
-9.851589 -68.344055 -6.801517
-9.712223 -67.279358 -8.160822
-9.249607 -70.989754 -7.351095
-8.404085 -73.700882 -7.767357
-7.487898 -76.454964 -8.127377
-1.194145 -100.879425 13.90885
-0.571436 -103.205811 11.560463
0.035469 -103.850082 13.704202
0.914215 -106.909241 13.346781
1.387564 -110.004578 12.797621
-2.338076 -117.324951 20.301027
-0.98575 -117.322647 18.122749
0.041945 -117.062912 15.810097
-1.130816 -119.468018 14.568202
-1.57679 -121.499832 10.923687
-2.298992 -123.31871 7.214334
-3.270044 -124.832413 3.46559
-4.07242 -124.970963 5.817498
-6.119875 -126.125168 4.474324
-8.403444 -126.744583 3.243722
-10.367071 -90.116104 5.567616
-11.119108 -88.971329 4.186588
-9.661772 -91.624374 4.068057
-8.649261 -92.831741 2.601554
-7.398623 -93.689133 1.142519
-1.189215 -102.491318 -4.694796
-1.984293 -99.798798 -3.462332
-1.509821 -99.638077 -5.385612
-2.020119 -96.497421 -6.041441
-2.748451 -93.118195 -6.707453
-3.691689 -89.546692 -7.417042
-3.25996 -92.232101 -8.397511
-4.431414 -91.102417 -10.05158
-6.207365 -89.7117 -11.608942
-8.080881 -118.640488 -17.376698
-6.077463 -117.519455 -16.031881
-8.164913 -116.176346 -17.727718
-8.463184 -113.419098 -17.853287
-9.008095 -110.371582 -17.812889
-9.958176 -68.808228 -0.200268
-10.610655 -72.233032 1.876822
-10.969183 -71.90097 0.334237
-11.056395 -71.453049 -1.170298
-11.48317 -74.188019 -1.939278
-11.21357 -76.981949 -2.512024
-10.319681 -79.80262 -2.916212
-7.606588 -119.414246 18.962738
-7.827702 -121.405975 15.668017
-8.274389 -123.218063 12.340301
-10.153381 -121.836792 14.125523
-3.809177 -100.679977 4.654828
-4.501581 -99.618408 3.272632
-3.024137 -102.327057 2.649308
-2.241402 -103.617004 0.538025
-1.529974 -104.515625 -1.663414
-0.742992 -109.017731 -1.920115
-0.878555 -107.19046 -3.006411
-1.002825 -105.016235 -3.918051
-0.798262 -105.126648 -6.172895
-1.049553 -104.856842 -8.36348
-1.853422 -104.213089 -10.419092
-19.401768 -109.709244 -21.643326
-16.674129 -109.580673 -20.713181
-19.978065 -106.636169 -21.362564
-2.2731 -121.60553 -5.204353
-2.201578 -120.253433 -6.948195
-3.432396 -122.134232 -8.563925
-4.753262 -122.184174 -11.672903
-6.305151 -121.745987 -14.42646
-8.592148 -124.341339 -14.509146
-8.345036 -122.716476 -15.798964
-8.159767 -120.817596 -16.747311
-10.366703 -119.407394 -18.604404
-12.93619 -117.536087 -20.02198
-15.833959 -115.23439 -21.072353
-18.890951 -122.723892 -19.196411
-18.732075 -121.272171 -20.459564
-24.841095 -117.815002 -21.713932
-21.711559 -118.820236 -21.689552
-18.635656 -119.501251 -21.304882
-18.625328 -117.443146 -21.771221
-18.732506 -115.1185 -21.927422
-18.985909 -112.538528 -21.85677
-22.290241 -109.48468 -22.482357
-25.633427 -106.104538 -23.040943
-11.335144 -61.215698 -11.569656
-9.858406 -66.120987 -9.517986
-10.350811 -64.869225 -10.868694
-11.206211 -63.516773 -12.20142
-11.204403 -65.934875 -12.671511
-11.409269 -68.417244 -13.045021
-12.084583 -80.329857 6.191787
-11.651083 -81.180885 7.412093
-11.833109 -83.474045 7.312115
-11.530851 -85.894379 7.211553
-10.734884 -86.533737 8.768047
-10.730612 -88.38707 7.126633
-9.498491 -90.920212 7.052423
-7.958229 -93.484329 6.96358
-6.263706 -96.087296 6.817883
-6.711386 -92.270523 12.146683
-6.036572 -94.427414 10.256434
-5.314222 -96.622238 8.414206
-4.571875 -98.744995 6.564648
-3.021265 -101.470734 6.156017
-1.719007 -104.265915 5.557412
-0.736603 -107.115189 4.753863
-0.214014 -105.581635 9.103277
-0.083374 -107.883896 6.503579
-0.112581 -109.985733 3.750759
0.140657 -112.830383 2.569769
0.028418 -115.592178 1.242489
-0.43442 -118.208755 -0.195128
1.074818 -108.468597 18.17173
1.438652 -110.744537 15.18033
1.435877 -113.066895 12.035477
0.724182 -116.608459 13.43442
1.065849 -116.015427 11.061554
1.102638 -115.327469 8.747383
0.502108 -117.407303 5.335688
-0.295006 -119.198029 1.833734
-1.230061 -120.615967 -1.705338
-2.342216 -122.750214 -3.247705
-3.757647 -124.550629 -4.776293
-5.464514 -125.961273 -6.237581
-4.463816 -125.96817 -0.287748
-5.859705 -126.677597 -3.992239
-7.447817 -126.934143 -7.571594
-9.68355 -127.432922 -8.71722
-12.135044 -127.438202 -9.62044
-14.754519 -126.951004 -10.242201
-8.934401 -124.768295 8.977233
-9.801403 -125.985031 5.582063
-10.87756 -126.816605 2.171957
-13.491259 -126.35347 1.291049
-12.17197 -127.234726 -1.215595
-13.697321 -127.231903 -4.520927
-15.466396 -126.814423 -7.665953
-12.687611 -81.291512 4.853419
-12.940348 -82.099777 3.459045
-12.800976 -82.717468 2.058775
-11.706718 -87.426529 2.912445
-12.092916 -85.461151 1.746517
-12.257557 -83.094368 0.685246
-11.355379 -83.201004 -0.646494
-10.201727 -83.036636 -1.938755
-8.956104 -82.625443 -3.208572
-5.088667 -98.207062 1.991533
-5.585934 -96.399139 0.795162
-6.025534 -94.184525 -0.332607
-3.169241 -97.07605 -2.513638
-4.690624 -94.337738 -1.84457
-6.444536 -91.586182 -1.408676
-6.873495 -88.650742 -2.450186
-7.328424 -85.436951 -3.471916
-7.808277 -82.005859 -4.482141
-6.947771 -81.217026 -5.785442
-6.532743 -80.286407 -7.133081
-6.666355 -79.222504 -8.519711
-4.817133 -85.820511 -8.188753
-6.070066 -81.968201 -9.025955
-7.385523 -78.014801 -9.918314
-8.66301 -76.640518 -11.287857
-2.098553 -118.677383 -8.444555
-1.978302 -116.847885 -9.670572
-1.892004 -114.732574 -10.620806
-4.37306 -116.068008 -14.57058
-2.980522 -114.318115 -12.992235
-1.911598 -112.307358 -11.311098
-2.110098 -109.565063 -11.778786
-2.54488 -106.518799 -12.078163
-3.248074 -103.199509 -12.271782
-14.149647 -109.087784 -19.739288
-11.85548 -108.236359 -18.731113
-9.806774 -107.048523 -17.667385
-13.919641 -101.074829 -18.24361
-10.842545 -103.476364 -17.473969
-8.011387 -105.558121 -16.514189
-4.224173 -99.64975 -12.420013
-11.806417 -78.811492 5.845819
-11.57734 -78.059624 5.630881
-16.742001 -125.696091 -14.178014
-15.37594 -126.059288 -13.976741
-15.580431 -126.301094 -12.850651
0.071549 -104.392288 19.777377
0.067078 -103.929314 18.512992
-9.741159 -66.580558 -1.952811
-9.533701 -66.930496 -1.180297
-8.518225 -89.61203 11.299583
-9.019479 -88.417122 11.328005
-8.582946 -88.610481 12.230776
-0.189424 -113.77153 20.897832
-0.57857 -115.005554 20.404839
0.283113 -113.500793 19.684911
0.093308 -112.414749 21.331366
-0.189424 -113.77153 20.897832
-7.557213 -84.505722 -11.597983
-6.584525 -85.26033 -10.86881
-6.800536 -86.489883 -11.299853
-8.371582 -82.470719 -11.848448
-7.557213 -84.505722 -11.597983
-17.593103 -100.716354 -19.523344
-17.101664 -102.547241 -19.648146
-18.724222 -101.096359 -19.99374
-32.620228 -108.641471 -22.972324
-31.130654 -110.431602 -22.949745
-32.659128 -107.501213 -23.267929
-32.620228 -108.641471 -22.972324
-1.371495 -100.144287 16.175932
-1.166179 -100.550911 17.348499
-0.936211 -101.235687 15.033415
-1.629429 -99.788025 15.051367
-1.371495 -100.144287 16.175932
-4.813409 -117.717796 21.471986
-5.746269 -117.370621 22.333855
-9.731447 -69.058403 0.586841
-9.128964 -67.541489 0.382394
-11.077414 -73.604675 2.1725
-10.307227 -72.357437 2.662504
-10.773986 -73.72908 2.958183
-8.700565 -119.682541 18.1131
-8.626269 -118.66185 19.676431
-8.811122 -120.678405 16.46574
-7.717145 -120.410111 17.315378
-8.700565 -119.682541 18.1131
-9.973961 -120.893814 15.694492
-8.990541 -121.621384 14.89677
-8.811122 -120.678405 16.46574
-20.336779 -121.59372 -19.938715
-20.394445 -122.245102 -19.226889
-21.840274 -121.11493 -19.969192
-26.410362 -116.314735 -22.031406
-26.394149 -117.164909 -21.528721
-27.963417 -115.664642 -21.846196
-28.734952 -103.89479 -23.598914
-27.269877 -104.264572 -23.317823
-27.098503 -105.734757 -23.322033
-31.375162 -105.66761 -23.738657
-32.77422 -105.052009 -23.676052
-9.867776 -65.431686 -4.164364
-9.905419 -65.838028 -3.4432
-10.199362 -67.102021 -3.935614
-11.051108 -60.771962 -10.471577
-11.132766 -59.646091 -10.041877
-10.704877 -61.359047 -9.777846
-10.979181 -61.850307 -10.888601
-11.40707 -60.137352 -11.152632
-11.051108 -60.771962 -10.471577
-10.966276 -71.714661 -12.776336
-11.633645 -69.656933 -13.220796
-10.741899 -70.474972 -12.600561
-11.071216 -80.404453 8.1466
-11.370922 -80.132778 7.438477
-11.481008 -83.808228 8.07162
-11.42951 -82.653107 8.095439
-11.077409 -82.98729 8.854944
-5.499255 -93.773308 13.085272
-4.706721 -95.069519 13.069915
-5.914753 -93.549583 12.115581
-6.295888 -92.494248 13.116373
-5.499255 -93.773308 13.085272
0.271319 -108.227654 22.14501
0.323242 -109.635621 21.960197
0.517997 -107.791756 20.853665
0.271319 -108.227654 22.14501
0.879217 -108.86869 19.435614
0.713597 -107.391662 19.589782
0.517997 -107.791756 20.853665
-14.157127 -126.429787 -0.31153
-14.842715 -125.871994 0.955611
-15.508583 -125.948311 -0.646967
-16.8367 -126.216347 -7.800374
-15.927711 -126.534859 -6.341207
-17.298016 -125.936783 -6.475629
-16.477536 -126.404282 -9.114497
-16.8367 -126.216347 -7.800374
-14.559145 -99.131767 -18.142933
-15.513967 -99.728454 -18.593813
-9.984978 -102.691635 -16.928285
-11.462022 -101.583672 -17.377697
-8.569399 -103.732514 -16.448395
-9.426966 -104.517243 -16.994079
-9.984978 -102.691635 -16.928285
-7.243315 -104.681053 -15.880664
-8.569399 -103.732514 -16.448395
-5.321392 -98.872986 -13.162921
-4.715799 -100.736702 -13.144753
-4.838275 -97.782547 -12.496245
-5.321392 -98.872986 -13.162921
-11.374131 -77.152279 5.285437
-10.978777 -76.14053 5.045454
-11.921339 -78.148868 4.936699
-11.374131 -77.152279 5.285437
-11.57734 -78.059624 5.630881
-0.540025 -102.009986 17.360535
-1.166179 -100.550911 17.348499
0.009471 -103.511757 17.288474
-0.128782 -103.093719 16.085918
-0.540025 -102.009986 17.360535
0.478322 -105.013047 17.238376
0.009471 -103.511757 17.288474
0.067078 -103.929314 18.512992
-23.038716 -104.952262 -22.143763
-24.418034 -104.796188 -22.579277
-23.326752 -119.893097 -20.601439
-21.840274 -121.11493 -19.969192
-9.923513 -64.540775 -5.596923
-9.973402 -64.999096 -4.891855
-10.111829 -66.237358 -5.361846
-9.893994 -62.82922 -5.83883
-9.923513 -64.540775 -5.596923
-10.032422 -64.067482 -6.308821
-9.759785 -61.197978 -5.997952
-9.893994 -62.82922 -5.83883
-10.037019 -60.730275 -6.711791
-9.7939 -59.572325 -6.159014
-9.759785 -61.197978 -5.997952
-10.19147 -60.21826 -7.413811
-10.037019 -60.730275 -6.711791
-10.157353 -61.843913 -7.252747
-10.515213 -59.719414 -8.119816
-10.19147 -60.21826 -7.413811
-10.54917 -60.782538 -8.651457
-10.752579 -59.170053 -8.816505
-10.515213 -59.719414 -8.119816
-10.728881 -83.250008 9.681755
-11.077409 -82.98729 8.854944
-9.492977 -87.211647 11.356744
-9.758629 -86.048614 11.381732
-9.428256 -88.213196 10.425551
-9.492977 -87.211647 11.356744
-9.019479 -88.417122 11.328005
-3.488211 -96.669747 14.032449
-3.14602 -96.979485 15.094805
-3.879607 -96.404434 13.023446
-3.488211 -96.669747 14.032449
-3.072496 -97.763787 13.000543
-4.291006 -96.163559 12.03801
-4.706721 -95.069519 13.069915
-3.879607 -96.404434 13.023446
0.264356 -111.073235 21.669671
0.093308 -112.414749 21.331366
0.624731 -110.706398 20.408971
0.323242 -109.635621 21.960197
0.264356 -111.073235 21.669671
-12.372353 -124.045066 8.749555
-11.078487 -124.153633 9.362818
-12.002302 -123.376861 10.348918
-12.771002 -124.598327 7.24222
-12.372353 -124.045066 8.749555
-13.233061 -125.081871 5.626575
-11.910597 -125.305382 6.147811
-12.771002 -124.598327 7.24222
-16.184867 -125.901543 -2.14779
-15.508583 -125.948311 -0.646967
-16.967884 -125.776139 -3.698967
-15.606011 -126.380699 -3.465285
-16.184867 -125.901543 -2.14779
-17.763721 -125.542419 -5.138367
-16.967884 -125.776139 -3.698967
-17.298016 -125.936783 -6.475629
-17.763721 -125.542419 -5.138367
-8.118703 -81.244774 -11.503961
-8.053773 -79.952328 -11.152591
-7.276272 -81.983723 -10.815571
-8.118703 -81.244774 -11.503961
-8.371582 -82.470719 -11.848448
-11.264556 -74.994503 3.226333
-10.773986 -73.72908 2.958183
-11.351534 -76.127106 4.287872
-10.978777 -76.14053 5.045454
-11.612317 -76.235084 3.566107
-11.351534 -76.127106 4.287872
-11.978914 -77.349502 3.86949
-11.891935 -76.2169 2.807952
-11.264556 -74.994503 3.226333
-11.612317 -76.235084 3.566107
-29.503068 -114.096702 -22.06283
-27.963417 -115.664642 -21.846196
-29.535789 -113.158546 -22.501061
-29.503068 -114.096702 -22.06283
-29.562799 -112.163208 -22.832204
-28.00664 -113.81913 -22.680025
-29.535789 -113.158546 -22.501061
-29.601506 -111.092186 -23.128709
-29.562799 -112.163208 -22.832204
-31.130654 -110.431602 -22.949745
-32.717484 -106.308563 -23.455662
-31.227716 -108.16793 -23.433983
-32.659128 -107.501213 -23.267929
-32.77422 -105.052009 -23.676052
-32.717484 -106.308563 -23.455662
-8.19902 -88.826721 13.189419
-8.582946 -88.610481 12.230776
-2.372906 -98.362862 15.101715
-3.14602 -96.979485 15.094805
-1.937622 -99.454262 13.959198
-2.372906 -98.362862 15.101715
-1.629429 -99.788025 15.051367
-3.924932 -118.066513 20.559648
-4.813409 -117.717796 21.471986
-4.763588 -118.777397 19.754246
-3.156414 -117.165931 21.289207
-3.924932 -118.066513 20.559648
-3.106593 -118.225532 19.571468
-2.480244 -116.25576 21.999371
-3.156414 -117.165931 21.289207
-1.747799 -116.239242 20.929664
-2.480244 -116.25576 21.999371
-1.071636 -116.23809 19.840525
-1.747799 -116.239242 20.929664
-1.661913 -117.323799 19.211888
-0.492685 -116.090111 18.687063
-0.57857 -115.005554 20.404839
-1.071636 -116.23809 19.840525
-6.990295 -87.723488 -11.818984
-6.800536 -86.489883 -11.299853
-6.017606 -88.478096 -11.089811
-9.41676 -67.228665 -0.415272
-9.128964 -67.541489 0.382394
-10.075117 -68.510059 -0.965293
-9.533701 -66.930496 -1.180297
-9.41676 -67.228665 -0.415272
-9.726437 -70.983421 2.432078
-10.307227 -72.357437 2.662504
-10.057686 -70.770805 1.625386
-9.726437 -70.983421 2.432078
-10.23695 -70.604774 0.854093
-10.057686 -70.770805 1.625386
-10.789919 -72.067001 1.10553
-10.463679 -70.354599 0.066985
-9.731447 -69.058403 0.586841
-10.23695 -70.604774 0.854093
-6.636637 -117.876075 21.445951
-5.746269 -117.370621 22.333855
-7.613899 -118.368859 20.594029
-8.626269 -118.66185 19.676431
-6.629327 -118.921463 19.814661
-6.636637 -117.876075 21.445951
-7.613899 -118.368859 20.594029
-11.164406 -120.944535 14.891421
-9.973961 -120.893814 15.694492
-11.403775 -121.821563 13.41777
-11.164406 -120.944535 14.891421
-11.681302 -122.645882 11.836099
-10.430908 -122.66111 12.543852
-11.403775 -121.821563 13.41777
-12.002302 -123.376861 10.348918
-11.681302 -122.645882 11.836099
-21.65323 -105.000587 -21.693844
-21.363552 -106.587844 -21.812483
-23.038716 -104.952262 -22.143763
-20.33637 -104.982284 -21.219684
-21.65323 -105.000587 -21.693844
-19.034135 -104.850602 -20.745953
-18.675831 -106.504486 -20.888832
-20.33637 -104.982284 -21.219684
-19.463729 -103.127823 -20.597673
-17.80319 -104.650025 -20.266821
-19.034135 -104.850602 -20.745953
-19.875671 -101.364227 -20.476574
-19.463729 -103.127823 -20.597673
-18.724222 -101.096359 -19.99374
-19.875671 -101.364227 -20.476574
-17.961928 -124.98375 -15.386922
-16.742001 -125.696091 -14.178014
-17.821157 -124.635689 -16.411198
-17.961928 -124.98375 -15.386922
-17.663565 -124.192124 -17.37516
-16.379918 -125.010719 -16.268066
-17.821157 -124.635689 -16.411198
-18.997878 -123.270493 -18.357351
-20.394445 -122.245102 -19.226889
-17.556638 -123.645523 -18.21422
-17.663565 -124.192124 -17.37516
-18.997878 -123.270493 -18.357351
-24.855995 -118.568825 -21.117895
-26.394149 -117.164909 -21.528721
-23.311851 -119.139274 -21.197475
-23.326752 -119.893097 -20.601439
-24.855995 -118.568825 -21.117895
-25.860228 -104.578697 -22.968547
-24.418034 -104.796188 -22.579277
-24.191233 -106.322029 -22.651673
-25.860228 -104.578697 -22.968547
-27.269877 -104.264572 -23.317823
-29.88498 -106.221779 -23.707128
-29.79589 -107.529449 -23.590187
-31.375162 -105.66761 -23.738657
-30.013914 -104.862458 -23.72936
-28.434643 -106.724297 -23.580891
-29.88498 -106.221779 -23.707128
-30.137671 -103.44368 -23.811394
-30.013914 -104.862458 -23.72936
-28.734952 -103.89479 -23.598914
-30.137671 -103.44368 -23.811394
-9.763632 -66.228794 -2.694877
-9.741159 -66.580558 -1.952811
-10.214531 -67.860127 -2.472384
-9.763632 -66.228794 -2.694877
-9.905419 -65.838028 -3.4432
-9.867776 -65.431686 -4.164364
-9.973402 -64.999096 -4.891855
-11.148796 -58.638806 -9.519813
-10.752579 -59.170053 -8.816505
-11.148796 -58.638806 -9.519813
-11.132766 -59.646091 -10.041877
-11.872663 -59.510055 -11.843711
-11.40707 -60.137352 -11.152632
-11.839342 -60.534235 -12.242636
-11.872663 -59.510055 -11.843711
-11.774876 -61.684773 -12.558518
-11.839342 -60.534235 -12.242636
-11.270677 -62.366236 -11.885538
-11.802698 -62.784517 -12.852536
-11.774876 -61.684773 -12.558518
-11.801794 -63.993568 -13.087581
-11.802698 -62.784517 -12.852536
-11.205307 -64.725824 -12.436466
-11.934149 -65.150101 -13.298933
-11.801794 -63.993568 -13.087581
-12.036582 -66.391285 -13.485688
-11.934149 -65.150101 -13.298933
-11.306836 -67.17606 -12.858266
-12.294445 -67.573543 -13.648588
-12.036582 -66.391285 -13.485688
-12.294445 -67.573543 -13.648588
-11.633645 -69.656933 -13.220796
-11.587672 -79.707264 6.828324
-11.786434 -79.448315 6.300641
-11.867833 -80.755371 6.80194
-11.587672 -79.707264 6.828324
-11.370922 -80.132778 7.438477
-11.338497 -81.506527 8.145428
-11.071216 -80.404453 8.1466
-11.742096 -82.327465 7.362104
-11.338497 -81.506527 8.145428
-11.42951 -82.653107 8.095439
-10.749022 -84.397178 9.667894
-10.728881 -83.250008 9.681755
-10.135445 -85.829834 10.479477
-9.758629 -86.048614 11.381732
-10.55201 -85.592842 9.636355
-10.135445 -85.829834 10.479477
-10.318319 -86.770729 9.611168
-10.931895 -85.338074 8.799586
-10.749022 -84.397178 9.667894
-10.55201 -85.592842 9.636355
-7.676395 -90.020966 13.163716
-8.19902 -88.826721 13.189419
-6.991242 -91.253533 13.13588
-6.295888 -92.494248 13.116373
-7.396539 -91.037956 12.174518
-7.676395 -90.020966 13.163716
-6.991242 -91.253533 13.13588
0.444153 -105.872666 19.735363
0.071549 -104.392288 19.777377
0.805373 -106.9496 18.317312
0.444153 -105.872666 19.735363
0.713597 -107.391662 19.589782
-15.850505 -126.444451 -11.647063
-15.580431 -126.301094 -12.850651
-14.484445 -126.807648 -11.44579
-13.712636 -125.437691 4.102252
-13.233061 -125.081871 5.626575
-14.271938 -125.719963 2.481693
-14.842715 -125.871994 0.955611
-12.931957 -126.071198 2.911608
-13.712636 -125.437691 4.102252
-14.271938 -125.719963 2.481693
-16.121598 -126.472572 -10.402621
-15.110457 -126.882713 -8.954077
-16.477536 -126.404282 -9.114497
-15.850505 -126.444451 -11.647063
-16.121598 -126.472572 -10.402621
-12.104565 -79.693035 5.736965
-11.806417 -78.811492 5.845819
-11.786434 -79.448315 6.300641
-8.779607 -77.926949 -11.564419
-7.937176 -78.665897 -10.876029
-8.053773 -79.952328 -11.152591
-9.541819 -75.85815 -11.937723
-8.779607 -77.926949 -11.564419
-10.247579 -73.804242 -12.371845
-9.36877 -74.586609 -11.721979
-9.541819 -75.85815 -11.937723
-10.966276 -71.714661 -12.776336
-10.247579 -73.804242 -12.371845
-16.53942 -100.274658 -19.060883
-17.593103 -100.716354 -19.523344
-14.945093 -101.621032 -18.71068
-16.53942 -100.274658 -19.060883
-15.513967 -99.728454 -18.593813
-13.00057 -100.382904 -17.762518
-14.559145 -99.131767 -18.142933
-12.381093 -102.275597 -17.85879
-13.00057 -100.382904 -17.762518
-11.462022 -101.583672 -17.377697
-6.014036 -105.545258 -15.259001
-6.782108 -106.422325 -15.892526
-7.243315 -104.681053 -15.880664
-5.362718 -104.576912 -14.53181
-4.901511 -106.318184 -14.543672
-6.014036 -105.545258 -15.259001
-4.728808 -103.586746 -13.842987
-5.362718 -104.576912 -14.53181
-4.227749 -102.511582 -13.070638
-3.749134 -104.274674 -13.044131
-4.728808 -103.586746 -13.842987
-3.736124 -101.42463 -12.345897
-4.227749 -102.511582 -13.070638
-4.715799 -100.736702 -13.144753
-4.501511 -96.612572 -11.770441
-3.887409 -98.479774 -11.694209
-4.838275 -97.782547 -12.496245
-5.11559 -94.746849 -11.91669
-4.164724 -95.444076 -11.114655
-4.501511 -96.612572 -11.770441
-5.834855 -92.808052 -12.012569
-5.11559 -94.746849 -11.91669
-6.549136 -90.874725 -12.186588
-5.493084 -91.645027 -11.434923
-5.834855 -92.808052 -12.012569
-7.344459 -88.880241 -12.313141
-6.549136 -90.874725 -12.186588
-6.990295 -87.723488 -11.818984
-7.344459 -88.880241 -12.313141
3 445 114 446
3 0 117 115
3 447 120 448
3 449 448 118
3 447 448 449
3 2 123 121
3 2 125 123
3 450 127 451
3 4 130 128
3 4 132 130
3 4 134 132
3 3 137 135
3 5 140 138
3 5 142 140
3 1 145 143
3 7 148 146
3 7 150 148
3 8 153 151
3 10 156 154
3 10 158 156
3 11 161 159
3 13 164 162
3 13 166 164
3 14 169 167
3 14 171 169
3 14 173 171
3 6 452 453
3 15 175 174
3 15 176 175
3 15 178 176
3 16 181 179
3 16 183 181
3 18 454 456
3 454 185 455
3 454 455 456
3 18 187 185
3 19 189 188
3 19 191 189
3 19 193 191
3 20 196 194
3 20 198 196
3 21 457 458
3 21 459 461
3 459 199 460
3 459 460 461
3 21 201 199
3 22 204 202
3 22 206 204
3 22 208 206
3 23 211 209
3 23 213 211
3 17 218 216
3 24 221 219
3 24 223 221
3 9 226 224
3 25 229 227
3 25 231 229
3 25 233 231
3 462 236 463
3 464 463 234
3 462 463 464
3 466 465 236
3 12 239 237
3 26 242 240
3 26 244 242
3 467 247 468
3 469 468 245
3 467 468 469
3 28 248 113
3 28 249 248
3 29 252 250
3 31 253 116
3 31 254 253
3 32 257 255
3 34 258 119
3 34 259 258
3 470 260 471
3 473 472 260
3 36 264 262
3 38 265 122
3 38 266 265
3 38 268 266
3 40 269 124
3 40 270 269
3 41 474 475
3 41 476 478
3 476 271 477
3 476 477 478
3 41 273 271
3 43 274 126
3 43 275 274
3 44 479 480
3 45 276 129
3 45 277 276
3 45 279 277
3 47 280 131
3 47 281 280
3 47 283 281
3 49 284 133
3 49 285 284
3 50 288 286
3 52 289 136
3 52 290 289
3 53 293 291
3 55 294 139
3 55 295 294
3 55 297 295
3 57 298 141
3 57 299 298
3 58 302 300
3 60 303 144
3 60 304 303
3 481 305 482
3 27 483 485
3 483 306 484
3 483 484 485
3 61 307 147
3 61 308 307
3 61 309 308
3 62 310 149
3 62 311 310
3 486 312 487
3 488 313 489
3 490 489 312
3 488 489 490
3 491 315 492
3 493 492 313
3 491 492 493
3 64 318 316
3 66 319 152
3 66 320 319
3 30 321 251
3 67 322 155
3 67 323 322
3 67 324 323
3 68 325 157
3 68 326 325
3 69 329 327
3 71 332 330
3 73 333 160
3 73 334 333
3 33 335 256
3 74 336 163
3 74 337 336
3 74 338 337
3 75 339 165
3 75 340 339
3 76 494 496
3 494 341 495
3 494 495 496
3 76 342 341
3 35 497 499
3 497 343 498
3 497 498 499
3 77 344 168
3 77 345 344
3 77 346 345
3 78 347 170
3 78 348 347
3 78 349 348
3 79 350 172
3 79 500 502
3 502 501 350
3 500 501 502
3 504 503 261
3 37 505 507
3 507 506 263
3 505 506 507
3 80 508 510
3 510 509 177
3 508 509 510
3 80 511 513
3 511 351 512
3 511 512 513
3 39 352 267
3 81 353 180
3 81 354 353
3 81 355 354
3 82 356 182
3 82 514 516
3 516 515 356
3 514 515 516
3 517 358 518
3 84 519 521
3 519 359 520
3 519 520 521
3 84 360 359
3 85 361 184
3 85 362 361
3 85 363 362
3 86 364 186
3 86 365 364
3 87 522 523
3 87 524 526
3 524 366 525
3 524 525 526
3 87 367 366
3 88 368 190
3 88 369 368
3 88 370 369
3 89 371 192
3 89 372 371
3 42 373 272
3 90 374 195
3 90 375 374
3 90 376 375
3 91 377 197
3 91 378 377
3 92 527 528
3 92 529 530
3 92 531 533
3 531 379 532
3 531 532 533
3 93 380 200
3 93 381 380
3 46 382 278
3 94 383 203
3 94 384 383
3 94 385 384
3 95 386 205
3 95 387 386
3 95 388 387
3 96 389 207
3 96 390 389
3 48 391 282
3 97 392 210
3 97 393 392
3 97 394 393
3 98 395 212
3 98 396 395
3 63 397 314
3 99 398 214
3 99 399 398
3 100 534 536
3 534 400 535
3 534 535 536
3 100 401 400
3 100 402 401
3 537 403 538
3 539 538 215
3 537 538 539
3 541 540 403
3 83 404 357
3 101 405 217
3 101 406 405
3 51 407 287
3 102 408 220
3 102 409 408
3 102 410 409
3 103 411 222
3 103 412 411
3 65 413 317
3 104 414 225
3 104 415 414
3 54 416 292
3 105 417 228
3 105 418 417
3 105 419 418
3 106 420 230
3 106 421 420
3 106 422 421
3 107 423 232
3 107 424 423
3 56 425 296
3 108 426 235
3 108 427 426
3 108 428 427
3 72 429 331
3 109 430 238
3 109 431 430
3 59 432 301
3 110 433 241
3 110 434 433
3 110 435 434
3 111 436 243
3 111 437 436
3 70 438 328
3 112 439 246
3 112 440 439
3 542 441 543
3 544 442 545
3 546 443 547
3 548 547 442
3 546 547 548
3 550 549 443
3 551 444 552
3 554 553 444
3 555 113 556
3 114 557 559
3 557 113 558
3 557 558 559
3 114 28 113
3 115 116 29
3 117 116 115
3 117 31 116
3 118 119 32
3 120 119 118
3 120 34 119
3 121 122 36
3 123 122 121
3 123 38 122
3 123 124 38
3 125 124 123
3 125 40 124
3 560 41 561
3 562 126 563
3 564 563 41
3 562 563 564
3 127 565 567
3 565 126 566
3 565 566 567
3 127 43 126
3 128 129 44
3 130 129 128
3 130 45 129
3 130 131 45
3 132 131 130
3 132 47 131
3 132 133 47
3 134 133 132
3 134 49 133
3 135 136 50
3 137 136 135
3 137 52 136
3 138 139 53
3 140 139 138
3 140 55 139
3 140 141 55
3 142 141 140
3 142 57 141
3 143 144 58
3 145 144 143
3 145 60 144
3 146 147 27
3 148 147 146
3 148 61 147
3 148 149 61
3 150 149 148
3 150 62 149
3 151 152 64
3 153 152 151
3 153 66 152
3 154 155 30
3 156 155 154
3 156 67 155
3 156 157 67
3 158 157 156
3 158 68 157
3 569 568 69
3 159 160 71
3 161 160 159
3 161 73 160
3 162 163 33
3 164 163 162
3 164 74 163
3 164 165 74
3 166 165 164
3 166 75 165
3 570 76 571
3 167 168 35
3 169 168 167
3 169 77 168
3 169 170 77
3 171 170 169
3 171 78 170
3 171 172 78
3 173 172 171
3 173 79 172
3 174 572 574
3 574 573 37
3 572 573 574
3 175 575 577
3 577 576 174
3 575 576 577
3 175 578 579
3 175 580 582
3 580 581 582
3 176 583 585
3 585 584 175
3 583 584 585
3 176 586 587
3 176 588 590
3 588 177 589
3 588 589 590
3 178 177 176
3 178 80 177
3 179 180 39
3 181 180 179
3 181 81 180
3 181 182 81
3 183 182 181
3 183 82 182
3 591 84 592
3 593 184 594
3 185 595 597
3 595 184 596
3 595 596 597
3 185 85 184
3 185 186 85
3 187 186 185
3 187 86 186
3 188 598 599
3 189 600 602
3 602 601 188
3 600 601 602
3 189 603 605
3 603 87 604
3 603 604 605
3 189 190 87
3 191 190 189
3 191 88 190
3 191 192 88
3 193 192 191
3 193 89 192
3 194 195 42
3 196 195 194
3 196 90 195
3 196 197 90
3 198 197 196
3 198 91 197
3 199 606 607
3 199 608 610
3 608 92 609
3 608 609 610
3 199 200 92
3 201 200 199
3 201 93 200
3 202 203 46
3 204 203 202
3 204 94 203
3 204 205 94
3 206 205 204
3 206 95 205
3 206 207 95
3 208 207 206
3 208 96 207
3 209 210 48
3 211 210 209
3 211 97 210
3 211 212 97
3 213 212 211
3 213 98 212
3 611 214 612
3 613 612 63
3 611 612 613
3 614 214 615
3 616 99 617
3 618 617 214
3 616 617 618
3 619 100 620
3 621 215 622
3 623 622 100
3 621 622 623
3 624 215 625
3 627 626 215
3 216 217 83
3 218 217 216
3 218 101 217
3 219 220 51
3 221 220 219
3 221 102 220
3 221 222 102
3 223 222 221
3 223 103 222
3 224 225 65
3 226 225 224
3 226 104 225
3 227 228 54
3 229 228 227
3 229 105 228
3 229 230 105
3 231 230 229
3 231 106 230
3 231 232 106
3 233 232 231
3 233 107 232
3 234 235 56
3 236 235 234
3 236 108 235
3 236 628 630
3 630 629 108
3 628 629 630
3 632 631 236
3 237 238 72
3 239 238 237
3 239 109 238
3 240 241 59
3 242 241 240
3 242 110 241
3 242 243 110
3 244 243 242
3 244 111 243
3 245 246 70
3 247 246 245
3 247 112 246
3 633 27 634
3 113 635 636
3 248 637 639
3 639 638 113
3 637 638 639
3 248 640 642
3 640 27 641
3 640 641 642
3 248 146 27
3 249 146 248
3 249 7 146
3 250 251 8
3 252 251 250
3 252 30 251
3 116 252 29
3 253 252 116
3 253 30 252
3 253 154 30
3 254 154 253
3 254 10 154
3 255 256 11
3 257 256 255
3 257 33 256
3 119 257 32
3 258 257 119
3 258 33 257
3 258 162 33
3 259 162 258
3 259 13 162
3 643 35 644
3 645 35 646
3 647 167 648
3 649 648 35
3 647 648 649
3 260 650 652
3 650 167 651
3 650 651 652
3 260 14 167
3 260 261 14
3 653 261 654
3 655 654 260
3 653 654 655
3 657 656 261
3 262 263 6
3 264 263 262
3 264 37 263
3 122 264 36
3 265 264 122
3 265 37 264
3 265 174 37
3 266 174 265
3 266 15 174
3 266 267 15
3 268 267 266
3 268 39 267
3 124 268 38
3 269 268 124
3 269 39 268
3 269 179 39
3 270 179 269
3 270 16 179
3 658 18 659
3 660 188 661
3 271 662 664
3 662 188 663
3 662 663 664
3 271 19 188
3 271 272 19
3 273 272 271
3 273 42 272
3 126 273 41
3 274 273 126
3 274 42 273
3 274 194 42
3 275 194 274
3 275 20 194
3 129 665 667
3 667 666 44
3 665 666 667
3 276 668 670
3 670 669 129
3 668 669 670
3 276 671 672
3 276 673 674
3 277 675 677
3 677 676 276
3 675 676 677
3 277 678 680
3 678 21 679
3 678 679 680
3 277 278 21
3 279 278 277
3 279 46 278
3 131 279 45
3 280 279 131
3 280 46 279
3 280 202 46
3 281 202 280
3 281 22 202
3 281 282 22
3 283 282 281
3 283 48 282
3 133 283 47
3 284 283 133
3 284 48 283
3 284 209 48
3 285 209 284
3 285 23 209
3 286 287 17
3 288 287 286
3 288 51 287
3 136 288 50
3 289 288 136
3 289 51 288
3 289 219 51
3 290 219 289
3 290 24 219
3 291 292 9
3 293 292 291
3 293 54 292
3 139 293 53
3 294 293 139
3 294 54 293
3 294 227 54
3 295 227 294
3 295 25 227
3 295 296 25
3 297 296 295
3 297 56 296
3 141 297 55
3 298 297 141
3 298 56 297
3 298 234 56
3 299 234 298
3 299 681 683
3 683 682 234
3 681 682 683
3 300 301 12
3 302 301 300
3 302 59 301
3 144 302 58
3 303 302 144
3 303 59 302
3 303 240 59
3 304 240 303
3 304 26 240
3 305 684 685
3 305 686 688
3 686 6 687
3 686 687 688
3 306 689 690
3 306 691 692
3 147 306 27
3 307 306 147
3 307 693 695
3 695 694 306
3 693 694 695
3 307 696 698
3 696 305 697
3 696 697 698
3 308 305 307
3 308 6 305
3 308 262 6
3 309 262 308
3 309 36 262
3 149 309 61
3 310 309 149
3 310 36 309
3 310 121 36
3 311 121 310
3 311 2 121
3 699 44 700
3 312 701 702
3 312 703 705
3 703 44 704
3 703 704 705
3 312 128 44
3 313 128 312
3 313 4 128
3 313 314 4
3 315 314 313
3 315 63 314
3 706 315 707
3 708 315 709
3 710 63 711
3 712 711 315
3 710 711 712
3 714 713 63
3 316 317 3
3 318 317 316
3 318 65 317
3 152 318 64
3 319 318 152
3 319 65 318
3 319 224 65
3 320 224 319
3 320 9 224
3 251 153 8
3 321 153 251
3 321 66 153
3 155 321 30
3 322 321 155
3 322 66 321
3 322 320 66
3 323 320 322
3 323 9 320
3 323 291 9
3 324 291 323
3 324 53 291
3 157 324 67
3 325 324 157
3 325 53 324
3 325 138 53
3 326 138 325
3 326 5 138
3 327 328 1
3 329 328 327
3 329 70 328
3 715 329 716
3 717 716 69
3 715 716 717
3 718 329 719
3 720 70 721
3 722 721 329
3 720 721 722
3 723 245 724
3 725 724 70
3 723 724 725
3 726 245 727
3 729 728 245
3 330 331 0
3 332 331 330
3 332 72 331
3 160 332 71
3 333 332 160
3 333 72 332
3 333 237 72
3 334 237 333
3 334 12 237
3 256 161 11
3 335 161 256
3 335 73 161
3 163 335 33
3 336 335 163
3 336 73 335
3 336 334 73
3 337 334 336
3 337 12 334
3 337 300 12
3 338 300 337
3 338 58 300
3 165 338 74
3 339 338 165
3 339 58 338
3 339 143 58
3 340 143 339
3 340 1 143
3 730 120 731
3 732 120 733
3 734 34 735
3 736 735 120
3 734 735 736
3 341 737 738
3 341 739 741
3 739 34 740
3 739 740 741
3 341 259 34
3 342 259 341
3 342 13 259
3 343 742 743
3 343 744 746
3 744 76 745
3 744 745 746
3 168 343 35
3 344 343 168
3 344 76 343
3 344 342 76
3 345 342 344
3 345 13 342
3 345 166 13
3 346 166 345
3 346 75 166
3 170 346 77
3 347 346 170
3 347 75 346
3 347 340 75
3 348 340 347
3 348 1 340
3 348 327 1
3 349 327 348
3 349 69 327
3 172 349 78
3 350 349 172
3 350 69 349
3 350 747 749
3 749 748 69
3 747 748 749
3 751 750 350
3 261 173 14
3 752 173 753
3 754 753 261
3 752 753 754
3 755 79 756
3 757 756 173
3 755 756 757
3 758 79 759
3 761 760 79
3 263 762 764
3 764 763 6
3 762 763 764
3 766 765 263
3 768 767 37
3 177 769 770
3 772 771 177
3 351 773 774
3 351 775 776
3 267 178 15
3 352 178 267
3 352 80 178
3 180 352 39
3 353 352 180
3 353 80 352
3 353 351 80
3 354 351 353
3 354 777 779
3 779 778 351
3 777 778 779
3 354 780 781
3 355 782 784
3 784 783 354
3 782 783 784
3 355 785 786
3 182 355 81
3 356 355 182
3 356 787 789
3 789 788 355
3 787 788 789
3 356 790 791
3 793 792 356
3 794 357 795
3 358 796 798
3 796 357 797
3 796 797 798
3 358 83 357
3 799 358 800
3 359 801 803
3 801 358 802
3 801 802 803
3 359 83 358
3 359 216 83
3 360 216 359
3 360 17 216
3 804 84 805
3 184 806 807
3 361 808 810
3 810 809 184
3 808 809 810
3 361 811 813
3 811 84 812
3 811 812 813
3 361 360 84
3 362 360 361
3 362 17 360
3 362 286 17
3 363 286 362
3 363 50 286
3 186 363 85
3 364 363 186
3 364 50 363
3 364 135 50
3 365 135 364
3 365 3 135
3 814 18 815
3 366 816 817
3 366 818 820
3 818 18 819
3 818 819 820
3 366 187 18
3 367 187 366
3 367 86 187
3 190 367 87
3 368 367 190
3 368 86 367
3 368 365 86
3 369 365 368
3 369 3 365
3 369 316 3
3 370 316 369
3 370 64 316
3 192 370 88
3 371 370 192
3 371 64 370
3 371 151 64
3 372 151 371
3 372 8 151
3 272 193 19
3 373 193 272
3 373 89 193
3 195 373 42
3 374 373 195
3 374 89 373
3 374 372 89
3 375 372 374
3 375 8 372
3 375 250 8
3 376 250 375
3 376 29 250
3 197 376 90
3 377 376 197
3 377 29 376
3 377 115 29
3 378 115 377
3 378 0 115
3 821 127 822
3 379 823 825
3 823 127 824
3 823 824 825
3 379 43 127
3 200 379 92
3 380 379 200
3 380 43 379
3 380 275 43
3 381 275 380
3 381 20 275
3 278 201 21
3 382 201 278
3 382 93 201
3 203 382 46
3 383 382 203
3 383 93 382
3 383 381 93
3 384 381 383
3 384 20 381
3 384 198 20
3 385 198 384
3 385 91 198
3 205 385 94
3 386 385 205
3 386 91 385
3 386 378 91
3 387 378 386
3 387 0 378
3 387 330 0
3 388 330 387
3 388 71 330
3 207 388 95
3 389 388 207
3 389 71 388
3 389 159 71
3 390 159 389
3 390 11 159
3 282 208 22
3 391 208 282
3 391 96 208
3 210 391 48
3 392 391 210
3 392 96 391
3 392 390 96
3 393 390 392
3 393 11 390
3 393 255 11
3 394 255 393
3 394 32 255
3 212 394 97
3 395 394 212
3 395 32 394
3 395 118 32
3 396 118 395
3 396 826 828
3 828 827 118
3 826 827 828
3 314 134 4
3 397 134 314
3 397 49 134
3 214 397 63
3 398 397 214
3 398 49 397
3 398 285 49
3 399 285 398
3 399 23 285
3 829 99 830
3 400 831 832
3 400 833 835
3 833 99 834
3 833 834 835
3 400 399 99
3 401 399 400
3 401 23 399
3 401 213 23
3 402 213 401
3 402 98 213
3 215 402 100
3 403 402 215
3 403 98 402
3 403 396 98
3 836 396 837
3 838 837 403
3 836 837 838
3 840 839 396
3 357 841 843
3 841 114 842
3 841 842 843
3 404 114 357
3 404 28 114
3 217 404 83
3 405 404 217
3 405 28 404
3 405 249 28
3 406 249 405
3 406 7 249
3 287 218 17
3 407 218 287
3 407 101 218
3 220 407 51
3 408 407 220
3 408 101 407
3 408 406 101
3 409 406 408
3 409 7 406
3 409 150 7
3 410 150 409
3 410 62 150
3 222 410 102
3 411 410 222
3 411 62 410
3 411 311 62
3 412 311 411
3 412 2 311
3 317 137 3
3 413 137 317
3 413 52 137
3 225 413 65
3 414 413 225
3 414 52 413
3 414 290 52
3 415 290 414
3 415 24 290
3 292 226 9
3 416 226 292
3 416 104 226
3 228 416 54
3 417 416 228
3 417 104 416
3 417 415 104
3 418 415 417
3 418 24 415
3 418 223 24
3 419 223 418
3 419 103 223
3 230 419 105
3 420 419 230
3 420 103 419
3 420 412 103
3 421 412 420
3 421 2 412
3 421 125 2
3 422 125 421
3 422 40 125
3 232 422 106
3 423 422 232
3 423 40 422
3 423 270 40
3 424 270 423
3 424 16 270
3 296 233 25
3 425 233 296
3 425 107 233
3 235 425 56
3 426 425 235
3 426 107 425
3 426 424 107
3 427 424 426
3 427 16 424
3 427 183 16
3 428 183 427
3 428 82 183
3 844 428 845
3 846 845 108
3 844 845 846
3 847 428 848
3 849 82 850
3 851 850 428
3 849 850 851
3 853 852 82
3 331 117 0
3 429 117 331
3 429 31 117
3 238 429 72
3 430 429 238
3 430 31 429
3 430 254 31
3 431 254 430
3 431 10 254
3 301 239 12
3 432 239 301
3 432 109 239
3 241 432 59
3 433 432 241
3 433 109 432
3 433 431 109
3 434 431 433
3 434 10 431
3 434 158 10
3 435 158 434
3 435 68 158
3 243 435 110
3 436 435 243
3 436 68 435
3 436 326 68
3 437 326 436
3 437 5 326
3 328 145 1
3 438 145 328
3 438 60 145
3 246 438 70
3 439 438 246
3 439 60 438
3 439 304 60
3 440 304 439
3 440 26 304
3 854 247 855
3 441 856 858
3 856 247 857
3 856 857 858
3 441 112 247
3 859 441 860
3 442 861 863
3 861 441 862
3 861 862 863
3 442 112 441
3 442 440 112
3 443 440 442
3 443 26 440
3 443 244 26
3 864 244 865
3 866 865 443
3 864 865 866
3 867 111 868
3 869 868 244
3 867 868 869
3 870 111 871
3 872 437 873
3 874 873 111
3 872 873 874
3 444 875 877
3 875 437 876
3 875 876 877
3 444 5 437
3 444 142 5
3 878 142 879
3 880 879 444
3 878 879 880
3 881 57 882
3 883 882 142
3 881 882 883
3 884 57 885
3 886 299 887
3 888 887 57
3 886 887 888
3 889 299 890
3 892 891 299
