ply
format ascii 1.0
element vertex 626
property float x
property float y
property float z
element face 658
property list uchar int vertex_index
end_header
-52.61248 -1.717314 -19.98835
-63.997284 -7.854095 -14.48527
-68.232971 -40.90509 -0.132874
-68.119522 -49.338448 7.818119
-59.577873 -2.931465 -16.600685
-62.006313 -0.024712 -25.732609
-58.03035 7.181208 -27.989849
-67.778427 -23.577148 -6.951735
-65.449791 -16.288424 -13.854515
-64.491882 -16.848307 -6.416889
-65.200333 -49.96154 15.206806
-67.883591 -32.648102 -1.001509
-66.594696 -32.439659 -7.178049
-56.333721 -2.072668 -18.347889
-59.166969 2.298342 -22.10582
-56.104164 3.436941 -23.662632
-66.612549 -19.867188 -6.730448
-65.858963 -46.143791 10.53319
-68.092354 -28.005259 -4.053421
-65.803757 -41.584175 -3.626156
-67.593544 -36.688213 -3.758776
-65.098427 -11.78661 -14.134365
-63.924774 -8.336883 -19.134686
-52.793762 13.101376 -35.176197
-68.404808 -45.119583 3.705335
-62.151764 -4.826618 -15.252176
-63.043018 -3.777421 -19.855343
-61.482666 -0.122099 -20.802311
-60.378292 4.234814 -26.791424
-66.607544 -23.921135 -10.081797
-65.158791 -20.961359 -13.381517
-66.83609 -19.627863 -10.07749
-66.151382 -15.611429 -9.988216
-64.597641 -12.219721 -9.95512
-61.645996 -14.697287 -6.413799
-62.271614 -9.726304 -10.392153
-59.290039 -8.252028 -11.581688
-55.788284 -7.580293 -13.35564
-51.970734 -7.07341 -15.119719
-64.8601 -52.978268 20.146708
-67.001472 -53.472652 16.138891
-67.737213 -49.653091 11.456398
-68.407158 -45.393654 7.117518
-68.828156 -40.980148 3.137252
-67.343163 -37.306404 2.407663
-68.889 -36.536247 -0.521688
-68.535706 -32.106461 -3.90193
-67.758636 -27.79546 -7.049839
-65.474945 -28.293432 -10.306019
-54.97654 8.619848 -29.304134
-56.024059 11.427406 -34.122818
-54.513939 -1.880753 -19.221519
-56.321991 0.701511 -20.963757
-54.537064 0.893192 -21.784168
-67.405701 -43.210373 0.031425
-66.14254 -43.585415 -1.730598
-67.136047 -41.166885 -1.85487
-66.754402 -39.108292 -3.698912
-67.967911 -38.800186 -1.970167
-64.642044 -9.727495 -14.278168
-64.495361 -10.020497 -16.54393
-64.106644 -7.8087 -16.789417
-67.571732 -47.294106 3.958569
-68.314423 -47.232906 5.723035
-60.954212 -3.733534 -15.856373
-61.874702 -2.440924 -17.956791
-60.761513 -1.208818 -18.570999
-58.695877 4.800201 -25.007034
-59.938717 3.631758 -24.348358
-59.298615 5.892847 -27.368229
-59.639042 6.225399 -29.878307
-58.480156 8.006933 -30.446926
-67.443512 -23.612722 -8.511353
-66.836182 -21.763218 -10.080647
-67.383743 -21.527878 -8.456919
-65.655792 -18.258818 -6.5672
-66.477333 -17.685419 -8.261824
-65.668488 -15.995624 -8.141989
-65.477844 -13.818428 -9.940971
-64.649895 -14.503101 -8.065044
-62.062218 -12.208585 -8.287254
-60.855141 -8.865294 -10.891294
-55.247654 -10.243471 -10.979393
-53.339333 -9.990424 -11.899754
-53.902161 -7.359267 -14.285419
-51.409691 -9.633301 -12.739878
-64.978577 -51.592381 17.653204
-66.069702 -53.333782 18.139055
-66.349739 -51.693802 15.694047
-67.364304 -51.642185 13.758503
-66.686615 -49.848503 13.315897
-67.423576 -45.739571 8.814598
-67.770943 -43.557884 6.707952
-68.657425 -43.195221 5.08423
-68.076141 -41.330105 4.700514
-67.643661 -34.984245 0.651734
-68.50238 -36.801796 0.972343
-68.599449 -34.52227 -0.757822
-68.7659 -34.316307 -2.244364
-68.602737 -32.245731 -2.407114
-68.011475 -25.748119 -5.501947
-68.276077 -27.770737 -5.509691
-67.925247 -25.630838 -7.005487
-67.224831 -25.772343 -8.567019
-65.750198 -34.90641 -7.252819
-65.199203 -32.764156 -8.940071
-66.029892 -30.332703 -8.788824
-65.368828 -18.635441 -13.649317
-62.528736 -1.856922 -22.752865
-63.05426 -4.204913 -22.304028
-62.586819 -2.517942 -25.210865
-53.92688 6.300268 -27.128658
-53.249474 8.839056 -29.906269
-54.46138 12.482849 -34.672409
-67.837311 -51.412212 9.995836
-58.03162 -2.395802 -17.449963
-59.458775 -0.289778 -19.299568
-57.972935 0.331932 -20.113453
-57.721169 3.01358 -22.871094
-57.263557 5.611176 -25.718189
-67.421669 -23.868013 -5.451319
-67.331207 -21.648489 -6.863632
-66.54567 -22.146179 -5.339434
-64.113739 -19.249676 -4.974291
-63.617535 -48.306499 14.666769
-65.502991 -48.130585 12.827556
-66.781708 -30.924267 -1.214903
-68.041397 -30.3146 -2.563416
-67.114609 -28.535158 -2.678019
-67.339951 -26.173481 -4.07514
-66.282066 -37.023254 -5.500645
-67.127243 -34.565872 -5.497042
-65.365707 -13.988445 -14.006876
-64.756157 -14.809889 -16.040709
-64.709778 -12.368549 -16.307261
-61.457581 1.704935 -28.754955
-52.296692 11.198381 -32.733383
-67.551773 -45.250408 1.965954
-68.379288 -43.009865 1.756482
-63.166656 -6.208212 -14.799372
-63.542088 -5.778037 -17.084343
-62.799671 -3.974585 -17.464874
-62.352333 -1.812502 -20.288361
-61.844105 0.265778 -23.229988
-60.422729 1.255121 -21.408974
-60.985615 2.110407 -23.756981
-61.275826 2.245157 -26.252125
-60.627342 4.105623 -29.321011
-65.546501 -24.414515 -11.568121
-64.879158 -23.154484 -13.064585
-65.91098 -22.313971 -11.657475
-66.126045 -20.108778 -11.776525
-66.170334 -17.885715 -11.866533
-67.055847 -19.540937 -8.375101
-66.606796 -17.561737 -10.04479
-66.022713 -15.713946 -11.916056
-65.672501 -13.646954 -11.943205
-65.118469 -11.72954 -11.987167
-64.365387 -10.002307 -12.099007
-63.147476 -15.656766 -6.343012
-63.441357 -13.234646 -8.093634
-63.524094 -10.847607 -10.089001
-63.420769 -8.50254 -12.33025
-62.292885 -7.260807 -12.720865
-60.990585 -6.293587 -13.288578
-59.523453 -5.595348 -14.022867
-57.101276 -10.505829 -10.080214
-57.593754 -7.846612 -12.425428
-57.904274 -5.133327 -14.885099
-56.152691 -4.845689 -15.812368
-54.297501 -4.644516 -16.7244
-52.376488 -4.423308 -17.532864
-49.49498 -9.056627 -13.403311
-50.034195 -6.607779 -15.768087
-66.672363 -55.089806 18.584934
-67.117264 -55.259956 16.565498
-67.502815 -53.474194 14.175362
-67.88121 -51.522808 11.859791
-68.22773 -49.460136 9.627041
-67.053848 -47.848598 11.0192
-68.093346 -47.556343 9.241371
-68.517464 -47.332306 7.4808
-68.728668 -45.173378 5.419901
-68.844711 -43.004726 3.439063
-68.854553 -40.836693 1.530687
-68.324043 -39.074127 2.790046
-68.907974 -38.758816 1.270571
-68.752579 -38.671745 -0.31278
-68.538231 -36.508499 -2.096827
-68.216118 -34.34668 -3.823967
-67.796486 -32.192719 -5.494188
-68.499008 -29.987309 -3.985582
-68.198517 -29.922867 -5.500408
-67.295853 -30.066042 -7.10598
-66.737061 -28.006254 -8.656792
-66.147232 -26.083206 -10.142834
-64.981766 -26.416012 -11.679747
-63.565071 -5.968853 -19.480698
-54.348568 3.635292 -24.419136
-55.662582 6.091398 -26.444801
-56.581802 8.084572 -28.646366
-54.025505 10.97381 -32.2243
-55.654434 10.390615 -31.639843
-57.148098 9.403891 -31.036713
-67.795304 -49.339264 6.91905
-67.690964 -50.356938 7.988421
-68.216972 -48.285677 6.770577
-67.892754 -48.286493 5.871509
-67.795304 -49.339264 6.91905
-52.02248 -11.032392 -11.143884
-52.979433 -11.250101 -10.733309
-51.057659 -10.853831 -11.563946
-52.374512 -9.811863 -12.319816
-52.02248 -11.032392 -11.143884
-65.089455 -50.776961 16.430005
-64.222793 -50.745184 17.382248
-64.333672 -49.929763 16.159049
-67.19917 -42.704391 6.478568
-67.006123 -43.798988 7.522699
-67.351769 -41.590502 5.474849
-67.923542 -42.443995 5.704233
-67.19917 -42.704391 6.478568
-67.763626 -33.816174 -0.174887
-67.010818 -34.149696 0.498685
-67.130783 -32.981625 -0.327936
-65.051129 -16.794225 -14.783639
-65.010647 -17.967734 -14.68104
-65.40931 -17.461932 -13.751916
-52.346163 8.834323 -30.142285
-52.674653 7.584023 -28.800648
-67.663407 -52.414541 11.126259
-67.40062 -52.393127 10.187358
-66.418244 -23.324967 -4.680915
-66.983669 -23.007096 -5.395376
-66.856243 -24.185884 -4.736857
-63.821378 -20.474311 -4.327343
-64.771393 -19.925154 -5.071886
-62.651228 -47.526073 14.37478
-62.618866 -48.289659 15.590626
-63.745808 -47.410787 13.478198
-62.651228 -47.526073 14.37478
-66.072201 -30.139871 -1.283327
-65.782032 -31.359875 -0.55511
-66.238652 -28.945317 -2.014885
-66.948159 -29.729712 -1.946461
-66.072201 -30.139871 -1.283327
-66.815384 -25.338617 -4.048768
-66.610734 -26.544636 -3.393849
-66.856243 -24.185884 -4.736857
-67.38081 -25.020747 -4.763229
-66.815384 -25.338617 -4.048768
-65.32515 -42.840649 -3.571203
-65.494541 -43.841268 -2.623424
-65.973149 -42.584795 -2.678377
-65.153549 -41.844563 -4.52841
-65.32515 -42.840649 -3.571203
-65.587418 -40.563597 -4.556325
-65.153549 -41.844563 -4.52841
-64.024879 -9.585897 -18.959435
-64.310173 -10.427703 -17.664057
-64.210068 -9.17869 -17.839308
-63.793495 -8.853189 -20.262783
-64.024879 -9.585897 -18.959435
-61.572706 1.143206 -29.931217
-61.148961 2.507324 -30.270692
-59.749359 6.023098 -31.142471
-59.185999 7.138402 -31.434551
-61.33151 -15.941987 -5.58754
-60.466339 -15.587974 -5.649037
-62.396736 -15.177027 -6.378405
-62.082251 -16.421726 -5.552147
-61.33151 -15.941987 -5.58754
-55.819754 -11.657458 -9.384588
-56.765338 -11.796997 -8.970166
-48.257971 -9.700003 -12.436165
-49.162092 -10.221589 -12.226561
-49.083847 -6.230933 -15.96235
-48.832685 -7.381586 -14.79018
-50.233879 -5.337464 -16.960085
-49.083847 -6.230933 -15.96235
-64.213856 -52.656347 21.12699
-64.153 -52.115084 19.872993
-64.857769 -53.529486 21.406875
-64.213856 -52.656347 21.12699
-65.362945 -53.848723 20.390278
-64.857769 -53.529486 21.406875
-66.4118 -37.660755 3.117182
-66.639462 -36.495922 2.215268
-67.171353 -38.453327 3.34009
-66.4118 -37.660755 3.117182
-67.833603 -38.190265 2.598854
-67.661793 -39.337188 3.531281
-67.171353 -38.453327 3.34009
-64.858528 -28.403166 -11.151984
-65.076264 -29.456394 -10.421225
-65.228355 -27.354722 -10.992883
-64.611938 -27.464456 -11.838847
-64.858528 -28.403166 -11.151984
-64.663937 -21.579212 -14.08682
-64.524121 -22.675774 -13.928354
-65.018974 -22.057921 -13.223051
-64.413837 -15.433909 -16.991743
-64.462941 -14.115645 -17.218633
-63.242506 -5.465013 -22.081297
-63.042254 -4.692043 -23.484633
-53.423125 3.669504 -24.741972
-53.50445 2.320603 -23.457763
-56.738659 10.682924 -33.841164
-57.300679 9.671166 -32.298111
-56.586078 10.415648 -32.579766
-66.77412 -43.397894 -0.849587
-66.253884 -44.574461 -0.763496
-66.885464 -44.38694 0.117516
-67.521409 -48.317093 4.989275
-66.999905 -48.397395 4.093241
-67.943078 -47.263506 4.840802
-67.521409 -48.317093 4.989275
-67.892754 -48.286493 5.871509
-58.606556 8.029169 -31.71886
-59.185999 7.138402 -31.434551
-59.059599 7.116166 -30.162616
-60.827961 -14.333033 -6.548249
-60.466339 -15.587974 -5.649037
-61.036072 -13.088682 -7.484977
-61.854107 -13.452936 -7.350527
-60.827961 -14.333033 -6.548249
-61.297125 -11.818545 -8.486167
-61.036072 -13.088682 -7.484977
-61.401823 -10.577405 -9.538616
-62.166916 -10.967444 -9.339704
-61.297125 -11.818545 -8.486167
-60.693587 -10.146899 -9.788187
-61.563378 -9.295799 -10.641724
-61.401823 -10.577405 -9.538616
-59.863102 -9.8707 -10.092299
-60.693587 -10.146899 -9.788187
-59.080551 -9.564066 -10.437496
-60.07259 -8.558661 -11.236491
-59.863102 -9.8707 -10.092299
-53.933594 -11.376624 -10.273129
-54.892943 -11.526279 -9.834177
-54.293493 -10.116948 -11.439573
-53.933594 -11.376624 -10.273129
-52.979433 -11.250101 -10.733309
-64.212238 -51.42214 18.626241
-64.222793 -50.745184 17.382248
-64.919339 -52.285325 18.899956
-64.153 -52.115084 19.872993
-64.212238 -51.42214 18.626241
-66.832439 -44.889831 8.576022
-66.641269 -45.941681 9.673894
-66.050133 -45.091942 9.435318
-67.59726 -44.648727 7.761275
-66.832439 -44.889831 8.576022
-67.006123 -43.798988 7.522699
-66.78971 -35.334843 1.337303
-67.010818 -34.149696 0.498685
-67.493412 -36.145325 1.529698
-66.639462 -36.495922 2.215268
-66.78971 -35.334843 1.337303
-65.058647 -35.098934 -8.163733
-65.314003 -36.177026 -7.279975
-64.78315 -34.027807 -9.007359
-65.058647 -35.098934 -8.163733
-65.4747 -33.835283 -8.096445
-64.544265 -32.921829 -9.852977
-64.78315 -34.027807 -9.007359
-64.938392 -31.691756 -9.738252
-64.544265 -32.921829 -9.852977
-65.353737 -30.476029 -9.662628
-64.938392 -31.691756 -9.738252
-65.614548 -31.548429 -8.864448
-65.752419 -29.313067 -9.547421
-65.076264 -29.456394 -10.421225
-65.353737 -30.476029 -9.662628
-64.902253 -19.210739 -14.475456
-64.797234 -20.373698 -14.341556
-65.263809 -19.7984 -13.515417
-64.902253 -19.210739 -14.475456
-65.010647 -17.967734 -14.68104
-62.808533 -3.848557 -24.938051
-63.042254 -4.692043 -23.484633
-62.820539 -3.361428 -23.757447
-53.013356 6.31463 -27.411842
-53.21228 5.001992 -26.096733
-53.588177 7.569662 -28.517464
-53.013356 6.31463 -27.411842
-52.674653 7.584023 -28.800648
-53.725724 13.397598 -36.189137
-53.627571 12.792112 -34.924303
-52.891914 13.706862 -36.44103
-54.549278 12.845459 -35.943248
-53.725724 13.397598 -36.189137
-55.330618 12.317737 -35.668453
-55.242719 11.955127 -34.397614
-54.549278 12.845459 -35.943248
-56.105657 11.537824 -35.399088
-55.330618 12.317737 -35.668453
-67.549858 -51.393819 9.07728
-67.40062 -52.393127 10.187358
-67.978417 -50.37533 8.906977
-67.690964 -50.356938 7.988421
-67.549858 -51.393819 9.07728
-65.774121 -22.577188 -4.611998
-66.418244 -23.324967 -4.680915
-65.987358 -21.373406 -5.254458
-65.774121 -22.577188 -4.611998
-66.020798 -20.23391 -5.949965
-66.57911 -21.006684 -6.034941
-65.987358 -21.373406 -5.254458
-65.542419 -19.429725 -5.868341
-66.134171 -19.063003 -6.648824
-66.020798 -20.23391 -5.949965
-64.884766 -18.754247 -5.770746
-65.542419 -19.429725 -5.868341
-64.771393 -19.925154 -5.071886
-63.542272 -49.102243 15.889031
-62.618866 -48.289659 15.590626
-64.408934 -49.13402 14.936788
-64.333672 -49.929763 16.159049
-63.542272 -49.102243 15.889031
-64.688536 -47.322831 12.558591
-64.560263 -48.218542 13.747162
-63.745808 -47.410787 13.478198
-64.866522 -46.329434 11.411409
-65.680977 -47.137188 11.680373
-64.688536 -47.322831 12.558591
-65.034638 -45.351993 10.267473
-64.866522 -46.329434 11.411409
-66.050133 -45.091942 9.435318
-65.034638 -45.351993 10.267473
-66.579842 -32.119707 -0.434634
-65.782032 -31.359875 -0.55511
-67.33265 -31.786185 -1.108206
-67.130783 -32.981625 -0.327936
-66.579842 -32.119707 -0.434634
-66.498063 -27.725474 -2.695289
-66.238652 -28.945317 -2.014885
-67.22728 -27.354319 -3.37658
-66.498063 -27.725474 -2.695289
-66.610734 -26.544636 -3.393849
-65.615444 -44.811613 -1.650977
-66.253884 -44.574461 -0.763496
-65.615444 -44.811613 -1.650977
-65.494541 -43.841268 -2.623424
-66.06274 -39.325655 -4.592703
-65.587418 -40.563597 -4.556325
-66.279079 -40.346233 -3.662534
-65.826572 -38.283136 -5.493569
-66.06274 -39.325655 -4.592703
-66.518234 -38.065773 -4.599778
-65.579937 -37.235449 -6.403888
-65.826572 -38.283136 -5.493569
-66.016132 -35.964832 -6.376732
-65.314003 -36.177026 -7.279975
-65.579937 -37.235449 -6.403888
-64.439751 -12.894975 -17.351909
-64.462941 -14.115645 -17.218633
-64.732968 -13.589219 -16.173985
-64.417382 -11.60173 -17.545723
-64.60257 -11.194523 -16.425596
-64.310173 -10.427703 -17.664057
-64.439751 -12.894975 -17.351909
-64.417382 -11.60173 -17.545723
-61.801962 0.394274 -28.456186
-62.076328 -0.47055 -26.945013
-61.731947 0.840112 -27.243782
-61.801962 0.394274 -28.456186
-61.572706 1.143206 -29.931217
-51.402275 11.173284 -32.913088
-51.869772 10.013986 -31.555841
-51.676552 12.259778 -34.155352
-51.402275 11.173284 -32.913088
-51.925087 13.211275 -35.376759
-52.545227 12.149878 -33.95479
-51.676552 12.259778 -34.155352
-52.034858 14.024868 -36.646662
-51.925087 13.211275 -35.376759
-52.891914 13.706862 -36.44103
-52.034858 14.024868 -36.646662
-67.016221 -47.41341 3.072161
-66.999905 -48.397395 4.093241
-67.006241 -46.391562 2.075854
-67.016221 -47.41341 3.072161
-67.561752 -46.272257 2.962261
-66.9585 -45.406958 1.08478
-67.006241 -46.391562 2.075854
-67.478737 -44.23039 0.99869
-66.885464 -44.38694 0.117516
-66.9585 -45.406958 1.08478
-60.733841 3.707668 -30.55372
-61.148961 2.507324 -30.270692
-61.042462 2.905279 -29.037983
-60.243509 4.96321 -30.863823
-60.133192 5.165511 -29.599659
-59.749359 6.023098 -31.142471
-60.733841 3.707668 -30.55372
-60.243509 4.96321 -30.863823
-52.636406 -0.3557 -21.24237
-51.644306 -1.592156 -20.277045
-65.212829 -23.7845 -12.316353
-64.754086 -24.046689 -12.911043
-65.087757 -24.676704 -12.16281
-63.01343 -19.917938 -4.217479
-63.821378 -20.474311 -4.327343
-63.373863 -18.679264 -4.893987
-63.01343 -19.917938 -4.217479
-63.562934 -17.478579 -5.615286
-64.30281 -18.048991 -5.69559
-63.373863 -18.679264 -4.893987
-62.890732 -16.882809 -5.578348
-62.082251 -16.421726 -5.552147
-63.819679 -16.252536 -6.37995
-63.562934 -17.478579 -5.615286
-62.890732 -16.882809 -5.578348
-57.98617 -10.690967 -9.686758
-56.765338 -11.796997 -8.970166
-58.195657 -9.378929 -10.830951
-59.080551 -9.564066 -10.437496
-57.98617 -10.690967 -9.686758
-56.174465 -10.37465 -10.529803
-55.819754 -11.657458 -9.384588
-54.892943 -11.526279 -9.834177
-50.119448 -10.509926 -11.894845
-51.057659 -10.853831 -11.563946
-50.452336 -9.344964 -13.071594
-50.119448 -10.509926 -11.894845
-49.162092 -10.221589 -12.226561
-48.563078 -8.606011 -13.607792
-48.257971 -9.700003 -12.436165
-49.764587 -7.832203 -14.585699
-48.563078 -8.606011 -13.607792
-48.832685 -7.381586 -14.79018
-51.405026 -4.245229 -17.842474
-51.205342 -5.515543 -16.650475
-50.233879 -5.337464 -16.960085
-51.523021 -2.892232 -19.070217
-52.494484 -3.070311 -18.760607
-51.405026 -4.245229 -17.842474
-51.644306 -1.592156 -20.277045
-51.523021 -2.892232 -19.070217
-65.967747 -54.02648 19.386451
-65.362945 -53.848723 20.390278
-65.464901 -53.156025 19.142882
-66.269077 -54.904492 19.609391
-65.967747 -54.02648 19.386451
-66.371033 -54.211794 18.361995
-66.532287 -55.766611 19.833229
-66.269077 -54.904492 19.609391
-66.708534 -55.9572 18.801644
-66.532287 -55.766611 19.833229
-66.930984 -56.042275 17.791926
-66.708534 -55.9572 18.801644
-66.894813 -55.174881 17.575216
-66.903942 -56.138887 16.78532
-66.930984 -56.042275 17.791926
-67.108551 -55.281824 15.580799
-66.903942 -56.138887 16.78532
-67.301327 -54.388943 14.385731
-67.108551 -55.281824 15.580799
-67.31004 -54.367075 15.37043
-67.496159 -53.445532 13.216022
-67.301327 -54.388943 14.385731
-67.685356 -52.469839 12.058236
-67.496159 -53.445532 13.216022
-67.692013 -52.498501 13.017577
-67.859261 -51.46751 10.927813
-67.663407 -52.414541 11.126259
-67.685356 -52.469839 12.058236
-67.537842 -40.465178 4.486515
-67.351769 -41.590502 5.474849
-68.200092 -40.202116 3.74528
-67.537842 -40.465178 4.486515
-67.661793 -39.337188 3.531281
-65.087757 -24.676704 -12.16281
-64.805389 -25.677453 -12.218623
-65.264133 -25.415264 -11.623934
-64.472822 -26.4527 -12.462523
-64.611938 -27.464456 -11.838847
-64.805389 -25.677453 -12.218623
-64.472822 -26.4527 -12.462523
-64.416406 -23.79645 -13.61072
-64.754086 -24.046689 -12.911043
-64.416406 -23.79645 -13.61072
-64.524121 -22.675774 -13.928354
-64.663937 -21.579212 -14.08682
-64.797234 -20.373698 -14.341556
-64.704312 -16.054958 -15.876736
-65.051129 -16.794225 -14.783639
-65.102974 -15.549156 -14.947612
-64.704312 -16.054958 -15.876736
-64.413837 -15.433909 -16.991743
-63.497912 -6.346983 -20.669632
-63.309666 -5.086883 -20.892363
-63.242506 -5.465013 -22.081297
-63.677763 -7.530998 -20.496626
-63.744923 -7.152868 -19.307692
-63.497912 -6.346983 -20.669632
-63.793495 -8.853189 -20.262783
-63.677763 -7.530998 -20.496626
-62.366581 -1.717165 -26.684141
-62.296566 -1.271327 -25.471737
-62.076328 -0.47055 -26.945013
-62.647213 -3.109757 -26.359834
-62.366581 -1.717165 -26.684141
-62.808533 -3.848557 -24.938051
-62.647213 -3.109757 -26.359834
-53.598698 0.949553 -22.140279
-53.574772 -0.412061 -20.886259
-52.636406 -0.3557 -21.24237
-54.442816 2.264242 -23.101652
-53.598698 0.949553 -22.140279
-53.50445 2.320603 -23.457763
-54.137724 4.96778 -25.773897
-53.423125 3.669504 -24.741972
-53.21228 5.001992 -26.096733
-52.773083 10.018718 -31.319826
-52.346163 8.834323 -30.142285
-51.869772 10.013986 -31.555841
-57.966707 8.972687 -32.003217
-57.814127 8.705412 -30.741819
-57.300679 9.671166 -32.298111
-58.606556 8.029169 -31.71886
-57.966707 8.972687 -32.003217
-56.738659 10.682924 -33.841164
-56.105657 11.537824 -35.399088
3 0 53 51
3 2 56 54
3 2 58 56
3 1 61 59
3 3 204 205
3 3 206 208
3 206 63 207
3 206 207 208
3 4 66 64
3 6 69 67
3 6 71 69
3 7 74 72
3 9 77 75
3 9 79 77
3 209 83 210
3 211 85 212
3 213 212 83
3 211 212 213
3 10 214 216
3 214 86 215
3 214 215 216
3 10 88 86
3 10 90 88
3 217 92 218
3 219 94 220
3 221 220 92
3 219 220 221
3 11 222 224
3 222 95 223
3 222 223 224
3 11 97 95
3 11 99 97
3 7 102 100
3 7 72 102
3 12 105 104
3 12 106 105
3 8 225 227
3 227 226 107
3 225 226 227
3 5 110 108
3 228 112 229
3 230 114 231
3 13 117 115
3 15 118 52
3 15 119 118
3 232 122 233
3 234 233 120
3 232 233 234
3 235 123 236
3 237 124 238
3 240 239 124
3 241 126 242
3 243 128 244
3 245 244 126
3 243 244 245
3 246 129 247
3 248 120 249
3 250 249 129
3 248 249 250
3 19 251 253
3 253 252 55
3 251 252 253
3 19 254 255
3 19 256 257
3 20 130 57
3 20 131 130
3 21 134 132
3 22 258 260
3 260 259 60
3 258 259 260
3 22 261 262
3 264 263 135
3 24 137 62
3 24 138 137
3 25 141 139
3 27 142 65
3 27 143 142
3 14 144 116
3 28 145 68
3 28 146 145
3 28 147 146
3 266 265 70
3 29 150 148
3 31 151 73
3 31 152 151
3 16 153 121
3 32 154 76
3 32 155 154
3 32 156 155
3 33 157 78
3 33 158 157
3 34 267 268
3 34 269 271
3 269 159 270
3 269 270 271
3 34 160 159
3 35 161 80
3 35 162 161
3 35 163 162
3 36 164 81
3 36 165 164
3 272 166 273
3 37 167 82
3 37 168 167
3 37 169 168
3 38 170 84
3 38 171 170
3 274 172 275
3 276 173 277
3 279 278 173
3 39 280 281
3 39 282 283
3 39 284 285
3 40 174 87
3 40 175 174
3 40 176 175
3 41 177 89
3 41 178 177
3 17 179 125
3 42 180 91
3 42 181 180
3 42 182 181
3 43 183 93
3 43 184 183
3 44 286 287
3 44 288 289
3 44 290 292
3 290 185 291
3 290 291 292
3 45 186 96
3 45 187 186
3 45 188 187
3 46 189 98
3 46 190 189
3 18 191 127
3 47 192 101
3 47 193 192
3 47 194 193
3 29 195 103
3 29 148 195
3 48 293 294
3 48 295 297
3 295 196 296
3 295 296 297
3 30 298 300
3 300 299 149
3 298 299 300
3 302 301 133
3 26 197 140
3 304 303 109
3 305 198 306
3 49 199 111
3 49 200 199
3 23 201 136
3 50 202 113
3 50 203 202
3 50 307 309
3 309 308 203
3 307 308 309
3 51 52 13
3 53 52 51
3 53 15 52
3 54 310 312
3 310 55 311
3 310 311 312
3 56 55 54
3 56 19 55
3 56 57 19
3 58 57 56
3 58 20 57
3 59 60 21
3 61 60 59
3 61 22 60
3 313 62 314
3 63 315 317
3 315 62 316
3 315 316 317
3 63 24 62
3 64 65 25
3 66 65 64
3 66 27 65
3 67 68 14
3 69 68 67
3 69 28 68
3 69 70 28
3 71 70 69
3 71 318 320
3 320 319 70
3 318 319 320
3 72 73 29
3 74 73 72
3 74 31 73
3 75 76 16
3 77 76 75
3 77 32 76
3 77 78 32
3 79 78 77
3 79 33 78
3 321 34 322
3 323 80 324
3 325 324 34
3 323 324 325
3 326 80 327
3 328 35 329
3 330 329 80
3 328 329 330
3 331 81 332
3 333 332 35
3 331 332 333
3 334 81 335
3 336 36 337
3 338 337 81
3 336 337 338
3 339 82 340
3 83 341 343
3 341 82 342
3 341 342 343
3 83 37 82
3 83 84 37
3 85 84 83
3 85 38 84
3 86 344 345
3 86 346 348
3 346 39 347
3 346 347 348
3 86 87 39
3 88 87 86
3 88 40 87
3 88 89 40
3 90 89 88
3 90 41 89
3 349 91 350
3 351 350 17
3 349 350 351
3 92 352 354
3 352 91 353
3 352 353 354
3 92 42 91
3 92 93 42
3 94 93 92
3 94 43 93
3 95 355 356
3 95 357 359
3 357 44 358
3 357 358 359
3 95 96 44
3 97 96 95
3 97 45 96
3 97 98 45
3 99 98 97
3 99 46 98
3 100 101 18
3 102 101 100
3 102 47 101
3 102 103 47
3 72 103 102
3 72 29 103
3 104 360 361
3 105 362 364
3 364 363 104
3 362 363 364
3 105 365 366
3 105 367 368
3 106 369 371
3 371 370 105
3 369 370 371
3 106 372 374
3 372 48 373
3 372 373 374
3 107 375 377
3 377 376 30
3 375 376 377
3 379 378 107
3 108 109 26
3 110 109 108
3 110 380 382
3 382 381 109
3 380 381 382
3 383 111 384
3 112 385 387
3 385 111 386
3 385 386 387
3 112 49 111
3 388 113 389
3 390 389 23
3 388 389 390
3 391 113 392
3 393 50 394
3 395 394 113
3 393 394 395
3 397 396 50
3 114 398 399
3 114 400 402
3 400 3 401
3 400 401 402
3 115 116 4
3 117 116 115
3 117 14 116
3 52 117 13
3 118 117 52
3 118 14 117
3 118 67 14
3 119 67 118
3 119 6 67
3 120 121 7
3 122 121 120
3 122 16 121
3 403 122 404
3 405 122 406
3 407 16 408
3 409 408 122
3 407 408 409
3 410 75 411
3 412 411 16
3 410 411 412
3 123 413 415
3 413 75 414
3 413 414 415
3 123 9 75
3 124 416 417
3 124 418 420
3 418 10 419
3 418 419 420
3 124 125 10
3 421 125 422
3 423 422 124
3 421 422 423
3 424 17 425
3 426 425 125
3 424 425 426
3 427 17 428
3 430 429 17
3 126 431 432
3 126 433 435
3 433 11 434
3 433 434 435
3 126 127 11
3 128 127 126
3 128 18 127
3 436 128 437
3 129 438 440
3 438 128 439
3 438 439 440
3 129 18 128
3 129 100 18
3 120 100 129
3 120 7 100
3 55 441 442
3 444 443 55
3 57 445 447
3 447 446 19
3 445 446 447
3 130 448 450
3 450 449 57
3 448 449 450
3 130 451 452
3 130 453 455
3 453 104 454
3 453 454 455
3 131 104 130
3 131 12 104
3 132 133 8
3 134 133 132
3 134 456 458
3 458 457 133
3 456 457 458
3 60 134 21
3 459 134 460
3 461 460 60
3 459 460 461
3 463 462 134
3 135 464 466
3 466 465 5
3 464 465 466
3 468 467 135
3 469 136 470
3 471 136 472
3 473 23 474
3 475 474 136
3 473 474 475
3 476 23 477
3 479 478 23
3 62 480 481
3 137 482 484
3 484 483 62
3 482 483 484
3 137 485 486
3 137 487 489
3 487 54 488
3 487 488 489
3 138 54 137
3 138 2 54
3 139 140 1
3 141 140 139
3 141 26 140
3 65 141 25
3 142 141 65
3 142 26 141
3 142 108 26
3 143 108 142
3 143 5 108
3 116 66 4
3 144 66 116
3 144 27 66
3 68 144 14
3 145 144 68
3 145 27 144
3 145 143 27
3 146 143 145
3 146 5 143
3 146 135 5
3 147 135 146
3 147 490 492
3 492 491 135
3 490 491 492
3 70 147 28
3 493 147 494
3 495 494 70
3 493 494 495
3 497 496 147
3 499 498 0
3 148 500 502
3 500 149 501
3 500 501 502
3 150 149 148
3 150 30 149
3 73 150 29
3 151 150 73
3 151 30 150
3 151 107 30
3 152 107 151
3 152 8 107
3 121 74 7
3 153 74 121
3 153 31 74
3 76 153 16
3 154 153 76
3 154 31 153
3 154 152 31
3 155 152 154
3 155 8 152
3 155 132 8
3 156 132 155
3 156 21 132
3 78 156 32
3 157 156 78
3 157 21 156
3 157 59 21
3 158 59 157
3 158 1 59
3 503 123 504
3 505 123 506
3 507 9 508
3 509 508 123
3 507 508 509
3 159 510 511
3 159 512 514
3 512 9 513
3 512 513 514
3 159 79 9
3 160 79 159
3 160 33 79
3 80 160 34
3 161 160 80
3 161 33 160
3 161 158 33
3 162 158 161
3 162 1 158
3 162 139 1
3 163 139 162
3 163 25 139
3 81 163 35
3 164 163 81
3 164 25 163
3 164 64 25
3 165 64 164
3 165 4 64
3 166 515 516
3 166 517 519
3 517 36 518
3 517 518 519
3 82 520 522
3 520 166 521
3 520 521 522
3 167 166 82
3 167 36 166
3 167 165 36
3 168 165 167
3 168 4 165
3 168 115 4
3 169 115 168
3 169 13 115
3 84 169 37
3 170 169 84
3 170 13 169
3 170 51 13
3 171 51 170
3 171 0 51
3 523 85 524
3 172 525 527
3 525 85 526
3 525 526 527
3 172 38 85
3 528 172 529
3 173 530 532
3 530 172 531
3 530 531 532
3 173 38 172
3 173 171 38
3 533 171 534
3 535 534 173
3 533 534 535
3 536 0 537
3 538 537 171
3 536 537 538
3 540 539 0
3 87 541 543
3 543 542 39
3 541 542 543
3 174 544 546
3 546 545 87
3 544 545 546
3 174 547 548
3 174 549 550
3 175 551 553
3 553 552 174
3 551 552 553
3 175 554 555
3 175 556 557
3 176 558 560
3 560 559 175
3 558 559 560
3 176 561 562
3 89 176 40
3 177 176 89
3 177 563 565
3 565 564 176
3 563 564 565
3 177 566 568
3 566 114 567
3 566 567 568
3 178 114 177
3 178 3 114
3 125 90 10
3 179 90 125
3 179 41 90
3 91 179 17
3 180 179 91
3 180 41 179
3 180 178 41
3 181 178 180
3 181 3 178
3 181 63 3
3 182 63 181
3 182 24 63
3 93 182 42
3 183 182 93
3 183 24 182
3 183 138 24
3 184 138 183
3 184 2 138
3 569 94 570
3 185 571 573
3 571 94 572
3 571 572 573
3 185 43 94
3 96 185 44
3 186 185 96
3 186 43 185
3 186 184 43
3 187 184 186
3 187 2 184
3 187 58 2
3 188 58 187
3 188 20 58
3 98 188 45
3 189 188 98
3 189 20 188
3 189 131 20
3 190 131 189
3 190 12 131
3 127 99 11
3 191 99 127
3 191 46 99
3 101 191 18
3 192 191 101
3 192 46 191
3 192 190 46
3 193 190 192
3 193 12 190
3 193 106 12
3 194 106 193
3 194 48 106
3 103 194 47
3 195 194 103
3 195 48 194
3 195 196 48
3 148 196 195
3 148 574 576
3 576 575 196
3 574 575 576
3 196 577 578
3 196 579 580
3 149 581 582
3 584 583 149
3 586 585 30
3 133 587 589
3 589 588 8
3 587 588 589
3 591 590 133
3 140 61 1
3 197 61 140
3 197 22 61
3 109 197 26
3 592 197 593
3 594 593 109
3 592 593 594
3 595 22 596
3 597 596 197
3 595 596 597
3 599 598 22
3 600 110 601
3 602 601 5
3 600 601 602
3 603 110 604
3 606 605 110
3 607 53 608
3 609 608 0
3 607 608 609
3 198 610 612
3 610 53 611
3 610 611 612
3 198 15 53
3 111 613 615
3 613 198 614
3 613 614 615
3 199 198 111
3 199 15 198
3 199 119 15
3 200 119 199
3 200 6 119
3 136 616 618
3 616 112 617
3 616 617 618
3 201 112 136
3 201 49 112
3 113 201 23
3 202 201 113
3 202 49 201
3 202 200 49
3 203 200 202
3 203 6 200
3 203 71 6
3 619 71 620
3 621 620 203
3 619 620 621
3 623 622 71
3 625 624 50
