ply
format ascii 1.0
element vertex 497
property float x
property float y
property float z
element face 540
property list uchar int vertex_index
end_header
33.276367 32.45937 -22.817266
38.44548 16.023228 -11.620039
31.89839 23.56945 -29.512476
36.338005 26.27586 -16.636595
37.453133 20.17812 -26.648458
41.969318 12.922829 -23.068964
37.802086 6.137817 2.243454
39.055138 6.370296 9.106703
35.952534 33.097992 -7.83791
36.417244 20.926556 -1.394264
29.683651 29.174137 -28.311827
32.364414 28.050583 -26.178377
37.497818 21.601715 -13.961498
38.730389 18.764355 -19.298952
40.162521 13.852268 -17.241148
37.31966 14.611977 4.793999
37.982822 6.559826 6.145959
38.611416 14.669212 7.729095
36.206745 37.328918 -12.015253
37.409538 40.105328 -8.43996
36.365322 29.44997 -0.09824
36.687099 22.371334 2.761727
37.07827 13.653709 0.75845
28.983919 18.385895 -32.392563
40.684177 16.533558 -30.790632
37.650379 18.448471 -31.99423
39.215874 9.883846 -9.537979
29.01964 23.844486 -30.493513
31.691626 19.178059 -32.713188
34.954346 29.883949 -19.646624
34.755039 25.974072 -23.818705
36.902012 22.862011 -21.484079
39.928513 16.957188 -24.938326
34.655254 36.612198 -19.550478
35.426826 33.796955 -15.731264
35.961433 29.880692 -12.10582
36.497414 24.760235 -8.935184
36.60025 35.454918 -3.875713
36.001148 27.546677 -4.253658
37.106358 18.634254 -6.284161
37.773491 11.909159 -4.119274
38.432858 5.043913 -2.411694
34.717876 22.398308 -28.197157
34.580196 19.300823 -32.620583
32.267502 33.402584 -24.356188
31.589304 31.102646 -25.836115
32.759056 30.275845 -24.492353
37.996677 18.907257 -12.753119
38.725544 17.552979 -15.470947
39.272335 14.829956 -14.400726
37.526772 18.778027 5.523236
37.833096 14.747147 6.410876
38.351685 18.757645 6.869
37.053055 26.438499 3.188004
37.252884 22.691307 4.458613
36.983269 18.552204 3.871736
30.34691 16.395248 -33.826141
30.701048 26.278469 -28.698309
29.261549 26.540627 -29.447439
30.471945 23.801384 -30.049681
30.356287 21.31469 -31.344156
31.778276 21.355465 -31.131979
35.675732 28.214886 -18.105574
35.748608 26.33704 -20.331713
36.606377 24.50753 -19.01792
40.274681 15.528538 -21.112715
39.355312 17.696499 -22.084044
41.009575 15.026962 -24.025354
41.640625 14.9258 -26.985643
42.771095 13.089836 -26.039557
38.36076 2.128016 0.556534
38.151619 2.404671 2.731031
38.4035 6.530293 7.754488
35.093971 35.326012 -17.641764
36.056816 35.381397 -9.869726
35.829659 33.762295 -11.846388
35.895714 31.570412 -9.940203
36.222023 27.465477 -10.456001
36.002636 29.055214 -8.166969
36.182487 25.314804 -0.544006
36.053226 28.632404 -2.092106
36.168018 24.345341 -2.732492
36.386402 23.154457 -5.078419
36.661045 19.859722 -3.768175
37.435951 15.318039 -5.144032
36.977585 16.40876 -2.60845
37.442104 9.902306 1.584244
37.672153 9.259663 -0.723122
38.019833 5.667048 -0.001287
35.992023 22.896984 -25.013117
34.729645 24.129402 -25.990412
36.104836 21.420593 -27.445864
36.102364 19.007729 -32.378838
35.902889 18.015392 -34.818871
34.380013 17.900639 -34.789101
30.297297 31.716484 -27.090193
31.068354 28.720619 -27.289843
32.084194 25.807491 -27.857447
36.945232 24.067028 -15.254307
37.392174 22.422005 -17.770819
38.099628 20.095356 -16.590807
39.497177 16.394974 -18.258852
41.078278 13.190399 -20.133238
37.433975 10.35268 3.684016
37.786098 6.434547 4.300817
37.661697 10.598312 5.546992
38.134773 10.647579 7.147713
38.855347 10.522938 8.467462
36.742836 38.83424 -10.210089
36.416782 36.794899 -7.943682
37.034595 33.23962 -0.06735
36.968624 29.970654 1.684984
36.469086 26.020683 1.44405
36.414951 21.776798 0.797022
36.728706 17.345051 -0.232969
36.721935 18.070786 1.940898
37.071606 14.246887 2.899754
27.497072 20.813023 -31.500616
39.043949 18.008541 -28.623514
37.62133 19.199303 -29.312231
39.190147 17.620029 -31.464197
38.850037 12.99778 -10.551769
39.747387 11.96879 -13.368696
27.523375 23.746414 -30.840425
28.936464 21.116467 -31.464746
30.324398 18.840561 -32.595306
31.608915 17.041534 -34.261528
34.16188 31.293209 -21.231058
33.830807 29.215092 -23.099581
34.823841 27.905285 -21.700537
35.861774 24.547276 -22.636404
37.197224 21.404064 -24.031839
37.862602 20.928448 -20.371679
38.324894 19.66375 -23.055311
38.736382 18.683258 -25.811987
40.392593 16.575352 -27.847406
42.098766 15.210903 -29.978624
40.733223 11.173485 -16.23498
41.770386 10.715473 -19.137136
42.807724 10.676079 -22.064917
44.664165 8.978916 -23.902063
43.777946 11.097954 -25.010881
38.116714 2.539967 4.756278
39.937668 6.106876 10.189887
33.912708 34.5784 -21.167391
34.584827 33.341431 -19.411821
35.154549 31.864033 -17.658812
35.657249 30.120125 -15.955477
35.774353 35.634365 -13.853598
35.703884 31.989605 -13.87261
36.116825 28.092197 -14.335466
36.546768 25.776745 -12.817923
36.953773 23.187576 -11.40967
37.341568 20.355595 -10.108995
36.946754 37.956253 -6.080111
36.172867 34.408283 -5.809036
36.404236 32.609398 -1.873465
36.047665 31.678196 -3.850132
35.929008 30.478352 -5.958437
36.165169 26.236771 -6.544268
36.79221 21.800232 -7.545771
37.713074 17.325314 -8.909338
38.070309 14.149662 -7.802181
38.41304 10.885298 -6.779247
38.737843 7.590601 -5.83452
37.32029 12.857479 -1.593992
38.108887 8.465044 -3.207081
33.589661 27.139927 -25.009642
33.425209 25.097317 -26.94639
33.312603 23.110439 -28.890676
36.156815 20.129257 -29.910769
34.681484 20.79142 -30.415491
33.218567 21.19286 -30.823038
33.107334 19.346466 -32.727501
32.94791 17.560989 -34.593414
38.232695 20.748087 6.362222
37.939228 18.767836 6.196118
37.820239 20.758278 5.68934
37.683295 22.714918 5.157029
37.596567 24.627226 4.55469
37.820239 20.758278 5.68934
37.389828 20.734667 4.990925
37.683295 22.714918 5.157029
30.373225 15.191238 -34.443184
30.927946 15.668308 -34.805976
38.839485 4.409942 8.676856
38.513666 4.489941 8.000749
38.729319 6.450295 8.430595
39.125484 4.317499 9.383585
38.839485 4.409942 8.676856
36.516474 17.703919 -36.046669
36.6993 17.944119 -34.739719
35.719429 17.553434 -36.009236
36.516474 17.703919 -36.046669
30.699589 32.930712 -26.445301
30.023985 33.213677 -27.10232
37.076187 39.469784 -9.325024
37.332702 40.377993 -10.548283
37.666054 41.013537 -9.663218
37.421787 30.077005 2.451409
37.462824 31.761485 1.606774
28.312984 18.126944 -32.25668
27.569561 19.340508 -31.810706
28.240496 19.599459 -31.94659
39.687942 9.450242 -10.950807
39.505024 11.007209 -11.457702
39.032955 11.440813 -10.044874
28.93759 29.309536 -28.766718
29.271996 30.659613 -28.26825
28.384073 25.239748 -30.29229
28.505028 26.587819 -29.769253
29.140594 25.192557 -29.970476
28.271507 23.79545 -30.666969
27.635941 25.190712 -30.465746
28.384073 25.239748 -30.29229
42.753965 14.445532 -29.507097
41.869695 15.068352 -28.482133
42.524895 14.302981 -28.010607
42.954102 14.917967 -31.012459
42.753965 14.445532 -29.507097
40.976719 9.786398 -15.732424
40.240305 11.571137 -14.801838
40.483801 10.184051 -14.299282
42.651423 9.516493 -20.073376
42.065884 9.42706 -18.626806
43.170091 9.496796 -21.537266
42.289055 10.695776 -20.601027
42.651423 9.516493 -20.073376
45.168458 9.545745 -25.347663
45.644855 8.553814 -24.708056
44.725349 10.605264 -25.902073
44.221055 10.038435 -24.456472
45.168458 9.545745 -25.347663
44.189819 11.534614 -26.490665
44.725349 10.605264 -25.902073
40.490158 5.936179 10.594637
40.470585 7.991224 10.212635
39.964691 4.060454 10.508436
40.490158 5.936179 10.594637
34.353355 37.153614 -20.47325
34.884556 38.140444 -19.74655
34.283981 35.595299 -20.358934
33.982082 36.136715 -21.281706
34.353355 37.153614 -20.47325
35.990549 36.481642 -12.934425
36.059478 37.300635 -14.0362
36.275674 38.147911 -13.117028
36.773502 36.705585 -4.977912
37.314898 38.391339 -5.190775
37.141646 37.140671 -4.088576
38.736041 4.685636 -3.689286
38.574055 6.396201 -4.08698
38.270873 6.754479 -2.809387
38.873335 3.104826 -3.298106
38.736041 4.685636 -3.689286
33.504501 17.055666 -35.746845
33.663961 17.730814 -34.691258
34.220552 17.225491 -35.844689
32.834343 16.688098 -35.503723
33.504501 17.055666 -35.746845
31.928403 32.252615 -25.096151
31.345592 32.623793 -25.818262
31.684691 33.773761 -25.078298
38.140314 41.572599 -8.84162
37.666054 41.013537 -9.663218
37.496652 26.500822 3.919385
37.464002 28.310928 3.202919
37.152969 24.564903 3.823308
37.496652 26.500822 3.919385
37.596567 24.627226 4.55469
29.739312 16.036333 -33.571586
29.057817 17.031657 -32.854798
29.665415 17.390572 -33.109352
29.739312 16.036333 -33.571586
30.373225 15.191238 -34.443184
40.714235 16.649552 -32.26607
41.500795 16.173769 -31.887972
39.866745 7.953735 -10.456346
39.380714 8.310507 -9.053731
43.09013 13.384999 -27.537563
42.524895 14.302981 -28.010607
42.20586 14.007818 -26.5126
38.535769 0.404769 0.742536
38.709324 0.317094 -0.349898
38.431198 0.543096 1.829785
38.535769 0.404769 0.742536
38.256189 2.266344 1.643783
38.325502 0.575431 2.888276
38.431198 0.543096 1.829785
38.336084 4.539377 7.179419
38.125746 4.554143 6.375155
38.193161 6.54506 6.950223
38.336084 4.539377 7.179419
38.513666 4.489941 8.000749
35.071053 37.576571 -18.758665
34.884556 38.140444 -19.74655
35.290411 36.933477 -17.804308
34.874612 35.969105 -18.596121
35.071053 37.576571 -18.758665
35.387859 36.269464 -16.777994
35.290411 36.933477 -17.804308
35.554287 35.504936 -15.822744
35.260399 34.561483 -16.686514
35.387859 36.269464 -16.777994
36.936428 35.828512 -2.972751
37.141646 37.140671 -4.088576
38.381712 3.686462 -0.875409
38.588225 3.374894 -2.080612
38.226346 5.355481 -1.20649
38.552176 1.916946 -0.596499
38.381712 3.686462 -0.875409
38.190297 3.897532 0.277623
38.709324 0.317094 -0.349898
38.552176 1.916946 -0.596499
36.799038 18.440287 -33.519703
36.876372 18.7281 -32.186534
37.573045 18.160658 -33.327399
36.002627 18.511561 -33.598855
36.799038 18.440287 -33.519703
36.6993 17.944119 -34.739719
34.957991 17.496057 -35.99435
35.141451 17.958016 -34.803986
35.719429 17.553434 -36.009236
34.220552 17.225491 -35.844689
34.957991 17.496057 -35.99435
29.578819 31.930786 -27.657432
30.023985 33.213677 -27.10232
29.990474 30.445311 -27.70101
29.271996 30.659613 -28.26825
29.578819 31.930786 -27.657432
30.9433 31.409565 -26.463154
30.699589 32.930712 -26.445301
31.345592 32.623793 -25.818262
36.646896 38.939529 -12.280171
36.275674 38.147911 -13.117028
36.914942 39.69219 -11.377588
37.332702 40.377993 -10.548283
36.47479 38.081579 -11.112671
36.646896 38.939529 -12.280171
36.914942 39.69219 -11.377588
37.49581 33.395967 0.730606
37.624218 34.933662 -0.2475
37.00161 31.605137 0.808817
37.49581 33.395967 0.730606
37.462824 31.761485 1.606774
37.01084 28.204577 2.436494
37.421787 30.077005 2.451409
37.464002 28.310928 3.202919
26.757633 20.63572 -31.479084
26.732533 22.18676 -31.295698
26.757633 20.63572 -31.479084
27.569561 19.340508 -31.810706
28.312984 18.126944 -32.25668
29.057817 17.031657 -32.854798
39.96722 17.192787 -32.602852
39.937162 17.076794 -31.127415
40.714235 16.649552 -32.26607
39.156807 17.538194 -32.883153
39.96722 17.192787 -32.602852
38.386922 17.952416 -33.14817
38.420263 18.03425 -31.729214
39.156807 17.538194 -32.883153
37.573045 18.160658 -33.327399
38.386922 17.952416 -33.14817
39.953699 10.492714 -12.866166
39.298712 12.483285 -11.960233
39.505024 11.007209 -11.457702
40.483801 10.184051 -14.299282
39.953699 10.492714 -12.866166
39.687942 9.450242 -10.950807
39.866745 7.953735 -10.456346
28.726539 27.992781 -29.334524
28.93759 29.309536 -28.766718
29.4726 27.857382 -28.879633
28.726539 27.992781 -29.334524
28.505028 26.587819 -29.769253
26.836269 25.178692 -30.732166
27.635941 25.190712 -30.465746
26.745685 23.653455 -30.965602
26.836269 25.178692 -30.732166
27.510224 22.279719 -31.170521
26.732533 22.18676 -31.295698
26.745685 23.653455 -30.965602
31.558948 15.991451 -35.02367
30.927946 15.668308 -34.805976
30.977913 16.718391 -34.043835
42.208089 15.512442 -31.481969
41.500795 16.173769 -31.887972
41.391471 15.872231 -30.384628
42.208089 15.512442 -31.481969
42.954102 14.917967 -31.012459
41.547303 9.656066 -17.175728
40.976719 9.786398 -15.732424
41.251805 10.944479 -17.686058
41.547303 9.656066 -17.175728
42.065884 9.42706 -18.626806
45.050991 7.868771 -23.30892
45.644855 8.553814 -24.708056
44.098312 8.648214 -22.455839
45.050991 7.868771 -23.30892
43.735945 9.827497 -22.98349
43.170091 9.496796 -21.537266
44.098312 8.648214 -22.455839
43.686394 12.530556 -27.005003
43.274521 12.093895 -25.525219
44.189819 11.534614 -26.490665
43.09013 13.384999 -27.537563
43.686394 12.530556 -27.005003
38.30805 0.643079 3.900899
38.325502 0.575431 2.888276
38.134166 2.472319 3.743654
38.192692 2.544213 5.680314
38.049768 4.549897 5.451118
38.125746 4.554143 6.375155
38.272903 0.630404 4.908861
38.192692 2.544213 5.680314
38.30805 0.643079 3.900899
38.272903 0.630404 4.908861
38.801989 20.645767 6.901943
38.232695 20.748087 6.362222
38.896927 18.637512 7.382822
38.801989 20.645767 6.901943
39.026792 16.593296 7.81287
38.48155 16.713428 7.299048
38.896927 18.637512 7.382822
39.12697 14.538628 8.234066
39.026792 16.593296 7.81287
39.248936 12.46549 8.60325
38.733382 12.596075 8.098278
39.12697 14.538628 8.234066
39.336049 10.388841 8.981996
39.248936 12.46549 8.60325
39.435944 8.31252 9.301616
38.955242 8.446617 8.787083
39.336049 10.388841 8.981996
39.877209 8.18081 9.843208
40.470585 7.991224 10.212635
39.496403 6.238586 9.648295
39.435944 8.31252 9.301616
39.877209 8.18081 9.843208
39.56675 4.185789 9.925177
39.125484 4.317499 9.383585
39.496403 6.238586 9.648295
39.56675 4.185789 9.925177
39.964691 4.060454 10.508436
32.176167 34.923809 -24.412114
31.684691 33.773761 -25.078298
32.680961 34.503172 -23.61336
32.176167 34.923809 -24.412114
33.185394 34.031565 -22.843899
32.771935 32.930977 -23.586727
32.680961 34.503172 -23.61336
33.503564 35.09108 -22.018961
33.982082 36.136715 -21.281706
33.594538 33.518885 -21.992328
33.185394 34.031565 -22.843899
33.503564 35.09108 -22.018961
35.72805 36.423641 -14.883911
36.059478 37.300635 -14.0362
35.600589 34.71566 -14.792431
35.554287 35.504936 -15.822744
35.72805 36.423641 -14.883911
37.82329 40.603027 -7.578171
38.140314 41.572599 -8.84162
37.591898 39.52849 -6.398247
37.314898 38.391339 -5.190775
37.178146 39.03079 -7.260035
37.82329 40.603027 -7.578171
37.591898 39.52849 -6.398247
37.153601 34.720863 -1.068569
37.624218 34.933662 -0.2475
36.838421 34.405752 -1.971626
37.153601 34.720863 -1.068569
36.719415 32.924509 -0.970407
36.502243 34.032158 -2.874589
36.936428 35.828512 -2.972751
36.838421 34.405752 -1.971626
38.979298 8.811234 -7.674365
39.380714 8.310507 -9.053731
38.814457 10.384572 -8.158613
39.141699 7.163885 -7.202001
38.979298 8.811234 -7.674365
38.575441 9.23795 -6.306883
39.287764 5.604197 -6.73692
39.141699 7.163885 -7.202001
38.888533 5.958979 -5.400699
38.423365 8.027823 -4.5208
38.574055 6.396201 -4.08698
39.287764 5.604197 -6.73692
38.888533 5.958979 -5.400699
38.873335 3.104826 -3.298106
38.588225 3.374894 -2.080612
32.164845 16.428371 -35.33778
32.278413 17.301261 -34.427471
32.834343 16.688098 -35.503723
31.558948 15.991451 -35.02367
32.164845 16.428371 -35.33778
3 0 46 44
3 1 49 47
3 175 52 176
3 177 176 50
3 175 176 177
3 178 54 179
3 180 50 181
3 182 181 54
3 180 181 182
3 184 183 56
3 2 59 57
3 2 61 59
3 3 64 62
3 5 67 65
3 5 69 67
3 6 71 70
3 7 185 187
3 187 186 72
3 185 186 187
3 7 188 189
3 8 76 74
3 8 78 76
3 9 81 79
3 9 83 81
3 9 85 83
3 6 88 86
3 6 70 88
3 4 91 89
3 190 93 191
3 193 192 93
3 194 95 195
3 11 96 45
3 11 97 96
3 12 100 98
3 14 101 48
3 14 102 101
3 15 105 103
3 17 106 51
3 17 107 106
3 19 196 198
3 196 108 197
3 196 197 198
3 19 109 108
3 199 111 200
3 21 112 53
3 21 113 112
3 21 115 113
3 15 116 55
3 15 103 116
3 23 201 203
3 203 202 117
3 201 202 203
3 24 120 118
3 26 204 206
3 206 205 121
3 204 205 206
3 10 207 208
3 27 209 211
3 211 210 58
3 209 210 211
3 27 212 214
3 212 123 213
3 212 213 214
3 27 124 123
3 28 125 60
3 28 126 125
3 29 129 127
3 31 130 63
3 31 131 130
3 13 132 99
3 32 133 66
3 32 134 133
3 32 135 134
3 215 136 216
3 217 216 68
3 215 216 217
3 219 218 136
3 220 137 221
3 222 221 122
3 220 221 222
3 223 138 224
3 225 139 226
3 227 226 138
3 225 226 227
3 228 140 229
3 230 141 231
3 232 231 140
3 230 231 232
3 234 233 141
3 16 142 104
3 235 143 236
3 238 237 143
3 33 239 240
3 33 241 243
3 241 144 242
3 241 242 243
3 33 145 144
3 34 146 73
3 34 147 146
3 18 244 246
3 244 148 245
3 244 245 246
3 35 149 75
3 35 150 149
3 35 151 150
3 36 152 77
3 36 153 152
3 37 247 249
3 247 154 248
3 247 248 249
3 37 155 154
3 20 156 110
3 38 157 80
3 38 158 157
3 38 159 158
3 39 160 82
3 39 161 160
3 39 162 161
3 40 163 84
3 40 164 163
3 22 165 114
3 41 166 87
3 41 250 252
3 252 251 166
3 250 251 252
3 41 253 254
3 30 167 128
3 42 168 90
3 42 169 168
3 25 170 119
3 43 171 92
3 43 172 171
3 43 173 172
3 255 174 256
3 257 256 94
3 255 256 257
3 259 258 174
3 44 260 262
3 260 45 261
3 260 261 262
3 46 45 44
3 46 11 45
3 47 48 12
3 49 48 47
3 49 14 48
3 50 51 15
3 52 51 50
3 52 17 51
3 263 19 264
3 265 53 266
3 54 267 269
3 267 53 268
3 267 268 269
3 54 21 53
3 54 55 21
3 50 55 54
3 50 15 55
3 56 270 272
3 272 271 23
3 270 271 272
3 274 273 56
3 276 275 24
3 278 277 26
3 57 58 10
3 59 58 57
3 59 27 58
3 59 60 27
3 61 60 59
3 61 28 60
3 62 63 29
3 64 63 62
3 64 31 63
3 65 66 13
3 67 66 65
3 67 32 66
3 67 68 32
3 69 68 67
3 69 279 281
3 281 280 68
3 279 280 281
3 70 282 283
3 71 284 286
3 286 285 70
3 284 285 286
3 71 287 288
3 72 289 291
3 291 290 16
3 289 290 291
3 293 292 72
3 294 33 295
3 296 73 297
3 298 297 33
3 296 297 298
3 299 73 300
3 301 34 302
3 303 302 73
3 301 302 303
3 74 75 18
3 76 75 74
3 76 35 75
3 76 77 35
3 78 77 76
3 78 36 77
3 304 37 305
3 79 80 20
3 81 80 79
3 81 38 80
3 81 82 38
3 83 82 81
3 83 39 82
3 83 84 39
3 85 84 83
3 85 40 84
3 86 87 22
3 88 87 86
3 88 41 87
3 88 306 308
3 308 307 41
3 306 307 308
3 70 309 311
3 311 310 88
3 309 310 311
3 70 312 313
3 89 90 30
3 91 90 89
3 91 42 90
3 314 92 315
3 316 315 25
3 314 315 316
3 93 317 319
3 317 92 318
3 317 318 319
3 93 43 92
3 93 94 43
3 320 94 321
3 322 321 93
3 320 321 322
3 324 323 94
3 95 325 326
3 95 327 329
3 327 10 328
3 327 328 329
3 45 330 332
3 330 95 331
3 330 331 332
3 96 95 45
3 96 10 95
3 96 57 10
3 97 57 96
3 97 2 57
3 98 99 3
3 100 99 98
3 100 13 99
3 48 100 12
3 101 100 48
3 101 13 100
3 101 65 13
3 102 65 101
3 102 5 65
3 103 104 6
3 105 104 103
3 105 16 104
3 51 105 15
3 106 105 51
3 106 16 105
3 106 72 16
3 107 72 106
3 107 7 72
3 333 18 334
3 108 335 336
3 108 337 339
3 337 18 338
3 337 338 339
3 108 74 18
3 109 74 108
3 109 8 74
3 340 110 341
3 111 342 344
3 342 110 343
3 342 343 344
3 111 20 110
3 53 345 347
3 345 111 346
3 345 346 347
3 112 111 53
3 112 20 111
3 112 79 20
3 113 79 112
3 113 9 79
3 113 114 9
3 115 114 113
3 115 22 114
3 55 115 21
3 116 115 55
3 116 22 115
3 116 86 22
3 103 86 116
3 103 6 86
3 117 348 349
3 351 350 117
3 353 352 23
3 118 119 4
3 120 119 118
3 120 25 119
3 354 120 355
3 356 355 24
3 354 355 356
3 357 120 358
3 359 25 360
3 361 360 120
3 359 360 361
3 363 362 25
3 121 122 1
3 364 122 365
3 366 365 121
3 364 365 366
3 368 367 122
3 370 369 26
3 58 371 373
3 373 372 10
3 371 372 373
3 375 374 58
3 123 376 377
3 123 378 379
3 123 380 382
3 380 117 381
3 380 381 382
3 124 117 123
3 124 23 117
3 60 124 27
3 125 124 60
3 125 23 124
3 125 56 23
3 126 56 125
3 126 383 385
3 385 384 56
3 383 384 385
3 127 128 0
3 129 128 127
3 129 30 128
3 63 129 29
3 130 129 63
3 130 30 129
3 130 89 30
3 131 89 130
3 131 4 89
3 99 64 3
3 132 64 99
3 132 31 64
3 66 132 13
3 133 132 66
3 133 31 132
3 133 131 31
3 134 131 133
3 134 4 131
3 134 118 4
3 135 118 134
3 135 24 118
3 68 135 32
3 136 135 68
3 136 24 135
3 136 386 388
3 388 387 24
3 386 387 388
3 390 389 136
3 122 49 1
3 137 49 122
3 137 14 49
3 391 137 392
3 138 393 395
3 393 137 394
3 393 394 395
3 138 14 137
3 138 102 14
3 139 102 138
3 139 5 102
3 140 396 397
3 140 398 399
3 140 400 402
3 400 139 401
3 400 401 402
3 141 139 140
3 141 5 139
3 141 69 5
3 403 69 404
3 405 404 141
3 403 404 405
3 407 406 69
3 104 71 6
3 142 71 104
3 142 408 410
3 410 409 71
3 408 409 410
3 411 142 412
3 413 412 16
3 411 412 413
3 414 142 415
3 417 416 142
3 418 52 419
3 420 52 421
3 422 17 423
3 424 423 52
3 422 423 424
3 425 17 426
3 427 107 428
3 429 428 17
3 427 428 429
3 430 107 431
3 432 7 433
3 434 433 107
3 432 433 434
3 143 435 436
3 143 437 439
3 437 7 438
3 437 438 439
3 143 440 442
3 442 441 7
3 440 441 442
3 444 443 143
3 445 44 446
3 447 44 448
3 449 0 450
3 451 450 44
3 449 450 451
3 144 452 453
3 144 454 456
3 454 0 455
3 454 455 456
3 144 127 0
3 145 127 144
3 145 29 127
3 73 145 33
3 146 145 73
3 146 29 145
3 146 62 29
3 147 62 146
3 147 3 62
3 148 457 458
3 148 459 461
3 459 34 460
3 459 460 461
3 75 148 18
3 149 148 75
3 149 34 148
3 149 147 34
3 150 147 149
3 150 3 147
3 150 98 3
3 151 98 150
3 151 12 98
3 77 151 35
3 152 151 77
3 152 12 151
3 152 47 12
3 153 47 152
3 153 1 47
3 462 19 463
3 154 464 465
3 154 466 468
3 466 19 467
3 466 467 468
3 154 109 19
3 155 109 154
3 155 8 109
3 110 469 470
3 156 471 473
3 473 472 110
3 471 472 473
3 156 474 476
3 474 37 475
3 474 475 476
3 80 156 20
3 157 156 80
3 157 37 156
3 157 155 37
3 158 155 157
3 158 8 155
3 158 78 8
3 159 78 158
3 159 36 78
3 82 159 38
3 160 159 82
3 160 36 159
3 160 153 36
3 161 153 160
3 161 1 153
3 161 121 1
3 162 121 161
3 162 26 121
3 84 162 39
3 163 162 84
3 163 26 162
3 163 477 479
3 479 478 26
3 477 478 479
3 164 480 482
3 482 481 163
3 480 481 482
3 164 483 484
3 114 85 9
3 165 85 114
3 165 40 85
3 87 165 22
3 166 165 87
3 166 40 165
3 166 164 40
3 485 164 486
3 487 486 166
3 485 486 487
3 489 488 164
3 491 490 41
3 128 46 0
3 167 46 128
3 167 11 46
3 90 167 30
3 168 167 90
3 168 11 167
3 168 97 11
3 169 97 168
3 169 2 97
3 119 91 4
3 170 91 119
3 170 42 91
3 92 170 25
3 171 170 92
3 171 42 170
3 171 169 42
3 172 169 171
3 172 2 169
3 172 61 2
3 173 61 172
3 173 28 61
3 94 173 43
3 174 173 94
3 174 28 173
3 174 126 28
3 492 126 493
3 494 493 174
3 492 493 494
3 496 495 126
