ply
format ascii 1.0
element vertex 314
property float x
property float y
property float z
element face 293
property list uchar int vertex_index
end_header
-30.503439 11.655523 -49.549889
-26.266478 -25.451096 -37.110443
-27.927532 2.162468 -45.079456
-26.76263 -5.598968 -47.673157
-26.834 -14.707661 -45.376041
-27.301029 -1.538025 -47.074688
-27.699602 -7.075931 -43.360191
-26.379051 -15.631702 -42.871262
-26.212318 -20.168671 -41.322517
-26.832462 -25.024038 -39.1106
-28.657169 7.135633 -47.76437
-27.80097 3.901894 -50.332184
-27.433275 -0.02247 -51.383156
-27.605375 -4.486532 -50.919342
-27.015734 -11.288547 -43.628368
-26.524958 -9.998066 -47.006126
-28.33201 -9.354585 -49.227516
-25.756668 -35.029621 -30.813423
-26.293842 -30.178829 -34.965237
-26.564693 -23.247139 -37.931919
-26.323151 -20.593979 -40.070599
-26.18224 -22.844746 -39.22897
-26.41423 -22.5457 -40.294254
-26.24371 -25.179245 -38.221741
-28.592781 6.231283 -44.903111
-28.164932 4.682693 -46.504719
-28.175949 5.610525 -49.223091
-27.768871 3.013121 -47.814533
-27.009157 -3.523916 -47.547676
-27.161047 -0.722788 -49.36792
-26.981916 -2.777861 -49.583549
-27.450937 -2.197237 -51.327133
-26.906708 -4.942378 -49.44735
-27.844893 -11.949633 -41.588413
-27.444414 -14.089341 -41.525715
-26.291742 -15.099251 -44.262024
-26.33606 -12.820488 -44.961838
-26.597473 -12.314793 -46.293045
-27.13809 -9.557921 -48.275146
-27.476364 -11.994846 -47.326321
-28.90274 -11.917515 -48.040443
-27.974522 -14.512302 -46.189766
-26.0567 -32.648663 -32.876522
-27.613853 0.356262 -46.245728
-27.682878 -2.325924 -44.556808
-27.400204 -4.310583 -45.260281
-27.087296 -6.350342 -45.630344
-27.015409 -16.235132 -41.234402
-26.620432 -18.398113 -40.742607
-26.212324 -17.869963 -42.185314
-26.416798 -17.445776 -43.374496
-26.735998 -19.86842 -42.319267
-30.104364 10.613611 -46.89922
-29.211161 8.487459 -46.01429
-29.431011 9.477383 -48.801697
-28.858702 8.109322 -50.415977
-27.428381 1.210726 -48.778114
-27.550816 2.017929 -51.055794
-28.109594 2.631313 -53.024437
-28.205223 0.437967 -53.079124
-28.45656 -1.885111 -52.745232
-28.849682 -4.314667 -52.061165
-27.377373 -9.168658 -43.638409
-26.777761 -8.447954 -45.68206
-26.664787 -13.440847 -43.361515
-26.512529 -10.604302 -45.446762
-26.590534 -7.758487 -47.479622
-26.952923 -7.205226 -48.996635
-27.898613 -6.875527 -50.203316
-29.37196 -6.836364 -51.076019
-30.009853 -9.442724 -49.844398
-26.392595 -27.971813 -34.987808
-25.339823 -37.314499 -28.799118
-26.008743 -32.624413 -31.935707
-26.109852 -30.231995 -34.018787
-26.165195 -27.746616 -36.12191
-26.530899 -27.631655 -37.052624
-30.810164 12.139689 -50.717274
-31.190202 12.632663 -49.745853
-30.169584 11.059954 -50.438088
-30.810164 12.139689 -50.717274
-28.075834 3.028288 -44.351803
-27.998839 1.838678 -43.650314
-28.046232 3.422581 -45.792088
-28.194534 4.2884 -45.064434
-28.075834 3.028288 -44.351803
-27.726971 -15.457562 -40.457554
-27.940526 -14.379675 -40.511605
-27.879131 -2.634258 -43.220692
-27.797012 -1.357473 -44.043503
-27.549903 -5.693257 -44.310236
-27.670879 -4.657239 -44.017401
-27.820577 -6.039912 -43.067356
-26.811295 -19.746411 -39.66587
-27.064354 -18.680046 -39.910911
-27.044539 -23.701687 -40.112364
-26.835423 -22.462519 -40.704191
-26.623346 -23.784869 -39.702427
-27.397922 -25.009173 -39.445551
-27.044539 -23.701687 -40.112364
-29.946976 10.156757 -45.473354
-30.458225 11.086263 -45.839036
-28.117813 5.200761 -51.007424
-28.305302 6.055077 -50.452877
-27.988459 4.756209 -49.777637
-27.992166 4.282709 -51.44574
-28.117813 5.200761 -51.007424
-29.823808 -12.023386 -48.232016
-29.251078 -13.238119 -47.364939
-26.439305 -29.183926 -33.934995
-26.764497 -28.126038 -34.323923
-25.548246 -36.17206 -29.806271
-25.538753 -37.491638 -29.161302
-25.747175 -36.349199 -30.168455
-25.778863 -34.972994 -30.352825
-25.570441 -36.115433 -29.345672
-25.548246 -36.17206 -29.806271
-25.882706 -33.827017 -31.374565
-25.904901 -33.77039 -30.913967
-25.778863 -34.972994 -30.352825
-28.022932 -7.364382 -42.139232
-27.820577 -6.039912 -43.067356
-26.443922 -21.920559 -39.001259
-26.662655 -20.844344 -39.329867
-26.783426 -22.170924 -38.260526
-28.408459 5.062696 -44.26363
-28.539137 5.904442 -43.428877
-28.378856 5.456988 -45.703915
-28.408459 5.062696 -44.26363
-28.194534 4.2884 -45.064434
-28.140766 -13.309821 -40.542954
-28.287301 -12.216181 -40.48283
-27.644653 -13.019487 -41.557064
-28.140766 -13.309821 -40.542954
-27.940526 -14.379675 -40.511605
-28.786969 -14.535512 -46.4396
-29.251078 -13.238119 -47.364939
-28.438631 -13.214908 -47.115105
-25.995975 -35.151533 -31.191085
-25.747175 -36.349199 -30.168455
-26.14599 -33.961054 -32.222635
-25.906684 -33.839142 -31.844973
-25.995975 -35.151533 -31.191085
-26.352691 -32.720716 -33.262954
-26.14599 -33.961054 -32.222635
-26.471262 -31.485799 -34.307312
-26.175271 -31.413746 -33.920879
-26.352691 -32.720716 -33.262954
-26.664418 -30.208922 -35.349328
-26.471262 -31.485799 -34.307312
-27.919339 0.886723 -44.304827
-27.998839 1.838678 -43.650314
-27.762499 -0.01638 -44.887963
-27.770692 1.259365 -45.662592
-27.919339 0.886723 -44.304827
-27.648365 -0.984831 -45.401268
-27.762499 -0.01638 -44.887963
-27.797012 -1.357473 -44.043503
-27.812216 -3.664909 -43.665664
-27.879131 -2.634258 -43.220692
-27.541541 -3.318253 -44.908544
-27.812216 -3.664909 -43.665664
-27.670879 -4.657239 -44.017401
-27.261843 -17.598555 -40.156809
-27.512469 -16.530458 -40.311898
-26.81792 -17.316623 -40.988505
-27.261843 -17.598555 -40.156809
-27.064354 -18.680046 -39.910911
-26.471792 -19.496046 -40.406603
-26.811295 -19.746411 -39.66587
-26.662655 -20.844344 -39.329867
-26.833498 -17.311775 -43.829712
-27.042099 -15.942718 -44.830484
-26.625399 -16.076718 -44.375269
-26.993098 -18.523097 -43.302097
-26.833498 -17.311775 -43.829712
-26.576398 -18.657098 -42.846882
-27.291544 -19.798189 -42.682762
-26.993098 -18.523097 -43.302097
-26.996308 -21.123879 -41.716698
-26.575114 -21.20706 -41.306761
-26.835423 -22.462519 -40.704191
-27.291544 -19.798189 -42.682762
-26.996308 -21.123879 -41.716698
-27.006698 -23.475706 -37.180525
-26.783426 -22.170924 -38.260526
-26.713474 -24.530045 -36.86013
-27.006698 -23.475706 -37.180525
-26.564366 -25.632023 -36.449393
-26.415585 -24.349117 -37.521181
-26.713474 -24.530045 -36.86013
-30.893489 12.10328 -48.520476
-31.190202 12.632663 -49.745853
-30.693952 11.582324 -47.195141
-30.458225 11.086263 -45.839036
-30.303902 11.134567 -48.224554
-30.893489 12.10328 -48.520476
-30.693952 11.582324 -47.195141
-28.806676 6.959809 -43.994541
-28.539137 5.904442 -43.428877
-29.115866 8.087896 -44.550131
-28.806676 6.959809 -43.994541
-28.901971 7.359371 -45.458701
-29.500375 9.09368 -45.03089
-29.115866 8.087896 -44.550131
-29.657763 9.550535 -46.456755
-29.946976 10.156757 -45.473354
-29.500375 9.09368 -45.03089
-29.633371 9.970883 -50.063992
-30.169584 11.059954 -50.438088
-29.967225 10.566453 -49.175793
-29.347216 9.286853 -50.871132
-29.633371 9.970883 -50.063992
-29.144857 8.793353 -49.608837
-29.101672 8.537437 -51.589141
-29.347216 9.286853 -50.871132
-28.646679 7.304475 -51.04932
-28.517325 6.859924 -49.819534
-28.305302 6.055077 -50.452877
-29.101672 8.537437 -51.589141
-28.646679 7.304475 -51.04932
-27.867089 3.340726 -51.807545
-27.992166 4.282709 -51.44574
-27.675893 2.959912 -50.693989
-28.146479 3.647418 -52.791866
-27.867089 3.340726 -51.807545
-27.830205 2.324621 -52.040115
-28.558437 3.891592 -53.733326
-28.146479 3.647418 -52.791866
-28.631997 2.780951 -53.833992
-28.558437 3.891592 -53.733326
-28.679811 1.684278 -53.861335
-28.631997 2.780951 -53.833992
-28.157409 1.53464 -53.05178
-28.843288 0.500465 -53.751689
-28.679811 1.684278 -53.861335
-28.968957 -0.661074 -53.584744
-28.843288 0.500465 -53.751689
-28.330891 -0.723572 -52.912178
-29.207935 -1.900618 -53.278847
-28.968957 -0.661074 -53.584744
-29.404496 -3.115395 -52.936813
-29.207935 -1.900618 -53.278847
-28.653121 -3.099889 -52.403199
-29.705431 -4.400057 -52.456627
-29.404496 -3.115395 -52.936813
-27.930077 -8.441547 -42.376587
-28.022932 -7.364382 -42.139232
-28.002723 -10.878398 -41.490698
-28.287301 -12.216181 -40.48283
-27.768963 -9.48791 -42.515696
-28.002723 -10.878398 -41.490698
-27.611133 -10.559145 -42.613411
-27.538487 -8.122295 -43.4993
-27.930077 -8.441547 -42.376587
-27.768963 -9.48791 -42.515696
-27.229912 -15.162236 -41.380059
-27.726971 -15.457562 -40.457554
-27.512469 -16.530458 -40.311898
-29.96657 -5.660906 -51.964054
-29.705431 -4.400057 -52.456627
-29.110821 -5.575515 -51.568592
-30.31679 -6.986019 -51.337502
-29.96657 -5.660906 -51.964054
-30.635737 -8.289198 -50.721691
-30.31679 -6.986019 -51.337502
-29.690907 -8.139544 -50.460209
-31.021902 -9.65382 -49.980896
-30.635737 -8.289198 -50.721691
-30.377364 -10.785991 -49.133993
-29.456297 -10.680119 -48.94242
-29.823808 -12.023386 -48.232016
-31.021902 -9.65382 -49.980896
-30.377364 -10.785991 -49.133993
-27.61236 -15.845038 -45.237347
-27.404261 -14.609981 -45.782904
-27.042099 -15.942718 -44.830484
-28.301021 -15.809621 -45.545942
-27.61236 -15.845038 -45.237347
-28.786969 -14.535512 -46.4396
-28.301021 -15.809621 -45.545942
-26.627425 -26.892381 -35.388075
-26.764497 -28.126038 -34.323923
-26.329536 -26.711455 -36.049126
-26.564366 -25.632023 -36.449393
-26.627425 -26.892381 -35.388075
-25.224128 -38.643268 -28.170393
-25.538753 -37.491638 -29.161302
-25.05292 -38.407072 -27.825415
-25.224128 -38.643268 -28.170393
-25.389696 -37.208731 -28.350973
-25.05292 -38.407072 -27.825415
-25.389696 -37.208731 -28.350973
-25.570441 -36.115433 -29.345672
-26.24389 -32.67021 -31.373451
-25.904901 -33.77039 -30.913967
-26.247379 -31.510226 -32.408945
-26.24389 -32.67021 -31.373451
-26.297933 -30.314017 -33.450485
-26.247379 -31.510226 -32.408945
-26.059297 -31.428204 -32.977247
-26.251224 -29.101904 -34.503298
-26.439305 -29.183926 -33.934995
-26.297933 -30.314017 -33.450485
-26.782947 -28.935334 -36.393021
-26.412371 -28.905242 -36.008931
-26.664418 -30.208922 -35.349328
-26.992701 -27.631261 -37.42005
-26.782947 -28.935334 -36.393021
-27.143482 -26.327452 -38.449038
-26.68168 -26.327846 -38.081612
-26.992701 -27.631261 -37.42005
-27.397922 -25.009173 -39.445551
-27.143482 -26.327452 -38.449038
3 0 77 78
3 0 79 80
3 1 21 19
3 1 23 21
3 2 81 82
3 2 83 85
3 83 25 84
3 83 84 85
3 2 27 25
3 3 30 28
3 3 32 30
3 86 34 87
3 4 37 35
3 4 39 37
3 4 41 39
3 88 44 89
3 6 90 92
3 90 45 91
3 90 91 92
3 6 46 45
3 93 48 94
3 8 49 20
3 8 50 49
3 8 51 50
3 9 95 97
3 97 96 22
3 95 96 97
3 9 98 99
3 100 52 101
3 10 53 24
3 10 54 53
3 10 55 54
3 11 102 104
3 104 103 26
3 102 103 104
3 11 105 106
3 5 56 43
3 12 57 29
3 12 58 57
3 12 59 58
3 13 60 31
3 13 61 60
3 14 62 33
3 14 63 62
3 7 64 47
3 15 65 36
3 15 66 65
3 15 67 66
3 16 68 38
3 16 69 68
3 16 70 69
3 108 107 40
3 109 71 110
3 17 111 113
3 111 72 112
3 111 112 113
3 17 114 116
3 116 115 72
3 114 115 116
3 17 117 119
3 117 73 118
3 117 118 119
3 18 74 42
3 18 75 74
3 18 76 75
3 120 6 121
3 19 122 124
3 122 20 123
3 122 123 124
3 21 20 19
3 21 8 20
3 21 22 8
3 23 22 21
3 23 9 22
3 125 24 126
3 25 127 129
3 127 24 128
3 127 128 129
3 25 10 24
3 25 26 10
3 27 26 25
3 27 11 26
3 28 29 5
3 30 29 28
3 30 12 29
3 30 31 12
3 32 31 30
3 32 13 31
3 130 33 131
3 34 132 134
3 132 33 133
3 132 133 134
3 34 14 33
3 35 36 7
3 37 36 35
3 37 15 36
3 37 38 15
3 39 38 37
3 39 16 38
3 39 40 16
3 41 40 39
3 41 135 137
3 137 136 40
3 135 136 137
3 138 17 139
3 140 42 141
3 142 141 17
3 140 141 142
3 143 42 144
3 145 18 146
3 147 146 42
3 145 146 147
3 149 148 18
3 150 2 151
3 152 43 153
3 154 153 2
3 152 153 154
3 44 155 157
3 155 43 156
3 155 156 157
3 44 5 43
3 158 44 159
3 45 160 162
3 160 44 161
3 160 161 162
3 45 5 44
3 45 28 5
3 46 28 45
3 46 3 28
3 163 47 164
3 48 165 167
3 165 47 166
3 165 166 167
3 48 7 47
3 20 168 170
3 168 48 169
3 168 169 170
3 49 48 20
3 49 7 48
3 49 35 7
3 50 35 49
3 50 4 35
3 50 171 173
3 173 172 4
3 171 172 173
3 51 174 176
3 176 175 50
3 174 175 176
3 51 177 178
3 22 51 8
3 179 51 180
3 181 180 22
3 179 180 181
3 183 182 51
3 184 19 185
3 186 19 187
3 188 1 189
3 190 189 19
3 188 189 190
3 191 0 192
3 52 193 194
3 52 195 197
3 195 0 196
3 195 196 197
3 24 198 199
3 53 200 202
3 202 201 24
3 200 201 202
3 53 203 204
3 53 205 207
3 205 52 206
3 205 206 207
3 54 52 53
3 54 0 52
3 54 208 210
3 210 209 0
3 208 209 210
3 55 211 213
3 213 212 54
3 211 212 213
3 55 214 215
3 26 55 10
3 216 55 217
3 218 217 26
3 216 217 218
3 220 219 55
3 43 27 2
3 56 27 43
3 56 11 27
3 29 56 5
3 57 56 29
3 57 11 56
3 57 221 223
3 223 222 11
3 221 222 223
3 58 224 226
3 226 225 57
3 224 225 226
3 58 227 228
3 58 229 230
3 59 231 233
3 233 232 58
3 231 232 233
3 59 234 235
3 31 59 12
3 60 59 31
3 60 236 238
3 238 237 59
3 236 237 238
3 60 239 240
3 61 241 243
3 243 242 60
3 241 242 243
3 61 244 245
3 246 6 247
3 33 248 249
3 62 250 252
3 252 251 33
3 250 251 252
3 62 253 255
3 253 6 254
3 253 254 255
3 62 46 6
3 63 46 62
3 63 3 46
3 47 256 258
3 256 34 257
3 256 257 258
3 64 34 47
3 64 14 34
3 36 64 7
3 65 64 36
3 65 14 64
3 65 63 14
3 66 63 65
3 66 3 63
3 66 32 3
3 67 32 66
3 67 13 32
3 38 67 15
3 68 67 38
3 68 13 67
3 68 61 13
3 69 61 68
3 69 259 261
3 261 260 61
3 259 260 261
3 69 262 263
3 70 264 266
3 266 265 69
3 264 265 266
3 70 267 268
3 40 70 16
3 269 70 270
3 271 270 40
3 269 270 271
3 273 272 70
3 274 41 275
3 276 275 4
3 274 275 276
3 277 41 278
3 280 279 41
3 71 281 282
3 71 283 285
3 283 1 284
3 283 284 285
3 72 286 287
3 72 288 289
3 72 290 291
3 293 292 72
3 73 294 295
3 73 296 297
3 42 73 17
3 74 73 42
3 74 298 300
3 300 299 73
3 298 299 300
3 74 301 303
3 301 71 302
3 301 302 303
3 75 71 74
3 75 1 71
3 75 23 1
3 76 23 75
3 76 9 23
3 304 76 305
3 306 305 18
3 304 305 306
3 307 76 308
3 309 9 310
3 311 310 76
3 309 310 311
3 313 312 9
