ply
format ascii 1.0
element vertex 807
property float x
property float y
property float z
element face 947
property list uchar int vertex_index
end_header
7.417719 79.815605 31.18121
23.75021 80.80838 -17.770109
24.068062 70.218048 24.994957
13.597265 88.057419 2.25206
3.15085 78.846687 6.767364
2.329779 81.102547 -20.01346
-1.752775 50.997208 -31.126356
2.292236 73.244095 21.189398
3.716698 83.411324 19.204554
17.561028 85.886665 -9.737833
7.045027 88.504112 -9.574484
10.181911 84.713005 -20.462393
4.757772 75.901688 -29.055029
16.027031 76.885803 27.557369
10.408382 86.19754 16.409613
19.372826 81.15258 14.302153
23.954544 81.487411 2.167412
21.382917 63.843437 36.157383
5.619522 87.96508 4.274446
2.806108 81.546692 -7.180216
-0.354288 67.907143 -27.704775
1.994446 62.044792 -34.136856
1.679049 45.329498 -34.090981
2.713194 79.79055 26.820591
5.138762 82.71965 25.419914
20.432968 83.814522 -14.342196
13.798399 86.247391 -15.313969
16.599089 83.338814 -19.35116
12.87849 80.914307 -23.85359
20.126801 73.665222 26.115866
17.596077 79.541237 20.922394
21.746181 76.021423 19.88818
17.420364 66.605354 37.904076
12.004593 87.726654 9.16751
7.800879 88.162239 10.338911
9.050196 89.272079 3.087247
4.359369 85.723862 -15.037514
4.080807 86.187019 -8.539371
2.389862 81.784668 -13.838078
1.061155 75.97847 -18.566946
0.823519 75.040977 -24.304525
7.216644 70.983757 -31.282473
3.086376 69.406929 -32.155785
-1.617521 41.246269 -30.976141
-0.480284 48.487 -33.425438
1.723036 69.21936 28.373798
1.697985 75.073395 27.781744
2.442663 78.942581 20.326311
3.171421 81.981827 12.882952
15.343995 87.343376 -4.126703
10.251995 89.243301 -3.772657
11.710186 88.186226 -10.012045
8.220436 87.170906 -15.584801
5.283703 84.121857 -20.717611
3.059479 79.236282 -25.245634
7.108955 81.16304 -25.087946
9.683651 76.644913 -27.864344
-2.136072 52.867111 -27.261957
27.349192 80.753609 -12.954399
30.832235 77.638504 -16.12137
11.655838 79.130829 29.269833
8.844297 83.519165 23.793076
13.21949 82.298882 22.242203
14.898492 84.368851 15.198197
16.691807 85.255722 8.349497
23.780708 77.539314 13.808842
21.463161 81.7323 7.980089
18.674107 85.064819 1.933063
21.035484 84.124634 -3.852858
23.954252 82.73069 -8.853134
14.577927 73.280907 33.997429
18.728374 70.513428 32.173912
22.635059 67.293526 30.726513
6.455675 85.944633 17.824297
4.737778 86.151428 11.658086
3.720549 84.228256 5.55172
6.318277 88.767441 -2.855204
3.988241 85.654259 -1.612669
3.142159 80.549149 -0.28591
-1.256853 59.885239 -30.029173
1.455742 72.941994 -28.973886
0.322758 65.617195 -31.699526
-0.367008 57.448639 -33.228409
1.479836 53.990257 -34.787498
4.307619 41.744358 -33.690582
21.78117 80.194481 -19.942919
5.562454 79.441841 32.13105
4.536432 80.752289 29.223448
6.185541 81.532997 28.378626
22.063915 82.462341 -16.207434
18.531044 83.806358 -16.910891
20.135534 82.173149 -18.591345
18.171263 81.411118 -20.837416
22.094116 71.920403 25.50745
20.895615 74.945526 23.0042
22.895966 73.174652 22.50198
3.14632 76.798729 3.869741
12.796946 88.037804 5.656244
10.519577 88.744446 6.119684
11.223671 88.951172 2.611775
3.266441 83.620285 -17.597952
3.155724 84.03569 -14.500984
2.285103 81.573143 -17.010775
1.696384 79.030411 -16.287409
1.528246 78.754982 -19.364958
0.854513 75.633018 -21.536043
1.524912 78.225441 -22.257833
-2.195841 47.287926 -29.646574
-2.187613 42.34906 -29.644011
-1.778677 46.225136 -31.198076
-1.13386 45.0373 -32.333244
-1.238134 49.82769 -32.490967
3.202986 81.711166 23.011105
2.464712 79.607582 23.584263
2.905563 81.37928 19.804443
2.818972 80.561951 16.595438
3.347801 82.940948 16.03624
16.374691 86.690887 -7.043436
13.539497 87.97316 -7.100777
14.528393 87.21489 -9.961462
11.943459 85.735779 -17.947447
10.82955 86.961922 -15.550562
9.095245 86.092499 -18.192392
6.666056 85.896584 -18.215521
7.503386 84.70784 -20.712442
6.083651 82.827728 -23.093061
8.560108 83.179199 -22.847372
14.380997 78.441849 -24.969427
11.196547 78.986122 -25.922251
12.66604 76.301247 -26.880774
30.688951 79.099556 -12.19418
13.861509 78.17115 28.380627
12.421621 80.843376 25.767639
14.633566 79.749878 24.980129
18.451321 80.48056 17.592299
16.273411 82.114883 18.115108
17.152912 82.875076 14.706627
15.778865 84.959526 11.734126
18.082727 83.349724 11.359032
25.192976 79.931984 5.165218
23.872635 79.926659 7.984209
22.653488 81.69323 5.001317
20.138826 83.514061 4.971479
21.298031 83.277618 1.981733
19.792988 84.664085 -1.04925
22.571205 82.891624 -0.847057
25.611229 81.844398 -11.020781
12.414909 74.307068 35.049664
19.421953 65.257095 36.959793
18.063755 68.651024 35.078896
20.052036 67.17231 34.229591
20.699081 68.919571 31.404003
21.997629 65.638954 33.491749
2.004894 71.343124 24.798304
9.61599 84.994453 20.093561
7.578024 85.000557 20.851347
8.318127 86.356422 17.103746
6.645195 88.338264 7.293608
6.090696 87.460777 10.996878
5.203552 87.179245 7.94082
4.151199 85.437454 8.583551
4.474815 86.362206 4.916737
8.60372 89.128441 -6.708649
8.104055 89.342232 -3.372589
6.654255 88.770012 -6.280787
3.261049 84.1035 -7.884285
4.039101 86.038086 -5.11347
3.356777 83.797997 -4.446095
3.414629 83.286407 -0.952135
3.005337 81.137314 -3.755377
-0.336006 68.633591 -25.222879
-0.868271 64.800583 -26.690733
-1.345919 60.754333 -27.880297
-0.844582 64.003342 -29.012159
3.791517 77.766563 -27.349474
2.19075 76.23777 -27.222509
2.899733 74.704597 -29.175585
2.471519 65.819588 -33.301941
1.537525 67.784348 -32.088211
1.044596 63.995964 -33.119133
-0.082632 61.633736 -32.624748
0.677835 60.013878 -33.832123
0.450562 55.846489 -34.208359
1.659374 58.098274 -34.636177
0.848274 42.304291 -33.340302
2.117462 40.801373 -33.32283
3.489079 39.262829 -33.09684
2.972023 43.566246 -33.971123
3.219259 79.445755 29.980709
3.744083 81.510155 26.167332
4.31078 83.345955 22.346956
18.918215 84.936897 -12.179604
15.690479 86.278656 -12.573114
17.032631 85.155281 -14.899389
15.122677 84.933472 -17.506601
13.245926 84.220955 -19.993479
11.458603 82.998505 -22.355165
14.695663 82.37571 -21.664057
16.232819 80.160736 -22.958174
18.115324 75.353539 26.802029
16.792694 78.339333 24.25499
18.87521 76.703239 23.594105
19.690788 77.819977 20.364071
20.583626 78.697037 17.151773
26.625414 79.783554 2.483613
2.570585 74.935028 17.5667
11.207937 87.112259 12.760219
9.064478 87.441376 13.387027
9.80127 88.240845 9.718894
8.440533 88.86058 6.675055
7.158525 88.948746 3.652774
5.620672 87.364105 -12.356218
5.334152 87.678268 -9.115393
4.167082 86.087509 -11.861628
3.17457 84.188927 -11.24696
2.583572 81.767929 -10.548693
0.4569 72.671066 -20.648245
0.238018 72.249535 -23.497057
0.201633 71.591705 -26.128099
5.917662 73.635696 -30.357504
3.844286 72.780815 -30.729204
4.981863 70.46714 -31.887602
4.209927 67.078972 -33.159874
-0.25148 43.725578 -33.036842
0.50679 46.981033 -33.939865
24.927242 71.489166 22.112213
1.936787 74.331482 24.455904
2.043129 77.618652 27.358891
2.063314 77.116768 24.061171
2.266186 76.198769 20.779419
2.588799 77.858986 17.098392
2.884417 79.322258 13.428679
3.130928 80.595078 9.782088
14.432953 87.812889 -1.018339
11.934889 88.873566 -0.780369
12.690836 88.536652 -4.028584
10.923134 88.832008 -6.988049
9.189787 88.653801 -9.880892
12.659805 87.324181 -12.802189
9.917555 87.930428 -12.844931
7.549059 87.971397 -12.693123
6.047853 86.774918 -15.409401
4.716311 85.076813 -18.010965
3.562578 82.914009 -20.47637
2.576153 80.336472 -22.781008
4.08399 81.883759 -23.068884
4.847708 80.494682 -25.313425
5.842043 78.716393 -27.165022
9.807915 81.278687 -24.586138
8.326233 79.104347 -26.676344
7.029306 76.534935 -28.608839
8.356434 73.955803 -29.661715
-2.420748 48.237213 -27.730474
-2.039141 52.003441 -29.363062
25.620995 80.975502 -15.441811
27.345013 79.293198 -16.935369
29.110023 79.37616 -14.652563
32.449871 77.654388 -13.867785
9.478746 79.697662 30.21278
8.107254 81.788177 27.492956
10.217451 81.543205 26.611383
10.99551 83.139061 22.993919
11.802896 84.467331 19.373482
15.435945 81.069626 21.550179
14.045637 83.479141 18.710741
12.630701 85.510345 15.768923
13.471842 86.254303 12.204294
14.323814 86.693764 8.706625
15.192981 86.837494 5.303944
23.807617 74.257088 19.516941
22.702797 76.886993 16.81078
21.571527 79.333237 13.996959
24.984348 77.982033 10.908309
22.665987 79.736649 10.933066
20.373133 81.563225 11.087981
19.073273 83.552666 8.10471
17.649807 85.278305 5.073688
16.097866 86.711174 2.02357
17.068928 86.355652 -1.108122
18.143642 85.819099 -4.065702
19.356644 85.143913 -6.824348
23.974247 82.395111 -3.501226
22.421871 83.479271 -6.459515
20.727962 84.351204 -9.360111
22.253586 83.42865 -11.651333
23.902388 82.32798 -13.681353
8.790159 77.617882 33.790085
10.929375 77.179619 32.739887
13.119814 76.351044 31.738008
15.28929 75.194595 30.807537
16.012177 70.003357 36.046539
16.690277 71.992867 33.037537
17.391121 73.780029 29.95575
19.412102 72.186325 29.182297
21.372128 70.501495 28.488174
23.314997 68.818039 27.881695
6.86178 83.388702 24.614273
5.783968 84.45253 21.615334
4.904032 84.953506 18.536015
7.134413 87.18573 14.060675
5.504267 86.328331 14.748526
4.235456 84.892654 15.416142
3.770126 84.294662 12.292664
3.478096 83.204544 9.199313
3.308237 81.680511 6.166583
9.643324 89.396255 -0.40379
7.636538 89.28405 0.090448
5.985365 88.497498 0.670559
5.127897 87.726761 -5.736496
4.943659 87.517441 -2.256392
4.735521 87.059151 1.299994
3.889191 85.047546 1.945683
3.403221 82.578568 2.587207
3.193176 79.785782 3.222733
-1.734461 57.263351 -26.502241
-1.745813 56.490891 -28.774614
-1.568903 55.550964 -30.737612
1.735237 77.400085 -24.89908
1.014322 74.157684 -26.804968
0.392078 70.652283 -28.474081
2.153557 71.363159 -30.764433
0.836205 69.392036 -30.474512
-0.143106 66.913567 -29.882856
-0.590561 62.957962 -31.008314
-0.937735 58.791481 -31.828566
-1.162792 54.414543 -32.3256
-0.508722 53.064934 -33.495728
0.384417 51.499557 -34.240616
1.477219 49.730164 -34.596352
2.665207 51.897682 -35.019661
2.709816 47.780502 -34.634789
4.01066 45.683868 -34.448151
24.58775 79.798488 -18.405634
23.603229 79.491539 -19.492039
22.76569 80.50143 -18.856514
3.144005 77.346035 7.072504
3.086124 78.287697 8.555794
3.148585 77.822708 5.318553
3.141739 76.322056 5.623693
3.144005 77.346035 7.072504
14.285916 75.944577 -26.312134
13.523519 77.371548 -25.9251
15.143395 77.014878 -25.35646
13.412432 74.776794 -27.197416
14.285916 75.944577 -26.312134
2.360171 71.703087 21.391038
2.2165 70.752601 23.195491
2.148565 72.29361 22.993851
2.707575 80.102989 -6.810107
2.80719 79.8983 -5.097688
2.905722 81.342003 -5.467797
3.604 78.999111 31.495272
2.982995 78.297028 31.874372
18.003146 79.634499 -22.46812
17.202041 80.785927 -21.897795
18.972368 80.25969 -21.407742
17.013409 78.860119 -23.430527
18.003146 79.634499 -22.46812
27.950615 78.986489 2.700114
27.184768 79.037174 3.971738
27.394917 79.643619 1.212884
27.950615 78.986489 2.700114
2.723825 74.164314 16.018142
2.695746 75.681015 15.756942
2.180599 80.436699 -13.460155
2.277454 80.428329 -11.815462
2.486717 81.776298 -12.193385
1.224595 76.048642 -17.01196
1.542209 77.574612 -15.872191
1.378769 77.504441 -17.427177
0.933007 74.439461 -18.105207
1.224595 76.048642 -17.01196
0.759027 74.324768 -19.607596
0.63088 72.785759 -19.145857
0.933007 74.439461 -18.105207
4.838028 65.741733 -33.487781
5.233222 67.432144 -32.921677
3.900669 65.293068 -33.647755
4.838028 65.741733 -33.487781
-1.802938 39.226256 -30.186357
-2.087985 39.777651 -29.520293
-1.902567 41.797664 -30.310076
-1.429525 38.666975 -30.742306
-1.802938 39.226256 -30.186357
-1.218824 40.653547 -31.430329
-1.429525 38.666975 -30.742306
1.65731 73.658817 27.945169
1.528396 73.936318 29.624308
1.817386 74.702438 26.118824
1.776711 73.287861 26.282249
1.65731 73.658817 27.945169
2.378162 78.704601 27.089741
2.152248 77.630852 28.986716
2.487281 78.716801 28.717565
-2.27841 50.552162 -27.496215
-2.462893 48.666095 -26.625436
-2.320555 50.981044 -26.391178
33.149051 77.494113 -12.647089
31.569411 78.376972 -13.030983
32.268591 78.216698 -11.810287
34.012375 76.715046 -13.485131
33.149051 77.494113 -12.647089
24.862857 73.436451 19.39661
24.36743 72.873127 20.814577
25.422669 72.05249 20.694246
23.241753 77.213154 15.309811
23.776226 76.021736 16.701606
24.315182 76.347897 15.200637
25.646684 78.104446 9.515949
26.160868 77.173199 10.966074
25.443962 81.554157 -3.264995
24.674268 81.774258 -2.006324
23.188061 83.10498 -7.656325
23.966418 82.641152 -6.214724
24.732608 82.266861 -7.411534
9.521492 76.311882 34.982872
8.476498 76.467038 35.5639
10.5911 76.09275 34.457773
9.859767 77.398751 33.264986
9.521492 76.311882 34.982872
16.716271 68.304355 36.975307
15.689896 68.913826 37.521175
16.39399 67.214825 38.449944
29.922164 77.430722 -17.149143
28.178553 78.258069 -17.556142
29.088624 78.465851 -16.52837
1.829917 67.647628 28.496592
1.696575 66.468204 30.257171
1.589694 68.039936 30.134378
3.100186 79.065087 0.054661
3.125694 78.683403 1.808982
3.167667 80.167465 1.468411
-1.490713 59.348953 -25.975718
-1.660944 57.584129 -25.247204
3.302676 50.746315 -35.000489
3.365482 52.672855 -35.117866
3.32498 48.687725 -34.808053
2.687512 49.839092 -34.827225
3.302676 50.746315 -35.000489
3.975402 47.639408 -34.714734
3.360238 46.732185 -34.54147
3.32498 48.687725 -34.808053
4.596875 39.755211 -33.239956
4.187605 38.514447 -32.943085
3.898349 40.503594 -33.393711
4.950093 40.850164 -33.524204
5.239349 38.861018 -33.073578
4.596875 39.755211 -33.239956
22.592202 79.012058 -20.465491
20.777321 79.651371 -20.960493
22.592202 79.012058 -20.465491
23.603229 79.491539 -19.492039
5.049443 80.097065 30.677249
4.262586 79.652378 31.116641
4.775597 78.997154 32.570442
20.777321 79.651371 -20.960493
18.972368 80.25969 -21.407742
19.976216 80.802799 -20.390168
3.143122 75.261715 4.215312
3.141739 76.322056 5.623693
3.091042 75.650825 2.494185
3.143122 75.261715 4.215312
6.73658 69.384536 -31.982976
7.905836 69.484054 -31.581671
-2.191727 44.818493 -29.645293
-2.374039 42.860409 -28.784852
-2.378153 45.329842 -28.786133
1.675928 75.237526 29.444945
1.528396 73.936318 29.624308
11.893892 75.051384 -27.784382
10.402697 75.223217 -28.276167
11.174845 76.47308 -27.372559
11.893892 75.051384 -27.784382
13.412432 74.776794 -27.197416
-2.116163 53.242695 -26.078865
-2.320555 50.981044 -26.391178
29.799186 79.66005 -11.257237
29.019071 79.926582 -12.574289
28.129306 80.487076 -11.637347
31.380192 78.819885 -10.887193
29.799186 79.66005 -11.257237
32.268591 78.216698 -11.810287
31.380192 78.819885 -10.887193
24.904689 76.700336 13.782726
24.315182 76.347897 15.200637
24.532806 79.929322 6.574713
25.090828 79.07676 8.053898
25.750999 79.079422 6.644403
25.560722 81.913407 -8.548971
24.732608 82.266861 -7.411534
26.389211 81.47026 -9.632794
24.782741 82.287544 -9.936958
25.560722 81.913407 -8.548971
27.260325 81.032471 -10.670538
26.389211 81.47026 -9.632794
28.129306 80.487076 -11.637347
26.48021 81.299003 -11.98759
27.260325 81.032471 -10.670538
12.087078 73.181236 36.685148
11.333867 74.656475 35.612662
13.157893 72.733696 36.090888
12.087078 73.181236 36.685148
14.239402 72.220616 35.56477
13.496418 73.793988 34.523546
13.157893 72.733696 36.090888
31.64659 76.568325 -16.747737
32.484885 76.732925 -15.733373
2.092942 69.787139 24.962941
1.952013 68.725257 26.750689
1.863965 70.281242 26.586051
2.092942 69.787139 24.962941
2.2165 70.752601 23.195491
2.939666 79.668503 -3.398917
3.008077 79.37442 -1.664183
3.073748 80.843232 -2.020644
2.939666 79.668503 -3.398917
2.80719 79.8983 -5.097688
-0.520142 67.012024 -24.667154
-0.233778 68.88522 -23.863636
-0.786274 65.09552 -25.401081
-0.520142 67.012024 -24.667154
-0.602139 66.717087 -25.956806
-1.057618 63.117569 -26.069964
-0.786274 65.09552 -25.401081
-1.107095 62.777458 -27.285515
-1.296442 61.094444 -26.664745
-1.057618 63.117569 -26.069964
1.144305 39.897187 -32.920071
0.528108 40.553079 -32.857193
1.778899 39.145727 -32.911335
1.144305 39.897187 -32.920071
1.482868 41.552832 -33.331566
2.472011 38.480213 -32.84214
1.778899 39.145727 -32.911335
2.80327 40.032101 -33.209835
3.157819 37.710942 -32.729145
2.472011 38.480213 -32.84214
2.740314 78.544403 30.297625
2.982995 78.297028 31.874372
2.966227 79.618153 28.40065
2.487281 78.716801 28.717565
2.740314 78.544403 30.297625
3.877845 80.099022 29.602079
3.604 78.999111 31.495272
4.262586 79.652378 31.116641
16.087498 78.000675 -24.436153
15.306908 79.301293 -23.9638
17.013409 78.860119 -23.430527
15.143395 77.014878 -25.35646
16.087498 78.000675 -24.436153
26.468549 79.111389 5.312541
25.750999 79.079422 6.644403
25.909195 79.857769 3.824416
26.468549 79.111389 5.312541
27.184768 79.037174 3.971738
25.999852 80.468479 0.986096
24.664417 81.320407 0.827996
25.289979 80.635482 2.325513
25.999852 80.468479 0.986096
27.394917 79.643619 1.212884
17.116115 65.495594 39.286805
16.39399 67.214825 38.449944
18.117286 64.889938 38.756164
17.116115 65.495594 39.286805
19.118081 64.215809 38.284023
18.421158 65.931225 37.431934
18.117286 64.889938 38.756164
20.10389 63.576851 37.842132
19.118081 64.215809 38.284023
21.084373 62.870022 37.440928
20.402435 64.550266 36.558588
20.10389 63.576851 37.842132
2.618194 73.407284 17.800432
2.47902 72.561817 19.611781
2.431411 74.089562 19.378049
2.618194 73.407284 17.800432
2.723825 74.164314 16.018142
2.438575 80.363319 -10.169913
2.549843 80.252701 -8.485675
2.69484 81.65731 -8.864455
2.438575 80.363319 -10.169913
2.277454 80.428329 -11.815462
1.83386 79.059571 -14.684821
2.180599 80.436699 -13.460155
2.043123 80.407539 -15.062743
1.83386 79.059571 -14.684821
1.542209 77.574612 -15.872191
0.331851 71.06649 -20.130688
0.63088 72.785759 -19.145857
0.162675 70.903957 -21.576319
0.331851 71.06649 -20.130688
0.053234 70.693191 -23.000725
0.162675 70.903957 -21.576319
0.347459 72.4603 -22.072651
-0.048994 70.441563 -24.359968
-0.233778 68.88522 -23.863636
0.053234 70.693191 -23.000725
5.61919 69.126228 -32.28554
6.099253 70.725448 -31.585037
6.73658 69.384536 -31.982976
4.595895 68.773056 -32.523738
5.61919 69.126228 -32.28554
5.233222 67.432144 -32.921677
3.031465 64.663376 -33.718788
3.340723 66.44928 -33.230908
3.900669 65.293068 -33.647755
2.792928 62.775978 -34.136246
2.232982 63.93219 -33.719398
3.031465 64.663376 -33.718788
2.558746 60.910294 -34.459137
2.792928 62.775978 -34.136246
-2.359337 40.315428 -28.764716
-2.374039 42.860409 -28.784852
-2.359337 40.315428 -28.764716
-2.087985 39.777651 -29.520293
-0.976993 42.549063 -32.10888
-1.218824 40.653547 -31.430329
-1.375691 43.141784 -31.654692
-0.535803 41.893202 -32.460679
-0.976993 42.549063 -32.10888
-0.69267 44.381439 -32.685043
-0.021768 41.263723 -32.705463
-0.535803 41.893202 -32.460679
0.298397 43.014934 -33.188572
0.528108 40.553079 -32.857193
-0.021768 41.263723 -32.705463
25.512695 70.065509 23.356703
24.497652 70.853607 23.553585
25.083105 69.42995 24.798074
25.977741 70.724605 21.985703
25.512695 70.065509 23.356703
25.422669 72.05249 20.694246
25.977741 70.724605 21.985703
1.519906 69.571388 30.044972
1.589694 68.039936 30.134378
1.669836 70.7318 28.241197
1.519906 69.571388 30.044972
1.810765 71.793682 26.45345
1.863965 70.281242 26.586051
1.669836 70.7318 28.241197
1.97084 72.837303 24.627104
1.810765 71.793682 26.45345
1.776711 73.287861 26.282249
1.848499 76.510154 29.233519
2.152248 77.630852 28.986716
1.870557 76.346024 27.570318
1.675928 75.237526 29.444945
1.848499 76.510154 29.233519
2.704852 77.142994 15.522788
2.695746 75.681015 15.756942
2.579692 76.397007 17.332546
2.852661 77.87463 13.687932
2.704852 77.142994 15.522788
2.736608 78.590622 15.263535
2.952907 78.525482 11.886451
2.852661 77.87463 13.687932
3.076162 79.161892 10.063156
2.952907 78.525482 11.886451
3.007672 79.958668 11.605384
3.140889 79.720883 8.274726
3.086124 78.287697 8.555794
3.076162 79.161892 10.063156
9.739089 73.878662 -29.174853
9.020042 75.300358 -28.76303
10.402697 75.223217 -28.276167
9.060313 72.482399 -30.015055
9.739089 73.878662 -29.174853
8.490417 70.996376 -30.825434
7.786539 72.46978 -30.472094
9.060313 72.482399 -30.015055
7.905836 69.484054 -31.581671
8.490417 70.996376 -30.825434
-2.602866 46.282383 -26.807892
-2.462893 48.666095 -26.625436
-2.490607 45.804485 -27.828083
-2.602866 46.282383 -26.807892
-2.308295 47.762569 -28.688524
-2.378153 45.329842 -28.786133
-2.490607 45.804485 -27.828083
33.293703 76.740868 -14.606581
32.484885 76.732925 -15.733373
31.641053 77.646446 -14.994577
33.293703 76.740868 -14.606581
34.012375 76.715046 -13.485131
24.328636 74.706784 18.054686
24.862857 73.436451 19.39661
23.255207 75.57204 18.16386
24.328636 74.706784 18.054686
23.776226 76.021736 16.701606
25.506509 76.921696 12.332459
26.160868 77.173199 10.966074
24.382528 77.760673 12.358576
24.904689 76.700336 13.782726
25.506509 76.921696 12.332459
24.428491 78.954346 9.446259
25.646684 78.104446 9.515949
25.090828 79.07676 8.053898
23.972747 82.022514 -0.679239
23.262874 82.189517 0.660178
24.664417 81.320407 0.827996
23.272726 82.643367 -2.174142
23.972747 82.022514 -0.679239
24.674268 81.774258 -2.006324
24.742606 82.099072 -4.73558
25.443962 81.554157 -3.264995
23.198059 82.937191 -4.98037
24.742606 82.099072 -4.73558
23.966418 82.641152 -6.214724
5.282378 78.280777 33.99418
4.775597 78.997154 32.570442
6.174676 78.526851 33.4893
5.282378 78.280777 33.99418
7.102308 78.713734 33.01438
6.490087 79.628723 31.65613
6.174676 78.526851 33.4893
7.788528 77.614872 34.318817
8.476498 76.467038 35.5639
8.103939 78.716744 32.485647
7.102308 78.713734 33.01438
7.788528 77.614872 34.318817
11.672142 75.743344 33.894776
10.5911 76.09275 34.457773
11.333867 74.656475 35.612662
14.956527 70.58184 36.589325
15.689896 68.913826 37.521175
15.295052 71.642132 35.021984
14.239402 72.220616 35.56477
14.956527 70.58184 36.589325
22.063472 62.224705 37.079611
21.084373 62.870022 37.440928
22.356524 63.134804 35.819308
22.063472 62.224705 37.079611
22.66388 64.032562 34.486491
21.690273 64.741196 34.824566
22.356524 63.134804 35.819308
22.968004 64.880997 33.174612
22.66388 64.032562 34.486491
23.286719 65.708282 31.791994
22.316344 66.46624 32.109131
22.968004 64.880997 33.174612
23.60933 66.505173 30.435842
23.286719 65.708282 31.791994
23.949299 67.267429 29.013433
22.975028 68.055782 29.304104
23.60933 66.505173 30.435842
24.303856 68.020226 27.629881
23.949299 67.267429 29.013433
24.680388 68.72023 26.186512
23.69153 69.518044 26.438326
24.303856 68.020226 27.629881
25.083105 69.42995 24.798074
24.680388 68.72023 26.186512
26.385151 79.040897 -17.988264
24.58775 79.798488 -18.405634
25.547612 80.050789 -17.352739
26.385151 79.040897 -17.988264
28.178553 78.258069 -17.556142
29.922164 77.430722 -17.149143
31.64659 76.568325 -16.747737
1.829917 67.647628 28.496592
1.952013 68.725257 26.750689
2.360171 71.703087 21.391038
2.47902 72.561817 19.611781
3.102266 77.189876 2.132486
3.169748 78.292255 3.546237
3.125694 78.683403 1.808982
3.091042 75.650825 2.494185
3.102266 77.189876 2.132486
3.100186 79.065087 0.054661
3.008077 79.37442 -1.664183
2.707575 80.102989 -6.810107
2.549843 80.252701 -8.485675
-1.915358 55.440815 -25.699007
-1.660944 57.584129 -25.247204
-1.935267 55.065231 -26.882099
-2.116163 53.242695 -26.078865
-1.915358 55.440815 -25.699007
-1.54019 59.008842 -27.191269
-1.490713 59.348953 -25.975718
-1.296442 61.094444 -26.664745
2.391211 58.937035 -34.708798
1.82691 60.071533 -34.386516
2.558746 60.910294 -34.459137
2.234625 56.999786 -34.856304
2.391211 58.937035 -34.708798
2.144856 54.945778 -34.931964
1.569605 56.044266 -34.711838
2.234625 56.999786 -34.856304
2.737542 53.89949 -35.048046
3.365482 52.672855 -35.117866
2.072522 52.94397 -34.903579
2.144856 54.945778 -34.931964
2.737542 53.89949 -35.048046
4.625537 46.396133 -34.60051
3.975402 47.639408 -34.714734
4.658451 44.580225 -34.287487
4.625537 46.396133 -34.60051
4.80693 42.61047 -33.908703
4.15914 43.714113 -34.069367
4.658451 44.580225 -34.287487
5.449404 41.716276 -33.742325
4.950093 40.850164 -33.524204
4.80693 42.61047 -33.908703
3.89558 37.061575 -32.591458
3.157819 37.710942 -32.729145
3.89558 37.061575 -32.591458
4.187605 38.514447 -32.943085
3 1 332 334
3 334 333 85
3 332 333 334
3 0 88 86
3 1 91 89
3 1 85 91
3 2 95 93
3 4 335 336
3 4 337 339
3 337 96 338
3 337 338 339
3 3 99 97
3 5 102 100
3 5 104 102
3 5 106 104
3 6 109 107
3 6 111 109
3 8 114 112
3 8 116 114
3 9 119 117
3 11 122 120
3 11 124 122
3 11 126 124
3 340 129 341
3 342 341 127
3 340 341 342
3 344 343 129
3 13 133 131
3 15 136 134
3 15 138 136
3 16 141 139
3 16 143 141
3 16 145 143
3 17 150 148
3 17 152 150
3 7 345 347
3 347 346 153
3 345 346 347
3 14 156 154
3 18 159 157
3 18 161 159
3 10 164 162
3 19 167 165
3 19 169 167
3 19 348 350
3 350 349 169
3 348 349 350
3 20 171 170
3 20 173 171
3 12 176 174
3 21 179 177
3 21 181 179
3 21 183 181
3 22 185 184
3 22 187 185
3 351 188 352
3 24 189 87
3 24 190 189
3 25 193 191
3 27 194 90
3 27 195 194
3 27 197 195
3 353 198 354
3 355 354 92
3 353 354 355
3 357 356 198
3 29 201 199
3 31 202 94
3 31 203 202
3 358 204 359
3 361 360 204
3 363 362 205
3 33 208 206
3 35 209 98
3 35 210 209
3 36 213 211
3 38 214 101
3 38 215 214
3 38 364 366
3 366 365 215
3 364 365 366
3 39 367 369
3 369 368 103
3 367 368 369
3 39 370 371
3 39 372 374
3 372 216 373
3 372 373 374
3 40 217 105
3 40 218 217
3 41 221 219
3 375 222 376
3 378 377 222
3 43 379 381
3 381 380 108
3 379 380 381
3 43 382 383
3 43 384 385
3 44 223 110
3 44 224 223
3 46 386 387
3 46 388 390
3 388 226 389
3 388 389 390
3 23 391 393
3 391 227 392
3 391 392 393
3 47 228 113
3 47 229 228
3 47 230 229
3 48 231 115
3 48 232 231
3 49 235 233
3 51 236 118
3 51 237 236
3 26 238 192
3 52 239 121
3 52 240 239
3 52 241 240
3 53 242 123
3 53 243 242
3 53 245 243
3 55 246 125
3 55 247 246
3 28 248 196
3 56 249 128
3 56 250 249
3 56 251 250
3 57 394 396
3 394 252 395
3 394 395 396
3 57 253 252
3 58 256 254
3 397 257 398
3 399 398 130
3 397 398 399
3 401 400 257
3 60 260 258
3 62 261 132
3 62 262 261
3 30 263 200
3 63 264 135
3 63 265 264
3 63 266 265
3 64 267 137
3 64 268 267
3 402 269 403
3 404 403 225
3 402 403 404
3 65 405 407
3 405 270 406
3 405 406 407
3 65 271 270
3 408 272 409
3 66 273 140
3 66 274 273
3 66 275 274
3 67 276 142
3 67 277 276
3 67 278 277
3 68 279 144
3 68 280 279
3 410 281 411
3 69 412 414
3 412 282 413
3 412 413 414
3 69 283 282
3 69 284 283
3 58 285 146
3 58 254 285
3 415 286 416
3 417 287 418
3 419 418 286
3 417 418 419
3 70 288 147
3 70 289 288
3 32 420 422
3 420 290 421
3 420 421 422
3 71 291 149
3 71 292 291
3 71 293 292
3 72 294 151
3 72 295 294
3 59 423 425
3 425 424 255
3 423 424 425
3 45 426 428
3 426 427 428
3 61 296 259
3 73 297 155
3 73 298 297
3 34 299 207
3 74 300 158
3 74 301 300
3 74 302 301
3 75 303 160
3 75 304 303
3 50 305 234
3 76 306 163
3 76 307 306
3 37 308 212
3 77 309 166
3 77 310 309
3 77 311 310
3 78 312 168
3 78 313 312
3 78 429 431
3 431 430 313
3 429 430 431
3 432 314 433
3 79 315 172
3 79 316 315
3 54 317 244
3 80 318 175
3 80 319 318
3 42 320 220
3 81 321 178
3 81 322 321
3 81 323 322
3 82 324 180
3 82 325 324
3 82 326 325
3 83 327 182
3 83 328 327
3 434 329 435
3 436 330 437
3 438 437 329
3 436 437 438
3 439 331 440
3 441 440 330
3 439 440 441
3 84 442 444
3 444 443 186
3 442 443 444
3 84 445 447
3 445 446 447
3 85 448 449
3 451 450 85
3 86 452 454
3 452 87 453
3 452 453 454
3 88 87 86
3 88 24 87
3 89 90 25
3 91 90 89
3 91 27 90
3 91 92 27
3 85 92 91
3 85 455 457
3 457 456 92
3 455 456 457
3 93 94 29
3 95 94 93
3 95 31 94
3 96 458 459
3 96 460 461
3 97 98 33
3 99 98 97
3 99 35 98
3 100 101 36
3 102 101 100
3 102 38 101
3 102 103 38
3 104 103 102
3 104 39 103
3 104 105 39
3 106 105 104
3 106 40 105
3 463 462 41
3 107 464 466
3 464 108 465
3 464 465 466
3 109 108 107
3 109 43 108
3 109 110 43
3 111 110 109
3 111 44 110
3 467 46 468
3 112 113 23
3 114 113 112
3 114 47 113
3 114 115 47
3 116 115 114
3 116 48 115
3 117 118 49
3 119 118 117
3 119 51 118
3 120 121 26
3 122 121 120
3 122 52 121
3 122 123 52
3 124 123 122
3 124 53 123
3 124 125 53
3 126 125 124
3 126 55 125
3 127 128 28
3 129 128 127
3 129 56 128
3 129 469 471
3 471 470 56
3 469 470 471
3 473 472 129
3 474 57 475
3 476 130 477
3 478 477 58
3 476 477 478
3 479 130 480
3 482 481 130
3 131 132 60
3 133 132 131
3 133 62 132
3 134 135 30
3 136 135 134
3 136 63 135
3 136 137 63
3 138 137 136
3 138 64 137
3 483 65 484
3 139 485 487
3 485 140 486
3 485 486 487
3 141 140 139
3 141 66 140
3 141 142 66
3 143 142 141
3 143 67 142
3 143 144 67
3 145 144 143
3 145 68 144
3 488 69 489
3 490 146 491
3 492 491 69
3 490 491 492
3 493 146 494
3 495 58 496
3 497 496 146
3 495 496 497
3 498 147 499
3 500 147 501
3 502 70 503
3 504 503 147
3 502 503 504
3 148 149 32
3 150 149 148
3 150 71 149
3 150 151 71
3 152 151 150
3 152 72 151
3 506 505 59
3 153 507 509
3 509 508 45
3 507 508 509
3 511 510 153
3 154 155 61
3 156 155 154
3 156 73 155
3 157 158 34
3 159 158 157
3 159 74 158
3 159 160 74
3 161 160 159
3 161 75 160
3 162 163 50
3 164 163 162
3 164 76 163
3 165 166 37
3 167 166 165
3 167 77 166
3 167 168 77
3 169 168 167
3 169 78 168
3 169 512 514
3 514 513 78
3 512 513 514
3 516 515 169
3 170 517 518
3 171 519 521
3 521 520 170
3 519 520 521
3 171 522 523
3 171 524 526
3 524 172 525
3 524 525 526
3 173 172 171
3 173 79 172
3 174 175 54
3 176 175 174
3 176 80 175
3 177 178 42
3 179 178 177
3 179 81 178
3 179 180 81
3 181 180 179
3 181 82 180
3 181 182 82
3 183 182 181
3 183 83 182
3 184 527 528
3 185 529 531
3 531 530 184
3 529 530 531
3 185 532 533
3 185 534 536
3 534 186 535
3 534 535 536
3 187 186 185
3 187 84 186
3 188 537 538
3 188 539 541
3 539 23 540
3 539 540 541
3 87 542 544
3 542 188 543
3 542 543 544
3 189 188 87
3 189 23 188
3 189 112 23
3 190 112 189
3 190 8 112
3 191 192 9
3 193 192 191
3 193 26 192
3 90 193 25
3 194 193 90
3 194 26 193
3 194 120 26
3 195 120 194
3 195 11 120
3 195 196 11
3 197 196 195
3 197 28 196
3 92 197 27
3 198 197 92
3 198 28 197
3 198 127 28
3 545 127 546
3 547 546 198
3 545 546 547
3 549 548 127
3 199 200 13
3 201 200 199
3 201 30 200
3 94 201 29
3 202 201 94
3 202 30 201
3 202 134 30
3 203 134 202
3 203 15 134
3 550 139 551
3 204 552 554
3 552 139 553
3 552 553 554
3 204 16 139
3 204 555 557
3 557 556 16
3 555 556 557
3 559 558 204
3 560 32 561
3 562 32 563
3 564 148 565
3 566 565 32
3 564 565 566
3 567 148 568
3 569 17 570
3 571 570 148
3 569 570 571
3 205 572 574
3 574 573 7
3 572 573 574
3 576 575 205
3 206 207 14
3 208 207 206
3 208 34 207
3 98 208 33
3 209 208 98
3 209 34 208
3 209 157 34
3 210 157 209
3 210 18 157
3 211 212 10
3 213 212 211
3 213 37 212
3 101 213 36
3 214 213 101
3 214 37 213
3 214 165 37
3 215 165 214
3 215 19 165
3 215 577 579
3 579 578 19
3 577 578 579
3 581 580 215
3 103 582 584
3 584 583 38
3 582 583 584
3 586 585 103
3 216 587 588
3 216 589 590
3 105 216 39
3 217 216 105
3 217 591 593
3 593 592 216
3 591 592 593
3 217 594 596
3 594 170 595
3 594 595 596
3 218 170 217
3 218 20 170
3 219 220 12
3 221 220 219
3 221 42 220
3 597 221 598
3 599 598 41
3 597 598 599
3 222 600 602
3 600 221 601
3 600 601 602
3 222 42 221
3 222 177 42
3 603 177 604
3 605 604 222
3 603 604 605
3 606 21 607
3 608 607 177
3 606 607 608
3 610 609 21
3 108 611 612
3 614 613 108
3 110 615 617
3 617 616 43
3 615 616 617
3 223 618 620
3 620 619 110
3 618 619 620
3 223 621 622
3 223 623 625
3 623 184 624
3 623 624 625
3 224 184 223
3 224 22 184
3 626 225 627
3 628 627 2
3 626 627 628
3 629 225 630
3 632 631 225
3 633 45 634
3 635 45 636
3 637 153 638
3 639 638 45
3 637 638 639
3 226 640 642
3 640 153 641
3 640 641 642
3 226 7 153
3 227 643 644
3 227 645 647
3 645 46 646
3 645 646 647
3 113 227 23
3 228 227 113
3 228 46 227
3 228 226 46
3 229 226 228
3 229 7 226
3 229 205 7
3 230 205 229
3 230 648 650
3 650 649 205
3 648 649 650
3 115 230 47
3 231 230 115
3 231 651 653
3 653 652 230
3 651 652 653
3 231 654 655
3 232 656 658
3 658 657 231
3 656 657 658
3 232 659 661
3 659 4 660
3 659 660 661
3 233 234 3
3 235 234 233
3 235 50 234
3 118 235 49
3 236 235 118
3 236 50 235
3 236 162 50
3 237 162 236
3 237 10 162
3 192 119 9
3 238 119 192
3 238 51 119
3 121 238 26
3 239 238 121
3 239 51 238
3 239 237 51
3 240 237 239
3 240 10 237
3 240 211 10
3 241 211 240
3 241 36 211
3 123 241 52
3 242 241 123
3 242 36 241
3 242 100 36
3 243 100 242
3 243 5 100
3 243 244 5
3 245 244 243
3 245 54 244
3 125 245 53
3 246 245 125
3 246 54 245
3 246 174 54
3 247 174 246
3 247 12 174
3 196 126 11
3 248 126 196
3 248 55 126
3 128 248 28
3 249 248 128
3 249 55 248
3 249 247 55
3 250 247 249
3 250 12 247
3 250 219 12
3 251 219 250
3 251 41 219
3 662 251 663
3 664 663 56
3 662 663 664
3 665 251 666
3 667 41 668
3 669 668 251
3 667 668 669
3 671 670 41
3 252 672 673
3 252 674 675
3 252 676 678
3 676 107 677
3 676 677 678
3 253 107 252
3 253 6 107
3 254 255 1
3 256 255 254
3 256 59 255
3 130 256 58
3 257 256 130
3 257 59 256
3 257 679 681
3 681 680 59
3 679 680 681
3 683 682 257
3 258 259 0
3 260 259 258
3 260 61 259
3 132 260 60
3 261 260 132
3 261 61 260
3 261 154 61
3 262 154 261
3 262 14 154
3 200 133 13
3 263 133 200
3 263 62 133
3 135 263 30
3 264 263 135
3 264 62 263
3 264 262 62
3 265 262 264
3 265 14 262
3 265 206 14
3 266 206 265
3 266 33 206
3 137 266 63
3 267 266 137
3 267 33 266
3 267 97 33
3 268 97 267
3 268 3 97
3 225 95 2
3 269 95 225
3 269 31 95
3 684 269 685
3 270 686 688
3 686 269 687
3 686 687 688
3 270 31 269
3 270 203 31
3 271 203 270
3 271 15 203
3 272 689 690
3 272 691 693
3 691 65 692
3 691 692 693
3 140 694 696
3 694 272 695
3 694 695 696
3 273 272 140
3 273 65 272
3 273 271 65
3 274 271 273
3 274 15 271
3 274 138 15
3 275 138 274
3 275 64 138
3 142 275 66
3 276 275 142
3 276 64 275
3 276 268 64
3 277 268 276
3 277 3 268
3 277 233 3
3 278 233 277
3 278 49 233
3 144 278 67
3 279 278 144
3 279 49 278
3 279 117 49
3 280 117 279
3 280 9 117
3 697 145 698
3 699 698 16
3 697 698 699
3 281 700 702
3 700 145 701
3 700 701 702
3 281 68 145
3 703 281 704
3 282 705 707
3 705 281 706
3 705 706 707
3 282 68 281
3 282 280 68
3 283 280 282
3 283 9 280
3 283 191 9
3 284 191 283
3 284 25 191
3 146 284 69
3 285 284 146
3 285 25 284
3 285 89 25
3 254 89 285
3 254 1 89
3 708 86 709
3 710 86 711
3 712 0 713
3 714 713 86
3 712 713 714
3 286 715 716
3 286 717 719
3 717 0 718
3 717 718 719
3 286 258 0
3 287 258 286
3 287 60 258
3 147 720 722
3 720 287 721
3 720 721 722
3 288 287 147
3 288 60 287
3 288 131 60
3 289 131 288
3 289 13 131
3 290 723 724
3 290 725 727
3 725 70 726
3 725 726 727
3 149 290 32
3 291 290 149
3 291 70 290
3 291 289 70
3 292 289 291
3 292 13 289
3 292 199 13
3 293 199 292
3 293 29 199
3 151 293 71
3 294 293 151
3 294 29 293
3 294 93 29
3 295 93 294
3 295 2 93
3 728 17 729
3 730 17 731
3 732 152 733
3 734 733 17
3 732 733 734
3 735 152 736
3 737 72 738
3 739 738 152
3 737 738 739
3 740 72 741
3 742 295 743
3 744 743 72
3 742 743 744
3 745 295 746
3 747 2 748
3 749 748 295
3 747 748 749
3 751 750 2
3 255 752 754
3 754 753 1
3 752 753 754
3 756 755 255
3 758 757 59
3 760 759 45
3 762 761 7
3 259 88 0
3 296 88 259
3 296 24 88
3 155 296 61
3 297 296 155
3 297 24 296
3 297 190 24
3 298 190 297
3 298 8 190
3 207 156 14
3 299 156 207
3 299 73 156
3 158 299 34
3 300 299 158
3 300 73 299
3 300 298 73
3 301 298 300
3 301 8 298
3 301 116 8
3 302 116 301
3 302 48 116
3 160 302 74
3 303 302 160
3 303 48 302
3 303 232 48
3 304 232 303
3 304 4 232
3 234 99 3
3 305 99 234
3 305 35 99
3 163 305 50
3 306 305 163
3 306 35 305
3 306 210 35
3 307 210 306
3 307 18 210
3 212 164 10
3 308 164 212
3 308 76 164
3 166 308 37
3 309 308 166
3 309 76 308
3 309 307 76
3 310 307 309
3 310 18 307
3 310 161 18
3 311 161 310
3 311 75 161
3 168 311 77
3 312 311 168
3 312 75 311
3 312 304 75
3 313 304 312
3 313 4 304
3 313 96 4
3 763 96 764
3 765 764 313
3 763 764 765
3 767 766 96
3 769 768 78
3 771 770 19
3 314 772 773
3 314 774 776
3 774 57 775
3 774 775 776
3 172 777 779
3 777 314 778
3 777 778 779
3 315 314 172
3 315 57 314
3 315 253 57
3 316 253 315
3 316 6 253
3 244 106 5
3 317 106 244
3 317 40 106
3 175 317 54
3 318 317 175
3 318 40 317
3 318 218 40
3 319 218 318
3 319 20 218
3 220 176 12
3 320 176 220
3 320 80 176
3 178 320 42
3 321 320 178
3 321 80 320
3 321 319 80
3 322 319 321
3 322 20 319
3 322 173 20
3 323 173 322
3 323 79 173
3 180 323 81
3 324 323 180
3 324 79 323
3 324 316 79
3 325 316 324
3 325 6 316
3 325 111 6
3 326 111 325
3 326 44 111
3 182 326 82
3 327 326 182
3 327 44 326
3 327 224 44
3 328 224 327
3 328 22 224
3 780 183 781
3 782 781 21
3 780 781 782
3 783 183 784
3 785 83 786
3 787 786 183
3 785 786 787
3 329 788 789
3 329 790 792
3 790 83 791
3 790 791 792
3 329 328 83
3 330 328 329
3 330 22 328
3 330 187 22
3 331 187 330
3 331 84 187
3 793 331 794
3 795 331 796
3 797 84 798
3 799 798 331
3 797 798 799
3 802 801 84
3 800 801 802
3 186 803 804
3 806 805 186
