ply
format ascii 1.0
element vertex 421
property float x
property float y
property float z
element face 465
property list uchar int vertex_index
end_header
-41.798634 -31.329998 13.8415
-61.900928 -26.686428 -1.258465
-46.781338 -20.386074 -1.312229
-57.157112 -43.890232 12.925845
-49.361092 -31.904053 5.432495
-54.145748 -23.138411 -0.305429
-42.659241 -26.720022 6.90132
-48.024487 -38.417442 12.196864
-58.475807 -36.340179 4.606539
-58.262611 -13.448835 -7.171316
-50.705627 -12.07436 -10.388014
-66.627396 -41.850899 6.249184
-44.363514 -32.747383 9.678873
-45.64782 -29.556152 6.380133
-41.584366 -29.303324 10.569099
-44.433163 -35.199921 12.940783
-48.050037 -35.59436 8.651962
-66.290817 -24.503754 -4.022396
-63.529018 -21.698946 -3.680395
-50.316528 -21.926119 -0.50862
-56.496765 -18.408571 -3.442852
-52.660053 -17.592731 -4.395256
-54.538231 -12.809087 -8.688961
-48.922939 -16.526711 -5.77117
-61.684921 -46.745647 14.082792
-62.191612 -43.102417 9.450691
-60.058197 -31.646709 1.385838
-64.184425 -34.20919 1.686685
-65.362694 -29.355476 -1.351751
-55.712971 -29.507465 1.763669
-58.060993 -24.635185 -0.738565
-51.582253 -27.667133 2.530345
-47.819878 -25.902664 3.031682
-44.557281 -23.745901 2.926353
-52.392441 -41.216858 12.167873
-57.462391 -40.499275 8.495604
-52.526798 -38.094795 8.148239
-53.712269 -34.094025 4.655773
-60.186455 -19.674494 -3.299179
-63.067299 -38.85675 5.282812
-42.733566 -32.337528 11.83045
-42.855804 -31.118221 10.177991
-41.507191 -30.400955 12.262399
-42.989182 -33.360123 13.414003
-44.209293 -34.084503 11.320089
-64.412308 -25.463284 -2.641352
-65.002571 -23.008198 -3.884562
-62.773609 -24.183756 -2.465847
-48.496628 -21.247795 -0.866531
-51.530968 -19.810501 -2.402035
-49.665981 -19.259775 -2.934612
-50.762737 -17.147137 -5.07748
-47.882908 -18.52696 -3.517826
-59.49807 -45.279083 13.48561
-61.882935 -45.01265 11.719297
-59.628223 -43.616219 11.156025
-60.974312 -29.183578 0.007732
-62.950218 -30.420668 -0.019646
-63.709118 -27.942944 -1.37204
-65.881516 -26.915791 -2.712559
-52.455208 -30.833508 3.507326
-53.607662 -28.559612 2.137994
-50.391052 -29.834665 3.952561
-44.056473 -28.226938 6.713692
-46.658295 -27.774036 4.719073
-45.012554 -26.614164 4.908518
-46.114548 -24.913458 3.048917
-43.537525 -25.277519 4.948912
-50.129051 -39.852715 12.074404
-52.32209 -39.779984 10.10603
-50.008759 -38.490433 10.142714
-48.561943 -33.83799 6.99589
-50.697933 -35.031685 6.574517
-51.464401 -33.004284 4.978396
-54.635143 -31.853809 3.140942
-56.10231 -23.827238 -0.468904
-59.184723 -22.158976 -1.978769
-57.297157 -21.406082 -1.817888
-57.467106 -15.960117 -5.222549
-59.286682 -16.478662 -4.884275
-60.009926 -13.968779 -6.682699
-60.532032 -11.428505 -8.68508
-58.871063 -10.876105 -9.293303
-52.619534 -12.509777 -9.566864
-66.241302 -44.040092 8.337446
-57.886581 -38.502594 6.471265
-60.314857 -39.727283 6.827744
-60.844032 -37.550293 4.876603
-66.377975 -33.315147 0.345636
-65.93576 -35.68544 2.022873
-46.612427 -32.579399 7.512151
-47.41925 -30.766319 5.930099
-44.860802 -31.22514 8.031013
-43.315536 -29.736938 8.470127
-41.987095 -28.067646 8.777747
-46.117363 -36.876522 12.506906
-47.864193 -37.13208 10.393019
-45.92395 -35.673058 10.811157
-46.098236 -34.228653 9.140522
-65.429047 -20.600632 -5.169481
-52.209373 -22.526636 -0.311694
-55.376495 -20.799109 -1.814381
-53.445194 -20.291426 -2.01071
-54.582336 -17.979479 -3.826164
-55.585052 -15.580343 -5.774212
-56.429401 -13.088165 -7.860117
-53.670387 -15.260624 -6.491919
-51.755081 -14.898102 -7.290554
-49.871292 -14.375799 -8.063707
-63.874081 -46.515076 12.289627
-64.210312 -44.560196 10.001756
-64.602325 -42.474281 7.821025
-59.21022 -34.043602 2.912386
-61.477108 -35.254128 3.086132
-62.19072 -32.867668 1.457767
-64.782356 -31.795483 0.104684
-58.932354 -28.076607 0.189475
-60.003178 -25.584949 -1.0289
-56.879444 -27.091482 0.4879
-54.848724 -26.216206 0.830163
-52.85873 -25.429527 1.126712
-48.45562 -28.828575 4.384035
-49.648758 -26.797838 2.850644
-50.923546 -24.694521 1.297454
-49.06102 -23.953564 1.296495
-47.295856 -23.127386 1.126496
-45.65699 -22.119936 0.837831
-54.759365 -42.548985 12.466173
-57.21582 -42.302643 10.657327
-54.749512 -41.037304 10.288298
-54.971287 -39.29118 8.219267
-55.416412 -37.334198 6.291118
-50.202873 -36.873371 8.300312
-52.997261 -36.187721 6.325408
-56.06958 -35.197487 4.525395
-56.903698 -32.917217 2.92944
-57.876812 -30.531406 1.493541
-40.871815 -29.082378 14.156003
-61.018646 -23.082064 -2.222431
-61.91312 -20.586199 -3.460667
-62.633987 -18.108852 -4.813684
-58.373371 -18.957003 -3.273737
-61.017025 -17.186687 -4.761282
-45.198421 -19.231279 -1.748085
-46.209908 -17.497705 -4.045454
-47.169365 -15.614933 -6.367205
-48.049141 -13.576836 -8.703979
-48.829205 -11.386551 -11.049812
-59.905273 -41.757759 8.927691
-62.591591 -41.041977 7.299557
-65.030884 -40.284843 5.760192
-63.604218 -36.571121 3.410837
-65.480438 -38.015106 3.8267
-66.999542 -39.60025 4.272516
-42.393908 -32.345061 13.627751
-42.736197 -32.711043 14.351583
-42.140923 -31.69598 14.565331
-57.22715 -44.567657 14.095652
-56.081691 -43.850886 13.820241
-58.327591 -44.584657 13.205728
-58.397629 -45.262083 14.375535
-57.22715 -44.567657 14.095652
-48.279284 -38.923614 13.11424
-47.355391 -38.116024 13.199122
-49.076769 -39.135079 12.135634
-49.331566 -39.641251 13.053009
-48.279284 -38.923614 13.11424
-52.02248 -11.032392 -11.143884
-52.979433 -11.250101 -10.733309
-51.662581 -12.292068 -9.977439
-51.057659 -10.853831 -11.563946
-52.02248 -11.032392 -11.143884
-67.19917 -42.704391 6.478568
-67.006123 -43.798988 7.522699
-66.434349 -42.945495 7.293315
-67.351769 -41.590502 5.474849
-67.19917 -42.704391 6.478568
-67.010818 -34.149696 0.498685
-67.130783 -32.981625 -0.327936
-44.741062 -35.633036 13.73022
-44.037812 -34.678452 13.925719
-45.275263 -36.038222 12.723845
-45.583163 -36.471336 13.513282
-44.741062 -35.633036 13.73022
-66.418244 -23.324967 -4.680915
-66.856243 -24.185884 -4.736857
-63.821378 -20.474311 -4.327343
-64.771393 -19.925154 -5.071886
-64.479033 -21.149789 -4.424938
-61.652559 -47.509234 15.298638
-60.608413 -46.735121 14.98384
-62.651228 -47.526073 14.37478
-61.652559 -47.509234 15.298638
-62.779501 -46.630361 13.18621
-63.745808 -47.410787 13.478198
-62.651228 -47.526073 14.37478
-66.072201 -30.139871 -1.283327
-65.782032 -31.359875 -0.55511
-65.072525 -30.57548 -0.623533
-66.238652 -28.945317 -2.014885
-66.072201 -30.139871 -1.283327
-66.815384 -25.338617 -4.048768
-66.610734 -26.544636 -3.393849
-66.086167 -25.709772 -3.367477
-66.856243 -24.185884 -4.736857
-66.815384 -25.338617 -4.048768
-52.566067 -41.803694 13.231552
-51.478601 -41.079968 13.113485
-53.575903 -41.882922 12.317023
-53.749529 -42.469758 13.380702
-52.566067 -41.803694 13.231552
-61.33151 -15.941987 -5.58754
-60.151854 -16.832674 -4.822779
-60.466339 -15.587974 -5.649037
-62.082251 -16.421726 -5.552147
-61.33151 -15.941987 -5.58754
-55.819754 -11.657458 -9.384588
-56.765338 -11.796997 -8.970166
-55.483816 -12.948626 -8.274539
-40.705342 -28.661886 13.35924
-40.542648 -27.837099 14.237293
-44.482185 -18.45833 -1.912326
-44.026817 -19.19626 -0.751155
-44.987928 -17.591543 -3.061011
-45.704165 -18.364492 -2.89677
-44.482185 -18.45833 -1.912326
-46.346685 -14.962687 -6.568976
-45.917915 -15.843281 -5.393322
-46.786574 -13.943638 -7.737362
-47.609253 -14.595885 -7.535592
-46.346685 -14.962687 -6.568976
-47.925083 -10.864964 -11.259415
-47.571825 -11.892907 -10.085908
-49.162092 -10.221589 -12.226561
-47.925083 -10.864964 -11.259415
-66.4118 -37.660755 3.117182
-65.708099 -36.850273 2.924787
-66.639462 -36.495922 2.215268
-67.171353 -38.453327 3.34009
-66.23999 -38.807678 4.049608
-66.4118 -37.660755 3.117182
-67.661793 -39.337188 3.531281
-67.171353 -38.453327 3.34009
-43.315821 -33.758553 14.162329
-42.736197 -32.711043 14.351583
-43.711173 -34.280022 13.177393
-44.037812 -34.678452 13.925719
-43.315821 -33.758553 14.162329
-59.514988 -46.001839 14.685249
-58.397629 -45.262083 14.375535
-60.591496 -46.012365 13.784201
-60.608413 -46.735121 14.98384
-59.514988 -46.001839 14.685249
-50.346907 -40.397896 13.06675
-49.331566 -39.641251 13.053009
-51.260746 -40.534787 12.121139
-51.478601 -41.079968 13.113485
-50.346907 -40.397896 13.06675
-60.827961 -14.333033 -6.548249
-60.466339 -15.587974 -5.649037
-59.648304 -15.22372 -5.783487
-61.036072 -13.088682 -7.484977
-60.827961 -14.333033 -6.548249
-61.297125 -11.818545 -8.486167
-61.036072 -13.088682 -7.484977
-60.270979 -12.698642 -7.683889
-61.401823 -10.577405 -9.538616
-61.297125 -11.818545 -8.486167
-60.693587 -10.146899 -9.788187
-61.401823 -10.577405 -9.538616
-59.863102 -9.8707 -10.092299
-60.693587 -10.146899 -9.788187
-59.701548 -11.152305 -8.989192
-59.080551 -9.564066 -10.437496
-59.863102 -9.8707 -10.092299
-53.933594 -11.376624 -10.273129
-54.892943 -11.526279 -9.834177
-53.578883 -12.659432 -9.127913
-53.933594 -11.376624 -10.273129
-52.979433 -11.250101 -10.733309
-66.832439 -44.889831 8.576022
-66.050133 -45.091942 9.435318
-66.832439 -44.889831 8.576022
-67.006123 -43.798988 7.522699
-66.78971 -35.334843 1.337303
-66.156868 -34.500293 1.184254
-67.010818 -34.149696 0.498685
-66.639462 -36.495922 2.215268
-66.78971 -35.334843 1.337303
-46.401829 -37.345564 13.354143
-45.583163 -36.471336 13.513282
-47.070925 -37.646982 12.351885
-47.355391 -38.116024 13.199122
-46.401829 -37.345564 13.354143
-65.774121 -22.577188 -4.611998
-66.418244 -23.324967 -4.680915
-65.646694 -23.755976 -3.953479
-65.987358 -21.373406 -5.254458
-65.774121 -22.577188 -4.611998
-65.215809 -21.804415 -4.527022
-66.020798 -20.23391 -5.949965
-65.987358 -21.373406 -5.254458
-65.542419 -19.429725 -5.868341
-66.020798 -20.23391 -5.949965
-65.542419 -19.429725 -5.868341
-64.771393 -19.925154 -5.071886
-64.688536 -47.322831 12.558591
-63.745808 -47.410787 13.478198
-64.866522 -46.329434 11.411409
-64.688536 -47.322831 12.558591
-65.034638 -45.351993 10.267473
-64.866522 -46.329434 11.411409
-64.042197 -45.537636 11.145691
-65.225807 -44.300144 9.169601
-66.050133 -45.091942 9.435318
-65.034638 -45.351993 10.267473
-66.579842 -32.119707 -0.434634
-65.580165 -32.555315 0.22516
-65.782032 -31.359875 -0.55511
-67.130783 -32.981625 -0.327936
-66.579842 -32.119707 -0.434634
-66.498063 -27.725474 -2.695289
-66.238652 -28.945317 -2.014885
-65.622105 -28.135633 -2.032155
-66.498063 -27.725474 -2.695289
-66.610734 -26.544636 -3.393849
-54.882818 -43.180262 13.590405
-53.749529 -42.469758 13.380702
-55.958239 -43.219608 12.696009
-56.081691 -43.850886 13.820241
-54.882818 -43.180262 13.590405
-41.22811 -29.41997 14.867597
-41.335224 -30.206188 13.998752
-41.691519 -30.543781 14.710345
-40.912645 -28.152619 14.941644
-41.22811 -29.41997 14.867597
-40.542648 -27.837099 14.237293
-40.912645 -28.152619 14.941644
-41.691519 -30.543781 14.710345
-42.140923 -31.69598 14.565331
-63.01343 -19.917938 -4.217479
-63.821378 -20.474311 -4.327343
-62.721069 -21.142572 -3.570531
-63.373863 -18.679264 -4.893987
-63.01343 -19.917938 -4.217479
-62.273553 -19.347525 -4.137175
-63.562934 -17.478579 -5.615286
-63.373863 -18.679264 -4.893987
-62.890732 -16.882809 -5.578348
-61.825506 -17.647769 -4.787483
-62.082251 -16.421726 -5.552147
-63.562934 -17.478579 -5.615286
-62.890732 -16.882809 -5.578348
-57.98617 -10.690967 -9.686758
-57.650232 -11.982135 -8.57671
-56.765338 -11.796997 -8.970166
-59.080551 -9.564066 -10.437496
-57.98617 -10.690967 -9.686758
-55.819754 -11.657458 -9.384588
-54.892943 -11.526279 -9.834177
-41.023029 -29.321174 12.412437
-41.189503 -29.741667 13.209201
-40.705342 -28.661886 13.35924
-41.061617 -28.772359 11.565787
-41.545778 -29.852139 11.415749
-41.023029 -29.321174 12.412437
-41.071377 -28.281841 10.693298
-41.061617 -28.772359 11.565787
-41.272741 -27.664003 9.797622
-41.78573 -28.685485 9.673423
-41.071377 -28.281841 10.693298
-41.437207 -27.115631 8.859876
-41.272741 -27.664003 9.797622
-41.77328 -26.441819 7.921663
-42.323168 -27.393834 7.839533
-41.437207 -27.115631 8.859876
-42.065644 -25.844475 6.928902
-41.77328 -26.441819 7.921663
-42.504785 -25.123223 5.952699
-43.098383 -25.99877 5.925116
-42.065644 -25.844475 6.928902
-42.895569 -24.480981 4.914186
-42.504785 -25.123223 5.952699
-43.405447 -23.715173 3.902906
-44.047403 -24.51171 3.937633
-42.895569 -24.480981 4.914186
-43.864777 -23.026992 2.826712
-43.405447 -23.715173 3.902906
-44.414631 -22.214009 1.782451
-45.107135 -22.932918 1.882092
-43.864777 -23.026992 2.826712
-44.914028 -21.4745 0.675684
-44.414631 -22.214009 1.782451
-45.476202 -20.607568 -0.399346
-46.219164 -21.253005 -0.237199
-44.914028 -21.4745 0.675684
-44.684744 -20.030171 -0.617274
-44.026817 -19.19626 -0.751155
-45.98988 -19.808677 -1.530157
-45.476202 -20.607568 -0.399346
-44.684744 -20.030171 -0.617274
-45.438187 -16.784667 -4.232447
-44.987928 -17.591543 -3.061011
-46.689636 -16.556319 -5.20633
-45.438187 -16.784667 -4.232447
-45.917915 -15.843281 -5.393322
-47.181793 -12.988049 -8.912992
-46.786574 -13.943638 -7.737362
-48.439173 -12.481694 -9.876895
-47.181793 -12.988049 -8.912992
-47.571825 -11.892907 -10.085908
-50.119448 -10.509926 -11.894845
-51.057659 -10.853831 -11.563946
-49.767416 -11.730456 -10.718913
-50.119448 -10.509926 -11.894845
-49.162092 -10.221589 -12.226561
-67.537842 -40.465178 4.486515
-67.351769 -41.590502 5.474849
-66.813469 -40.725575 5.26085
-67.537842 -40.465178 4.486515
-67.661793 -39.337188 3.531281
3 0 42 40
3 0 154 156
3 154 43 155
3 154 155 156
3 0 40 43
3 1 47 45
3 2 50 48
3 2 52 50
3 3 157 158
3 3 159 161
3 159 53 160
3 159 160 161
3 3 55 53
3 1 58 56
3 1 45 58
3 4 62 60
3 6 65 63
3 6 67 65
3 7 162 163
3 7 164 166
3 164 68 165
3 164 165 166
3 7 70 68
3 4 73 71
3 4 60 73
3 5 77 75
3 9 80 78
3 9 81 80
3 9 82 81
3 10 167 169
3 169 168 83
3 167 168 169
3 10 170 171
3 11 172 174
3 174 173 84
3 172 173 174
3 11 175 176
3 8 87 85
3 178 177 88
3 12 92 90
3 14 93 41
3 14 94 93
3 15 179 180
3 15 181 183
3 181 95 182
3 181 182 183
3 15 97 95
3 12 98 44
3 12 90 98
3 17 184 185
3 18 99 46
3 18 186 188
3 188 187 99
3 186 187 188
3 19 102 100
3 21 103 49
3 21 104 103
3 21 106 104
3 23 107 51
3 23 108 107
3 24 189 190
3 24 191 192
3 24 193 195
3 193 109 194
3 193 194 195
3 25 110 54
3 25 111 110
3 26 114 112
3 28 115 57
3 28 196 198
3 198 197 115
3 196 197 198
3 28 199 200
3 17 201 203
3 203 202 59
3 201 202 203
3 17 204 205
3 29 118 116
3 31 119 61
3 31 120 119
3 13 121 91
3 32 122 64
3 32 123 122
3 32 124 123
3 33 125 66
3 33 126 125
3 34 206 207
3 34 208 210
3 208 127 209
3 208 209 210
3 34 129 127
3 36 130 69
3 36 131 130
3 16 132 96
3 37 133 72
3 37 134 133
3 37 135 134
3 29 136 74
3 29 116 136
3 30 138 117
3 38 139 76
3 38 140 139
3 20 141 101
3 211 142 212
3 213 212 79
3 211 212 213
3 215 214 142
3 22 216 218
3 218 217 105
3 216 217 218
3 220 219 137
3 221 143 222
3 223 144 224
3 225 224 143
3 223 224 225
3 226 145 227
3 228 146 229
3 230 229 145
3 228 229 230
3 231 147 232
3 234 233 147
3 35 148 128
3 39 149 86
3 39 150 149
3 27 151 113
3 235 152 236
3 237 236 89
3 235 236 237
3 238 153 239
3 240 239 152
3 238 239 240
3 242 241 153
3 40 41 12
3 42 41 40
3 42 14 41
3 43 243 244
3 43 245 247
3 245 15 246
3 245 246 247
3 43 44 15
3 40 44 43
3 40 12 44
3 45 46 17
3 47 46 45
3 47 18 46
3 48 49 19
3 50 49 48
3 50 21 49
3 50 51 21
3 52 51 50
3 52 23 51
3 53 248 249
3 53 250 252
3 250 24 251
3 250 251 252
3 53 54 24
3 55 54 53
3 55 25 54
3 56 57 26
3 58 57 56
3 58 28 57
3 58 59 28
3 45 59 58
3 45 17 59
3 60 61 29
3 62 61 60
3 62 31 61
3 63 64 13
3 65 64 63
3 65 32 64
3 65 66 32
3 67 66 65
3 67 33 66
3 68 253 254
3 68 255 257
3 255 34 256
3 255 256 257
3 68 69 34
3 70 69 68
3 70 36 69
3 71 72 16
3 73 72 71
3 73 37 72
3 73 74 37
3 60 74 73
3 60 29 74
3 75 76 30
3 77 76 75
3 77 38 76
3 78 79 20
3 80 79 78
3 80 258 260
3 260 259 79
3 258 259 260
3 80 261 262
3 81 263 265
3 265 264 80
3 263 264 265
3 81 266 267
3 81 268 269
3 82 270 272
3 272 271 81
3 270 271 272
3 82 273 274
3 83 275 277
3 277 276 22
3 275 276 277
3 279 278 83
3 84 280 281
3 283 282 84
3 85 86 35
3 87 86 85
3 87 39 86
3 88 89 27
3 284 89 285
3 286 285 88
3 284 285 286
3 288 287 89
3 90 91 4
3 92 91 90
3 92 13 91
3 41 92 12
3 93 92 41
3 93 13 92
3 93 63 13
3 94 63 93
3 94 6 63
3 95 289 290
3 95 291 293
3 291 7 292
3 291 292 293
3 95 96 7
3 97 96 95
3 97 16 96
3 44 97 15
3 98 97 44
3 98 16 97
3 98 71 16
3 90 71 98
3 90 4 71
3 46 294 296
3 296 295 17
3 294 295 296
3 99 297 299
3 299 298 46
3 297 298 299
3 99 300 301
3 99 302 303
3 305 304 99
3 100 101 5
3 102 101 100
3 102 20 101
3 49 102 19
3 103 102 49
3 103 20 102
3 103 78 20
3 104 78 103
3 104 9 78
3 104 105 9
3 106 105 104
3 106 22 105
3 51 106 21
3 107 106 51
3 107 22 106
3 107 83 22
3 108 83 107
3 108 10 83
3 109 306 307
3 109 308 309
3 54 109 24
3 110 109 54
3 110 310 312
3 312 311 109
3 310 311 312
3 110 313 315
3 313 84 314
3 313 314 315
3 111 84 110
3 111 11 84
3 112 113 8
3 114 113 112
3 114 27 113
3 57 114 26
3 115 114 57
3 115 27 114
3 115 88 27
3 316 88 317
3 318 317 115
3 316 317 318
3 320 319 88
3 59 321 323
3 323 322 28
3 321 322 323
3 325 324 59
3 116 117 1
3 118 117 116
3 118 30 117
3 61 118 29
3 119 118 61
3 119 30 118
3 119 75 30
3 120 75 119
3 120 5 75
3 91 62 4
3 121 62 91
3 121 31 62
3 64 121 13
3 122 121 64
3 122 31 121
3 122 120 31
3 123 120 122
3 123 5 120
3 123 100 5
3 124 100 123
3 124 19 100
3 66 124 32
3 125 124 66
3 125 19 124
3 125 48 19
3 126 48 125
3 126 2 48
3 127 326 327
3 127 328 330
3 328 3 329
3 328 329 330
3 127 128 3
3 129 128 127
3 129 35 128
3 69 129 34
3 130 129 69
3 130 35 129
3 130 85 35
3 131 85 130
3 131 8 85
3 96 70 7
3 132 70 96
3 132 36 70
3 72 132 16
3 133 132 72
3 133 36 132
3 133 131 36
3 134 131 133
3 134 8 131
3 134 112 8
3 135 112 134
3 135 26 112
3 74 135 37
3 136 135 74
3 136 26 135
3 136 56 26
3 116 56 136
3 116 1 56
3 331 137 332
3 333 332 0
3 331 332 333
3 334 137 335
3 337 336 137
3 338 0 339
3 117 47 1
3 138 47 117
3 138 18 47
3 76 138 30
3 139 138 76
3 139 18 138
3 139 340 342
3 342 341 18
3 340 341 342
3 140 343 345
3 345 344 139
3 343 344 345
3 140 346 347
3 101 77 5
3 141 77 101
3 141 38 77
3 79 141 20
3 142 141 79
3 142 38 141
3 142 140 38
3 348 140 349
3 350 349 142
3 348 349 350
3 352 351 140
3 105 82 9
3 353 82 354
3 355 354 105
3 353 354 355
3 357 356 82
3 359 358 22
3 137 42 0
3 360 42 361
3 362 361 137
3 360 361 362
3 363 14 364
3 365 364 42
3 363 364 365
3 366 14 367
3 368 94 369
3 370 369 14
3 368 369 370
3 371 94 372
3 373 6 374
3 375 374 94
3 373 374 375
3 376 6 377
3 378 67 379
3 380 379 6
3 378 379 380
3 381 67 382
3 383 33 384
3 385 384 67
3 383 384 385
3 386 33 387
3 388 126 389
3 390 389 33
3 388 389 390
3 391 126 392
3 393 2 394
3 395 394 126
3 393 394 395
3 143 396 397
3 143 398 400
3 398 2 399
3 398 399 400
3 143 52 2
3 144 52 143
3 144 23 52
3 401 144 402
3 145 403 405
3 403 144 404
3 403 404 405
3 145 23 144
3 145 108 23
3 146 108 145
3 146 10 108
3 406 146 407
3 147 408 410
3 408 146 409
3 408 409 410
3 147 10 146
3 147 411 413
3 413 412 10
3 411 412 413
3 415 414 147
3 128 55 3
3 148 55 128
3 148 25 55
3 86 148 35
3 149 148 86
3 149 25 148
3 149 111 25
3 150 111 149
3 150 11 111
3 113 87 8
3 151 87 113
3 151 39 87
3 89 151 27
3 152 151 89
3 152 39 151
3 152 150 39
3 153 150 152
3 153 11 150
3 153 416 418
3 418 417 11
3 416 417 418
3 420 419 153
