ply
format ascii 1.0
element vertex 350
property float x
property float y
property float z
element face 275
property list uchar int vertex_index
end_header
5.171001 26.621136 -30.179827
-4.670412 39.688534 -14.200459
8.688526 25.002655 -29.800325
-3.441458 50.145958 -6.92811
-2.306288 49.692497 12.117985
-2.988646 50.854851 5.759041
4.910862 18.410606 -28.523306
8.852549 17.110886 -28.194517
12.878061 16.241657 -28.213964
-4.291563 26.80341 -20.059015
-3.376993 50.972878 -0.648504
-3.007002 24.313438 -24.119432
-1.179867 22.074032 -26.988348
1.463388 20.089172 -28.380007
-2.333799 53.347878 -8.991837
-3.380766 49.473457 -9.963095
-1.284464 52.998787 10.155321
4.99799 22.607006 -29.340994
6.846203 17.70932 -28.35956
6.841379 21.823132 -29.12343
10.456635 24.381584 -29.81143
10.628805 20.576302 -28.91482
12.501053 20.123444 -29.038218
14.822339 15.975315 -28.473516
-5.098448 34.741478 -14.707134
-4.664438 33.467743 -17.295759
-1.837442 54.06395 3.707608
-3.224424 51.044044 2.551459
-2.038343 54.213432 0.476505
-2.184031 54.122063 -2.731815
-3.766729 31.001934 -22.0208
-3.694494 25.526493 -22.210989
-3.252947 29.825275 -24.085249
-0.910376 26.485435 -28.432474
0.032307 21.047626 -27.86989
0.267511 25.435139 -29.128588
1.663643 24.42902 -29.458555
6.917891 25.751896 -29.941626
-4.282682 45.295547 -10.752481
-3.69837 47.000771 11.072156
-2.677999 50.401276 8.953188
-1.5837 53.659081 6.93989
8.732624 21.143394 -28.954485
-4.837687 28.140205 -17.712248
-4.225809 32.216736 -19.74299
-3.446222 50.66153 -3.816458
-2.278788 53.819557 -5.894688
-2.183035 23.163105 -25.728605
3.100674 19.206982 -28.568167
3.254593 23.481022 -29.493666
3.491817 27.58696 -30.41308
-2.349603 53.051392 -10.500032
-1.840868 54.941647 -9.937955
12.357045 22.001926 -29.507241
11.478844 22.252514 -29.424824
11.334836 24.130997 -29.893847
13.417853 19.953124 -29.174891
12.357045 22.001926 -29.507241
-5.097353 37.849054 -13.096474
-4.835837 40.247473 -12.805078
-4.88443 37.215006 -14.453796
-5.311371 35.375526 -13.349812
-5.097353 37.849054 -13.096474
-4.501836 39.116999 -15.537631
-4.715855 36.643471 -15.790969
-4.88443 37.215006 -14.453796
-1.367423 55.686439 1.143516
-1.937892 54.138691 2.092056
-1.266973 55.611699 2.759067
-1.462371 55.750244 -0.479511
-1.367423 55.686439 1.143516
-3.279743 32.504323 -24.058808
-3.509838 30.413604 -23.053024
-3.536634 33.092653 -23.026583
-0.766717 28.64042 -29.148773
-1.24131 29.191856 -28.699798
-0.177774 28.115272 -29.49683
-0.321433 25.960287 -28.780531
-0.766717 28.64042 -29.148773
0.40896 27.56642 -29.74646
-0.177774 28.115272 -29.49683
-3.953688 48.153405 -7.356043
-4.013569 48.515255 -5.828009
-3.785183 46.995376 -11.829935
-3.831724 47.384502 -10.357788
-3.334224 49.084332 -11.435242
-4.173858 44.818645 -12.186687
-3.785183 46.995376 -11.829935
-2.779022 47.9706 13.149711
-2.097809 49.219456 13.680269
-3.002329 48.346634 11.59507
-3.475064 46.624737 12.626797
-2.779022 47.9706 13.149711
-0.913955 54.919556 7.635383
-1.434082 53.328934 8.547605
-0.764336 54.589409 9.243099
-1.032849 55.226388 6.00607
-0.913955 54.919556 7.635383
5.916005 15.954046 -28.098436
4.900104 16.265968 -28.142227
8.94767 15.04638 -27.866604
7.944497 15.345597 -27.949126
7.849376 17.410103 -28.277038
10.025081 14.843905 -27.829666
8.94767 15.04638 -27.866604
11.877884 16.431177 -28.169971
10.753256 18.598499 -28.520399
11.753433 18.40898 -28.564392
13.105056 14.262984 -27.873062
11.877884 16.431177 -28.169971
14.139503 14.173761 -27.997243
13.105056 14.262984 -27.873062
16.096654 14.009892 -28.340646
15.757283 15.899576 -28.676712
-5.097946 28.83145 -16.459112
-5.149275 26.107578 -16.735157
-4.113735 34.811806 -19.582487
-4.445123 32.842239 -18.519374
-4.333049 35.437309 -18.358871
-3.947193 34.251478 -20.781744
-4.113735 34.811806 -19.582487
-3.675015 49.298767 5.253122
-3.531699 49.1796 6.841077
-3.960512 49.341328 0.457488
-3.884228 49.376911 2.05747
-3.300708 51.008461 0.951477
-3.997038 49.193878 -1.126142
-3.960512 49.341328 0.457488
-3.411608 50.817204 -2.232481
-4.031652 49.038204 -2.710119
-3.997038 49.193878 -1.126142
-1.666262 55.509915 -5.270092
-2.231409 53.97081 -4.313251
-1.618883 55.661167 -3.688655
-1.741642 55.377403 -6.847401
-1.666262 55.509915 -5.270092
-4.238447 24.015845 -20.245107
-4.572134 24.70883 -19.122606
-3.216234 22.122494 -23.285017
-3.55998 22.729021 -22.330796
-3.350748 24.919965 -23.165211
-2.769532 21.521103 -24.156292
-3.216234 22.122494 -23.285017
-1.681451 22.618569 -26.358477
-2.026857 25.366358 -26.536316
-1.525273 24.821821 -27.166187
-1.322326 19.846773 -26.298345
-1.82391 20.391309 -25.668474
-1.681451 22.618569 -26.358477
-0.686381 19.338282 -26.824312
-1.322326 19.846773 -26.298345
1.380537 17.883747 -27.860948
0.664996 18.362974 -27.60589
0.747847 20.568399 -28.124949
2.231984 17.469476 -28.032457
1.380537 17.883747 -27.860948
2.282031 19.648077 -28.474087
3.050627 17.028382 -28.126537
2.231984 17.469476 -28.032457
2.594496 26.051068 -30.004559
2.459118 23.955021 -29.476111
1.799021 26.525067 -29.987003
2.713108 28.104036 -30.464265
3.373205 25.533991 -29.953373
2.594496 26.051068 -30.004559
-2.873087 51.114182 -10.985661
-2.857283 51.410668 -9.477466
-2.349603 53.051392 -10.500032
-3.334224 49.084332 -11.435242
-2.873087 51.114182 -10.985661
-1.627909 50.893341 12.729112
-2.097809 49.219456 13.680269
-1.116997 52.546486 11.747781
-1.795376 51.345642 11.136653
-1.627909 50.893341 12.729112
-0.63549 54.160034 10.863077
-1.116997 52.546486 11.747781
-0.764336 54.589409 9.243099
-0.63549 54.160034 10.863077
14.578496 17.879059 -28.892539
13.661696 18.04938 -28.755867
13.417853 19.953124 -29.174891
15.757283 15.899576 -28.676712
14.578496 17.879059 -28.892539
-5.47958 32.832201 -13.634634
-5.311371 35.375526 -13.349812
-5.228327 32.132086 -14.956555
-5.47958 32.832201 -13.634634
-4.881443 34.10461 -16.001447
-5.011322 31.495219 -16.250867
-5.228327 32.132086 -14.956555
-4.49885 36.006603 -17.085282
-4.881443 34.10461 -16.001447
-4.715855 36.643471 -15.790969
-4.333049 35.437309 -18.358871
-4.49885 36.006603 -17.085282
-1.535214 55.70456 -2.083671
-2.111187 54.167747 -1.127655
-1.462371 55.750244 -0.479511
-1.618883 55.661167 -3.688655
-1.535214 55.70456 -2.083671
-1.390528 27.027523 -27.88825
-1.24131 29.191856 -28.699798
-1.045122 24.279733 -27.710411
-1.525273 24.821821 -27.166187
-1.390528 27.027523 -27.88825
1.107026 27.063361 -29.911444
0.965577 24.93208 -29.293571
0.40896 27.56642 -29.74646
1.799021 26.525067 -29.987003
1.107026 27.063361 -29.911444
6.179492 28.050073 -30.476061
6.044446 26.186516 -30.060727
5.306047 28.484693 -30.595161
6.996781 27.577925 -30.365485
6.179492 28.050073 -30.476061
7.882099 27.203305 -30.294834
7.803209 25.377275 -29.870976
6.996781 27.577925 -30.365485
8.702106 26.812919 -30.252678
7.882099 27.203305 -30.294834
9.58616 26.502384 -30.25823
9.572581 24.69212 -29.805878
8.702106 26.812919 -30.252678
10.409153 26.189272 -30.295044
9.58616 26.502384 -30.25823
11.334836 24.130997 -29.893847
10.409153 26.189272 -30.295044
-3.923342 47.817154 -8.873535
-3.953688 48.153405 -7.356043
-3.411112 49.809708 -8.445602
-4.3743 45.728199 -9.268228
-3.923342 47.817154 -8.873535
-3.831724 47.384502 -10.357788
-4.79161 43.575092 -9.631331
-4.3743 45.728199 -9.268228
-4.641972 43.050979 -11.081089
-4.79161 43.575092 -9.631331
-4.641972 43.050979 -11.081089
-4.173858 44.818645 -12.186687
-4.367724 42.015138 -13.910675
-4.835837 40.247473 -12.805078
-4.254926 41.51687 -15.291087
-4.367724 42.015138 -13.910675
-4.148886 45.227709 12.163173
-3.475064 46.624737 12.626797
-4.369817 45.501593 10.613296
-4.148886 45.227709 12.163173
-3.88656 47.25256 9.497635
-4.369817 45.501593 10.613296
-3.376375 48.952813 8.438151
-3.88656 47.25256 9.497635
-3.188185 48.701024 10.012672
-2.833322 50.628063 7.356115
-3.531699 49.1796 6.841077
-3.376375 48.952813 8.438151
-1.15972 55.428822 4.389929
-1.710571 53.861515 5.323749
-1.032849 55.226388 6.00607
-1.266973 55.611699 2.759067
-1.15972 55.428822 4.389929
6.883675 15.603403 -28.016563
5.916005 15.954046 -28.098436
5.878533 18.059963 -28.441433
6.883675 15.603403 -28.016563
7.944497 15.345597 -27.949126
9.805165 18.882046 -28.540231
9.680715 20.859848 -28.934652
10.753256 18.598499 -28.520399
9.865128 16.865792 -28.160248
8.792586 19.12714 -28.574501
9.805165 18.882046 -28.540231
10.025081 14.843905 -27.829666
9.865128 16.865792 -28.160248
15.111642 14.040589 -28.127019
14.139503 14.173761 -27.997243
13.8502 16.108486 -28.34374
15.111642 14.040589 -28.127019
16.096654 14.009892 -28.340646
-4.845196 25.377228 -17.949222
-5.149275 26.107578 -16.735157
-4.564625 27.471808 -18.885631
-4.572134 24.70883 -19.122606
-4.845196 25.377228 -17.949222
-4.751062 30.803974 -17.504003
-5.097946 28.83145 -16.459112
-5.011322 31.495219 -16.250867
-3.717653 33.644077 -21.920649
-3.996269 31.609335 -20.881895
-3.947193 34.251478 -20.781744
-3.536634 33.092653 -23.026583
-3.717653 33.644077 -21.920649
-4.501836 39.116999 -15.537631
-4.254926 41.51687 -15.291087
-3.792903 49.393363 3.649331
-3.675015 49.298767 5.253122
-3.106535 50.949447 4.15525
-3.792903 49.393363 3.649331
-3.884228 49.376911 2.05747
-4.015951 48.773041 -4.272182
-4.031652 49.038204 -2.710119
-3.44384 50.403744 -5.372284
-4.013569 48.515255 -5.828009
-4.015951 48.773041 -4.272182
-1.769147 55.141564 -8.395976
-2.306293 53.583718 -7.443263
-1.741642 55.377403 -6.847401
-1.840868 54.941647 -9.937955
-1.769147 55.141564 -8.395976
-3.939913 23.377386 -21.321095
-4.238447 24.015845 -20.245107
-3.993029 26.164952 -21.135002
-3.939913 23.377386 -21.321095
-3.55998 22.729021 -22.330796
-3.062082 31.957733 -25.044037
-3.279743 32.504323 -24.058808
-2.945259 29.253971 -24.982373
-3.062082 31.957733 -25.044037
-2.822286 26.498053 -24.999464
-3.129974 27.069357 -24.102341
-2.945259 29.253971 -24.982373
-2.410303 25.922886 -25.804051
-2.026857 25.366358 -26.536316
-2.595019 23.738272 -24.924019
-2.822286 26.498053 -24.999464
-2.410303 25.922886 -25.804051
-2.357548 20.945936 -24.960878
-2.769532 21.521103 -24.156292
-2.595019 23.738272 -24.924019
-2.357548 20.945936 -24.960878
-1.82391 20.391309 -25.668474
-0.080294 18.825079 -27.265083
-0.686381 19.338282 -26.824312
-0.57378 21.560829 -27.429119
-0.080294 18.825079 -27.265083
0.664996 18.362974 -27.60589
3.99501 16.664156 -28.164657
3.050627 17.028382 -28.126537
4.005768 18.808794 -28.545737
4.900104 16.265968 -28.142227
3.99501 16.664156 -28.164657
2.902338 30.078074 -30.954128
2.713108 28.104036 -30.464265
3.664416 29.503733 -30.849685
2.902338 30.078074 -30.954128
4.504008 29.020821 -30.733059
4.331409 27.104048 -30.296453
3.664416 29.503733 -30.849685
5.306047 28.484693 -30.595161
4.504008 29.020821 -30.733059
3 52 51 14
3 0 19 17
3 53 22 54
3 55 54 20
3 53 54 55
3 57 56 22
3 1 58 59
3 1 60 62
3 60 24 61
3 60 61 62
3 1 63 65
3 65 64 24
3 63 64 65
3 66 28 67
3 68 67 26
3 66 67 68
3 70 69 28
3 71 32 72
3 73 72 30
3 71 72 73
3 74 33 75
3 76 35 77
3 78 77 33
3 76 77 78
3 80 79 35
3 3 81 82
3 83 38 84
3 85 84 15
3 83 84 85
3 87 86 38
3 4 88 89
3 4 90 92
3 90 39 91
3 90 91 92
3 4 40 39
3 93 41 94
3 95 94 16
3 93 94 95
3 97 96 41
3 6 98 99
3 7 100 102
3 102 101 18
3 100 101 102
3 7 103 104
3 2 42 37
3 8 105 107
3 107 106 21
3 105 106 107
3 8 108 109
3 8 110 111
3 113 112 23
3 114 43 115
3 116 44 117
3 118 117 25
3 116 117 118
3 120 119 44
3 5 121 122
3 10 123 125
3 125 124 27
3 123 124 125
3 10 126 127
3 10 128 130
3 128 45 129
3 128 129 130
3 131 46 132
3 133 132 29
3 131 132 133
3 135 134 46
3 9 136 137
3 11 138 140
3 140 139 31
3 138 139 140
3 11 141 142
3 12 143 145
3 143 47 144
3 143 144 145
3 12 146 148
3 148 147 47
3 146 147 148
3 12 149 150
3 13 151 153
3 153 152 34
3 151 152 153
3 13 154 155
3 13 156 158
3 156 48 157
3 156 157 158
3 159 49 160
3 161 160 36
3 159 160 161
3 162 50 163
3 164 163 49
3 162 163 164
3 14 15 3
3 165 15 166
3 167 166 14
3 165 166 167
3 169 168 15
3 170 4 171
3 172 16 173
3 174 173 4
3 172 173 174
3 175 16 176
3 178 177 16
3 17 18 6
3 19 18 17
3 19 7 18
3 20 21 2
3 22 21 20
3 22 8 21
3 22 23 8
3 179 23 180
3 181 180 22
3 179 180 181
3 183 182 23
3 24 184 185
3 24 186 187
3 24 188 190
3 188 25 189
3 188 189 190
3 191 25 192
3 193 192 24
3 191 192 193
3 195 194 25
3 26 27 5
3 28 27 26
3 28 10 27
3 28 29 10
3 196 29 197
3 198 197 28
3 196 197 198
3 200 199 29
3 30 31 9
3 32 31 30
3 32 11 31
3 33 201 202
3 33 203 205
3 203 12 204
3 203 204 205
3 33 34 12
3 35 34 33
3 35 13 34
3 35 36 13
3 206 36 207
3 208 207 35
3 206 207 208
3 210 209 36
3 211 37 212
3 213 212 0
3 211 212 213
3 214 37 215
3 216 2 217
3 218 217 37
3 216 217 218
3 219 2 220
3 221 20 222
3 223 222 2
3 221 222 223
3 224 20 225
3 227 226 20
3 15 228 230
3 230 229 3
3 228 229 230
3 38 231 233
3 233 232 15
3 231 232 233
3 38 234 235
3 38 236 237
3 239 238 38
3 240 1 241
3 243 242 1
3 39 244 245
3 39 246 247
3 39 248 249
3 40 250 252
3 252 251 39
3 250 251 252
3 40 253 255
3 253 5 254
3 253 254 255
3 16 40 4
3 41 40 16
3 41 5 40
3 41 26 5
3 256 26 257
3 258 257 41
3 256 257 258
3 260 259 26
3 18 261 263
3 263 262 6
3 261 262 263
3 265 264 18
3 37 19 0
3 42 19 37
3 42 7 19
3 21 42 2
3 266 42 267
3 268 267 21
3 266 267 268
3 269 7 270
3 271 270 42
3 269 270 271
3 273 272 7
3 23 274 276
3 276 275 8
3 274 275 276
3 278 277 23
3 43 279 280
3 43 281 283
3 281 9 282
3 281 282 283
3 25 284 286
3 284 43 285
3 284 285 286
3 44 43 25
3 44 9 43
3 44 30 9
3 287 30 288
3 289 288 44
3 287 288 289
3 291 290 30
3 293 292 1
3 27 294 296
3 296 295 5
3 294 295 296
3 298 297 27
3 45 299 300
3 45 301 303
3 301 3 302
3 301 302 303
3 29 45 10
3 46 45 29
3 46 3 45
3 46 14 3
3 304 14 305
3 306 305 46
3 304 305 306
3 308 307 14
3 31 309 311
3 311 310 9
3 309 310 311
3 313 312 31
3 314 32 315
3 316 32 317
3 318 11 319
3 320 319 32
3 318 319 320
3 47 321 322
3 47 323 325
3 323 11 324
3 323 324 325
3 47 326 328
3 328 327 11
3 326 327 328
3 330 329 47
3 34 331 333
3 333 332 12
3 331 332 333
3 335 334 34
3 48 336 337
3 48 338 340
3 338 6 339
3 338 339 340
3 36 48 13
3 49 48 36
3 49 6 48
3 49 17 6
3 50 17 49
3 50 0 17
3 341 50 342
3 343 50 344
3 345 0 346
3 347 346 50
3 345 346 347
3 349 348 0
