ply
format ascii 1.0
element vertex 904
property float x
property float y
property float z
element face 823
property list uchar int vertex_index
end_header
3.192894 -40.244576 37.971535
5.996883 -7.704256 36.095192
-2.725733 -58.574894 3.758702
-12.098032 -52.460793 -8.529631
4.723461 -25.084797 37.464714
4.971291 -38.953972 30.500929
4.542828 -51.595329 21.361744
3.046612 -52.785965 29.880951
-28.009529 -16.825783 -39.389393
-7.204556 -55.622253 -2.746944
0.476433 -61.371796 11.594064
-26.317345 -34.925735 -28.787048
4.017384 -32.92202 37.802658
4.852188 -31.962177 34.206856
4.011803 -39.449402 34.321423
3.978996 -46.022102 30.342216
3.136776 -46.523685 34.175537
-4.916077 -57.096714 0.354098
3.069283 -57.761196 20.812439
3.171631 -56.794361 16.305086
1.264042 -62.566383 15.88572
-27.980499 1.216381 -39.354031
-28.075384 -2.942591 -41.884575
-27.002159 -21.094709 -38.589134
-5.352266 -64.487366 4.040823
5.401699 -16.63995 36.948887
5.744793 -23.855164 33.867302
4.983414 -45.614967 26.210052
3.799015 -52.224201 25.787231
2.697853 -58.594971 25.138893
-12.479132 -55.91201 -11.099709
-14.930495 -53.405739 -13.937267
-17.815468 -50.525764 -16.837193
-20.670231 -47.244858 -19.886322
-23.068661 -43.569176 -23.20113
4.910667 -10.009625 39.705956
4.44104 -18.657646 40.375229
3.839382 -26.777353 40.861496
-9.547672 -54.106873 -5.662798
-10.718622 -58.10693 -8.284864
1.536551 -54.141243 7.558913
2.774094 -55.578999 11.804773
-0.862133 -60.026714 7.517542
-29.789589 9.699902 -44.047489
-28.485493 5.5776 -41.954643
-26.486015 -30.39604 -32.882183
-24.766016 -39.499645 -26.851711
3.630524 -36.634125 37.913872
4.022568 -36.154709 36.117287
3.617298 -39.798775 36.159004
3.588432 -43.020531 34.285912
3.17057 -43.358307 36.134548
-1.590036 -55.605217 3.726772
-2.804085 -54.867855 1.987303
-3.79657 -57.835354 2.013212
2.343479 -60.747829 20.512161
2.330906 -60.249744 18.306818
1.472868 -63.120159 18.067322
0.255922 -65.32119 15.737931
-28.228451 -3.257931 -39.149162
-28.372526 -5.475022 -40.161983
-27.941553 -5.003894 -42.774521
-28.346262 -7.652832 -40.918274
5.066624 -20.935589 37.236294
5.579422 -20.19132 35.453407
5.184925 -24.41667 35.697449
4.912598 -35.471199 32.419441
5.403187 -31.612131 32.331345
5.512562 -35.219231 30.469389
5.007366 -42.352409 28.433537
3.514465 -49.426018 30.147629
3.927025 -49.192596 28.134949
3.42997 -52.50161 27.873001
3.252007 -55.431549 25.479147
2.932961 -55.770447 27.554127
-12.410183 -57.804413 -12.117765
-13.626623 -54.702038 -12.513807
-13.568371 -56.461548 -13.493744
-16.384926 -53.481354 -16.24036
-17.913414 -51.837337 -17.634754
-19.276432 -48.935349 -18.335686
-19.429087 -50.092888 -19.070477
4.537235 -6.972989 40.983353
4.377815 -11.364208 41.386436
4.69479 -14.389691 40.075687
4.163116 -15.665376 41.710232
3.483055 -30.619305 41.074123
-5.497156 -53.468632 -1.221449
-6.919718 -52.803123 -2.727253
-8.378117 -52.145844 -4.194954
-8.362408 -54.874657 -4.219353
-10.071135 -59.104622 -6.872854
2.00246 -59.142323 13.872629
3.058254 -56.22044 14.038893
1.640368 -58.511406 11.691381
1.109482 -57.828251 9.566748
-0.121536 -60.717319 9.521282
-2.177269 -62.89238 7.560797
-1.386892 -63.531651 9.516066
-30.33474 10.830856 -41.946381
-29.410162 9.101324 -41.142296
-28.070147 1.514887 -42.221172
-28.152437 3.40988 -40.700241
-28.224136 3.894108 -43.624149
-28.436638 -14.670008 -39.497494
-26.479038 -32.716007 -30.811195
-24.011345 -41.584229 -24.983604
4.375984 -29.078552 37.651333
4.793427 -28.48378 35.88324
4.408573 -32.391846 36.022694
4.427391 -35.774033 34.29216
4.445866 -39.176422 32.444042
4.460293 -42.543579 30.459442
3.998901 -42.75679 32.401527
3.556946 -46.248154 32.285236
3.100796 -49.685669 32.0914
-4.117855 -54.1549 0.343363
-6.056721 -56.360298 -1.227999
3.792229 -54.712078 21.106747
4.003418 -54.287991 18.826141
3.162205 -57.303654 18.571945
2.223469 -59.71925 16.085974
0.935099 -61.9869 13.721338
-0.710564 -64.146988 11.53642
-0.161079 -64.741196 13.614451
-27.922033 -0.981041 -37.936024
-28.088055 -0.876537 -40.723076
-27.911146 -0.389023 -43.530197
-27.508276 -18.961979 -39.079216
-4.001715 -61.545902 3.861216
-4.967661 -60.842754 2.121093
-6.25021 -63.85812 2.319322
5.71706 -12.219305 36.577747
6.322441 -11.336948 34.703381
5.964382 -15.822619 35.130562
6.193417 -19.559534 33.590267
5.29298 -27.991835 34.067577
5.909702 -27.582775 32.176582
4.848518 -48.703125 23.841537
4.448448 -45.820713 28.323843
4.370682 -48.960953 26.036129
4.173054 -51.930664 23.615986
3.535835 -55.085796 23.32888
2.914124 -58.185394 23.00584
2.267159 -61.229507 22.68239
-28.638723 -19.48041 -37.239086
-28.068752 -21.603767 -36.914513
-27.448702 -23.704273 -36.429131
-26.862255 -25.81295 -35.788342
-12.416754 -54.148079 -9.886328
-13.497885 -51.555553 -9.981915
-13.652016 -53.084499 -11.324686
-15.006043 -51.941681 -12.783915
-14.913335 -55.022346 -14.865278
-16.34609 -52.015327 -15.375389
-17.928112 -49.379993 -15.787994
-19.395203 -47.947449 -17.345436
-20.794205 -46.409142 -18.949848
-22.076759 -44.763977 -20.609241
-23.203819 -43.011429 -22.330662
-21.946938 -45.455872 -21.504185
5.077934 -5.548539 39.237118
5.430576 -8.785883 37.942944
5.188644 -13.237591 38.363823
4.913696 -17.585131 38.693863
4.616852 -21.801647 38.960754
4.155952 -22.790695 40.630951
4.303017 -25.87068 39.186714
3.968147 -29.788769 39.384178
3.598518 -33.566368 39.553596
3.173855 -37.226517 39.684349
-10.785254 -53.306652 -7.094368
-5.922642 -60.120296 0.454003
-6.842569 -59.376099 -1.143776
-7.720751 -58.605671 -2.679832
-8.570892 -57.803337 -4.165442
-9.424667 -56.963039 -5.614506
-10.324188 -56.07851 -7.041925
-11.311312 -55.142891 -8.461853
-11.511057 -57.044434 -9.691481
-11.478996 -59.059006 -10.735607
2.66658 -46.868809 36.032234
2.64286 -49.991501 33.986065
2.615616 -53.095848 31.82575
2.55574 -56.119282 29.559422
2.407593 -59.004997 27.206829
0.554346 -53.391579 5.595778
-0.513987 -56.356312 5.571238
4.125084 -53.794914 16.510841
2.275703 -54.879253 9.635195
0.391745 -57.103966 7.520981
-1.737247 -59.308796 5.594224
-3.059376 -62.229729 5.674938
-31.477814 12.384949 -42.514771
-30.812086 11.558914 -44.778851
-27.7647 3.364197 -37.867695
-28.155544 5.329084 -39.060581
-28.692259 7.252419 -40.163712
-29.020571 7.688334 -43.085972
-28.160553 -9.807163 -41.392982
-27.1364 -28.280264 -33.660038
-24.147671 -41.150841 -24.119114
-24.893261 -39.181442 -25.976849
-25.439568 -37.102962 -27.902828
-25.801058 -34.916367 -29.892227
6.316006 -7.236286 35.120601
6.110613 -5.417466 35.785444
1.51991 -63.390699 19.15616
1.908173 -61.933994 19.289741
1.955215 -62.204535 20.37858
1.005933 -64.508581 17.978332
1.51991 -63.390699 19.15616
-28.559807 -6.721754 -39.271507
-28.404277 -5.544097 -38.839456
-28.546675 -7.810659 -39.649653
-28.359394 -6.563927 -40.540128
-28.559807 -6.721754 -39.271507
-12.565774 -51.253052 -8.543579
-11.762379 -51.623524 -7.811459
5.286341 -38.852711 29.482042
5.556976 -36.98534 29.466273
5.241926 -37.086602 30.485159
4.989329 -40.653191 29.467233
5.304379 -40.551929 28.448346
5.286341 -38.852711 29.482042
-12.955956 -58.15716 -13.20468
-12.989277 -57.132981 -12.805754
-12.376862 -58.828592 -12.51669
-18.122352 -52.581302 -17.907232
-17.300148 -53.479829 -17.243771
-18.880189 -51.709078 -18.625093
-18.67125 -50.965113 -18.352615
-18.122352 -52.581302 -17.907232
-19.687328 -50.759868 -19.316044
-18.880189 -51.709078 -18.625093
4.067438 -12.097496 42.178696
4.157379 -9.940969 42.010143
3.960088 -14.24808 42.340593
4.270466 -13.514792 41.548334
4.067438 -12.097496 42.178696
4.704201 -51.394829 20.200749
4.934036 -49.99319 21.457991
-29.118024 9.034461 -39.745854
-29.566612 9.81642 -40.152279
-28.075834 3.028288 -44.351803
-28.147142 2.704497 -42.922661
-27.998839 1.838678 -43.650314
-28.194534 4.2884 -45.064434
-28.075834 3.028288 -44.351803
-27.726971 -15.457562 -40.457554
-27.940526 -14.379675 -40.511605
-28.223084 -15.747896 -39.443444
-26.824351 -33.906932 -29.149777
-26.732328 -34.970581 -28.148616
-26.398191 -33.820871 -29.799121
-26.905197 -32.802068 -30.16185
-26.824351 -33.906932 -29.149777
-0.530129 -66.353745 14.657107
-0.293164 -66.642551 15.703138
-27.923184 -2.074406 -37.199391
-27.584339 -0.796055 -36.615744
-27.879131 -2.634258 -43.220692
-27.797012 -1.357473 -44.043503
-27.993265 -1.665807 -42.707386
-27.670879 -4.657239 -44.017401
-27.820577 -6.039912 -43.067356
-26.811295 -19.746411 -39.66587
-27.064354 -18.680046 -39.910911
-27.255218 -20.028344 -38.834175
6.080002 -23.618664 32.905733
6.304314 -21.470849 32.767215
5.969105 -21.707349 33.728785
5.99081 -29.448906 31.27027
5.656445 -29.597453 32.253963
5.737552 -31.463584 31.347651
6.269039 -27.407211 31.177143
5.99081 -29.448906 31.27027
5.272261 -45.494511 25.100314
5.308661 -43.883243 26.256018
4.915966 -47.159046 25.025794
5.204813 -47.03859 23.916056
5.272261 -45.494511 25.100314
-28.944304 -20.760948 -36.168495
-29.172304 -19.673851 -36.260633
-28.659318 -21.822626 -36.006208
-28.353738 -20.542088 -37.076799
-28.944304 -20.760948 -36.168495
-27.663081 -24.959752 -35.35601
-28.031003 -23.926474 -35.595376
-27.369858 -26.014091 -35.035616
-27.155479 -24.758612 -36.108736
-27.663081 -24.959752 -35.35601
-15.688754 -52.057659 -14.103507
-15.726529 -51.32563 -13.526831
-14.968269 -52.67371 -13.360591
-15.000587 -55.916527 -15.206825
-14.263994 -56.704588 -14.553048
3.997667 -24.784024 40.746223
3.876205 -23.343341 41.431296
3.71792 -25.33667 41.546568
3.335171 -33.948918 40.40866
3.540786 -32.092836 40.313859
3.277439 -32.475386 41.168924
3.122839 -35.778992 40.474037
3.386186 -35.396442 39.618972
3.335171 -33.948918 40.40866
-9.712402 -52.793395 -5.653571
-9.127624 -51.81288 -4.919649
-8.962895 -53.126358 -4.928876
-10.166463 -53.706762 -6.378583
-10.331193 -52.393284 -6.369356
-9.712402 -52.793395 -5.653571
-6.499926 -61.657223 0.55546
-5.445151 -60.481525 1.287548
-6.022436 -62.018451 1.389005
-7.640353 -60.552448 -1.818472
-7.325 -60.931494 -1.045114
-8.079444 -60.167234 -2.5865
-7.28166 -58.990885 -1.911804
-7.640353 -60.552448 -1.818472
-9.043779 -58.921683 -4.805308
-8.7817 -59.358799 -4.077424
-9.470667 -58.501534 -5.529841
-8.99778 -57.383188 -4.889974
-9.043779 -58.921683 -4.805308
-11.051108 -60.771962 -10.471577
-11.132766 -59.646091 -10.041877
-11.40707 -60.137352 -11.152632
-11.051108 -60.771962 -10.471577
2.387672 -47.084124 36.949804
2.676443 -45.328642 36.995899
2.375579 -51.718571 33.856054
2.374867 -50.175503 34.918036
2.361956 -53.270744 32.775897
2.629238 -51.543674 32.905907
2.375579 -51.718571 33.856054
2.292116 -57.772278 29.386806
2.326874 -56.304675 30.533936
2.218043 -59.215136 28.21051
2.481667 -57.56214 28.383125
2.292116 -57.772278 29.386806
6.66349 -10.961303 33.709635
6.471157 -13.231455 33.958962
1.045449 -53.766411 6.577345
1.538148 -52.269016 6.607733
2.02925 -52.643849 7.589301
3.434508 -54.401267 12.999395
3.576588 -54.721987 14.116454
2.916174 -55.89972 12.921833
3.310924 -54.0784 11.859828
3.434508 -54.401267 12.999395
2.524898 -55.229126 10.719984
3.061729 -53.728527 10.775039
3.310924 -54.0784 11.859828
-3.301179 -63.991417 6.691093
-2.847064 -64.283837 7.611717
-1.691918 -65.197887 10.552133
-1.320903 -65.482017 11.53804
-31.133737 12.170803 -41.153248
-31.753659 12.785761 -41.34643
-29.946976 10.156757 -45.473354
-30.458225 11.086263 -45.839036
-30.300838 10.629408 -44.41317
-27.872599 2.290289 -38.610863
-27.62107 2.371945 -37.237423
-27.728969 1.298037 -37.980591
-28.44513 -11.144945 -40.385115
-28.501579 -10.030112 -40.200085
-14.095779 -50.396921 -10.016172
-14.238906 -51.06635 -10.721923
-26.811207 -29.338152 -33.27111
-27.22475 -29.460606 -32.612131
-26.899557 -30.518494 -32.223203
-26.439305 -29.183926 -33.934995
-26.764497 -28.126038 -34.323923
-26.811207 -29.338152 -33.27111
-25.778863 -34.972994 -30.352825
-25.570441 -36.115433 -29.345672
-25.904901 -33.77039 -30.913967
-25.778863 -34.972994 -30.352825
-2.197061 -55.236536 2.857038
-1.726479 -53.762609 2.870131
-1.119454 -54.131291 3.739866
0.39746 -65.609096 16.813636
0.864395 -64.220675 16.902627
1.005933 -64.508581 17.978332
-0.293164 -66.642551 15.703138
0.39746 -65.609096 16.813636
-28.33224 -4.435551 -38.333046
-28.076393 -3.212852 -37.80596
-28.300489 -4.366477 -39.655572
-28.33224 -4.435551 -38.333046
-28.404277 -5.544097 -38.839456
-28.022932 -7.364382 -42.139232
-27.820577 -6.039912 -43.067356
-28.143907 -6.328363 -41.846397
-26.662655 -20.844344 -39.329867
-26.783426 -22.170924 -38.260526
-6.459745 -65.663205 3.324966
-6.031761 -65.923248 4.170335
5.79224 -33.267134 30.416674
5.737552 -31.463584 31.347651
5.457874 -33.415681 31.400367
5.863018 -35.10326 29.440736
5.79224 -33.267134 30.416674
5.863018 -35.10326 29.440736
5.556976 -36.98534 29.466273
5.320636 -42.251964 27.367761
5.304379 -40.551929 28.448346
4.99539 -43.983688 27.321795
5.308661 -43.883243 26.256018
5.320636 -42.251964 27.367761
-16.535904 -54.301838 -16.546574
-15.736383 -55.146031 -15.894366
-17.14917 -52.659346 -16.937557
-16.535904 -54.301838 -16.546574
-17.300148 -53.479829 -17.243771
-20.149352 -49.172661 -19.821133
-20.769924 -47.748646 -20.229056
-20.049659 -48.668873 -19.4784
-20.149352 -49.172661 -19.821133
-19.687328 -50.759868 -19.316044
4.237089 -7.745359 41.808602
4.290503 -5.555991 41.595402
4.457525 -9.168598 41.184894
4.237089 -7.745359 41.808602
4.157379 -9.940969 42.010143
3.54314 -27.28888 41.665081
3.71792 -25.33667 41.546568
3.364977 -29.209856 41.771394
3.661218 -28.698329 40.96781
3.54314 -27.28888 41.665081
3.163992 -31.093756 41.88582
3.364977 -29.209856 41.771394
3.277439 -32.475386 41.168924
3.163992 -31.093756 41.88582
-5.332759 -52.090521 -1.193693
-4.525528 -52.390243 -0.414563
-6.04404 -51.757767 -1.946595
-5.332759 -52.090521 -1.193693
-6.208437 -53.135877 -1.974351
-6.883734 -51.477092 -2.701245
-6.04404 -51.757767 -1.946595
-7.648917 -52.474483 -3.461104
-7.612933 -51.148453 -3.435096
-6.883734 -51.477092 -2.701245
-10.037019 -60.730275 -6.711791
-9.7939 -59.572325 -6.159014
-10.19147 -60.21826 -7.413811
-10.037019 -60.730275 -6.711791
-10.515213 -59.719414 -8.119816
-10.394879 -58.605776 -7.578859
-10.19147 -60.21826 -7.413811
-10.752579 -59.170053 -8.816505
-10.515213 -59.719414 -8.119816
2.434245 -53.008488 8.635842
2.02925 -52.643849 7.589301
-2.451875 -64.603472 8.589351
-2.847064 -64.283837 7.611717
-1.78208 -63.212015 8.538431
-30.0289 10.681186 -40.554322
-30.5622 11.393757 -40.869053
-29.872451 9.96609 -41.544339
-30.0289 10.681186 -40.554322
-29.566612 9.81642 -40.152279
-28.408459 5.062696 -44.26363
-28.539137 5.904442 -43.428877
-28.354815 4.735854 -42.789396
-28.408459 5.062696 -44.26363
-28.194534 4.2884 -45.064434
-28.140766 -13.309821 -40.542954
-28.583173 -13.576368 -39.437371
-28.140766 -13.309821 -40.542954
-27.940526 -14.379675 -40.511605
-26.896068 -31.678478 -31.18771
-26.905197 -32.802068 -30.16185
-26.482526 -31.556023 -31.846689
-26.899557 -30.518494 -32.223203
-26.896068 -31.678478 -31.18771
-23.675358 -42.940208 -24.416735
-23.540003 -42.576702 -24.092367
-23.204016 -43.932682 -23.525498
-24.162875 -41.882575 -25.314579
-23.675358 -42.940208 -24.416735
-24.54021 -40.840283 -26.248632
-24.38868 -40.541937 -25.917658
-24.162875 -41.882575 -25.314579
-2.418849 -53.41403 2.005745
-1.726479 -53.762609 2.870131
-3.075734 -53.057552 1.183775
-2.418849 -53.41403 2.005745
-3.46097 -54.511377 1.165333
-3.835877 -52.733378 0.367843
-3.075734 -53.057552 1.183775
-4.807505 -53.811766 -0.439043
-4.525528 -52.390243 -0.414563
-3.835877 -52.733378 0.367843
-1.046161 -65.779122 12.577056
-1.320903 -65.482017 11.53804
-0.435821 -64.444092 12.575436
-0.738629 -66.063748 13.595367
0.047421 -65.031193 14.676191
-0.530129 -66.353745 14.657107
-1.046161 -65.779122 12.577056
-0.738629 -66.063748 13.595367
-27.699737 0.199326 -37.271588
-27.584339 -0.796055 -36.615744
-27.951266 0.11767 -38.645027
-27.728969 1.298037 -37.980591
-27.699737 0.199326 -37.271588
-28.075242 -2.119486 -38.542593
-27.923184 -2.074406 -37.199391
-28.076393 -3.212852 -37.80596
-27.919339 0.886723 -44.304827
-27.998839 1.838678 -43.650314
-27.990646 0.562932 -42.875685
-27.762499 -0.01638 -44.887963
-27.919339 0.886723 -44.304827
-27.762499 -0.01638 -44.887963
-27.797012 -1.357473 -44.043503
-27.812216 -3.664909 -43.665664
-27.879131 -2.634258 -43.220692
-28.008468 -3.973243 -42.329548
-27.812216 -3.664909 -43.665664
-27.670879 -4.657239 -44.017401
-27.261843 -17.598555 -40.156809
-27.512469 -16.530458 -40.311898
-27.758902 -17.893881 -39.234305
-27.261843 -17.598555 -40.156809
-27.064354 -18.680046 -39.910911
-26.811295 -19.746411 -39.66587
-26.662655 -20.844344 -39.329867
-26.140303 -35.97314 -27.801752
-26.732328 -34.970581 -28.148616
-6.663711 -63.526134 1.48812
-6.022436 -62.018451 1.389005
-5.608935 -62.350437 2.220207
-6.908717 -65.348581 2.464215
-5.801238 -64.172743 3.180072
-6.459745 -65.663205 3.324966
-7.27498 -65.066435 1.642189
-6.908717 -65.348581 2.464215
-6.663711 -63.526134 1.48812
-7.27498 -65.066435 1.642189
6.292127 -15.474291 34.172552
6.471157 -13.231455 33.958962
6.143412 -13.579783 34.916972
6.406645 -17.342748 33.402405
6.292127 -15.474291 34.172552
6.0789 -17.691077 34.360414
6.54607 -19.292116 32.603387
6.406645 -17.342748 33.402405
6.54607 -19.292116 32.603387
6.304314 -21.470849 32.767215
6.162457 -25.48247 32.060373
6.080002 -23.618664 32.905733
5.827248 -25.71897 33.021942
6.162457 -25.48247 32.060373
6.269039 -27.407211 31.177143
5.086882 -48.547089 22.697887
5.204813 -47.03859 23.916056
4.695673 -50.149227 22.601641
4.934036 -49.99319 21.457991
5.086882 -48.547089 22.697887
1.917056 -62.445374 21.463695
1.955215 -62.204535 20.37858
2.305319 -60.988668 21.597276
-28.888618 -14.878448 -38.416668
-28.583173 -13.576368 -39.437371
-28.759932 -15.991497 -38.442231
-28.888618 -14.878448 -38.416668
-28.546378 -17.069384 -38.38818
-28.223084 -15.747896 -39.443444
-28.759932 -15.991497 -38.442231
-28.860975 -18.396698 -37.313026
-29.172304 -19.673851 -36.260633
-28.324126 -18.153097 -38.314239
-28.546378 -17.069384 -38.38818
-28.860975 -18.396698 -37.313026
-28.341028 -22.876221 -35.838066
-28.659318 -21.822626 -36.006208
-27.758727 -22.65402 -36.671822
-28.341028 -22.876221 -35.838066
-28.031003 -23.926474 -35.595376
-27.006698 -23.475706 -37.180525
-26.783426 -22.170924 -38.260526
-27.225431 -22.399491 -37.509132
-26.713474 -24.530045 -36.86013
-27.006698 -23.475706 -37.180525
-27.155479 -24.758612 -36.108736
-26.564366 -25.632023 -36.449393
-26.713474 -24.530045 -36.86013
-14.315972 -51.830824 -11.393308
-14.238906 -51.06635 -10.721923
-13.57495 -52.320026 -10.653301
-14.992985 -51.259415 -12.122923
-14.315972 -51.830824 -11.393308
-14.32903 -52.51309 -12.054301
-15.763691 -50.727124 -12.880805
-14.992985 -51.259415 -12.122923
-15.763691 -50.727124 -12.880805
-15.726529 -51.32563 -13.526831
-13.591512 -57.424188 -13.867281
-12.955956 -58.15716 -13.20468
-14.240853 -55.741947 -14.179511
-13.591512 -57.424188 -13.867281
-14.263994 -56.704588 -14.553048
-15.649131 -54.25185 -15.552819
-15.000587 -55.916527 -15.206825
-15.736383 -55.146031 -15.894366
-16.396552 -51.362453 -14.822568
-15.688754 -52.057659 -14.103507
-15.638293 -52.710533 -14.656328
-17.187563 -50.044786 -15.028871
-16.396552 -51.362453 -14.822568
-17.137101 -50.69766 -15.581691
-18.006293 -48.865267 -15.161427
-17.187563 -50.044786 -15.028871
-18.775402 -48.231133 -15.962619
-18.006293 -48.865267 -15.161427
-19.508947 -47.51486 -16.74134
-18.775402 -48.231133 -15.962619
-18.661657 -48.663721 -16.566715
-20.241043 -46.824543 -17.566448
-19.508947 -47.51486 -16.74134
-20.940545 -46.05539 -18.368654
-20.241043 -46.824543 -17.566448
-20.094704 -47.178296 -18.147642
-21.612599 -45.306929 -19.218643
-20.940545 -46.05539 -18.368654
-22.253875 -44.484347 -20.04834
-21.612599 -45.306929 -19.218643
-21.435482 -45.586559 -19.779545
-22.846252 -43.676552 -20.924011
-22.253875 -44.484347 -20.04834
-22.640289 -43.887703 -21.469952
-23.409782 -42.800278 -21.784721
-22.846252 -43.676552 -20.924011
-21.408278 -46.854153 -21.037987
-21.308585 -46.350365 -20.695253
-20.769924 -47.748646 -20.229056
-22.065878 -45.887794 -21.832167
-21.408278 -46.854153 -21.037987
-22.626739 -44.944446 -22.680639
-22.507799 -44.512524 -22.352657
-22.065878 -45.887794 -21.832167
-23.204016 -43.932682 -23.525498
-22.626739 -44.944446 -22.680639
5.811073 -5.984025 36.749256
6.110613 -5.417466 35.785444
4.584223 -4.74936 40.728172
4.290503 -5.555991 41.595402
4.854572 -4.037135 39.855055
4.584223 -4.74936 40.728172
4.807584 -6.260764 40.110236
5.131044 -3.295456 38.940203
4.854572 -4.037135 39.855055
5.351598 -4.906167 38.320219
5.131044 -3.295456 38.940203
5.52792 -6.524839 37.673132
5.351598 -4.906167 38.320219
5.254255 -7.167211 38.590031
5.71373 -8.245069 37.019068
5.811073 -5.984025 36.749256
5.52792 -6.524839 37.673132
3.83826 -16.356233 42.479399
3.960088 -14.24808 42.340593
4.032208 -17.75707 41.847021
3.83826 -16.356233 42.479399
4.171169 -19.253205 41.179519
4.302078 -17.161511 41.04273
4.032208 -17.75707 41.847021
4.028626 -21.31973 41.307381
3.876205 -23.343341 41.431296
4.298496 -20.72417 40.50309
4.171169 -19.253205 41.179519
4.028626 -21.31973 41.307381
-8.477435 -50.877232 -4.176604
-7.612933 -51.148453 -3.435096
-8.477435 -50.877232 -4.176604
-9.127624 -51.81288 -4.919649
-11.105991 -52.046453 -7.093828
-10.331193 -52.393284 -6.369356
-11.441643 -52.883723 -7.812
-11.762379 -51.623524 -7.811459
-11.105991 -52.046453 -7.093828
-6.865036 -61.303593 -0.246225
-6.499926 -61.657223 0.55546
-6.382606 -59.748198 -0.344886
-6.865036 -61.303593 -0.246225
-7.325 -60.931494 -1.045114
-8.35663 -59.759966 -3.33462
-8.079444 -60.167234 -2.5865
-8.145822 -58.204504 -3.422637
-8.35663 -59.759966 -3.33462
-8.7817 -59.358799 -4.077424
-9.747901 -58.033831 -6.24368
-9.470667 -58.501534 -5.529841
-9.7939 -59.572325 -6.159014
-11.148796 -58.638806 -9.519813
-11.114839 -57.575682 -8.988173
-10.752579 -59.170053 -8.816505
-11.495026 -58.05172 -10.213544
-11.148796 -58.638806 -9.519813
-11.132766 -59.646091 -10.041877
-11.872663 -59.510055 -11.843711
-11.944589 -58.431709 -11.426686
-11.40707 -60.137352 -11.152632
-12.376862 -58.828592 -12.51669
-11.872663 -59.510055 -11.843711
2.881407 -37.583126 40.549867
3.122839 -35.778992 40.474037
2.924511 -39.013752 39.721787
2.881407 -37.583126 40.549867
2.93403 -40.522782 38.86538
3.183375 -38.735546 38.827942
2.924511 -39.013752 39.721787
2.9396 -42.016526 37.96555
2.93403 -40.522782 38.86538
2.928438 -43.573391 37.047056
3.181732 -41.801442 37.053042
2.9396 -42.016526 37.96555
2.918575 -45.113558 36.083391
2.928438 -43.573391 37.047056
2.676443 -45.328642 36.995899
2.386726 -48.614157 35.94112
2.387672 -47.084124 36.949804
2.65472 -48.430155 35.00915
2.386726 -48.614157 35.94112
2.374867 -50.175503 34.918036
2.356813 -54.792957 31.6671
2.361956 -53.270744 32.775897
2.585678 -54.607565 30.692586
2.356813 -54.792957 31.6671
2.326874 -56.304675 30.533936
2.117718 -60.598719 27.038587
2.218043 -59.215136 28.21051
2.252579 -60.356639 26.005223
2.117718 -60.598719 27.038587
2.397709 -60.151626 24.971255
2.552723 -58.799984 26.172861
2.252579 -60.356639 26.005223
2.182362 -61.468894 23.743003
2.482506 -59.912239 23.910642
2.397709 -60.151626 24.971255
1.907167 -62.715576 22.54073
2.182362 -61.468894 23.743003
1.917056 -62.445374 21.463695
1.907167 -62.715576 22.54073
6.478784 -9.052632 34.424696
6.316006 -7.236286 35.120601
6.159662 -9.520602 35.399287
6.478784 -9.052632 34.424696
6.66349 -10.961303 33.709635
0.988802 -51.907883 5.62473
1.538148 -52.269016 6.607733
-0.047263 -53.024472 4.674369
0.988802 -51.907883 5.62473
-0.517845 -54.498398 4.661275
-1.119454 -54.131291 3.739866
-0.047263 -53.024472 4.674369
4.434496 -52.741159 18.932947
4.704201 -51.394829 20.200749
4.273123 -52.94166 20.093943
4.495329 -52.494621 17.775297
4.434496 -52.741159 18.932947
4.064251 -54.041452 17.668491
4.598289 -52.253137 16.594904
4.495329 -52.494621 17.775297
4.110003 -53.509224 15.352428
3.591669 -55.007677 15.274867
3.576588 -54.721987 14.116454
4.598289 -52.253137 16.594904
4.110003 -53.509224 15.352428
2.803821 -53.377493 9.673983
3.061729 -53.728527 10.775039
1.906127 -54.510248 8.597054
2.434245 -53.008488 8.635842
2.803821 -53.377493 9.673983
-3.742233 -63.660091 5.748164
-2.618322 -62.561054 6.617868
-3.301179 -63.991417 6.691093
-4.888678 -64.78891 4.931106
-4.205821 -63.358548 4.857881
-3.742233 -63.660091 5.748164
-6.031761 -65.923248 4.170335
-4.888678 -64.78891 4.931106
-2.030082 -64.890219 9.541956
-1.048728 -63.839319 10.526243
-1.691918 -65.197887 10.552133
-2.451875 -64.603472 8.589351
-2.030082 -64.890219 9.541956
-32.155609 13.042492 -42.649588
-31.753659 12.785761 -41.34643
-31.784348 12.793816 -43.864413
-32.155609 13.042492 -42.649588
-30.906277 11.607903 -42.230576
-31.133737 12.170803 -41.153248
-30.5622 11.393757 -40.869053
-31.451484 12.380798 -44.996453
-31.784348 12.793816 -43.864413
-31.14495 11.971932 -43.646811
-31.047812 12.054976 -46.134957
-31.451484 12.380798 -44.996453
-31.047812 12.054976 -46.134957
-30.458225 11.086263 -45.839036
-27.347459 3.606463 -36.566601
-27.62107 2.371945 -37.237423
-27.612422 4.481009 -37.11829
-27.347459 3.606463 -36.566601
-27.807844 5.463453 -37.714733
-27.612422 4.481009 -37.11829
-27.960122 4.34664 -38.464138
-28.118108 6.320323 -38.232973
-27.807844 5.463453 -37.714733
-28.386466 7.281991 -38.784538
-28.118108 6.320323 -38.232973
-28.423901 6.290751 -39.612146
-28.759073 8.110008 -39.256562
-28.386466 7.281991 -38.784538
-29.05121 8.176872 -40.653004
-29.118024 9.034461 -39.745854
-28.759073 8.110008 -39.256562
-28.806676 6.959809 -43.994541
-28.753032 6.632967 -42.520308
-28.539137 5.904442 -43.428877
-29.115866 8.087896 -44.550131
-28.806676 6.959809 -43.994541
-29.500375 9.09368 -45.03089
-29.40508 8.694118 -43.56673
-29.115866 8.087896 -44.550131
-29.946976 10.156757 -45.473354
-29.500375 9.09368 -45.03089
-28.594433 -8.952946 -39.96273
-28.546675 -7.810659 -39.649653
-28.253408 -8.729997 -41.155628
-28.594433 -8.952946 -39.96273
-28.501579 -10.030112 -40.200085
-27.930077 -8.441547 -42.376587
-28.022932 -7.364382 -42.139232
-28.253408 -8.729997 -41.155628
-28.002723 -10.878398 -41.490698
-28.44513 -11.144945 -40.385115
-27.768963 -9.48791 -42.515696
-28.002723 -10.878398 -41.490698
-27.930077 -8.441547 -42.376587
-27.768963 -9.48791 -42.515696
-27.726971 -15.457562 -40.457554
-27.512469 -16.530458 -40.311898
-13.265701 -50.800432 -9.269721
-12.565774 -51.253052 -8.543579
-12.797959 -52.008173 -9.255773
-13.265701 -50.800432 -9.269721
-14.095779 -50.396921 -10.016172
-27.67294 -28.449692 -32.914301
-27.22475 -29.460606 -32.612131
-27.50693 -27.247747 -33.971464
-27.67294 -28.449692 -32.914301
-26.999327 -27.046607 -34.72419
-27.369858 -26.014091 -35.035616
-27.50693 -27.247747 -33.971464
-26.627425 -26.892381 -35.388075
-26.999327 -27.046607 -34.72419
-26.764497 -28.126038 -34.323923
-26.564366 -25.632023 -36.449393
-26.627425 -26.892381 -35.388075
-23.907311 -41.932438 -22.686861
-23.409782 -42.800278 -21.784721
-24.379236 -41.002144 -23.581087
-23.907311 -41.932438 -22.686861
-23.675745 -42.081135 -23.224888
-24.77189 -40.07396 -24.510483
-24.379236 -41.002144 -23.581087
-25.144685 -39.08926 -25.439351
-24.77189 -40.07396 -24.510483
-24.520466 -40.166141 -25.047981
-25.428261 -38.100994 -26.396653
-25.144685 -39.08926 -25.439351
-25.701414 -37.061754 -27.359642
-25.428261 -38.100994 -26.396653
-25.166415 -38.142202 -26.939839
-25.878456 -36.014348 -28.344938
-26.140303 -35.97314 -27.801752
-25.701414 -37.061754 -27.359642
-24.937224 -39.735841 -27.19669
-24.54021 -40.840283 -26.248632
-25.05292 -38.407072 -27.825415
-24.937224 -39.735841 -27.19669
-25.389696 -37.208731 -28.350973
-25.102792 -38.301304 -27.37727
-25.05292 -38.407072 -27.825415
-25.620313 -36.009664 -28.897527
-25.389696 -37.208731 -28.350973
-25.570441 -36.115433 -29.345672
-26.24389 -32.67021 -31.373451
-26.140048 -33.816187 -30.351711
-25.904901 -33.77039 -30.913967
-26.247379 -31.510226 -32.408945
-26.482526 -31.556023 -31.846689
-26.24389 -32.67021 -31.373451
-26.297933 -30.314017 -33.450485
-26.247379 -31.510226 -32.408945
-26.439305 -29.183926 -33.934995
-26.297933 -30.314017 -33.450485
3 0 49 47
3 0 51 49
3 2 54 52
3 1 205 206
3 207 57 208
3 209 208 55
3 207 208 209
3 211 210 57
3 212 60 213
3 214 62 215
3 216 215 60
3 214 215 216
3 3 217 218
3 4 65 63
3 5 68 66
3 5 219 221
3 221 220 68
3 219 220 221
3 5 222 224
3 222 69 223
3 222 223 224
3 7 72 70
3 7 74 72
3 225 77 226
3 227 226 75
3 225 226 227
3 228 79 229
3 230 81 231
3 232 231 79
3 230 231 232
3 234 233 81
3 235 83 236
3 237 85 238
3 239 238 83
3 237 238 239
3 9 88 87
3 9 90 88
3 6 240 241
3 10 94 92
3 10 96 94
3 10 98 96
3 242 100 243
3 244 103 245
3 246 245 101
3 244 245 246
3 248 247 103
3 8 249 251
3 251 250 104
3 249 250 251
3 11 252 253
3 11 254 256
3 254 105 255
3 254 255 256
3 12 109 107
3 14 110 48
3 14 111 110
3 14 113 111
3 16 114 50
3 16 115 114
3 17 116 53
3 17 117 116
3 18 120 118
3 20 121 56
3 20 122 121
3 20 124 122
3 258 257 58
3 259 125 260
3 22 126 59
3 22 127 126
3 22 261 263
3 263 262 127
3 261 262 263
3 265 264 61
3 23 266 268
3 268 267 128
3 266 267 268
3 24 131 129
3 25 134 132
3 26 135 64
3 26 269 271
3 271 270 135
3 269 270 271
3 13 136 108
3 272 137 273
3 274 273 67
3 272 273 274
3 276 275 137
3 27 277 278
3 27 279 281
3 279 138 280
3 279 280 281
3 15 139 112
3 28 140 71
3 28 141 140
3 28 142 141
3 29 143 73
3 29 144 143
3 282 145 283
3 284 146 285
3 286 285 145
3 284 285 286
3 287 147 288
3 289 148 290
3 291 290 147
3 289 290 291
3 30 151 149
3 31 152 76
3 31 292 294
3 294 293 152
3 292 293 294
3 295 153 296
3 32 154 78
3 32 155 154
3 32 156 155
3 33 157 80
3 33 158 157
3 33 160 158
3 35 161 82
3 35 162 161
3 35 163 162
3 36 164 84
3 36 165 164
3 37 297 299
3 297 166 298
3 297 298 299
3 37 167 166
3 37 168 167
3 300 169 301
3 302 301 86
3 300 301 302
3 303 170 304
3 305 304 169
3 303 304 305
3 38 306 308
3 308 307 89
3 306 307 308
3 38 309 311
3 309 171 310
3 309 310 311
3 312 172 313
3 314 313 130
3 312 313 314
3 315 173 316
3 317 174 318
3 319 318 173
3 317 318 319
3 320 175 321
3 322 176 323
3 324 323 175
3 322 323 324
3 39 177 91
3 39 178 177
3 39 179 178
3 325 180 326
3 328 327 180
3 329 181 330
3 331 182 332
3 333 183 334
3 335 334 182
3 333 334 335
3 336 184 337
3 338 185 339
3 340 339 184
3 338 339 340
3 342 341 133
3 40 343 345
3 343 186 344
3 343 344 345
3 40 187 186
3 19 188 119
3 41 346 348
3 348 347 93
3 346 347 348
3 41 349 350
3 41 351 353
3 351 189 352
3 351 352 353
3 42 190 95
3 42 191 190
3 42 192 191
3 355 354 97
3 357 356 123
3 358 193 359
3 43 194 99
3 43 360 362
3 362 361 194
3 360 361 362
3 21 363 365
3 363 195 364
3 363 364 365
3 44 196 102
3 44 197 196
3 44 198 197
3 366 199 367
3 369 368 150
3 45 370 372
3 370 200 371
3 370 371 372
3 45 373 375
3 375 374 200
3 373 374 375
3 34 201 159
3 46 202 106
3 46 203 202
3 376 204 377
3 379 378 204
3 47 48 12
3 49 48 47
3 49 14 48
3 49 50 14
3 51 50 49
3 51 16 50
3 52 380 382
3 380 53 381
3 380 381 382
3 54 53 52
3 54 17 53
3 55 56 18
3 57 56 55
3 57 20 56
3 57 58 20
3 383 58 384
3 385 384 57
3 383 384 385
3 387 386 58
3 388 59 389
3 60 390 392
3 390 59 391
3 390 391 392
3 60 22 59
3 60 61 22
3 62 61 60
3 62 393 395
3 395 394 61
3 393 394 395
3 397 396 23
3 399 398 24
3 63 64 25
3 65 64 63
3 65 26 64
3 66 67 13
3 68 67 66
3 68 400 402
3 402 401 67
3 400 401 402
3 68 403 404
3 406 405 68
3 69 407 408
3 69 409 411
3 409 27 410
3 409 410 411
3 70 71 15
3 72 71 70
3 72 28 71
3 72 73 28
3 74 73 72
3 74 29 73
3 75 76 30
3 77 76 75
3 77 31 76
3 412 78 413
3 79 414 416
3 414 78 415
3 414 415 416
3 79 32 78
3 79 80 32
3 81 80 79
3 81 33 80
3 81 417 419
3 419 418 33
3 417 418 419
3 421 420 81
3 422 82 423
3 83 424 426
3 424 82 425
3 424 425 426
3 83 35 82
3 83 84 35
3 85 84 83
3 85 36 84
3 427 37 428
3 429 86 430
3 431 430 37
3 429 430 431
3 432 86 433
3 435 434 86
3 87 436 437
3 88 438 440
3 440 439 87
3 438 439 440
3 88 441 442
3 88 443 445
3 443 89 444
3 443 444 445
3 90 89 88
3 90 38 89
3 446 91 447
3 448 91 449
3 450 39 451
3 452 451 91
3 450 451 452
3 454 453 39
3 455 40 456
3 92 93 19
3 94 93 92
3 94 41 93
3 94 95 41
3 96 95 94
3 96 42 95
3 96 97 42
3 98 97 96
3 98 457 459
3 459 458 97
3 457 458 459
3 460 99 461
3 100 462 464
3 462 99 463
3 462 463 464
3 100 43 99
3 101 102 21
3 103 102 101
3 103 44 102
3 103 465 467
3 467 466 44
3 465 466 467
3 469 468 103
3 104 470 471
3 473 472 104
3 105 474 475
3 105 476 478
3 476 45 477
3 476 477 478
3 479 106 480
3 481 480 34
3 479 480 481
3 482 106 483
3 484 46 485
3 486 485 106
3 484 485 486
3 107 108 4
3 109 108 107
3 109 13 108
3 48 109 12
3 110 109 48
3 110 13 109
3 110 66 13
3 111 66 110
3 111 5 66
3 111 112 5
3 113 112 111
3 113 15 112
3 50 113 14
3 114 113 50
3 114 15 113
3 114 70 15
3 115 70 114
3 115 7 70
3 53 487 488
3 116 489 491
3 491 490 53
3 489 490 491
3 116 492 493
3 116 494 496
3 494 87 495
3 494 495 496
3 117 87 116
3 117 9 87
3 118 119 6
3 120 119 118
3 120 19 119
3 56 120 18
3 121 120 56
3 121 19 120
3 121 92 19
3 122 92 121
3 122 10 92
3 122 123 10
3 124 123 122
3 124 497 499
3 499 498 123
3 497 498 499
3 58 124 20
3 500 124 501
3 502 501 58
3 500 501 502
3 504 503 124
3 125 505 506
3 125 507 509
3 507 21 508
3 507 508 509
3 59 510 512
3 510 125 511
3 510 511 512
3 126 125 59
3 126 21 125
3 126 101 21
3 127 101 126
3 127 513 515
3 515 514 101
3 513 514 515
3 127 516 517
3 519 518 127
3 61 520 522
3 522 521 22
3 520 521 522
3 524 523 61
3 128 525 527
3 527 526 8
3 525 526 527
3 529 528 128
3 531 530 23
3 532 11 533
3 129 130 2
3 131 130 129
3 131 534 536
3 536 535 130
3 534 535 536
3 537 131 538
3 539 538 24
3 537 538 539
3 540 131 541
3 543 542 131
3 132 133 1
3 134 133 132
3 134 544 546
3 546 545 133
3 544 545 546
3 64 134 25
3 135 134 64
3 135 547 549
3 549 548 134
3 547 548 549
3 135 550 551
3 553 552 135
3 108 65 4
3 136 65 108
3 136 26 65
3 67 136 13
3 137 136 67
3 137 26 136
3 137 554 556
3 556 555 26
3 554 555 556
3 558 557 137
3 138 559 560
3 138 561 563
3 561 6 562
3 561 562 563
3 112 69 5
3 139 69 112
3 139 27 69
3 71 139 15
3 140 139 71
3 140 27 139
3 140 138 27
3 141 138 140
3 141 6 138
3 141 118 6
3 142 118 141
3 142 18 118
3 73 142 28
3 143 142 73
3 143 18 142
3 143 55 18
3 144 55 143
3 144 564 566
3 566 565 55
3 564 565 566
3 567 104 568
3 569 104 570
3 571 8 572
3 573 572 104
3 571 572 573
3 145 574 575
3 145 576 578
3 576 8 577
3 576 577 578
3 145 128 8
3 146 128 145
3 146 23 128
3 579 146 580
3 147 581 583
3 581 146 582
3 581 582 583
3 147 23 146
3 147 584 586
3 586 585 23
3 584 585 586
3 148 587 589
3 589 588 147
3 587 588 589
3 148 590 591
3 149 150 3
3 151 150 149
3 151 592 594
3 594 593 150
3 592 593 594
3 76 151 30
3 152 151 76
3 152 595 597
3 597 596 151
3 595 596 597
3 152 598 599
3 601 600 152
3 602 77 603
3 153 604 606
3 604 77 605
3 604 605 606
3 153 31 77
3 78 607 609
3 607 153 608
3 607 608 609
3 154 153 78
3 154 31 153
3 154 610 612
3 612 611 31
3 610 611 612
3 155 613 615
3 615 614 154
3 613 614 615
3 155 616 617
3 155 618 619
3 156 620 622
3 622 621 155
3 620 621 622
3 156 623 624
3 80 156 32
3 157 156 80
3 157 625 627
3 627 626 156
3 625 626 627
3 157 628 629
3 158 630 632
3 632 631 157
3 630 631 632
3 158 633 634
3 158 635 637
3 635 159 636
3 635 636 637
3 160 159 158
3 160 34 159
3 638 160 639
3 640 639 33
3 638 639 640
3 641 160 642
3 643 34 644
3 645 644 160
3 643 644 645
3 647 646 34
3 648 1 649
3 82 650 651
3 161 652 654
3 654 653 82
3 652 653 654
3 161 655 656
3 161 657 658
3 162 659 661
3 661 660 161
3 659 660 661
3 162 662 664
3 662 1 663
3 662 663 664
3 162 132 1
3 163 132 162
3 163 25 132
3 84 163 35
3 164 163 84
3 164 25 163
3 164 63 25
3 165 63 164
3 165 4 63
3 665 85 666
3 667 85 668
3 669 36 670
3 671 670 85
3 669 670 671
3 166 672 673
3 166 674 676
3 674 36 675
3 674 675 676
3 166 165 36
3 167 165 166
3 167 4 165
3 167 107 4
3 168 107 167
3 168 12 107
3 86 168 37
3 169 168 86
3 169 12 168
3 169 47 12
3 170 47 169
3 170 0 47
3 89 677 678
3 680 679 89
3 171 681 682
3 171 683 685
3 683 3 684
3 683 684 685
3 130 54 2
3 172 54 130
3 172 17 54
3 686 172 687
3 173 688 690
3 688 172 689
3 688 689 690
3 173 17 172
3 173 117 17
3 174 117 173
3 174 9 117
3 691 174 692
3 175 693 695
3 693 174 694
3 693 694 695
3 175 9 174
3 175 90 9
3 176 90 175
3 176 38 90
3 91 696 698
3 696 176 697
3 696 697 698
3 177 176 91
3 177 38 176
3 177 171 38
3 178 171 177
3 178 3 171
3 178 149 3
3 179 149 178
3 179 30 149
3 699 179 700
3 701 700 39
3 699 700 701
3 180 702 704
3 702 179 703
3 702 703 704
3 180 30 179
3 180 75 30
3 705 75 706
3 707 706 180
3 705 706 707
3 709 708 75
3 710 170 711
3 712 170 713
3 714 0 715
3 716 715 170
3 714 715 716
3 717 0 718
3 719 51 720
3 721 720 0
3 719 720 721
3 181 722 724
3 722 51 723
3 722 723 724
3 181 16 51
3 725 181 726
3 182 727 729
3 727 181 728
3 727 728 729
3 182 16 181
3 182 115 16
3 183 115 182
3 183 7 115
3 730 183 731
3 184 732 734
3 732 183 733
3 732 733 734
3 184 7 183
3 184 74 7
3 185 74 184
3 185 29 74
3 735 185 736
3 737 185 738
3 739 29 740
3 741 740 185
3 739 740 741
3 742 144 743
3 744 743 29
3 742 743 744
3 745 144 746
3 748 747 144
3 133 749 751
3 751 750 1
3 749 750 751
3 753 752 133
3 186 754 755
3 186 756 757
3 186 758 760
3 758 52 759
3 758 759 760
3 187 52 186
3 187 2 52
3 119 761 763
3 763 762 6
3 761 762 763
3 188 764 766
3 766 765 119
3 764 765 766
3 188 767 768
3 93 188 19
3 769 188 770
3 771 770 93
3 769 770 771
3 773 772 188
3 189 774 775
3 189 776 778
3 776 40 777
3 776 777 778
3 95 189 41
3 190 189 95
3 190 40 189
3 190 187 40
3 191 187 190
3 191 2 187
3 191 129 2
3 192 129 191
3 192 24 129
3 97 192 42
3 779 192 780
3 781 780 97
3 779 780 781
3 782 24 783
3 784 783 192
3 782 783 784
3 786 785 24
3 123 98 10
3 787 98 788
3 789 788 123
3 787 788 789
3 791 790 98
3 193 792 793
3 193 794 795
3 99 796 798
3 796 193 797
3 796 797 798
3 194 193 99
3 194 799 801
3 801 800 193
3 799 800 801
3 194 802 803
3 805 804 194
3 195 806 807
3 195 808 809
3 102 195 21
3 196 195 102
3 196 810 812
3 812 811 195
3 810 811 812
3 196 813 814
3 197 815 817
3 817 816 196
3 815 816 817
3 197 818 819
3 197 820 822
3 820 100 821
3 820 821 822
3 198 100 197
3 198 43 100
3 823 198 824
3 825 824 44
3 823 824 825
3 826 198 827
3 828 43 829
3 830 829 198
3 828 829 830
3 832 831 43
3 833 62 834
3 199 835 837
3 835 62 836
3 835 836 837
3 199 838 840
3 840 839 62
3 838 839 840
3 841 199 842
3 843 199 844
3 846 845 199
3 848 847 8
3 150 849 851
3 851 850 3
3 849 850 851
3 853 852 150
3 200 854 855
3 200 856 857
3 200 858 860
3 858 148 859
3 858 859 860
3 861 148 862
3 863 862 200
3 861 862 863
3 865 864 148
3 159 866 867
3 201 868 870
3 870 869 159
3 868 869 870
3 201 871 872
3 106 201 34
3 202 201 106
3 202 873 875
3 875 874 201
3 873 874 875
3 202 876 877
3 203 878 880
3 880 879 202
3 878 879 880
3 203 881 883
3 881 11 882
3 881 882 883
3 884 46 885
3 886 46 887
3 888 203 889
3 890 889 46
3 888 889 890
3 204 891 893
3 891 203 892
3 891 892 893
3 204 11 203
3 204 105 11
3 894 105 895
3 896 895 204
3 894 895 896
3 897 45 898
3 899 898 105
3 897 898 899
3 900 45 901
3 903 902 45
