ply
format ascii 1.0
element vertex 1105
property float x
property float y
property float z
element face 1142
property list uchar int vertex_index
end_header
69.877029 -9.418596 30.266304
51.639511 -32.794903 52.631256
3.590025 -52.441551 72.396652
4.372818 -56.422585 87.118919
62.929413 -19.970882 45.467152
42.395203 -34.521881 67.832436
70.800636 -9.901105 23.503925
0.533854 -45.019615 78.97171
3.38047 -41.620026 68.261215
28.321741 -43.456738 75.62883
20.623325 -44.430649 81.431229
0.579529 -47.316475 87.757957
2.225525 -55.116833 81.77832
35.379749 -36.983078 74.782715
34.451332 -42.006218 67.993462
58.108303 -26.096977 50.846519
5.43852 -49.703064 62.152931
6.019957 -38.019035 58.297752
66.839317 -14.185835 37.854446
58.328865 -18.218994 51.321281
53.936371 -24.515652 57.175278
46.994091 -32.164223 59.064026
38.970741 -40.016441 58.660324
70.742874 -9.539621 27.122898
70.250702 -13.832081 27.35297
69.943283 -12.74904 30.803173
27.473053 -40.581276 78.395256
24.59152 -43.941124 78.654922
23.071331 -40.878899 80.869461
0.05167 -46.411976 83.857628
30.916691 -37.584888 77.27697
31.6129 -40.1651 75.574692
55.070618 -29.388882 52.214859
4.671547 -51.051052 67.229904
4.714169 -51.800701 89.450264
7.751764 -51.263889 88.876251
7.030369 -56.217968 87.301506
2.628468 -53.844887 77.358864
56.425415 -21.19733 54.716339
46.088963 -30.360872 66.730743
48.642082 -28.939919 62.730072
44.875946 -33.110538 63.477745
42.9142 -36.12851 58.937027
40.735016 -37.146191 63.534851
31.657032 -45.63134 68.077118
33.739655 -44.72805 63.486992
64.93132 -17.051647 41.843452
66.768883 -18.629444 38.845787
64.96122 -21.536032 42.63092
2.490606 -48.757187 75.711609
3.816372 -47.249786 70.375893
1.753569 -43.363972 73.650269
29.164598 -46.438511 72.148979
26.175505 -47.167068 75.650917
22.767311 -47.89254 78.712585
19.069284 -48.675446 81.545082
2.259863 -47.585098 90.074715
2.586542 -51.826485 88.169052
2.746439 -56.038506 85.196663
1.570154 -51.24876 85.108192
1.622076 -50.156853 80.764801
39.256195 -35.930672 71.659302
38.286774 -38.385384 68.101311
35.267776 -39.451599 72.171425
31.648367 -42.846184 72.116562
60.704067 -22.964016 48.54068
47.979713 -36.264526 52.291237
5.541294 -48.349174 57.483086
5.172564 -45.732811 65.051636
6.073835 -44.193687 60.022057
6.083179 -42.577122 55.615578
5.981609 -36.094109 54.291222
15.212624 -49.535141 84.31353
11.359909 -50.437668 86.923996
68.620956 -11.495734 33.741329
62.630909 -15.916327 44.654137
60.74456 -18.809645 48.370758
58.585106 -21.789787 51.452217
55.960098 -24.972113 53.670197
52.786957 -28.408407 54.911247
51.688416 -24.924677 60.963203
50.761421 -28.222511 58.584915
49.136597 -32.040131 55.255493
45.224823 -35.762276 54.980782
41.385513 -39.521675 54.516556
36.793819 -40.977081 63.37014
35.722729 -43.862556 58.707764
69.714226 -6.351835 27.852922
70.681694 -5.640094 23.92355
68.47789 -15.700169 34.823189
70.35463 -9.438058 28.865263
70.451607 -11.21174 28.909546
70.01255 -10.839113 30.507259
26.881624 -39.207939 79.151115
25.292309 -40.732937 79.658226
24.553146 -39.330818 80.262817
29.166012 -39.06105 77.978035
53.396317 -31.08157 52.535004
4.143803 -51.740288 69.820648
4.578653 -54.115047 88.422096
5.891794 -53.984745 88.542381
5.586824 -56.390335 87.424141
3.066183 -53.147984 74.922157
42.830807 -33.268951 69.311844
44.327061 -32.469212 67.407089
45.651001 -31.70142 65.358574
43.7033 -33.787464 65.698395
42.821236 -35.155731 63.565598
41.651199 -35.812843 65.846542
63.948341 -18.505676 43.711693
64.96286 -19.253033 42.25499
63.972588 -20.714556 44.044636
70.345871 -10.111694 21.844437
70.229095 -12.290451 23.677349
1.570671 -46.89933 77.344696
2.175428 -46.119659 74.687386
1.070763 -44.211399 76.338226
28.712738 -44.939354 73.90947
27.729721 -46.808151 73.96608
27.080193 -45.249031 75.601524
22.628189 -44.178223 80.058792
23.534988 -45.839645 78.672279
21.658875 -46.145138 80.109016
20.946453 -48.274559 80.143944
19.7351 -46.469574 81.51799
0.174103 -45.315269 88.732544
1.055355 -45.482201 89.85891
1.275251 -47.533016 89.145103
2.408415 -49.704136 89.279755
1.598173 -49.578018 88.123085
1.936117 -51.611496 86.835953
1.076515 -49.293091 86.536133
0.181921 -45.76292 81.499596
0.862574 -48.297455 82.356346
1.119276 -47.634338 79.919403
1.975117 -49.481388 78.295975
34.988178 -35.769981 75.180916
37.204872 -35.316303 73.966263
39.265152 -34.734894 72.59343
37.405216 -36.514107 73.309113
37.267628 -37.726906 72.020645
35.458141 -38.20911 73.750282
29.858852 -41.773479 75.651962
31.675447 -41.493305 73.992249
30.045753 -43.175598 73.945427
30.228975 -44.601776 72.081215
59.459484 -24.510048 49.80275
60.614845 -25.231842 48.581718
59.311829 -26.809168 49.718918
5.588375 -49.031006 59.747063
3.661053 -44.505241 69.28907
4.520149 -46.491245 67.695763
4.435835 -43.690147 66.613441
5.734022 -42.040482 61.471085
6.122597 -41.19294 59.080956
6.20978 -43.397915 57.720779
6.258703 -40.321823 56.867203
6.105011 -39.423912 54.866486
6.156466 -37.069767 56.183403
9.10129 -53.379128 87.542236
9.506516 -50.87191 88.027176
10.909624 -52.957596 86.57605
12.796728 -52.492332 85.422707
12.322805 -55.072727 85.005058
2.353502 -55.635353 83.64534
59.13736 -16.794682 49.358963
60.473129 -16.997902 47.98114
59.579269 -18.434904 49.846413
59.712669 -20.281416 50.006386
58.608894 -19.897255 51.548759
55.264793 -22.8057 56.075172
56.31789 -22.984755 54.328918
54.954742 -24.643223 55.356537
54.441307 -26.659859 54.412704
53.434685 -26.38516 56.128319
51.535759 -23.528503 61.374893
50.39238 -25.451563 62.801819
47.913754 -30.504757 61.043564
49.736214 -28.473923 60.63855
48.938499 -30.178356 58.924652
49.955383 -30.076591 56.944168
48.038651 -31.987366 57.04158
47.195 -33.895233 55.171349
46.048496 -33.914219 56.987251
40.891624 -38.081917 58.786522
42.035076 -37.766525 56.642502
40.124943 -39.686333 56.472939
39.622509 -41.41914 54.364716
38.363403 -41.607132 56.384644
36.284836 -40.212185 68.059685
37.541039 -39.656113 65.794769
35.666515 -41.504307 65.725632
33.602463 -46.184185 61.371056
34.717113 -44.274864 61.088554
70.302094 -5.921188 25.872986
67.759003 -12.803512 35.788792
68.628426 -13.508846 34.348419
67.763161 -14.915991 36.384369
70.916115 -9.702675 25.292957
70.61409 -11.937985 25.373434
70.671356 -11.574017 27.152294
70.236176 -13.304281 29.105782
69.646507 -14.933146 31.125359
27.932449 -42.000477 77.175598
26.496252 -43.706024 77.18895
25.922247 -42.195232 78.592072
23.852737 -42.378799 79.934662
21.744152 -42.569702 81.236862
-0.410807 -44.978931 87.173195
0.175877 -46.937836 85.97049
-0.70409 -44.482162 85.244743
32.647766 -36.100311 76.264832
33.205864 -37.335327 76.096657
33.486263 -38.584969 75.307137
31.37825 -38.862297 76.707626
29.589426 -40.400299 77.045212
56.644669 -27.724815 51.653351
4.540941 -52.891945 65.687622
5.119438 -50.373734 64.660942
5.795219 -34.673012 57.710602
4.833925 -49.503807 90.152245
6.383398 -49.21973 89.881256
6.139299 -51.583813 89.376663
7.413837 -53.730824 88.22715
57.437054 -19.676702 53.120567
56.162548 -19.633778 54.692825
55.230865 -21.179045 56.402512
54.137283 -22.833347 57.868568
47.638496 -28.239887 65.775925
49.02536 -27.485329 63.936462
47.437927 -29.585537 64.782295
46.833199 -31.027588 63.215057
45.956501 -32.551651 61.238892
44.968853 -34.153587 59.049736
43.91013 -34.583321 61.272415
41.833191 -36.580666 61.200508
39.796051 -38.538712 61.084892
32.883396 -43.802559 67.977005
34.038551 -43.339378 65.718475
32.735115 -45.187748 65.833504
65.893295 -15.608656 39.883484
66.853218 -16.351046 38.40303
65.919289 -17.799028 40.367775
65.880096 -20.083733 40.778061
3.188578 -50.605412 74.064911
3.800932 -49.883743 71.439941
3.121357 -48.007835 73.058914
2.888775 -45.316986 71.990646
2.539742 -42.496468 70.947357
25.348011 -45.544682 77.179802
24.515867 -47.525555 77.224396
18.576929 -51.023006 81.533997
3.495922 -49.674194 89.960327
3.518936 -51.887482 89.050156
3.51236 -54.103119 87.835838
3.420059 -56.304947 86.37001
2.71875 -53.940693 86.791451
2.208426 -53.631165 85.329315
1.974806 -53.189056 83.511833
0.838026 -48.859406 84.587646
1.474682 -50.755539 83.058968
1.995312 -52.637508 81.410866
2.234669 -52.004501 79.096642
2.648886 -51.31868 76.631004
41.14447 -34.040916 71.043961
40.918907 -35.253731 69.829651
40.355122 -36.494621 68.046585
38.899784 -37.146729 70.115089
36.858864 -38.957451 70.21595
34.896088 -40.714516 70.195831
33.514061 -39.853603 73.956093
33.359318 -41.143066 72.176132
33.117012 -42.457104 70.131233
31.618814 -44.224731 70.103653
30.472633 -46.048378 70.186607
61.854782 -21.453848 47.085957
62.93045 -22.19142 45.714264
61.816944 -23.694132 47.236778
49.824276 -34.52314 52.535019
4.430498 -49.164783 68.791939
5.019835 -48.451725 66.155403
5.511156 -47.741318 63.567062
5.14954 -42.870476 63.995468
5.71076 -44.969509 62.480057
5.849798 -47.026375 61.067451
5.989428 -46.298615 58.699409
5.89801 -45.551071 56.503319
18.590538 -44.708443 82.796608
17.777386 -46.818535 82.919624
17.151989 -49.096298 82.934303
16.660904 -51.511456 82.859077
8.099384 -48.855499 89.210632
9.936916 -48.445061 88.227898
13.272943 -49.986053 85.660378
14.724787 -52.004917 84.164536
69.217216 -8.672034 30.985012
69.365623 -10.320383 31.814941
68.45475 -9.651948 32.929085
67.590485 -10.846105 35.002777
64.783836 -14.97509 41.292221
63.831947 -16.416346 43.272331
62.862076 -17.866926 45.152138
61.707863 -17.358711 46.576607
61.854286 -19.328312 46.9086
60.785202 -20.808571 48.515358
59.631714 -22.318983 49.943726
58.374054 -23.870424 51.166107
57.530323 -21.407135 53.052917
57.339336 -23.349846 52.680267
56.99836 -25.470268 52.160301
55.498596 -27.120522 52.913208
53.877571 -28.817524 53.423317
52.147087 -30.55335 53.701813
52.901531 -23.076063 59.653099
52.860241 -24.608337 59.066368
50.267136 -26.890858 61.986832
51.391415 -26.496675 59.98716
52.43335 -26.326355 58.00927
51.762856 -28.202045 56.650764
51.011017 -30.206625 55.182426
50.327232 -32.31831 53.772797
48.445236 -34.103867 53.672928
46.534397 -35.904987 53.450302
44.633171 -37.721169 53.162148
44.029629 -35.842758 56.834442
43.271301 -37.637337 54.741974
39.567932 -37.766365 65.857735
38.696499 -39.082054 63.447945
37.877827 -40.464439 60.988922
35.115799 -42.852165 63.364845
36.160145 -42.371658 60.972977
37.224758 -41.940376 58.617393
36.813026 -43.533699 56.428192
68.983643 -6.994239 29.849236
69.874458 -8.065342 29.167057
70.268654 -7.790622 20.191257
70.787323 -7.711588 21.799143
70.955254 -7.667588 23.571524
70.814194 -7.683619 25.444366
70.427673 -7.795396 27.337048
69.403427 -12.148481 32.356857
69.263649 -14.229633 32.79023
68.953735 -16.49855 33.181553
67.636971 -17.16787 36.853157
25.340319 -38.606459 79.81601
25.717385 -39.269379 79.706966
26.504557 -38.545019 79.260159
26.504557 -38.545019 79.260159
27.714206 -38.482495 78.75351
52.364208 -33.109735 52.230412
53.242611 -32.253069 52.182285
52.517914 -31.938236 52.58313
3.866914 -52.090919 71.10865
3.904466 -52.995758 70.26228
3.627577 -53.34639 71.550282
4.780668 -57.599655 86.595089
5.387671 -57.58353 86.7477
4.979821 -56.40646 87.27153
4.217718 -57.564224 86.355961
4.780668 -57.599655 86.595089
3.390455 -53.700079 72.782806
3.128534 -54.053296 74.045559
3.328104 -52.794767 73.659404
3.627577 -53.34639 71.550282
3.390455 -53.700079 72.782806
5.22603 -50.656328 61.477101
5.142482 -50.973282 62.681095
5.513447 -49.367035 60.949997
5.300957 -50.320299 60.274166
5.22603 -50.656328 61.477101
6.071277 -39.605987 58.689354
5.866175 -40.068261 59.841381
5.814855 -38.481308 59.44978
10.675837 -54.24593 86.291668
10.005457 -53.168362 87.059143
9.77167 -54.456696 86.774761
11.382427 -55.303495 85.506172
11.616215 -54.015162 85.790554
10.675837 -54.24593 86.291668
12.056123 -56.380455 84.712704
11.382427 -55.303495 85.506172
2.280807 -56.368576 81.799118
2.344796 -56.627836 82.732628
2.289513 -55.376093 82.71183
58.733113 -17.506838 50.340122
58.409136 -16.773264 50.030873
58.004888 -17.48542 51.012031
49.672705 -25.805515 63.665108
50.211129 -24.811245 62.895263
34.060641 -45.986065 60.168671
33.62141 -46.949829 60.388599
-0.85554 -43.736483 86.828259
-0.617258 -43.977732 87.665077
-1.002181 -43.488098 85.864033
-0.557449 -44.730547 86.208969
-0.85554 -43.736483 86.828259
31.782228 -36.842599 76.770901
31.433431 -36.213855 76.757855
30.567893 -36.956144 77.263924
55.729134 -29.730518 51.745914
56.51616 -28.898485 51.46516
55.857644 -28.556849 51.934105
4.606244 -51.971498 66.458763
4.336613 -53.226354 66.942902
4.401916 -52.305908 67.714043
7.846852 -56.071251 87.052216
8.038586 -54.827679 87.515038
7.222103 -54.974396 87.764328
7.588973 -57.345629 86.572315
7.846852 -56.071251 87.052216
2.536732 -55.107329 77.592762
2.479956 -54.177571 78.510479
55.816496 -18.961709 54.444801
56.563925 -18.901928 53.735096
54.574101 -21.270232 57.235032
54.995891 -20.47694 56.318478
54.02731 -22.097383 57.96806
54.684074 -22.006196 57.13554
54.574101 -21.270232 57.235032
46.087874 -29.730866 67.096436
45.32892 -30.783501 67.62989
46.86373 -29.300379 66.253334
46.86264 -28.670374 66.619027
46.087874 -29.730866 67.096436
65.403702 -21.974453 41.920967
65.86314 -21.248303 40.994537
65.420658 -20.809883 41.704491
70.097531 -14.079679 26.496478
70.279224 -13.132631 25.50671
70.432396 -12.885033 26.363202
28.818013 -47.403914 72.260059
29.435473 -47.192043 71.289428
26.637834 -47.977802 74.908028
27.414942 -47.798344 74.065609
26.952613 -46.98761 74.808499
25.886822 -48.188643 75.736805
26.637834 -47.977802 74.908028
23.372585 -48.766758 78.037415
24.246863 -48.583265 77.29332
23.641589 -47.709047 77.968491
22.511387 -48.989099 78.760525
23.372585 -48.766758 78.037415
19.759036 -49.610989 80.867485
20.69762 -49.410545 80.166916
20.007869 -48.475003 80.844513
18.823107 -49.849226 81.539539
19.512859 -50.784769 80.861942
19.759036 -49.610989 80.867485
2.24061 -46.534729 90.294072
1.638356 -45.483281 90.186169
1.657609 -46.53365 89.966813
2.886842 -47.534566 90.296738
2.24061 -46.534729 90.294072
2.877893 -48.629646 90.017521
3.504872 -48.579115 90.239544
2.886842 -47.534566 90.296738
29.435473 -47.192043 71.289428
30.08949 -46.996977 70.308243
29.818615 -46.243444 71.167793
61.223374 -25.618081 48.025898
60.609966 -26.400241 48.659714
48.773724 -36.537799 51.90305
49.696005 -35.667107 52.02494
48.901995 -35.393833 52.413128
5.197013 -49.349838 56.911507
5.280082 -49.665401 57.991982
5.41352 -48.000057 56.438118
5.069239 -49.000721 55.866539
5.197013 -49.349838 56.911507
5.067458 -41.35915 63.525658
4.683777 -41.804245 64.808033
5.82308 -43.678437 55.062618
5.730495 -45.165411 55.506489
5.990595 -44.064097 56.059449
5.882404 -42.153338 54.674499
5.82308 -43.678437 55.062618
5.816126 -37.296577 53.695965
5.877828 -38.961479 53.983597
6.04331 -37.759011 54.578854
5.734421 -35.593447 53.464008
5.816126 -37.296577 53.695965
5.862164 -34.159988 56.70467
5.636853 -32.917343 57.52483
17.566166 -44.863377 83.481827
18.029339 -43.868332 83.311409
17.15959 -45.918423 83.543335
18.183962 -45.763489 82.858116
17.566166 -44.863377 83.481827
16.182306 -49.31572 83.623917
16.475808 -48.145456 83.627174
15.506126 -48.364878 84.316788
11.607373 -49.227862 86.976688
10.895876 -48.231558 87.628639
10.648412 -49.441365 87.575947
12.316426 -50.211861 86.292187
12.56389 -49.002054 86.344879
11.607373 -49.227862 86.976688
14.494445 -53.284294 84.022366
13.760758 -52.248624 84.793622
13.530416 -53.528002 84.651452
15.476207 -53.016077 83.429615
14.494445 -53.284294 84.022366
2.977483 -57.259996 84.950108
3.314293 -57.393217 85.536781
3.083249 -56.171726 85.783336
68.305301 -8.771513 32.412007
68.835983 -9.161991 31.957048
68.686534 -8.281556 31.43997
66.957779 -10.561539 35.595123
67.42495 -9.927642 34.5088
67.130711 -11.504855 36.063595
66.957779 -10.561539 35.595123
64.618931 -14.01026 40.909981
65.256961 -14.263072 40.263099
63.231428 -16.166336 43.963234
63.685817 -15.446765 42.951183
63.085299 -15.196756 43.642086
42.085004 -39.538683 53.693855
43.027898 -38.596514 53.806565
42.328407 -38.579506 54.629265
41.210087 -40.467445 53.578373
42.085004 -39.538683 53.693855
39.526726 -42.357799 53.445408
38.829973 -42.375805 54.352028
68.569748 -7.442659 30.872082
68.368618 -6.548054 30.297753
68.686534 -8.281556 31.43997
69.100429 -7.833137 30.417124
68.569748 -7.442659 30.872082
70.416096 -6.583435 20.256345
70.126678 -6.566263 19.47882
70.675431 -6.543918 21.060288
70.527988 -7.751105 20.9952
70.416096 -6.583435 20.256345
70.733982 -5.554062 22.989325
70.519737 -4.534002 23.286335
70.818474 -6.653841 23.747537
70.870762 -6.567809 22.813313
70.733982 -5.554062 22.989325
63.462158 -22.594569 45.048582
62.943737 -23.337198 45.860544
29.73174 -37.670969 77.816437
30.567893 -36.956144 77.263924
28.8564 -38.40905 78.166969
30.041351 -38.322969 77.627503
29.73174 -37.670969 77.816437
28.023818 -39.134495 78.564575
28.8564 -38.40905 78.166969
27.714206 -38.482495 78.75351
54.087023 -31.411683 52.105556
54.924174 -30.565339 51.945484
54.233468 -30.235226 52.374932
54.087023 -31.411683 52.105556
53.242611 -32.253069 52.182285
4.138044 -52.650526 69.009415
3.904466 -52.995758 70.26228
4.407675 -51.39567 68.525276
4.401916 -52.305908 67.714043
4.138044 -52.650526 69.009415
6.07434 -57.542839 86.783085
6.796113 -57.456655 86.721767
6.308597 -56.304152 87.362824
6.07434 -57.542839 86.783085
5.387671 -57.58353 86.7477
2.915673 -54.409554 75.239395
2.696815 -54.758005 76.457749
2.847326 -53.496436 76.140511
2.915673 -54.409554 75.239395
3.128534 -54.053296 74.045559
43.699843 -32.237541 68.92044
42.846455 -32.663521 69.731315
44.447969 -31.837671 67.968063
43.699843 -32.237541 68.92044
43.578934 -32.869082 68.359466
45.208012 -31.415042 67.068916
45.32892 -30.783501 67.62989
44.447969 -31.837671 67.968063
31.729431 -46.349649 67.09486
31.233557 -46.571701 68.208568
69.915093 -11.364531 21.992525
69.9361 -10.214552 21.110557
69.856705 -12.453909 22.90898
69.915093 -11.364531 21.992525
70.287483 -11.201072 22.760893
69.756535 -13.534762 23.862217
69.856705 -12.453909 22.90898
69.891308 -15.032116 27.521273
69.999436 -14.718277 28.377358
0.614729 -45.398735 89.295727
0.503244 -44.386927 89.640392
0.062619 -44.303461 89.07721
35.822586 -34.949345 74.572605
34.642515 -35.166019 75.067486
36.930933 -34.722505 73.965278
35.822586 -34.949345 74.572605
36.096525 -35.543142 74.573589
38.047416 -34.436976 73.409413
36.930933 -34.722505 73.965278
38.235012 -35.025599 73.279846
39.077557 -34.146271 72.722996
38.047416 -34.436976 73.409413
59.958458 -27.188904 49.228313
60.609966 -26.400241 48.659714
59.963337 -26.020505 49.150318
47.885334 -37.39154 51.717354
47.059255 -37.143124 52.123863
5.303623 -50.006317 59.12397
5.300957 -50.320299 60.274166
5.564834 -48.69009 58.615074
5.280082 -49.665401 57.991982
5.303623 -50.006317 59.12397
5.671888 -40.492031 61.036446
5.359699 -40.944153 62.263466
5.92831 -41.616711 60.276021
5.671888 -40.492031 61.036446
5.866175 -40.068261 59.841381
14.515477 -48.565888 85.008724
15.506126 -48.364878 84.316788
13.293454 -54.818199 84.442627
13.530416 -53.528002 84.651452
12.559767 -53.782529 85.213883
13.040654 -56.122818 84.233517
13.293454 -54.818199 84.442627
13.040654 -56.122818 84.233517
12.056123 -56.380455 84.712704
2.494535 -56.874275 83.537575
2.691003 -57.075851 84.313237
2.549971 -55.836929 84.421002
2.494535 -56.874275 83.537575
2.344796 -56.627836 82.732628
62.398596 -15.024075 44.277209
63.085299 -15.196756 43.642086
58.746453 -16.068677 48.938645
58.409136 -16.773264 50.030873
59.520007 -16.08564 48.317288
58.746453 -16.068677 48.938645
59.805245 -16.896292 48.670051
60.187891 -16.18725 47.628376
59.520007 -16.08564 48.317288
50.782818 -23.849715 62.181801
51.210861 -22.920127 61.274326
50.96407 -24.490033 62.088356
50.782818 -23.849715 62.181801
50.211129 -24.811245 62.895263
38.20042 -42.469801 55.361992
38.829973 -42.375805 54.352028
38.992956 -41.513136 55.37468
34.617965 -45.031405 60.02742
34.159788 -45.229524 61.229805
34.060641 -45.986065 60.168671
35.120773 -44.82525 58.837025
35.219921 -44.06871 59.898159
34.617965 -45.031405 60.02742
35.624477 -44.66464 57.673794
35.120773 -44.82525 58.837025
70.34375 -4.746742 24.25572
70.519737 -4.534002 23.286335
70.15395 -4.887289 25.230438
70.491894 -5.780641 24.898268
70.34375 -4.746742 24.25572
69.856834 -5.173039 26.234302
70.15395 -4.887289 25.230438
69.5629 -5.388363 27.22427
70.00816 -6.136512 26.862954
69.856834 -5.173039 26.234302
67.102627 -19.06987 38.063124
66.710717 -19.800028 39.060845
69.992173 -14.454377 29.253765
69.999436 -14.718277 28.377358
70.243439 -13.568181 28.229376
69.697338 -15.268809 30.263553
69.992173 -14.454377 29.253765
69.941341 -14.118714 30.115571
69.400486 -16.106291 31.307165
69.697338 -15.268809 30.263553
0.233024 -43.640663 78.495796
0.016235 -44.057296 79.781982
-0.324803 -44.1459 88.444752
0.062619 -44.303461 89.07721
-0.118352 -45.1471 87.95287
-0.324803 -44.1459 88.444752
-0.617258 -43.977732 87.665077
-1.097367 -43.171262 84.856724
-1.002181 -43.488098 85.864033
-0.714398 -44.163622 84.134701
-1.097367 -43.171262 84.856724
-0.336518 -45.128529 83.441143
-0.32621 -45.447069 84.551186
-0.714398 -44.163622 84.134701
-0.271393 -44.804001 82.262127
0.116795 -46.087448 82.678612
-0.336518 -45.128529 83.441143
-0.159732 -44.428949 81.045925
-0.271393 -44.804001 82.262127
0.016235 -44.057296 79.781982
0.357888 -45.391267 80.235653
-0.159732 -44.428949 81.045925
32.245694 -35.484577 76.060402
31.433431 -36.213855 76.757855
33.472309 -35.331184 75.609444
32.245694 -35.484577 76.060402
33.817972 -35.935146 75.722874
34.642515 -35.166019 75.067486
33.472309 -35.331184 75.609444
57.273419 -28.074804 51.138138
58.005235 -27.260885 50.734722
57.376486 -26.910896 51.249935
57.273419 -28.074804 51.138138
56.51616 -28.898485 51.46516
55.729134 -29.730518 51.745914
54.924174 -30.565339 51.945484
4.173789 -54.109957 66.132122
4.336613 -53.226354 66.942902
4.321665 -53.783572 64.927684
4.173789 -54.109957 66.132122
4.693693 -52.567723 64.448441
4.321665 -53.783572 64.927684
4.982941 -51.308617 63.935101
4.693693 -52.567723 64.448441
4.830189 -51.63284 65.174282
5.278979 -50.038399 63.406937
5.142482 -50.973282 62.681095
4.982941 -51.308617 63.935101
3.799242 -41.17902 66.940907
3.203526 -40.095688 67.811588
5.695828 -36.84691 59.108254
5.814855 -38.481308 59.44978
5.583459 -35.173899 58.814678
5.907588 -36.346024 58.004177
5.695828 -36.84691 59.108254
5.423979 -33.454634 58.580117
5.583459 -35.173899 58.814678
5.636853 -32.917343 57.52483
5.423979 -33.454634 58.580117
5.608662 -49.361768 90.016751
5.693525 -48.236948 90.183289
4.918789 -48.378986 90.318783
8.882313 -54.651831 87.172581
8.257563 -53.554976 87.884693
8.038586 -54.827679 87.515038
9.77167 -54.456696 86.774761
8.882313 -54.651831 87.172581
7.588973 -57.345629 86.572315
6.796113 -57.456655 86.721767
2.255536 -56.073038 80.855377
2.278485 -54.813544 80.720207
2.536732 -55.107329 77.592762
2.696815 -54.758005 76.457749
57.647084 -18.194536 52.049324
58.004888 -17.48542 51.012031
57.201178 -18.92339 52.948967
57.882959 -18.947848 52.220924
57.647084 -18.194536 52.049324
56.799801 -19.65524 53.906696
57.201178 -18.92339 52.948967
56.563925 -18.901928 53.735096
55.461733 -19.704306 55.463634
55.816496 -18.961709 54.444801
55.696707 -20.406411 55.547669
55.461733 -19.704306 55.463634
54.995891 -20.47694 56.318478
47.498924 -27.621823 65.940185
46.86264 -28.670374 66.619027
48.295763 -27.199676 65.152161
47.498924 -27.621823 65.940185
48.331928 -27.862608 64.856194
48.989195 -26.822398 64.232429
48.295763 -27.199676 65.152161
32.268473 -46.127854 65.973053
32.196073 -45.409544 66.955311
31.729431 -46.349649 67.09486
32.725713 -45.903803 64.804009
32.268473 -46.127854 65.973053
33.227984 -45.673954 63.630752
33.237385 -44.957899 64.660248
32.725713 -45.903803 64.804009
33.159388 -46.402022 62.572784
33.671059 -45.456118 62.429024
33.227984 -45.673954 63.630752
33.219471 -47.143656 61.601757
33.159388 -46.402022 62.572784
33.62141 -46.949829 60.388599
33.219471 -47.143656 61.601757
66.266323 -20.527173 40.026982
66.710717 -19.800028 39.060845
66.324489 -19.356589 39.811924
66.266323 -20.527173 40.026982
65.86314 -21.248303 40.994537
70.086727 -13.308864 24.658667
70.421593 -12.114218 24.525391
70.279224 -13.132631 25.50671
69.756535 -13.534762 23.862217
70.086727 -13.308864 24.658667
70.097531 -14.079679 26.496478
69.891308 -15.032116 27.521273
0.501478 -43.236555 77.179054
0.802308 -44.615507 77.654968
0.233024 -43.640663 78.495796
0.80571 -42.792417 75.85318
0.501478 -43.236555 77.179054
1.147113 -42.368704 74.509201
1.412166 -43.787685 74.994248
0.80571 -42.792417 75.85318
1.520474 -41.908552 73.16745
1.147113 -42.368704 74.509201
1.913561 -41.474801 71.815994
2.146656 -42.93022 72.298813
1.520474 -41.908552 73.16745
2.335882 -41.006476 70.476711
1.913561 -41.474801 71.815994
2.756246 -40.568255 69.13364
2.960106 -42.058247 69.604286
2.335882 -41.006476 70.476711
3.203526 -40.095688 67.811588
2.756246 -40.568255 69.13364
28.100575 -47.588734 73.16861
28.818013 -47.403914 72.260059
28.44716 -46.623331 73.05753
28.100575 -47.588734 73.16861
27.414942 -47.798344 74.065609
25.057003 -48.367886 76.523544
25.886822 -48.188643 75.736805
25.345686 -47.346311 76.437657
25.057003 -48.367886 76.523544
24.246863 -48.583265 77.29332
21.600958 -49.180109 79.476204
22.511387 -48.989099 78.760525
21.856882 -48.08355 79.428265
21.600958 -49.180109 79.476204
20.69762 -49.410545 80.166916
19.33143 -51.977755 80.886681
19.512859 -50.784769 80.861942
18.377772 -52.251235 81.507176
19.33143 -51.977755 80.886681
1.038104 -44.458922 90.045414
0.503244 -44.386927 89.640392
1.038104 -44.458922 90.045414
1.638356 -45.483281 90.186169
4.173873 -48.493921 90.335503
4.918789 -48.378986 90.318783
4.164924 -49.589 90.056286
4.173873 -48.493921 90.335503
3.504872 -48.579115 90.239544
2.163378 -53.573881 80.53648
2.278485 -54.813544 80.720207
2.110419 -53.87717 81.594593
2.283056 -53.257378 79.379368
2.163378 -53.573881 80.53648
2.11499 -52.321005 80.253754
2.431569 -52.924694 78.227753
2.479956 -54.177571 78.510479
2.283056 -53.257378 79.379368
40.115417 -33.796268 72.091133
39.077557 -34.146271 72.722996
41.055076 -33.44928 71.316399
40.115417 -33.796268 72.091133
40.204811 -34.387905 71.818695
42.003287 -33.049503 70.597374
41.055076 -33.44928 71.316399
41.987639 -33.654933 70.177902
42.846455 -32.663521 69.731315
42.003287 -33.049503 70.597374
30.641358 -46.78022 69.263313
31.233557 -46.571701 68.208568
31.064833 -45.839859 69.131862
30.641358 -46.78022 69.263313
30.08949 -46.996977 70.308243
62.386984 -24.088555 46.621801
62.943737 -23.337198 45.860544
62.373697 -22.942776 46.475521
61.824423 -24.849226 47.353428
61.215895 -24.462987 47.909248
61.223374 -25.618081 48.025898
62.386984 -24.088555 46.621801
61.824423 -24.849226 47.353428
58.606999 -27.616981 50.170922
58.710066 -26.453072 50.282719
58.005235 -27.260885 50.734722
59.291084 -27.992179 49.74791
58.606999 -27.616981 50.170922
59.958458 -27.188904 49.228313
59.291084 -27.992179 49.74791
50.583855 -34.818863 52.148594
51.491472 -33.954745 52.196713
50.731893 -33.659021 52.583137
50.583855 -34.818863 52.148594
49.696005 -35.667107 52.02494
48.773724 -36.537799 51.90305
47.885334 -37.39154 51.717354
4.326925 -42.214081 66.117019
3.908152 -42.655087 67.437328
3.799242 -41.17902 66.940907
4.792687 -43.280311 65.304454
4.326925 -42.214081 66.117019
4.683777 -41.804245 64.808033
5.441781 -42.455479 62.733277
5.067458 -41.35915 63.525658
5.359699 -40.944153 62.263466
5.591878 -46.601005 55.948234
5.41352 -48.000057 56.438118
5.719652 -46.950122 56.993202
5.591878 -46.601005 55.948234
5.730495 -45.165411 55.506489
5.89332 -40.576733 54.299954
5.882404 -42.153338 54.674499
6.094095 -41.000517 55.241032
5.89332 -40.576733 54.299954
5.877828 -38.961479 53.983597
6.042787 -35.358366 55.94107
5.975843 -35.871389 56.947002
5.862164 -34.159988 56.70467
5.955358 -34.870537 54.99498
6.069038 -36.581938 55.237313
6.042787 -35.358366 55.94107
5.859151 -34.345139 54.10067
5.955358 -34.870537 54.99498
5.734421 -35.593447 53.464008
5.859151 -34.345139 54.10067
24.118749 -38.659981 80.308155
25.340319 -38.606459 79.81601
23.377918 -39.392574 80.80579
24.118749 -38.659981 80.308155
22.637011 -40.166614 81.109112
23.812238 -40.104858 80.566139
23.377918 -39.392574 80.80579
21.949981 -40.958862 81.465718
22.637011 -40.166614 81.109112
21.286391 -41.804264 81.649418
22.407742 -41.7243 81.053162
21.949981 -40.958862 81.465718
20.67804 -42.67617 81.882251
21.286391 -41.804264 81.649418
20.117626 -43.606644 81.979435
21.183739 -43.500175 81.334046
20.67804 -42.67617 81.882251
19.101233 -43.745541 82.662125
18.029339 -43.868332 83.311409
19.606932 -44.569546 82.113919
20.117626 -43.606644 81.979435
19.101233 -43.745541 82.662125
16.788507 -47.006574 83.619834
17.15959 -45.918423 83.543335
17.464688 -47.957416 82.926963
16.788507 -47.006574 83.619834
16.475808 -48.145456 83.627174
17.41976 -52.495461 82.169715
18.377772 -52.251235 81.507176
17.618916 -51.267231 82.196537
6.534898 -48.074579 89.950997
5.693525 -48.236948 90.183289
7.392892 -47.892464 89.615685
6.534898 -48.074579 89.950997
7.241391 -49.037615 89.545944
8.307963 -47.701244 89.206265
7.392892 -47.892464 89.615685
9.226729 -47.496025 88.714898
8.307963 -47.701244 89.206265
9.01815 -48.65028 88.719265
10.193943 -47.29329 88.174763
9.226729 -47.496025 88.714898
10.193943 -47.29329 88.174763
10.895876 -48.231558 87.628639
13.545636 -48.791343 85.682148
12.56389 -49.002054 86.344879
14.242783 -49.760597 84.986954
14.515477 -48.565888 85.008724
13.545636 -48.791343 85.682148
16.444266 -52.769346 82.776886
15.692845 -51.758187 83.511807
15.476207 -53.016077 83.429615
17.41976 -52.495461 82.169715
16.444266 -52.769346 82.776886
3.741338 -57.505405 85.981506
4.217718 -57.564224 86.355961
3.896438 -56.363766 86.744464
3.741338 -57.505405 85.981506
3.314293 -57.393217 85.536781
2.977483 -57.259996 84.950108
2.691003 -57.075851 84.313237
2.280807 -56.368576 81.799118
2.255536 -56.073038 80.855377
67.857083 -9.330564 33.471954
68.305301 -8.771513 32.412007
68.022617 -10.249026 33.965931
67.857083 -9.330564 33.471954
67.42495 -9.927642 34.5088
67.21497 -12.483559 36.456603
67.674744 -11.824808 35.395785
67.130711 -11.504855 36.063595
66.755127 -13.17472 37.489429
67.29916 -13.494674 36.821619
67.21497 -12.483559 36.456603
66.284702 -13.868445 38.544212
66.755127 -13.17472 37.489429
65.811691 -14.579855 39.558731
66.366306 -14.897246 38.868965
66.284702 -13.868445 38.544212
65.338565 -15.291873 40.587852
65.811691 -14.579855 39.558731
65.256961 -14.263072 40.263099
64.161762 -14.726137 41.961128
64.618931 -14.01026 40.909981
64.307891 -15.695718 42.282276
64.161762 -14.726137 41.961128
63.685817 -15.446765 42.951183
61.977756 -15.741833 45.3213
62.398596 -15.024075 44.277209
60.898866 -16.28262 46.984802
60.187891 -16.18725 47.628376
61.516233 -16.463024 46.282536
60.898866 -16.28262 46.984802
61.090496 -17.178306 47.278874
62.169386 -16.637519 45.615372
61.977756 -15.741833 45.3213
61.516233 -16.463024 46.282536
52.002537 -22.635815 60.522167
51.210861 -22.920127 61.274326
52.685423 -22.409595 59.66127
52.002537 -22.635815 60.522167
52.218645 -23.302283 60.513996
53.409433 -22.218741 58.860325
52.685423 -22.409595 59.66127
53.519407 -22.954705 58.760834
54.02731 -22.097383 57.96806
53.409433 -22.218741 58.860325
49.70887 -26.468446 63.369141
49.672705 -25.805515 63.665108
48.989195 -26.822398 64.232429
46.336597 -36.963354 52.703396
47.059255 -37.143124 52.123863
47.257055 -36.084756 52.87077
45.385984 -37.871445 52.559319
46.336597 -36.963354 52.703396
45.583784 -36.813078 53.306225
44.485399 -38.760937 52.378754
45.385984 -37.871445 52.559319
43.708833 -38.63843 53.016652
43.952236 -37.679253 53.952061
43.027898 -38.596514 53.806565
44.485399 -38.760937 52.378754
43.708833 -38.63843 53.016652
40.328585 -41.416178 53.502453
41.210087 -40.467445 53.578373
40.504011 -40.470408 54.440636
40.328585 -41.416178 53.502453
39.526726 -42.357799 53.445408
37.425231 -43.433084 55.383766
38.20042 -42.469801 55.361992
37.588214 -42.570415 56.406418
36.169626 -44.500211 56.534008
36.267877 -43.698127 57.567978
35.624477 -44.66464 57.673794
36.746038 -44.396752 55.454037
36.169626 -44.500211 56.534008
37.425231 -43.433084 55.383766
36.746038 -44.396752 55.454037
69.177346 -5.759996 28.250996
69.5629 -5.388363 27.22427
68.812054 -6.081198 29.249153
68.368618 -6.548054 30.297753
69.348934 -6.673037 28.851079
69.177346 -5.759996 28.250996
68.812054 -6.081198 29.249153
69.826961 -7.838499 19.49165
70.126678 -6.566263 19.47882
69.897492 -9.054016 20.283967
69.826961 -7.838499 19.49165
70.307263 -8.951158 21.017847
69.9361 -10.214552 21.110557
69.897492 -9.054016 20.283967
70.786797 -6.589809 21.927122
70.675431 -6.543918 21.060288
70.871288 -7.689588 22.685333
70.786797 -6.589809 21.927122
70.870762 -6.567809 22.813313
69.0541 -16.888993 32.335262
69.400486 -16.106291 31.307165
69.300121 -15.715848 32.153456
67.536671 -18.339083 37.066809
67.202927 -17.898657 37.849472
67.102627 -19.06987 38.063124
67.921795 -17.594726 36.047713
67.536671 -18.339083 37.066809
68.342254 -16.860875 35.032729
68.057431 -16.43402 35.838173
67.921795 -17.594726 36.047713
68.580177 -17.260066 34.211911
68.715812 -16.09936 34.002371
68.342254 -16.860875 35.032729
68.735035 -17.687482 33.385289
68.580177 -17.260066 34.211911
69.0541 -16.888993 32.335262
68.735035 -17.687482 33.385289
63.983227 -21.856138 44.213768
63.451519 -21.452988 44.87945
63.462158 -22.594569 45.048582
64.477543 -22.266875 43.50691
64.466904 -21.125294 43.337778
63.983227 -21.856138 44.213768
64.978905 -22.694668 42.84814
64.477543 -22.266875 43.50691
65.403702 -21.974453 41.920967
64.978905 -22.694668 42.84814
52.364208 -33.109735 52.230412
51.491472 -33.954745 52.196713
3 0 92 90
3 344 95 345
3 346 345 93
3 344 345 346
3 347 93 348
3 1 349 351
3 351 350 97
3 349 350 351
3 2 352 354
3 352 98 353
3 352 353 354
3 3 101 99
3 3 355 357
3 357 356 101
3 355 356 357
3 3 358 359
3 2 360 362
3 362 361 102
3 360 361 362
3 2 363 364
3 5 104 103
3 5 106 104
3 5 108 106
3 4 111 109
3 6 113 112
3 7 116 114
3 9 119 117
3 10 122 120
3 10 124 122
3 11 127 125
3 11 129 127
3 11 131 129
3 7 134 132
3 7 114 134
3 13 137 136
3 13 139 137
3 13 141 139
3 9 144 142
3 9 117 144
3 15 148 146
3 16 365 366
3 16 367 369
3 367 149 368
3 367 368 369
3 8 152 150
3 17 370 372
3 370 154 371
3 370 371 372
3 17 156 154
3 17 158 156
3 373 161 374
3 375 374 159
3 373 374 375
3 376 163 377
3 378 377 161
3 376 377 378
3 380 379 163
3 12 381 383
3 383 382 164
3 381 382 383
3 19 384 386
3 384 165 385
3 384 385 386
3 19 167 165
3 19 169 167
3 20 172 170
3 20 174 172
3 387 176 388
3 21 179 177
3 21 181 179
3 21 183 181
3 22 186 184
3 22 188 186
3 14 191 189
3 390 389 192
3 18 197 195
3 23 200 198
3 25 201 91
3 25 202 201
3 26 205 203
3 28 206 94
3 28 207 206
3 391 208 392
3 393 210 394
3 395 394 208
3 393 394 395
3 30 396 398
3 396 211 397
3 396 397 398
3 30 212 211
3 30 214 212
3 26 215 96
3 26 203 215
3 32 399 401
3 401 400 216
3 399 400 401
3 33 402 404
3 402 217 403
3 402 403 404
3 33 218 217
3 34 222 220
3 36 223 100
3 36 405 407
3 407 406 223
3 405 406 407
3 36 408 409
3 37 410 411
3 412 225 413
3 414 226 415
3 416 227 417
3 418 417 226
3 416 417 418
3 39 419 420
3 39 421 423
3 421 228 422
3 421 422 423
3 39 230 228
3 41 231 105
3 41 232 231
3 41 234 232
3 43 235 107
3 43 236 235
3 44 239 237
3 46 242 240
3 48 243 110
3 48 424 426
3 426 425 243
3 424 425 426
3 24 427 429
3 429 428 199
3 427 428 429
3 49 246 244
3 51 247 115
3 51 248 247
3 52 430 431
3 53 432 434
3 434 433 118
3 432 433 434
3 53 435 436
3 27 249 204
3 54 250 121
3 54 437 439
3 439 438 250
3 437 438 439
3 54 440 441
3 55 442 444
3 444 443 123
3 442 443 444
3 55 445 447
3 445 251 446
3 445 446 447
3 56 448 450
3 450 449 126
3 448 449 450
3 56 451 452
3 56 453 455
3 453 252 454
3 453 454 455
3 57 253 128
3 57 254 253
3 57 256 254
3 59 257 130
3 59 258 257
3 29 259 209
3 60 260 133
3 60 261 260
3 60 262 261
3 49 263 135
3 49 244 263
3 61 264 138
3 61 265 264
3 61 267 265
3 63 268 140
3 63 269 268
3 31 270 213
3 64 271 143
3 64 272 271
3 64 273 272
3 52 274 145
3 52 456 458
3 458 457 274
3 456 457 458
3 65 277 275
3 460 459 147
3 66 461 463
3 463 462 278
3 461 462 463
3 67 464 465
3 67 466 468
3 466 467 468
3 50 279 245
3 68 280 151
3 68 281 280
3 469 282 470
3 69 283 153
3 69 284 283
3 69 285 284
3 70 286 155
3 70 471 473
3 473 472 286
3 471 472 473
3 70 474 475
3 71 476 478
3 478 477 157
3 476 477 478
3 71 479 480
3 482 481 219
3 483 287 484
3 485 288 486
3 487 486 287
3 485 486 487
3 72 488 490
3 488 289 489
3 488 489 490
3 72 290 289
3 35 291 221
3 73 292 160
3 73 491 493
3 493 492 292
3 491 492 493
3 73 494 496
3 494 293 495
3 494 495 496
3 497 294 498
3 499 498 162
3 497 498 499
3 501 500 294
3 58 502 504
3 504 503 255
3 502 503 504
3 505 297 506
3 507 506 295
3 505 506 507
3 508 298 509
3 511 510 298
3 512 299 513
3 75 514 516
3 514 300 515
3 514 515 516
3 75 301 300
3 76 302 166
3 76 303 302
3 76 304 303
3 77 305 168
3 77 306 305
3 38 307 224
3 78 308 171
3 78 309 308
3 78 310 309
3 79 311 173
3 79 312 311
3 80 313 175
3 80 314 313
3 40 315 229
3 81 316 178
3 81 317 316
3 81 318 317
3 82 319 180
3 82 320 319
3 82 321 320
3 83 322 182
3 83 323 322
3 42 324 233
3 84 325 185
3 84 517 519
3 519 518 325
3 517 518 519
3 84 520 521
3 523 522 187
3 62 326 266
3 85 327 190
3 85 328 327
3 45 329 238
3 86 330 193
3 86 331 330
3 86 332 331
3 524 333 525
3 526 295 527
3 528 527 333
3 526 527 528
3 529 335 530
3 531 336 532
3 533 532 335
3 531 532 533
3 88 534 535
3 88 536 538
3 536 337 537
3 536 537 538
3 88 338 337
3 87 339 194
3 87 334 339
3 74 340 296
3 89 341 196
3 89 342 341
3 47 343 241
3 540 539 276
3 90 91 23
3 92 91 90
3 92 25 91
3 93 94 26
3 95 94 93
3 95 28 94
3 541 30 542
3 543 96 544
3 545 544 30
3 543 544 545
3 93 546 548
3 546 96 547
3 546 547 548
3 93 26 96
3 97 549 551
3 551 550 32
3 549 550 551
3 553 552 97
3 98 554 555
3 98 556 558
3 556 33 557
3 556 557 558
3 99 100 34
3 101 100 99
3 101 36 100
3 101 559 561
3 561 560 36
3 559 560 561
3 563 562 101
3 102 564 566
3 566 565 37
3 564 565 566
3 568 567 102
3 103 569 570
3 104 571 573
3 573 572 103
3 571 572 573
3 104 574 576
3 574 39 575
3 574 575 576
3 104 105 39
3 106 105 104
3 106 41 105
3 106 107 41
3 108 107 106
3 108 43 107
3 578 577 44
3 109 110 46
3 111 110 109
3 111 48 110
3 112 579 580
3 113 581 583
3 583 582 112
3 581 582 583
3 113 584 585
3 587 586 24
3 114 115 49
3 116 115 114
3 116 51 115
3 117 118 52
3 119 118 117
3 119 53 118
3 120 121 27
3 122 121 120
3 122 54 121
3 122 123 54
3 124 123 122
3 124 55 123
3 125 588 590
3 588 126 589
3 588 589 590
3 127 126 125
3 127 56 126
3 127 128 56
3 129 128 127
3 129 57 128
3 129 130 57
3 131 130 129
3 131 59 130
3 132 133 29
3 134 133 132
3 134 60 133
3 134 135 60
3 114 135 134
3 114 49 135
3 136 591 592
3 137 593 595
3 595 594 136
3 593 594 595
3 137 596 597
3 137 598 600
3 598 138 599
3 598 599 600
3 139 138 137
3 139 61 138
3 139 140 61
3 141 140 139
3 141 63 140
3 142 143 31
3 144 143 142
3 144 64 143
3 144 145 64
3 117 145 144
3 117 52 145
3 146 147 65
3 148 147 146
3 148 601 603
3 603 602 147
3 601 602 603
3 605 604 66
3 149 606 607
3 149 608 610
3 608 67 609
3 608 609 610
3 150 151 50
3 152 151 150
3 152 68 151
3 611 153 612
3 154 613 615
3 613 153 614
3 613 614 615
3 154 69 153
3 154 155 69
3 156 155 154
3 156 70 155
3 156 157 70
3 158 157 156
3 158 71 157
3 616 72 617
3 159 160 35
3 161 160 159
3 161 73 160
3 161 162 73
3 163 162 161
3 163 618 620
3 620 619 162
3 618 619 620
3 163 621 622
3 624 623 163
3 164 625 627
3 627 626 58
3 625 626 627
3 629 628 164
3 630 75 631
3 165 632 633
3 165 634 635
3 165 636 638
3 636 166 637
3 636 637 638
3 167 166 165
3 167 76 166
3 167 168 76
3 169 168 167
3 169 77 168
3 170 171 38
3 172 171 170
3 172 78 171
3 172 173 78
3 174 173 172
3 174 79 173
3 639 175 640
3 176 641 643
3 641 175 642
3 641 642 643
3 176 80 175
3 177 178 40
3 179 178 177
3 179 81 178
3 179 180 81
3 181 180 179
3 181 82 180
3 181 182 82
3 183 182 181
3 183 83 182
3 184 185 42
3 186 185 184
3 186 84 185
3 186 187 84
3 188 187 186
3 188 644 646
3 646 645 187
3 644 645 646
3 189 190 62
3 191 190 189
3 191 85 190
3 192 193 45
3 647 193 648
3 649 648 192
3 647 648 649
3 650 86 651
3 652 651 193
3 650 651 652
3 654 653 86
3 655 88 656
3 657 194 658
3 659 658 88
3 657 658 659
3 660 194 661
3 662 87 663
3 664 663 194
3 662 663 664
3 195 196 74
3 197 196 195
3 197 89 196
3 666 665 47
3 198 199 6
3 200 199 198
3 200 24 199
3 91 200 23
3 201 200 91
3 201 24 200
3 201 667 669
3 669 668 24
3 667 668 669
3 202 670 672
3 672 671 201
3 670 671 672
3 202 673 674
3 676 675 7
3 203 204 9
3 205 204 203
3 205 27 204
3 94 205 26
3 206 205 94
3 206 27 205
3 206 120 27
3 207 120 206
3 207 10 120
3 677 125 678
3 208 679 681
3 679 125 680
3 679 680 681
3 208 11 125
3 208 209 11
3 210 209 208
3 210 29 209
3 682 210 683
3 684 210 685
3 686 29 687
3 688 687 210
3 686 687 688
3 689 132 690
3 691 690 29
3 689 690 691
3 692 132 693
3 694 7 695
3 696 695 132
3 694 695 696
3 211 697 698
3 211 699 700
3 211 701 703
3 701 136 702
3 701 702 703
3 212 136 211
3 212 13 136
3 212 213 13
3 214 213 212
3 214 31 213
3 96 214 30
3 215 214 96
3 215 31 214
3 215 142 31
3 203 142 215
3 203 9 142
3 216 704 706
3 706 705 15
3 704 705 706
3 708 707 216
3 710 709 32
3 217 711 712
3 217 713 714
3 217 715 716
3 218 717 719
3 719 718 217
3 717 718 719
3 218 720 722
3 720 16 721
3 720 721 722
3 724 723 8
3 725 17 726
3 727 219 728
3 729 728 17
3 727 728 729
3 730 219 731
3 733 732 219
3 220 734 736
3 734 221 735
3 734 735 736
3 222 221 220
3 222 35 221
3 100 222 34
3 223 222 100
3 223 35 222
3 223 159 35
3 737 159 738
3 739 738 223
3 737 738 739
3 741 740 159
3 743 742 36
3 745 744 12
3 747 746 37
3 748 19 749
3 750 224 751
3 752 751 19
3 750 751 752
3 225 753 755
3 753 224 754
3 753 754 755
3 225 38 224
3 756 225 757
3 226 758 760
3 758 225 759
3 758 759 760
3 226 38 225
3 226 170 38
3 227 170 226
3 227 20 170
3 228 761 762
3 228 763 764
3 228 765 767
3 765 229 766
3 765 766 767
3 230 229 228
3 230 40 229
3 105 230 39
3 231 230 105
3 231 40 230
3 231 177 40
3 232 177 231
3 232 21 177
3 232 233 21
3 234 233 232
3 234 42 233
3 107 234 41
3 235 234 107
3 235 42 234
3 235 184 42
3 236 184 235
3 236 22 184
3 237 238 14
3 239 238 237
3 239 45 238
3 768 239 769
3 770 769 44
3 768 769 770
3 771 239 772
3 773 45 774
3 775 774 239
3 773 774 775
3 776 192 777
3 778 777 45
3 776 777 778
3 779 192 780
3 782 781 192
3 240 241 18
3 242 241 240
3 242 47 241
3 110 242 46
3 243 242 110
3 243 47 242
3 243 783 785
3 785 784 47
3 783 784 785
3 787 786 243
3 199 113 6
3 788 113 789
3 790 789 199
3 788 789 790
3 792 791 113
3 794 793 24
3 244 245 2
3 246 245 244
3 246 50 245
3 115 246 49
3 247 246 115
3 247 50 246
3 247 150 50
3 248 150 247
3 248 8 150
3 795 116 796
3 797 796 7
3 795 796 797
3 798 116 799
3 800 51 801
3 802 801 116
3 800 801 802
3 803 51 804
3 805 248 806
3 807 806 51
3 805 806 807
3 808 248 809
3 810 8 811
3 812 811 248
3 810 811 812
3 814 813 8
3 118 815 817
3 817 816 52
3 815 816 817
3 819 818 118
3 204 119 9
3 249 119 204
3 249 53 119
3 121 249 27
3 250 249 121
3 250 53 249
3 250 820 822
3 822 821 53
3 820 821 822
3 824 823 250
3 123 825 827
3 827 826 54
3 825 826 827
3 829 828 123
3 251 830 831
3 251 832 833
3 126 834 835
3 837 836 126
3 838 220 839
3 252 840 842
3 840 220 841
3 840 841 842
3 252 34 220
3 128 252 56
3 253 252 128
3 253 34 252
3 253 99 34
3 254 99 253
3 254 3 99
3 254 255 3
3 256 255 254
3 256 58 255
3 130 256 57
3 257 256 130
3 257 58 256
3 257 164 58
3 258 164 257
3 258 12 164
3 209 131 11
3 259 131 209
3 259 59 131
3 133 259 29
3 260 259 133
3 260 59 259
3 260 258 59
3 261 258 260
3 261 12 258
3 261 843 845
3 845 844 12
3 843 844 845
3 262 846 848
3 848 847 261
3 846 847 848
3 262 849 851
3 849 37 850
3 849 850 851
3 135 262 60
3 263 262 135
3 263 37 262
3 263 102 37
3 244 102 263
3 244 2 102
3 138 852 853
3 264 854 856
3 856 855 138
3 854 855 856
3 264 857 858
3 264 859 861
3 859 103 860
3 859 860 861
3 265 103 264
3 265 5 103
3 265 266 5
3 267 266 265
3 267 62 266
3 140 267 61
3 268 267 140
3 268 62 267
3 268 189 62
3 269 189 268
3 269 14 189
3 213 141 13
3 270 141 213
3 270 63 141
3 143 270 31
3 271 270 143
3 271 63 270
3 271 269 63
3 272 269 271
3 272 14 269
3 272 237 14
3 273 237 272
3 273 44 237
3 145 273 64
3 274 273 145
3 274 44 273
3 274 862 864
3 864 863 44
3 862 863 864
3 866 865 274
3 275 276 4
3 277 276 275
3 277 867 869
3 869 868 276
3 867 868 869
3 147 277 65
3 870 277 871
3 872 871 147
3 870 871 872
3 874 873 277
3 875 148 876
3 877 876 15
3 875 876 877
3 878 148 879
3 881 880 148
3 278 882 884
3 884 883 1
3 882 883 884
3 886 885 278
3 888 887 66
3 245 98 2
3 279 98 245
3 279 33 98
3 151 279 50
3 280 279 151
3 280 33 279
3 280 218 33
3 281 218 280
3 281 16 218
3 889 152 890
3 891 890 8
3 889 890 891
3 282 892 894
3 892 152 893
3 892 893 894
3 282 68 152
3 153 895 897
3 895 282 896
3 895 896 897
3 283 282 153
3 283 68 282
3 283 281 68
3 284 281 283
3 284 16 281
3 284 149 16
3 285 149 284
3 285 67 149
3 155 285 69
3 286 285 155
3 286 67 285
3 286 898 900
3 900 899 67
3 898 899 900
3 902 901 286
3 157 903 905
3 905 904 70
3 903 904 905
3 907 906 157
3 219 158 17
3 908 158 909
3 910 909 219
3 908 909 910
3 911 71 912
3 913 912 158
3 911 912 913
3 914 71 915
3 917 916 71
3 918 95 919
3 920 95 921
3 922 28 923
3 924 923 95
3 922 923 924
3 925 28 926
3 927 207 928
3 929 928 28
3 927 928 929
3 930 207 931
3 932 10 933
3 934 933 207
3 932 933 934
3 287 935 936
3 287 937 939
3 937 10 938
3 937 938 939
3 287 124 10
3 288 124 287
3 288 55 124
3 940 288 941
3 289 942 944
3 942 288 943
3 942 943 944
3 289 55 288
3 289 251 55
3 290 251 289
3 290 945 947
3 947 946 251
3 945 946 947
3 221 948 949
3 291 950 952
3 952 951 221
3 950 951 952
3 291 953 954
3 160 291 35
3 292 291 160
3 292 955 957
3 957 956 291
3 955 956 957
3 292 958 959
3 961 960 292
3 293 962 963
3 293 964 966
3 964 72 965
3 964 965 966
3 162 293 73
3 294 293 162
3 294 72 293
3 294 290 72
3 967 290 968
3 969 968 294
3 967 968 969
3 971 970 290
3 255 972 974
3 974 973 3
3 972 973 974
3 976 975 255
3 978 977 58
3 980 979 12
3 295 296 0
3 297 296 295
3 297 74 296
3 981 297 982
3 298 983 985
3 983 297 984
3 983 984 985
3 298 74 297
3 298 195 74
3 986 195 987
3 988 987 298
3 986 987 988
3 989 18 990
3 991 990 195
3 989 990 991
3 992 18 993
3 994 240 995
3 996 995 18
3 994 995 996
3 299 997 999
3 997 240 998
3 997 998 999
3 299 46 240
3 1000 299 1001
3 300 1002 1004
3 1002 299 1003
3 1002 1003 1004
3 300 46 299
3 300 109 46
3 301 109 300
3 301 4 109
3 1005 75 1006
3 166 1007 1008
3 302 1009 1011
3 1011 1010 166
3 1009 1010 1011
3 302 1012 1014
3 1012 75 1013
3 1012 1013 1014
3 302 301 75
3 303 301 302
3 303 4 301
3 303 275 4
3 304 275 303
3 304 65 275
3 168 304 76
3 305 304 168
3 305 65 304
3 305 146 65
3 306 146 305
3 306 15 146
3 224 169 19
3 307 169 224
3 307 77 169
3 171 307 38
3 308 307 171
3 308 77 307
3 308 306 77
3 309 306 308
3 309 15 306
3 309 216 15
3 310 216 309
3 310 32 216
3 173 310 78
3 311 310 173
3 311 32 310
3 311 97 32
3 312 97 311
3 312 1 97
3 175 1015 1016
3 313 1017 1019
3 1019 1018 175
3 1017 1018 1019
3 313 1020 1021
3 313 1022 1024
3 1022 227 1023
3 1022 1023 1024
3 314 227 313
3 314 20 227
3 229 1025 1027
3 1025 176 1026
3 1025 1026 1027
3 315 176 229
3 315 80 176
3 178 315 40
3 316 315 178
3 316 80 315
3 316 314 80
3 317 314 316
3 317 20 314
3 317 174 20
3 318 174 317
3 318 79 174
3 180 318 81
3 319 318 180
3 319 79 318
3 319 312 79
3 320 312 319
3 320 1 312
3 320 278 1
3 321 278 320
3 321 66 278
3 182 321 82
3 322 321 182
3 322 66 321
3 322 1028 1030
3 1030 1029 66
3 1028 1029 1030
3 323 1031 1033
3 1033 1032 322
3 1031 1032 1033
3 323 1034 1035
3 233 183 21
3 324 183 233
3 324 83 183
3 185 324 42
3 325 324 185
3 325 83 324
3 325 323 83
3 1036 323 1037
3 1038 1037 325
3 1036 1037 1038
3 1040 1039 323
3 187 1041 1043
3 1043 1042 84
3 1041 1042 1043
3 1045 1044 187
3 266 108 5
3 326 108 266
3 326 43 108
3 190 326 62
3 327 326 190
3 327 43 326
3 327 236 43
3 328 236 327
3 328 22 236
3 238 191 14
3 329 191 238
3 329 85 191
3 193 329 45
3 330 329 193
3 330 85 329
3 330 328 85
3 331 328 330
3 331 22 328
3 331 188 22
3 332 188 331
3 332 1046 1048
3 1048 1047 188
3 1046 1047 1048
3 1049 332 1050
3 1051 1050 86
3 1049 1050 1051
3 1052 332 1053
3 1055 1054 332
3 1056 87 1057
3 333 1058 1059
3 333 1060 1062
3 1060 87 1061
3 1060 1061 1062
3 333 334 87
3 295 334 333
3 295 0 334
3 335 1063 1064
3 335 1065 1066
3 335 1067 1069
3 1067 112 1068
3 1067 1068 1069
3 336 112 335
3 336 6 112
3 1070 336 1071
3 337 1072 1074
3 1072 336 1073
3 1072 1073 1074
3 337 6 336
3 337 198 6
3 338 198 337
3 338 23 198
3 194 338 88
3 339 338 194
3 339 23 338
3 339 90 23
3 334 90 339
3 334 0 90
3 296 92 0
3 340 92 296
3 340 25 92
3 196 340 74
3 341 340 196
3 341 25 340
3 341 202 25
3 342 202 341
3 342 1075 1077
3 1077 1076 202
3 1075 1076 1077
3 241 197 18
3 343 197 241
3 343 89 197
3 1078 343 1079
3 1080 1079 47
3 1078 1079 1080
3 1081 343 1082
3 1083 89 1084
3 1085 1084 343
3 1083 1084 1085
3 1086 342 1087
3 1088 1087 89
3 1086 1087 1088
3 1089 342 1090
3 1092 1091 342
3 276 111 4
3 1093 111 1094
3 1095 1094 276
3 1093 1094 1095
3 1096 48 1097
3 1098 1097 111
3 1096 1097 1098
3 1099 48 1100
3 1102 1101 48
3 1104 1103 1
