ply
format ascii 1.0
element vertex 1026
property float x
property float y
property float z
element face 1052
property list uchar int vertex_index
end_header
26.127491 -37.882099 79.369202
7.276403 -39.232185 87.989426
37.243225 -24.777103 66.05764
58.054901 -6.176364 38.924961
52.091652 -19.008293 56.872948
5.003653 -47.254166 90.485321
54.099701 -13.066685 47.26701
46.452023 -14.676192 52.602982
32.360081 -32.076004 73.212608
41.651611 -29.761972 69.822632
22.424137 -32.624474 76.771568
16.384811 -38.399025 83.443306
12.976614 -32.602272 81.969574
12.452198 -45.740738 86.873161
65.229988 -6.698997 33.957001
61.456291 -12.492791 42.893238
44.519409 -21.862654 61.553848
48.95303 -26.159466 64.528397
68.987556 -2.326021 25.565765
-1.419146 -41.100468 82.19104
-0.618658 -39.319019 77.148117
-0.048866 -43.291653 89.421875
-1.300272 -42.494034 86.483322
29.330784 -35.074776 76.705811
34.296852 -34.562057 74.954056
21.515581 -29.518311 76.319527
17.581911 -32.681232 79.138184
26.060244 -29.505713 73.664604
4.985376 -39.847824 63.055847
11.681091 -38.806812 85.741203
14.099585 -41.721596 85.72065
9.753593 -42.361477 88.117363
61.710403 -6.153815 36.267662
63.219818 -9.549216 38.402786
59.599289 -9.421154 40.547737
52.99865 -16.057346 52.064995
56.680897 -15.455918 49.723038
55.470444 -18.28964 54.196777
53.917336 -21.361418 58.067551
41.92025 -19.441851 59.774475
40.813141 -23.475561 63.753265
42.862103 -32.05809 70.150787
45.60807 -27.928055 67.509773
69.844948 -1.085993 21.697767
3.39744 -39.459644 89.596306
5.741959 -43.015503 89.964981
2.365828 -43.419659 90.572456
55.759415 -9.772485 42.852219
51.972431 -10.378533 45.560928
50.155891 -13.840148 49.710983
49.081669 -17.02603 54.428528
35.03772 -28.657616 69.518356
39.346733 -27.46789 67.772949
37.178192 -31.211039 71.629646
38.889961 -33.557648 72.852562
24.238029 -35.313622 78.390625
21.236736 -38.101711 81.343246
19.188843 -35.494217 80.270432
14.301031 -35.69104 82.516678
9.697006 -35.835228 85.070488
33.667934 -25.593773 68.581589
30.592945 -29.277893 71.428734
27.389969 -32.467865 74.850685
18.577988 -41.227303 83.261803
16.541794 -45.018311 84.167046
8.516542 -46.546989 89.201897
68.155853 -7.891078 31.894928
66.325073 -10.276974 36.187469
64.454025 -13.045429 40.52774
57.951881 -12.546091 45.072647
59.902653 -15.376598 47.275612
43.29715 -15.474652 56.030495
45.287613 -18.206722 56.962059
48.347851 -20.268467 59.305489
43.477024 -25.765564 65.956062
47.361847 -23.895676 63.811035
50.885963 -22.311752 61.173759
67.284409 -4.212481 29.667625
69.049889 -5.34484 17.418634
70.563538 -5.376248 20.321432
-1.490644 -41.860363 84.468704
27.735571 -36.480904 78.174606
30.219095 -36.3274 77.250877
28.546789 -37.75705 78.355904
9.429066 -39.028198 86.901794
10.627853 -40.511208 87.070427
8.45997 -40.797413 88.176071
59.877197 -6.105158 37.543381
60.602875 -7.794695 38.375408
58.720901 -7.847017 39.558609
52.550934 -17.512667 54.499252
54.377048 -17.123177 53.271843
53.841446 -18.572556 55.564995
54.760918 -19.774834 56.234444
53.223213 -20.098703 57.716934
39.744129 -22.115053 63.067017
39.017708 -24.181576 64.883698
44.568878 -31.206131 68.529037
61.118229 -4.350797 35.606266
1.743849 -39.41362 89.932739
2.747295 -41.407906 90.255859
1.236917 -41.408066 90.251717
47.346199 -12.87257 50.635643
49.100342 -12.521448 49.018333
48.252373 -14.258938 51.092056
49.543869 -15.450846 52.018539
47.615788 -15.938371 53.322868
33.751923 -30.426067 71.354355
36.081745 -29.981159 70.547829
34.799797 -31.715652 72.430641
36.656994 -34.128708 73.964294
23.265629 -34.005203 77.539459
21.700129 -35.402733 79.292023
20.753967 -34.076252 78.515686
15.242311 -32.666195 80.504395
15.858736 -34.192505 80.798576
13.503807 -34.222866 82.106544
11.954687 -35.778481 83.772316
11.231539 -34.213116 83.493111
32.162319 -27.50206 69.925568
30.091436 -27.692707 71.126503
24.197025 -31.108351 75.130348
26.592993 -31.044586 74.058426
24.898573 -32.562931 75.76368
25.801462 -33.919346 76.65036
5.609753 -38.943581 60.601807
18.799332 -38.235703 82.367119
19.846668 -39.597401 82.440338
17.497845 -39.772419 83.559982
13.193846 -43.63736 86.440025
15.3242 -43.312752 85.136169
14.490082 -45.363171 85.536087
15.799628 -47.194614 84.320045
13.818329 -47.596634 85.703918
5.288498 -45.082809 90.423615
7.106737 -44.747978 89.776505
6.686399 -46.929428 90.020737
66.801094 -7.217981 32.894905
67.259415 -9.009179 34.014824
65.823921 -8.479 35.091263
62.303978 -11.0225 40.650978
63.920052 -11.25169 39.540951
63.025406 -12.690048 41.743416
63.539688 -14.477184 42.630035
62.166283 -14.131823 43.90028
54.846786 -11.463203 44.998749
56.801228 -11.191536 43.864285
56.055603 -12.76075 46.153305
57.680912 -16.751846 50.702782
58.355545 -15.342672 48.518326
42.98933 -13.782253 56.365807
41.974495 -15.850835 57.927589
43.091221 -20.738636 60.481239
43.539734 -18.828226 58.329704
44.895638 -20.005196 59.2565
46.777252 -19.287033 58.061226
46.427422 -21.04141 60.445419
40.56205 -28.636909 68.894775
41.437443 -26.664696 66.890205
42.680538 -27.770208 67.975349
47.359352 -27.003759 66.104446
46.603264 -25.875124 65.781273
48.383499 -24.969212 64.462479
49.177891 -23.042046 62.557503
50.029877 -24.170927 62.988708
64.625343 -4.869088 32.949326
65.735939 -3.475372 30.868301
66.272758 -5.391932 31.788717
67.753593 -6.101869 30.746269
68.517654 -2.728945 16.276741
69.488815 -2.798965 17.605907
69.984703 -5.341905 18.766384
70.124695 -2.922951 19.12496
69.552094 -1.628599 23.593857
70.35778 -3.427909 22.64912
70.005806 -3.85339 24.587891
69.411575 -4.424891 26.595619
-0.501385 -43.094978 80.592255
-0.067806 -42.261711 78.019882
-1.117239 -40.243649 79.727722
-0.013865 -41.255096 89.799248
-0.978958 -40.934246 88.885498
-0.823709 -42.976532 88.15696
-0.724707 -43.845081 83.024658
45.729675 -13.199556 52.406624
30.880041 -33.618069 75.024422
33.380081 -33.340652 74.224907
31.843622 -34.868843 75.855972
21.818264 -31.135448 76.315659
19.980629 -32.664013 77.892929
19.47057 -31.129374 77.623329
17.168598 -31.082672 79.05217
4.218014 -40.738014 65.620598
4.719353 -36.655067 62.2873
5.371698 -35.674786 59.918755
14.006601 -38.591888 84.574165
15.168248 -39.985161 84.71608
12.872063 -40.234451 85.897636
11.899948 -42.028015 86.949196
11.095837 -43.996239 87.695511
63.512291 -6.346219 35.077946
64.201294 -8.097267 36.166065
62.444443 -7.871947 37.253483
61.455063 -9.414222 39.471127
60.560486 -10.94645 41.722549
53.49696 -14.589584 49.635704
55.43055 -14.257945 48.510719
54.887794 -15.700594 50.900375
56.093178 -16.864801 52.007507
56.965302 -18.170078 52.777367
41.142555 -17.932272 59.578133
40.426285 -20.024649 61.296227
41.376003 -21.453135 61.748253
42.645302 -22.689035 62.649742
42.455017 -30.89217 70.299713
43.702564 -28.868473 68.744095
44.3592 -30.006144 68.971375
46.086784 -29.100861 67.462128
62.886459 -4.527224 34.220795
0.540657 -41.373436 75.368134
1.28738 -40.453133 72.684631
2.132023 -39.516483 70.006065
5.254108 -39.387711 88.918884
6.399061 -41.065872 89.135803
4.48147 -41.281998 89.858994
3.953123 -43.268112 90.465103
3.645273 -45.340858 90.690918
1.020853 -43.435642 90.231918
2.221357 -45.48436 90.513428
3.513821 -47.484035 90.518761
56.8368 -8.003616 40.8311
54.982666 -8.234541 42.218739
53.843445 -10.059367 44.142609
52.887493 -11.794628 46.218178
50.959599 -12.155943 47.550617
52.119576 -13.435398 48.443672
51.520168 -14.99485 50.796753
51.048492 -16.505758 53.234619
50.647209 -18.016405 55.697998
36.202892 -26.771032 67.747589
38.185856 -26.19779 66.743217
37.211697 -28.137871 68.638275
38.35725 -29.383043 69.739868
39.470097 -30.554964 70.77285
35.817806 -32.937569 73.38868
38.162308 -32.390827 72.479324
40.383335 -31.701414 71.460632
40.965683 -32.857643 71.588837
25.225338 -36.592873 79.072311
23.684353 -37.989143 80.353493
22.710352 -36.691383 79.979279
20.20734 -36.796509 80.927254
17.730053 -36.918934 81.940712
18.280376 -34.139774 79.599052
16.717743 -35.592041 81.344025
15.291819 -37.060387 83.031967
12.907627 -37.214493 84.195648
10.595459 -37.367325 85.403702
8.376982 -37.497765 86.603043
7.548897 -35.836792 86.345467
6.277842 -37.5783 87.717285
4.32757 -37.577309 88.653954
2.558781 -37.46294 89.316086
35.467754 -25.247389 67.287697
34.197739 -27.202244 68.802971
32.829716 -29.030914 70.44104
31.383955 -30.732498 72.191109
28.333731 -29.426964 72.498772
28.99301 -30.928173 73.084961
29.883087 -32.316006 74.009247
28.345932 -33.799858 75.822029
26.787699 -35.212494 77.539215
22.20269 -39.45433 81.348763
20.82863 -41.038826 82.061974
19.611927 -42.782639 82.527641
16.330885 -41.453667 84.482712
17.46814 -43.028221 83.82621
7.689091 -42.700844 89.152
9.055773 -44.37468 88.836082
10.45097 -46.141518 88.121628
11.854837 -48.018055 87.029381
66.670937 -12.163605 37.124413
64.855865 -9.837471 37.315346
65.383713 -11.636215 38.370762
65.730087 -13.551054 39.233978
57.689075 -9.549517 41.664001
58.716454 -11.010079 42.783169
59.759571 -12.449501 43.995167
57.285141 -14.024773 47.396637
59.034897 -13.913984 46.269814
60.664215 -13.945383 45.109741
61.324604 -15.567338 45.988464
44.274315 -13.501163 54.323387
44.791931 -15.082764 54.250481
42.533081 -17.450302 57.858131
44.080311 -16.949892 56.237984
45.782036 -16.442179 54.726326
47.146378 -17.599289 55.665581
48.707756 -18.615271 56.880348
50.248459 -19.580956 58.118263
40.155163 -25.489367 65.768387
42.116871 -24.67169 64.797333
44.071686 -23.786776 63.802208
44.698505 -26.829813 66.946785
45.456108 -24.822803 64.938393
46.012554 -22.8862 62.756065
47.923576 -22.023354 61.635956
49.781013 -21.246687 60.425781
51.556637 -20.595551 59.118431
52.469315 -21.743126 59.669441
66.785812 -2.198523 28.831348
68.210091 -3.186859 27.593338
68.640465 -5.168156 28.649071
67.252403 -2.687534 15.142174
70.410172 -3.125113 20.815788
70.78627 -5.46803 22.055101
25.340319 -38.606459 79.81601
26.504557 -38.545019 79.260159
26.504557 -38.545019 79.260159
27.714206 -38.482495 78.75351
27.33714 -37.819575 78.862553
38.130466 -24.47934 65.470669
38.595789 -23.438856 64.663449
37.708548 -23.736619 65.25042
58.711363 -5.246617 38.019369
57.861275 -5.286482 38.838518
58.966049 -6.140761 38.234171
59.622511 -5.211013 37.328579
58.711363 -5.246617 38.019369
0.783164 -40.314835 90.055008
1.490383 -40.410843 90.092228
1.03663 -39.317611 89.895519
30.007035 -26.83471 71.249099
30.95763 -26.761427 70.534649
5.866175 -40.068261 59.841381
5.814855 -38.481308 59.44978
58.409136 -16.773264 50.030873
58.004888 -17.48542 51.012031
41.391624 -16.030869 58.922187
41.919914 -14.950834 58.215396
49.672705 -25.805515 63.665108
50.211129 -24.811245 62.895263
49.491453 -25.165197 63.758553
69.477001 -1.600527 17.922651
69.133057 -1.506487 17.164912
69.794941 -1.66252 18.682178
69.806755 -2.860958 18.365434
69.477001 -1.600527 17.922651
-1.325982 -39.639706 88.619427
-0.897425 -39.900416 89.109401
-1.061991 -42.735283 87.320141
-1.234897 -41.710586 87.844814
-1.473179 -41.469337 87.007995
-0.85554 -43.736483 86.828259
-0.617258 -43.977732 87.665077
-1.061991 -42.735283 87.320141
-1.002181 -43.488098 85.864033
-0.85554 -43.736483 86.828259
45.61107 -12.355526 52.583729
46.322136 -12.237524 51.569233
31.433431 -36.213855 76.757855
30.567893 -36.956144 77.263924
17.119657 -30.207327 79.226715
18.220717 -30.269115 78.432346
16.047859 -31.031422 79.818707
17.119657 -30.207327 79.226715
22.649344 -29.525963 75.627915
22.602832 -28.676853 75.788456
21.666922 -30.32688 76.317593
22.800685 -30.334532 75.62598
22.649344 -29.525963 75.627915
4.553674 -34.972208 62.006329
4.13949 -35.489639 63.210171
4.879847 -34.482067 60.822056
5.045526 -36.164926 61.103027
4.553674 -34.972208 62.006329
5.212218 -33.955521 59.684193
4.879847 -34.482067 60.822056
55.816496 -18.961709 54.444801
56.563925 -18.901928 53.735096
56.217873 -18.229859 53.487072
54.574101 -21.270232 57.235032
54.995891 -20.47694 56.318478
54.339127 -20.568126 57.150998
54.02731 -22.097383 57.96806
54.574101 -21.270232 57.235032
39.730519 -20.290056 62.092595
40.157282 -19.204781 61.33881
46.087874 -29.730866 67.096436
45.327831 -30.153496 67.995583
45.32892 -30.783501 67.62989
46.86264 -28.670374 66.619027
46.087874 -29.730866 67.096436
1.060996 -38.906958 72.270866
0.665296 -39.402466 73.59711
1.483317 -38.438633 70.931583
1.709701 -39.984808 71.345348
1.060996 -38.906958 72.270866
1.924873 -37.936872 69.615669
1.483317 -38.438633 70.931583
2.24061 -46.534729 90.294072
1.638356 -45.483281 90.186169
2.886842 -47.534566 90.296738
2.867589 -46.484198 90.516095
2.24061 -46.534729 90.294072
3.504872 -48.579115 90.239544
2.886842 -47.534566 90.296738
54.771524 -7.396578 42.147395
55.62894 -7.286429 41.324907
52.907938 -10.21895 44.851768
53.514206 -9.283482 43.942619
52.578699 -9.443064 44.651779
6.541538 -35.795908 86.927872
7.277315 -34.908968 86.301861
5.90601 -36.666662 87.613781
6.913369 -36.707546 87.031376
6.541538 -35.795908 86.927872
4.930874 -36.666167 88.082116
5.302706 -37.577804 88.18562
5.90601 -36.666662 87.613781
2.286797 -36.346285 89.216106
3.119254 -36.512011 88.891125
1.781951 -37.335508 89.466473
2.286797 -36.346285 89.216106
34.374595 -24.57488 67.975578
33.57649 -24.714211 68.746708
34.567844 -25.420581 67.934643
35.274506 -24.401688 67.328632
34.374595 -24.57488 67.975578
27.196987 -29.466338 73.081688
28.159179 -28.613306 72.455876
27.022436 -28.652681 73.038792
5.067458 -41.35915 63.525658
4.683777 -41.804245 64.808033
4.601695 -40.292919 64.338223
17.566166 -44.863377 83.481827
18.029339 -43.868332 83.311409
17.004967 -44.023266 83.996628
17.15959 -45.918423 83.543335
17.566166 -44.863377 83.481827
16.475808 -48.145456 83.627174
15.506126 -48.364878 84.316788
11.607373 -49.227862 86.976688
10.895876 -48.231558 87.628639
12.56389 -49.002054 86.344879
11.607373 -49.227862 86.976688
68.305301 -8.771513 32.412007
68.686534 -8.281556 31.43997
66.957779 -10.561539 35.595123
67.42495 -9.927642 34.5088
66.792244 -9.643076 35.101146
66.498005 -11.220289 36.655941
67.130711 -11.504855 36.063595
66.957779 -10.561539 35.595123
64.618931 -14.01026 40.909981
65.256961 -14.263072 40.263099
65.092056 -13.298241 39.880859
63.685817 -15.446765 42.951183
63.085299 -15.196756 43.642086
68.569748 -7.442659 30.872082
68.368618 -6.548054 30.297753
67.954723 -6.996474 31.320599
68.686534 -8.281556 31.43997
68.569748 -7.442659 30.872082
67.520668 -1.388175 15.256455
66.90097 -1.340089 14.662629
68.41909 -5.355854 16.854125
68.152973 -4.047907 16.283178
68.783772 -4.036892 16.847687
68.60157 -6.66529 17.521547
68.41909 -5.355854 16.854125
69.217579 -6.615607 18.105338
68.60157 -6.66529 17.521547
70.416096 -6.583435 20.256345
70.126678 -6.566263 19.47882
70.27412 -5.359077 19.543908
70.675431 -6.543918 21.060288
70.416096 -6.583435 20.256345
70.12756 -2.105553 21.256777
70.11649 -1.904535 20.359977
69.833877 -0.884975 20.800967
70.733982 -5.554062 22.989325
70.572025 -4.44797 22.352111
70.519737 -4.534002 23.286335
70.870762 -6.567809 22.813313
70.733982 -5.554062 22.989325
-1.694678 -39.618185 81.814304
-1.768601 -40.060213 82.962936
-1.659914 -41.1465 86.137859
-1.473179 -41.469337 87.007995
-1.7551 -40.829664 85.13055
-1.395458 -42.177199 85.476013
-1.659914 -41.1465 86.137859
-1.80435 -40.440161 84.101768
-1.7551 -40.829664 85.13055
-1.768601 -40.060213 82.962936
-1.454895 -41.480415 83.329872
-1.80435 -40.440161 84.101768
29.73174 -37.670969 77.816437
30.567893 -36.956144 77.263924
29.382942 -37.042225 77.803391
28.8564 -38.40905 78.166969
29.73174 -37.670969 77.816437
28.8564 -38.40905 78.166969
27.714206 -38.482495 78.75351
20.394209 -29.486934 77.066025
21.522115 -28.646125 76.56644
21.522115 -28.646125 76.56644
22.602832 -28.676853 75.788456
38.959 -22.405594 63.755108
39.38944 -21.335257 62.977989
39.380918 -23.148314 63.975358
38.959 -22.405594 63.755108
38.595789 -23.438856 64.663449
43.699843 -32.237541 68.92044
43.715491 -31.63211 69.339912
42.846455 -32.663521 69.731315
44.447969 -31.837671 67.968063
43.699843 -32.237541 68.92044
45.32892 -30.783501 67.62989
44.447969 -31.837671 67.968063
60.243027 -4.333833 36.360022
60.915184 -3.403187 35.489134
60.497713 -5.227977 36.574823
60.243027 -4.333833 36.360022
59.622511 -5.211013 37.328579
-0.287722 -38.835409 75.828854
-0.84288 -37.742849 76.782196
0.503244 -44.386927 89.640392
0.062619 -44.303461 89.07721
51.718959 -9.585064 45.488954
52.578699 -9.443064 44.651779
48.22327 -12.697009 49.826988
48.791118 -11.762919 48.934146
47.914047 -11.938481 49.742801
35.822586 -34.949345 74.572605
35.476923 -34.345382 74.459175
34.642515 -35.166019 75.067486
36.930933 -34.722505 73.965278
35.822586 -34.949345 74.572605
38.047416 -34.436976 73.409413
37.773477 -33.843178 73.408428
36.930933 -34.722505 73.965278
39.077557 -34.146271 72.722996
38.047416 -34.436976 73.409413
32.745879 -25.71196 69.262192
33.57649 -24.714211 68.746708
31.993071 -26.666103 69.934181
32.915126 -26.547916 69.253579
32.745879 -25.71196 69.262192
31.126877 -27.597383 70.526036
31.993071 -26.666103 69.934181
30.95763 -26.761427 70.534649
5.671888 -40.492031 61.036446
5.359699 -40.944153 62.263466
5.297565 -39.395702 61.828827
5.671888 -40.492031 61.036446
5.866175 -40.068261 59.841381
14.515477 -48.565888 85.008724
15.506126 -48.364878 84.316788
14.808979 -47.395624 85.011981
62.398596 -15.024075 44.277209
63.085299 -15.196756 43.642086
62.852986 -14.304503 43.265158
58.746453 -16.068677 48.938645
58.018228 -16.047259 49.610554
58.409136 -16.773264 50.030873
59.520007 -16.08564 48.317288
59.129099 -15.359635 47.896969
58.746453 -16.068677 48.938645
60.187891 -16.18725 47.628376
59.520007 -16.08564 48.317288
42.427332 -13.916543 57.434506
43.046762 -12.846237 56.761074
42.481912 -14.816544 57.146698
42.427332 -13.916543 57.434506
41.919914 -14.950834 58.215396
50.782818 -23.849715 62.181801
51.210861 -22.920127 61.274326
50.45792 -23.241339 62.081233
50.782818 -23.849715 62.181801
50.211129 -24.811245 62.895263
65.180641 -4.17223 31.908814
64.907955 -3.211674 31.547676
64.352657 -3.908532 32.588189
68.647476 -1.471477 16.500329
68.153293 -1.40888 15.823739
69.003234 -2.763955 16.941324
68.647476 -1.471477 16.500329
69.133057 -1.506487 17.164912
70.34375 -4.746742 24.25572
70.519737 -4.534002 23.286335
70.181793 -3.64065 23.618505
70.15395 -4.887289 25.230438
70.34375 -4.746742 24.25572
69.856834 -5.173039 26.234302
70.15395 -4.887289 25.230438
69.708691 -4.13914 25.591755
69.5629 -5.388363 27.22427
69.856834 -5.173039 26.234302
-0.284596 -42.678344 79.306068
0.233024 -43.640663 78.495796
0.016235 -44.057296 79.781982
-1.543724 -39.189775 80.582645
-1.268193 -40.672058 80.959381
-1.694678 -39.618185 81.814304
-1.363123 -38.709857 79.351795
-1.543724 -39.189775 80.582645
-1.113833 -38.247541 78.061993
-0.867949 -39.781334 78.437919
-1.363123 -38.709857 79.351795
-0.84288 -37.742849 76.782196
-1.113833 -38.247541 78.061993
-0.414878 -40.06084 89.566277
0.157773 -40.238349 89.828774
-0.496412 -41.094671 89.342373
-0.414878 -40.06084 89.566277
-0.897425 -39.900416 89.109401
-1.312522 -40.689443 88.209083
-1.325982 -39.639706 88.619427
-0.901334 -41.955389 88.521229
-1.312522 -40.689443 88.209083
-1.234897 -41.710586 87.844814
-0.324803 -44.1459 88.444752
0.062619 -44.303461 89.07721
-0.436287 -43.134092 88.789417
-0.324803 -44.1459 88.444752
-0.617258 -43.977732 87.665077
-1.097367 -43.171262 84.856724
-1.002181 -43.488098 85.864033
-1.395458 -42.177199 85.476013
-0.714398 -44.163622 84.134701
-1.097367 -43.171262 84.856724
-1.107676 -42.852722 83.746681
-0.336518 -45.128529 83.441143
-0.714398 -44.163622 84.134701
-0.271393 -44.804001 82.262127
-0.336518 -45.128529 83.441143
-0.159732 -44.428949 81.045925
-0.271393 -44.804001 82.262127
-0.613046 -43.470029 81.808457
0.016235 -44.057296 79.781982
-0.159732 -44.428949 81.045925
47.130398 -12.074032 50.683743
47.914047 -11.938481 49.742801
46.537937 -13.036063 51.521134
47.130398 -12.074032 50.683743
46.322136 -12.237524 51.569233
32.245694 -35.484577 76.060402
31.031358 -35.598121 76.553425
31.433431 -36.213855 76.757855
33.472309 -35.331184 75.609444
33.070237 -34.71545 75.405014
32.245694 -35.484577 76.060402
34.642515 -35.166019 75.067486
33.472309 -35.331184 75.609444
19.371703 -30.292465 77.717926
20.493075 -30.323842 76.971428
20.394209 -29.486934 77.066025
18.319584 -31.106023 78.33775
19.371703 -30.292465 77.717926
18.220717 -30.269115 78.432346
15.084715 -31.823183 80.544819
16.205455 -31.874434 79.778283
16.047859 -31.031422 79.818707
13.951866 -31.791221 81.277409
14.109462 -32.634234 81.236985
15.084715 -31.823183 80.544819
25.953717 -28.674675 73.727016
27.022436 -28.652681 73.038792
24.921675 -29.519664 74.300453
25.953717 -28.674675 73.727016
23.990066 -30.320983 75.033325
25.128635 -30.307032 74.397476
24.921675 -29.519664 74.300453
23.007644 -31.121899 75.723004
23.990066 -30.320983 75.033325
22.800685 -30.334532 75.62598
3.622298 -39.654682 66.491279
3.799242 -41.17902 66.940907
4.065133 -39.178383 65.200008
3.622298 -39.654682 66.491279
4.448814 -38.733288 63.917633
4.601695 -40.292919 64.338223
4.065133 -39.178383 65.200008
4.315803 -37.13691 63.53336
4.13949 -35.489639 63.210171
4.852365 -38.251446 62.671574
4.448814 -38.733288 63.917633
4.315803 -37.13691 63.53336
5.695828 -36.84691 59.108254
5.814855 -38.481308 59.44978
5.490725 -37.309184 60.260281
5.583459 -35.173899 58.814678
5.695828 -36.84691 59.108254
5.583459 -35.173899 58.814678
5.212218 -33.955521 59.684193
5.693525 -48.236948 90.183289
4.918789 -48.378986 90.318783
57.647084 -18.194536 52.049324
58.004888 -17.48542 51.012031
57.323107 -17.460962 51.740074
57.201178 -18.92339 52.948967
57.647084 -18.194536 52.049324
57.201178 -18.92339 52.948967
56.563925 -18.901928 53.735096
55.461733 -19.704306 55.463634
55.816496 -18.961709 54.444801
55.115681 -19.032237 55.21561
55.461733 -19.704306 55.463634
54.995891 -20.47694 56.318478
40.515417 -18.158593 60.479763
40.975655 -17.071587 59.74746
40.78442 -18.978461 60.43718
40.515417 -18.158593 60.479763
40.157282 -19.204781 61.33881
40.085207 -21.069851 62.181622
39.730519 -20.290056 62.092595
39.38944 -21.335257 62.977989
47.498924 -27.621823 65.940185
46.723068 -28.05231 66.783287
46.86264 -28.670374 66.619027
48.295763 -27.199676 65.152161
48.156191 -26.581612 65.316421
47.498924 -27.621823 65.940185
48.989195 -26.822398 64.232429
48.295763 -27.199676 65.152161
61.752928 -3.483103 34.668398
60.915184 -3.403187 35.489134
62.637043 -3.571317 33.975662
61.752928 -3.483103 34.668398
62.002344 -4.439011 34.913531
63.483215 -3.737601 33.223923
62.637043 -3.571317 33.975662
63.755901 -4.698156 33.58506
64.352657 -3.908532 32.588189
63.483215 -3.737601 33.223923
69.486916 0.117908 21.401579
69.833877 -0.884975 20.800967
69.389118 -0.193956 22.328584
69.486916 0.117908 21.401579
69.242692 -0.465259 23.276629
69.698521 -1.357296 22.645812
69.389118 -0.193956 22.328584
68.998986 -0.863057 24.233886
69.242692 -0.465259 23.276629
68.716716 -1.211768 25.21984
69.269825 -1.97731 24.579811
68.998986 -0.863057 24.233886
0.501478 -43.236555 77.179054
0.233024 -43.640663 78.495796
0.80571 -42.792417 75.85318
0.501478 -43.236555 77.179054
0.236426 -41.817573 76.694008
1.147113 -42.368704 74.509201
0.80571 -42.792417 75.85318
0.291935 -39.862617 74.938862
-0.039 -40.346227 76.258126
-0.287722 -38.835409 75.828854
0.914019 -40.913285 74.026382
0.291935 -39.862617 74.938862
0.665296 -39.402466 73.59711
1.520474 -41.908552 73.16745
1.147113 -42.368704 74.509201
0.914019 -40.913285 74.026382
1.913561 -41.474801 71.815994
1.520474 -41.908552 73.16745
2.335882 -41.006476 70.476711
1.913561 -41.474801 71.815994
1.709701 -39.984808 71.345348
2.756246 -40.568255 69.13364
2.335882 -41.006476 70.476711
2.579302 -39.043917 68.684013
2.756246 -40.568255 69.13364
2.579302 -39.043917 68.684013
1.924873 -37.936872 69.615669
0.611526 -41.331581 90.025483
0.783164 -40.314835 90.055008
0.157773 -40.238349 89.828774
1.038104 -44.458922 90.045414
0.485994 -43.363647 89.826897
0.503244 -44.386927 89.640392
1.621105 -44.460001 90.372673
1.038104 -44.458922 90.045414
1.638356 -45.483281 90.186169
4.173873 -48.493921 90.335503
4.918789 -48.378986 90.318783
4.258737 -47.369101 90.502041
4.173873 -48.493921 90.335503
3.504872 -48.579115 90.239544
56.556007 -7.170966 40.631088
57.44585 -7.08999 39.878031
57.165058 -6.25734 39.678019
55.909733 -8.119079 41.524919
56.556007 -7.170966 40.631088
55.62894 -7.286429 41.324907
54.083816 -8.371068 42.980684
54.771524 -7.396578 42.147395
54.413055 -9.146954 43.180674
54.083816 -8.371068 42.980684
53.514206 -9.283482 43.942619
51.074206 -10.539782 46.343689
51.718959 -9.585064 45.488954
49.638161 -11.611239 48.072391
48.791118 -11.762919 48.934146
50.56779 -11.428486 47.338533
49.638161 -11.611239 48.072391
50.02997 -12.338696 48.284475
51.466015 -11.267238 46.555773
51.074206 -10.539782 46.343689
50.56779 -11.428486 47.338533
40.115417 -33.796268 72.091133
39.927822 -33.207645 72.220699
39.077557 -34.146271 72.722996
41.055076 -33.44928 71.316399
40.115417 -33.796268 72.091133
42.003287 -33.049503 70.597374
41.913893 -32.457867 70.869812
41.055076 -33.44928 71.316399
42.846455 -32.663521 69.731315
42.003287 -33.049503 70.597374
57.165058 -6.25734 39.678019
57.861275 -5.286482 38.838518
12.86852 -31.702135 82.07732
13.951866 -31.791221 81.277409
11.888229 -32.535471 82.728936
12.86852 -31.702135 82.07732
11.015692 -33.340893 83.490704
12.104076 -33.407694 82.731342
11.888229 -32.535471 82.728936
10.145367 -34.177038 84.198182
11.015692 -33.340893 83.490704
9.378101 -34.988095 84.98687
10.464272 -35.024172 84.2818
10.145367 -34.177038 84.198182
8.304046 -34.988877 85.624359
7.277315 -34.908968 86.301861
8.622951 -35.83601 85.707977
9.378101 -34.988095 84.98687
8.304046 -34.988877 85.624359
4.003648 -36.569195 88.560059
4.930874 -36.666167 88.082116
3.443175 -37.520125 88.98502
4.003648 -36.569195 88.560059
3.119254 -36.512011 88.891125
1.374485 -38.310848 89.774799
2.151315 -38.43828 89.624413
1.781951 -37.335508 89.466473
1.03663 -39.317611 89.895519
1.374485 -38.310848 89.774799
36.937736 -23.977736 65.967922
37.708548 -23.736619 65.25042
36.050001 -24.212878 66.58295
35.274506 -24.401688 67.328632
36.35549 -25.012246 66.672669
36.937736 -23.977736 65.967922
36.050001 -24.212878 66.58295
29.038032 -27.746178 71.769741
30.007035 -26.83471 71.249099
29.212584 -28.559835 71.812637
29.038032 -27.746178 71.769741
28.159179 -28.613306 72.455876
4.326925 -42.214081 66.117019
3.799242 -41.17902 66.940907
4.326925 -42.214081 66.117019
4.683777 -41.804245 64.808033
5.067458 -41.35915 63.525658
5.359699 -40.944153 62.263466
24.118749 -38.659981 80.308155
25.340319 -38.606459 79.81601
24.905922 -37.935621 79.861347
23.377918 -39.392574 80.80579
24.118749 -38.659981 80.308155
22.943522 -38.721736 80.851128
22.637011 -40.166614 81.109112
23.377918 -39.392574 80.80579
21.949981 -40.958862 81.465718
22.637011 -40.166614 81.109112
21.51566 -40.246578 81.705369
21.286391 -41.804264 81.649418
21.949981 -40.958862 81.465718
20.67804 -42.67617 81.882251
21.286391 -41.804264 81.649418
20.220278 -41.910733 82.294808
20.117626 -43.606644 81.979435
20.67804 -42.67617 81.882251
19.101233 -43.745541 82.662125
18.540033 -42.90543 83.176926
18.029339 -43.868332 83.311409
20.117626 -43.606644 81.979435
19.101233 -43.745541 82.662125
16.788507 -47.006574 83.619834
17.15959 -45.918423 83.543335
16.170711 -46.106462 84.243545
16.788507 -47.006574 83.619834
16.475808 -48.145456 83.627174
6.534898 -48.074579 89.950997
5.845026 -47.091797 90.253029
5.693525 -48.236948 90.183289
7.392892 -47.892464 89.615685
6.534898 -48.074579 89.950997
8.307963 -47.701244 89.206265
7.60147 -46.738208 89.611317
7.392892 -47.892464 89.615685
9.226729 -47.496025 88.714898
8.307963 -47.701244 89.206265
10.193943 -47.29329 88.174763
9.483756 -46.344254 88.661763
9.226729 -47.496025 88.714898
11.152904 -47.079786 87.575504
10.193943 -47.29329 88.174763
10.895876 -48.231558 87.628639
13.545636 -48.791343 85.682148
12.836583 -47.807344 86.366649
12.56389 -49.002054 86.344879
14.515477 -48.565888 85.008724
13.545636 -48.791343 85.682148
67.857083 -9.330564 33.471954
68.305301 -8.771513 32.412007
67.707634 -8.450128 32.954876
67.857083 -9.330564 33.471954
67.42495 -9.927642 34.5088
67.21497 -12.483559 36.456603
67.130711 -11.504855 36.063595
66.755127 -13.17472 37.489429
67.21497 -12.483559 36.456603
66.284702 -13.868445 38.544212
66.755127 -13.17472 37.489429
66.200512 -12.85733 38.179195
65.811691 -14.579855 39.558731
66.284702 -13.868445 38.544212
65.811691 -14.579855 39.558731
65.256961 -14.263072 40.263099
64.161762 -14.726137 41.961128
64.618931 -14.01026 40.909981
63.996856 -13.761306 41.578888
64.161762 -14.726137 41.961128
63.685817 -15.446765 42.951183
61.977756 -15.741833 45.3213
62.398596 -15.024075 44.277209
61.745444 -14.849581 44.944372
60.898866 -16.28262 46.984802
60.613629 -15.471968 46.632038
60.187891 -16.18725 47.628376
61.516233 -16.463024 46.282536
60.898866 -16.28262 46.984802
61.977756 -15.741833 45.3213
61.516233 -16.463024 46.282536
43.606733 -12.750525 55.639752
43.046762 -12.846237 56.761074
44.249226 -12.60998 54.618541
43.606733 -12.750525 55.639752
43.631822 -13.641708 55.344597
44.883391 -12.50633 53.54211
44.249226 -12.60998 54.618541
45.001995 -13.350359 53.365005
45.61107 -12.355526 52.583729
44.883391 -12.50633 53.54211
41.558525 -16.891554 58.752861
41.391624 -16.030869 58.922187
40.975655 -17.071587 59.74746
52.002537 -22.635815 60.522167
51.677639 -22.027439 60.4216
51.210861 -22.920127 61.274326
52.685423 -22.409595 59.66127
52.002537 -22.635815 60.522167
53.409433 -22.218741 58.860325
53.193326 -21.552272 58.868496
52.685423 -22.409595 59.66127
54.02731 -22.097383 57.96806
53.409433 -22.218741 58.860325
49.672705 -25.805515 63.665108
48.989195 -26.822398 64.232429
68.349117 -1.696111 26.199664
68.716716 -1.211768 25.21984
65.48246 -2.463704 30.571861
64.907955 -3.211674 31.547676
66.007396 -1.825279 29.553384
65.48246 -2.463704 30.571861
66.260875 -2.836947 29.849824
66.526314 -1.137134 28.592386
66.007396 -1.825279 29.553384
67.248245 -1.632362 27.832456
66.526314 -1.137134 28.592386
67.960385 -2.12653 27.213451
67.248245 -1.632362 27.832456
67.497951 -2.692691 28.212343
68.598824 -2.75644 26.579552
68.349117 -1.696111 26.199664
67.960385 -2.12653 27.213451
69.177346 -5.759996 28.250996
69.5629 -5.388363 27.22427
69.02602 -4.796523 27.622345
68.812054 -6.081198 29.249153
68.197029 -5.635013 29.69767
68.368618 -6.548054 30.297753
69.177346 -5.759996 28.250996
68.812054 -6.081198 29.249153
66.500794 -2.668475 14.669704
66.90097 -1.340089 14.662629
66.751499 -4.039034 15.259089
66.500794 -2.668475 14.669704
67.885029 -2.708239 15.709458
67.520668 -1.388175 15.256455
68.153293 -1.40888 15.823739
67.520347 -4.027202 15.715895
67.885029 -2.708239 15.709458
68.152973 -4.047907 16.283178
66.751499 -4.039034 15.259089
67.520347 -4.027202 15.715895
69.684986 -6.61414 18.779213
69.217579 -6.615607 18.105338
69.517296 -5.343372 18.092509
69.826961 -7.838499 19.49165
69.684986 -6.61414 18.779213
70.126678 -6.566263 19.47882
69.973751 -1.803454 19.514564
69.794941 -1.66252 18.682178
70.267434 -3.024032 19.970374
69.973751 -1.803454 19.514564
70.11649 -1.904535 20.359977
70.786797 -6.589809 21.927122
70.675431 -6.543918 21.060288
70.674904 -5.422139 21.188267
70.786797 -6.589809 21.927122
70.870762 -6.567809 22.813313
3 0 316 317
3 0 83 81
3 0 318 320
3 320 319 83
3 318 319 320
3 1 86 84
3 3 89 87
3 4 92 90
3 4 94 92
3 2 321 323
3 321 96 322
3 321 322 323
3 3 324 325
3 3 326 328
3 326 87 327
3 326 327 328
3 329 101 330
3 331 330 99
3 329 330 331
3 7 104 102
3 7 106 104
3 8 109 107
3 10 113 111
3 12 116 114
3 12 118 116
3 332 120 333
3 10 123 121
3 10 111 123
3 335 334 125
3 11 128 126
3 13 131 129
3 13 133 131
3 5 136 134
3 14 139 137
3 15 142 140
3 15 144 142
3 6 147 145
3 337 336 148
3 338 151 339
3 16 154 152
3 16 156 154
3 9 159 157
3 17 162 160
3 17 164 162
3 17 340 342
3 342 341 164
3 340 341 342
3 14 167 165
3 14 137 167
3 343 170 344
3 345 172 346
3 347 346 170
3 345 346 347
3 18 175 173
3 18 176 175
3 19 179 177
3 348 181 349
3 22 350 352
3 350 182 351
3 350 351 352
3 22 353 355
3 355 354 182
3 353 354 355
3 22 356 357
3 19 183 80
3 19 177 183
3 358 184 359
3 23 187 185
3 361 360 82
3 25 190 188
3 362 191 363
3 365 364 191
3 25 366 367
3 25 368 370
3 368 188 369
3 368 369 370
3 371 193 372
3 373 194 374
3 375 374 193
3 373 374 375
3 377 376 194
3 29 197 195
3 31 198 85
3 31 199 198
3 32 202 200
3 34 203 88
3 34 204 203
3 35 207 205
3 37 208 91
3 37 209 208
3 37 378 380
3 380 379 209
3 378 379 380
3 38 381 383
3 383 382 93
3 381 382 383
3 38 384 385
3 386 211 387
3 40 212 95
3 40 213 212
3 41 216 214
3 388 217 389
3 390 389 97
3 388 389 390
3 392 391 217
3 32 218 98
3 32 200 218
3 20 219 178
3 393 220 394
3 395 221 396
3 397 396 220
3 395 396 397
3 399 398 221
3 44 224 222
3 46 225 100
3 46 226 225
3 21 227 180
3 400 228 401
3 402 229 403
3 404 403 228
3 402 403 404
3 406 405 229
3 407 231 408
3 48 409 411
3 409 232 410
3 409 410 411
3 48 233 232
3 49 234 103
3 49 235 234
3 49 236 235
3 50 237 105
3 50 238 237
3 51 241 239
3 53 242 108
3 53 243 242
3 24 244 186
3 54 245 110
3 54 246 245
3 54 247 246
3 55 250 248
3 57 251 112
3 57 252 251
3 26 253 189
3 58 254 115
3 58 255 254
3 58 256 255
3 59 257 117
3 59 258 257
3 412 259 413
3 414 260 415
3 416 415 259
3 414 415 416
3 417 261 418
3 419 418 260
3 417 418 419
3 420 262 421
3 423 422 262
3 60 424 425
3 60 426 428
3 426 263 427
3 426 427 428
3 60 264 263
3 61 265 119
3 61 266 265
3 27 429 431
3 429 267 430
3 429 430 431
3 62 268 122
3 62 269 268
3 62 270 269
3 55 271 124
3 55 248 271
3 28 432 434
3 434 433 192
3 432 433 434
3 56 272 249
3 63 273 127
3 63 274 273
3 30 275 196
3 64 276 130
3 64 435 437
3 437 436 276
3 435 436 437
3 64 438 439
3 441 440 132
3 45 277 223
3 65 278 135
3 65 279 278
3 442 280 443
3 445 444 280
3 66 446 447
3 67 448 450
3 450 449 138
3 448 449 450
3 67 451 453
3 451 281 452
3 451 452 453
3 33 282 201
3 68 283 141
3 68 284 283
3 68 454 456
3 456 455 284
3 454 455 456
3 458 457 143
3 47 285 230
3 69 286 146
3 69 287 286
3 36 288 206
3 70 289 149
3 70 290 289
3 70 291 290
3 71 292 150
3 71 293 292
3 39 294 210
3 72 295 153
3 72 296 295
3 72 297 296
3 73 298 155
3 73 299 298
3 52 300 240
3 74 301 158
3 74 302 301
3 42 303 215
3 75 304 161
3 75 305 304
3 75 306 305
3 76 307 163
3 76 308 307
3 76 309 308
3 77 310 166
3 77 311 310
3 77 312 311
3 66 459 461
3 461 460 168
3 459 460 461
3 66 462 463
3 464 313 465
3 78 466 468
3 468 467 169
3 466 467 468
3 78 469 470
3 78 471 472
3 79 473 475
3 475 474 171
3 473 474 475
3 79 476 477
3 43 478 480
3 478 314 479
3 478 479 480
3 481 315 482
3 483 482 174
3 481 482 483
3 485 484 315
3 487 486 19
3 488 22 489
3 490 80 491
3 492 491 22
3 490 491 492
3 493 80 494
3 495 19 496
3 497 496 80
3 495 496 497
3 81 82 23
3 83 82 81
3 83 498 500
3 500 499 82
3 498 499 500
3 83 501 502
3 504 503 83
3 506 505 25
3 507 25 508
3 84 85 29
3 86 85 84
3 86 31 85
3 87 88 32
3 89 88 87
3 89 34 88
3 90 91 35
3 92 91 90
3 92 37 91
3 92 93 37
3 94 93 92
3 94 38 93
3 509 95 510
3 96 511 513
3 511 95 512
3 511 512 513
3 96 40 95
3 514 97 515
3 516 515 41
3 514 515 516
3 517 97 518
3 520 519 97
3 521 98 522
3 87 523 525
3 523 98 524
3 523 524 525
3 87 32 98
3 527 526 20
3 99 100 44
3 101 100 99
3 101 46 100
3 529 528 21
3 530 48 531
3 102 532 534
3 532 103 533
3 532 533 534
3 104 103 102
3 104 49 103
3 104 105 49
3 106 105 104
3 106 50 105
3 107 108 51
3 109 108 107
3 109 53 108
3 535 110 536
3 537 536 24
3 535 536 537
3 538 110 539
3 540 54 541
3 542 541 110
3 540 541 542
3 544 543 54
3 111 112 55
3 113 112 111
3 113 57 112
3 114 115 26
3 116 115 114
3 116 58 115
3 116 117 58
3 118 117 116
3 118 59 117
3 545 60 546
3 547 119 548
3 549 548 60
3 547 548 549
3 120 550 552
3 550 119 551
3 550 551 552
3 120 61 119
3 121 122 27
3 123 122 121
3 123 62 122
3 123 124 62
3 111 124 123
3 111 55 124
3 125 553 555
3 555 554 28
3 553 554 555
3 557 556 125
3 126 127 56
3 128 127 126
3 128 63 127
3 129 130 30
3 131 130 129
3 131 64 130
3 131 132 64
3 133 132 131
3 133 558 560
3 560 559 132
3 558 559 560
3 134 135 45
3 136 135 134
3 136 65 135
3 137 138 66
3 139 138 137
3 139 67 138
3 140 141 33
3 142 141 140
3 142 68 141
3 142 143 68
3 144 143 142
3 144 561 563
3 563 562 143
3 561 562 563
3 145 146 47
3 147 146 145
3 147 69 146
3 148 149 36
3 564 149 565
3 566 565 148
3 564 565 566
3 567 70 568
3 569 568 149
3 567 568 569
3 571 570 70
3 572 150 573
3 151 574 576
3 574 150 575
3 574 575 576
3 151 71 150
3 152 153 39
3 154 153 152
3 154 72 153
3 154 155 72
3 156 155 154
3 156 73 155
3 157 158 52
3 159 158 157
3 159 74 158
3 160 161 42
3 162 161 160
3 162 75 161
3 162 163 75
3 164 163 162
3 164 76 163
3 164 577 579
3 579 578 76
3 577 578 579
3 581 580 164
3 165 582 584
3 582 166 583
3 582 583 584
3 167 166 165
3 167 77 166
3 167 168 77
3 137 168 167
3 137 66 168
3 585 169 586
3 170 587 589
3 587 169 588
3 587 588 589
3 170 78 169
3 170 171 78
3 172 171 170
3 172 79 171
3 173 174 43
3 175 174 173
3 175 590 592
3 592 591 174
3 590 591 592
3 175 593 594
3 176 595 597
3 597 596 175
3 595 596 597
3 176 598 599
3 177 600 602
3 600 178 601
3 600 601 602
3 179 178 177
3 179 20 178
3 603 179 604
3 605 604 19
3 603 604 605
3 606 179 607
3 608 20 609
3 610 609 179
3 608 609 610
3 612 611 20
3 613 180 614
3 181 615 617
3 615 180 616
3 615 616 617
3 181 21 180
3 618 181 619
3 182 620 622
3 620 181 621
3 620 621 622
3 182 21 181
3 182 623 625
3 625 624 21
3 623 624 625
3 627 626 182
3 80 628 630
3 630 629 22
3 628 629 630
3 183 631 633
3 633 632 80
3 631 632 633
3 183 634 635
3 183 636 637
3 177 638 640
3 640 639 183
3 638 639 640
3 177 641 642
3 643 102 644
3 184 645 647
3 645 102 646
3 645 646 647
3 184 7 102
3 185 186 8
3 187 186 185
3 187 24 186
3 82 187 23
3 648 187 649
3 650 649 82
3 648 649 650
3 651 24 652
3 653 652 187
3 651 652 653
3 655 654 24
3 188 189 10
3 190 189 188
3 190 26 189
3 656 190 657
3 658 657 25
3 656 657 658
3 191 659 661
3 659 190 660
3 659 660 661
3 191 26 190
3 191 114 26
3 662 114 663
3 664 663 191
3 662 663 664
3 665 12 666
3 667 666 114
3 665 666 667
3 668 27 669
3 670 27 671
3 672 121 673
3 674 673 27
3 672 673 674
3 188 675 677
3 675 121 676
3 675 676 677
3 188 10 121
3 678 192 679
3 680 192 681
3 682 28 683
3 684 683 192
3 682 683 684
3 193 685 686
3 193 687 689
3 687 28 688
3 687 688 689
3 193 125 28
3 194 125 193
3 194 690 692
3 692 691 125
3 690 691 692
3 194 693 694
3 696 695 194
3 195 196 11
3 197 196 195
3 197 30 196
3 85 197 29
3 198 197 85
3 198 30 197
3 198 129 30
3 199 129 198
3 199 13 129
3 698 697 5
3 200 201 14
3 202 201 200
3 202 33 201
3 88 202 32
3 203 202 88
3 203 33 202
3 203 140 33
3 204 140 203
3 204 15 140
3 205 206 6
3 207 206 205
3 207 36 206
3 91 207 35
3 208 207 91
3 208 36 207
3 208 148 36
3 209 148 208
3 209 699 701
3 701 700 148
3 699 700 701
3 209 702 703
3 705 704 209
3 93 706 708
3 708 707 37
3 706 707 708
3 710 709 93
3 711 210 712
3 211 713 715
3 713 210 714
3 713 714 715
3 211 39 210
3 95 716 718
3 716 211 717
3 716 717 718
3 212 211 95
3 212 39 211
3 212 152 39
3 213 152 212
3 213 16 152
3 214 215 9
3 216 215 214
3 216 42 215
3 97 216 41
3 217 216 97
3 217 42 216
3 217 160 42
3 719 160 720
3 721 720 217
3 719 720 721
3 722 17 723
3 724 723 160
3 722 723 724
3 726 725 17
3 98 727 728
3 218 729 731
3 731 730 98
3 729 730 731
3 218 732 733
3 218 734 736
3 734 165 735
3 734 735 736
3 200 165 218
3 200 14 165
3 737 43 738
3 739 43 740
3 741 173 742
3 743 742 43
3 741 742 743
3 744 173 745
3 746 18 747
3 748 747 173
3 746 747 748
3 178 749 750
3 219 751 753
3 753 752 178
3 751 752 753
3 219 754 755
3 756 219 757
3 758 757 20
3 756 757 758
3 220 759 761
3 759 219 760
3 759 760 761
3 220 762 764
3 764 763 219
3 762 763 764
3 220 765 766
3 221 767 769
3 769 768 220
3 767 768 769
3 221 770 771
3 221 772 773
3 775 774 221
3 222 223 1
3 224 223 222
3 224 45 223
3 100 224 44
3 225 224 100
3 225 45 224
3 225 134 45
3 226 134 225
3 226 5 134
3 180 776 778
3 776 101 777
3 776 777 778
3 227 101 180
3 227 46 101
3 779 227 780
3 781 780 21
3 779 780 781
3 228 782 784
3 782 227 783
3 782 783 784
3 228 46 227
3 228 226 46
3 229 226 228
3 229 5 226
3 229 785 787
3 787 786 5
3 785 786 787
3 789 788 229
3 790 230 791
3 792 791 3
3 790 791 792
3 231 793 795
3 793 230 794
3 793 794 795
3 231 47 230
3 796 231 797
3 232 798 800
3 798 231 799
3 798 799 800
3 232 47 231
3 232 145 47
3 233 145 232
3 233 6 145
3 801 48 802
3 103 803 804
3 234 805 807
3 807 806 103
3 805 806 807
3 234 808 810
3 808 48 809
3 808 809 810
3 234 233 48
3 235 233 234
3 235 6 233
3 235 205 6
3 236 205 235
3 236 35 205
3 105 236 49
3 237 236 105
3 237 35 236
3 237 90 35
3 238 90 237
3 238 4 90
3 239 240 2
3 241 240 239
3 241 52 240
3 108 241 51
3 242 241 108
3 242 52 241
3 242 157 52
3 243 157 242
3 243 9 157
3 186 109 8
3 244 109 186
3 244 53 109
3 110 244 24
3 245 244 110
3 245 53 244
3 245 243 53
3 246 243 245
3 246 9 243
3 246 214 9
3 247 214 246
3 247 41 214
3 811 247 812
3 813 812 54
3 811 812 813
3 814 247 815
3 816 41 817
3 818 817 247
3 816 817 818
3 820 819 41
3 821 3 822
3 248 249 0
3 250 249 248
3 250 56 249
3 112 250 55
3 251 250 112
3 251 56 250
3 251 126 56
3 252 126 251
3 252 11 126
3 189 113 10
3 253 113 189
3 253 57 113
3 115 253 26
3 254 253 115
3 254 57 253
3 254 252 57
3 255 252 254
3 255 11 252
3 255 195 11
3 256 195 255
3 256 29 195
3 117 256 58
3 257 256 117
3 257 29 256
3 257 84 29
3 258 84 257
3 258 1 84
3 823 12 824
3 825 12 826
3 827 118 828
3 829 828 12
3 827 828 829
3 830 118 831
3 832 59 833
3 834 833 118
3 832 833 834
3 259 835 836
3 259 837 839
3 837 59 838
3 837 838 839
3 259 258 59
3 260 258 259
3 260 1 258
3 260 222 1
3 261 222 260
3 261 44 222
3 840 261 841
3 262 842 844
3 842 261 843
3 842 843 844
3 262 44 261
3 262 99 44
3 845 99 846
3 847 846 262
3 845 846 847
3 849 848 99
3 850 2 851
3 263 852 853
3 263 854 856
3 854 2 855
3 854 855 856
3 263 239 2
3 264 239 263
3 264 51 239
3 119 264 60
3 265 264 119
3 265 51 264
3 265 107 51
3 266 107 265
3 266 8 107
3 857 120 858
3 267 859 861
3 859 120 860
3 859 860 861
3 267 61 120
3 122 267 27
3 268 267 122
3 268 61 267
3 268 266 61
3 269 266 268
3 269 8 266
3 269 185 8
3 270 185 269
3 270 23 185
3 124 270 62
3 271 270 124
3 271 23 270
3 271 81 23
3 248 81 271
3 248 0 81
3 192 862 863
3 865 864 192
3 867 866 28
3 249 868 870
3 870 869 0
3 868 869 870
3 272 871 873
3 873 872 249
3 871 872 873
3 272 874 875
3 127 272 56
3 273 272 127
3 273 876 878
3 878 877 272
3 876 877 878
3 273 879 880
3 274 881 883
3 883 882 273
3 881 882 883
3 274 884 885
3 196 128 11
3 275 128 196
3 275 63 128
3 130 275 30
3 276 275 130
3 276 63 275
3 276 274 63
3 886 274 887
3 888 887 276
3 886 887 888
3 890 889 274
3 132 891 893
3 893 892 64
3 891 892 893
3 895 894 132
3 223 86 1
3 277 86 223
3 277 31 86
3 135 277 45
3 278 277 135
3 278 31 277
3 278 199 31
3 279 199 278
3 279 13 199
3 896 136 897
3 898 897 5
3 896 897 898
3 899 136 900
3 901 65 902
3 903 902 136
3 901 902 903
3 904 65 905
3 906 279 907
3 908 907 65
3 906 907 908
3 280 909 911
3 909 279 910
3 909 910 911
3 280 13 279
3 280 133 13
3 912 133 913
3 914 913 280
3 912 913 914
3 916 915 133
3 138 917 919
3 919 918 66
3 917 918 919
3 921 920 138
3 281 922 923
3 281 924 925
3 201 139 14
3 282 139 201
3 282 67 139
3 141 282 33
3 283 282 141
3 283 67 282
3 283 281 67
3 284 281 283
3 284 926 928
3 928 927 281
3 926 927 928
3 284 929 930
3 932 931 284
3 143 933 935
3 935 934 68
3 933 934 935
3 937 936 143
3 230 89 3
3 285 89 230
3 285 34 89
3 146 285 47
3 286 285 146
3 286 34 285
3 286 204 34
3 287 204 286
3 287 15 204
3 206 147 6
3 288 147 206
3 288 69 147
3 149 288 36
3 289 288 149
3 289 69 288
3 289 287 69
3 290 287 289
3 290 15 287
3 290 144 15
3 291 144 290
3 291 938 940
3 940 939 144
3 938 939 940
3 941 291 942
3 943 942 70
3 941 942 943
3 944 291 945
3 947 946 291
3 150 948 949
3 292 950 952
3 952 951 150
3 950 951 952
3 292 953 954
3 292 955 957
3 955 184 956
3 955 956 957
3 293 184 292
3 293 7 184
3 210 958 960
3 958 151 959
3 958 959 960
3 294 151 210
3 294 71 151
3 153 294 39
3 295 294 153
3 295 71 294
3 295 293 71
3 296 293 295
3 296 7 293
3 296 106 7
3 297 106 296
3 297 50 106
3 155 297 72
3 298 297 155
3 298 50 297
3 298 238 50
3 299 238 298
3 299 4 238
3 240 96 2
3 300 96 240
3 300 40 96
3 158 300 52
3 301 300 158
3 301 40 300
3 301 213 40
3 302 213 301
3 302 16 213
3 215 159 9
3 303 159 215
3 303 74 159
3 161 303 42
3 304 303 161
3 304 74 303
3 304 302 74
3 305 302 304
3 305 16 302
3 305 156 16
3 306 156 305
3 306 73 156
3 163 306 75
3 307 306 163
3 307 73 306
3 307 299 73
3 308 299 307
3 308 4 299
3 308 94 4
3 309 94 308
3 309 38 94
3 961 309 962
3 963 962 76
3 961 962 963
3 964 309 965
3 966 38 967
3 968 967 309
3 966 967 968
3 970 969 38
3 972 971 17
3 973 18 974
3 166 975 976
3 310 977 979
3 979 978 166
3 977 978 979
3 310 980 981
3 310 982 983
3 311 984 986
3 986 985 310
3 984 985 986
3 311 987 989
3 987 18 988
3 987 988 989
3 311 176 18
3 312 176 311
3 312 990 992
3 992 991 176
3 990 991 992
3 168 312 77
3 993 312 994
3 995 994 168
3 993 994 995
3 997 996 312
3 313 998 999
3 313 1000 1001
3 169 1002 1004
3 1002 313 1003
3 1002 1003 1004
3 1005 313 1006
3 1007 1006 169
3 1005 1006 1007
3 1009 1008 313
3 171 1010 1012
3 1012 1011 78
3 1010 1011 1012
3 1015 1014 171
3 1013 1014 1015
3 1016 172 1017
3 314 1018 1020
3 1018 172 1019
3 1018 1019 1020
3 314 79 172
3 174 314 43
3 315 314 174
3 315 79 314
3 315 1021 1023
3 1023 1022 79
3 1021 1022 1023
3 1025 1024 315
