ply
format ascii 1.0
element vertex 323
property float x
property float y
property float z
element face 290
property list uchar int vertex_index
end_header
28.770947 -24.248219 -37.430534
29.162489 -13.058142 -42.695946
30.246103 -15.23662 -45.833664
29.533188 -3.07889 -51.208328
28.642673 -8.074938 -47.171738
29.087294 -2.649885 -48.440498
28.473654 -33.857342 -29.679007
28.815264 -30.154228 -33.97776
28.849384 -18.570335 -40.381004
28.935772 -19.791952 -41.822891
28.566042 -13.796758 -44.875725
29.647896 -8.987889 -48.964699
31.86293 10.649324 -44.329636
30.705776 6.854094 -46.961418
29.780979 2.378773 -48.400047
29.883675 2.458302 -52.208878
27.244276 -39.476257 -26.36537
29.217052 -5.217478 -46.356506
29.509638 -2.646906 -46.598946
29.181973 -23.62611 -36.633324
29.003443 -26.39435 -35.135262
28.821264 -29.197807 -33.528481
28.79203 -27.164589 -35.759483
28.919138 -25.06266 -37.947662
28.977097 -15.793559 -41.628784
28.553909 -16.201113 -42.675751
28.604658 -13.365813 -43.930229
28.903116 -5.558352 -49.249672
28.856693 -8.431789 -48.231255
29.53001 -5.991718 -50.219574
30.697948 -6.653664 -50.84668
30.544939 -3.626755 -52.086357
30.596498 7.195215 -49.472313
30.212337 4.695786 -47.849068
30.068111 4.937284 -50.149704
29.639385 2.503681 -50.459969
30.234407 5.038361 -52.154312
25.438358 -43.537601 -23.038561
28.334984 -34.988808 -30.059378
27.919247 -36.625122 -28.032587
29.438669 -17.51667 -43.881432
29.84528 -20.716478 -42.101913
28.743889 -10.586357 -44.985062
28.95521 -7.86758 -45.806519
28.827915 -5.320884 -47.95414
29.055792 -2.768017 -49.986122
28.938755 -31.144342 -31.277784
28.609863 -32.05468 -31.829504
28.783377 -21.387165 -38.975838
28.726473 -22.041662 -39.667122
28.597216 -19.091518 -41.248199
28.697292 -16.75849 -43.431091
29.125443 -14.408703 -45.512924
28.549948 -10.901971 -46.133018
28.928963 -11.382061 -46.973045
29.889242 -12.067581 -47.489372
30.967186 -9.768545 -49.35981
31.66728 10.504608 -41.493797
31.26075 8.601778 -42.971046
31.260468 8.839733 -45.772797
30.865654 6.590437 -44.263763
30.494053 4.458414 -45.315483
30.147364 2.203375 -46.075394
29.820648 -0.168812 -46.507935
29.406799 -0.076929 -48.596313
29.302952 -0.073893 -50.400085
29.651745 -0.256641 -51.884697
30.511532 -0.686279 -53.025406
27.521931 -38.135208 -26.028929
26.556633 -40.78904 -24.520727
29.257927 -22.908051 -40.069084
29.818315 -2.650511 -45.548965
29.701002 -3.902821 -45.542705
29.48847 -14.260092 -41.506138
29.606447 -12.925931 -41.948753
29.069793 -14.42585 -42.162365
29.395774 -15.6278 -40.972557
29.48847 -14.260092 -41.506138
30.655851 7.320522 -50.592156
30.966561 8.415826 -50.181702
30.391658 6.191556 -50.930851
30.332304 6.066249 -49.811008
30.655851 7.320522 -50.592156
30.474806 6.242095 -51.933155
30.151259 4.987823 -51.152008
30.391658 6.191556 -50.930851
25.660975 -42.747503 -22.868341
24.974317 -44.01433 -22.21423
28.144732 -36.507368 -29.152328
28.513886 -35.717495 -30.112911
30.470954 -16.871097 -44.931732
30.067237 -18.011122 -43.955616
29.842386 -16.376645 -44.857548
29.298407 -7.80037 -44.983788
29.173126 -9.11829 -44.679276
29.139322 -29.802518 -32.042163
29.312943 -30.784495 -30.874198
28.807112 -31.697145 -33.041248
28.704411 -32.647371 -31.96712
28.712564 -31.104454 -32.903632
29.077951 -30.773416 -34.066387
28.807112 -31.697145 -33.041248
29.111404 -19.726406 -39.19445
29.217202 -18.365302 -39.811798
28.816381 -19.97875 -39.678421
29.0784 -21.134821 -38.491867
29.111404 -19.726406 -39.19445
31.508713 -7.104319 -50.983849
31.367475 -5.540615 -51.726132
31.765105 10.576966 -42.911716
32.075961 11.39898 -42.087288
32.173786 11.471338 -43.505207
30.983122 7.846914 -46.367108
31.244238 9.043177 -47.110894
30.966892 8.050357 -47.705204
31.157342 0.439358 -53.842743
30.556509 0.736586 -53.320511
31.186308 -1.037494 -53.4151
31.157342 0.439358 -53.842743
28.413702 -34.700732 -28.609274
28.772044 -33.420281 -29.353401
26.828972 -40.956844 -25.536199
26.485151 -41.613236 -24.613878
26.900455 -40.132649 -25.443048
30.075934 -22.370272 -41.147274
30.522809 -21.3029 -42.102184
29.554709 -5.188107 -45.421486
29.429328 -6.475319 -45.258781
29.363345 -3.932192 -46.477726
29.554709 -5.188107 -45.421486
29.701002 -3.902821 -45.542705
29.438879 -24.706971 -35.440124
29.60032 -23.370962 -36.108006
29.349614 -26.091091 -34.691093
29.438879 -24.706971 -35.440124
29.092708 -25.01023 -35.884293
29.171665 -27.427521 -33.970901
29.349614 -26.091091 -34.691093
28.912354 -27.796079 -34.331871
29.080576 -28.82925 -33.167511
29.171665 -27.427521 -33.970901
28.965756 -27.668396 -35.931954
28.977373 -29.163215 -35.041092
28.803647 -28.659408 -34.868622
29.02931 -26.617432 -37.026043
28.965756 -27.668396 -35.931954
28.855584 -26.113625 -36.853572
29.272424 -25.593226 -38.06633
29.02931 -26.617432 -37.026043
29.281059 -16.976914 -40.435688
29.395774 -15.6278 -40.972557
28.913241 -17.181947 -41.004894
29.217202 -18.365302 -39.811798
29.281059 -16.976914 -40.435688
31.290971 -4.02716 -52.34597
31.367475 -5.540615 -51.726132
30.621443 -5.14021 -51.466518
32.303455 11.64957 -44.920048
32.173786 11.471338 -43.505207
30.912253 8.220918 -48.960651
30.966561 8.415826 -50.181702
30.651137 7.024655 -48.216865
30.966892 8.050357 -47.705204
30.912253 8.220918 -48.960651
24.794168 -44.972156 -22.319458
24.974317 -44.01433 -22.21423
25.415529 -44.532919 -23.062349
24.794168 -44.972156 -22.319458
27.936864 -37.325525 -28.138933
28.127115 -35.806965 -29.045983
28.144732 -36.507368 -29.152328
27.599379 -38.751092 -27.305324
27.581761 -38.050689 -27.198978
27.936864 -37.325525 -28.138933
27.332513 -40.332531 -26.392815
27.599379 -38.751092 -27.305324
30.270542 -19.611025 -43.065857
29.641974 -19.116574 -42.991672
30.067237 -18.011122 -43.955616
30.522809 -21.3029 -42.102184
30.270542 -19.611025 -43.065857
29.276765 -11.713571 -43.123989
29.606447 -12.925931 -41.948753
29.067465 -10.477678 -44.268547
28.953189 -11.822249 -43.840504
29.276765 -11.713571 -43.123989
28.84955 -9.226968 -45.395791
29.067465 -10.477678 -44.268547
29.173126 -9.11829 -44.679276
29.086131 -6.542529 -46.081513
29.298407 -7.80037 -44.983788
29.429328 -6.475319 -45.258781
29.004595 -32.063781 -30.15279
29.312943 -30.784495 -30.874198
28.706204 -32.500842 -30.478395
28.772044 -33.420281 -29.353401
29.004595 -32.063781 -30.15279
28.880009 -30.171075 -32.403132
29.139322 -29.802518 -32.042163
29.080576 -28.82925 -33.167511
28.566972 -34.114435 -31.082057
28.472423 -33.521744 -30.944441
28.704411 -32.647371 -31.96712
28.513886 -35.717495 -30.112911
28.566972 -34.114435 -31.082057
29.077951 -30.773416 -34.066387
28.977373 -29.163215 -35.041092
31.024085 -15.767351 -45.839107
30.794374 -14.107996 -46.755566
29.277698 -22.254294 -37.32061
29.60032 -23.370962 -36.108006
28.982675 -22.506638 -37.804581
29.277698 -22.254294 -37.32061
29.0784 -21.134821 -38.491867
30.615944 -12.523477 -47.58342
30.794374 -14.107996 -46.755566
30.067673 -13.6521 -46.661518
31.154916 -11.373959 -48.518639
30.615944 -12.523477 -47.58342
30.428214 -10.918063 -48.424591
31.830869 -10.275559 -49.387192
31.154916 -11.373959 -48.518639
31.643332 -8.661759 -50.240414
30.832567 -8.211104 -50.103245
31.508713 -7.104319 -50.983849
31.830869 -10.275559 -49.387192
31.643332 -8.661759 -50.240414
31.865239 11.412681 -40.688934
32.075961 11.39898 -42.087288
31.448731 10.648888 -40.129646
31.865239 11.412681 -40.688934
31.364487 9.604131 -40.838443
31.448731 10.648888 -40.129646
31.161222 8.652715 -41.577068
31.364487 9.604131 -40.838443
31.464015 9.553193 -42.232422
31.073705 7.587692 -42.233013
31.161222 8.652715 -41.577068
31.908056 10.85865 -45.722054
32.303455 11.64957 -44.920048
31.606825 9.953855 -46.443634
31.244238 9.043177 -47.110894
31.561699 9.744529 -45.051216
31.908056 10.85865 -45.722054
31.606825 9.953855 -46.443634
30.876157 6.582021 -42.879371
31.073705 7.587692 -42.233013
31.063202 7.596107 -43.617404
30.787962 5.486904 -43.451828
30.876157 6.582021 -42.879371
30.602162 4.420893 -43.977688
30.787962 5.486904 -43.451828
30.679854 5.524425 -44.789623
30.512163 3.288687 -44.434944
30.602162 4.420893 -43.977688
30.338818 2.161168 -44.8149
30.512163 3.288687 -44.434944
30.320709 3.330895 -45.695439
30.243024 0.988334 -45.130318
30.338818 2.161168 -44.8149
30.079666 -0.197759 -45.346589
30.243024 0.988334 -45.130318
29.984006 1.017281 -46.291665
29.97382 -1.411464 -45.50346
30.079666 -0.197759 -45.346589
29.665143 -1.407859 -46.553441
29.818315 -2.650511 -45.548965
29.97382 -1.411464 -45.50346
30.714912 6.251743 -52.889225
30.474806 6.242095 -51.933155
30.529309 4.963598 -52.987797
30.714912 6.251743 -52.889225
30.353943 3.673568 -53.015079
30.059041 3.748331 -52.181595
30.529309 4.963598 -52.987797
30.242581 2.308877 -52.912247
30.353943 3.673568 -53.015079
30.126615 0.951405 -52.750157
29.76771 1.100831 -52.046788
30.242581 2.308877 -52.912247
30.081638 -0.47146 -52.455051
30.126615 0.951405 -52.750157
30.556509 0.736586 -53.320511
31.203012 -2.507732 -52.945576
30.528236 -2.156517 -52.555881
31.186308 -1.037494 -53.4151
31.290971 -4.02716 -52.34597
31.203012 -2.507732 -52.945576
28.136499 -36.084621 -27.786064
28.413702 -34.700732 -28.609274
28.19645 -35.241232 -28.855797
27.937841 -36.839664 -26.784235
28.136499 -36.084621 -27.786064
27.720589 -37.380165 -27.030758
27.859238 -37.615071 -25.724108
27.937841 -36.839664 -26.784235
27.316834 -38.819994 -25.037664
27.859238 -37.615071 -25.724108
26.834184 -40.14691 -24.283563
27.316834 -38.819994 -25.037664
27.039282 -39.462124 -25.274828
26.220113 -41.373222 -23.609425
26.834184 -40.14691 -24.283563
25.997495 -42.16332 -23.779644
25.660975 -42.747503 -22.868341
26.220113 -41.373222 -23.609425
25.926013 -42.987516 -23.872795
25.997495 -42.16332 -23.779644
26.485151 -41.613236 -24.613878
25.415529 -44.532919 -23.062349
25.926013 -42.987516 -23.872795
26.828972 -40.956844 -25.536199
27.332513 -40.332531 -26.392815
29.441819 -24.515921 -39.127041
29.272424 -25.593226 -38.06633
29.088532 -23.985356 -39.008373
29.782258 -23.466058 -40.130859
29.551603 -21.812264 -41.085498
30.075934 -22.370272 -41.147274
29.441819 -24.515921 -39.127041
29.782258 -23.466058 -40.130859
30.470954 -16.871097 -44.931732
31.024085 -15.767351 -45.839107
3 71 18 72
3 0 20 19
3 0 22 20
3 0 23 22
3 1 73 74
3 1 75 77
3 75 24 76
3 75 76 77
3 1 26 24
3 3 29 27
3 3 31 29
3 78 32 79
3 80 34 81
3 82 81 32
3 80 81 82
3 83 36 84
3 85 84 34
3 83 84 85
3 86 37 87
3 89 88 38
3 2 90 92
3 92 91 40
3 90 91 92
3 93 43 94
3 5 44 17
3 5 45 44
3 95 46 96
3 7 47 21
3 7 97 99
3 99 98 47
3 97 98 99
3 7 100 101
3 8 102 103
3 8 104 106
3 104 48 105
3 104 105 106
3 8 50 48
3 10 51 25
3 10 52 51
3 4 53 42
3 11 54 28
3 11 55 54
3 11 56 55
3 108 107 30
3 12 109 111
3 109 57 110
3 109 110 111
3 12 58 57
3 13 112 114
3 112 59 113
3 112 113 114
3 13 60 59
3 13 61 60
3 14 62 33
3 14 63 62
3 14 64 63
3 15 65 35
3 15 66 65
3 115 67 116
3 118 117 67
3 6 119 120
3 16 68 39
3 16 69 68
3 16 121 123
3 123 122 69
3 121 122 123
3 9 70 49
3 125 124 41
3 126 17 127
3 18 128 130
3 128 17 129
3 128 129 130
3 18 5 17
3 19 131 132
3 20 133 135
3 135 134 19
3 133 134 135
3 20 136 137
3 20 138 140
3 138 21 139
3 138 139 140
3 22 21 20
3 22 7 21
3 22 141 143
3 143 142 7
3 141 142 143
3 23 144 146
3 146 145 22
3 144 145 146
3 23 147 148
3 24 149 150
3 24 151 153
3 151 8 152
3 151 152 153
3 24 25 8
3 26 25 24
3 26 10 25
3 27 28 4
3 29 28 27
3 29 11 28
3 29 30 11
3 31 30 29
3 31 154 156
3 156 155 30
3 154 155 156
3 157 12 158
3 32 159 160
3 32 161 163
3 161 13 162
3 161 162 163
3 32 33 13
3 34 33 32
3 34 14 33
3 34 35 14
3 36 35 34
3 36 15 35
3 37 164 165
3 37 166 167
3 38 39 6
3 168 39 169
3 170 169 38
3 168 169 170
3 171 16 172
3 173 172 39
3 171 172 173
3 175 174 16
3 40 41 9
3 176 41 177
3 178 177 40
3 176 177 178
3 180 179 41
3 181 1 182
3 183 42 184
3 185 184 1
3 183 184 185
3 43 186 188
3 186 42 187
3 186 187 188
3 43 4 42
3 17 189 191
3 189 43 190
3 189 190 191
3 44 43 17
3 44 4 43
3 44 27 4
3 45 27 44
3 45 3 27
3 46 192 193
3 46 194 196
3 194 6 195
3 194 195 196
3 21 197 199
3 197 46 198
3 197 198 199
3 47 46 21
3 47 6 46
3 47 38 6
3 200 38 201
3 202 201 47
3 200 201 202
3 204 203 38
3 206 205 7
3 208 207 2
3 209 19 210
3 48 211 213
3 211 19 212
3 211 212 213
3 48 0 19
3 48 49 0
3 50 49 48
3 50 9 49
3 25 50 8
3 51 50 25
3 51 9 50
3 51 40 9
3 52 40 51
3 52 2 40
3 42 26 1
3 53 26 42
3 53 10 26
3 28 53 4
3 54 53 28
3 54 10 53
3 54 52 10
3 55 52 54
3 55 2 52
3 55 214 216
3 216 215 2
3 214 215 216
3 56 217 219
3 219 218 55
3 217 218 219
3 56 220 221
3 30 56 11
3 222 56 223
3 224 223 30
3 222 223 224
3 226 225 56
3 57 227 228
3 57 229 230
3 57 231 232
3 58 233 235
3 235 234 57
3 233 234 235
3 58 236 237
3 238 12 239
3 59 240 241
3 59 242 244
3 242 12 243
3 242 243 244
3 59 58 12
3 60 58 59
3 60 245 247
3 247 246 58
3 245 246 247
3 60 248 249
3 61 250 252
3 252 251 60
3 250 251 252
3 61 253 254
3 33 61 13
3 62 61 33
3 62 255 257
3 257 256 61
3 255 256 257
3 62 258 259
3 63 260 262
3 262 261 62
3 260 261 262
3 63 263 264
3 63 265 267
3 265 18 266
3 265 266 267
3 64 18 63
3 64 5 18
3 35 64 14
3 65 64 35
3 65 5 64
3 65 45 5
3 66 45 65
3 66 3 45
3 268 36 269
3 270 36 271
3 272 15 273
3 274 273 36
3 272 273 274
3 275 15 276
3 277 66 278
3 279 278 15
3 277 278 279
3 67 280 282
3 280 66 281
3 280 281 282
3 67 3 66
3 67 31 3
3 283 31 284
3 285 284 67
3 283 284 285
3 287 286 31
3 39 288 290
3 290 289 6
3 288 289 290
3 68 291 293
3 293 292 39
3 291 292 293
3 68 294 295
3 68 296 297
3 69 298 300
3 300 299 68
3 298 299 300
3 69 301 302
3 69 303 305
3 303 37 304
3 303 304 305
3 306 37 307
3 308 307 69
3 306 307 308
3 310 309 37
3 312 311 16
3 49 23 0
3 70 23 49
3 70 313 315
3 315 314 23
3 313 314 315
3 41 70 9
3 316 70 317
3 318 317 41
3 316 317 318
3 320 319 70
3 322 321 2
