ply
format ascii 1.0
element vertex 360
property float x
property float y
property float z
element face 280
property list uchar int vertex_index
end_header
4.95668 26.397987 -21.151928
-8.144985 24.716984 -29.674873
-2.257914 19.18018 -28.632885
5.861725 37.297432 -14.221491
5.996712 46.090199 7.061603
4.780293 49.378681 -9.482582
-9.645025 14.660217 -27.850517
-12.745764 17.033455 -28.497551
2.56995 23.08213 -27.004913
-5.013493 22.362289 -29.237339
4.771458 51.555759 -3.798845
5.408394 32.519882 -18.025387
4.354954 28.369465 -23.37273
3.956284 24.823658 -24.505772
-3.583618 20.862389 -28.983982
-5.717005 16.980263 -28.270981
-4.299921 15.329597 -28.053349
2.432232 17.262833 -26.064709
1.513535 19.258785 -27.330284
5.203667 49.433903 4.711808
5.537601 49.19495 1.615105
5.082912 39.72604 -16.647068
5.622906 35.064106 -16.20997
-14.324534 17.956581 -28.929661
-0.543606 23.063526 -29.1353
5.262341 41.833462 -14.484976
5.453678 43.690956 -12.158628
5.630928 45.309978 -9.677937
5.759583 46.686642 -7.050472
4.74416 49.359615 7.876988
5.488358 45.923641 10.169037
-8.755299 19.728558 -28.695126
-10.354362 20.797462 -28.976776
-11.184381 15.937603 -28.132072
3.314564 26.806938 -26.411194
3.338104 21.094456 -25.402695
-6.539042 23.652767 -29.452209
-7.205408 18.453144 -28.468891
-8.135906 13.203968 -27.646252
1.753889 25.038158 -28.372429
0.5327 21.209332 -28.355816
-1.033306 17.349777 -28.126892
4.818584 50.603916 -6.704346
4.613598 52.214634 -0.775911
4.606255 31.66357 -22.008739
4.778088 34.660374 -20.423981
5.200676 29.630058 -19.670811
-11.992697 21.664131 -29.314659
4.784678 24.635278 -21.810992
4.483815 25.621018 -22.921392
4.655817 27.383726 -22.262329
-2.920766 20.021285 -28.808433
-2.662952 22.819828 -29.33645
-2.0001 21.978724 -29.160902
1.80665 15.337759 -26.282272
2.324171 14.337722 -25.708424
6.268889 35.980528 -13.067626
6.119088 34.964686 -14.069746
6.188957 46.020802 5.532635
5.792435 47.692654 4.357737
5.600189 47.762051 5.886705
6.556672 44.287521 6.706091
6.188957 46.020802 5.532635
6.344038 44.314316 8.211607
6.556672 44.287521 6.706091
6.119088 34.964686 -14.069746
5.999678 33.848022 -15.063985
5.742316 36.180769 -15.21573
-8.980387 25.134652 -29.800998
-7.974675 27.129145 -30.184885
0.151188 24.987438 -29.301887
-0.369244 25.85972 -29.709574
5.017471 44.934359 -13.393917
5.358009 42.762209 -13.321802
4.921803 44.005612 -14.557091
5.205611 47.34433 -9.58026
5.160385 46.604534 -10.902299
4.735067 48.638886 -10.804621
4.084352 50.837741 8.356801
4.33741 50.9794 6.719098
4.462295 49.166916 9.48238
4.084352 50.837741 8.356801
4.921803 44.005612 -14.557091
4.871777 43.024711 -15.731555
3.557228 28.584892 -25.968464
3.2885 29.571411 -26.96687
3.715445 20.11487 -24.510603
3.647194 22.959057 -24.954234
4.024534 21.979471 -24.062142
3.328157 18.188562 -24.993529
3.715445 20.11487 -24.510603
-4.777952 24.996609 -29.777347
-4.044878 24.336706 -29.649901
-5.776268 23.007528 -29.344774
-5.540727 25.641848 -29.884783
-4.777952 24.996609 -29.777347
-7.400823 12.392781 -27.567265
-6.926456 15.092116 -27.958616
-6.191372 14.280929 -27.879629
-8.736462 10.604661 -27.338421
-7.400823 12.392781 -27.567265
2.161919 24.060144 -27.688671
2.203239 26.903101 -28.242035
2.611269 25.925087 -27.558277
0.319052 18.31033 -27.889606
1.023118 20.234058 -27.84305
0.80947 17.335056 -27.376841
-0.463951 16.380552 -27.775145
-0.250303 19.279554 -28.241354
0.319052 18.31033 -27.889606
4.795021 51.079837 -5.251596
4.302869 52.428619 -6.439447
4.279306 52.904541 -4.986697
5.287947 49.68082 -4.041522
5.31151 49.204899 -5.494273
4.795021 51.079837 -5.251596
4.473059 52.389919 0.787139
4.015629 53.853866 -0.380138
5.637016 48.921501 0.112381
6.082617 47.352386 1.317519
5.818066 44.110802 11.286234
5.184067 45.689858 11.736117
4.425602 34.20631 -22.438009
4.347134 32.677107 -23.174978
5.093241 33.590128 -19.224684
4.851721 36.00215 -19.527876
5.166874 34.931904 -18.328579
5.631298 30.063238 -17.718942
5.527439 28.618326 -18.541654
5.304535 31.07497 -18.848099
-13.994897 20.151724 -29.307997
-15.12229 18.341721 -29.161907
4.311921 50.626942 -10.694916
4.735067 48.638886 -10.804621
-10.976075 12.861347 -27.66138
-10.231707 12.134089 -27.527132
4.155619 26.596561 -23.939251
3.878088 27.593252 -25.015753
4.077423 29.366156 -24.449232
4.284479 23.848114 -23.487913
4.155619 26.596561 -23.939251
4.483815 25.621018 -22.921392
4.024534 21.979471 -24.062142
4.284479 23.848114 -23.487913
-3.329941 23.586756 -29.523222
-2.662952 22.819828 -29.33645
-4.298555 21.612339 -29.110661
-4.044878 24.336706 -29.649901
-3.329941 23.586756 -29.523222
-5.48283 13.455596 -27.770813
-6.191372 14.280929 -27.879629
-5.008463 16.15493 -28.162165
1.347301 16.335735 -26.91506
1.972884 18.260809 -26.697496
1.80665 15.337759 -26.282272
0.80947 17.335056 -27.376841
1.347301 16.335735 -26.91506
4.212198 53.290241 -3.466012
4.279306 52.904541 -4.986697
5.370634 49.314426 3.163457
4.935061 50.880077 1.982647
4.768093 50.999554 3.530998
5.959402 47.573177 2.809385
5.370634 49.314426 3.163457
5.792435 47.692654 4.357737
6.082617 47.352386 1.317519
5.959402 47.573177 2.809385
5.004133 38.534982 -17.63942
4.742113 40.864317 -17.900306
5.27413 36.204015 -17.42087
5.004133 38.534982 -17.63942
5.352909 37.395073 -16.428519
5.51565 33.791994 -17.117678
5.166874 34.931904 -18.328579
5.27413 36.204015 -17.42087
5.862535 32.68536 -15.97816
5.75528 31.413248 -16.885868
5.51565 33.791994 -17.117678
5.862535 32.68536 -15.97816
5.999678 33.848022 -15.063985
-14.804475 15.732326 -28.623804
-13.535149 17.495018 -28.713606
-14.01509 15.270764 -28.407749
-15.547071 16.234234 -28.89106
-14.804475 15.732326 -28.623804
-15.12229 18.341721 -29.161907
-15.547071 16.234234 -28.89106
5.125261 23.707828 -20.764809
5.280188 25.446556 -20.049484
-1.142946 23.920396 -29.412109
-0.369244 25.85972 -29.709574
-1.40076 21.121853 -28.884093
-2.0001 21.978724 -29.160902
-1.142946 23.920396 -29.412109
5.690268 40.549065 -13.273791
5.98996 38.28105 -13.142048
5.562033 39.565447 -14.353233
5.785937 41.477812 -12.110616
5.690268 40.549065 -13.273791
5.358009 42.762209 -13.321802
5.910801 42.343403 -10.949045
5.785937 41.477812 -12.110616
5.07176 45.795023 -12.142644
5.017471 44.934359 -13.393917
5.542303 44.500467 -10.918283
5.07176 45.795023 -12.142644
5.160385 46.604534 -10.902299
5.999426 43.152914 -9.708699
5.910801 42.343403 -10.949045
5.542303 44.500467 -10.918283
6.103924 43.904526 -8.468597
5.999426 43.152914 -9.708699
6.168252 44.592858 -7.154865
6.103924 43.904526 -8.468597
5.695256 45.99831 -8.364204
6.234426 45.225883 -5.840519
6.168252 44.592858 -7.154865
4.567164 51.016545 5.136508
4.768093 50.999554 3.530998
4.973914 49.396759 6.294398
4.567164 51.016545 5.136508
4.33741 50.9794 6.719098
4.834395 47.448929 10.628404
5.116259 47.641628 9.023013
4.462295 49.166916 9.48238
5.184067 45.689858 11.736117
4.834395 47.448929 10.628404
4.782063 41.971001 -16.812601
4.742113 40.864317 -17.900306
5.172626 40.779751 -15.566022
4.782063 41.971001 -16.812601
4.871777 43.024711 -15.731555
-11.745753 13.50004 -27.802158
-10.414703 15.29891 -27.991295
-10.976075 12.861347 -27.66138
-12.490704 14.149767 -27.98986
-11.745753 13.50004 -27.802158
-13.271396 14.697693 -28.1726
-11.965072 16.485529 -28.314812
-12.490704 14.149767 -27.98986
-14.01509 15.270764 -28.407749
-13.271396 14.697693 -28.1726
2.983576 27.787491 -27.261418
3.2885 29.571411 -26.96687
2.942257 24.944534 -26.708053
2.611269 25.925087 -27.558277
2.983576 27.787491 -27.261418
3.635424 25.815298 -25.458483
3.557228 28.584892 -25.968464
3.878088 27.593252 -25.015753
2.875221 16.272751 -25.324535
2.885168 19.178645 -25.733702
3.328157 18.188562 -24.993529
2.324171 14.337722 -25.708424
2.875221 16.272751 -25.324535
4.784678 24.635278 -21.810992
5.125261 23.707828 -20.764809
-7.135115 26.714205 -30.094427
-7.974675 27.129145 -30.184885
-6.332143 26.182097 -29.983095
-5.540727 25.641848 -29.884783
-7.342014 24.184876 -29.563541
-7.135115 26.714205 -30.094427
-6.332143 26.182097 -29.983095
-9.477147 11.405965 -27.424999
-10.231707 12.134089 -27.527132
-8.890466 13.932092 -27.748385
-9.477147 11.405965 -27.424999
-8.736462 10.604661 -27.338421
1.836191 27.848634 -28.957361
2.203239 26.903101 -28.242035
1.299936 25.974754 -28.920452
1.836191 27.848634 -28.957361
0.689341 24.060341 -28.912146
1.299936 25.974754 -28.920452
1.143295 23.123745 -28.364123
-0.005453 22.136429 -28.745558
0.151188 24.987438 -29.301887
0.689341 24.060341 -28.912146
-1.357017 14.481078 -27.728396
-0.463951 16.380552 -27.775145
-1.995022 15.439284 -27.942538
-1.357017 14.481078 -27.728396
-2.607327 16.354485 -28.195534
-1.64561 18.264978 -28.379888
-1.995022 15.439284 -27.942538
-3.62833 14.429194 -27.905766
-3.278918 17.254888 -28.343117
-2.607327 16.354485 -28.195534
-4.769793 12.571763 -27.690281
-3.62833 14.429194 -27.905766
-5.48283 13.455596 -27.770813
-4.769793 12.571763 -27.690281
6.268889 35.980528 -13.067626
5.98996 38.28105 -13.142048
4.310488 51.287662 -9.291745
4.311921 50.626942 -10.694916
4.329633 51.90028 -7.902627
4.302869 52.428619 -6.439447
4.799439 49.991298 -8.093464
4.310488 51.287662 -9.291745
4.329633 51.90028 -7.902627
5.78201 47.246262 -5.667336
5.289084 48.645279 -6.877409
5.31151 49.204899 -5.494273
6.234426 45.225883 -5.840519
5.78201 47.246262 -5.667336
4.133268 53.619678 -1.954545
4.015629 53.853866 -0.380138
4.692528 51.885196 -2.287378
4.212198 53.290241 -3.466012
4.133268 53.619678 -1.954545
5.0756 50.704792 0.419597
4.473059 52.389919 0.787139
4.935061 50.880077 1.982647
5.175014 50.431343 -1.083127
5.0756 50.704792 0.419597
5.637016 48.921501 0.112381
5.253944 50.101906 -2.594594
4.692528 51.885196 -2.287378
5.175014 50.431343 -1.083127
5.287947 49.68082 -4.041522
5.253944 50.101906 -2.594594
6.089861 44.231037 9.765324
6.344038 44.314316 8.211607
5.742535 46.00692 8.61532
6.089861 44.231037 9.765324
5.818066 44.110802 11.286234
4.221483 31.030054 -23.856974
4.077423 29.366156 -24.449232
4.480605 30.016517 -22.690734
4.221483 31.030054 -23.856974
4.347134 32.677107 -23.174978
4.555443 37.08968 -20.775744
4.851721 36.00215 -19.527876
4.511519 35.704712 -21.64563
4.555443 37.08968 -20.775744
4.692172 33.161972 -21.21636
4.425602 34.20631 -22.438009
4.511519 35.704712 -21.64563
5.402185 27.062591 -19.308926
5.280188 25.446556 -20.049484
5.078678 28.014022 -20.411369
5.402185 27.062591 -19.308926
5.527439 28.618326 -18.541654
5.631298 30.063238 -17.718942
5.75528 31.413248 -16.885868
-10.085076 23.174891 -29.45195
-8.980387 25.134652 -29.800998
-9.249674 22.757223 -29.325825
-10.904243 23.608225 -29.620891
-10.085076 23.174891 -29.45195
-11.17353 21.230797 -29.145717
-11.766692 23.918394 -29.759123
-10.904243 23.608225 -29.620891
-12.828978 22.005499 -29.500496
-13.158615 19.810356 -29.12216
-13.994897 20.151724 -29.307997
-11.766692 23.918394 -29.759123
-12.828978 22.005499 -29.500496
3 0 48 50
3 50 49 12
3 48 49 50
3 2 51 53
3 51 14 52
3 51 52 53
3 2 16 14
3 55 54 17
3 3 56 57
3 4 58 60
3 60 59 19
3 58 59 60
3 4 61 62
3 4 63 64
3 3 22 21
3 3 65 67
3 67 66 22
3 65 66 67
3 1 68 69
3 70 24 71
3 72 26 73
3 74 73 25
3 72 73 74
3 5 75 77
3 75 27 76
3 75 76 77
3 5 28 27
3 78 29 79
3 81 80 29
3 82 25 83
3 6 33 31
3 84 34 85
3 86 35 87
3 88 87 13
3 86 87 88
3 90 89 35
3 9 91 92
3 9 93 95
3 93 36 94
3 93 94 95
3 9 37 36
3 96 38 97
3 98 97 15
3 96 97 98
3 100 99 38
3 8 101 103
3 101 39 102
3 101 102 103
3 104 40 105
3 106 105 18
3 104 105 106
3 107 41 108
3 109 108 40
3 107 108 109
3 10 110 112
3 110 42 111
3 110 111 112
3 10 113 115
3 115 114 42
3 113 114 115
3 116 43 117
3 119 118 20
3 121 120 30
3 122 44 123
3 11 124 126
3 124 45 125
3 124 125 126
3 11 46 45
3 11 127 129
3 129 128 46
3 127 128 129
3 7 47 32
3 131 130 23
3 132 5 133
3 135 134 6
3 12 136 138
3 136 13 137
3 136 137 138
3 139 13 140
3 141 140 12
3 139 140 141
3 143 142 13
3 14 144 145
3 14 146 148
3 146 9 147
3 146 147 148
3 14 15 9
3 16 15 14
3 16 149 151
3 151 150 15
3 149 150 151
3 17 18 8
3 152 18 153
3 154 153 17
3 152 153 154
3 156 155 18
3 157 10 158
3 19 159 161
3 159 20 160
3 159 160 161
3 162 20 163
3 164 163 19
3 162 163 164
3 166 165 20
3 21 167 168
3 22 169 171
3 171 170 21
3 169 170 171
3 22 172 174
3 172 11 173
3 172 173 174
3 22 175 177
3 177 176 11
3 175 176 177
3 179 178 22
3 180 23 181
3 182 181 7
3 180 181 182
3 183 23 184
3 186 185 23
3 188 187 0
3 24 189 190
3 24 191 193
3 191 2 192
3 191 192 193
3 25 194 196
3 196 195 3
3 194 195 196
3 26 197 199
3 199 198 25
3 197 198 199
3 26 200 201
3 202 26 203
3 27 204 206
3 204 26 205
3 204 205 206
3 27 207 209
3 209 208 26
3 207 208 209
3 27 210 211
3 28 212 214
3 214 213 27
3 212 213 214
3 28 215 216
3 217 19 218
3 29 219 221
3 219 19 220
3 219 220 221
3 29 4 19
3 29 30 4
3 222 30 223
3 224 223 29
3 222 223 224
3 226 225 30
3 227 21 228
3 25 229 231
3 229 21 230
3 229 230 231
3 25 3 21
3 31 32 1
3 33 32 31
3 33 7 32
3 232 33 233
3 234 233 6
3 232 233 234
3 235 33 236
3 237 7 238
3 239 238 33
3 237 238 239
3 241 240 7
3 34 242 243
3 34 244 246
3 244 8 245
3 244 245 246
3 13 247 249
3 247 34 248
3 247 248 249
3 35 34 13
3 35 8 34
3 35 17 8
3 250 17 251
3 252 251 35
3 250 251 252
3 254 253 17
3 256 255 0
3 257 1 258
3 36 259 260
3 36 261 263
3 261 1 262
3 261 262 263
3 36 31 1
3 37 31 36
3 37 6 31
3 15 37 9
3 38 37 15
3 38 6 37
3 38 264 266
3 266 265 6
3 264 265 266
3 268 267 38
3 39 269 270
3 39 271 272
3 18 39 8
3 40 39 18
3 40 273 275
3 275 274 39
3 273 274 275
3 40 276 278
3 276 24 277
3 276 277 278
3 41 24 40
3 41 2 24
3 279 41 280
3 281 41 282
3 283 2 284
3 285 284 41
3 283 284 285
3 286 16 287
3 288 287 2
3 286 287 288
3 289 16 290
3 292 291 16
3 294 293 3
3 295 5 296
3 42 297 298
3 42 299 301
3 299 5 300
3 299 300 301
3 42 28 5
3 302 28 303
3 304 303 42
3 302 303 304
3 306 305 28
3 43 307 308
3 43 309 311
3 309 10 310
3 309 310 311
3 20 312 314
3 312 43 313
3 312 313 314
3 315 43 316
3 317 316 20
3 315 316 317
3 318 10 319
3 320 319 43
3 318 319 320
3 322 321 10
3 30 323 325
3 325 324 4
3 323 324 325
3 327 326 30
3 328 12 329
3 44 330 332
3 330 12 331
3 330 331 332
3 44 0 12
3 45 333 334
3 45 335 336
3 45 337 339
3 337 44 338
3 337 338 339
3 46 44 45
3 46 0 44
3 46 340 342
3 342 341 0
3 340 341 342
3 344 343 46
3 346 345 11
3 32 347 349
3 349 348 1
3 347 348 349
3 47 350 352
3 352 351 32
3 350 351 352
3 47 353 354
3 23 47 7
3 355 47 356
3 357 356 23
3 355 356 357
3 359 358 47
