ply
format ascii 1.0
element vertex 490
property float x
property float y
property float z
element face 536
property list uchar int vertex_index
end_header
-32.406281 35.871651 -16.948601
-38.96447 10.508842 -16.933002
-33.726894 17.953491 -30.275623
-34.106476 25.127125 -14.480883
-37.710556 15.284595 -24.606236
-32.396568 26.775818 -22.018978
-37.113029 15.812687 7.141715
-34.674217 20.235401 1.408885
-44.213547 9.104225 -29.549736
-33.414673 37.772118 -10.162464
-34.252434 23.226307 -6.416525
-32.675049 31.607906 -15.299158
-33.472126 25.975887 -18.314362
-32.146435 31.891373 -18.970425
-41.74395 8.081278 -23.293098
-35.986618 17.037182 -27.811638
-39.168457 13.751034 -30.80999
-36.747116 15.240807 -33.540661
-33.997913 29.385067 0.493006
-34.275448 21.919285 -2.365231
-33.424889 30.711426 -3.363897
-33.223221 31.393661 -7.450052
-33.84021 37.954807 -6.100521
-36.348984 17.669495 -15.128487
-38.698368 12.994392 -20.918373
-35.859253 19.319298 -18.98877
-34.731621 20.79203 -22.605316
-33.035728 21.852268 -25.832771
-37.593884 6.445887 7.345142
-36.587303 8.59824 4.457108
-36.045307 10.649652 1.012584
-35.609276 18.171307 4.642209
-35.176228 27.408627 3.791076
-40.88554 11.225382 -27.286137
-32.924976 36.957558 -13.954657
-35.909824 12.545357 -2.853071
-36.07354 14.302223 -6.951347
-36.32341 15.989819 -11.089964
-34.306053 24.249287 -10.504208
-33.048817 31.594246 -11.486715
-31.376549 32.407673 -22.714581
-30.866035 27.342613 -25.421894
-30.905136 22.316425 -28.410999
-28.408356 22.185791 -30.095261
-31.199982 17.934399 -31.771511
-32.401237 34.12011 -16.117743
-32.424362 31.692554 -17.129314
-32.219688 34.16045 -17.789898
-40.367569 7.402119 -18.015003
-40.3605 8.859388 -20.092018
-34.906254 17.612095 -29.15316
-36.460976 15.890686 -30.636711
-35.236847 16.352737 -31.789516
-33.94175 16.534721 -32.679176
-34.08519 33.530235 -0.583759
-33.646034 30.132946 -1.386335
-33.706638 34.155815 -2.509792
-33.453213 34.576267 -4.518456
-34.126072 37.728031 -4.068377
-35.159904 21.442097 -14.623587
-36.181351 18.504318 -17.084316
-34.938103 22.069637 -16.566959
-32.988007 26.391968 -20.186493
-34.074139 23.26189 -20.322968
-33.440079 23.787502 -22.121025
-33.945881 21.388481 -24.281963
-32.684067 24.230312 -23.838154
-38.167961 9.963318 8.366894
-37.334507 11.127693 7.306958
-37.029278 7.528912 5.976725
-36.632206 12.273441 6.065618
-36.060909 13.383873 4.649148
-36.291351 17.02066 5.991165
-35.321831 31.687202 2.839255
-38.301434 14.184303 -22.808861
-39.841141 11.715202 -24.068939
-39.283371 13.026211 -25.929802
-35.305168 15.443947 1.341872
-35.931526 11.617601 -0.878531
-35.111435 16.376347 -0.508573
-34.233017 22.615902 -4.372898
-35.029755 18.040455 -4.46665
-35.093487 18.784836 -6.514767
-36.205688 15.149727 -9.026024
-35.180618 19.48534 -8.572802
-35.248699 20.154736 -10.619518
-34.291706 23.764938 -8.467678
-33.151642 34.853634 -8.61138
-33.152779 31.538845 -9.488333
-33.013344 34.764179 -10.620691
-32.839661 34.57233 -12.561687
-33.189049 37.425365 -12.112858
-29.897301 27.499069 -26.891293
-30.828285 24.782959 -26.87624
-29.72525 24.879292 -28.112259
-27.084442 19.182362 -31.322659
-27.025717 21.947857 -30.577797
-28.456207 19.589603 -31.126366
-29.778786 19.87812 -30.703976
-29.896799 17.612877 -32.133965
-33.255985 28.564198 -14.718571
-33.846416 25.551323 -16.413515
-32.983654 28.799751 -16.623001
-32.635002 29.073414 -18.50935
-32.209167 29.373875 -20.390602
-43.053669 8.18906 -26.462276
-36.931931 16.249847 -26.284397
-38.52066 14.191422 -27.668839
-37.569397 15.160477 -29.250702
-38.026115 14.645863 -32.296329
-34.215519 24.918617 1.144853
-34.414249 21.126953 -0.426435
-33.902851 25.752407 -0.701424
-33.719135 26.452896 -2.652525
-33.634106 27.023846 -4.669836
-33.607857 27.477154 -6.717615
-33.298656 31.126263 -5.397812
-33.283798 34.801529 -6.565607
-33.618935 37.960224 -8.145527
-37.624866 13.973915 -15.931187
-38.911293 11.757429 -18.954769
-37.516411 15.015736 -17.911957
-37.248257 16.040462 -19.835583
-36.803238 17.018341 -21.689957
-34.576176 22.681282 -18.467892
-35.374302 20.091648 -20.833618
-36.179333 17.913265 -23.458317
-35.388798 18.686817 -25.117455
-34.454308 19.303642 -26.637737
-33.403194 19.737087 -27.985466
-36.947609 4.929348 2.362615
-36.845367 5.951271 0.496368
-36.261448 9.641565 2.797462
-35.619526 14.444366 3.068824
-35.070358 19.24736 3.107795
-36.064072 21.693138 5.700879
-35.292526 22.875092 4.375623
-34.676056 23.955788 2.848355
-34.504318 28.472446 2.231739
-34.618458 32.702522 1.213771
-40.194649 10.310305 -22.115513
-41.420948 9.702082 -25.331478
-42.524406 9.922419 -28.532822
-40.131088 12.594038 -29.125332
-41.763489 11.493418 -30.503159
-32.639256 36.411407 -15.623999
-38.89217 9.274378 -14.864838
-36.82571 6.959242 -1.456638
-36.879051 7.953335 -3.477966
-36.993172 8.937849 -5.547194
-35.026222 17.240486 -2.454758
-35.964703 13.437485 -4.885841
-37.490902 11.913649 -11.837379
-37.603649 12.936031 -13.903051
-36.384861 16.8293 -13.127789
-35.254456 20.804432 -12.639595
-34.254459 24.697659 -12.51111
-33.59515 27.831802 -8.765612
-33.552299 28.11208 -10.790508
-33.445217 28.345875 -12.776825
-32.889408 31.599693 -13.426168
-32.626198 34.328773 -14.402979
-32.064579 34.437069 -19.566467
-31.81464 32.152538 -20.846786
-31.689468 29.664555 -22.249889
-31.046564 29.913227 -24.037773
-31.693306 27.099346 -23.780163
-31.813076 24.566544 -25.437744
-32.018246 22.163784 -27.221172
-32.261452 19.973675 -29.127716
-28.496923 24.867134 -29.115799
-29.701607 22.317436 -29.373829
-31.049183 20.015236 -30.038422
-32.482513 18.056808 -31.152905
-32.616753 16.443691 -33.289101
-34.114508 35.709913 -2.301982
-33.895914 33.843025 -1.546776
-34.303783 35.397123 -1.338966
-34.324224 37.496021 -3.081275
-33.916355 35.941923 -3.289084
-34.114508 35.709913 -2.301982
-37.223768 13.47019 7.224336
-37.701508 12.847418 7.697717
-37.590768 15.189915 7.615095
-45.087359 8.905086 -29.90246
-44.483395 8.136305 -28.450327
-44.67779 9.879097 -31.042524
-45.087359 8.905086 -29.90246
-29.33322 27.536792 -27.517437
-29.575115 28.872484 -27.018625
-29.247195 26.226904 -28.12792
-29.811276 26.18918 -27.501776
-29.33322 27.536792 -27.517437
-28.519041 18.358797 -31.692509
-27.770325 19.385983 -31.224513
-27.833158 18.155177 -31.790655
-29.239337 17.370434 -32.196309
-29.176503 18.60124 -31.630166
-28.519041 18.358797 -31.692509
-29.945159 16.582939 -32.912642
-29.239337 17.370434 -32.196309
-42.553152 7.217723 -23.808782
-41.809893 7.248027 -22.243929
-42.398809 8.135169 -24.877687
-43.208011 7.271614 -25.393372
-42.553152 7.217723 -23.808782
-37.494186 14.941018 -34.45273
-38.133686 14.643546 -33.830564
-37.386615 14.943335 -32.918495
-36.768568 15.131554 -35.00692
-37.494186 14.941018 -34.45273
-37.940802 5.90431 7.949395
-38.22784 7.663025 8.460271
-37.880922 8.204603 7.856018
-37.722491 4.142342 7.318592
-37.940802 5.90431 7.949395
-37.516339 4.655072 6.559299
-37.722491 4.142342 7.318592
-36.864563 6.247988 4.291652
-37.08555 5.713324 5.05146
-36.80829 8.063576 5.216916
-36.767456 6.763794 3.409861
-37.044716 4.413542 3.244405
-36.864563 6.247988 4.291652
-36.53451 23.302674 5.979088
-36.523755 21.061808 6.254404
-35.234377 25.141859 4.083349
-35.652757 24.544409 4.757719
-35.594608 26.811177 4.465445
-35.197121 34.168181 1.351616
-34.970145 32.194862 2.026513
-35.548808 33.660521 2.164358
-34.841801 34.632033 0.493968
-35.197121 34.168181 1.351616
-42.083859 11.947938 -32.08713
-41.270104 12.166618 -31.417257
-42.596728 11.182116 -31.087046
-42.083859 11.947938 -32.08713
-38.812674 8.671875 -13.812883
-39.571953 7.620984 -15.38081
-36.612123 12.111275 -7.297282
-36.557705 11.678907 -6.264529
-36.019121 13.869854 -5.918594
-36.700395 12.605949 -8.348613
-36.612123 12.111275 -7.297282
-32.237011 35.620055 -19.876407
-32.239764 35.398121 -18.974619
-31.595595 32.280106 -21.780684
-31.828227 33.443979 -21.143245
-31.609181 33.571546 -22.077143
-30.9563 28.62792 -24.729834
-30.646003 30.009804 -24.863774
-30.555739 28.724497 -25.555834
-27.773525 23.476154 -29.984941
-27.082206 23.357188 -30.226209
-27.717036 22.066824 -30.336529
-28.45264 23.526463 -29.60553
-27.817809 24.816826 -29.49521
-27.773525 23.476154 -29.984941
-41.121702 6.908447 -19.604881
-41.107683 6.073656 -18.534083
-41.118167 7.637082 -20.643389
-41.121702 6.908447 -19.604881
-40.364035 8.130753 -19.053511
-41.052225 8.470333 -21.692558
-41.809893 7.248027 -22.243929
-41.118167 7.637082 -20.643389
-35.310037 15.934324 -33.147688
-36.065172 15.378359 -34.02326
-35.991981 15.796772 -32.665088
-34.662489 16.025316 -33.592517
-35.310037 15.934324 -33.147688
-34.589298 16.443729 -32.234346
-33.964596 16.003208 -33.92369
-34.662489 16.025316 -33.592517
-38.118234 12.26523 8.227685
-38.65933 11.633885 8.59962
-37.751234 10.545506 7.836926
-38.118234 12.26523 8.227685
-37.701508 12.847418 7.697717
-35.686457 28.958046 4.023569
-35.594608 26.811177 4.465445
-35.759259 31.097333 3.547659
-35.24903 29.547914 3.315165
-35.686457 28.958046 4.023569
-35.990858 33.096443 2.924753
-35.759259 31.097333 3.547659
-35.548808 33.660521 2.164358
-35.990858 33.096443 2.924753
-39.972588 13.295426 -31.570673
-39.378536 13.827677 -32.389395
-31.419427 33.706826 -23.001974
-31.609181 33.571546 -22.077143
-30.071372 28.802725 -26.290534
-29.575115 28.872484 -27.018625
-30.381668 27.420841 -26.156593
-30.555739 28.724497 -25.555834
-30.071372 28.802725 -26.290534
-27.055079 20.565109 -30.950228
-26.29198 21.789851 -30.708593
-26.321343 20.407103 -31.081025
-30.595329 16.858458 -32.87707
-31.24692 17.019219 -32.695842
-30.548391 17.773638 -31.952738
-30.595329 16.858458 -32.87707
-29.945159 16.582939 -32.912642
-37.576271 17.461436 7.416109
-37.590768 15.189915 7.615095
-37.048233 18.121582 6.974823
-37.576271 17.461436 7.416109
-43.903455 7.678723 -26.906597
-43.208011 7.271614 -25.393372
-43.633608 8.646642 -28.006006
-44.483395 8.136305 -28.450327
-43.903455 7.678723 -26.906597
-38.807365 14.275092 -33.132565
-39.378536 13.827677 -32.389395
-38.597286 14.198449 -31.553159
-38.807365 14.275092 -33.132565
-38.133686 14.643546 -33.830564
-36.768568 15.131554 -35.00692
-36.065172 15.378359 -34.02326
-26.375999 18.935255 -31.321713
-26.321343 20.407103 -31.081025
-27.17152 17.850153 -31.749308
-26.375999 18.935255 -31.321713
-27.833158 18.155177 -31.790655
-27.17152 17.850153 -31.749308
-38.649839 9.380172 8.80486
-38.65933 11.633885 8.59962
-38.649839 9.380172 8.80486
-38.22784 7.663025 8.460271
-37.234035 5.196584 5.875091
-37.516339 4.655072 6.559299
-37.311581 6.9874 6.660934
-37.234035 5.196584 5.875091
-37.08555 5.713324 5.05146
-37.298099 2.661507 2.098511
-37.044716 4.413542 3.244405
-37.311272 3.184731 1.11733
-37.298099 2.661507 2.098511
-36.896488 5.440309 1.429491
-37.260151 3.695693 0.184206
-37.311272 3.184731 1.11733
-36.637394 18.725569 6.399547
-36.70219 16.416674 6.56644
-37.048233 18.121582 6.974823
-36.177712 19.356899 5.846022
-36.637394 18.725569 6.399547
-36.523755 21.061808 6.254404
-36.038531 23.953432 5.420347
-36.53451 23.302674 5.979088
-35.678299 22.284115 5.038251
-36.038531 23.953432 5.420347
-35.652757 24.544409 4.757719
-34.575167 35.045889 -0.404797
-34.351824 33.116378 0.315006
-34.841801 34.632033 0.493968
-34.303783 35.397123 -1.338966
-34.575167 35.045889 -0.404797
-40.453903 12.716928 -30.728344
-39.649772 13.172536 -29.967661
-39.972588 13.295426 -31.570673
-40.947288 12.043728 -29.814245
-40.453903 12.716928 -30.728344
-41.270104 12.166618 -31.417257
-42.977186 10.396616 -30.101878
-42.143947 10.707918 -29.51799
-42.596728 11.182116 -31.087046
-43.821756 9.987519 -30.610335
-43.368977 9.513322 -29.041279
-42.977186 10.396616 -30.101878
-44.67779 9.879097 -31.042524
-43.821756 9.987519 -30.610335
-32.410615 36.115412 -17.665686
-32.613474 36.808172 -17.032139
-34.722894 39.125641 -4.039599
-34.324224 37.496021 -3.081275
-34.516348 39.259197 -5.044477
-34.722894 39.125641 -4.039599
-34.373417 39.372585 -6.060548
-33.983141 37.841419 -5.084449
-34.516348 39.259197 -5.044477
-34.209318 39.374869 -7.078074
-34.373417 39.372585 -6.060548
-34.098681 39.377577 -8.100576
-33.729573 37.957515 -7.123024
-34.209318 39.374869 -7.078074
-33.952248 39.259802 -9.108829
-34.098681 39.377577 -8.100576
-33.850117 39.165749 -10.117298
-33.516804 37.866171 -9.153996
-33.952248 39.259802 -9.108829
-33.698115 38.943613 -11.096319
-33.850117 39.165749 -10.117298
-33.585302 38.770236 -12.071516
-33.301861 37.598742 -11.137661
-33.698115 38.943613 -11.096319
-33.411915 38.459363 -13.001584
-33.585302 38.770236 -12.071516
-33.279878 38.22546 -13.922483
-33.057012 37.191462 -13.033758
-33.411915 38.459363 -13.001584
-33.08214 37.834797 -14.780503
-33.279878 38.22546 -13.922483
-32.93928 37.561721 -15.615174
-32.782116 36.684483 -14.789328
-33.08214 37.834797 -14.780503
-32.729962 37.078051 -16.369838
-32.93928 37.561721 -15.615174
-32.613474 36.808172 -17.032139
-32.522768 36.141529 -16.2863
-32.729962 37.078051 -16.369838
-40.309652 6.684855 -16.955893
-41.107683 6.073656 -18.534083
-39.629869 8.338249 -16.43992
-40.309652 6.684855 -16.955893
-39.571953 7.620984 -15.38081
-37.30462 4.225207 -0.830432
-37.260151 3.695693 0.184206
-37.294792 4.729193 -1.806935
-37.30462 4.225207 -0.830432
-36.835538 6.455256 -0.480135
-37.365513 5.264749 -2.84758
-37.294792 4.729193 -1.806935
-37.392183 5.761796 -3.858244
-37.365513 5.264749 -2.84758
-36.85238 7.456288 -2.467302
-37.484079 6.304945 -4.916893
-37.392183 5.761796 -3.858244
-37.54114 6.797202 -5.951507
-37.484079 6.304945 -4.916893
-36.936111 8.445592 -4.51258
-37.647635 7.350926 -7.01987
-37.54114 6.797202 -5.951507
-37.071939 9.429088 -6.595206
-36.478938 11.187667 -5.216518
-36.557705 11.678907 -6.264529
-37.647635 7.350926 -7.01987
-37.071939 9.429088 -6.595206
-36.766469 13.029701 -9.385952
-36.700395 12.605949 -8.348613
-36.139614 14.725975 -7.988685
-37.409076 11.411662 -10.791629
-36.766469 13.029701 -9.385952
-36.848295 13.531688 -10.431701
-38.112039 9.991511 -12.299153
-37.409076 11.411662 -10.791629
-38.191536 10.594013 -13.351109
-38.812674 8.671875 -13.812883
-38.112039 9.991511 -12.299153
-32.317318 35.259811 -18.086334
-32.312984 35.01605 -17.36925
-32.410615 36.115412 -17.665686
-32.142133 34.29876 -18.678182
-32.317318 35.259811 -18.086334
-32.239764 35.398121 -18.974619
-31.953197 34.586244 -20.503086
-32.237011 35.620055 -19.876407
-31.93961 33.294804 -20.206626
-31.953197 34.586244 -20.503086
-31.828227 33.443979 -21.143245
-31.075117 32.519278 -23.603825
-31.419427 33.706826 -23.001974
-30.910124 31.272054 -24.265421
-30.646003 30.009804 -24.863774
-31.211557 31.16045 -23.376177
-31.075117 32.519278 -23.603825
-30.910124 31.272054 -24.265421
-26.339671 23.274513 -30.486832
-26.29198 21.789851 -30.708593
-26.339671 23.274513 -30.486832
-27.082206 23.357188 -30.226209
-27.983126 26.2253 -29.133928
-27.817809 24.816826 -29.49521
-28.633032 26.220825 -28.62969
-27.983126 26.2253 -29.133928
-29.111086 24.873213 -28.614029
-29.247195 26.226904 -28.12792
-28.633032 26.220825 -28.62969
-33.302098 15.957693 -34.228653
-33.964596 16.003208 -33.92369
-33.279252 16.489206 -32.984139
-31.955306 16.273865 -33.454638
-31.908368 17.189045 -32.530306
-31.24692 17.019219 -32.695842
-32.61166 15.786188 -34.405941
-31.955306 16.273865 -33.454638
-33.302098 15.957693 -34.228653
-32.61166 15.786188 -34.405941
3 0 47 45
3 1 49 48
3 2 52 50
3 2 53 52
3 175 56 176
3 177 176 54
3 175 176 177
3 178 58 179
3 180 179 56
3 178 179 180
3 3 61 59
3 5 64 62
3 5 66 64
3 6 181 183
3 181 68 182
3 181 182 183
3 6 70 68
3 6 72 70
3 8 184 185
3 8 186 187
3 4 76 74
3 7 79 77
3 10 82 80
3 10 84 82
3 10 86 84
3 9 89 87
3 9 91 89
3 188 92 189
3 190 94 191
3 192 191 92
3 190 191 192
3 193 97 194
3 195 194 95
3 193 194 195
3 196 99 197
3 198 197 97
3 196 197 198
3 200 199 99
3 11 102 100
3 13 103 46
3 13 104 103
3 14 201 202
3 14 203 205
3 203 105 204
3 203 204 205
3 15 108 106
3 17 109 51
3 17 206 208
3 208 207 109
3 206 207 208
3 17 209 210
3 18 112 110
3 20 113 55
3 20 114 113
3 20 116 114
3 22 117 57
3 22 118 117
3 23 121 119
3 25 122 60
3 25 123 122
3 12 124 101
3 26 125 63
3 26 126 125
3 26 127 126
3 27 128 65
3 27 129 128
3 28 211 213
3 213 212 67
3 211 212 213
3 28 214 215
3 28 216 217
3 29 218 220
3 220 219 69
3 218 219 220
3 29 221 223
3 221 130 222
3 221 222 223
3 29 132 130
3 31 133 71
3 31 134 133
3 224 135 225
3 32 226 228
3 226 136 227
3 226 227 228
3 32 137 136
3 32 138 137
3 229 139 230
3 231 230 73
3 229 230 231
3 233 232 139
3 24 140 120
3 33 141 75
3 33 142 141
3 16 143 107
3 234 144 235
3 237 236 144
3 238 146 239
3 30 147 131
3 35 148 78
3 35 149 148
3 19 150 111
3 36 151 81
3 36 240 242
3 242 241 151
3 240 241 242
3 36 243 244
3 37 152 83
3 37 153 152
3 37 154 153
3 38 155 85
3 38 156 155
3 21 157 115
3 39 158 88
3 39 159 158
3 39 160 159
3 34 161 90
3 34 145 161
3 245 162 246
3 40 247 249
3 247 163 248
3 247 248 249
3 40 164 163
3 41 250 252
3 250 165 251
3 250 251 252
3 41 166 165
3 41 167 166
3 42 168 93
3 42 169 168
3 43 253 255
3 255 254 96
3 253 254 255
3 43 256 258
3 256 170 257
3 256 257 258
3 43 171 170
3 44 172 98
3 44 173 172
3 44 174 173
3 45 46 11
3 47 46 45
3 47 13 46
3 48 259 260
3 49 261 263
3 263 262 48
3 261 262 263
3 49 264 266
3 264 14 265
3 264 265 266
3 50 51 15
3 52 51 50
3 52 17 51
3 52 267 269
3 269 268 17
3 267 268 269
3 53 270 272
3 272 271 52
3 270 271 272
3 53 273 274
3 54 55 18
3 56 55 54
3 56 20 55
3 56 57 20
3 58 57 56
3 58 22 57
3 59 60 23
3 61 60 59
3 61 25 60
3 62 63 12
3 64 63 62
3 64 26 63
3 64 65 26
3 66 65 64
3 66 27 65
3 275 67 276
3 68 277 279
3 277 67 278
3 277 278 279
3 68 28 67
3 68 69 28
3 70 69 68
3 70 29 69
3 70 71 29
3 72 71 70
3 72 31 71
3 280 32 281
3 282 73 283
3 284 283 32
3 282 283 284
3 285 73 286
3 288 287 73
3 74 75 24
3 76 75 74
3 76 33 75
3 290 289 16
3 77 78 30
3 79 78 77
3 79 35 78
3 80 81 19
3 82 81 80
3 82 36 81
3 82 83 36
3 84 83 82
3 84 37 83
3 84 85 37
3 86 85 84
3 86 38 85
3 87 88 21
3 89 88 87
3 89 39 88
3 89 90 39
3 91 90 89
3 91 34 90
3 291 40 292
3 92 293 294
3 92 295 297
3 295 41 296
3 295 296 297
3 92 93 41
3 94 93 92
3 94 42 93
3 95 298 300
3 298 96 299
3 298 299 300
3 97 96 95
3 97 43 96
3 97 98 43
3 99 98 97
3 99 44 98
3 99 301 303
3 303 302 44
3 301 302 303
3 305 304 99
3 100 101 3
3 102 101 100
3 102 12 101
3 46 102 11
3 103 102 46
3 103 12 102
3 103 62 12
3 104 62 103
3 104 5 62
3 306 6 307
3 309 308 6
3 105 310 311
3 105 312 314
3 312 8 313
3 312 313 314
3 106 107 4
3 108 107 106
3 108 16 107
3 51 108 15
3 109 108 51
3 109 16 108
3 109 315 317
3 317 316 16
3 315 316 317
3 319 318 109
3 321 320 17
3 110 111 7
3 112 111 110
3 112 19 111
3 55 112 18
3 113 112 55
3 113 19 112
3 113 80 19
3 114 80 113
3 114 10 80
3 114 115 10
3 116 115 114
3 116 21 115
3 57 116 20
3 117 116 57
3 117 21 116
3 117 87 21
3 118 87 117
3 118 9 87
3 322 95 323
3 324 95 325
3 327 326 95
3 119 120 1
3 121 120 119
3 121 24 120
3 60 121 23
3 122 121 60
3 122 24 121
3 122 74 24
3 123 74 122
3 123 4 74
3 101 61 3
3 124 61 101
3 124 25 61
3 63 124 12
3 125 124 63
3 125 25 124
3 125 123 25
3 126 123 125
3 126 4 123
3 126 106 4
3 127 106 126
3 127 15 106
3 65 127 26
3 128 127 65
3 128 15 127
3 128 50 15
3 129 50 128
3 129 2 50
3 67 328 329
3 331 330 67
3 69 332 334
3 334 333 28
3 332 333 334
3 336 335 69
3 130 337 338
3 130 339 340
3 130 341 343
3 341 131 342
3 341 342 343
3 132 131 130
3 132 30 131
3 71 132 29
3 133 132 71
3 133 30 132
3 133 77 30
3 134 77 133
3 134 7 77
3 344 72 345
3 346 345 6
3 344 345 346
3 135 347 349
3 347 72 348
3 347 348 349
3 135 31 72
3 350 135 351
3 136 352 354
3 352 135 353
3 352 353 354
3 136 31 135
3 136 134 31
3 137 134 136
3 137 7 134
3 137 110 7
3 138 110 137
3 138 18 110
3 73 138 32
3 139 138 73
3 139 18 138
3 139 54 18
3 355 54 356
3 357 356 139
3 355 356 357
3 359 358 54
3 120 49 1
3 140 49 120
3 140 14 49
3 75 140 24
3 141 140 75
3 141 14 140
3 141 105 14
3 142 105 141
3 142 8 105
3 107 76 4
3 143 76 107
3 143 33 76
3 360 143 361
3 362 361 16
3 360 361 362
3 144 363 365
3 363 143 364
3 363 364 365
3 144 33 143
3 144 142 33
3 366 142 367
3 368 367 144
3 366 367 368
3 369 8 370
3 371 370 142
3 369 370 371
3 373 372 8
3 375 374 0
3 376 58 377
3 378 58 379
3 380 22 381
3 382 381 58
3 380 381 382
3 383 22 384
3 385 118 386
3 387 386 22
3 385 386 387
3 388 118 389
3 390 9 391
3 392 391 118
3 390 391 392
3 393 9 394
3 395 91 396
3 397 396 9
3 395 396 397
3 398 91 399
3 400 34 401
3 402 401 91
3 400 401 402
3 403 34 404
3 405 145 406
3 407 406 34
3 405 406 407
3 408 145 409
3 410 0 411
3 412 411 145
3 410 411 412
3 413 48 414
3 146 415 417
3 415 48 416
3 415 416 417
3 146 1 48
3 131 418 419
3 147 420 422
3 422 421 131
3 420 421 422
3 147 423 424
3 78 147 30
3 148 147 78
3 148 425 427
3 427 426 147
3 425 426 427
3 148 428 429
3 149 430 432
3 432 431 148
3 430 431 432
3 149 433 434
3 111 79 7
3 150 79 111
3 150 35 79
3 81 150 19
3 151 150 81
3 151 35 150
3 151 149 35
3 435 149 436
3 437 436 151
3 435 436 437
3 439 438 149
3 83 440 442
3 442 441 36
3 440 441 442
3 152 443 445
3 445 444 83
3 443 444 445
3 152 446 447
3 152 448 450
3 448 146 449
3 448 449 450
3 153 146 152
3 153 1 146
3 153 119 1
3 154 119 153
3 154 23 119
3 85 154 37
3 155 154 85
3 155 23 154
3 155 59 23
3 156 59 155
3 156 3 59
3 115 86 10
3 157 86 115
3 157 38 86
3 88 157 21
3 158 157 88
3 158 38 157
3 158 156 38
3 159 156 158
3 159 3 156
3 159 100 3
3 160 100 159
3 160 11 100
3 90 160 39
3 161 160 90
3 161 11 160
3 161 45 11
3 145 45 161
3 145 0 45
3 451 47 452
3 453 452 0
3 451 452 453
3 162 454 456
3 454 47 455
3 454 455 456
3 162 13 47
3 457 162 458
3 163 459 461
3 459 162 460
3 459 460 461
3 163 13 162
3 163 104 13
3 164 104 163
3 164 5 104
3 462 40 463
3 165 464 465
3 165 466 468
3 466 40 467
3 466 467 468
3 165 164 40
3 166 164 165
3 166 5 164
3 166 66 5
3 167 66 166
3 167 27 66
3 93 167 41
3 168 167 93
3 168 27 167
3 168 129 27
3 169 129 168
3 169 2 129
3 96 469 470
3 472 471 96
3 170 473 474
3 170 475 476
3 170 477 479
3 477 94 478
3 477 478 479
3 171 94 170
3 171 42 94
3 98 171 43
3 172 171 98
3 172 42 171
3 172 169 42
3 173 169 172
3 173 2 169
3 173 53 2
3 174 53 173
3 174 480 482
3 482 481 53
3 480 481 482
3 483 174 484
3 485 484 44
3 483 484 485
3 486 174 487
3 489 488 174
