ply
format ascii 1.0
element vertex 884
property float x
property float y
property float z
element face 761
property list uchar int vertex_index
end_header
30.126993 -2.654116 -44.498985
-4.440439 -8.152911 39.76226
16.179115 -53.338146 -12.451799
2.908205 -60.620811 8.917184
-3.417261 -25.581194 40.935364
-3.710997 -39.185684 33.964436
5.887709 -56.510582 2.250235
30.88666 6.573606 -41.49498
25.883593 -41.957405 -22.698122
29.951731 -32.260002 -28.152838
10.740429 -56.459698 -2.904028
12.899403 -57.651875 -5.500502
11.504934 -52.823639 -4.218313
31.159454 -7.287211 -40.184143
30.998991 -12.478386 -39.48703
29.641605 -7.73316 -44.161057
13.901382 -58.575817 -10.567568
14.279205 -58.842766 -12.950336
17.446957 -53.187786 -15.179287
-3.112738 -10.650192 43.297478
-3.96501 -16.950161 40.509941
4.319586 -58.736343 5.363585
30.018667 -23.115814 -35.582687
29.339888 -28.460693 -32.806541
13.799772 -58.257832 -8.07918
15.196817 -53.373043 -9.634317
1.722212 -62.116783 12.799814
30.582212 -17.773794 -37.8703
30.97975 -2.217247 -39.769333
-4.411882 -23.799725 37.438225
-3.700369 -32.270897 37.673256
-2.885695 -40.126194 37.686981
-2.776777 -46.66972 33.712372
-2.516085 -53.107666 29.413691
-1.776377 -59.05938 25.085653
-1.818979 -58.3587 20.905294
-1.642012 -57.312771 16.778313
7.543495 -54.177197 -0.309404
9.951553 -59.751122 -0.679556
30.51116 2.77993 -38.333168
30.530272 2.118961 -43.554405
21.016479 -48.221149 -17.107676
28.196545 -37.094933 -25.419287
9.795219 -54.097164 -2.477957
11.10635 -54.691467 -3.676815
30.611336 -5.036806 -42.386566
30.467531 -7.574968 -42.270195
29.892365 -5.158736 -44.486465
14.897846 -55.867599 -11.576712
13.983379 -58.70631 -11.773909
15.240336 -55.904636 -12.867964
15.782816 -55.935265 -14.121168
16.730812 -53.277546 -13.836147
-3.808516 -9.358706 41.583546
-3.597582 -13.724793 41.934216
-4.212526 -12.553713 40.189331
3.589193 -59.727955 7.092041
29.695784 -25.787832 -34.246925
13.214285 -55.413311 -6.262758
13.498686 -58.008335 -6.798725
13.895266 -55.615704 -7.595232
14.344521 -55.742958 -8.931162
1.218895 -62.737129 14.829077
30.050404 -12.79372 -41.201561
30.814774 -15.116145 -38.777107
29.814451 -15.462042 -40.31633
29.58502 -18.160269 -39.242592
31.167629 -4.157948 -37.771194
30.78046 -1.545876 -37.324989
-3.102934 -29.737568 41.073292
-4.162298 -35.17878 34.025295
-4.132254 -31.618135 35.858734
-3.72658 -35.713852 35.874298
-3.315752 -36.286182 37.703545
-3.305017 -39.642006 35.834038
-2.847666 -43.390694 35.752083
-3.255217 -43.018089 33.852608
-3.043707 -49.676773 29.603598
-2.821379 -52.868732 27.385078
-2.242239 -56.169052 27.227833
-2.441889 -55.907043 25.161243
-1.827829 -58.751198 22.98954
-2.594572 -55.56493 23.09882
7.374716 -59.555229 2.186047
8.028233 -58.255756 0.753713
8.65485 -56.888252 -0.525295
6.708836 -55.334297 0.892603
30.60487 6.948631 -38.796967
30.21759 5.284962 -37.363632
30.666981 4.619366 -39.942017
30.712551 2.269104 -40.932838
30.71027 4.383371 -42.639893
20.175472 -48.600384 -15.5403
25.211111 -42.975555 -20.883123
23.634579 -45.301624 -19.737257
24.510277 -44.491058 -21.389898
30.63018 -29.782925 -29.467691
29.082781 -36.23967 -24.596437
29.141823 -34.690376 -26.795767
11.74577 -59.124146 -3.230864
11.971775 -57.151608 -4.197304
12.273933 -55.113293 -4.948732
12.721933 -53.056622 -5.507378
31.11878 -9.867384 -39.966461
30.274876 -10.162428 -41.864784
29.391041 -10.369 -43.552032
14.899818 -58.983231 -14.087383
-3.36133 -18.074545 42.197952
-3.700991 -21.305866 40.751724
-4.158987 -38.743027 32.081696
-3.66271 -42.64967 31.944872
6.693394 -60.752178 3.749848
5.088911 -57.656399 3.745294
30.662365 -25.246971 -33.139778
30.215191 -27.84901 -31.847475
29.687132 -30.424648 -30.470613
29.070435 -32.983219 -29.027796
13.538826 -60.846622 -7.061924
13.449326 -61.158653 -8.256298
13.890337 -58.435661 -9.335798
14.640989 -55.819256 -10.261021
15.701649 -53.372261 -11.045338
-5.071104 -7.054069 37.849628
-4.806364 -11.477987 38.355461
2.284781 -61.414753 10.824647
30.314386 -20.442965 -36.797127
29.373423 -20.882477 -38.007896
31.112619 -4.738385 -40.119133
30.697491 -2.551105 -42.195938
-4.523222 -15.910081 38.734341
-4.229055 -20.315002 39.013973
-3.925852 -24.653433 39.217365
-4.060537 -28.099115 37.587822
-3.607798 -28.886158 39.360458
-3.260542 -32.978535 39.452473
-2.863733 -36.90448 39.498852
-2.391459 -43.783535 37.635433
-2.338148 -46.958347 35.648415
-2.261221 -50.142929 33.573341
-3.173906 -46.377548 31.769855
-2.67544 -49.924328 31.589493
-2.153051 -53.294292 31.443256
-1.971064 -56.360851 29.299465
-0.904591 -61.373531 20.925377
-0.708143 -60.929752 18.828396
-1.759336 -57.879616 18.833906
-0.453653 -60.407097 16.755156
-0.136921 -59.804134 14.711788
0.254677 -59.118122 12.708153
0.73568 -58.346729 10.758186
1.31666 -57.490803 8.878752
2.00112 -56.557301 7.087353
2.785641 -55.56168 5.399714
3.662315 -54.529205 3.828325
8.365395 -53.110451 -1.325375
10.361128 -58.144783 -1.893421
9.252663 -55.494312 -1.619255
30.772743 0.284548 -39.157768
30.727686 -0.117519 -41.701691
30.338684 -0.226706 -44.185242
17.039124 -51.1287 -11.723143
17.697672 -51.012829 -13.225504
18.398287 -50.844749 -14.711592
19.211853 -50.617737 -16.160036
21.94945 -47.738651 -18.635798
27.111736 -39.50478 -24.0464
28.35375 -35.544121 -27.539541
9.999978 -53.32069 -2.753169
9.432215 -53.186426 -2.272798
29.818315 -2.650511 -45.548965
29.701002 -3.902821 -45.542705
30.009679 -3.906426 -44.492725
4.091711 -61.693967 8.064069
3.737425 -62.102312 9.00039
3.248699 -60.174383 8.004613
4.432205 -61.24754 7.151497
4.091711 -61.693967 8.064069
13.824506 -54.42054 -7.223925
13.554775 -55.514508 -6.928995
13.484015 -54.319344 -6.557688
14.232749 -54.47198 -7.914008
13.824506 -54.42054 -7.223925
0.995175 -63.011219 15.865022
1.912501 -64.097294 14.977362
29.48847 -14.260092 -41.506138
29.932427 -14.127881 -40.758945
29.606447 -12.925931 -41.948753
29.395774 -15.6278 -40.972557
29.48847 -14.260092 -41.506138
30.385185 -1.000172 -36.157307
30.702334 -2.376915 -36.389458
-3.113187 -26.077557 41.749584
-3.258812 -23.976011 41.668518
-3.260097 -27.659381 41.004328
-2.956024 -28.155744 41.818549
-3.113187 -26.077557 41.749584
-2.959301 -52.715826 26.369993
-3.110512 -51.125696 27.499174
-2.769556 -54.234982 25.258075
-2.631634 -54.387888 26.27316
-2.959301 -52.715826 26.369993
-2.845897 -54.063925 24.226864
-2.518231 -55.735986 24.130032
-2.769556 -54.234982 25.258075
25.660975 -42.747503 -22.868341
24.974317 -44.01433 -22.21423
25.196935 -43.224232 -22.04401
30.396256 -31.910046 -27.64615
30.735481 -30.671507 -28.303577
30.290955 -31.021463 -28.810264
29.99967 -33.098934 -27.014768
30.396256 -31.910046 -27.64615
29.546777 -33.475189 -27.474303
29.594716 -34.314121 -26.336233
29.99967 -33.098934 -27.014768
31.139117 -8.577298 -40.075302
31.37957 -9.625999 -38.942066
31.399907 -8.335912 -39.050907
29.298407 -7.80037 -44.983788
29.173126 -9.11829 -44.679276
29.516323 -9.05108 -43.856544
13.450882 -60.106823 -10.554186
13.556475 -59.992638 -9.990023
13.634456 -60.357231 -12.299702
13.486543 -60.289003 -11.711488
14.131292 -58.774538 -12.362122
13.801103 -60.4818 -12.843786
13.634456 -60.357231 -12.299702
14.589512 -58.912999 -13.51886
14.11141 -60.552033 -13.412309
13.801103 -60.4818 -12.843786
17.02825 -54.568581 -15.250644
16.196179 -55.94232 -14.721585
16.614887 -54.561526 -14.650227
17.919119 -53.121205 -15.822564
17.02825 -54.568581 -15.250644
-3.002773 -12.810679 43.433186
-2.705206 -11.325309 44.090744
-4.421047 -38.520424 31.128684
-4.416368 -36.705601 32.117991
-4.13613 -40.505703 31.053172
-4.421047 -38.520424 31.128684
5.50649 -59.74426 4.556717
6.341432 -61.288683 4.589476
5.154528 -60.280766 5.396344
30.340516 -24.181393 -34.361232
30.847721 -23.932789 -33.734504
30.525872 -22.867211 -34.955959
29.139322 -29.802518 -32.042163
29.312943 -30.784495 -30.874198
29.51351 -29.44267 -31.638577
13.117175 -59.041527 -5.661943
12.822895 -58.761375 -5.021879
-5.254558 -8.782455 37.146067
-5.408421 -6.565114 36.849937
2.800559 -63.203789 11.917459
2.472663 -63.512699 12.926497
2.003497 -61.765768 11.812231
3.081844 -62.852773 10.929876
2.800559 -63.203789 11.917459
31.337311 -13.569104 -38.27523
31.354899 -12.246783 -38.546948
31.0635 -17.544126 -37.093345
31.179781 -16.215302 -37.546749
30.698493 -16.444969 -38.323704
30.955224 -18.872365 -36.633087
31.0635 -17.544126 -37.093345
30.448299 -19.108379 -37.333714
30.821311 -20.20695 -36.096501
30.955224 -18.872365 -36.633087
29.111404 -19.726406 -39.19445
29.479222 -19.521373 -38.625244
29.217202 -18.365302 -39.811798
29.0784 -21.134821 -38.491867
29.111404 -19.726406 -39.19445
-4.81456 -15.438225 37.810866
-4.664793 -13.694034 38.544901
-4.956131 -13.222179 37.621426
-4.320469 -22.057364 38.226099
-4.49505 -19.861963 38.112573
-4.586464 -21.604324 37.3247
-2.641491 -40.387738 38.596348
-2.63051 -38.776881 39.502283
-2.874714 -38.515337 38.592917
-2.638577 -41.954864 37.661207
-2.394373 -42.216408 38.570573
-2.641491 -40.387738 38.596348
-3.37204 -46.220565 30.795806
-3.418308 -44.513609 31.857363
-3.616442 -44.356627 30.883315
-1.70952 -59.173575 26.138999
-1.942451 -57.72841 27.210089
-2.009308 -57.614216 26.156743
-1.427574 -60.541804 25.130462
-1.70952 -59.173575 26.138999
-1.40555 -60.398898 24.063907
-1.427574 -60.541804 25.130462
-1.700674 -57.596193 17.806109
-2.27315 -56.248452 18.906486
-2.214488 -55.965029 17.87869
-0.445652 -57.517832 12.728966
-0.595919 -57.888088 13.72702
-0.20515 -57.132136 11.753982
0.495178 -58.732426 11.733169
-0.445652 -57.517832 12.728966
0.589444 -55.850769 8.910346
0.300629 -56.294161 9.843502
0.931674 -55.384018 8.014647
1.65889 -57.024052 7.983053
0.589444 -55.850769 8.910346
2.130869 -53.945099 5.453465
1.689612 -54.419834 6.284903
2.569206 -53.428861 4.66777
3.223978 -55.045443 4.61402
2.130869 -53.945099 5.453465
10.61775 -61.239241 -0.699156
9.721554 -60.499752 0.011207
10.742759 -60.373297 -1.370626
10.61775 -61.239241 -0.699156
10.156341 -58.947952 -1.286488
10.947546 -59.570127 -1.977558
10.742759 -60.373297 -1.370626
30.161504 3.26246 -37.114464
30.014719 4.514977 -36.629696
30.364375 4.032446 -37.8484
30.41515 1.931501 -37.505752
30.161504 3.26246 -37.114464
30.641951 1.532239 -38.745468
30.545942 0.68381 -37.918053
30.41515 1.931501 -37.505752
17.383538 -50.170696 -11.242905
16.690525 -51.160608 -10.974835
18.541637 -49.950209 -13.585591
18.144204 -50.051562 -12.785346
18.891944 -49.866169 -14.328636
18.04798 -50.928789 -13.968548
18.541637 -49.950209 -13.585591
20.602208 -49.269327 -17.332251
19.699895 -50.467621 -16.858431
20.114166 -49.419443 -16.633856
22.472057 -47.438749 -19.381504
22.792015 -46.520137 -19.186528
23.314622 -46.220236 -19.932234
21.648543 -48.831016 -18.768887
22.472057 -47.438749 -19.381504
28.073056 -37.791748 -24.371502
28.516174 -37.364117 -23.960077
28.639663 -36.667301 -25.007862
27.654141 -38.299856 -24.732844
27.530652 -38.996672 -23.685058
28.073056 -37.791748 -24.371502
28.413702 -34.700732 -28.609274
28.712093 -34.26367 -28.283668
28.772044 -33.420281 -29.353401
10.655544 -53.617841 -3.352598
10.450785 -54.394316 -3.077386
9.999978 -53.32069 -2.753169
10.854836 -52.683927 -3.623347
11.305642 -53.757553 -3.947564
10.655544 -53.617841 -3.352598
29.554709 -5.188107 -45.421486
29.429328 -6.475319 -45.258781
29.766985 -6.445948 -44.323761
29.554709 -5.188107 -45.421486
29.701002 -3.902821 -45.542705
4.789332 -60.776572 6.260573
4.432205 -61.24754 7.151497
3.95439 -59.232149 6.227813
5.154528 -60.280766 5.396344
4.789332 -60.776572 6.260573
29.438879 -24.706971 -35.440124
29.857225 -24.451823 -34.914806
29.60032 -23.370962 -36.108006
29.349614 -26.091091 -34.691093
29.438879 -24.706971 -35.440124
29.171665 -27.427521 -33.970901
29.517836 -27.124263 -33.526733
29.349614 -26.091091 -34.691093
29.080576 -28.82925 -33.167511
29.171665 -27.427521 -33.970901
14.457377 -54.535607 -8.581973
14.119893 -55.679331 -8.263197
14.232749 -54.47198 -7.914008
14.883525 -53.350649 -8.93355
14.770669 -54.558001 -9.282739
14.457377 -54.535607 -8.581973
2.221004 -63.822872 13.941128
1.912501 -64.097294 14.977362
1.470554 -62.426956 13.814445
2.472663 -63.512699 12.926497
2.221004 -63.822872 13.941128
29.281059 -16.976914 -40.435688
29.699735 -16.811155 -39.779461
29.395774 -15.6278 -40.972557
29.217202 -18.365302 -39.811798
29.281059 -16.976914 -40.435688
30.895919 -3.682951 -36.61256
31.169272 -5.042277 -36.75359
30.974045 -2.851912 -37.548091
30.895919 -3.682951 -36.61256
30.702334 -2.376915 -36.389458
-2.789286 -30.191935 41.883757
-2.956024 -28.155744 41.818549
-2.921793 -31.739918 41.122347
-2.789286 -30.191935 41.883757
-4.679115 -23.411065 36.52496
-4.586464 -21.604324 37.3247
-4.147276 -33.398457 34.942014
-4.377203 -31.315734 34.938202
-4.392225 -33.096056 34.021483
-3.221676 -49.529716 28.608434
-3.30694 -47.870178 29.712678
-2.932543 -51.272752 28.494338
-3.221676 -49.529716 28.608434
-3.110512 -51.125696 27.499174
-2.217089 -55.65988 16.85154
-2.214488 -55.965029 17.87869
-1.544264 -56.985412 15.7621
-2.217089 -55.65988 16.85154
8.433135 -60.401806 1.444009
8.169108 -61.07909 2.204673
8.759894 -59.752069 0.727842
8.433135 -60.401806 1.444009
7.701474 -58.905492 1.46988
8.989893 -59.003439 0.037078
9.721554 -60.499752 0.011207
8.759894 -59.752069 0.727842
30.41123 6.116796 -38.0803
30.065657 6.55065 -36.84383
30.259296 7.382485 -37.560497
20.668948 -47.766256 -15.1032
19.780537 -48.743986 -14.74299
21.083014 -47.558186 -15.95581
20.668948 -47.766256 -15.1032
21.503518 -47.368568 -16.739498
20.595976 -48.410766 -16.323988
21.083014 -47.558186 -15.95581
24.422845 -44.138589 -20.31019
24.075992 -44.570414 -19.401724
24.864258 -43.407379 -19.974657
23.752471 -45.814953 -20.758554
23.314622 -46.220236 -19.932234
24.072428 -44.896341 -20.563578
24.330128 -45.448885 -21.495126
23.752471 -45.814953 -20.758554
24.330128 -45.448885 -21.495126
24.974317 -44.01433 -22.21423
31.046391 -29.439823 -28.913297
30.905513 -28.516467 -30.09308
31.046391 -29.439823 -28.913297
30.735481 -30.671507 -28.303577
29.565195 -35.088768 -25.236568
29.492392 -35.834331 -24.129921
29.112302 -35.465023 -25.696102
29.565195 -35.088768 -25.236568
29.594716 -34.314121 -26.336233
12.246078 -59.497511 -3.88706
12.211838 -60.563881 -3.312779
12.35908 -58.511242 -4.37028
12.246078 -59.497511 -3.88706
11.858773 -58.137877 -3.714084
12.435589 -57.401741 -4.848903
12.822895 -58.761375 -5.021879
12.35908 -58.511242 -4.37028
13.237839 -53.140999 -6.179998
13.484015 -54.319344 -6.557688
12.968109 -54.234966 -5.885068
31.414793 -10.941282 -38.786663
31.37957 -9.625999 -38.942066
31.058886 -11.172885 -39.726745
31.354899 -12.246783 -38.546948
31.414793 -10.941282 -38.786663
29.276765 -11.713571 -43.123989
29.606447 -12.925931 -41.948753
29.720723 -11.58136 -42.376796
29.067465 -10.477678 -44.268547
29.276765 -11.713571 -43.123989
29.067465 -10.477678 -44.268547
29.173126 -9.11829 -44.679276
29.298407 -7.80037 -44.983788
29.429328 -6.475319 -45.258781
13.491881 -60.17207 -11.157356
13.450882 -60.106823 -10.554186
13.94238 -58.641064 -11.170738
13.491881 -60.17207 -11.157356
13.486543 -60.289003 -11.711488
14.495534 -60.678071 -13.942211
14.11141 -60.552033 -13.412309
15.403671 -59.044945 -14.630775
14.495534 -60.678071 -13.942211
15.75468 -57.466303 -14.704692
15.341317 -57.459248 -14.104275
16.196179 -55.94232 -14.721585
15.403671 -59.044945 -14.630775
15.75468 -57.466303 -14.704692
-3.245196 -14.34798 42.751554
-3.002773 -12.810679 43.433186
-3.35516 -12.187493 42.615847
-3.12707 -16.522856 42.883423
-3.245196 -14.34798 42.751554
-3.479456 -15.899669 42.066084
-3.001457 -18.669609 42.985016
-3.12707 -16.522856 42.883423
-3.230847 -20.222686 42.299812
-3.001457 -18.669609 42.985016
-3.400677 -21.838347 41.576698
-3.230847 -20.222686 42.299812
-3.531161 -19.690206 41.474838
-3.559126 -23.44353 40.843544
-3.258812 -23.976011 41.668518
-3.400677 -21.838347 41.576698
-4.418024 -34.923478 33.08979
-4.392225 -33.096056 34.021483
-4.160642 -36.960904 33.053495
-4.418024 -34.923478 33.08979
-4.416368 -36.705601 32.117991
-3.887991 -42.459024 30.98476
-3.910849 -40.696348 32.013284
-4.13613 -40.505703 31.053172
-3.616442 -44.356627 30.883315
-3.887991 -42.459024 30.98476
7.526982 -62.272091 3.807284
6.341432 -61.288683 4.589476
7.828447 -61.677565 2.986573
7.526982 -62.272091 3.807284
7.034055 -60.153703 2.967948
8.169108 -61.07909 2.204673
7.828447 -61.677565 2.986573
30.57037 8.111831 -38.18211
30.259296 7.382485 -37.560497
30.833281 7.826142 -39.490029
30.57037 8.111831 -38.18211
30.974176 7.638629 -40.839035
30.745765 6.761119 -40.145973
30.833281 7.826142 -39.490029
25.663795 -42.371021 -20.506301
24.864258 -43.407379 -19.974657
25.933122 -41.847557 -21.481873
25.663795 -42.371021 -20.506301
26.269364 -41.338482 -22.389372
25.547352 -42.46648 -21.790623
25.933122 -41.847557 -21.481873
31.134791 -24.954973 -32.511872
30.847721 -23.932789 -33.734504
30.921606 -26.24849 -31.929124
31.134791 -24.954973 -32.511872
30.698019 -27.54951 -31.282972
30.921606 -26.24849 -31.929124
30.438778 -26.54799 -32.493626
30.422686 -28.815967 -30.657583
30.905513 -28.516467 -30.09308
30.698019 -27.54951 -31.282972
29.004595 -32.063781 -30.15279
29.378783 -31.703933 -29.749204
29.312943 -30.784495 -30.874198
28.772044 -33.420281 -29.353401
29.004595 -32.063781 -30.15279
29.139322 -29.802518 -32.042163
29.080576 -28.82925 -33.167511
13.416816 -59.219757 -6.311055
13.117175 -59.041527 -5.661943
13.199044 -57.830105 -6.149614
13.436886 -60.638901 -6.442654
13.416816 -59.219757 -6.311055
13.518756 -59.427479 -6.930325
13.522032 -62.134678 -6.472673
13.436886 -60.638901 -6.442654
13.412018 -62.37587 -7.045647
13.522032 -62.134678 -6.472673
13.367268 -62.531885 -7.642834
13.412018 -62.37587 -7.045647
13.494076 -61.002638 -7.659111
13.13596 -62.726017 -8.188401
13.367268 -62.531885 -7.642834
13.330447 -61.284056 -8.834388
13.13596 -62.726017 -8.188401
13.550952 -59.92256 -9.374139
13.330447 -61.284056 -8.834388
13.669832 -59.797157 -8.796048
13.89586 -58.505739 -9.951683
13.556475 -59.992638 -9.990023
13.550952 -59.92256 -9.374139
-5.122189 -10.994414 37.398983
-4.938734 -9.266028 38.102545
-5.254558 -8.782455 37.146067
-4.956131 -13.222179 37.621426
-5.122189 -10.994414 37.398983
3.425713 -62.499283 9.954121
3.081844 -62.852773 10.929876
2.596493 -61.017782 9.870916
3.737425 -62.102312 9.00039
3.425713 -62.499283 9.954121
31.245203 -14.887983 -37.920269
31.337311 -13.569104 -38.27523
30.906883 -13.797265 -39.132069
31.245203 -14.887983 -37.920269
31.179781 -16.215302 -37.546749
30.673731 -21.530786 -35.563179
30.821311 -20.20695 -36.096501
30.166526 -21.77939 -36.189907
30.525872 -22.867211 -34.955959
30.673731 -21.530786 -35.563179
29.277698 -22.254294 -37.32061
29.60032 -23.370962 -36.108006
29.696045 -21.999146 -36.795292
29.277698 -22.254294 -37.32061
29.0784 -21.134821 -38.491867
-2.811247 -9.189068 43.955215
-2.705206 -11.325309 44.090744
-3.204647 -8.491891 43.110838
-2.811247 -9.189068 43.955215
-3.552536 -7.846148 42.253872
-3.460627 -10.004449 42.440512
-3.204647 -8.491891 43.110838
-3.898878 -7.18301 41.348555
-3.552536 -7.846148 42.253872
-4.21484 -6.580113 40.437912
-4.124477 -8.755809 40.672903
-3.898878 -7.18301 41.348555
-4.541093 -5.965283 39.480106
-4.21484 -6.580113 40.437912
-4.856426 -5.415862 38.52379
-4.755771 -7.60349 38.805944
-4.541093 -5.965283 39.480106
-5.189247 -4.860296 37.519215
-4.856426 -5.415862 38.52379
-5.408421 -6.565114 36.849937
-5.189247 -4.860296 37.519215
31.308978 -7.027312 -39.079265
31.399907 -8.335912 -39.050907
31.313066 -5.462681 -37.872791
31.169272 -5.042277 -36.75359
31.28556 -5.752899 -39.04676
31.313066 -5.462681 -37.872791
31.140124 -4.448167 -38.945163
31.136036 -6.012798 -40.151638
31.308978 -7.027312 -39.079265
31.28556 -5.752899 -39.04676
-4.642133 -17.659502 37.972758
-4.81456 -15.438225 37.810866
-4.376138 -18.112541 38.874157
-4.642133 -17.659502 37.972758
-4.49505 -19.861963 38.112573
-4.474428 -25.588459 36.606898
-4.679115 -23.411065 36.52496
-4.334614 -29.497664 35.817152
-4.377203 -31.315734 34.938202
-4.298756 -27.738154 36.681696
-4.334614 -29.497664 35.817152
-4.096395 -29.858625 36.723278
-4.23621 -25.94942 37.513024
-4.474428 -25.588459 36.606898
-4.298756 -27.738154 36.681696
-3.000597 -33.360402 40.311937
-2.921793 -31.739918 41.122347
-3.181738 -31.358052 40.262883
-2.802192 -35.323374 40.335127
-3.000597 -33.360402 40.311937
-3.062137 -34.941508 39.475662
-2.587463 -37.238523 40.365934
-2.802192 -35.323374 40.335127
-2.587463 -37.238523 40.365934
-2.63051 -38.776881 39.502283
-2.120953 -43.997045 38.559888
-2.394373 -42.216408 38.570573
-2.108918 -45.522692 37.601661
-2.120953 -43.997045 38.559888
-2.082262 -47.110098 36.608153
-2.108918 -45.522692 37.601661
-2.364803 -45.370941 36.641924
-2.055842 -48.655412 35.599614
-2.082262 -47.110098 36.608153
-2.017378 -50.247704 34.562077
-2.055842 -48.655412 35.599614
-2.299684 -48.550638 34.610878
-1.984278 -51.794962 33.522686
-2.017378 -50.247704 34.562077
-3.108807 -48.02716 30.686726
-3.37204 -46.220565 30.795806
-3.30694 -47.870178 29.712678
-1.930193 -53.370643 32.457644
-1.984278 -51.794962 33.522686
-2.207136 -51.71861 32.508299
-1.878694 -54.895544 31.408877
-1.930193 -53.370643 32.457644
-1.787701 -56.428824 30.336982
-1.878694 -54.895544 31.408877
-2.062057 -54.827571 30.371361
-1.686813 -57.902878 29.303179
-1.787701 -56.428824 30.336982
-1.806864 -57.82431 28.245905
-2.106651 -56.264951 28.263649
-1.942451 -57.72841 27.210089
-1.686813 -57.902878 29.303179
-1.806864 -57.82431 28.245905
-1.431276 -60.244807 23.01585
-1.40555 -60.398898 24.063907
-1.802103 -58.905289 24.037596
-0.969657 -61.555973 21.983769
-1.431276 -60.244807 23.01585
-1.36621 -60.062365 21.957459
-0.426441 -62.778753 21.03208
-0.969657 -61.555973 21.983769
-0.262409 -62.570364 19.965944
-0.426441 -62.778753 21.03208
-0.164184 -62.348475 18.917454
-0.262409 -62.570364 19.965944
-0.806367 -61.151641 19.876887
0.031656 -62.10753 17.864682
-0.164184 -62.348475 18.917454
-2.977138 -53.87204 23.208291
-2.845897 -54.063925 24.226864
-2.653389 -55.350601 22.068594
-2.977138 -53.87204 23.208291
-2.265592 -56.747486 20.971831
-2.206776 -56.961815 22.002057
-2.653389 -55.350601 22.068594
-2.235771 -56.507944 19.936137
-2.27315 -56.248452 18.906486
-1.789157 -58.119158 19.8696
-2.265592 -56.747486 20.971831
-2.235771 -56.507944 19.936137
0.158901 -61.846203 16.828062
0.031656 -62.10753 17.864682
-0.580898 -60.668425 17.791776
0.382621 -61.572113 15.792116
0.995175 -63.011219 15.865022
0.158901 -61.846203 16.828062
-0.791718 -58.231094 14.728838
-0.889467 -58.558453 15.745051
-1.544264 -56.985412 15.7621
0.058878 -59.461128 13.709971
-0.791718 -58.231094 14.728838
-0.595919 -57.888088 13.72702
0.01014 -56.722124 10.783219
-0.20515 -57.132136 11.753982
1.02617 -57.918766 9.818469
0.01014 -56.722124 10.783219
0.300629 -56.294161 9.843502
1.297352 -54.917645 7.128722
0.931674 -55.384018 8.014647
2.393381 -56.059491 6.243533
1.297352 -54.917645 7.128722
1.689612 -54.419834 6.284903
3.081676 -52.964264 3.89484
2.569206 -53.428861 4.66777
4.141928 -54.012344 3.105319
3.081676 -52.964264 3.89484
5.254625 -55.003033 2.316274
4.775012 -55.519893 3.03928
4.141928 -54.012344 3.105319
5.665188 -54.41489 1.637458
6.298272 -55.922439 1.571419
5.254625 -55.003033 2.316274
6.180902 -53.920921 0.980344
5.665188 -54.41489 1.637458
6.598231 -53.342371 0.37934
7.126165 -54.755747 0.2916
6.180902 -53.920921 0.980344
7.143729 -52.903107 -0.210257
6.598231 -53.342371 0.37934
7.554679 -52.369734 -0.718242
7.954445 -53.643824 -0.817389
7.143729 -52.903107 -0.210257
8.124465 -52.034817 -1.245074
7.554679 -52.369734 -0.718242
8.717302 -52.69307 -1.696506
8.124465 -52.034817 -1.245074
11.639867 -60.059809 -2.646279
12.211838 -60.563881 -3.312779
11.053449 -58.634464 -2.562143
11.639867 -60.059809 -2.646279
10.947546 -59.570127 -1.977558
8.717302 -52.69307 -1.696506
9.432215 -53.186426 -2.272798
9.080307 -53.603808 -1.901666
29.753283 5.869912 -36.208351
30.065657 6.55065 -36.84383
29.753283 5.869912 -36.208351
30.014719 4.514977 -36.629696
30.5498 -0.231402 -37.001663
30.385185 -1.000172 -36.157307
30.776601 -0.630664 -38.241378
30.5498 -0.231402 -37.001663
30.545942 0.68381 -37.918053
31.073705 7.587692 -42.233013
30.974176 7.638629 -40.839035
30.876157 6.582021 -42.879371
31.073705 7.587692 -42.233013
30.787962 5.486904 -43.451828
30.798465 5.478489 -42.067436
30.876157 6.582021 -42.879371
30.602162 4.420893 -43.977688
30.787962 5.486904 -43.451828
30.512163 3.288687 -44.434944
30.620271 3.251166 -43.097149
30.602162 4.420893 -43.977688
30.338818 2.161168 -44.8149
30.512163 3.288687 -44.434944
30.243024 0.988334 -45.130318
30.434478 0.946128 -43.869824
30.338818 2.161168 -44.8149
30.079666 -0.197759 -45.346589
30.243024 0.988334 -45.130318
29.97382 -1.411464 -45.50346
30.232838 -1.440411 -44.342113
30.079666 -0.197759 -45.346589
29.818315 -2.650511 -45.548965
29.97382 -1.411464 -45.50346
11.03951 -51.786808 -3.782664
10.854836 -52.683927 -3.623347
11.763822 -51.861489 -4.408938
11.03951 -51.786808 -3.782664
12.372321 -51.97798 -5.05347
12.113433 -52.94013 -4.862846
11.763822 -51.861489 -4.408938
13.046479 -52.051029 -5.71845
12.372321 -51.97798 -5.05347
13.237839 -53.140999 -6.179998
13.046479 -52.051029 -5.71845
15.363408 -52.286938 -9.194062
14.883525 -53.350649 -8.93355
15.769372 -52.28278 -9.930421
15.363408 -52.286938 -9.194062
16.021788 -52.282388 -10.635932
15.449233 -53.372652 -10.339827
15.769372 -52.28278 -9.930421
16.370387 -52.250481 -11.384241
16.021788 -52.282388 -10.635932
16.690525 -51.160608 -10.974835
17.81493 -50.109497 -12.034166
17.383538 -50.170696 -11.242905
17.368398 -51.070765 -12.474324
17.81493 -50.109497 -12.034166
18.144204 -50.051562 -12.785346
19.286879 -49.722566 -15.125946
18.891944 -49.866169 -14.328636
19.780537 -48.743986 -14.74299
18.801567 -51.83618 -16.312939
17.919119 -53.121205 -15.822564
18.329405 -51.902761 -15.669662
18.801567 -51.83618 -16.312939
19.699895 -50.467621 -16.858431
21.909482 -47.09786 -17.586466
21.503518 -47.368568 -16.739498
23.218532 -45.638098 -18.901257
24.075992 -44.570414 -19.401724
22.375968 -46.856611 -18.350527
23.218532 -45.638098 -18.901257
22.792015 -46.520137 -19.186528
21.482965 -47.9799 -17.871737
21.909482 -47.09786 -17.586466
22.375968 -46.856611 -18.350527
21.068694 -49.028078 -18.096312
20.602208 -49.269327 -17.332251
21.482965 -47.9799 -17.871737
21.068694 -49.028078 -18.096312
21.648543 -48.831016 -18.768887
28.957177 -36.922413 -23.519911
29.492392 -35.834331 -24.129921
28.957177 -36.922413 -23.519911
28.516174 -37.364117 -23.960077
26.883435 -40.112169 -23.063511
27.530652 -38.996672 -23.685058
26.497664 -40.731093 -23.372261
26.269364 -41.338482 -22.389372
26.883435 -40.112169 -23.063511
28.136499 -36.084621 -27.786064
28.413702 -34.700732 -28.609274
27.937841 -36.839664 -26.784235
28.136499 -36.084621 -27.786064
27.859238 -37.615071 -25.724108
28.275148 -36.319527 -26.479414
27.937841 -36.839664 -26.784235
27.316834 -38.819994 -25.037664
27.654141 -38.299856 -24.732844
27.859238 -37.615071 -25.724108
26.834184 -40.14691 -24.283563
27.316834 -38.819994 -25.037664
26.220113 -41.373222 -23.609425
26.497664 -40.731093 -23.372261
26.834184 -40.14691 -24.283563
25.660975 -42.747503 -22.868341
26.220113 -41.373222 -23.609425
3 168 167 43
3 0 47 45
3 0 169 171
3 171 170 47
3 169 170 171
3 2 50 48
3 2 52 50
3 1 55 53
3 3 172 173
3 3 174 176
3 174 56 175
3 174 175 176
3 177 60 178
3 179 178 58
3 177 178 179
3 181 180 60
3 182 62 183
3 184 65 185
3 186 185 63
3 184 185 186
3 188 187 65
3 189 68 190
3 4 191 192
3 4 193 195
3 193 69 194
3 193 194 195
3 5 72 70
3 5 74 72
3 5 76 74
3 196 78 197
3 198 80 199
3 200 199 78
3 198 199 200
3 201 82 202
3 203 202 80
3 201 202 203
3 6 84 83
3 6 86 84
3 7 89 87
3 7 91 89
3 8 95 93
3 8 204 206
3 206 205 95
3 204 205 206
3 9 207 209
3 209 208 96
3 207 208 209
3 9 210 211
3 9 212 214
3 212 98 213
3 212 213 214
3 10 100 99
3 12 101 44
3 12 102 101
3 13 215 217
3 215 103 216
3 215 216 217
3 15 104 46
3 15 105 104
3 15 218 220
3 220 219 105
3 218 219 220
3 16 221 222
3 17 223 225
3 225 224 49
3 223 224 225
3 17 226 227
3 17 228 230
3 228 106 229
3 228 229 230
3 18 231 233
3 233 232 51
3 231 232 233
3 18 234 235
3 19 236 237
3 20 107 54
3 20 108 107
3 238 109 239
3 241 240 109
3 21 242 244
3 242 111 243
3 242 243 244
3 21 112 111
3 22 245 247
3 245 113 246
3 245 246 247
3 23 114 57
3 23 115 114
3 23 248 250
3 250 249 115
3 248 249 250
3 11 251 252
3 24 117 59
3 24 118 117
3 24 119 118
3 25 120 61
3 25 121 120
3 254 253 122
3 26 255 256
3 26 257 259
3 257 124 258
3 257 258 259
3 14 260 261
3 27 262 264
3 264 263 64
3 262 263 264
3 27 265 266
3 27 267 269
3 267 125 268
3 267 268 269
3 270 126 271
3 272 271 66
3 270 271 272
3 274 273 126
3 28 127 67
3 28 128 127
3 275 129 276
3 277 276 123
3 275 276 277
3 29 278 280
3 278 130 279
3 278 279 280
3 29 131 130
3 30 132 71
3 30 133 132
3 30 134 133
3 31 135 73
3 31 281 283
3 283 282 135
3 281 282 283
3 31 284 286
3 284 136 285
3 284 285 286
3 32 137 75
3 32 138 137
3 287 139 288
3 289 288 110
3 287 288 289
3 33 140 77
3 33 141 140
3 33 142 141
3 34 290 292
3 292 291 79
3 290 291 292
3 34 293 294
3 34 295 296
3 35 143 81
3 35 144 143
3 36 297 299
3 297 145 298
3 297 298 299
3 36 146 145
3 36 147 146
3 300 148 301
3 302 149 303
3 304 303 148
3 302 303 304
3 305 150 306
3 307 151 308
3 309 308 150
3 307 308 309
3 310 152 311
3 312 153 313
3 314 313 152
3 312 313 314
3 38 315 316
3 38 317 318
3 38 319 321
3 319 155 320
3 319 320 321
3 37 156 85
3 37 154 156
3 39 322 324
3 324 323 88
3 322 323 324
3 39 325 326
3 39 327 329
3 327 157 328
3 327 328 329
3 40 158 90
3 40 159 158
3 330 160 331
3 332 161 333
3 334 162 335
3 336 335 161
3 334 335 336
3 41 163 92
3 41 337 339
3 339 338 163
3 337 338 339
3 340 164 341
3 342 341 94
3 340 341 342
3 344 343 164
3 42 345 347
3 347 346 97
3 345 346 347
3 42 348 350
3 348 165 349
3 348 349 350
3 351 166 352
3 353 352 116
3 351 352 353
3 43 44 10
3 354 44 355
3 356 355 43
3 354 355 356
3 357 12 358
3 359 358 44
3 357 358 359
3 45 46 13
3 47 46 45
3 47 15 46
3 47 360 362
3 362 361 15
3 360 361 362
3 364 363 47
3 48 49 16
3 50 49 48
3 50 17 49
3 50 51 17
3 52 51 50
3 52 18 51
3 53 54 19
3 55 54 53
3 55 20 54
3 56 365 366
3 56 367 369
3 367 21 368
3 367 368 369
3 370 57 371
3 372 371 22
3 370 371 372
3 373 57 374
3 375 23 376
3 377 376 57
3 375 376 377
3 379 378 23
3 58 59 11
3 60 59 58
3 60 24 59
3 60 61 24
3 380 61 381
3 382 381 60
3 380 381 382
3 383 25 384
3 385 384 61
3 383 384 385
3 62 386 387
3 62 388 390
3 388 26 389
3 388 389 390
3 63 64 14
3 65 64 63
3 65 27 64
3 65 66 27
3 391 66 392
3 393 392 65
3 391 392 393
3 395 394 66
3 396 67 397
3 68 398 400
3 398 67 399
3 398 399 400
3 68 28 67
3 69 401 402
3 69 403 404
3 405 29 406
3 70 407 409
3 407 71 408
3 407 408 409
3 72 71 70
3 72 30 71
3 72 73 30
3 74 73 72
3 74 31 73
3 74 75 31
3 76 75 74
3 76 32 75
3 410 77 411
3 78 412 414
3 412 77 413
3 412 413 414
3 78 33 77
3 78 79 33
3 80 79 78
3 80 34 79
3 80 81 34
3 82 81 80
3 82 35 81
3 415 36 416
3 418 417 36
3 83 419 420
3 84 421 423
3 423 422 83
3 421 422 423
3 84 424 426
3 424 38 425
3 424 425 426
3 84 85 38
3 86 85 84
3 86 37 85
3 87 427 429
3 427 88 428
3 427 428 429
3 89 88 87
3 89 39 88
3 89 90 39
3 91 90 89
3 91 40 90
3 430 92 431
3 432 92 433
3 434 41 435
3 436 435 92
3 434 435 436
3 93 437 439
3 437 94 438
3 437 438 439
3 95 94 93
3 95 440 442
3 442 441 94
3 440 441 442
3 95 443 444
3 446 445 95
3 96 447 448
3 450 449 96
3 451 97 452
3 98 453 455
3 453 97 454
3 453 454 455
3 98 42 97
3 99 456 457
3 100 458 460
3 460 459 99
3 458 459 460
3 100 461 463
3 461 11 462
3 461 462 463
3 44 100 10
3 101 100 44
3 101 11 100
3 101 58 11
3 102 58 101
3 102 464 466
3 466 465 58
3 464 465 466
3 103 467 468
3 103 469 471
3 469 14 470
3 469 470 471
3 46 103 13
3 104 103 46
3 104 14 103
3 104 63 14
3 105 63 104
3 105 472 474
3 474 473 63
3 472 473 474
3 105 475 476
3 478 477 105
3 480 479 15
3 49 481 483
3 483 482 16
3 481 482 483
3 485 484 49
3 106 486 487
3 106 488 489
3 51 106 17
3 490 106 491
3 492 491 51
3 490 491 492
3 494 493 106
3 54 495 497
3 497 496 19
3 495 496 497
3 107 498 500
3 500 499 54
3 498 499 500
3 107 501 502
3 107 503 504
3 108 505 507
3 507 506 107
3 505 506 507
3 108 508 510
3 508 4 509
3 508 509 510
3 511 70 512
3 109 513 515
3 513 70 514
3 513 514 515
3 109 5 70
3 109 110 5
3 516 110 517
3 518 517 109
3 516 517 518
3 520 519 110
3 111 521 522
3 111 523 524
3 111 525 527
3 525 83 526
3 525 526 527
3 112 83 111
3 112 6 83
3 528 87 529
3 530 87 531
3 532 7 533
3 534 533 87
3 532 533 534
3 535 93 536
3 537 93 538
3 539 8 540
3 541 540 93
3 539 540 541
3 113 542 543
3 113 544 545
3 57 113 22
3 114 113 57
3 114 546 548
3 548 547 113
3 546 547 548
3 114 549 551
3 549 96 550
3 549 550 551
3 115 96 114
3 115 9 96
3 115 116 9
3 552 116 553
3 554 553 115
3 552 553 554
3 556 555 116
3 558 557 23
3 59 559 561
3 561 560 11
3 559 560 561
3 117 562 564
3 564 563 59
3 562 563 564
3 117 565 566
3 117 567 568
3 118 569 571
3 571 570 117
3 569 570 571
3 118 572 573
3 118 574 575
3 119 576 578
3 578 577 118
3 576 577 578
3 119 579 581
3 579 16 580
3 579 580 581
3 61 119 24
3 120 119 61
3 120 16 119
3 120 48 16
3 121 48 120
3 121 2 48
3 122 123 1
3 582 123 583
3 584 583 122
3 582 583 584
3 586 585 123
3 124 587 588
3 124 589 591
3 589 3 590
3 589 590 591
3 64 592 594
3 594 593 14
3 592 593 594
3 596 595 64
3 125 597 598
3 125 599 601
3 599 22 600
3 599 600 601
3 66 125 27
3 126 125 66
3 126 22 125
3 126 602 604
3 604 603 22
3 602 603 604
3 606 605 126
3 607 19 608
3 609 19 610
3 611 53 612
3 613 612 19
3 611 612 613
3 614 53 615
3 616 1 617
3 618 617 53
3 616 617 618
3 619 1 620
3 621 122 622
3 623 622 1
3 621 622 623
3 624 122 625
3 627 626 122
3 628 13 629
3 67 630 631
3 127 632 634
3 634 633 67
3 632 633 634
3 127 635 637
3 635 13 636
3 635 636 637
3 127 45 13
3 128 45 127
3 128 0 45
3 123 55 1
3 129 55 123
3 129 20 55
3 638 129 639
3 130 640 642
3 640 129 641
3 640 641 642
3 130 20 129
3 130 108 20
3 131 108 130
3 131 4 108
3 643 29 644
3 71 645 646
3 132 647 649
3 649 648 71
3 647 648 649
3 132 650 652
3 650 29 651
3 650 651 652
3 132 131 29
3 133 131 132
3 133 4 131
3 133 69 4
3 134 69 133
3 134 653 655
3 655 654 69
3 653 654 655
3 73 134 30
3 135 134 73
3 135 656 658
3 658 657 134
3 656 657 658
3 135 659 660
3 662 661 135
3 136 663 664
3 136 665 666
3 75 136 31
3 137 136 75
3 137 667 669
3 669 668 136
3 667 668 669
3 137 670 671
3 138 672 674
3 674 673 137
3 672 673 674
3 138 675 676
3 110 76 5
3 139 76 110
3 139 32 76
3 77 677 679
3 677 139 678
3 677 678 679
3 140 139 77
3 140 32 139
3 140 138 32
3 141 138 140
3 141 680 682
3 682 681 138
3 680 681 682
3 141 683 684
3 142 685 687
3 687 686 141
3 685 686 687
3 142 688 689
3 79 142 33
3 690 142 691
3 692 691 79
3 690 691 692
3 694 693 142
3 81 695 697
3 697 696 34
3 695 696 697
3 143 698 700
3 700 699 81
3 698 699 700
3 143 701 702
3 143 703 704
3 144 705 707
3 707 706 143
3 705 706 707
3 144 708 709
3 710 82 711
3 712 82 713
3 714 35 715
3 716 715 82
3 714 715 716
3 145 717 718
3 145 719 721
3 719 35 720
3 719 720 721
3 145 144 35
3 146 144 145
3 146 722 724
3 724 723 144
3 722 723 724
3 146 725 727
3 725 62 726
3 725 726 727
3 147 62 146
3 147 26 62
3 728 147 729
3 730 729 36
3 728 729 730
3 148 731 733
3 731 147 732
3 731 732 733
3 148 26 147
3 148 124 26
3 149 124 148
3 149 3 124
3 734 149 735
3 150 736 738
3 736 149 737
3 736 737 738
3 150 3 149
3 150 56 3
3 151 56 150
3 151 21 56
3 739 151 740
3 152 741 743
3 741 151 742
3 741 742 743
3 152 21 151
3 152 112 21
3 153 112 152
3 153 6 112
3 744 153 745
3 746 153 747
3 748 6 749
3 750 749 153
3 748 749 750
3 751 86 752
3 753 752 6
3 751 752 753
3 754 86 755
3 756 37 757
3 758 757 86
3 756 757 758
3 759 37 760
3 761 154 762
3 763 762 37
3 761 762 763
3 764 154 765
3 767 766 154
3 768 99 769
3 155 770 772
3 770 99 771
3 770 771 772
3 155 10 99
3 85 155 38
3 156 155 85
3 156 10 155
3 156 43 10
3 154 43 156
3 154 773 775
3 775 774 43
3 773 774 775
3 88 776 777
3 779 778 88
3 780 68 781
3 157 782 784
3 782 68 783
3 782 783 784
3 157 28 68
3 90 157 39
3 158 157 90
3 158 28 157
3 158 128 28
3 159 128 158
3 159 0 128
3 785 7 786
3 787 7 788
3 789 91 790
3 791 790 7
3 789 790 791
3 792 91 793
3 794 40 795
3 796 795 91
3 794 795 796
3 797 40 798
3 799 159 800
3 801 800 40
3 799 800 801
3 802 159 803
3 804 0 805
3 806 805 159
3 804 805 806
3 808 807 0
3 809 12 810
3 811 12 812
3 813 102 814
3 815 814 12
3 813 814 815
3 816 102 817
3 819 818 102
3 820 25 821
3 822 25 823
3 824 121 825
3 826 825 25
3 824 825 826
3 160 827 829
3 827 121 828
3 827 828 829
3 160 2 121
3 830 160 831
3 161 832 834
3 832 160 833
3 832 833 834
3 161 2 160
3 161 52 2
3 162 52 161
3 162 18 52
3 92 835 837
3 835 162 836
3 835 836 837
3 163 162 92
3 163 18 162
3 163 838 840
3 840 839 18
3 838 839 840
3 842 841 163
3 843 41 844
3 94 845 846
3 164 847 849
3 849 848 94
3 847 848 849
3 164 850 852
3 850 41 851
3 850 851 852
3 164 853 855
3 855 854 41
3 853 854 855
3 857 856 164
3 97 858 859
3 861 860 97
3 165 862 863
3 165 864 866
3 864 8 865
3 864 865 866
3 116 98 9
3 166 98 116
3 166 42 98
3 867 166 868
3 869 166 870
3 871 42 872
3 873 872 166
3 871 872 873
3 874 165 875
3 876 875 42
3 874 875 876
3 877 165 878
3 879 8 880
3 881 880 165
3 879 880 881
3 883 882 8
