ply
format ascii 1.0
element vertex 1005
property float x
property float y
property float z
element face 1314
property list uchar int vertex_index
end_header
17.104214 -126.378906 -0.016056
3.62484 -98.800415 1.014847
13.334026 -74.56987 -2.105564
9.012888 -81.193024 -10.802362
23.878307 -120.099564 -18.598379
4.467888 -120.595085 -1.732639
9.300985 -108.816353 -16.79817
12.677906 -62.003616 -3.394693
12.822594 -64.293381 -8.120504
26.221745 -120.441315 -3.160427
19.689968 -125.673592 -10.244291
2.215578 -110.527573 -0.653854
5.712626 -117.393219 -11.676729
2.458542 -106.336746 -8.564226
8.464184 -86.885422 0.577958
3.275688 -92.553642 -5.13854
7.99288 -78.167175 -5.72003
12.382881 -65.674911 -12.314407
29.15435 -109.089119 -21.946951
11.189243 -123.543571 9.532655
10.066988 -126.653198 -1.48901
3.271881 -119.705025 10.213242
0.504147 -110.498337 9.934438
3.166445 -99.522499 9.137257
9.259214 -89.393875 7.417199
13.704596 -79.669525 4.778914
11.892181 -68.605652 2.658763
21.393114 -120.481041 7.494572
12.0634 -124.464005 -12.638765
15.296179 -116.884613 -18.845968
21.810196 -104.282059 -20.782812
21.122803 -124.316162 -1.741852
23.193382 -123.686829 -7.202225
18.086479 -126.556046 -4.725187
2.450436 -104.762596 0.245845
2.265038 -109.154083 -5.053541
2.148937 -102.971313 -3.50868
11.309196 -80.837891 -0.692741
7.766632 -83.216057 -2.506655
10.676249 -76.54631 -3.876448
11.957544 -64.965622 -10.221846
26.370268 -115.228088 -20.727453
6.70495 -122.472626 10.023925
0.465427 -104.749847 15.134365
1.209015 -105.015068 9.603779
2.320681 -99.273369 14.078753
8.627937 -89.176605 11.560843
11.447102 -84.665405 10.18141
12.06287 -84.619576 6.140661
12.929182 -80.21273 8.780594
10.738132 -70.414017 6.338008
26.51955 -116.876701 6.427307
24.151447 -116.118782 11.224169
6.871096 -124.336121 -1.787933
10.938772 -126.227127 -7.416
7.777819 -123.529396 -7.561543
6.80835 -113.818031 -14.895702
9.712988 -118.141617 -15.938604
11.819756 -113.41214 -18.053396
18.169403 -111.133888 -20.073053
15.189245 -107.39949 -19.115465
5.247677 -87.382431 -7.959028
4.13665 -94.900162 -9.099644
7.883289 -88.987793 -11.360723
13.797455 -68.181259 -3.121788
12.796566 -69.857094 -5.229876
13.505239 -63.422733 -5.883423
28.873625 -119.27858 -8.383997
25.53923 -122.146439 -12.363556
21.661869 -123.569427 -15.095968
2.903324 -115.879265 -1.351109
5.197063 -119.589027 -7.175062
3.314762 -114.743439 -6.339998
3.611425 -112.318214 -10.393084
4.878407 -108.418213 -13.251961
5.703695 -92.829529 1.206652
3.048992 -96.448593 -2.237713
4.998421 -89.834267 -1.836802
5.270361 -85.354935 -4.85932
7.178905 -79.742355 -8.052641
10.7612 -71.066315 -7.102386
9.58009 -72.174294 -9.078432
10.584953 -73.303596 -11.301058
35.977421 -103.217445 -22.698236
32.076988 -101.92276 -22.843378
14.337103 -125.752174 4.223652
13.784653 -127.246292 -0.828331
10.008675 -125.728996 4.325311
6.285885 -123.951195 4.253069
3.574671 -120.582787 4.195117
1.181688 -115.557693 10.157408
1.990078 -116.045143 4.227386
1.524126 -110.806213 4.392855
2.1555 -105.243256 4.646094
3.805567 -99.642326 4.796871
5.279943 -94.019669 12.869998
6.043673 -94.297218 8.432982
6.277014 -94.188919 4.572034
9.201134 -88.884415 3.800022
11.973747 -83.532745 2.568504
13.802053 -77.900253 1.193374
12.661724 -75.525307 7.450027
13.661898 -74.336029 3.553209
14.008818 -71.924179 0.042767
12.495409 -65.775375 -0.614498
18.838121 -118.873329 12.538612
16.226284 -122.831688 8.669975
18.913204 -124.119774 3.476802
28.959915 -116.55072 1.367325
23.814484 -120.918808 2.241598
14.514046 -127.277916 -6.529997
15.858909 -125.956909 -12.027773
17.478765 -123.266273 -16.374857
8.603985 -121.494148 -12.426931
13.373617 -121.355095 -16.493017
19.452917 -119.180275 -19.176508
22.014126 -113.765694 -20.699362
25.15086 -107.20359 -21.559412
28.519815 -99.698875 -22.370321
2.328968 -99.64048 -6.568405
3.995409 -102.026299 -11.117901
7.853437 -103.101562 -14.985306
13.253731 -102.538567 -17.74132
19.399494 -100.288544 -19.728331
25.662737 -96.488091 -21.596987
18.867472 -125.632195 -0.838724
19.682751 -125.605362 -3.399363
17.495409 -126.583015 -2.10803
2.920362 -101.792244 0.675177
2.322983 -104.055443 -1.719412
2.696606 -100.960114 -1.137346
12.481852 -77.731682 -1.417446
10.942091 -78.872086 -2.281313
12.145452 -75.627533 -3.016037
26.042406 -119.975868 -17.783064
27.294367 -117.901886 -19.207418
28.585434 -115.474236 -20.321058
25.085796 -117.83445 -19.812838
1.223516 -102.004745 14.631403
10.967567 -84.581116 12.393229
11.866972 -82.412079 11.671248
12.392609 -82.45166 9.479191
12.349901 -80.252419 10.952389
26.740709 -114.430618 10.763525
5.565819 -122.614929 -1.801954
7.325418 -124.083466 -4.74901
6.014402 -122.29364 -4.697701
7.855177 -111.489265 -15.997972
9.108477 -113.856995 -16.646059
10.429506 -111.255753 -17.495035
13.359812 -110.554832 -18.682795
12.106983 -108.331833 -18.083845
6.937391 -84.40271 -9.381268
6.266479 -88.270233 -9.666407
8.37771 -85.119949 -10.937084
13.401791 -65.040329 -3.361145
13.620647 -65.895744 -4.562107
13.331127 -62.801777 -4.671482
28.933372 -118.079575 -3.543915
27.509531 -119.944664 -5.822678
21.500931 -124.871994 -8.87262
24.330112 -123.043419 -9.868494
22.54418 -124.115898 -11.503242
23.65941 -123.065605 -13.909924
20.641727 -124.783936 -12.811052
2.446497 -113.267746 -1.039286
3.173569 -115.453659 -3.939552
2.62483 -112.803551 -3.490126
2.264393 -107.936264 -6.931314
2.722021 -110.919609 -7.775217
2.910652 -109.433151 -9.534975
4.057529 -110.554489 -11.976999
3.40011 -107.567749 -11.013613
7.026041 -89.859726 0.993984
5.297098 -91.536224 -0.337931
6.605696 -88.395615 -0.535057
7.722197 -80.83728 -4.087997
6.27158 -84.297592 -3.586653
6.576427 -81.756538 -5.174473
6.011263 -82.669464 -6.434849
7.270607 -78.953979 -6.816069
12.702389 -67.139664 -6.716135
11.790594 -70.495834 -6.17457
11.916557 -67.6147 -7.710262
11.939085 -65.312637 -11.267498
10.802307 -68.49913 -9.696398
10.855837 -68.960403 -10.732397
9.772612 -72.745567 -10.165201
11.466238 -69.427353 -11.795397
12.647247 -69.862221 -12.864479
13.345701 -66.027527 -13.350517
31.272844 -109.632668 -21.846792
34.689011 -106.688705 -22.120195
32.646519 -106.279434 -22.393538
34.013153 -102.685043 -22.881334
30.614281 -105.618637 -22.402544
12.752546 -124.834091 6.821157
12.131428 -125.956444 4.318621
10.440817 -124.780952 7.018332
4.832306 -121.285973 10.152919
6.338854 -123.336464 7.196893
4.66674 -121.976105 7.219231
4.791172 -122.443161 4.216763
3.297352 -120.240067 7.213628
0.168879 -110.27285 12.876438
0.445107 -112.81414 13.076459
0.666769 -113.110565 10.061674
1.512682 -115.864647 7.159228
1.098518 -113.348816 7.129273
1.618189 -113.487213 4.293205
0.999264 -110.693771 7.105012
2.046038 -102.248528 9.393064
1.721817 -105.172585 7.055979
2.517368 -102.394333 7.001493
2.86224 -102.43277 4.751196
3.568848 -99.651375 6.896229
4.947517 -94.005539 15.324634
6.586668 -91.494522 14.583439
9.001888 -89.314407 9.418742
7.348808 -91.686234 10.021674
7.653753 -91.812317 7.964351
6.265377 -94.351784 6.434971
7.790993 -91.799446 6.04579
7.714254 -91.526779 4.255749
9.334444 -89.288788 5.548388
13.069986 -82.183792 5.456623
12.111958 -84.255013 4.30302
13.15303 -81.658539 3.617907
13.056374 -80.761322 1.87487
13.841389 -78.971962 2.941034
11.975588 -75.811897 9.552557
11.160528 -73.466599 8.903913
11.378366 -69.628883 4.449506
12.496719 -72.398895 4.905633
12.971453 -71.514709 3.054538
13.920546 -73.300568 1.753277
13.286192 -70.337738 1.300183
13.441221 -68.854202 -0.358341
12.263201 -67.321304 0.968516
12.213722 -122.051147 11.856512
14.820244 -121.715576 11.303747
13.670547 -123.406677 9.151277
15.15543 -124.447044 6.509538
30.294926 -114.54554 3.679238
23.962736 -118.802216 6.911457
25.158211 -118.946266 4.343479
22.621475 -120.836449 4.897065
21.325127 -122.701927 2.861435
20.103518 -122.419106 5.499201
11.895288 -127.168289 -1.199242
14.034872 -127.433884 -3.636147
12.2043 -127.245407 -4.140402
11.489302 -125.512032 -10.166645
13.285423 -126.367973 -9.891291
13.934971 -125.419334 -12.46133
16.63796 -124.785934 -14.3866
14.629263 -124.128891 -14.697346
5.445272 -118.652725 -9.570232
6.742176 -120.787132 -9.916603
7.072973 -119.570358 -12.113071
12.325773 -117.75985 -17.553507
11.466768 -119.894211 -16.2778
14.227459 -119.288078 -17.842573
16.270092 -120.51104 -17.998701
17.312569 -118.189262 -19.087183
20.651831 -116.629791 -20.062647
18.554497 -115.541306 -19.872435
19.924885 -107.833725 -20.4522
21.626804 -109.357574 -20.849157
23.377264 -105.872986 -21.204321
26.834398 -103.558495 -21.938547
25.186104 -102.156288 -21.571585
2.9849 -94.680077 -3.713945
2.402369 -98.115334 -4.320337
2.665468 -96.12516 -5.735722
5.519045 -95.789124 -11.087992
3.940617 -98.533386 -10.043165
5.480019 -99.362823 -12.098253
5.683571 -102.755028 -13.18186
7.521385 -99.858101 -13.952452
15.594797 -98.983086 -18.05266
16.279518 -101.618919 -18.787848
18.587086 -97.87133 -19.085161
12.746386 -59.870876 -4.543257
23.604445 -122.552704 -2.544006
24.760521 -122.184448 -5.276764
22.13332 -124.105026 -4.460449
20.546299 -125.360756 -6.126436
18.82856 -126.258553 -7.50152
2.215895 -107.683807 -0.213852
2.294422 -110.005745 -2.950329
2.19133 -107.080986 -2.344959
2.085176 -106.123116 -4.286915
2.051821 -104.783485 -6.02103
9.92923 -83.885117 -0.003981
8.050226 -85.24826 -0.961967
9.535164 -82.078217 -1.568441
9.261568 -79.890427 -3.145144
9.202028 -77.376053 -4.755344
13.211567 -61.409458 -9.412479
12.311895 -64.633682 -9.177404
13.000383 -61.637829 -10.540804
12.989708 -61.871696 -11.649067
13.323002 -62.120834 -12.737236
14.091251 -62.37291 -13.797039
27.730972 -112.303078 -21.413069
9.715889 -121.945145 12.325394
8.84449 -123.231277 9.819958
7.397856 -121.392776 12.701983
0.083733 -107.454002 15.569869
0.273554 -107.598816 12.612359
0.688482 -107.781342 9.781874
0.748123 -104.853409 12.295929
1.571676 -102.092834 11.934004
2.708195 -99.365578 11.528292
8.219166 -89.09446 13.8475
9.718979 -86.797546 13.117979
10.160742 -86.893951 10.877611
10.530489 -87.004349 8.773277
10.761808 -87.009613 6.802726
11.82971 -84.717972 8.097502
12.807673 -82.413666 7.40766
13.392836 -80.053421 6.72268
10.000668 -71.003769 8.321571
10.854977 -120.449059 14.634664
29.072285 -114.778053 6.107745
27.899025 -114.758087 8.476398
25.339699 -116.653267 8.865414
22.749918 -118.366211 9.406588
8.377954 -125.699051 -1.685291
10.442335 -126.608574 -4.486588
8.805931 -125.540565 -4.684271
9.29277 -125.061012 -7.567156
9.784971 -124.261414 -10.237341
6.124538 -115.786667 -13.457554
7.502993 -118.018394 -13.974655
8.149637 -116.114632 -15.483189
10.607601 -115.946907 -17.156713
13.452028 -115.288666 -18.498053
16.612194 -114.159225 -19.564508
14.869333 -112.496147 -19.169016
16.556129 -109.405075 -19.637976
18.452896 -106.040398 -19.984968
4.018446 -90.109077 -6.546137
3.372395 -93.79866 -7.079109
4.576393 -91.170601 -8.382732
5.786589 -92.077751 -10.250731
13.78348 -71.373878 -2.69133
13.034046 -72.359116 -3.68811
13.533152 -69.099518 -4.222702
13.3388 -66.58255 -5.676107
13.28521 -63.905117 -7.029369
13.334946 -60.431179 -5.823385
25.9832 -121.627441 -7.953793
27.278292 -120.860916 -10.500174
28.629402 -119.84845 -12.848835
26.802471 -120.960701 -14.611288
24.829285 -121.693184 -16.016394
22.740082 -122.011467 -17.032808
3.579201 -118.3339 -1.582422
4.879831 -120.228584 -4.543024
3.929354 -117.936806 -4.290421
4.159973 -117.266426 -6.814556
4.328499 -116.289406 -9.102764
2.678513 -112.034508 -5.749233
3.414524 -113.708771 -8.50518
4.550886 -114.97422 -11.107677
4.969242 -113.297714 -12.795763
5.713406 -111.250885 -14.153496
6.864637 -108.843048 -15.192995
11.368021 -77.77449 -12.206642
10.807255 -81.738159 -12.194639
4.558155 -95.809082 1.206823
3.318495 -97.826485 -0.671345
4.189539 -94.680305 -0.38895
3.897465 -93.142715 -1.90234
3.841341 -91.221489 -3.372385
6.31192 -86.527443 -2.048807
4.952444 -87.758453 -3.332134
4.152798 -88.957108 -4.839354
4.9091 -86.39257 -6.330673
6.127539 -83.565285 -7.855024
7.770422 -80.506004 -9.400389
11.888533 -73.192871 -4.602966
10.595169 -73.921288 -5.487051
9.422367 -74.596474 -6.400364
11.211327 -68.055603 -8.69368
9.955336 -71.61573 -8.059738
8.613678 -75.261353 -7.393587
8.350473 -75.935822 -8.491791
8.729515 -76.609055 -9.686598
9.758505 -77.241516 -10.941397
11.98686 -73.799133 -12.451828
39.08984 -99.951241 -22.834826
37.230362 -99.523575 -23.224627
35.348866 -98.883781 -23.363348
33.508774 -98.028572 -23.320772
15.853554 -126.264854 1.845835
15.608684 -126.935974 -0.407602
13.865156 -126.692421 1.794339
11.849552 -126.73938 1.640489
9.897465 -126.358772 1.474332
8.281036 -124.279602 7.13518
8.038897 -125.057495 4.294373
8.092859 -125.536072 1.334455
6.49234 -124.289772 1.237905
5.125292 -122.661522 1.191267
4.002266 -120.707573 1.197783
2.05094 -117.776649 10.211599
2.244984 -118.182487 7.190253
2.641453 -118.42952 4.19626
3.124041 -118.48893 1.26047
2.489561 -116.06279 1.382415
2.099564 -113.477669 1.56463
1.95612 -110.773079 1.802267
1.210091 -107.952667 7.084181
1.705326 -108.045578 4.516973
2.060305 -107.982246 2.080703
2.410133 -105.135513 2.373048
2.999653 -102.261917 2.640475
3.818533 -99.387688 2.83629
3.699539 -96.60096 13.489043
4.102879 -96.709244 11.07645
6.961134 -91.545532 12.226169
5.680735 -94.147324 10.574906
4.520969 -96.866875 8.82156
4.835949 -96.967171 6.714516
4.956825 -96.891808 4.747017
4.850515 -96.532417 2.913518
6.06971 -93.704552 2.834467
7.43511 -90.898857 2.579584
8.885311 -88.097176 2.152826
10.806782 -86.78669 4.958284
10.653673 -86.230957 3.22552
10.336044 -85.272896 1.581878
11.683119 -82.398308 0.913405
12.81213 -79.45282 0.205173
13.614492 -76.429573 -0.482485
12.384439 -78.063843 10.242024
13.020103 -77.913193 8.098582
13.540014 -77.607903 6.063081
11.882341 -73.029541 6.85565
13.234896 -75.058914 5.450236
13.9104 -77.055977 4.135717
14.108797 -76.184433 2.308861
14.13282 -74.949181 0.569772
14.007088 -73.33902 -1.093899
13.950823 -70.20816 -1.582958
13.462547 -67.076385 -1.916433
12.616789 -63.989433 -2.076269
11.533964 -60.995472 -2.061695
21.51569 -117.624382 11.836979
20.12487 -119.824799 10.034727
17.472771 -120.960167 10.684862
18.809998 -121.843132 8.103072
17.611393 -123.634895 6.060938
16.591015 -125.137413 3.957219
17.874174 -125.49424 1.545321
27.610416 -118.537842 -0.925226
27.71451 -116.823578 3.917495
26.362089 -118.840683 1.719473
25.000938 -120.773277 -0.455549
22.478207 -122.732605 0.179888
20.079773 -124.328201 0.895738
15.842052 -127.194878 -2.968597
16.338959 -127.128059 -5.752319
17.008331 -126.745491 -8.580624
12.692511 -126.977081 -7.078756
15.141198 -126.785767 -9.371994
17.793562 -126.043068 -11.295965
18.657953 -125.010452 -13.769768
19.585527 -123.634811 -15.909845
20.580585 -121.907143 -17.666803
6.408199 -121.688797 -7.425409
8.195843 -122.669548 -10.143696
10.276794 -123.138985 -12.611786
9.076221 -119.989586 -14.365036
10.811666 -121.686455 -14.633444
12.674538 -123.080132 -14.759495
15.392361 -122.492737 -16.546045
18.405418 -121.396454 -17.965075
21.661634 -119.827263 -19.040777
22.84973 -117.402863 -20.070883
24.157272 -114.65184 -20.82416
25.579687 -111.599907 -21.381529
20.001522 -112.588814 -20.432112
23.526308 -110.61438 -21.170935
27.093134 -108.27668 -21.824926
28.658363 -104.711319 -22.228811
30.229445 -100.92923 -22.655752
31.76395 -96.950562 -23.154833
2.466993 -99.734489 -2.797476
2.094252 -101.496254 -5.119896
2.26232 -103.059074 -7.545086
2.985874 -97.431099 -7.883081
2.862503 -100.966614 -8.875204
3.001184 -104.360054 -9.952648
4.306446 -105.334198 -12.218699
6.142004 -105.925468 -14.239613
8.443047 -106.094955 -15.953634
10.411259 -103.033707 -16.497019
11.123529 -105.82386 -17.353491
14.086077 -105.111557 -18.485628
17.233332 -103.970924 -19.434153
20.477665 -102.423485 -20.293955
21.594948 -96.364487 -20.086443
22.543594 -98.568932 -20.647371
23.747129 -100.496513 -21.141756
26.987041 -98.222336 -22.014597
30.157776 -95.638931 -22.903116
11.779784 -81.34375 12.450603
11.571072 -82.405937 12.823882
12.021248 -80.26392 12.091173
12.108436 -81.332249 11.311819
11.779784 -81.34375 12.450603
7.218295 -90.321743 15.43026
6.446407 -91.546943 15.838
10.179697 -72.460388 9.649121
10.763047 -73.624207 9.974063
30.960653 -113.558846 4.839925
31.594611 -113.362278 3.672429
6.455067 -97.880234 -12.5199
5.499532 -97.575974 -11.593122
6.47458 -96.093384 -12.014769
7.47575 -98.127872 -13.447
6.500702 -99.610462 -13.025353
6.455067 -97.880234 -12.5199
16.817971 -97.077892 -18.218364
15.382881 -97.526982 -17.657341
18.314115 -96.522014 -18.734615
17.090941 -98.427208 -18.568911
16.817971 -97.077892 -18.218364
13.450882 -60.106823 -10.554186
13.105975 -61.523644 -9.976641
13.556475 -59.992638 -9.990023
13.634456 -60.357231 -12.299702
13.486543 -60.289003 -11.711488
13.801103 -60.4818 -12.843786
13.156355 -61.996265 -12.193151
13.634456 -60.357231 -12.299702
14.11141 -60.552033 -13.412309
13.801103 -60.4818 -12.843786
28.142155 -113.96846 -20.953066
29.249738 -114.091534 -20.749868
27.477851 -115.351162 -20.524256
27.05062 -113.765583 -21.070261
28.822507 -112.505955 -21.295874
28.142155 -113.96846 -20.953066
7.897633 -120.759231 13.953774
8.556873 -121.66896 12.513689
9.05665 -121.035416 13.76548
0.27458 -106.101924 15.352117
0.269362 -106.096569 16.838534
0.460209 -104.744492 16.620782
10.08198 -85.682079 13.922666
9.494405 -86.802971 14.304444
9.626194 -120.287373 14.920115
10.258874 -119.567818 16.074433
9.05665 -121.035416 13.76548
10.285433 -121.197102 13.480029
9.626194 -120.287373 14.920115
28.592865 -113.692028 9.493766
29.167406 -113.751724 8.384731
7.720956 -90.874016 -11.704819
6.672605 -92.418995 -11.149822
6.834939 -90.532772 -10.805727
13.117175 -59.041527 -5.661943
13.040666 -60.151027 -5.183321
12.822895 -58.761375 -5.021879
30.346328 -118.003796 -8.445113
29.607404 -118.380185 -7.235173
29.586251 -118.845947 -9.586585
30.346328 -118.003796 -8.445113
12.400249 -77.95874 -12.82373
12.624455 -75.972595 -12.895885
13.493355 -70.036236 -13.390767
13.729373 -68.093747 -13.612827
14.706257 -62.483618 -14.307417
14.999388 -60.739784 -14.485602
36.939579 -103.367618 -22.457718
36.295374 -105.103249 -22.168697
35.333216 -104.953075 -22.409216
37.533631 -101.584343 -22.766531
38.495789 -101.734516 -22.526013
36.939579 -103.367618 -22.457718
1.144008 -115.358284 11.677814
0.775717 -113.986507 13.137339
0.813397 -114.185916 11.616934
1.616314 -116.667171 10.184503
1.578634 -116.467762 11.704909
1.144008 -115.358284 11.677814
11.797581 -77.034096 10.996357
12.026037 -78.110093 11.363772
10.742759 -60.373297 -1.370626
11.408955 -61.861416 -1.390225
10.947546 -59.570127 -1.977558
10.742759 -60.373297 -1.370626
20.176906 -118.248855 12.187796
20.898649 -117.112156 13.038018
19.559864 -117.736629 13.388835
29.623558 -116.333332 0.094428
30.28049 -115.33984 1.299189
28.285165 -117.544281 0.221049
28.948808 -117.326893 -1.051848
29.623558 -116.333332 0.094428
10.569401 -83.693386 -12.321258
11.909464 -81.907089 -12.862108
11.832495 -102.786137 -17.11917
11.549923 -101.359627 -16.699965
12.971159 -101.112057 -17.322115
22.667314 -94.28492 -20.336396
21.253506 -95.121738 -19.778105
24.103165 -97.528512 -21.122179
23.558496 -96.526967 -20.883018
25.118068 -95.486546 -21.357827
30.936209 -93.514141 -23.236721
29.44187 -94.859909 -22.743267
31.694563 -94.21479 -23.332235
30.936209 -93.514141 -23.236721
27.728057 -118.784886 -17.991267
27.070878 -119.713802 -17.172919
28.354038 -117.747895 -18.703443
27.728057 -118.784886 -17.991267
26.668387 -118.938877 -18.495241
29.014775 -116.638821 -19.369648
28.354038 -117.747895 -18.703443
27.939901 -116.688061 -19.764238
29.660309 -115.424995 -19.926468
29.014775 -116.638821 -19.369648
0.785425 -103.390297 16.307911
0.460209 -104.744492 16.620782
1.16447 -102.017745 16.05643
0.844472 -103.377296 14.882884
0.785425 -103.390297 16.307911
1.668763 -100.655735 15.711177
1.16447 -102.017745 16.05643
2.217345 -99.290047 15.434852
1.772099 -100.639057 14.355078
1.668763 -100.655735 15.711177
11.12137 -83.490456 13.184873
10.706274 -84.573864 13.560291
11.417269 -83.496598 12.032239
11.12137 -83.490456 13.184873
11.571072 -82.405937 12.823882
27.44424 -113.29871 11.705172
28.013707 -113.528293 10.63733
26.159313 -114.1021 11.869853
27.44424 -113.29871 11.705172
24.864682 -114.946182 12.100175
25.446078 -115.2747 10.993847
26.159313 -114.1021 11.869853
29.637277 -117.780682 -4.815132
30.321262 -116.818291 -3.608108
28.925357 -118.713227 -5.954514
29.637277 -117.780682 -4.815132
28.221452 -119.01212 -4.683296
28.191578 -119.611622 -7.103338
29.607404 -118.380185 -7.235173
28.925357 -118.713227 -5.954514
14.0786 -66.1764 -13.855847
13.729373 -68.093747 -13.612827
12.996474 -67.944874 -13.107498
32.980927 -108.160686 -21.983494
34.033976 -108.29277 -21.779092
32.325892 -109.764751 -21.642391
0.306993 -111.543495 12.976449
0.272726 -111.435142 14.496215
0.134611 -110.164498 14.396205
5.626831 -92.802452 16.208598
4.85667 -94.080399 16.630641
5.767093 -92.750031 14.954037
5.626831 -92.802452 16.208598
6.446407 -91.546943 15.838
11.170577 -74.796856 10.298386
11.593156 -75.908123 10.651623
11.568058 -74.639248 9.228235
11.170577 -74.796856 10.298386
10.763047 -73.624207 9.974063
18.207221 -118.270798 13.794584
19.559864 -117.736629 13.388835
13.516983 -121.883362 11.580129
14.139551 -121.024315 12.641934
12.83629 -121.192101 12.918316
30.947995 -114.33725 2.455146
31.594611 -113.362278 3.672429
29.62742 -115.54813 2.523281
30.28049 -115.33984 1.299189
30.947995 -114.33725 2.455146
14.141692 -99.334316 -17.477785
15.382881 -97.526982 -17.657341
14.424264 -100.760827 -17.89699
12.971159 -101.112057 -17.322115
14.141692 -99.334316 -17.477785
26.581387 -94.375916 -21.899469
25.118068 -95.486546 -21.357827
27.19435 -95.284489 -22.090203
26.581387 -94.375916 -21.899469
12.246078 -59.497511 -3.88706
12.712146 -60.937246 -3.968975
12.211838 -60.563881 -3.312779
12.35908 -58.511242 -4.37028
12.246078 -59.497511 -3.88706
12.822895 -58.761375 -5.021879
12.35908 -58.511242 -4.37028
13.491881 -60.17207 -11.157356
13.450882 -60.106823 -10.554186
12.995045 -61.754762 -11.094936
13.491881 -60.17207 -11.157356
13.486543 -60.289003 -11.711488
14.495534 -60.678071 -13.942211
13.707127 -62.246872 -13.267138
14.11141 -60.552033 -13.412309
14.999388 -60.739784 -14.485602
14.495534 -60.678071 -13.942211
30.321981 -114.138711 -20.457735
29.660309 -115.424995 -19.926468
30.321981 -114.138711 -20.457735
29.249738 -114.091534 -20.749868
30.593443 -111.17075 -21.512735
32.325892 -109.764751 -21.642391
29.501908 -110.967873 -21.629931
30.593443 -111.17075 -21.512735
28.822507 -112.505955 -21.295874
6.77858 -120.378524 14.185962
7.897633 -120.759231 13.953774
6.363321 -120.89909 12.84132
6.77858 -120.378524 14.185962
6.016869 -121.439015 11.502291
7.051403 -121.932701 11.362954
6.363321 -120.89909 12.84132
5.080547 -120.845688 11.566788
5.768628 -121.8793 10.088422
6.016869 -121.439015 11.502291
4.199197 -120.147587 11.654796
5.080547 -120.845688 11.566788
3.418985 -119.357113 11.684957
4.052093 -120.495499 10.18308
4.199197 -120.147587 11.654796
0.142534 -107.413628 17.101581
0.269362 -106.096569 16.838534
0.092038 -108.755074 15.742921
0.142534 -107.413628 17.101581
0.126306 -108.863426 14.223154
0.134611 -110.164498 14.396205
0.092038 -108.755074 15.742921
8.744498 -87.951427 14.669205
8.034544 -89.121712 15.062291
8.969072 -87.946003 13.48274
8.744498 -87.951427 14.669205
9.494405 -86.802971 14.304444
10.343273 -85.689331 12.755604
10.08198 -85.682079 13.922666
10.706274 -84.573864 13.560291
8.895046 -69.997886 9.077456
9.599767 -71.228973 9.35795
9.287309 -69.704701 8.076842
8.895046 -69.997886 9.077456
9.656041 -69.409824 7.085061
10.3694 -70.708893 7.32979
9.287309 -69.704701 8.076842
10.023224 -69.043735 6.12817
9.656041 -69.409824 7.085061
10.343341 -68.651169 5.183919
11.058249 -70.02145 5.393757
10.023224 -69.043735 6.12817
10.670939 -68.19247 4.274155
10.343341 -68.651169 5.183919
10.927846 -67.680855 3.378784
11.635274 -69.117267 3.554134
10.670939 -68.19247 4.274155
11.203882 -67.116715 2.519164
10.927846 -67.680855 3.378784
11.532793 -119.603443 15.685918
10.258874 -119.567818 16.074433
12.156917 -120.391057 14.307392
11.532793 -119.603443 15.685918
11.53435 -121.250103 13.245588
12.83629 -121.192101 12.918316
12.156917 -120.391057 14.307392
29.754036 -113.761707 7.200404
30.349333 -113.675102 6.054178
28.485655 -114.76807 7.292072
29.754036 -113.761707 7.200404
29.167406 -113.751724 8.384731
27.319867 -114.594352 9.619961
28.592865 -113.692028 9.493766
28.013707 -113.528293 10.63733
6.538833 -94.274681 -11.568453
5.652817 -93.933437 -10.669362
6.672605 -92.418995 -11.149822
6.47458 -96.093384 -12.014769
6.538833 -94.274681 -11.568453
13.416816 -59.219757 -6.311055
13.117175 -59.041527 -5.661943
13.436886 -60.638901 -6.442654
13.416816 -59.219757 -6.311055
13.522032 -62.134678 -6.472673
13.420092 -61.926956 -5.853404
13.436886 -60.638901 -6.442654
13.412018 -62.37587 -7.045647
13.395224 -63.663925 -6.456396
13.522032 -62.134678 -6.472673
13.367268 -62.531885 -7.642834
13.412018 -62.37587 -7.045647
13.13596 -62.726017 -8.188401
13.053902 -64.099249 -7.574936
13.367268 -62.531885 -7.642834
13.330447 -61.284056 -8.834388
13.017081 -62.851419 -8.766492
13.13596 -62.726017 -8.188401
13.550952 -59.92256 -9.374139
13.330447 -61.284056 -8.834388
13.556475 -59.992638 -9.990023
13.550952 -59.92256 -9.374139
28.788585 -119.637115 -10.644673
29.586251 -118.845947 -9.586585
28.075958 -120.069748 -9.442086
29.46414 -119.130882 -11.819004
28.788585 -119.637115 -10.644673
27.953847 -120.354683 -11.674504
30.191902 -118.575378 -12.921319
29.46414 -119.130882 -11.819004
29.319717 -119.197548 -13.899453
30.191902 -118.575378 -12.921319
28.406252 -119.753673 -14.780679
29.319717 -119.197548 -13.899453
27.715936 -120.404575 -13.730061
27.45091 -120.206219 -15.587031
28.406252 -119.753673 -14.780679
26.464317 -120.57246 -16.289583
27.45091 -120.206219 -15.587031
25.815878 -121.326943 -15.313841
25.435845 -120.834526 -16.899729
27.070878 -119.713802 -17.172919
26.464317 -120.57246 -16.289583
12.119865 -79.940574 -12.817729
11.087638 -79.756325 -12.200641
12.400249 -77.95874 -12.82373
11.909464 -81.907089 -12.862108
12.119865 -79.940574 -12.817729
12.933875 -73.984916 -13.018477
12.624455 -75.972595 -12.895885
11.67744 -75.786811 -12.329235
13.163162 -72.004692 -13.184442
12.317054 -71.830677 -12.658154
13.493355 -70.036236 -13.390767
12.933875 -73.984916 -13.018477
13.163162 -72.004692 -13.184442
14.333482 -64.310927 -14.084156
13.718476 -64.200219 -13.573778
14.706257 -62.483618 -14.307417
14.0786 -66.1764 -13.855847
14.333482 -64.310927 -14.084156
35.680232 -106.764339 -21.812269
34.033976 -108.29277 -21.779092
35.680232 -106.764339 -21.812269
36.295374 -105.103249 -22.168697
39.975176 -100.058754 -22.481167
38.495789 -101.734516 -22.526013
40.523416 -98.241463 -22.814035
39.975176 -100.058754 -22.481167
39.660403 -98.068607 -23.119164
40.523416 -98.241463 -22.814035
38.730663 -97.854774 -23.314065
39.660403 -98.068607 -23.119164
38.160101 -99.737408 -23.029727
37.832887 -97.584423 -23.485119
38.730663 -97.854774 -23.314065
36.892139 -97.264526 -23.554479
37.832887 -97.584423 -23.485119
36.289614 -99.203678 -23.293988
35.991484 -96.89463 -23.623085
36.892139 -97.264526 -23.554479
35.071438 -96.467026 -23.601797
35.991484 -96.89463 -23.623085
34.42882 -98.456176 -23.34206
34.196324 -95.993286 -23.597237
35.071438 -96.467026 -23.601797
2.711158 -118.474297 11.720705
3.418985 -119.357113 11.684957
0.485368 -112.653221 14.612964
0.272726 -111.435142 14.496215
0.485368 -112.653221 14.612964
0.775717 -113.986507 13.137339
2.100687 -117.510109 11.719883
1.578634 -116.467762 11.704909
2.661411 -118.740837 10.212421
2.711158 -118.474297 11.720705
2.100687 -117.510109 11.719883
2.87132 -97.945801 15.071813
2.217345 -99.290047 15.434852
4.184738 -95.311886 15.694753
4.85667 -94.080399 16.630641
3.560749 -96.609597 14.776958
4.184738 -95.311886 15.694753
4.323528 -95.303249 14.406838
3.01011 -97.937164 13.783898
2.87132 -97.945801 15.071813
3.560749 -96.609597 14.776958
7.402917 -90.294491 14.21547
7.218295 -90.321743 15.43026
8.034544 -89.121712 15.062291
12.008768 -79.20438 11.718955
12.021248 -80.26392 12.091173
12.36717 -79.158131 10.597207
12.008768 -79.20438 11.718955
12.026037 -78.110093 11.363772
12.180014 -76.93787 9.897291
11.797581 -77.034096 10.996357
11.593156 -75.908123 10.651623
10.580598 -72.235184 8.612742
10.179697 -72.460388 9.649121
9.599767 -71.228973 9.35795
11.389392 -66.47454 1.674041
12.077691 -67.963478 1.81364
11.203882 -67.116715 2.519164
11.608277 -65.801147 0.86876
11.389392 -66.47454 1.674041
11.724381 -65.028183 0.077253
12.379305 -66.548339 0.177009
11.608277 -65.801147 0.86876
11.889678 -64.251368 -0.666627
11.724381 -65.028183 0.077253
11.950368 -63.358396 -1.397512
12.556099 -64.882404 -1.345384
11.889678 -64.251368 -0.666627
12.075377 -62.492452 -2.068982
11.950368 -63.358396 -1.397512
11.408955 -61.861416 -1.390225
11.639867 -60.059809 -2.646279
12.211838 -60.563881 -3.312779
12.105935 -61.499544 -2.728194
11.639867 -60.059809 -2.646279
10.947546 -59.570127 -1.977558
23.552736 -115.696991 12.375276
24.864682 -114.946182 12.100175
22.234858 -116.449791 12.68168
20.898649 -117.112156 13.038018
22.833568 -116.871582 11.530574
23.552736 -115.696991 12.375276
22.234858 -116.449791 12.68168
17.488667 -119.334263 12.903956
18.207221 -118.270798 13.794584
15.479729 -120.755387 12.286523
14.139551 -121.024315 12.641934
16.805993 -120.377682 11.977081
15.479729 -120.755387 12.286523
16.146508 -121.337872 10.994305
18.155446 -119.916748 11.611737
17.488667 -119.334263 12.903956
16.805993 -120.377682 11.977081
29.610287 -117.097759 -2.361192
30.321262 -116.818291 -3.608108
28.271894 -118.308708 -2.234571
29.610287 -117.097759 -2.361192
28.948808 -117.326893 -1.051848
29.683605 -114.661797 4.893491
30.960653 -113.558846 4.839925
30.349333 -113.675102 6.054178
33.323912 -95.454281 -23.514267
34.196324 -95.993286 -23.597237
32.636362 -97.489567 -23.237803
9.354629 -85.384281 -11.692481
9.592482 -83.429054 -11.565862
10.569401 -83.693386 -12.321258
9.107418 -87.318203 -11.9043
8.1305 -87.053871 -11.148903
9.354629 -85.384281 -11.692481
8.928781 -89.227508 -12.16163
9.107418 -87.318203 -11.9043
7.720956 -90.874016 -11.704819
8.928781 -89.227508 -12.16163
8.638967 -98.264054 -14.272263
7.47575 -98.127872 -13.447
8.741453 -99.916207 -14.752905
8.638967 -98.264054 -14.272263
8.907479 -101.537937 -15.269332
7.687411 -101.479832 -14.468879
8.741453 -99.916207 -14.752905
10.18639 -101.504009 -16.025188
11.549923 -101.359627 -16.699965
9.132348 -103.067634 -15.741163
8.907479 -101.537937 -15.269332
10.18639 -101.504009 -16.025188
19.749575 -95.87516 -19.277464
18.314115 -96.522014 -18.734615
20.091017 -97.117908 -19.585802
19.749575 -95.87516 -19.277464
21.253506 -95.121738 -19.778105
23.084173 -95.424744 -20.602555
22.667314 -94.28492 -20.336396
22.069271 -97.46671 -20.366907
23.084173 -95.424744 -20.602555
23.558496 -96.526967 -20.883018
27.856503 -96.151612 -22.299008
26.324889 -97.355213 -21.805792
27.19435 -95.284489 -22.090203
28.572409 -96.930633 -22.458856
27.856503 -96.151612 -22.299008
29.44187 -94.859909 -22.743267
32.49765 -94.870606 -23.458094
30.960863 -96.294747 -23.028975
31.694563 -94.21479 -23.332235
33.323912 -95.454281 -23.514267
32.49765 -94.870606 -23.458094
3 0 127 125
3 1 130 128
3 2 133 131
3 4 135 134
3 4 137 135
3 510 140 511
3 512 142 513
3 514 513 140
3 512 513 514
3 5 146 144
3 6 149 147
3 6 151 149
3 3 154 152
3 7 157 155
3 9 159 158
3 10 162 160
3 10 164 162
3 11 167 165
3 13 170 168
3 13 172 170
3 14 175 173
3 16 178 176
3 16 180 178
3 8 183 181
3 17 186 184
3 17 188 186
3 17 190 188
3 18 193 191
3 18 195 193
3 19 198 196
3 21 201 199
3 21 203 201
3 22 206 204
3 22 208 206
3 22 210 208
3 23 213 211
3 23 215 213
3 515 217 516
3 24 220 218
3 24 222 220
3 24 224 222
3 25 227 225
3 25 229 227
3 517 231 518
3 26 234 232
3 26 236 234
3 26 238 236
3 19 241 239
3 19 196 241
3 519 243 520
3 27 246 244
3 27 248 246
3 20 251 249
3 28 254 252
3 28 256 254
3 12 259 257
3 29 262 260
3 29 264 262
3 29 266 264
3 30 269 267
3 30 271 269
3 15 274 272
3 521 277 522
3 523 522 275
3 521 522 523
3 524 279 525
3 526 525 277
3 524 525 526
3 527 280 528
3 529 282 530
3 531 530 280
3 529 530 531
3 31 286 284
3 33 287 126
3 33 288 287
3 34 291 289
3 36 292 129
3 36 293 292
3 37 296 294
3 39 297 132
3 39 298 297
3 532 301 533
3 534 533 299
3 532 533 534
3 535 302 536
3 537 303 538
3 539 538 302
3 537 538 539
3 541 540 303
3 41 542 544
3 544 543 136
3 542 543 544
3 41 545 547
3 545 305 546
3 545 546 547
3 548 308 549
3 550 549 306
3 548 549 550
3 43 551 553
3 551 309 552
3 551 552 553
3 43 310 309
3 43 312 310
3 45 313 138
3 45 314 313
3 554 316 555
3 47 317 139
3 47 318 317
3 47 320 318
3 49 321 141
3 49 322 321
3 556 324 557
3 558 306 559
3 560 559 324
3 558 559 560
3 561 326 562
3 52 327 143
3 52 328 327
3 53 331 329
3 55 332 145
3 55 333 332
3 56 336 334
3 58 337 148
3 58 338 337
3 58 340 338
3 60 341 150
3 60 342 341
3 61 345 343
3 63 346 153
3 63 563 565
3 565 564 346
3 563 564 565
3 64 349 347
3 66 350 156
3 66 351 350
3 566 352 567
3 568 567 283
3 566 567 568
3 67 569 570
3 67 571 572
3 32 353 285
3 68 354 161
3 68 355 354
3 68 356 355
3 69 357 163
3 69 358 357
3 70 361 359
3 72 362 166
3 72 363 362
3 35 364 290
3 73 365 169
3 73 366 365
3 73 367 366
3 74 368 171
3 74 369 368
3 574 573 370
3 75 374 372
3 77 375 174
3 77 376 375
3 38 377 295
3 78 378 177
3 78 379 378
3 78 380 379
3 79 381 179
3 79 382 381
3 65 383 348
3 80 384 182
3 80 385 384
3 40 386 300
3 81 387 185
3 81 388 387
3 81 389 388
3 82 390 187
3 82 391 390
3 82 392 391
3 576 575 189
3 578 577 304
3 83 579 581
3 581 580 192
3 579 580 581
3 83 582 584
3 582 393 583
3 582 583 584
3 83 394 393
3 84 395 194
3 84 396 395
3 85 399 397
3 87 400 197
3 87 401 400
3 42 402 307
3 88 403 200
3 88 404 403
3 88 405 404
3 89 406 202
3 89 407 406
3 90 585 587
3 587 586 205
3 585 586 587
3 90 588 590
3 588 408 589
3 588 589 590
3 90 409 408
3 91 410 207
3 91 411 410
3 91 412 411
3 92 413 209
3 92 414 413
3 44 415 311
3 93 416 212
3 93 417 416
3 93 418 417
3 94 419 214
3 94 420 419
3 95 421 216
3 95 422 421
3 46 423 315
3 96 424 219
3 96 425 424
3 96 426 425
3 97 427 221
3 97 428 427
3 97 429 428
3 98 430 223
3 98 431 430
3 48 432 319
3 99 433 226
3 99 434 433
3 99 435 434
3 100 436 228
3 100 437 436
3 591 438 592
3 101 439 230
3 101 440 439
3 50 441 323
3 102 442 233
3 102 443 442
3 102 444 443
3 103 445 235
3 103 446 445
3 103 447 446
3 104 448 237
3 104 449 448
3 593 450 594
3 596 595 450
3 105 597 599
3 597 451 598
3 597 598 599
3 105 452 451
3 106 453 240
3 106 454 453
3 106 455 454
3 85 456 242
3 85 397 456
3 108 600 601
3 108 602 604
3 602 458 603
3 602 603 604
3 51 459 325
3 109 460 245
3 109 461 460
3 109 462 461
3 107 463 247
3 107 457 463
3 86 464 398
3 110 465 250
3 110 466 465
3 54 467 330
3 111 468 253
3 111 469 468
3 111 470 469
3 112 471 255
3 112 472 471
3 71 473 360
3 113 474 258
3 113 475 474
3 57 476 335
3 114 477 261
3 114 478 477
3 114 479 478
3 115 480 263
3 115 481 480
3 115 482 481
3 116 483 265
3 116 484 483
3 59 485 339
3 117 486 268
3 117 487 486
3 117 488 487
3 118 489 270
3 118 490 489
3 76 491 373
3 119 492 273
3 119 493 492
3 62 494 344
3 120 495 276
3 120 496 495
3 120 497 496
3 121 498 278
3 121 499 498
3 606 605 371
3 122 607 609
3 607 500 608
3 607 608 609
3 122 501 500
3 122 502 501
3 123 503 281
3 123 504 503
3 610 505 611
3 124 612 614
3 612 506 613
3 612 613 614
3 124 507 506
3 124 508 507
3 615 509 616
3 618 617 509
3 125 126 31
3 127 126 125
3 127 33 126
3 128 129 34
3 130 129 128
3 130 36 129
3 131 132 37
3 133 132 131
3 133 39 132
3 134 619 620
3 135 621 623
3 623 622 134
3 621 622 623
3 135 624 625
3 135 626 628
3 626 136 627
3 626 627 628
3 137 136 135
3 137 41 136
3 629 43 630
3 631 138 632
3 633 632 43
3 631 632 633
3 634 138 635
3 636 45 637
3 638 637 138
3 636 637 638
3 639 139 640
3 140 641 643
3 641 139 642
3 641 642 643
3 140 47 139
3 140 141 47
3 142 141 140
3 142 49 141
3 644 143 645
3 646 143 647
3 648 52 649
3 650 649 143
3 648 649 650
3 144 145 53
3 146 145 144
3 146 55 145
3 147 148 56
3 149 148 147
3 149 58 148
3 149 150 58
3 151 150 149
3 151 60 150
3 152 153 61
3 154 153 152
3 154 63 153
3 155 156 64
3 157 156 155
3 157 66 156
3 158 651 652
3 159 653 655
3 655 654 158
3 653 654 655
3 159 656 658
3 656 67 657
3 656 657 658
3 160 161 32
3 162 161 160
3 162 68 161
3 162 163 68
3 164 163 162
3 164 69 163
3 165 166 70
3 167 166 165
3 167 72 166
3 168 169 35
3 170 169 168
3 170 73 169
3 170 171 73
3 172 171 170
3 172 74 171
3 173 174 75
3 175 174 173
3 175 77 174
3 176 177 38
3 178 177 176
3 178 78 177
3 178 179 78
3 180 179 178
3 180 79 179
3 181 182 65
3 183 182 181
3 183 80 182
3 184 185 40
3 186 185 184
3 186 81 185
3 186 187 81
3 188 187 186
3 188 82 187
3 188 189 82
3 190 189 188
3 190 659 661
3 661 660 189
3 659 660 661
3 191 662 664
3 662 192 663
3 662 663 664
3 193 192 191
3 193 83 192
3 193 194 83
3 195 194 193
3 195 84 194
3 196 197 85
3 198 197 196
3 198 87 197
3 199 200 42
3 201 200 199
3 201 88 200
3 201 202 88
3 203 202 201
3 203 89 202
3 204 665 667
3 665 205 666
3 665 666 667
3 206 205 204
3 206 90 205
3 206 207 90
3 208 207 206
3 208 91 207
3 208 209 91
3 210 209 208
3 210 92 209
3 211 212 44
3 213 212 211
3 213 93 212
3 213 214 93
3 215 214 213
3 215 94 214
3 668 216 669
3 217 670 672
3 670 216 671
3 670 671 672
3 217 95 216
3 218 219 46
3 220 219 218
3 220 96 219
3 220 221 96
3 222 221 220
3 222 97 221
3 222 223 97
3 224 223 222
3 224 98 223
3 225 226 48
3 227 226 225
3 227 99 226
3 227 228 99
3 229 228 227
3 229 100 228
3 673 230 674
3 231 675 677
3 675 230 676
3 675 676 677
3 231 101 230
3 232 233 50
3 234 233 232
3 234 102 233
3 234 235 102
3 236 235 234
3 236 103 235
3 236 237 103
3 238 237 236
3 238 104 237
3 678 105 679
3 239 680 682
3 680 240 681
3 680 681 682
3 241 240 239
3 241 106 240
3 241 242 106
3 196 242 241
3 196 85 242
3 243 683 684
3 243 685 687
3 685 108 686
3 685 686 687
3 244 245 51
3 246 245 244
3 246 109 245
3 246 247 109
3 248 247 246
3 248 107 247
3 249 250 86
3 251 250 249
3 251 110 250
3 252 253 54
3 254 253 252
3 254 111 253
3 254 255 111
3 256 255 254
3 256 112 255
3 257 258 71
3 259 258 257
3 259 113 258
3 260 261 57
3 262 261 260
3 262 114 261
3 262 263 114
3 264 263 262
3 264 115 263
3 264 265 115
3 266 265 264
3 266 116 265
3 267 268 59
3 269 268 267
3 269 117 268
3 269 270 117
3 271 270 269
3 271 118 270
3 272 273 76
3 274 273 272
3 274 119 273
3 275 276 62
3 277 276 275
3 277 120 276
3 277 278 120
3 279 278 277
3 279 121 278
3 280 688 689
3 280 690 692
3 690 122 691
3 690 691 692
3 280 281 122
3 282 281 280
3 282 123 281
3 693 124 694
3 696 695 124
3 697 283 698
3 699 698 7
3 697 698 699
3 700 283 701
3 703 702 283
3 284 285 9
3 286 285 284
3 286 32 285
3 126 286 31
3 287 286 126
3 287 32 286
3 287 160 32
3 288 160 287
3 288 10 160
3 289 290 11
3 291 290 289
3 291 35 290
3 129 291 34
3 292 291 129
3 292 35 291
3 292 168 35
3 293 168 292
3 293 13 168
3 294 295 14
3 296 295 294
3 296 38 295
3 132 296 37
3 297 296 132
3 297 38 296
3 297 176 38
3 298 176 297
3 298 16 176
3 299 300 8
3 301 300 299
3 301 40 300
3 704 301 705
3 302 706 708
3 706 301 707
3 706 707 708
3 302 40 301
3 302 184 40
3 303 184 302
3 303 17 184
3 303 304 17
3 709 304 710
3 711 710 303
3 709 710 711
3 713 712 304
3 136 714 715
3 717 716 136
3 718 191 719
3 305 720 722
3 720 191 721
3 720 721 722
3 305 18 191
3 306 307 19
3 308 307 306
3 308 42 307
3 723 308 724
3 725 308 726
3 727 42 728
3 729 728 308
3 727 728 729
3 730 199 731
3 732 731 42
3 730 731 732
3 733 199 734
3 735 21 736
3 737 736 199
3 735 736 737
3 309 738 739
3 309 740 741
3 309 742 744
3 742 204 743
3 742 743 744
3 310 204 309
3 310 22 204
3 310 311 22
3 312 311 310
3 312 44 311
3 138 312 43
3 313 312 138
3 313 44 312
3 313 211 44
3 314 211 313
3 314 23 211
3 745 315 746
3 316 747 749
3 747 315 748
3 747 748 749
3 316 46 315
3 139 750 752
3 750 316 751
3 750 751 752
3 317 316 139
3 317 46 316
3 317 218 46
3 318 218 317
3 318 24 218
3 318 319 24
3 320 319 318
3 320 48 319
3 141 320 47
3 321 320 141
3 321 48 320
3 321 225 48
3 322 225 321
3 322 25 225
3 753 323 754
3 755 323 756
3 757 50 758
3 759 758 323
3 757 758 759
3 760 50 761
3 762 232 763
3 764 763 50
3 762 763 764
3 765 232 766
3 767 26 768
3 769 768 232
3 767 768 769
3 771 770 26
3 324 772 773
3 324 774 775
3 324 776 778
3 776 239 777
3 776 777 778
3 306 239 324
3 306 19 239
3 779 325 780
3 326 781 783
3 781 325 782
3 781 782 783
3 326 51 325
3 143 784 786
3 784 326 785
3 784 785 786
3 327 326 143
3 327 51 326
3 327 244 51
3 328 244 327
3 328 27 244
3 329 330 20
3 331 330 329
3 331 54 330
3 145 331 53
3 332 331 145
3 332 54 331
3 332 252 54
3 333 252 332
3 333 28 252
3 334 335 12
3 336 335 334
3 336 57 335
3 148 336 56
3 337 336 148
3 337 57 336
3 337 260 57
3 338 260 337
3 338 29 260
3 338 339 29
3 340 339 338
3 340 59 339
3 150 340 58
3 341 340 150
3 341 59 340
3 341 267 59
3 342 267 341
3 342 30 267
3 343 344 15
3 345 344 343
3 345 62 344
3 153 345 61
3 346 345 153
3 346 62 345
3 346 275 62
3 787 275 788
3 789 788 346
3 787 788 789
3 791 790 275
3 347 348 2
3 349 348 347
3 349 65 348
3 156 349 64
3 350 349 156
3 350 65 349
3 350 181 65
3 351 181 350
3 351 8 181
3 283 157 7
3 352 157 283
3 352 66 157
3 792 352 793
3 794 352 795
3 796 66 797
3 798 797 352
3 796 797 798
3 799 351 800
3 801 800 66
3 799 800 801
3 802 351 803
3 804 8 805
3 806 805 351
3 804 805 806
3 807 299 808
3 809 808 8
3 807 808 809
3 810 299 811
3 813 812 299
3 285 159 9
3 353 159 285
3 353 67 159
3 161 353 32
3 354 353 161
3 354 67 353
3 354 814 816
3 816 815 67
3 814 815 816
3 355 817 819
3 819 818 354
3 817 818 819
3 355 820 821
3 355 822 823
3 356 824 826
3 826 825 355
3 824 825 826
3 356 827 828
3 163 356 68
3 357 356 163
3 357 829 831
3 831 830 356
3 829 830 831
3 357 832 834
3 832 134 833
3 832 833 834
3 358 134 357
3 358 4 134
3 359 360 5
3 361 360 359
3 361 71 360
3 166 361 70
3 362 361 166
3 362 71 361
3 362 257 71
3 363 257 362
3 363 12 257
3 290 167 11
3 364 167 290
3 364 72 167
3 169 364 35
3 365 364 169
3 365 72 364
3 365 363 72
3 366 363 365
3 366 12 363
3 366 334 12
3 367 334 366
3 367 56 334
3 171 367 73
3 368 367 171
3 368 56 367
3 368 147 56
3 369 147 368
3 369 6 147
3 370 371 3
3 835 371 836
3 837 836 370
3 835 836 837
3 839 838 371
3 372 373 1
3 374 373 372
3 374 76 373
3 174 374 75
3 375 374 174
3 375 76 374
3 375 272 76
3 376 272 375
3 376 15 272
3 295 175 14
3 377 175 295
3 377 77 175
3 177 377 38
3 378 377 177
3 378 77 377
3 378 376 77
3 379 376 378
3 379 15 376
3 379 343 15
3 380 343 379
3 380 61 343
3 179 380 78
3 381 380 179
3 381 61 380
3 381 152 61
3 382 152 381
3 382 3 152
3 348 133 2
3 383 133 348
3 383 39 133
3 182 383 65
3 384 383 182
3 384 39 383
3 384 298 39
3 385 298 384
3 385 16 298
3 300 183 8
3 386 183 300
3 386 80 183
3 185 386 40
3 387 386 185
3 387 80 386
3 387 385 80
3 388 385 387
3 388 16 385
3 388 180 16
3 389 180 388
3 389 79 180
3 187 389 81
3 390 389 187
3 390 79 389
3 390 382 79
3 391 382 390
3 391 3 382
3 391 370 3
3 392 370 391
3 392 840 842
3 842 841 370
3 840 841 842
3 189 392 82
3 843 392 844
3 845 844 189
3 843 844 845
3 847 846 392
3 304 190 17
3 848 190 849
3 850 849 304
3 848 849 850
3 852 851 190
3 192 853 854
3 856 855 192
3 393 857 858
3 393 859 860
3 393 861 862
3 394 863 865
3 865 864 393
3 863 864 865
3 394 866 867
3 194 394 83
3 395 394 194
3 395 868 870
3 870 869 394
3 868 869 870
3 395 871 872
3 396 873 875
3 875 874 395
3 873 874 875
3 396 876 877
3 397 398 0
3 399 398 397
3 399 86 398
3 197 399 85
3 400 399 197
3 400 86 399
3 400 249 86
3 401 249 400
3 401 20 249
3 307 198 19
3 402 198 307
3 402 87 198
3 200 402 42
3 403 402 200
3 403 87 402
3 403 401 87
3 404 401 403
3 404 20 401
3 404 329 20
3 405 329 404
3 405 53 329
3 202 405 88
3 406 405 202
3 406 53 405
3 406 144 53
3 407 144 406
3 407 5 144
3 878 21 879
3 205 880 881
3 883 882 205
3 408 884 885
3 408 886 888
3 886 21 887
3 886 887 888
3 408 203 21
3 409 203 408
3 409 89 203
3 207 409 90
3 410 409 207
3 410 89 409
3 410 407 89
3 411 407 410
3 411 5 407
3 411 359 5
3 412 359 411
3 412 70 359
3 209 412 91
3 413 412 209
3 413 70 412
3 413 165 70
3 414 165 413
3 414 11 165
3 311 210 22
3 415 210 311
3 415 92 210
3 212 415 44
3 416 415 212
3 416 92 415
3 416 414 92
3 417 414 416
3 417 11 414
3 417 289 11
3 418 289 417
3 418 34 289
3 214 418 93
3 419 418 214
3 419 34 418
3 419 128 34
3 420 128 419
3 420 1 128
3 889 45 890
3 216 891 892
3 421 893 895
3 895 894 216
3 893 894 895
3 421 896 898
3 896 45 897
3 896 897 898
3 421 314 45
3 422 314 421
3 422 23 314
3 315 899 901
3 899 217 900
3 899 900 901
3 423 217 315
3 423 95 217
3 219 423 46
3 424 423 219
3 424 95 423
3 424 422 95
3 425 422 424
3 425 23 422
3 425 215 23
3 426 215 425
3 426 94 215
3 221 426 96
3 427 426 221
3 427 94 426
3 427 420 94
3 428 420 427
3 428 1 420
3 428 372 1
3 429 372 428
3 429 75 372
3 223 429 97
3 430 429 223
3 430 75 429
3 430 173 75
3 431 173 430
3 431 14 173
3 319 224 24
3 432 224 319
3 432 98 224
3 226 432 48
3 433 432 226
3 433 98 432
3 433 431 98
3 434 431 433
3 434 14 431
3 434 294 14
3 435 294 434
3 435 37 294
3 228 435 99
3 436 435 228
3 436 37 435
3 436 131 37
3 437 131 436
3 437 2 131
3 902 142 903
3 438 904 906
3 904 142 905
3 904 905 906
3 438 49 142
3 230 907 909
3 907 438 908
3 907 908 909
3 439 438 230
3 439 49 438
3 439 322 49
3 440 322 439
3 440 25 322
3 323 910 912
3 910 231 911
3 910 911 912
3 441 231 323
3 441 101 231
3 233 441 50
3 442 441 233
3 442 101 441
3 442 440 101
3 443 440 442
3 443 25 440
3 443 229 25
3 444 229 443
3 444 100 229
3 235 444 102
3 445 444 235
3 445 100 444
3 445 437 100
3 446 437 445
3 446 2 437
3 446 347 2
3 447 347 446
3 447 64 347
3 237 447 103
3 448 447 237
3 448 64 447
3 448 155 64
3 449 155 448
3 449 7 155
3 913 238 914
3 915 914 26
3 913 914 915
3 916 238 917
3 918 104 919
3 920 919 238
3 918 919 920
3 921 104 922
3 923 449 924
3 925 924 104
3 923 924 925
3 450 926 928
3 926 449 927
3 926 927 928
3 450 7 449
3 450 929 931
3 931 930 7
3 929 930 931
3 933 932 450
3 934 52 935
3 451 936 937
3 451 938 940
3 938 52 939
3 938 939 940
3 451 328 52
3 452 328 451
3 452 27 328
3 941 105 942
3 240 943 944
3 453 945 947
3 947 946 240
3 945 946 947
3 453 948 950
3 948 105 949
3 948 949 950
3 453 452 105
3 454 452 453
3 454 27 452
3 454 248 27
3 455 248 454
3 455 107 248
3 242 455 106
3 456 455 242
3 456 107 455
3 456 457 107
3 397 457 456
3 397 0 457
3 951 158 952
3 458 953 955
3 953 158 954
3 953 954 955
3 458 9 158
3 325 956 958
3 956 243 957
3 956 957 958
3 459 243 325
3 459 108 243
3 245 459 51
3 460 459 245
3 460 108 459
3 460 458 108
3 461 458 460
3 461 9 458
3 461 284 9
3 462 284 461
3 462 31 284
3 247 462 109
3 463 462 247
3 463 31 462
3 463 125 31
3 457 125 463
3 457 0 125
3 398 127 0
3 464 127 398
3 464 33 127
3 250 464 86
3 465 464 250
3 465 33 464
3 465 288 33
3 466 288 465
3 466 10 288
3 330 251 20
3 467 251 330
3 467 110 251
3 253 467 54
3 468 467 253
3 468 110 467
3 468 466 110
3 469 466 468
3 469 10 466
3 469 164 10
3 470 164 469
3 470 69 164
3 255 470 111
3 471 470 255
3 471 69 470
3 471 358 69
3 472 358 471
3 472 4 358
3 360 146 5
3 473 146 360
3 473 55 146
3 258 473 71
3 474 473 258
3 474 55 473
3 474 333 55
3 475 333 474
3 475 28 333
3 335 259 12
3 476 259 335
3 476 113 259
3 261 476 57
3 477 476 261
3 477 113 476
3 477 475 113
3 478 475 477
3 478 28 475
3 478 256 28
3 479 256 478
3 479 112 256
3 263 479 114
3 480 479 263
3 480 112 479
3 480 472 112
3 481 472 480
3 481 4 472
3 481 137 4
3 482 137 481
3 482 41 137
3 265 482 115
3 483 482 265
3 483 41 482
3 483 305 41
3 484 305 483
3 484 18 305
3 339 266 29
3 485 266 339
3 485 116 266
3 268 485 59
3 486 485 268
3 486 116 485
3 486 484 116
3 487 484 486
3 487 18 484
3 487 195 18
3 488 195 487
3 488 84 195
3 270 488 117
3 489 488 270
3 489 84 488
3 489 396 84
3 490 396 489
3 490 959 961
3 961 960 396
3 959 960 961
3 373 130 1
3 491 130 373
3 491 36 130
3 273 491 76
3 492 491 273
3 492 36 491
3 492 293 36
3 493 293 492
3 493 13 293
3 344 274 15
3 494 274 344
3 494 119 274
3 276 494 62
3 495 494 276
3 495 119 494
3 495 493 119
3 496 493 495
3 496 13 493
3 496 172 13
3 497 172 496
3 497 74 172
3 278 497 120
3 498 497 278
3 498 74 497
3 498 369 74
3 499 369 498
3 499 6 369
3 371 154 3
3 962 154 963
3 964 963 371
3 962 963 964
3 965 63 966
3 967 966 154
3 965 966 967
3 968 63 969
3 971 970 63
3 972 279 973
3 974 279 975
3 976 121 977
3 978 977 279
3 976 977 978
3 500 979 980
3 500 981 983
3 981 121 982
3 981 982 983
3 500 499 121
3 501 499 500
3 501 6 499
3 501 151 6
3 502 151 501
3 502 60 151
3 281 502 122
3 503 502 281
3 503 60 502
3 503 342 60
3 504 342 503
3 504 30 342
3 984 282 985
3 505 986 988
3 986 282 987
3 986 987 988
3 505 123 282
3 989 505 990
3 506 991 993
3 991 505 992
3 991 992 993
3 506 123 505
3 506 504 123
3 507 504 506
3 507 30 504
3 507 271 30
3 508 271 507
3 508 118 271
3 994 508 995
3 996 995 124
3 994 995 996
3 509 997 999
3 997 508 998
3 997 998 999
3 509 118 508
3 509 490 118
3 1000 490 1001
3 1002 1001 509
3 1000 1001 1002
3 1004 1003 490
